<svg width="401" height="321" viewBox="0 0 401 321" fill="none" xmlns="http://www.w3.org/2000/svg">
<path d="M167.58 248.031C166.706 248.354 167.293 248.664 167.031 249.831C166.918 250.34 166.856 250.961 166.694 251.656C166.569 252.203 166.507 252.836 166.357 253.481C166.232 254.053 166.07 254.648 165.933 255.294C165.808 255.877 165.733 256.498 165.596 257.119C165.471 257.702 165.109 258.261 164.972 258.882C164.834 259.465 164.76 260.086 164.622 260.707C164.485 261.328 164.373 261.911 164.236 262.519C164.098 263.128 164.235 263.786 164.111 264.394C163.986 265.002 163.487 265.511 163.35 266.132C163.212 266.753 163.187 267.361 163.05 267.97C162.913 268.578 162.813 269.174 162.676 269.782C162.538 270.39 162.688 271.048 162.563 271.657C162.439 272.265 161.964 272.786 161.84 273.395C161.715 274.003 161.615 274.611 161.478 275.22C161.34 275.828 161.365 276.474 161.228 277.082C161.091 277.69 160.654 278.237 160.517 278.832C160.38 279.428 160.654 280.136 160.517 280.744C160.38 281.353 160.155 281.936 160.03 282.545C159.905 283.153 159.469 283.699 159.344 284.307C159.219 284.916 159.269 285.574 159.144 286.17C159.019 286.766 158.757 287.374 158.633 287.97C158.508 288.566 158.296 289.186 158.171 289.782C158.046 290.378 158.133 291.061 158.009 291.657C157.884 292.278 157.597 292.861 157.472 293.445C157.347 294.078 157.372 294.711 157.247 295.294C157.123 295.928 156.973 296.536 156.861 297.119C156.736 297.765 156.511 298.361 156.411 298.932C156.287 299.615 156.336 300.248 156.249 300.794C156.124 301.564 155.975 302.172 155.925 302.619C155.85 303.265 155.9 303.873 155.825 304.407C155.737 305.065 155.575 305.636 155.488 306.17C155.376 306.828 155.114 307.387 155.026 307.908C154.914 308.566 153.688 309.174 153.638 309.721C153.589 310.329 153.425 311.392 153.5 312C153.562 312.534 153.726 312.576 153.913 313.221C154.063 313.73 153.663 315.367 153.913 316C154.163 316.633 154.075 317.541 154.5 318C154.924 318.459 155.338 318.597 155.925 318.932C156.436 319.218 157.984 319.23 158.633 319.441C159.194 319.628 160.326 319.363 161 319.5C161.586 319.612 163.237 319.354 163.911 319.441C164.51 319.516 165.184 319.218 165.858 319.268C166.469 319.317 167.081 319.615 167.755 319.652C168.366 319.69 169.002 319.814 169.664 319.839C170.275 319.863 170.924 319.739 171.585 319.752C172.209 319.764 172.846 319.628 173.507 319.628H175.429C176.053 319.628 176.689 319.541 177.338 319.553C177.987 319.565 178.599 319.926 179.26 319.926C179.921 319.926 180.533 319.528 181.182 319.528C181.768 319.528 182.38 319.975 183.016 319.975C183.615 319.975 184.226 319.863 184.85 319.863C185.474 319.863 186.061 319.963 186.685 319.963C187.309 319.963 187.895 319.739 188.519 319.739C189.143 319.739 189.742 319.814 190.353 319.814C190.965 319.814 191.576 319.988 192.2 319.988C192.824 319.988 193.423 319.814 194.047 319.814C194.671 319.814 195.27 319.677 195.894 319.677C196.518 319.677 197.117 319.888 197.741 319.888C198.365 319.888 198.964 319.752 199.575 319.752C200.187 319.752 200.798 319.901 201.41 319.901C202.021 319.901 202.633 319.516 203.244 319.516C203.855 319.516 204.479 319.541 205.091 319.541C205.702 319.541 206.326 319.926 206.938 319.926C207.549 319.926 208.173 319.851 208.785 319.851H210.631C211.243 319.851 211.867 319.789 212.478 319.789C213.09 319.789 213.714 320 214.325 320C214.937 320 215.561 319.975 216.172 319.975C216.783 319.975 217.407 319.677 218.019 319.677C218.63 319.677 219.254 319.603 219.866 319.603C220.477 319.603 221.101 319.727 221.713 319.727C222.324 319.727 222.96 319.665 223.559 319.665C224.158 319.665 224.807 319.913 225.406 319.913C226.043 319.913 226.654 319.466 227.253 319.466C227.89 319.466 228.501 319.528 229.1 319.528C229.749 319.528 230.36 319.491 230.947 319.491C231.608 319.491 232.22 319.801 232.781 319.801H234.628C235.452 319.801 236.076 319.839 236.462 319.839C237.111 319.839 237.785 319.826 238.422 319.739C239.058 319.652 239.694 319.416 240.306 319.181C240.917 318.945 243.018 319.812 243.543 319.365C243.992 318.968 244.728 318.757 245.102 318.161C245.414 317.665 245.75 317.67 246 317C246.2 316.441 246.375 315.169 246.512 314.474C246.637 313.89 246.425 313.195 246.5 312.5C246.562 311.892 246.587 311.259 246.612 310.563C246.637 309.955 245.01 307.933 244.998 307.25C244.998 306.629 244.935 305.984 244.898 305.301C244.873 304.73 244.923 304.097 244.836 303.414C244.773 302.83 244.424 302.247 244.324 301.589C244.237 300.993 244.599 300.298 244.486 299.652C244.374 299.056 244.087 298.46 243.962 297.827C243.85 297.231 243.513 296.648 243.376 296.015C243.238 295.381 243.201 294.773 243.064 294.152C242.926 293.532 242.989 292.886 242.839 292.265C242.689 291.645 242.465 291.073 242.315 290.44C242.165 289.807 241.728 289.298 241.579 288.677C241.429 288.057 241.242 287.473 241.08 286.852C240.917 286.232 241.154 285.536 241.005 284.916C240.855 284.295 240.668 283.712 240.506 283.103C240.343 282.495 240.156 281.899 239.994 281.291C239.832 280.682 239.769 280.049 239.607 279.441C239.445 278.832 239.233 278.237 239.07 277.628C238.908 277.02 238.509 276.474 238.334 275.865C238.16 275.257 238.209 274.587 238.035 273.978C237.86 273.37 237.76 272.737 237.586 272.141C237.411 271.545 237.099 270.961 236.924 270.353C236.749 269.745 236.7 269.099 236.525 268.491C236.35 267.883 235.926 267.336 235.751 266.74C235.576 266.145 235.289 265.549 235.115 264.953C234.94 264.357 234.616 263.773 234.441 263.177C234.266 262.581 234.254 261.911 234.079 261.315C233.904 260.719 233.755 260.086 233.58 259.49C233.405 258.894 233.168 258.274 232.993 257.69C232.806 257.069 232.669 256.449 232.494 255.865C232.307 255.244 231.883 254.711 231.708 254.127C231.508 253.494 231.671 252.786 231.483 252.215C231.284 251.582 230.872 251.048 230.697 250.477C230.498 249.831 230.548 249.149 230.373 248.602C230.148 247.907 229.574 247.435 229.412 246.926C229.038 245.772 229.911 245.536 229 245.288C228.089 245.039 228.127 244.965 227.203 245.015C226.28 245.064 226.28 245.039 225.344 245.089C224.408 245.139 224.408 245.114 223.485 245.164C222.561 245.213 222.561 245.399 221.638 245.449C220.714 245.499 220.714 245.511 219.778 245.561C218.842 245.61 218.855 245.61 217.919 245.66C216.983 245.71 216.983 245.511 216.047 245.548C215.111 245.586 215.136 245.946 214.213 245.995C213.289 246.045 213.264 245.685 212.341 245.735C211.418 245.784 211.43 246.132 210.494 246.182C209.558 246.231 209.546 245.97 208.622 246.008C207.699 246.045 207.686 245.933 206.751 245.983C205.815 246.033 205.827 246.033 204.891 246.082C203.955 246.132 203.98 246.455 203.044 246.504C202.108 246.554 202.096 246.194 201.16 246.244C200.224 246.293 200.237 246.467 199.301 246.504C198.365 246.542 198.377 246.641 197.441 246.691C196.505 246.74 196.518 246.852 195.582 246.902C194.646 246.951 194.646 246.815 193.71 246.864C192.774 246.914 192.762 246.641 191.838 246.678C190.915 246.715 190.927 247.162 189.992 247.212C189.056 247.262 189.043 246.976 188.12 247.013C187.196 247.051 187.184 247.051 186.26 247.1C185.337 247.15 185.337 247.162 184.401 247.2C183.465 247.237 183.465 247.137 182.542 247.187C181.618 247.237 181.618 247.324 180.682 247.361C179.747 247.398 179.759 247.584 178.823 247.622C177.887 247.659 177.887 247.51 176.951 247.547C176.015 247.584 176.015 247.473 175.08 247.51C174.144 247.547 174.144 247.51 173.208 247.56C172.272 247.609 172.272 247.609 171.336 247.659C170.4 247.709 170.4 248.155 169.464 248.093C168.528 248.031 168.478 247.671 167.592 247.994V248.031H167.58Z" fill="#AEB7E2"/>
<path d="M17.5 3.76721C21.9464 3.85531 19.9848 3.17323 24.4436 3.26133C28.9023 3.34942 28.9023 3.12288 33.3487 3.1984C37.7951 3.27391 37.7951 3.75215 42.2416 3.84025C46.688 3.92835 46.7003 3.50044 51.1591 3.58854C55.6179 3.67663 55.6179 3.37459 60.0643 3.46269C64.5107 3.55078 64.5107 3.81507 68.9695 3.90317C73.4282 3.99127 73.4035 3.42395 77.8623 3.51205C82.3211 3.60014 82.3457 3.1103 86.8045 3.1984C91.2633 3.28649 91.2386 3.0185 95.685 3.1066C100.131 3.1947 100.144 2.96816 104.59 3.05626C109.037 3.14436 106.054 3.03923 110.5 3.13991C114.946 3.24059 116.554 3.67912 121 3.76721C125.446 3.85531 126.847 2.35322 131.306 2.42873C135.764 2.50424 135.752 2.68043 140.199 2.76853C144.645 2.85663 144.657 2.15185 149.116 2.22736C153.575 2.30287 153.575 1.92532 158.021 2.01341C162.468 2.10151 162.455 2.98248 166.914 3.07057C171.373 3.15867 171.373 3.03282 175.819 3.12092C180.266 3.20901 180.278 2.80628 184.724 2.89438C189.171 2.98248 189.158 3.78794 193.617 3.86345C198.076 3.93897 198.076 3.4733 202.535 3.5614C206.994 3.6495 207.006 2.93213 211.452 3.02023C215.899 3.10833 215.899 3.17126 220.358 3.25935C224.816 3.34745 224.779 3.1873 229.226 3.2754C233.672 3.36349 233.709 3.57399 238.168 3.66208C242.627 3.75018 242.602 3.58288 247.048 3.67097C251.495 3.75907 251.519 4.0774 255.978 4.1655C260.437 4.25359 260.437 4.00189 264.896 4.08999C269.355 4.17809 269.317 2.75842 273.776 2.84652C278.235 2.93462 278.26 3.67912 282.718 3.76721C287.177 3.85531 287.153 2.54447 291.599 2.63256C296.045 2.72066 296.045 3.17374 300.504 3.24925C304.963 3.32476 304.951 3.60163 309.409 3.67715C313.868 3.75266 313.868 3.45061 318.314 3.53871C322.761 3.6268 322.786 2.78359 327.244 2.87169C331.703 2.95978 331.715 1.94038 336.174 2.02847C340.633 2.11657 340.608 2.93462 345.067 3.02271C349.526 3.11081 349.526 3.13598 353.972 3.22407C358.419 3.31217 358.431 3.06047 362.877 3.14857C367.324 3.23666 367.336 3.27441 371.795 3.34993C376.254 3.42544 376.241 3.9792 380.7 4.05471C385.159 4.13022 385.171 3.24925 389.642 3.33735C392.421 3.38769 394.472 5.85441 396.263 7.7422C398.053 9.63 399.511 11.7947 399.462 14.6264C399.375 19.1822 400.079 19.1948 399.993 23.7633C399.906 28.3317 398.597 28.294 398.51 32.8625C398.424 37.4309 399.882 37.4561 399.795 42.012C399.709 46.5678 399.968 46.5804 399.881 51.1363C399.795 55.6922 399.017 55.6796 398.93 60.2481C398.844 64.8165 399.523 64.8165 399.437 69.385C399.35 73.9535 398.14 73.9283 398.054 78.4842C397.967 83.04 398.708 83.0652 398.622 87.6211C398.535 92.177 398.461 92.177 398.375 96.7454C398.288 101.301 398.016 101.289 397.93 105.845C397.843 110.4 396.682 110.4 396.596 114.969C396.51 119.537 397.609 119.55 397.522 124.118C397.436 128.687 397.016 128.674 396.93 133.243C396.843 137.811 396.51 137.799 396.423 142.367C396.337 146.936 396.065 146.923 395.978 151.491C395.892 156.06 395.793 156.06 395.707 160.616C395.62 165.172 397.547 165.209 397.461 169.778C397.374 174.346 397.461 174.346 397.374 178.902C397.288 183.458 397.487 183.42 397.401 187.989C397.315 192.557 395.843 192.57 395.756 197.126C395.67 201.682 396.547 201.707 396.46 206.275C396.374 210.844 397.24 210.819 397.154 215.387C397.068 219.956 397.277 219.956 397.191 224.524C397.105 229.092 396.771 229.08 396.685 233.648C396.598 238.217 396.337 238.255 396.25 242.823C396.201 245.655 394.78 245.24 392.915 247.052C391.05 248.864 387.74 250.299 384.961 250.249C380.515 250.161 380.527 250.967 376.081 250.879C371.634 250.791 371.634 250.237 367.188 250.161C362.742 250.086 362.705 251.546 358.258 251.458C353.812 251.369 353.849 251.293 349.39 251.205C344.931 251.117 344.919 250.911 340.46 250.823C336.001 250.735 336.001 251.176 331.543 251.087C328.578 251.025 325.614 250.974 322.637 250.911C318.179 250.823 318.179 250.699 313.732 250.611C309.286 250.523 309.286 250.46 304.827 250.372C300.368 250.284 300.381 251.192 295.934 251.104C291.488 251.016 291.488 250.701 287.029 250.613C282.57 250.525 282.558 250.358 278.099 250.269C273.64 250.181 273.665 250.676 269.206 250.588C264.748 250.5 264.772 249.883 260.313 249.795C255.855 249.707 255.855 250.45 251.396 250.362C246.937 250.274 246.937 250.487 242.491 250.399C238.044 250.311 238.069 248.851 233.61 248.763C229.152 248.675 229.127 250.336 224.68 250.261C220.234 250.185 220.259 248.839 215.8 248.751C211.341 248.663 211.341 248.625 206.895 248.549C202.448 248.474 202.411 249.984 197.965 249.896C193.518 249.808 193.543 248.26 189.084 248.184C184.626 248.109 184.638 247.92 180.179 247.832C175.72 247.744 175.708 248.411 171.262 248.323C166.815 248.235 166.791 249.04 162.344 248.952C157.898 248.864 157.91 251.777 153.464 251.689C149.017 251.601 149.017 251.324 144.558 251.236C140.1 251.148 140.1 251.664 135.641 251.575C131.182 251.487 131.182 251.601 126.723 251.513C122.265 251.424 122.252 252.607 117.794 252.519C113.335 252.431 113.359 251.651 108.901 251.563C104.442 251.475 104.467 250.619 100.008 250.531C95.5492 250.443 95.5368 251.097 91.0904 251.009C86.644 250.921 86.6316 251.513 82.1728 251.437C77.7141 251.361 77.7264 251.21 73.2677 251.122C68.8089 251.034 68.7965 251.726 64.3501 251.638C59.9037 251.55 59.9037 251.374 55.4449 251.286C50.9862 251.198 51.0232 249.562 46.5645 249.474C42.1057 249.386 42.1181 249.235 37.6593 249.146C33.2005 249.058 33.1882 249.511 28.7418 249.423C24.2953 249.335 24.283 249.058 19.8242 248.983C15.3655 248.907 15.3284 250.732 10.8696 250.644C8.09064 250.594 6.38619 243.591 4.60762 241.703C2.82905 239.815 -0.0487768 237.965 0.000627813 235.133C0.0870859 230.577 1.77921 230.603 1.86566 226.047C1.95212 221.491 0.568779 221.453 0.655237 216.897C0.741695 212.341 1.02578 212.341 1.11224 207.773C1.1987 203.204 2.73023 203.242 2.81669 198.686C2.90315 194.13 1.34691 194.093 1.43337 189.537C1.51982 184.981 0.803454 184.956 0.889912 180.4C0.97637 175.844 1.50747 175.844 1.58157 171.288C1.65568 166.732 2.8661 166.745 2.94021 162.189C3.01431 157.633 1.69275 157.595 1.76685 153.039C1.84096 148.484 2.92785 148.496 3.01431 143.94C3.10077 139.384 2.58202 139.372 2.66848 134.803C2.75494 130.235 2.40911 130.235 2.49557 125.666C2.58202 121.098 2.8167 121.111 2.90316 116.542C2.98961 111.974 3.12294 112.011 3.20939 107.443C3.29585 102.874 2.84185 102.862 2.9283 98.306C3.01476 93.7501 3.38485 93.725 3.45895 89.1691C3.53306 84.6132 2.46579 84.6384 2.5399 80.0699C2.61401 75.5014 3.10077 75.4637 3.18723 70.9078C3.27369 66.3519 2.13232 66.3645 2.21878 61.8086C2.30523 57.2528 3.33544 57.215 3.4219 52.6465C3.50836 48.0781 2.24347 48.1032 2.32993 43.5348C2.41639 38.9663 1.60121 38.9537 1.68767 34.3853C1.77412 29.8168 3.28097 29.8546 3.36742 25.2861C3.45388 20.7176 2.98455 20.7051 3.07101 16.1366C3.15747 11.5681 5.34869 14.6212 5.43515 10.0527C5.48455 7.22101 5.70687 9.68722 7.55954 7.87494C9.41222 6.06265 12.7841 3.51106 15.5631 3.5614L17.5 3.76721Z" fill="#AEB7E2"/>
<path d="M387.468 14.333H13.2656V239.122H387.468V14.333Z" fill="#181C56"/>
<path d="M165.63 253.789C165.408 254.877 165.445 254.889 165.222 255.978C165 257.066 165.012 257.066 164.778 258.154C164.543 259.243 164.568 259.242 164.345 260.331C164.123 261.419 164.074 261.407 163.851 262.507C163.629 263.608 163.703 263.608 163.481 264.696C163.258 265.784 163.221 265.784 162.999 266.873C162.777 267.961 162.789 267.961 162.567 269.049C162.345 270.138 162.307 270.138 162.085 271.226C161.863 272.314 161.925 272.326 161.702 273.415C161.48 274.503 161.418 274.491 161.196 275.579C160.974 276.667 160.986 276.667 160.764 277.768C160.541 278.868 160.517 278.856 160.294 279.944C160.072 281.033 160.084 281.033 159.862 282.133C159.64 283.234 159.677 283.234 159.454 284.322C159.232 285.41 159.244 285.41 159.022 286.511C158.8 287.612 158.726 287.587 158.503 288.688C158.281 289.788 158.306 289.788 158.083 290.889C157.861 291.989 157.898 291.989 157.676 293.09" stroke="#181C56" stroke-width="1.5" stroke-linecap="round" stroke-linejoin="round"/>
<path d="M155.291 303.787C155.069 305.036 155.057 305.036 154.822 306.285C154.587 307.534 154.464 307.51 154.229 308.759C153.994 310.008 154.056 310.02 153.821 311.269C153.587 312.518 153.587 312.518 153.352 313.767C153.204 314.546 153.34 315.301 153.525 316.006C153.71 316.71 154.081 317.391 154.562 317.972C155.044 318.553 155.563 319.122 156.255 319.456C156.946 319.79 157.687 319.926 158.478 319.926C159.626 319.926 159.626 319.951 160.775 319.951C161.924 319.951 161.924 320 163.072 320C164.221 320 164.221 319.852 165.37 319.852C166.518 319.852 166.518 319.852 167.667 319.852C168.816 319.852 168.816 319.926 169.964 319.926C171.113 319.926 171.113 319.876 172.262 319.876C173.41 319.876 173.41 319.963 174.559 319.963C175.708 319.963 175.708 319.926 176.856 319.926C178.005 319.926 178.005 319.839 179.141 319.839C180.278 319.839 180.29 319.913 181.426 319.913C182.563 319.913 182.575 319.938 183.711 319.938C184.848 319.938 184.86 319.852 185.996 319.852C187.132 319.852 187.145 319.852 188.293 319.852C189.442 319.852 189.442 319.852 190.591 319.852C191.739 319.852 191.739 319.889 192.876 319.889C194.012 319.889 194.024 319.839 195.161 319.839C196.297 319.839 196.309 319.79 197.446 319.79C198.582 319.79 198.594 319.963 199.743 319.963C200.892 319.963 200.892 319.827 202.04 319.827C203.189 319.827 203.189 319.901 204.338 319.901C205.486 319.901 205.486 319.827 206.635 319.827C207.784 319.827 207.784 319.926 208.932 319.926C210.081 319.926 210.081 319.839 211.23 319.839C212.378 319.839 212.378 319.839 213.527 319.839C214.676 319.839 214.676 319.963 215.824 319.963C216.973 319.963 216.973 319.938 218.121 319.938C219.27 319.938 219.27 319.876 220.419 319.876C221.567 319.876 221.567 319.951 222.704 319.951C223.84 319.951 223.852 319.938 225.001 319.938C226.15 319.938 226.15 319.889 227.298 319.889C228.447 319.889 228.447 319.864 229.596 319.864C230.744 319.864 230.744 319.827 231.893 319.827C233.042 319.827 233.042 319.901 234.19 319.901C235.339 319.901 235.339 319.839 236.488 319.839C237.636 319.839 237.636 319.938 238.797 319.938C239.958 319.938 239.946 319.901 241.107 319.901C241.86 319.901 242.54 319.716 243.194 319.468C243.849 319.221 244.467 318.825 244.998 318.355C245.529 317.885 246.085 317.391 246.418 316.748C246.751 316.104 246.912 315.4 247.011 314.67C247.11 313.94 247.097 313.248 246.924 312.518C246.653 311.393 246.529 311.418 246.257 310.292C245.986 309.167 246.097 309.13 245.825 308.004C245.553 306.879 245.418 306.904 245.146 305.778C244.874 304.653 245.035 304.616 244.751 303.478C244.467 302.34 244.318 302.39 244.047 301.264C243.775 300.139 243.886 300.114 243.602 298.977C243.318 297.839 243.343 297.839 243.071 296.714C242.799 295.588 242.811 295.576 242.54 294.45C242.268 293.325 242.194 293.337 241.922 292.212C241.65 291.087 241.613 291.087 241.329 289.961C241.045 288.836 241.169 288.799 240.897 287.674C240.625 286.548 240.551 286.561 240.267 285.435C239.983 284.31 240.008 284.297 239.736 283.172C239.464 282.047 239.526 282.022 239.254 280.897C238.983 279.771 238.884 279.784 238.612 278.658C238.34 277.533 238.365 277.52 238.081 276.395C237.797 275.27 237.834 275.257 237.55 274.132C237.266 273.007 237.29 272.994 237.006 271.869C236.722 270.744 236.661 270.756 236.389 269.631C236.117 268.505 236.092 268.505 235.808 267.38C235.524 266.254 235.5 266.254 235.228 265.117C234.956 263.979 234.944 263.991 234.672 262.854C234.4 261.716 234.511 261.691 234.227 260.553C233.943 259.416 233.931 259.428 233.647 258.29C233.363 257.153 233.425 257.14 233.153 256.002" stroke="#181C56" stroke-width="1.5" stroke-linecap="round" stroke-linejoin="round"/>
<path d="M303.516 249.732C302.38 249.732 302.38 249.46 301.243 249.46C300.107 249.46 300.107 249.609 298.971 249.609C297.835 249.609 297.835 249.609 296.698 249.609C295.562 249.609 295.562 249.535 294.426 249.535C293.289 249.535 293.289 249.51 292.153 249.51C291.017 249.51 291.017 249.708 289.88 249.708C288.744 249.708 288.744 249.46 287.608 249.46C286.471 249.46 286.471 249.584 285.335 249.584C284.199 249.584 284.199 249.769 283.063 249.769C281.926 249.769 281.926 249.856 280.79 249.856C279.654 249.856 279.654 249.918 278.517 249.918C277.381 249.918 277.381 249.782 276.245 249.782C275.108 249.782 275.108 249.844 273.972 249.844C272.836 249.844 272.836 249.436 271.699 249.436C270.563 249.436 270.563 249.621 269.427 249.621C268.291 249.621 268.291 249.436 267.154 249.436C266.018 249.436 266.018 249.671 264.882 249.671C263.745 249.671 263.745 249.683 262.609 249.683C261.473 249.683 261.473 249.497 260.336 249.497C259.2 249.497 259.2 249.51 258.064 249.51C256.928 249.51 256.927 249.868 255.791 249.868C254.655 249.868 254.655 249.782 253.519 249.782C252.382 249.782 252.382 249.646 251.246 249.646C250.11 249.646 250.11 249.423 248.973 249.423C247.837 249.423 247.837 249.522 246.701 249.522C245.564 249.522 245.564 249.473 244.428 249.473C243.292 249.473 243.292 249.757 242.156 249.757C241.019 249.757 241.019 249.497 239.895 249.497C238.771 249.497 238.759 249.893 237.635 249.893C236.511 249.893 236.499 249.559 235.375 249.559C234.251 249.559 234.238 249.497 233.114 249.497C231.991 249.497 231.978 249.955 230.854 249.955C229.73 249.955 229.718 249.423 228.594 249.423C227.47 249.423 227.458 249.782 226.321 249.782C225.185 249.782 225.185 249.683 224.049 249.683C222.912 249.683 222.912 249.584 221.776 249.584C220.64 249.584 220.64 249.497 219.504 249.497C218.367 249.497 218.367 249.856 217.231 249.856C216.095 249.856 216.095 249.658 214.958 249.658C213.822 249.658 213.822 249.757 212.686 249.757C211.549 249.757 211.549 249.881 210.413 249.881C209.277 249.881 209.277 249.671 208.14 249.671C207.004 249.671 207.004 249.398 205.868 249.398C204.732 249.398 204.732 249.856 203.595 249.856C202.459 249.856 202.459 249.436 201.323 249.436C200.186 249.436 200.186 249.98 199.05 249.98C197.914 249.98 197.914 249.807 196.777 249.807C195.641 249.807 195.641 249.807 194.505 249.807C193.368 249.807 193.368 249.671 192.232 249.671C191.096 249.671 191.096 249.769 189.96 249.769C188.823 249.769 188.823 249.769 187.687 249.769C186.551 249.769 186.551 249.93 185.414 249.93C184.278 249.93 184.278 249.423 183.142 249.423C182.005 249.423 182.005 249.584 180.869 249.584C179.733 249.584 179.733 249.646 178.596 249.646C177.46 249.646 177.46 249.535 176.324 249.535C175.188 249.535 175.188 249.448 174.051 249.448C172.915 249.448 172.915 249.411 171.779 249.411C170.642 249.411 170.642 249.93 169.506 249.93C168.37 249.93 168.37 249.596 167.233 249.596C166.097 249.596 166.097 249.46 164.961 249.46C163.825 249.46 163.825 249.485 162.688 249.485C161.552 249.485 161.552 249.485 160.416 249.485C159.279 249.485 159.279 249.658 158.143 249.658C157.007 249.658 157.007 249.695 155.87 249.695C154.734 249.695 154.734 249.782 153.598 249.782C152.461 249.782 152.461 249.473 151.325 249.473C150.189 249.473 150.189 249.448 149.053 249.448C147.916 249.448 147.916 249.658 146.78 249.658C145.644 249.658 145.644 249.807 144.507 249.807C143.371 249.807 143.371 249.522 142.235 249.522C141.098 249.522 141.098 249.905 139.962 249.905C138.826 249.905 138.826 249.856 137.689 249.856C136.553 249.856 136.553 249.535 135.417 249.535C134.281 249.535 134.281 249.819 133.144 249.819C132.008 249.819 132.008 249.943 130.872 249.943C129.735 249.943 129.735 249.943 128.599 249.943C127.463 249.943 127.463 249.732 126.326 249.732C125.19 249.732 125.19 249.943 124.054 249.943C122.918 249.943 122.917 249.51 121.781 249.51C120.645 249.51 120.645 249.967 119.509 249.967C118.372 249.967 118.372 249.844 117.236 249.844C116.1 249.844 116.1 249.844 114.963 249.844C113.827 249.844 113.827 249.72 112.691 249.72C111.554 249.72 111.554 249.918 110.418 249.918C109.282 249.918 109.282 249.967 108.146 249.967C107.009 249.967 107.009 249.708 105.873 249.708C104.737 249.708 104.737 249.868 103.6 249.868C102.464 249.868 102.464 249.905 101.328 249.905C100.191 249.905 100.191 249.535 99.0551 249.535C97.9188 249.535 97.9188 249.844 96.7825 249.844C95.6462 249.844 95.6462 249.596 94.5099 249.596C93.3735 249.596 93.3736 249.98 92.2372 249.98C91.1009 249.98 91.1009 249.609 89.9646 249.609C88.8283 249.609 88.8283 249.807 87.692 249.807C86.5557 249.807 86.5557 249.807 85.4194 249.807C84.2831 249.807 84.2831 249.992 83.1468 249.992C82.0105 249.992 82.0105 249.745 80.8742 249.745C79.7379 249.745 79.7379 249.732 78.6016 249.732C77.4653 249.732 77.4653 249.93 76.329 249.93C75.1927 249.93 75.1927 249.596 74.0564 249.596C72.92 249.596 72.9201 249.547 71.7837 249.547C70.6474 249.547 70.6474 249.918 69.5111 249.918C68.3748 249.918 68.3748 249.609 67.2385 249.609C66.1022 249.609 66.1022 249.807 64.9659 249.807C63.8296 249.807 63.8296 249.769 62.6933 249.769C61.557 249.769 61.557 249.547 60.4207 249.547C59.2844 249.547 59.2844 249.905 58.1481 249.905C57.0118 249.905 57.0118 249.695 55.8755 249.695C54.7392 249.695 54.7392 249.893 53.6029 249.893C52.4665 249.893 52.4665 249.844 51.3302 249.844C50.1939 249.844 50.1939 249.992 49.0576 249.992C47.9213 249.992 47.9213 249.522 46.7727 249.522C45.624 249.522 45.6363 249.423 44.5 249.423C43.3637 249.423 43.3637 249.522 42.2151 249.522C41.0664 249.522 41.0788 249.757 39.9425 249.757C38.8062 249.757 38.8062 249.819 37.6575 249.819C36.5089 249.819 36.5212 249.881 35.3849 249.881C34.2486 249.881 34.2486 249.955 33.1123 249.955C31.976 249.955 31.976 249.708 30.8273 249.708C29.6787 249.708 29.691 249.473 28.5547 249.473C27.4184 249.473 27.4184 249.955 26.2697 249.955C25.1211 249.955 25.1334 249.683 23.9848 249.683C22.8361 249.683 22.8485 249.782 21.6998 249.782C20.5512 249.782 20.5635 249.609 19.4149 249.609C18.2662 249.609 18.2662 249.868 17.1299 249.868C15.9936 249.868 15.9812 249.881 14.8449 249.881C14.0545 249.881 13.3257 249.374 12.5847 249.225C11.8436 249.077 10.9667 249.225 10.2626 248.929C9.55863 248.632 8.81758 248.273 8.17532 247.853C7.53306 247.432 6.82905 246.975 6.2856 246.418C5.74214 245.862 5.49512 245.033 5.06282 244.39C4.63053 243.747 4.22294 243.104 3.91416 242.374C3.60538 241.645 3.61773 240.878 3.46952 240.111C3.3213 239.344 3.06194 238.639 3.06194 237.848C3.06194 236.71 3.06194 236.71 3.06194 235.56C3.06194 234.41 2.93843 234.422 2.93843 233.272C2.93843 232.122 3.08663 232.135 3.08663 230.985C3.08663 229.834 2.7408 229.847 2.7408 228.697C2.7408 227.547 2.91372 227.547 2.91372 226.409C2.91372 225.271 3.099 225.259 3.099 224.121C3.099 222.983 3.07429 222.971 3.07429 221.833C3.07429 220.695 3.07429 220.683 3.07429 219.545C3.07429 218.408 3.04958 218.395 3.04958 217.257C3.04958 216.12 3.12369 216.107 3.12369 214.97C3.12369 213.832 2.76551 213.82 2.76551 212.682C2.76551 211.544 2.87667 211.532 2.87667 210.394C2.87667 209.256 2.76551 209.256 2.76551 208.106C2.76551 206.956 3.1731 206.968 3.1731 205.818C3.1731 204.668 2.82727 204.681 2.82727 203.53C2.82727 202.38 3.099 202.393 3.099 201.243C3.099 200.093 3.28426 200.105 3.28426 198.955C3.28426 197.805 3.14839 197.817 3.14839 196.667C3.14839 195.517 3.11134 195.529 3.11134 194.379C3.11134 193.229 3.07429 193.241 3.07429 192.091C3.07429 190.941 2.69141 190.954 2.69141 189.803C2.69141 188.653 3.12369 188.653 3.12369 187.516C3.12369 186.378 2.85196 186.366 2.85196 185.228C2.85196 184.09 2.76551 184.078 2.76551 182.94C2.76551 181.802 2.80256 181.79 2.80256 180.652C2.80256 179.514 2.93843 179.502 2.93843 178.364C2.93843 177.227 2.92608 177.214 2.92608 176.076C2.92608 174.939 3.02487 174.926 3.02487 173.789C3.02487 172.651 2.97548 172.639 2.97548 171.501C2.97548 170.363 2.93843 170.351 2.93843 169.213C2.93843 168.075 3.08663 168.063 3.08663 166.925C3.08663 165.787 3.16074 165.775 3.16074 164.637C3.16074 163.5 3.28426 163.487 3.28426 162.349C3.28426 161.212 3.16074 161.199 3.16074 160.062C3.16074 158.924 3.16074 158.912 3.16074 157.774C3.16074 156.636 3.2472 156.624 3.2472 155.486C3.2472 154.348 2.77785 154.336 2.77785 153.198C2.77785 152.06 3.16074 152.048 3.16074 150.91C3.16074 149.773 2.97548 149.76 2.97548 148.61C2.97548 147.46 2.90137 147.46 2.90137 146.322C2.90137 145.185 2.81491 145.172 2.81491 144.034C2.81491 142.897 3.21015 142.884 3.21015 141.747C3.21015 140.609 2.77785 140.596 2.77785 139.459C2.77785 138.321 3.28426 138.309 3.28426 137.171C3.28426 136.033 2.82727 136.021 2.82727 134.883C2.82727 133.745 3.00019 133.733 3.00019 132.595C3.00019 131.458 2.95077 131.445 2.95077 130.307C2.95077 129.17 3.2225 129.157 3.2225 128.02C3.2225 126.882 3.2472 126.869 3.2472 125.719C3.2472 124.569 2.95077 124.569 2.95077 123.432C2.95077 122.294 2.70375 122.281 2.70375 121.144C2.70375 120.006 2.75317 119.994 2.75317 118.856C2.75317 117.718 2.80256 117.706 2.80256 116.568C2.80256 115.43 3.06194 115.418 3.06194 114.28C3.06194 113.142 2.97548 113.13 2.97548 111.992C2.97548 110.855 3.2225 110.842 3.2225 109.692C3.2225 108.542 3.12369 108.542 3.12369 107.392C3.12369 106.242 2.98782 106.242 2.98782 105.104C2.98782 103.966 2.79022 103.954 2.79022 102.816C2.79022 101.679 3.02487 101.666 3.02487 100.528C3.02487 99.3907 2.70375 99.3784 2.70375 98.2406C2.70375 97.1029 2.69141 97.0905 2.69141 95.9404C2.69141 94.7903 3.2225 94.7903 3.2225 93.6402C3.2225 92.4901 2.95077 92.4901 2.95077 91.3524C2.95077 90.2147 3.00019 90.2023 3.00019 89.0646C3.00019 87.9268 3.099 87.9145 3.099 86.7644C3.099 85.6143 3.03724 85.6143 3.03724 84.4642C3.03724 83.3141 3.1731 83.3141 3.1731 82.164C3.1731 81.0139 2.97548 81.0139 2.97548 79.8761C2.97548 78.7384 3.099 78.726 3.099 77.5883C3.099 76.4506 3.12369 76.4382 3.12369 75.3005C3.12369 74.1627 2.76551 74.1504 2.76551 73.0126C2.76551 71.8749 3.13605 71.8625 3.13605 70.7124C3.13605 69.5623 3.04958 69.5623 3.04958 68.4122C3.04958 67.2621 2.88903 67.2621 2.88903 66.1244C2.88903 64.9867 2.72846 64.9743 2.72846 63.8366C2.72846 62.6988 2.72846 62.6865 2.72846 61.5487C2.72846 60.411 2.81491 60.3986 2.81491 59.2485C2.81491 58.0984 3.07429 58.0984 3.07429 56.9483C3.07429 55.7982 3.27191 55.7982 3.27191 54.6481C3.27191 53.498 3.2472 53.498 3.2472 52.3479C3.2472 51.1978 2.72846 51.1978 2.72846 50.0477C2.72846 48.8976 3.03724 48.8976 3.03724 47.7475C3.03724 46.5974 3.06194 46.5974 3.06194 45.4473C3.06194 44.2972 2.92608 44.2972 2.92608 43.1471C2.92608 41.997 3.14839 41.997 3.14839 40.8469C3.14839 39.6968 2.79022 39.6968 2.79022 38.5467C2.79022 37.3966 2.71609 37.3966 2.71609 36.2589C2.71609 35.1211 3.01253 35.1088 3.01253 33.9587C3.01253 32.8086 2.7408 32.8086 2.7408 31.6585C2.7408 30.5084 3.21015 30.5084 3.21015 29.3583C3.21015 28.2082 3.19781 28.2082 3.19781 27.0581C3.19781 25.908 2.97548 25.908 2.97548 24.7579C2.97548 23.6078 3.27191 23.6078 3.27191 22.4577C3.27191 21.3076 2.76551 21.3076 2.76551 20.1451C2.76551 18.9826 2.76551 18.995 2.76551 17.8325C2.76551 17.0658 2.97547 16.2867 3.08663 15.5571C3.19779 14.8274 3.66714 14.1349 3.90181 13.43C4.13649 12.7251 4.45761 12.0573 4.80344 11.3771C5.14927 10.697 5.23574 9.8684 5.68038 9.26244C6.12502 8.65647 6.92785 8.34731 7.45895 7.81554C7.99005 7.28377 8.18766 6.34391 8.80522 5.88634C9.42278 5.42877 10.2997 5.40403 10.979 5.05777C11.6583 4.7115 12.2141 4.08081 12.9429 3.84584C13.6716 3.61087 14.425 3.40064 15.1784 3.27697C15.9318 3.15331 16.71 3.32644 17.4757 3.32644C18.5997 3.32644 18.5997 3.53667 19.736 3.53667C20.8723 3.53667 20.8599 3.4872 21.9962 3.4872C23.1325 3.4872 23.1202 3.38827 24.2565 3.38827C25.3928 3.38827 25.3805 3.22751 26.5168 3.22751C27.6531 3.22751 27.6407 3.58614 28.777 3.58614C29.9133 3.58614 29.901 3.36354 31.0249 3.36354C32.1489 3.36354 32.1489 3.31407 33.2728 3.31407C34.3968 3.31407 34.3968 3.5243 35.5208 3.5243C36.6447 3.5243 36.6447 3.32644 37.7687 3.32644C38.8926 3.32644 38.8926 3.41301 40.0289 3.41301C41.1652 3.41301 41.1529 3.28933 42.2892 3.28933C43.4255 3.28933 43.4131 3.63561 44.5495 3.63561C45.6858 3.63561 45.6734 3.5243 46.8097 3.5243C47.946 3.5243 47.9337 3.27697 49.07 3.27697C50.2063 3.27697 50.1939 3.35117 51.3302 3.35117C52.4665 3.35117 52.4542 3.51193 53.5905 3.51193C54.7268 3.51193 54.7144 3.32644 55.8507 3.32644C56.9871 3.32644 56.9747 3.64797 58.111 3.64797C59.2473 3.64797 59.2473 3.31407 60.3713 3.31407C61.4952 3.31407 61.4952 3.35117 62.6315 3.35117C63.7678 3.35117 63.7678 3.0791 64.8918 3.0791C66.0158 3.0791 66.0158 3.42537 67.1521 3.42537C68.2884 3.42537 68.2884 3.3759 69.4123 3.3759C70.5363 3.3759 70.5486 3.0791 71.6726 3.0791C72.7965 3.0791 72.7965 3.3017 73.9328 3.3017C75.0691 3.3017 75.0691 3.64797 76.1931 3.64797C77.3171 3.64797 77.3171 3.62324 78.4534 3.62324C79.5897 3.62324 79.5897 3.12857 80.7136 3.12857C81.8376 3.12857 81.8499 3.21514 82.9739 3.21514C84.0978 3.21514 84.1102 3.64797 85.2341 3.64797C86.3581 3.64797 86.3704 3.21514 87.5068 3.21514C88.6431 3.21514 88.6431 3.21514 89.7794 3.21514C90.9157 3.21514 90.9157 3.41301 92.052 3.41301" stroke="#181C56" stroke-width="1.5" stroke-linecap="round" stroke-linejoin="round"/>
<path d="M111.234 3.129C112.371 3.129 112.371 3.19084 113.507 3.19084C114.643 3.19084 114.643 3.4258 115.78 3.4258C116.916 3.4258 116.916 3.33923 118.052 3.33923C119.189 3.33923 119.188 3.24031 120.325 3.24031C121.461 3.24031 121.461 3.37633 122.597 3.37633C123.734 3.37633 123.734 3.32687 124.87 3.32687C126.006 3.32687 126.006 3.4629 127.143 3.4629C128.279 3.4629 128.279 3.11663 129.415 3.11663C130.552 3.11663 130.552 3.36397 131.688 3.36397C132.824 3.36397 132.824 3.00534 133.96 3.00534C135.097 3.00534 135.097 3.00534 136.233 3.00534C137.369 3.00534 137.369 3.0919 138.506 3.0919C139.642 3.0919 139.642 2.9435 140.778 2.9435C141.915 2.9435 141.915 3.04244 143.051 3.04244C144.187 3.04244 144.187 3.00534 145.324 3.00534C146.46 3.00534 146.46 3.36397 147.596 3.36397C148.732 3.36397 148.732 3.36397 149.869 3.36397C151.005 3.36397 151.005 3.26504 152.141 3.26504C153.278 3.26504 153.278 3.40107 154.414 3.40107C155.55 3.40107 155.55 3.26504 156.687 3.26504C157.823 3.26504 157.823 2.93114 158.947 2.93114C160.071 2.93114 160.083 3.15373 161.207 3.15373C162.331 3.15373 162.343 3.36397 163.467 3.36397C164.591 3.36397 164.604 3.0919 165.728 3.0919C166.852 3.0919 166.864 3.15373 167.988 3.15373C169.112 3.15373 169.124 2.99297 170.248 2.99297C171.372 2.99297 171.384 3.43817 172.508 3.43817C173.632 3.43817 173.645 3.43817 174.781 3.43817C175.917 3.43817 175.917 3.22794 177.054 3.22794C178.19 3.22794 178.19 3.47527 179.326 3.47527C180.463 3.47527 180.463 2.96824 181.599 2.96824C182.735 2.96824 182.735 2.9806 183.871 2.9806C185.008 2.9806 185.008 3.47527 186.144 3.47527C187.28 3.47527 187.28 3.47527 188.417 3.47527C189.553 3.47527 189.553 3.07953 190.689 3.07953C191.826 3.07953 191.826 3.03007 192.962 3.03007C194.098 3.03007 194.098 3.0919 195.235 3.0919C196.371 3.0919 196.371 3.48764 197.495 3.48764C198.619 3.48764 198.631 3.17847 199.755 3.17847C200.879 3.17847 200.891 2.9806 202.015 2.9806C203.139 2.9806 203.152 3.47527 204.276 3.47527C205.4 3.47527 205.412 3.43817 206.536 3.43817C207.66 3.43817 207.672 3.41344 208.796 3.41344C209.92 3.41344 209.932 3.0548 211.056 3.0548C212.18 3.0548 212.193 3.0548 213.329 3.0548C214.465 3.0548 214.465 2.9064 215.602 2.9064C216.738 2.9064 216.738 3.2032 217.874 3.2032C219.011 3.2032 219.011 3.129 220.147 3.129C221.283 3.129 221.283 2.96824 222.419 2.96824C223.556 2.96824 223.556 2.9064 224.692 2.9064C225.828 2.9064 225.828 3.32687 226.965 3.32687C228.101 3.32687 228.101 2.93114 229.237 2.93114C230.374 2.93114 230.374 3.22794 231.51 3.22794C232.646 3.22794 232.646 3.41344 233.782 3.41344C234.919 3.41344 234.919 3.37633 236.055 3.37633C237.191 3.37633 237.191 3.10427 238.328 3.10427C239.464 3.10427 239.464 2.9806 240.6 2.9806C241.737 2.9806 241.737 3.30213 242.873 3.30213C244.009 3.30213 244.009 3.03007 245.146 3.03007C246.282 3.03007 246.282 3.36397 247.418 3.36397C248.554 3.36397 248.554 3.32687 249.691 3.32687C250.827 3.32687 250.827 3.17847 251.963 3.17847C253.1 3.17847 253.1 3.26504 254.236 3.26504C255.372 3.26504 255.372 3.33923 256.509 3.33923C257.645 3.33923 257.645 3.00534 258.781 3.00534C259.918 3.00534 259.918 3.4258 261.054 3.4258C262.19 3.4258 262.19 3.11663 263.326 3.11663C264.463 3.11663 264.463 3.3887 265.599 3.3887C266.735 3.3887 266.735 2.95587 267.872 2.95587C269.008 2.95587 269.008 3.00534 270.144 3.00534C271.281 3.00534 271.281 3.03007 272.417 3.03007C273.553 3.03007 273.553 3.30213 274.689 3.30213C275.826 3.30213 275.826 3.27741 276.962 3.27741C278.098 3.27741 278.098 3.03007 279.235 3.03007C280.371 3.03007 280.371 3.03007 281.507 3.03007C282.644 3.03007 282.644 3.33923 283.78 3.33923C284.916 3.33923 284.916 2.8693 286.053 2.8693C287.189 2.8693 287.189 3.2032 288.325 3.2032C289.461 3.2032 289.461 3.3145 290.598 3.3145C291.734 3.3145 291.734 3.15373 292.87 3.15373C294.007 3.15373 294.007 3.11663 295.143 3.11663C296.279 3.11663 296.279 3.33923 297.416 3.33923C298.552 3.33923 298.552 2.9064 299.688 2.9064C300.825 2.9064 300.825 2.89403 301.961 2.89403C303.097 2.89403 303.097 3.33923 304.233 3.33923C305.37 3.33923 305.37 3.14137 306.506 3.14137C307.642 3.14137 307.642 2.85693 308.779 2.85693C309.915 2.85693 309.915 2.88167 311.051 2.88167C312.188 2.88167 312.188 3.4258 313.324 3.4258C314.46 3.4258 314.46 3.36397 315.597 3.36397C316.733 3.36397 316.733 3.36397 317.869 3.36397C319.005 3.36397 319.005 3.0919 320.142 3.0919C321.278 3.0919 321.278 3.40107 322.414 3.40107C323.551 3.40107 323.551 3.10427 324.687 3.10427C325.823 3.10427 325.823 3.40107 326.96 3.40107C328.096 3.40107 328.096 3.3145 329.232 3.3145C330.368 3.3145 330.368 3.30213 331.505 3.30213C332.641 3.30213 332.641 3.28977 333.777 3.28977C334.914 3.28977 334.914 3.36397 336.05 3.36397C337.186 3.36397 337.186 3.27741 338.323 3.27741C339.459 3.27741 339.459 3.21557 340.595 3.21557C341.732 3.21557 341.732 3.21557 342.868 3.21557C344.004 3.21557 344.004 3.19084 345.14 3.19084C346.277 3.19084 346.277 3.3887 347.413 3.3887C348.549 3.3887 348.549 2.96824 349.686 2.96824C350.822 2.96824 350.822 2.91877 351.958 2.91877C353.095 2.91877 353.095 3.26504 354.231 3.26504C355.367 3.26504 355.367 2.9806 356.504 2.9806C357.64 2.9806 357.64 3.21557 358.776 3.21557C359.912 3.21557 359.912 3.3887 361.049 3.3887C362.185 3.3887 362.185 3.45054 363.321 3.45054C364.458 3.45054 364.458 3.26504 365.594 3.26504C366.73 3.26504 366.73 3.00534 367.879 3.00534C369.028 3.00534 369.015 3.14137 370.152 3.14137C371.288 3.14137 371.288 3.07953 372.424 3.07953C373.56 3.07953 373.56 3.17847 374.709 3.17847C375.858 3.17847 375.845 3.32687 376.982 3.32687C378.118 3.32687 378.118 3.25267 379.267 3.25267C380.415 3.25267 380.415 2.9064 381.552 2.9064C382.688 2.9064 382.7 3.27741 383.837 3.27741C384.639 3.27741 385.43 3.30213 386.208 3.4258C386.986 3.54947 387.777 3.69787 388.53 3.94521C389.283 4.19254 390.037 4.47697 390.741 4.8356C391.445 5.19423 392.223 5.49104 392.865 5.96097C393.508 6.4309 393.989 7.0987 394.557 7.66757C395.126 8.23643 395.681 8.79294 396.151 9.436C396.62 10.0791 397.213 10.6727 397.571 11.3776C397.929 12.0825 397.855 12.9729 398.102 13.7396C398.349 14.5063 398.93 15.1741 399.053 15.9656C399.177 16.7571 399.127 17.5733 399.127 18.3771C399.127 19.5025 398.744 19.5025 398.744 20.6278C398.744 21.7532 399.029 21.7532 399.029 22.8786C399.029 24.0039 399.103 24.0039 399.103 25.1293C399.103 26.2547 398.88 26.2547 398.88 27.38C398.88 28.5054 399.004 28.5054 399.004 29.6431C399.004 30.7809 399.103 30.7685 399.103 31.9062C399.103 33.044 399.127 33.0316 399.127 34.1693C399.127 35.3071 399.288 35.2947 399.288 36.4201C399.288 37.5454 398.843 37.5454 398.843 38.6832C398.843 39.8209 399.276 39.8085 399.276 40.9463C399.276 42.084 399.016 42.0716 399.016 43.2094C399.016 44.3471 399.189 44.3347 399.189 45.4725C399.189 46.6102 399.189 46.5979 399.189 47.7356C399.189 48.8733 398.967 48.8733 398.967 49.9987C398.967 51.1241 398.88 51.1241 398.88 52.2618C398.88 53.3995 399.177 53.3995 399.177 54.5249C399.177 55.6503 398.979 55.6503 398.979 56.788C398.979 57.9257 399.3 57.9257 399.3 59.0511C399.3 60.1764 398.942 60.1765 398.942 61.3142C398.942 62.4519 399.238 62.4396 399.238 63.5773C399.238 64.715 398.954 64.715 398.954 65.8404C398.954 66.9658 398.979 66.9658 398.979 68.1035C398.979 69.2412 399.103 69.2412 399.103 70.3666C399.103 71.492 399.103 71.5043 399.103 72.6297C399.103 73.7551 399.238 73.7674 399.238 74.8928C399.238 76.0182 399.078 76.0305 399.078 77.1559C399.078 78.2813 399.103 78.2936 399.103 79.4314C399.103 80.5691 398.954 80.5691 398.954 81.7068" stroke="#181C56" stroke-width="1.5" stroke-linecap="round" stroke-linejoin="round"/>
<path d="M396.745 111.177C396.745 112.314 396.769 112.314 396.769 113.452C396.769 114.59 396.843 114.59 396.843 115.728C396.843 116.865 396.769 116.865 396.769 118.003C396.769 119.141 396.769 119.141 396.769 120.279C396.769 121.416 396.942 121.416 396.942 122.554C396.942 123.692 396.819 123.692 396.819 124.83C396.819 125.967 396.757 125.967 396.757 127.105C396.757 128.243 396.72 128.243 396.72 129.38C396.72 130.518 396.72 130.518 396.72 131.656C396.72 132.794 396.856 132.794 396.856 133.931C396.856 135.069 396.67 135.069 396.67 136.207C396.67 137.345 396.893 137.345 396.893 138.482C396.893 139.62 396.72 139.62 396.72 140.758C396.72 141.896 396.683 141.896 396.683 143.033C396.683 144.171 396.745 144.171 396.745 145.309C396.745 146.446 396.93 146.447 396.93 147.584C396.93 148.722 396.831 148.722 396.831 149.86C396.831 150.997 396.868 150.997 396.868 152.135C396.868 153.273 396.794 153.273 396.794 154.411C396.794 155.548 396.843 155.548 396.843 156.686C396.843 157.824 396.769 157.824 396.769 158.962C396.769 160.099 396.868 160.099 396.868 161.237C396.868 162.375 396.819 162.375 396.819 163.513C396.819 164.65 396.745 164.65 396.745 165.788C396.745 166.926 396.819 166.926 396.819 168.063C396.819 169.201 396.819 169.201 396.819 170.339C396.819 171.477 396.868 171.477 396.868 172.614C396.868 173.752 396.917 173.752 396.917 174.89C396.917 176.028 396.806 176.028 396.806 177.153C396.806 178.278 396.893 178.291 396.893 179.416C396.893 180.541 396.905 180.554 396.905 181.692C396.905 182.829 396.782 182.829 396.782 183.967C396.782 185.105 396.856 185.105 396.856 186.242C396.856 187.38 396.905 187.38 396.905 188.518C396.905 189.656 396.893 189.656 396.893 190.793C396.893 191.931 396.782 191.931 396.782 193.069C396.782 194.207 396.917 194.207 396.917 195.344C396.917 196.482 396.819 196.482 396.819 197.62C396.819 198.758 396.819 198.758 396.819 199.895C396.819 201.033 396.732 201.033 396.732 202.171C396.732 203.308 396.88 203.308 396.88 204.446C396.88 205.584 396.745 205.584 396.745 206.722C396.745 207.859 396.819 207.859 396.819 208.997C396.819 210.135 396.917 210.135 396.917 211.273C396.917 212.41 396.745 212.41 396.745 213.548C396.745 214.686 396.831 214.686 396.831 215.824C396.831 216.961 396.93 216.961 396.93 218.099C396.93 219.237 396.769 219.237 396.769 220.374C396.769 221.512 396.707 221.512 396.707 222.65C396.707 223.788 396.732 223.788 396.732 224.925C396.732 226.063 396.732 226.063 396.732 227.201C396.732 228.339 396.695 228.339 396.695 229.476C396.695 230.614 396.757 230.614 396.757 231.764C396.757 232.914 396.843 232.902 396.843 234.052C396.843 235.202 396.782 235.19 396.782 236.34C396.782 237.094 396.819 237.861 396.707 238.591C396.596 239.32 396.436 240.087 396.213 240.792C395.991 241.497 395.608 242.177 395.262 242.832C394.917 243.488 394.62 244.205 394.175 244.811C393.731 245.417 393.089 245.862 392.557 246.382C392.026 246.901 391.594 247.556 390.989 248.002C390.384 248.447 389.63 248.645 388.963 248.991C388.296 249.337 387.679 249.77 386.962 249.993C386.246 250.215 385.53 250.413 384.776 250.537C384.023 250.66 383.294 250.512 382.528 250.512C381.404 250.512 381.404 250.586 380.28 250.586C379.156 250.586 379.156 250.611 378.032 250.611C376.909 250.611 376.909 250.611 375.785 250.611C374.661 250.611 374.661 250.611 373.537 250.611C372.413 250.611 372.413 250.611 371.289 250.611C370.165 250.611 370.165 250.611 369.041 250.611C367.917 250.611 367.917 250.512 366.793 250.512C365.669 250.512 365.669 250.586 364.545 250.586C363.421 250.586 363.421 250.772 362.297 250.772C361.173 250.772 361.173 250.685 360.049 250.685C358.925 250.685 358.925 250.66 357.801 250.66C356.677 250.66 356.677 250.685 355.553 250.685C354.429 250.685 354.429 250.611 353.306 250.611C352.182 250.611 352.182 250.623 351.058 250.623C349.934 250.623 349.934 250.735 348.81 250.735C347.686 250.735 347.686 250.623 346.562 250.623C345.438 250.623 345.438 250.512 344.314 250.512C343.19 250.512 343.19 250.71 342.066 250.71C340.942 250.71 340.942 250.685 339.818 250.685C338.694 250.685 338.694 250.648 337.57 250.648C336.446 250.648 336.446 250.772 335.322 250.772C334.198 250.772 334.198 250.735 333.074 250.735C331.95 250.735 331.95 250.549 330.814 250.549C329.678 250.549 329.69 250.772 328.566 250.772C327.442 250.772 327.442 250.685 326.318 250.685C325.194 250.685 325.194 250.512 324.058 250.512C322.922 250.512 322.934 250.537 321.81 250.537C320.686 250.537 320.686 250.735 319.55 250.735C318.414 250.735 318.413 250.611 317.29 250.611C316.166 250.611 316.153 250.722 315.029 250.722" stroke="#181C56" stroke-width="1.5" stroke-linecap="round" stroke-linejoin="round"/>
<path d="M184.711 238.887C185.847 238.887 185.847 238.813 186.984 238.813C188.12 238.813 188.12 239.344 189.256 239.344C190.392 239.344 190.392 239.344 191.529 239.344C192.665 239.344 192.665 238.862 193.801 238.862C194.938 238.862 194.938 238.837 196.074 238.837C197.21 238.837 197.21 238.862 198.347 238.862C199.483 238.862 199.483 239.406 200.619 239.406C201.756 239.406 201.756 238.924 202.892 238.924C204.028 238.924 204.028 239.023 205.164 239.023C206.301 239.023 206.301 239.456 207.437 239.456C208.573 239.456 208.573 239.159 209.71 239.159C210.846 239.159 210.846 239.283 211.982 239.283C213.119 239.283 213.119 238.912 214.255 238.912C215.391 238.912 215.391 238.998 216.528 238.998C217.664 238.998 217.664 238.751 218.8 238.751C219.936 238.751 219.936 239.171 221.073 239.171C222.209 239.171 222.209 239.468 223.345 239.468C224.482 239.468 224.482 238.85 225.618 238.85C226.754 238.85 226.754 238.936 227.891 238.936C229.027 238.936 229.027 239.134 230.163 239.134C231.299 239.134 231.299 239.394 232.436 239.394C233.572 239.394 233.572 239.419 234.708 239.419C235.845 239.419 235.845 239.357 236.981 239.357C238.117 239.357 238.117 239.072 239.254 239.072C240.39 239.072 240.39 239.196 241.526 239.196C242.663 239.196 242.663 238.813 243.799 238.813C244.935 238.813 244.935 239.307 246.071 239.307C247.208 239.307 247.208 239.307 248.344 239.307C249.48 239.307 249.48 238.788 250.617 238.788C251.753 238.788 251.753 239.443 252.889 239.443C254.026 239.443 254.026 239.431 255.162 239.431C256.298 239.431 256.298 239.196 257.447 239.196C258.596 239.196 258.583 239.456 259.732 239.456C260.88 239.456 260.868 239.456 262.004 239.456C263.141 239.456 263.141 239.221 264.277 239.221C265.413 239.221 265.413 238.85 266.55 238.85C267.686 238.85 267.686 238.924 268.822 238.924C269.959 238.924 269.959 239.456 271.095 239.456C272.231 239.456 272.231 239.048 273.367 239.048C274.504 239.048 274.504 239.307 275.64 239.307C276.776 239.307 276.776 239.481 277.913 239.481C279.049 239.481 279.049 239.035 280.198 239.035C281.346 239.035 281.334 238.788 282.483 238.788C283.631 238.788 283.619 239.233 284.755 239.233C285.892 239.233 285.892 238.887 287.028 238.887C288.164 238.887 288.164 239.369 289.3 239.369C290.437 239.369 290.437 239.357 291.573 239.357C292.709 239.357 292.709 239.122 293.846 239.122C294.982 239.122 294.982 239.196 296.131 239.196C297.279 239.196 297.267 239.06 298.416 239.06C299.564 239.06 299.552 239.246 300.688 239.246C301.825 239.246 301.825 239.258 302.961 239.258C304.097 239.258 304.097 238.751 305.233 238.751C306.37 238.751 306.37 238.912 307.518 238.912C308.667 238.912 308.655 239.344 309.803 239.344C310.952 239.344 310.94 239.283 312.088 239.283C313.237 239.283 313.225 239.394 314.373 239.394C315.522 239.394 315.51 238.986 316.658 238.986C317.807 238.986 317.795 238.862 318.943 238.862C320.092 238.862 320.08 239.171 321.228 239.171C322.377 239.171 322.364 239.406 323.513 239.406C324.662 239.406 324.649 238.961 325.786 238.961C326.922 238.961 326.922 239.394 328.058 239.394C329.195 239.394 329.195 238.912 330.331 238.912C331.467 238.912 331.467 238.973 332.604 238.973C333.74 238.973 333.74 238.899 334.889 238.899C336.037 238.899 336.025 239.468 337.174 239.468C338.322 239.468 338.31 239.085 339.446 239.085C340.582 239.085 340.582 239.295 341.719 239.295C342.855 239.295 342.855 239.32 343.991 239.32C345.128 239.32 345.128 239.332 346.276 239.332C347.425 239.332 347.413 239.406 348.561 239.406C349.71 239.406 349.698 239.456 350.846 239.456C351.995 239.456 351.983 239.233 353.131 239.233C354.28 239.233 354.268 239.208 355.416 239.208C356.565 239.208 356.552 239.171 357.701 239.171C358.85 239.171 358.837 239.32 359.986 239.32C361.135 239.32 361.122 239.134 362.271 239.134C363.42 239.134 363.407 239.493 364.556 239.493C365.705 239.493 365.692 238.763 366.841 238.763C367.99 238.763 367.977 238.973 369.114 238.973C370.25 238.973 370.262 239.493 371.399 239.493C372.535 239.493 372.535 238.788 373.684 238.788C374.832 238.788 374.82 239.382 375.969 239.382C377.117 239.382 377.117 239.344 378.253 239.344C379.39 239.344 379.39 238.924 380.538 238.924C381.687 238.924 381.687 239.32 382.823 239.32C383.96 239.32 383.972 238.912 385.121 238.912C386.269 238.912 386.43 239.765 387.245 238.949C388.06 238.133 387.628 237.984 387.628 236.834C387.628 235.684 387.653 235.696 387.653 234.546C387.653 233.396 387.752 233.408 387.752 232.258C387.752 231.108 387.517 231.121 387.517 229.971C387.517 228.82 387.69 228.82 387.69 227.683C387.69 226.545 387.393 226.533 387.393 225.395C387.393 224.257 387.517 224.245 387.517 223.107C387.517 221.969 387.369 221.957 387.369 220.819C387.369 219.681 387.603 219.669 387.603 218.531C387.603 217.394 387.109 217.381 387.109 216.231C387.109 215.081 387.529 215.081 387.529 213.943C387.529 212.806 387.146 212.793 387.146 211.656C387.146 210.518 387.109 210.505 387.109 209.368C387.109 208.23 387.381 208.218 387.381 207.08C387.381 205.942 387.356 205.93 387.356 204.792C387.356 203.654 387.443 203.642 387.443 202.504C387.443 201.366 387.109 201.354 387.109 200.216C387.109 199.079 387.566 199.079 387.566 197.929C387.566 196.778 387.492 196.791 387.492 195.641C387.492 194.491 387.294 194.503 387.294 193.353C387.294 192.203 387.294 192.203 387.294 191.065C387.294 189.927 387.776 189.915 387.776 188.777C387.776 187.639 387.64 187.627 387.64 186.489C387.64 185.352 387.097 185.339 387.097 184.202C387.097 183.064 387.146 183.051 387.146 181.914C387.146 180.776 387.665 180.764 387.665 179.626C387.665 178.488 387.393 178.476 387.393 177.338C387.393 176.2 387.22 176.188 387.22 175.038C387.22 173.888 387.159 173.888 387.159 172.738C387.159 171.587 387.752 171.587 387.752 170.45C387.752 169.312 387.307 169.3 387.307 168.162C387.307 167.024 387.06 167.012 387.06 165.874C387.06 164.736 387.319 164.724 387.319 163.586C387.319 162.449 387.628 162.436 387.628 161.298C387.628 160.161 387.381 160.148 387.381 159.011C387.381 157.873 387.566 157.86 387.566 156.723C387.566 155.585 387.727 155.573 387.727 154.435C387.727 153.297 387.406 153.285 387.406 152.147C387.406 151.009 387.529 150.997 387.529 149.859C387.529 148.722 387.072 148.709 387.072 147.571C387.072 146.434 387.714 146.421 387.714 145.271C387.714 144.121 387.418 144.121 387.418 142.971C387.418 141.821 387.134 141.821 387.134 140.683C387.134 139.545 387.764 139.533 387.764 138.395C387.764 137.258 387.727 137.245 387.727 136.108C387.727 134.97 387.418 134.957 387.418 133.82C387.418 132.682 387.369 132.67 387.369 131.532C387.369 130.394 387.406 130.382 387.406 129.244C387.406 128.106 387.171 128.094 387.171 126.956C387.171 125.818 387.776 125.806 387.776 124.656C387.776 123.506 387.616 123.506 387.616 122.356C387.616 121.206 387.282 121.206 387.282 120.056C387.282 118.905 387.727 118.905 387.727 117.755C387.727 116.605 387.06 116.605 387.06 115.468C387.06 114.33 387.776 114.317 387.776 113.18C387.776 112.042 387.356 112.03 387.356 110.892C387.356 109.754 387.208 109.742 387.208 108.592C387.208 107.442 387.517 107.442 387.517 106.291C387.517 105.141 387.739 105.141 387.739 103.991C387.739 102.841 387.332 102.841 387.332 101.691C387.332 100.541 387.702 100.541 387.702 99.3909C387.702 98.2408 387.344 98.2408 387.344 97.0907C387.344 95.9406 387.752 95.9406 387.752 94.7905C387.752 93.6404 387.369 93.6404 387.369 92.4903C387.369 91.3402 387.159 91.3402 387.159 90.1901C387.159 89.04 387.369 89.04 387.369 87.8899C387.369 86.7398 387.443 86.7398 387.443 85.5897C387.443 84.4396 387.406 84.4396 387.406 83.2895C387.406 82.1394 387.294 82.1394 387.294 80.9893C387.294 79.8392 387.455 79.8392 387.455 78.6891C387.455 77.539 387.504 77.539 387.504 76.4012C387.504 75.2635 387.332 75.2511 387.332 74.1134C387.332 72.9757 387.109 72.9633 387.109 71.8256C387.109 70.6878 387.01 70.6755 387.01 69.5377C387.01 68.4 387.159 68.3876 387.159 67.2375C387.159 66.0874 387.579 66.0874 387.579 64.9373C387.579 63.7872 387.739 63.7872 387.739 62.6371C387.739 61.487 387.665 61.487 387.665 60.3493C387.665 59.2115 387.356 59.1992 387.356 58.0491C387.356 56.899 387.035 56.899 387.035 55.7489C387.035 54.5988 387.393 54.5988 387.393 53.4487C387.393 52.2986 387.344 52.2986 387.344 51.1485C387.344 49.9984 387.702 49.9984 387.702 48.8483C387.702 47.6982 387.085 47.6982 387.085 46.5481C387.085 45.398 387.319 45.398 387.319 44.2479C387.319 43.0978 387.023 43.0978 387.023 41.9477C387.023 40.7976 386.986 40.7976 386.986 39.6475C386.986 38.4974 387.233 38.4974 387.233 37.3473C387.233 36.1972 387.566 36.1972 387.566 35.0471C387.566 33.897 387.27 33.897 387.27 32.7592C387.27 31.6215 387.332 31.6091 387.332 30.459C387.332 29.3089 387.196 29.3089 387.196 28.1588C387.196 27.0087 387.665 27.0087 387.665 25.8586C387.665 24.7085 387.665 24.7085 387.665 23.5584C387.665 22.4083 387.134 22.4083 387.134 21.2582C387.134 20.1081 387.653 20.1081 387.653 18.958C387.653 17.8079 387.208 17.8079 387.208 16.6455C387.208 15.483 388.085 15.2357 387.27 14.4195C386.455 13.6033 386.208 14.2958 385.071 14.2958C383.935 14.2958 383.935 14.37 382.786 14.37C381.638 14.37 381.65 14.1598 380.501 14.1598C379.353 14.1598 379.365 14.6915 378.216 14.6915C377.068 14.6915 377.08 14.5679 375.931 14.5679C374.783 14.5679 374.795 14.506 373.646 14.506C372.498 14.506 372.51 13.999 371.362 13.999C370.213 13.999 370.225 14.2958 369.077 14.2958C367.928 14.2958 367.94 13.9743 366.792 13.9743C365.643 13.9743 365.655 14.7039 364.507 14.7039C363.358 14.7039 363.37 14.3205 362.222 14.3205C361.073 14.3205 361.085 14.5926 359.937 14.5926C358.788 14.5926 358.8 14.4689 357.652 14.4689C356.503 14.4689 356.515 14.0361 355.367 14.0361C354.218 14.0361 354.23 14.1227 353.082 14.1227C351.933 14.1227 351.946 14.5184 350.797 14.5184C349.648 14.5184 349.661 14.0856 348.524 14.0856C347.388 14.0856 347.388 14.6544 346.252 14.6544C345.115 14.6544 345.115 14.1969 343.979 14.1969C342.843 14.1969 342.843 14.1845 341.706 14.1845C340.57 14.1845 340.57 14.2587 339.434 14.2587C338.297 14.2587 338.297 14.5555 337.161 14.5555C336.025 14.5555 336.025 14.4566 334.876 14.4566C333.728 14.4566 333.74 14.6297 332.591 14.6297C331.443 14.6297 331.455 14.6544 330.306 14.6544C329.158 14.6544 329.17 14.0856 328.021 14.0856C326.873 14.0856 326.885 14.5184 325.736 14.5184C324.588 14.5184 324.6 14.0485 323.451 14.0485C322.303 14.0485 322.315 14.3082 321.166 14.3082C320.018 14.3082 320.03 14.4937 318.881 14.4937C317.733 14.4937 317.745 13.9743 316.596 13.9743C315.448 13.9743 315.46 14.5431 314.312 14.5431C313.163 14.5431 313.175 14.2958 312.027 14.2958C310.878 14.2958 310.89 14.0979 309.742 14.0979C308.593 14.0979 308.605 14.6792 307.457 14.6792C306.308 14.6792 306.32 14.0979 305.172 14.0979C304.023 14.0979 304.035 14.5308 302.887 14.5308C301.738 14.5308 301.75 14.1474 300.602 14.1474C299.453 14.1474 299.465 13.9743 298.317 13.9743C297.168 13.9743 297.18 14.4566 296.032 14.4566C294.883 14.4566 294.896 14.3824 293.747 14.3824C292.598 14.3824 292.611 14.5926 291.462 14.5926C290.313 14.5926 290.326 14.4195 289.177 14.4195C288.028 14.4195 288.041 14.2216 286.892 14.2216C285.743 14.2216 285.756 14.5926 284.607 14.5926C283.458 14.5926 283.471 14.5308 282.322 14.5308C281.173 14.5308 281.186 14.135 280.037 14.135C278.888 14.135 278.901 14.135 277.752 14.135C276.603 14.135 276.616 13.9619 275.467 13.9619C274.319 13.9619 274.331 14.3329 273.182 14.3329C272.034 14.3329 272.046 14.6668 270.897 14.6668C269.749 14.6668 269.761 14.4318 268.612 14.4318C267.464 14.4318 267.476 13.9866 266.327 13.9866C265.179 13.9866 265.191 13.9619 264.042 13.9619C262.894 13.9619 262.906 14.2587 261.757 14.2587C260.609 14.2587 260.621 14.605 259.472 14.605C258.324 14.605 258.336 14.2216 257.187 14.2216C256.039 14.2216 256.051 13.9743 254.902 13.9743C253.754 13.9743 253.766 14.2834 252.618 14.2834C251.469 14.2834 251.481 14.3576 250.333 14.3576C249.184 14.3576 249.196 14.1103 248.048 14.1103C246.899 14.1103 246.911 14.6915 245.763 14.6915C244.614 14.6915 244.626 14.3205 243.478 14.3205C242.329 14.3205 242.341 14.6668 241.193 14.6668C240.044 14.6668 240.056 14.3205 238.92 14.3205C237.784 14.3205 237.784 14.0237 236.647 14.0237C235.511 14.0237 235.511 13.9743 234.375 13.9743C233.239 13.9743 233.239 14.2092 232.102 14.2092C230.966 14.2092 230.966 14.6668 229.83 14.6668C228.693 14.6668 228.693 14.3576 227.557 14.3576C226.421 14.3576 226.421 14.0114 225.284 14.0114C224.148 14.0114 224.148 14.135 223.012 14.135C221.876 14.135 221.876 14.4442 220.727 14.4442C219.578 14.4442 219.591 14.2711 218.442 14.2711C217.293 14.2711 217.306 14.7039 216.157 14.7039C215.008 14.7039 215.021 14.4195 213.872 14.4195C212.723 14.4195 212.736 14.3576 211.587 14.3576C210.438 14.3576 210.451 14.2092 209.302 14.2092C208.153 14.2092 208.166 14.4813 207.017 14.4813C205.868 14.4813 205.881 14.2958 204.732 14.2958C203.583 14.2958 203.596 14.1103 202.46 14.1103C201.323 14.1103 201.323 14.2092 200.187 14.2092C199.051 14.2092 199.051 14.3576 197.914 14.3576C196.778 14.3576 196.778 14.6297 195.642 14.6297C194.505 14.6297 194.505 14.3329 193.369 14.3329C192.233 14.3329 192.233 14.6915 191.096 14.6915C189.96 14.6915 189.96 14.506 188.824 14.506C187.688 14.506 187.688 13.999 186.551 13.999C185.415 13.999 185.415 14.0361 184.279 14.0361C183.142 14.0361 183.142 14.2463 181.994 14.2463C180.845 14.2463 180.857 14.6421 179.709 14.6421C178.56 14.6421 178.572 14.2587 177.424 14.2587C176.275 14.2587 176.287 14.5679 175.139 14.5679C173.99 14.5679 174.002 13.9743 172.854 13.9743C171.705 13.9743 171.718 14.4442 170.569 14.4442C169.42 14.4442 169.433 14.6544 168.284 14.6544C167.135 14.6544 167.148 14.4813 165.999 14.4813C164.85 14.4813 164.863 13.9248 163.714 13.9248C162.565 13.9248 162.578 14.0732 161.429 14.0732C160.28 14.0732 160.293 14.6544 159.144 14.6544C157.995 14.6544 158.008 14.4442 156.859 14.4442C155.71 14.4442 155.723 14.2463 154.574 14.2463C153.425 14.2463 153.438 14.2092 152.289 14.2092C151.141 14.2092 151.153 14.3205 150.004 14.3205C148.856 14.3205 148.868 14.3824 147.719 14.3824C146.571 14.3824 146.583 14.1598 145.434 14.1598C144.286 14.1598 144.298 14.3576 143.149 14.3576C142.001 14.3576 142.013 14.605 140.864 14.605C139.716 14.605 139.728 14.605 138.579 14.605C137.431 14.605 137.443 14.4813 136.294 14.4813C135.146 14.4813 135.158 14.4442 134.009 14.4442C132.861 14.4442 132.873 14.37 131.725 14.37C130.576 14.37 130.588 14.3329 129.44 14.3329C128.291 14.3329 128.303 14.0732 127.155 14.0732C126.006 14.0732 126.018 14.3205 124.87 14.3205C123.721 14.3205 123.733 14.1598 122.585 14.1598C121.436 14.1598 121.436 14.6792 120.3 14.6792C119.163 14.6792 119.163 14.5802 118.015 14.5802C116.866 14.5802 116.878 14.506 115.73 14.506C114.581 14.506 114.593 14.4566 113.445 14.4566C112.296 14.4566 112.309 14.3824 111.16 14.3824C110.011 14.3824 110.024 14.234 108.875 14.234C107.726 14.234 107.739 14.2216 106.59 14.2216C105.441 14.2216 105.441 14.0732 104.305 14.0732C103.169 14.0732 103.156 14.5679 102.02 14.5679C100.884 14.5679 100.884 14.37 99.735 14.37C98.5864 14.37 98.5987 14.0237 97.4501 14.0237C96.3014 14.0237 96.3138 14.2463 95.1651 14.2463C94.0164 14.2463 94.0288 14.3576 92.8801 14.3576C91.7315 14.3576 91.7315 14.4442 90.5952 14.4442C89.4589 14.4442 89.4465 14.3947 88.3102 14.3947C87.1739 14.3947 87.1739 14.6297 86.0253 14.6297C84.8766 14.6297 84.8889 13.9743 83.7403 13.9743C82.5916 13.9743 82.5916 14.234 81.4553 14.234C80.319 14.234 80.3067 13.999 79.1704 13.999C78.0341 13.999 78.0217 14.4689 76.8854 14.4689C75.7491 14.4689 75.7491 14.6544 74.6004 14.6544C73.4518 14.6544 73.4641 14.0485 72.3155 14.0485C71.1668 14.0485 71.1792 14.4689 70.0305 14.4689C68.8818 14.4689 68.8942 14.4813 67.7456 14.4813C66.5969 14.4813 66.6092 14.506 65.4606 14.506C64.3119 14.506 64.3119 14.2216 63.1756 14.2216C62.0393 14.2216 62.0393 14.0114 60.8907 14.0114C59.742 14.0114 59.7543 14.3947 58.6057 14.3947C57.457 14.3947 57.4694 14.6173 56.3207 14.6173C55.1721 14.6173 55.1721 14.5679 54.0358 14.5679C52.8995 14.5679 52.8871 14.4813 51.7508 14.4813C50.6145 14.4813 50.6145 14.1598 49.4658 14.1598C48.3172 14.1598 48.3172 14.1845 47.1809 14.1845C46.0446 14.1845 46.0322 14.1845 44.8959 14.1845C43.7596 14.1845 43.7473 14.3576 42.611 14.3576C41.4746 14.3576 41.4623 14.5679 40.326 14.5679C39.1897 14.5679 39.1773 14.2587 38.041 14.2587C36.9047 14.2587 36.8924 14.0979 35.7561 14.0979C34.6198 14.0979 34.6074 14.2092 33.4711 14.2092C32.3348 14.2092 32.3348 14.3082 31.1861 14.3082C30.0375 14.3082 30.0375 14.2216 28.9012 14.2216C27.7649 14.2216 27.7525 14.5308 26.6162 14.5308C25.4799 14.5308 25.4676 14.0856 24.3312 14.0856C23.1949 14.0856 23.1826 14.4318 22.034 14.4318C20.8853 14.4318 20.8853 14.2834 19.749 14.2834C18.6127 14.2834 18.6003 14.6421 17.4517 14.6421C16.303 14.6421 16.303 14.5802 15.1544 14.5802C14.0057 14.5802 13.5734 13.4301 12.7582 14.234C11.9431 15.0378 12.9682 15.4706 12.9682 16.6084C12.9682 17.7461 12.7335 17.7461 12.7335 18.8962C12.7335 20.0463 12.573 20.0339 12.573 21.184C12.573 22.3341 12.9929 22.3218 12.9929 23.4719C12.9929 24.622 12.7459 24.622 12.7459 25.7597C12.7459 26.8974 12.9435 26.9098 12.9435 28.0475C12.9435 29.1853 12.6224 29.1976 12.6224 30.3354C12.6224 31.4731 13.1658 31.4855 13.1658 32.6232C13.1658 33.7609 12.8941 33.7733 12.8941 34.911C12.8941 36.0488 12.6471 36.0611 12.6471 37.2112C12.6471 38.3613 13.0794 38.3613 13.0794 39.4991C13.0794 40.6368 12.6718 40.6492 12.6718 41.7869C12.6718 42.9246 12.7582 42.937 12.7582 44.0747C12.7582 45.2125 12.5112 45.2248 12.5112 46.3626C12.5112 47.5003 12.7459 47.5127 12.7459 48.6504C12.7459 49.7882 12.9311 49.8005 12.9311 50.9382C12.9311 52.076 13.2029 52.0884 13.2029 53.2261C13.2029 54.3638 12.9064 54.3638 12.9064 55.5139C12.9064 56.664 12.4989 56.6516 12.4989 57.8018C12.4989 58.9519 12.6718 58.9395 12.6718 60.0896C12.6718 61.2397 12.6718 61.2397 12.6718 62.3774C12.6718 63.5151 13.1782 63.5275 13.1782 64.6653C13.1782 65.803 13.0547 65.8153 13.0547 66.9531C13.0547 68.0908 12.6347 68.1032 12.6347 69.2409C12.6347 70.3787 12.5606 70.391 12.5606 71.5288C12.5606 72.6665 12.6965 72.6789 12.6965 73.8166C12.6965 74.9543 12.5606 74.9667 12.5606 76.1044C12.5606 77.2422 13.0176 77.2545 13.0176 78.4046C13.0176 79.5547 12.4495 79.5547 12.4495 80.7048C12.4495 81.8549 12.8323 81.8549 12.8323 82.9927C12.8323 84.1304 13.03 84.1428 13.03 85.2805C13.03 86.4182 12.8447 86.4306 12.8447 87.5683C12.8447 88.7061 13.0917 88.7184 13.0917 89.8562C13.0917 90.9939 13.0423 91.0063 13.0423 92.144C13.0423 93.2817 12.7953 93.2941 12.7953 94.4318C12.7953 95.5696 12.5853 95.5819 12.5853 96.7197C12.5853 97.8574 12.9064 97.8698 12.9064 99.0075C12.9064 100.145 12.7829 100.158 12.7829 101.295C12.7829 102.433 12.5853 102.445 12.5853 103.583C12.5853 104.721 12.8447 104.733 12.8447 105.871C12.8447 107.009 12.7582 107.021 12.7582 108.171C12.7582 109.321 13.03 109.321 13.03 110.471C13.03 111.622 12.8817 111.622 12.8817 112.759C12.8817 113.897 12.5112 113.909 12.5112 115.047C12.5112 116.185 12.61 116.197 12.61 117.335C12.61 118.473 12.9929 118.485 12.9929 119.623C12.9929 120.76 12.573 120.773 12.573 121.911C12.573 123.048 12.7088 123.061 12.7088 124.198C12.7088 125.336 12.5853 125.349 12.5853 126.486C12.5853 127.624 12.7829 127.636 12.7829 128.786C12.7829 129.937 12.5606 129.937 12.5606 131.087C12.5606 132.237 12.9682 132.237 12.9682 133.387C12.9682 134.537 12.573 134.537 12.573 135.687C12.573 136.837 13.2029 136.837 13.2029 137.975C13.2029 139.113 12.61 139.125 12.61 140.263C12.61 141.4 13.0423 141.413 13.0423 142.551C13.0423 143.688 13.0052 143.701 13.0052 144.851C13.0052 146.001 12.8817 146.001 12.8817 147.151C12.8817 148.301 12.6965 148.301 12.6965 149.451C12.6965 150.601 13.0547 150.601 13.0547 151.751C13.0547 152.901 12.5606 152.901 12.5606 154.052C12.5606 155.202 12.7582 155.202 12.7582 156.352C12.7582 157.502 13.1164 157.502 13.1164 158.652C13.1164 159.802 12.6841 159.802 12.6841 160.952C12.6841 162.102 12.9682 162.102 12.9682 163.252C12.9682 164.402 13.0547 164.402 13.0547 165.553C13.0547 166.703 13.1658 166.703 13.1658 167.853C13.1658 169.003 13.03 169.003 13.03 170.153C13.03 171.303 13.03 171.303 13.03 172.453C13.03 173.603 12.7582 173.603 12.7582 174.753C12.7582 175.903 12.7088 175.903 12.7088 177.041C12.7088 178.179 12.4865 178.191 12.4865 179.329C12.4865 180.467 12.5853 180.479 12.5853 181.617C12.5853 182.755 12.5359 182.767 12.5359 183.905C12.5359 185.042 12.5606 185.055 12.5606 186.205C12.5606 187.355 12.7953 187.355 12.7953 188.505C12.7953 189.655 13.0794 189.655 13.0794 190.805C13.0794 191.955 13.0176 191.955 13.0176 193.093C13.0176 194.231 12.61 194.243 12.61 195.393C12.61 196.543 13.0794 196.543 13.0794 197.694C13.0794 198.844 13.0052 198.844 13.0052 199.994C13.0052 201.144 12.5853 201.144 12.5853 202.294C12.5853 203.444 12.9188 203.444 12.9188 204.594C12.9188 205.744 12.7706 205.744 12.7706 206.894C12.7706 208.044 12.4989 208.044 12.4989 209.195C12.4989 210.345 12.8323 210.345 12.8323 211.495C12.8323 212.645 12.6718 212.645 12.6718 213.795C12.6718 214.945 12.8817 214.945 12.8817 216.095C12.8817 217.245 12.5853 217.245 12.5853 218.395C12.5853 219.545 12.6594 219.545 12.6594 220.683C12.6594 221.821 13.0547 221.833 13.0547 222.983C13.0547 224.133 12.7706 224.133 12.7706 225.284C12.7706 226.434 13.0423 226.434 13.0423 227.584C13.0423 228.734 12.7829 228.734 12.7829 229.884C12.7829 231.034 13.1041 231.034 13.1041 232.184C13.1041 233.334 12.8694 233.334 12.8694 234.484C12.8694 235.634 13.0176 235.634 13.0176 236.797C13.0176 237.959 12.2271 238.108 13.0423 238.936C13.8575 239.765 14.0057 239.332 15.142 239.332C16.2783 239.332 16.2783 239.048 17.4146 239.048C18.5509 239.048 18.5509 238.85 19.6872 238.85C20.8235 238.85 20.8235 239.369 21.9598 239.369C23.0961 239.369 23.0962 239.097 24.2325 239.097C25.3688 239.097 25.3688 238.788 26.5174 238.788C27.6661 238.788 27.6537 239.406 28.8024 239.406C29.951 239.406 29.9387 239.035 31.0873 239.035C32.236 239.035 32.2236 238.825 33.3723 238.825C34.521 238.825 34.5086 239.283 35.6573 239.283C36.8059 239.283 36.7936 239.023 37.9422 239.023C39.0909 239.023 39.0785 238.837 40.2272 238.837C41.3758 238.837 41.3635 238.899 42.5121 238.899C43.6608 238.899 43.6485 239.097 44.7971 239.097C45.9458 239.097 45.9334 239.493 47.0821 239.493C48.2307 239.493 48.2184 239.134 49.367 239.134C50.5157 239.134 50.5033 239.468 51.652 239.468C52.8007 239.468 52.7883 239.072 53.937 239.072C55.0856 239.072 55.0733 239.406 56.2219 239.406C57.3706 239.406 57.3582 238.973 58.5069 238.973C59.6556 238.973 59.6432 239.369 60.7918 239.369C61.9405 239.369 61.9282 239.258 63.0768 239.258C64.2255 239.258 64.2131 239.382 65.3618 239.382C66.5104 239.382 66.4981 239.011 67.6467 239.011C68.7954 239.011 68.7831 239.122 69.9317 239.122C71.0804 239.122 71.068 238.751 72.2167 238.751C73.3653 238.751 73.353 238.788 74.5016 238.788C75.6503 238.788 75.6379 239.171 76.7866 239.171C77.9352 239.171 77.9229 238.875 79.0716 238.875C80.2202 238.875 80.2079 239.159 81.3565 239.159C82.5052 239.159 82.4928 239.295 83.6415 239.295C84.7901 239.295 84.7778 239.493 85.9264 239.493C87.0751 239.493 87.0627 238.8 88.2114 238.8C89.3601 238.8 89.3477 238.912 90.4964 238.912C91.645 238.912 91.6327 239.332 92.7813 239.332C93.93 239.332 93.9176 239.035 95.0663 239.035C96.2149 239.035 96.2026 239.307 97.3513 239.307C98.4999 239.307 98.4876 239.27 99.6239 239.27C100.76 239.27 100.76 239.147 101.896 239.147C103.033 239.147 103.033 239.085 104.169 239.085C105.305 239.085 105.305 239.122 106.454 239.122C107.603 239.122 107.59 238.998 108.739 238.998C109.888 238.998 109.888 239.134 111.024 239.134C112.16 239.134 112.16 239.332 113.309 239.332C114.458 239.332 114.445 238.751 115.594 238.751C116.743 238.751 116.73 239.134 117.879 239.134C119.028 239.134 119.028 239.32 120.164 239.32C121.3 239.32 121.3 238.875 122.449 238.875C123.597 238.875 123.585 239.419 124.734 239.419C125.882 239.419 125.87 239.369 127.019 239.369C128.167 239.369 128.167 238.899 129.304 238.899C130.44 238.899 130.44 238.751 131.589 238.751C132.737 238.751 132.737 239.072 133.874 239.072C135.01 239.072 135.022 239.32 136.159 239.32C137.295 239.32 137.307 239.344 138.444 239.344C139.58 239.344 139.592 238.986 140.729 238.986C141.865 238.986 141.865 239.134 143.013 239.134C144.162 239.134 144.162 238.788 145.298 238.788C146.435 238.788 146.435 239.443 147.583 239.443C148.732 239.443 148.732 239.122 149.868 239.122C151.005 239.122 151.017 239.147 152.153 239.147C153.29 239.147 153.302 239.011 154.438 239.011C155.575 239.011 155.587 239.246 156.736 239.246C157.884 239.246 157.884 238.776 159.033 238.776C160.182 238.776 160.182 238.986 161.33 238.986" stroke="#181C56" stroke-linecap="round" stroke-linejoin="round"/>
</svg>
