<svg width="720" height="406" viewBox="0 0 720 406" fill="none" xmlns="http://www.w3.org/2000/svg">
<rect width="720" height="405" transform="translate(0 0.914062)" fill="#F6F6F9"/>
<path d="M132.408 243.72V242.44H132.904C134.2 242.44 135.432 242.008 135.432 240.552C135.432 239.416 134.504 238.68 133.432 238.68C132.488 238.68 131.784 239.208 131.448 240.072H129.832C130.408 238.168 131.896 237.384 133.496 237.384C135.384 237.384 136.984 238.456 136.984 240.456C136.984 241.72 136.152 242.728 134.984 243.032V243.064C136.312 243.336 137.288 244.376 137.288 245.832C137.288 248.088 135.432 249.288 133.496 249.288C131.624 249.288 130.088 248.488 129.464 246.312H131.08C131.416 247.288 132.28 247.976 133.464 247.976C134.6 247.976 135.736 247.256 135.736 245.816C135.736 244.232 134.232 243.72 132.888 243.72H132.408ZM146.868 247.608V249H139.476V247.512L143.988 243.032C144.692 242.344 145.236 241.592 145.236 240.632C145.236 239.448 144.34 238.68 143.22 238.68C142.068 238.68 141.284 239.512 141.092 240.648H139.54C139.764 238.632 141.3 237.384 143.236 237.384C145.124 237.384 146.82 238.488 146.82 240.6C146.82 242.056 145.988 243.048 144.996 244.024L141.316 247.608H146.868ZM154.831 247.864V252.84H153.327V241.416H154.799V242.6H154.847C155.343 241.8 156.335 241.208 157.583 241.208C159.839 241.208 161.375 242.952 161.375 245.192C161.375 247.416 159.887 249.208 157.551 249.208C156.479 249.208 155.439 248.712 154.879 247.864H154.831ZM159.823 245.192C159.823 243.768 158.943 242.456 157.295 242.456C155.759 242.456 154.735 243.752 154.735 245.208C154.735 246.664 155.759 247.944 157.295 247.944C158.943 247.944 159.823 246.616 159.823 245.192ZM162.284 249L165.324 245.016L162.556 241.416H164.412L166.268 244.024L168.14 241.416H169.9L167.164 245L170.22 249H168.348L166.236 246.04L164.092 249H162.284Z" fill="#181C56"/>
<path d="M299.352 247.608V249H291.96V247.512L296.472 243.032C297.176 242.344 297.72 241.592 297.72 240.632C297.72 239.448 296.824 238.68 295.704 238.68C294.552 238.68 293.768 239.512 293.576 240.648H292.024C292.248 238.632 293.784 237.384 295.72 237.384C297.608 237.384 299.304 238.488 299.304 240.6C299.304 242.056 298.472 243.048 297.48 244.024L293.8 247.608H299.352ZM307.732 237.672V245.128H309.364V246.456H307.732V249H306.228V246.456H301.012V245.048L305.828 237.672H307.732ZM306.228 245.128V239.448H306.196L302.612 245.128H306.228ZM316.831 247.864V252.84H315.327V241.416H316.799V242.6H316.847C317.343 241.8 318.335 241.208 319.583 241.208C321.839 241.208 323.375 242.952 323.375 245.192C323.375 247.416 321.887 249.208 319.551 249.208C318.479 249.208 317.439 248.712 316.879 247.864H316.831ZM321.823 245.192C321.823 243.768 320.943 242.456 319.295 242.456C317.759 242.456 316.735 243.752 316.735 245.208C316.735 246.664 317.759 247.944 319.295 247.944C320.943 247.944 321.823 246.616 321.823 245.192ZM324.284 249L327.324 245.016L324.556 241.416H326.412L328.268 244.024L330.14 241.416H331.9L329.164 245L332.22 249H330.348L328.236 246.04L326.092 249H324.284Z" fill="#181C56"/>
<path d="M445.352 247.608V249H437.96V247.512L442.472 243.032C443.176 242.344 443.72 241.592 443.72 240.632C443.72 239.448 442.824 238.68 441.704 238.68C440.552 238.68 439.768 239.512 439.576 240.648H438.024C438.248 238.632 439.784 237.384 441.72 237.384C443.608 237.384 445.304 238.488 445.304 240.6C445.304 242.056 444.472 243.048 443.48 244.024L439.8 247.608H445.352ZM451.284 237.384C453.972 237.384 455.14 240.04 455.14 243.336C455.14 246.648 453.972 249.288 451.284 249.288C448.58 249.288 447.412 246.648 447.412 243.336C447.412 240.04 448.58 237.384 451.284 237.384ZM451.284 238.68C449.412 238.68 448.996 241.432 448.996 243.336C448.996 245.256 449.412 247.976 451.284 247.976C453.124 247.976 453.556 245.256 453.556 243.336C453.556 241.432 453.124 238.68 451.284 238.68ZM462.831 247.864V252.84H461.327V241.416H462.799V242.6H462.847C463.343 241.8 464.335 241.208 465.583 241.208C467.839 241.208 469.375 242.952 469.375 245.192C469.375 247.416 467.887 249.208 465.551 249.208C464.479 249.208 463.439 248.712 462.879 247.864H462.831ZM467.823 245.192C467.823 243.768 466.943 242.456 465.295 242.456C463.759 242.456 462.735 243.752 462.735 245.208C462.735 246.664 463.759 247.944 465.295 247.944C466.943 247.944 467.823 246.616 467.823 245.192ZM470.284 249L473.324 245.016L470.556 241.416H472.412L474.268 244.024L476.14 241.416H477.9L475.164 245L478.22 249H476.348L474.236 246.04L472.092 249H470.284Z" fill="#181C56"/>
<path d="M578.064 237.672V249H576.512V239.56L574.368 241.352L573.456 240.28L576.672 237.672H578.064ZM588.252 237.672L585.212 242.232L585.228 242.264C585.548 242.072 586.156 241.96 586.636 241.96C588.62 241.96 590.172 243.448 590.172 245.512C590.172 247.768 588.492 249.288 586.268 249.288C584.012 249.288 582.348 247.704 582.348 245.56C582.348 244.328 582.796 243.384 583.452 242.344L586.412 237.672H588.252ZM583.916 245.576C583.916 246.904 584.86 247.976 586.268 247.976C587.66 247.976 588.604 246.968 588.604 245.56C588.604 244.2 587.692 243.192 586.284 243.192C584.86 243.192 583.916 244.184 583.916 245.576ZM597.831 247.864V252.84H596.327V241.416H597.799V242.6H597.847C598.343 241.8 599.335 241.208 600.583 241.208C602.839 241.208 604.375 242.952 604.375 245.192C604.375 247.416 602.887 249.208 600.551 249.208C599.479 249.208 598.439 248.712 597.879 247.864H597.831ZM602.823 245.192C602.823 243.768 601.943 242.456 600.295 242.456C598.759 242.456 597.735 243.752 597.735 245.208C597.735 246.664 598.759 247.944 600.295 247.944C601.943 247.944 602.823 246.616 602.823 245.192ZM605.284 249L608.324 245.016L605.556 241.416H607.412L609.268 244.024L611.14 241.416H612.9L610.164 245L613.22 249H611.348L609.236 246.04L607.092 249H605.284Z" fill="#181C56"/>
<g clip-path="url(#clip0_4863_37204)">
<rect x="106" y="140" width="87" height="87" fill="white"/>
<circle cx="149.5" cy="183.5" r="16.3125" stroke="#CFCFCF" stroke-width="0.3625"/>
<path d="M106 140H193M106 140V227M106 140L193 227M193 140V227M193 140L106 227M193 227H106" stroke="#CFCFCF" stroke-width="0.3625"/>
<rect opacity="0.5" x="117.056" y="151.056" width="64.8875" height="64.8875" stroke="#007C2E" stroke-width="0.3625"/>
<path d="M108.719 216.125L149.5 145.438L190.281 216.125H108.719Z" stroke="#C1CB33" stroke-width="0.3625"/>
<circle opacity="0.5" cx="149.5" cy="183.5" r="37.8812" stroke="#881D0C" stroke-width="0.3625"/>
<rect opacity="0.5" x="122.494" y="145.619" width="54.0125" height="75.7625" stroke="#634689" stroke-width="0.3625" stroke-dasharray="1.09 1.09"/>
<rect opacity="0.5" x="111.619" y="156.494" width="75.7625" height="54.0125" stroke="#D47B00" stroke-width="0.3625" stroke-dasharray="1.09 1.09"/>
<path d="M165.812 172.625L144.062 194.375L133.188 183.5" stroke="#181C56" stroke-width="5.4375" stroke-linejoin="round"/>
<path d="M114.156 156.312V153.594C112.655 153.594 111.438 154.811 111.438 156.312H114.156ZM184.844 156.312H187.562C187.562 154.811 186.345 153.594 184.844 153.594V156.312ZM114.156 172.968H111.438C111.438 174.208 112.277 175.291 113.479 175.601L114.156 172.968ZM114.156 194.032L113.479 191.399C112.277 191.709 111.438 192.792 111.438 194.032H114.156ZM114.156 210.688H111.438C111.438 212.189 112.655 213.406 114.156 213.406V210.688ZM184.844 210.688V213.406C186.345 213.406 187.562 212.189 187.562 210.688H184.844ZM184.844 194.032H187.562C187.562 192.792 186.723 191.709 185.521 191.399L184.844 194.032ZM184.844 172.968L185.521 175.601C186.723 175.291 187.562 174.208 187.562 172.968H184.844ZM114.156 159.031H184.844V153.594H114.156V159.031ZM116.875 172.968V156.312H111.438V172.968H116.875ZM125.031 183.5C125.031 177.162 120.696 171.844 114.834 170.335L113.479 175.601C116.997 176.506 119.594 179.703 119.594 183.5H125.031ZM114.834 196.665C120.696 195.156 125.031 189.838 125.031 183.5H119.594C119.594 187.297 116.997 190.494 113.479 191.399L114.834 196.665ZM116.875 210.688V194.032H111.438V210.688H116.875ZM184.844 207.969H114.156V213.406H184.844V207.969ZM182.125 194.032V210.688H187.562V194.032H182.125ZM173.969 183.5C173.969 189.838 178.304 195.156 184.166 196.665L185.521 191.399C182.003 190.494 179.406 187.297 179.406 183.5H173.969ZM184.166 170.335C178.304 171.844 173.969 177.162 173.969 183.5H179.406C179.406 179.703 182.003 176.506 185.521 175.601L184.166 170.335ZM182.125 156.312V172.968H187.562V156.312H182.125Z" fill="#181C56"/>
</g>
<rect x="108.719" y="142.719" width="81.5625" height="81.5625" stroke="#BA3A26" stroke-opacity="0.2" stroke-width="5.4375"/>
<g clip-path="url(#clip1_4863_37204)">
<rect x="278.641" y="150.875" width="65.25" height="65.25" fill="white"/>
<circle cx="311.266" cy="183.5" r="12.2344" stroke="#CFCFCF" stroke-width="0.271875"/>
<path d="M278.641 150.875H343.891M278.641 150.875V216.125M278.641 150.875L343.891 216.125M343.891 150.875V216.125M343.891 150.875L278.641 216.125M343.891 216.125H278.641" stroke="#CFCFCF" stroke-width="0.271875"/>
<rect opacity="0.5" x="286.933" y="159.167" width="48.6656" height="48.6656" stroke="#007C2E" stroke-width="0.271875"/>
<path d="M280.68 207.969L311.266 154.953L341.852 207.969H280.68Z" stroke="#C1CB33" stroke-width="0.271875"/>
<circle opacity="0.5" cx="311.266" cy="183.5" r="28.4109" stroke="#881D0C" stroke-width="0.271875"/>
<rect opacity="0.5" x="291.011" y="155.089" width="40.5094" height="56.8219" stroke="#634689" stroke-width="0.271875" stroke-dasharray="0.82 0.82"/>
<rect opacity="0.5" x="282.855" y="163.245" width="56.8219" height="40.5094" stroke="#D47B00" stroke-width="0.271875" stroke-dasharray="0.82 0.82"/>
<path d="M323.5 175.344L307.188 191.656L299.031 183.5" stroke="#181C56" stroke-width="4.07812" stroke-linejoin="round"/>
<path d="M284.758 163.109V161.07C283.632 161.07 282.719 161.983 282.719 163.109H284.758ZM337.773 163.109H339.812C339.812 161.983 338.9 161.07 337.773 161.07V163.109ZM284.758 175.601H282.719C282.719 176.531 283.349 177.344 284.25 177.575L284.758 175.601ZM284.758 191.399L284.25 189.425C283.349 189.656 282.719 190.469 282.719 191.399H284.758ZM284.758 203.891H282.719C282.719 205.017 283.632 205.93 284.758 205.93V203.891ZM337.773 203.891V205.93C338.9 205.93 339.812 205.017 339.812 203.891H337.773ZM337.773 191.399H339.812C339.812 190.469 339.183 189.656 338.282 189.425L337.773 191.399ZM337.773 175.601L338.282 177.575C339.183 177.344 339.812 176.531 339.812 175.601H337.773ZM284.758 165.148H337.773V161.07H284.758V165.148ZM286.797 175.601V163.109H282.719V175.601H286.797ZM292.914 183.5C292.914 178.747 289.663 174.758 285.266 173.626L284.25 177.575C286.888 178.255 288.836 180.652 288.836 183.5H292.914ZM285.266 193.374C289.663 192.242 292.914 188.253 292.914 183.5H288.836C288.836 186.348 286.888 188.745 284.25 189.425L285.266 193.374ZM286.797 203.891V191.399H282.719V203.891H286.797ZM337.773 201.852H284.758V205.93H337.773V201.852ZM335.734 191.399V203.891H339.812V191.399H335.734ZM329.617 183.5C329.617 188.253 332.868 192.242 337.265 193.374L338.282 189.425C335.643 188.745 333.695 186.348 333.695 183.5H329.617ZM337.265 173.626C332.868 174.758 329.617 178.747 329.617 183.5H333.695C333.695 180.652 335.643 178.255 338.282 177.575L337.265 173.626ZM335.734 163.109V175.601H339.812V163.109H335.734Z" fill="#181C56"/>
</g>
<rect x="280.68" y="152.914" width="61.1719" height="61.1719" stroke="#BA3A26" stroke-opacity="0.2" stroke-width="4.07812"/>
<g clip-path="url(#clip2_4863_37204)">
<rect x="430.891" y="156.312" width="54.375" height="54.375" fill="white"/>
<circle cx="458.078" cy="183.5" r="10.1953" stroke="#CFCFCF" stroke-width="0.226562"/>
<path d="M430.891 156.312H485.266M430.891 156.312V210.688M430.891 156.312L485.266 210.688M485.266 156.312V210.688M485.266 156.312L430.891 210.688M485.266 210.688H430.891" stroke="#CFCFCF" stroke-width="0.226562"/>
<rect opacity="0.5" x="437.801" y="163.223" width="40.5547" height="40.5547" stroke="#007C2E" stroke-width="0.226562"/>
<path d="M432.59 203.891L458.078 159.711L483.566 203.891H432.59Z" stroke="#C1CB33" stroke-width="0.226562"/>
<circle opacity="0.5" cx="458.078" cy="183.5" r="23.6758" stroke="#881D0C" stroke-width="0.226562"/>
<rect opacity="0.5" x="441.199" y="159.824" width="33.7578" height="47.3516" stroke="#634689" stroke-width="0.226562" stroke-dasharray="0.68 0.68"/>
<rect opacity="0.5" x="434.402" y="166.621" width="47.3516" height="33.7578" stroke="#D47B00" stroke-width="0.226562" stroke-dasharray="0.68 0.68"/>
<path d="M468.273 176.703L454.68 190.297L447.883 183.5" stroke="#181C56" stroke-width="3.39844" stroke-linejoin="round"/>
<path d="M435.988 166.508V164.809C435.05 164.809 434.289 165.569 434.289 166.508H435.988ZM480.168 166.508H481.867C481.867 165.569 481.106 164.809 480.168 164.809V166.508ZM435.988 176.917H434.289C434.289 177.693 434.814 178.37 435.565 178.563L435.988 176.917ZM435.988 190.083L435.565 188.437C434.814 188.63 434.289 189.307 434.289 190.083H435.988ZM435.988 200.492H434.289C434.289 201.431 435.05 202.191 435.988 202.191V200.492ZM480.168 200.492V202.191C481.106 202.191 481.867 201.431 481.867 200.492H480.168ZM480.168 190.083H481.867C481.867 189.307 481.342 188.63 480.592 188.437L480.168 190.083ZM480.168 176.917L480.592 178.563C481.342 178.37 481.867 177.693 481.867 176.917H480.168ZM435.988 168.207H480.168V164.809H435.988V168.207ZM437.688 176.917V166.508H434.289V176.917H437.688ZM442.785 183.5C442.785 179.539 440.076 176.215 436.412 175.272L435.565 178.563C437.764 179.129 439.387 181.127 439.387 183.5H442.785ZM436.412 191.728C440.076 190.785 442.785 187.461 442.785 183.5H439.387C439.387 185.873 437.764 187.871 435.565 188.437L436.412 191.728ZM437.688 200.492V190.083H434.289V200.492H437.688ZM480.168 198.793H435.988V202.191H480.168V198.793ZM478.469 190.083V200.492H481.867V190.083H478.469ZM473.371 183.5C473.371 187.461 476.08 190.785 479.744 191.728L480.592 188.437C478.392 187.871 476.77 185.873 476.77 183.5H473.371ZM479.744 175.272C476.08 176.215 473.371 179.539 473.371 183.5H476.77C476.77 181.127 478.392 179.129 480.592 178.563L479.744 175.272ZM478.469 166.508V176.917H481.867V166.508H478.469Z" fill="#181C56"/>
</g>
<rect x="432.59" y="158.012" width="50.9766" height="50.9766" stroke="#BA3A26" stroke-opacity="0.2" stroke-width="3.39844"/>
<g clip-path="url(#clip3_4863_37204)">
<rect x="570.906" y="161.75" width="43.5" height="43.5" fill="white"/>
<circle cx="592.656" cy="183.5" r="8.15625" stroke="#CFCFCF" stroke-width="0.18125"/>
<path d="M570.906 161.75H614.406M570.906 161.75V205.25M570.906 161.75L614.406 205.25M614.406 161.75V205.25M614.406 161.75L570.906 205.25M614.406 205.25H570.906" stroke="#CFCFCF" stroke-width="0.18125"/>
<rect opacity="0.5" x="576.434" y="167.278" width="32.4437" height="32.4437" stroke="#007C2E" stroke-width="0.18125"/>
<path d="M572.266 199.812L592.656 164.469L613.047 199.812H572.266Z" stroke="#C1CB33" stroke-width="0.18125"/>
<circle opacity="0.5" cx="592.656" cy="183.5" r="18.9406" stroke="#881D0C" stroke-width="0.18125"/>
<rect opacity="0.5" x="579.153" y="164.559" width="27.0063" height="37.8812" stroke="#634689" stroke-width="0.18125" stroke-dasharray="0.54 0.54"/>
<rect opacity="0.5" x="573.716" y="169.997" width="37.8812" height="27.0063" stroke="#D47B00" stroke-width="0.18125" stroke-dasharray="0.54 0.54"/>
<path d="M600.812 178.062L589.938 188.938L584.5 183.5" stroke="#181C56" stroke-width="2.71875" stroke-linejoin="round"/>
<path d="M574.984 169.906V168.547C574.234 168.547 573.625 169.155 573.625 169.906H574.984ZM610.328 169.906H611.688C611.688 169.155 611.079 168.547 610.328 168.547V169.906ZM574.984 178.234H573.625C573.625 178.854 574.045 179.396 574.646 179.55L574.984 178.234ZM574.984 188.766L574.646 187.45C574.045 187.604 573.625 188.146 573.625 188.766H574.984ZM574.984 197.094H573.625C573.625 197.845 574.234 198.453 574.984 198.453V197.094ZM610.328 197.094V198.453C611.079 198.453 611.688 197.845 611.688 197.094H610.328ZM610.328 188.766H611.688C611.688 188.146 611.268 187.604 610.667 187.45L610.328 188.766ZM610.328 178.234L610.667 179.55C611.268 179.396 611.688 178.854 611.688 178.234H610.328ZM574.984 171.266H610.328V168.547H574.984V171.266ZM576.344 178.234V169.906H573.625V178.234H576.344ZM580.422 183.5C580.422 180.331 578.254 177.672 575.323 176.917L574.646 179.55C576.405 180.003 577.703 181.602 577.703 183.5H580.422ZM575.323 190.083C578.254 189.328 580.422 186.669 580.422 183.5H577.703C577.703 185.398 576.405 186.997 574.646 187.45L575.323 190.083ZM576.344 197.094V188.766H573.625V197.094H576.344ZM610.328 195.734H574.984V198.453H610.328V195.734ZM608.969 188.766V197.094H611.688V188.766H608.969ZM604.891 183.5C604.891 186.669 607.058 189.328 609.989 190.083L610.667 187.45C608.908 186.997 607.609 185.398 607.609 183.5H604.891ZM609.989 176.917C607.058 177.672 604.891 180.331 604.891 183.5H607.609C607.609 181.602 608.908 180.003 610.667 179.55L609.989 176.917ZM608.969 169.906V178.234H611.688V169.906H608.969Z" fill="#181C56"/>
</g>
<rect x="572.266" y="163.109" width="40.7812" height="40.7812" stroke="#BA3A26" stroke-opacity="0.2" stroke-width="2.71875"/>
<defs>
<clipPath id="clip0_4863_37204">
<rect x="106" y="140" width="87" height="87" fill="white"/>
</clipPath>
<clipPath id="clip1_4863_37204">
<rect x="278.641" y="150.875" width="65.25" height="65.25" fill="white"/>
</clipPath>
<clipPath id="clip2_4863_37204">
<rect x="430.891" y="156.312" width="54.375" height="54.375" fill="white"/>
</clipPath>
<clipPath id="clip3_4863_37204">
<rect x="570.906" y="161.75" width="43.5" height="43.5" fill="white"/>
</clipPath>
</defs>
</svg>
