<?xml version="1.0" encoding="utf-8"?>
<!-- Generator: Adobe Illustrator 23.0.1, SVG Export Plug-In . SVG Version: 6.00 Build 0)  -->
<svg version="1.1" id="cableway" xmlns="http://www.w3.org/2000/svg" xmlns:xlink="http://www.w3.org/1999/xlink" x="0px" y="0px"
	 width="16px" height="16px" viewBox="0 0 16 16" enable-background="new 0 0 16 16" xml:space="preserve">
<g>
	<path fill-rule="evenodd" clip-rule="evenodd" fill="#642E88" d="M12.0619507,7.2733459
		c-0.0360718-0.1594849-0.1778564-0.2727661-0.3414307-0.2727661H4.27948c-0.1635742,0-0.3053589,0.1132812-0.3414307,0.2727661
		l-0.928833,4.1077271c-0.0250854,0.1220703,0.0014648,0.2490845,0.0733032,0.3509521l0.8125,1.1231689
		c0.0657959,0.0910034,0.1712036,0.1448364,0.2834473,0.1448975h7.6430664
		c0.1122437-0.000061,0.2176514-0.053894,0.2834473-0.1448975l0.8125-1.1231689
		c0.0718384-0.1018677,0.0983887-0.2288818,0.0733032-0.3509521L12.0619507,7.2733459z M5.8291016,10.1648865
		c0,0.1942749-0.1566772,0.3509521-0.3500977,0.3509521H5.1140137H5.1131592H4.4287109
		c-0.105896,0-0.206543-0.0481567-0.2730713-0.1312866c-0.0665283-0.0822754-0.0910034-0.1907959-0.0682373-0.2949219
		l0.30896-1.4003906c0.0349731-0.1610718,0.1776733-0.2748413,0.3413086-0.2748413h0.527771h0.213562
		c0.1934204,0,0.3500977,0.1566772,0.3500977,0.3500977V10.1648865z M9.4719849,10.1653137
		c0,0.1934204-0.1575317,0.3500977-0.3500977,0.3500977H7.0213623c-0.1934204,0-0.3500977-0.1566772-0.3500977-0.3500977V8.7649231
		c0-0.1934204,0.1566772-0.3500977,0.3500977-0.3500977h2.1005249c0.1925659,0,0.3500977,0.1566772,0.3500977,0.3500977V10.1653137z
		 M11.8443604,10.3849792c-0.0665283,0.0831299-0.1671753,0.1312866-0.2730713,0.1312866h-0.6844482h-0.0008545h-0.3649902
		c-0.1934204,0-0.3500977-0.1566772-0.3500977-0.3509521V8.7649231c0-0.1934204,0.1566772-0.3500977,0.3500977-0.3500977h0.213562
		h0.527771c0.1636353,0,0.3063354,0.1137695,0.3413086,0.2748413l0.30896,1.4003906
		C11.9353638,10.1941833,11.9108887,10.3027039,11.8443604,10.3849792z"/>
	<path fill-rule="evenodd" clip-rule="evenodd" fill="#642E88" d="M7.9999995,2.4006891
		c0.3308167,0,0.6000009,0.2689812,0.6000009,0.5995469c0,0.3314719-0.2691841,0.6004531-0.6000009,0.6004531
		c-0.3308153,0-0.5999994-0.2689812-0.5999994-0.6004531C7.4000001,2.6696703,7.6691842,2.4006891,7.9999995,2.4006891z"/>
	<g>
		<path fill-rule="evenodd" clip-rule="evenodd" fill="#642E88" d="M8.9807739,3.1003144l3.175293-0.7976685l-0.1635742-0.651001
			L8.8283081,2.4465668C8.9573975,2.6399872,9.0033569,2.8709443,8.9807739,3.1003144z"/>
		<path fill-rule="evenodd" clip-rule="evenodd" fill="#642E88" d="M7.0195312,2.9009125L3.8439331,3.6987031l0.1635742,0.6510012
			L7.171814,3.5547822C7.0427856,3.3614228,6.9968872,3.1304657,7.0195312,2.9009125z"/>
	</g>
	<path fill-rule="evenodd" clip-rule="evenodd" fill="#642E88" d="M8.3356323,5.3300509V3.9327118
		C8.2296753,3.9709809,8.1189575,4.0006442,8,4.0006442S7.7703247,3.9709809,7.6643677,3.9327118v1.3973391H6.5053101v0.6712646
		h2.9893799V5.3300509H8.3356323z"/>
</g>
</svg>
