<?xml version="1.0" encoding="utf-8"?>
<!-- Generator: Adobe Illustrator 24.0.1, SVG Export Plug-In . SVG Version: 6.00 Build 0)  -->
<svg version="1.1" id="Layer_1" xmlns="http://www.w3.org/2000/svg" xmlns:xlink="http://www.w3.org/1999/xlink" x="0px" y="0px"
	 width="16px" height="16px" viewBox="0 0 16 16" enable-background="new 0 0 16 16" xml:space="preserve">
<path id="Icon-Fill" fill-rule="evenodd" clip-rule="evenodd" fill="#181C56" d="M8.3862934,2.707H7.7470398v-1.01h0.6336546
	c0.3830853,0,0.5687952,0.1845,0.5692625,0.4974999C8.9504232,2.4635,8.799242,2.7095001,8.3862934,2.707 M9.8011312,6
	c0.1462126,0,0.2785702,0.0855665,0.3436317,0.2140074l0.0266752,0.0675955l1.2006826,4.140132
	c0.116086-0.0185652,0.2350941-0.0282049,0.3563204-0.0282049C12.9833708,10.3935299,14,11.4252052,14,12.6958961
	C14,13.9683247,12.9833708,15,11.7284412,15c-1.2540712,0-2.2707005-1.0316753-2.2707005-2.3041039
	c0-0.9343081,0.5496206-1.739397,1.3391256-2.1001749l-0.3794136-1.3051367L8.733386,11.9411983
	c0.0785866,0.1313591,0.123806,0.2855072,0.123806,0.4503231c0,0.4806366-0.3831654,0.8691444-0.857192,0.8691444
	c-0.4740272,0-0.857192-0.3885078-0.857192-0.8691444c0-0.1778164,0.0526342-0.3432159,0.1430202-0.4809771L6.1049204,9.8007727
	l-0.5201402,1.0168676c0.5794191,0.4173632,0.9574795,1.1033678,0.9574795,1.8782558C6.5422597,13.9683247,5.52563,15,4.2715583,15
	C3.0166295,15,2,13.9683247,2,12.6958961c0-1.2706909,1.0166295-2.3023663,2.2715583-2.3023663
	c0.276032,0,0.5405607,0.0499821,0.7852764,0.1414948l0.6966372-1.3626442l-0.4483113-0.799614H4.8928509
	c-0.1774387,0-0.3214469-0.1468849-0.3214469-0.3259296c0-0.1574235,0.1102562-0.2888951,0.2566905-0.3193035l0.0647564-0.0066257
	h1.3706498c0.1774387,0,0.3214469,0.1460166,0.3214469,0.3259292c0,0.1566639-0.1102562,0.2887058-0.2566905,0.3192692
	L6.2635007,8.3727665H5.9943423l0.3060179,0.5466928L10.1834393,8.48141L9.6476946,6.6396909L9.6382647,6.6084018H7.9667411V6
	H9.8011312z M11.7284412,11.0453892c-0.0582685,0-0.1158333,0.0031242-0.1725388,0.0092182l0.4156389,1.4326935
	c0.0222864,0.0782232,0.0137148,0.1607914-0.0248585,0.2320614c-0.0385742,0.07127-0.102006,0.12255-0.1782961,0.1460171
	c-0.1381302,0.0424633-0.2781496-0.0217113-0.3444862-0.1416225l-0.0266781-0.0643654l-0.4158783-1.4294748
	c-0.5227137,0.2751875-0.8807096,0.8294706-0.8807096,1.4659796c0,0.9108639,0.7303276,1.6522446,1.6278067,1.6522446
	c0.8983374,0,1.628665-0.7413807,1.628665-1.6522446C13.3571062,11.7867699,12.6267786,11.0453892,11.7284412,11.0453892z
	 M4.2715583,11.0453892c-0.8983369,0-1.6286645,0.7413807-1.6286645,1.650507c0,0.9108639,0.7303276,1.6522446,1.6286645,1.6522446
	c0.89748,0,1.6278076-0.7413807,1.6278076-1.6522446c0-0.5215521-0.2403607-0.987896-0.6147509-1.2907257L4.5945482,12.755867
	c-0.0754328,0.1486235-0.2554431,0.2068567-0.4020228,0.1303711c-0.1256399-0.0663033-0.1857834-0.2111483-0.15344-0.3442268
	l0.024004-0.0651398l0.6943903-1.3563004C4.6039596,11.0717297,4.4407282,11.0453892,4.2715583,11.0453892z M8,12.0873203
	c-0.1654382,0-0.3000174,0.1373243-0.3000174,0.3042011c0,0.1677446,0.1345792,0.3050699,0.3000174,0.3050699
	c0.1654377,0,0.3000174-0.1373253,0.3000174-0.3050699C8.3000174,12.2246447,8.1654377,12.0873203,8,12.0873203z
	 M9.8011312,9.1376143L6.622664,9.4957027l1.1517878,2.0570326C7.8462982,11.5329409,7.9219165,11.5223761,8,11.5223761
	c0.0902386,0,0.1771841,0.0141106,0.2588196,0.0402689L9.8011312,9.1376143z M8.3657627,1
	C9.1543303,1,9.666667,1.3945,9.666667,2.174c0,0.7995-0.4698753,1.2595-1.3060369,1.2595l0,0H7.7470398V5H7V1H8.3657627z"/>
</svg>
