<?xml version="1.0" encoding="utf-8"?>
<!-- Generator: Adobe Illustrator 22.0.1, SVG Export Plug-In . SVG Version: 6.00 Build 0)  -->
<svg version="1.1" id="Layer_1" xmlns="http://www.w3.org/2000/svg" xmlns:xlink="http://www.w3.org/1999/xlink" x="0px" y="0px"
	 viewBox="0 0 16 16" enable-background="new 0 0 16 16" xml:space="preserve">
<title>Icon/Facilities/Coffee</title>
<desc>Created with Sketch.</desc>
<g id="Icon_x2F_Facilities_x2F_Coffee">
	<g id="Icon-Fill">
		<path id="path-1_1_" fill="#181C56" d="M1,5.37399v3.063c0,2.012,1.049,3.762,2.625,4.812l0,0h-1.75
			c-0.525,0-0.875,0.349-0.875,0.875l0,0c0,0.526,0.35,0.875,0.875,0.875l0,0H13.25c0.525,0,0.875-0.349,0.875-0.875l0,0
			c0-0.526-0.35-0.875-0.875-0.875l0,0h-3.5c0.7-0.437,1.312-1.05,1.75-1.75l0,0h0.875c1.487,0,2.625-1.138,2.625-2.625l0,0v-2.625
			c0-0.525-0.35-0.875-0.875-0.875l0,0H1z M12.375,8.43699v-1.313h0.875v1.75c0,0.525-0.35,0.875-0.875,0.875H12.2
			C12.288,9.31199,12.375,8.87399,12.375,8.43699z M8.875,3.62399v-2.624h1.75v2.624H8.875z M5.375,3.62399v-2.624h1.75v2.624H5.375
			z M1.875,3.62399v-2.624h1.75v2.624H1.875z"/>
	</g>
</g>
</svg>
