<?xml version="1.0" encoding="utf-8"?>
<!-- Generator: Adobe Illustrator 22.0.1, SVG Export Plug-In . SVG Version: 6.00 Build 0)  -->
<svg version="1.1" id="Layer_1" xmlns="http://www.w3.org/2000/svg" xmlns:xlink="http://www.w3.org/1999/xlink" x="0px" y="0px"
	 viewBox="0 0 16 16" enable-background="new 0 0 16 16" xml:space="preserve">
<title>Icon/Facilities/Cutlery</title>
<desc>Created with Sketch.</desc>
<g id="Icon_x2F_Facilities_x2F_Cutlery">
	<g id="Icon-Fill">
		<path id="path-1_1_" fill="#181C56" d="M7.25,0.99999h0.875v5.25c0,0.962-0.788,1.75-1.75,1.75v5.688
			c0,0.7-0.612,1.312-1.313,1.312c-0.7,0-1.312-0.612-1.312-1.312v-5.688c-0.962,0-1.75-0.788-1.75-1.75v-5.25h0.875v3.5h1.75v-3.5
			H5.5v3.5h1.75V0.99999z M14.25,0.99999v12.688c0,0.7-0.612,1.312-1.313,1.312c-0.7,0-1.312-0.612-1.312-1.312v-3.063h-1.75v-5.25
			C9.875,2.92499,11.8,0.99999,14.25,0.99999z"/>
	</g>
</g>
</svg>
