<?xml version="1.0" encoding="utf-8"?>
<!-- Generator: Adobe Illustrator 23.0.1, SVG Export Plug-In . SVG Version: 6.00 Build 0)  -->
<svg version="1.1" id="subway" xmlns="http://www.w3.org/2000/svg" xmlns:xlink="http://www.w3.org/1999/xlink" x="0px" y="0px"
	 width="16px" height="16px" viewBox="0 0 16 16" enable-background="new 0 0 16 16" xml:space="preserve">
<path fill="#181E53" d="M7.9994302,2C11.3081598,2,14,4.6915898,14,8s-2.6918402,6-6.0005698,6C4.69133,14,2,11.3084097,2,8
	S4.69133,2,7.9994302,2 M7.9994302,1C4.1398902,1,1,4.14078,1,8s3.1398902,7,6.9994302,7C11.8601103,15,15,11.8592196,15,8
	S11.8601103,1,7.9994302,1L7.9994302,1z"/>
<path fill-rule="evenodd" clip-rule="evenodd" fill="#181E53" d="M6.8092699,4.7501221H4.4310808v6.5h1.3008065V8.7045794h1.0684228
	c1.4559937,0,2.2741804-0.7475023,2.2741804-2.046689C9.0744905,5.3912024,8.1823807,4.7501221,6.8092699,4.7501221z
	 M6.8450084,7.5240149h-1.113121V5.8827491h1.1033683c0.6670656,0,0.9904327,0.2998276,0.9912591,0.8084664
	C7.8273082,7.1283112,7.5640788,7.5280814,6.8450084,7.5240149z"/>
<polygon fill-rule="evenodd" clip-rule="evenodd" fill="#181E53" points="12.3042603,8.9501343 11.0042725,8.9501343 
	11.0042725,7.6500854 10.0042725,7.6500854 10.0042725,8.9501343 8.7042847,8.9501343 8.7042847,9.9501343 10.0042725,9.9501343 
	10.0042725,11.2501221 11.0042725,11.2501221 11.0042725,9.9501343 12.3042603,9.9501343 "/>
</svg>
