<?xml version="1.0" encoding="UTF-8"?>
<svg width="16px" height="16px" viewBox="0 0 16 16" version="1.1" xmlns="http://www.w3.org/2000/svg" xmlns:xlink="http://www.w3.org/1999/xlink">
    <!-- Generator: Sketch 58 (84663) - https://sketch.com -->
    <title>Icon/Facilities/Premium seat</title>
    <desc>Created with Sketch.</desc>
    <g id="Icon/Facilities/Premium-seat" stroke="none" stroke-width="1" fill="none" fill-rule="evenodd">
        <path d="M2.48,4.59373965 L5.374,11.3797397 C5.7124375,12.1794272 6.46396094,12.713685 7.31957983,12.7773434 L7.492,12.7837397 L11.082,12.7857397 L12.774,13.8557397 L11.992,14.9987397 L10.674,14.1837397 L7.492,14.1837397 C6.07068182,14.1837397 4.78694835,13.3764545 4.16873225,12.1097806 L4.085,11.9257397 L0.98,4.59373965 L2.48,4.59373965 Z M5.8118,4.50223965 L5.8118,4.50223965 C6.08944286,4.55702537 6.49038673,4.65664782 6.81206567,5.28550387 L6.8848,5.44023965 L8.8478,9.97523965 L10.8378,9.97523965 L14.6558,12.3352397 C14.9621636,12.5116033 15.0949736,12.8846611 14.9798496,13.2064793 L14.9378,13.3012397 L14.8738,13.4232397 C14.7056182,13.736876 14.334957,13.8629091 14.0127557,13.7314666 L13.9178,13.6842397 L11.2888,12.0842397 L7.7888,12.0842397 C6.9722375,12.0842397 6.25323359,11.6078725 5.90864375,10.8907948 L5.8448,10.7442397 C5.84193793,10.7357224 4.31706397,7.17695547 4.10674539,6.68612206 L4.0828,6.63023965 C3.72185263,5.78329228 4.12917119,4.98750281 4.86261542,4.63739638 L4.9878,4.58323965 L5.0018,4.58023965 C5.1314,4.52863965 5.31536,4.49503965 5.490824,4.48591965 L5.661128,4.48519965 Z M4.75,1.45363965 C5.377,1.90263965 5.53,2.77463965 5.091,3.41463965 C4.646,4.04763965 3.782,4.20263965 3.148,3.75963965 C2.521,3.30963965 2.368,2.43763965 2.806,1.79763965 C3.245,1.16363965 4.116,1.00963965 4.75,1.45363965 Z" id="Icon-Fill" fill="#181C56"></path>
    </g>
</svg>