<?xml version="1.0" encoding="utf-8"?>
<!-- Generator: Adobe Illustrator 22.0.1, SVG Export Plug-In . SVG Version: 6.00 Build 0)  -->
<svg version="1.1" id="Layer_1" xmlns="http://www.w3.org/2000/svg" xmlns:xlink="http://www.w3.org/1999/xlink" x="0px" y="0px"
	 viewBox="0 0 16 16" enable-background="new 0 0 16 16" xml:space="preserve">
<title>Icon/Facilities/Seat</title>
<desc>Created with Sketch.</desc>
<g id="Icon_x2F_Facilities_x2F_Seat">
	<g id="Icon-Fill">
		<path id="path-1_1_" fill="#181C56" d="M3.33363,3.55937c-0.62666-0.44996-0.78007-1.32221-0.3415-1.96234
			C3.43071,0.96405,4.30179,0.8096,4.93539,1.25331c0.62666,0.44907,0.78007,1.32132,0.3415,1.96144
			C4.83138,3.84774,3.96723,4.00219,3.33363,3.55937z M10.75092,12.95449v1.40613H5.83386c-1.7205,0-3.1827-1.26507-3.44706-2.9819
			L1,4.5159h1.39287l1.37206,6.65213c0.15341,1.0267,1.03143,1.78646,2.062,1.78646H10.75092z M7.51249,10.14142h3.97491
			l2.39483,3.66666c0.21235,0.32676,0.13001,0.76869-0.18635,0.9892l-0.11268,0.07946
			c-0.3207,0.22409-0.75754,0.13392-0.96989-0.19998l-1.54108-2.42569h-4.6189c-1.00196,0-1.85918-0.7169-2.05419-1.71593
			L3.45871,6.37209C3.25675,5.42216,3.88341,4.69187,4.74063,4.53652H4.7545c0.22969-0.04196,0.59546-0.00803,0.81041,0.07946
			c0.28256,0.11517,0.69513,0.3089,0.87195,1.12669L7.51249,10.14142z"/>
	</g>
</g>
</svg>
