<?xml version="1.0" encoding="utf-8"?>
<!-- Generator: Adobe Illustrator 23.0.1, SVG Export Plug-In . SVG Version: 6.00 Build 0)  -->
<svg version="1.1" id="Layer_1" xmlns="http://www.w3.org/2000/svg" xmlns:xlink="http://www.w3.org/1999/xlink" x="0px" y="0px"
	 width="16px" height="16px" viewBox="0 0 16 16" enable-background="new 0 0 16 16" xml:space="preserve">
<path fill-rule="evenodd" clip-rule="evenodd" fill="#181C56" d="M4.4823999,10.8106155
	c-0.7460001,0-1.3499999-0.6040001-1.3499999-1.3500004c0-0.7439995,0.6039999-1.3499994,1.3499999-1.3499994
	c0.7449999,0,1.3509998,0.6059999,1.3509998,1.3499994C5.8333998,10.2066154,5.2273998,10.8106155,4.4823999,10.8106155z
	 M14.5995998,10.7998152H6.9006c-0.2220001,0-0.401-0.1789999-0.401-0.3990002V7.8998151
	c0-0.2209997,0.1789999-0.3999996,0.401-0.3999996h5.5009999c1.434,0,2.5980005,1.164,2.5980005,2.5989995v0.302
	C14.9996004,10.6208153,14.8216,10.7998152,14.5995998,10.7998152z M12.5,1.0000154
	c-0.4250002,1.5250002,0.9750004,2.9250002,2.5,2.5c-0.25,0.8749998-1.0249996,1.4999998-1.9750004,1.4999998
	C11.8999996,5.0000153,11,4.1000152,11,2.9750154C11,2.0250156,11.625,1.2250154,12.5,1.0000154z M1,7.1047153h1.201v4.3959999
	h11.599H15v2.9989996h-1.1999998v-1.7999992H2.201v1.7999992H1V7.1047153z"/>
</svg>
