<?xml version="1.0" encoding="utf-8"?>
<!-- Generator: Adobe Illustrator 22.0.1, SVG Export Plug-In . SVG Version: 6.00 Build 0)  -->
<svg version="1.1" id="Layer_1" xmlns="http://www.w3.org/2000/svg" xmlns:xlink="http://www.w3.org/1999/xlink" x="0px" y="0px"
	 viewBox="0 0 16 16" enable-background="new 0 0 16 16" xml:space="preserve">
<title>Icon/Facilities/Stroller</title>
<desc>Created with Sketch.</desc>
<g id="Icon_x2F_Facilities_x2F_Stroller">
	<path id="Icon-Fill" fill="#181C56" d="M12.41693,12.33317c-0.22528,0-0.4354,0.09111-0.63967,0.28035
		c-0.16225,0.1612-0.25447,0.38548-0.25447,0.63429c0,0.23129,0.09455,0.45557,0.26614,0.62611
		c0.34085,0.34226,0.96767,0.33875,1.26183,0.01519c0.1856-0.18573,0.28015-0.40884,0.28015-0.6413
		c0-0.24881-0.09105-0.47309-0.26614-0.64714c-0.17042-0.17054-0.39921-0.2675-0.62683-0.2675H12.41693z M12.43794,14.99999
		c-0.47508,0-0.91982-0.18456-1.25366-0.51981c-0.33384-0.33291-0.51827-0.76979-0.51827-1.23236
		c0-0.47426,0.18443-0.91931,0.51944-1.25339c0.37236-0.34226,0.79375-0.51748,1.23148-0.51748h0.02101
		c0.45407,0,0.90347,0.18923,1.23148,0.51748c0.33384,0.33291,0.51827,0.77797,0.51827,1.25339
		c0,0.46257-0.18443,0.90062-0.51827,1.23353C13.3776,14.80024,12.91185,14.99999,12.43794,14.99999L12.43794,14.99999z
		 M5.23886,12.33317c-0.2463,0-0.45641,0.09111-0.66068,0.28035c-0.07821,0.08761-0.25447,0.3259-0.25447,0.63429
		c0,0.21377,0.10272,0.44622,0.28015,0.6413c0.32217,0.32123,0.94783,0.32941,1.24782,0
		c0.18676-0.18573,0.28131-0.40884,0.28131-0.6413c0-0.24881-0.09222-0.47309-0.26614-0.64714
		c-0.16809-0.16704-0.39454-0.2675-0.60699-0.2675H5.23886z M5.23886,14.99999c-0.47392,0-0.91982-0.18456-1.25366-0.51981
		c-0.33734-0.36796-0.5171-0.80133-0.5171-1.23236c0-0.44388,0.17976-0.88426,0.50543-1.2382
		c0.39104-0.36329,0.80192-0.53266,1.24432-0.53266h0.04202c0.44123,0,0.88246,0.18923,1.21164,0.51748
		c0.33267,0.33291,0.51711,0.77797,0.51711,1.25339c0,0.46257-0.18443,0.90062-0.51827,1.23353
		C6.17035,14.81075,5.72678,14.99999,5.23886,14.99999z M4.67681,11.02593H4.64063c-0.54162,0-1.04705-0.23362-1.40774-0.59574
		l-0.01751-0.01752c-0.36186-0.36095-0.5778-0.86791-0.5778-1.42627V6.9457l12.34398,0.01635V8.9864
		c0,0.55836-0.21595,1.06532-0.59531,1.44379c-0.36186,0.36212-0.86612,0.59574-1.40774,0.59574h-0.01868h-0.03619H4.69432H4.67681z
		 M1,3.28938h0.70737c0.44824,0,0.87312,0.17989,1.19646,0.50579C3.22133,4.1164,3.4046,4.54978,3.4046,4.98548v1.11906h-0.7669
		V4.98548c0-0.24063-0.09688-0.47075-0.27198-0.6483C2.18829,4.15729,1.96067,4.06267,1.70737,4.06267H1V3.28938z M15,6.10933
		H9.18812V0.99999h0.9595C12.82769,0.99999,15,3.17385,15,5.85585V6.10933z"/>
</g>
</svg>
