<?xml version="1.0" encoding="UTF-8"?>
<svg width="16px" height="16px" viewBox="0 0 16 16" version="1.1" xmlns="http://www.w3.org/2000/svg" xmlns:xlink="http://www.w3.org/1999/xlink">
    <!-- Generator: Sketch 63 (92445) - https://sketch.com -->
    <title>Icon/Facilities/Teddy</title>
    <desc>Created with Sketch.</desc>
    <defs>
        <path d="M15.0413208,3.1875 C15.0413208,1.9625244 14.0788574,1 12.8538208,1 C11.6288452,1 10.6663208,1.9625244 10.6663208,3.1875 L10.6663208,3.3624878 C9.8788452,3.0125122 9.0038452,2.75 8.0413208,2.75 C7.0788574,2.75 6.2038574,3.0125122 5.4163208,3.3624878 L5.4163208,3.1875 C5.4163208,1.9625244 4.4538574,1 3.2288208,1 C2.0038452,1 1.0413208,1.9625244 1.0413208,3.1875 C1.0413208,4.3250122 1.9163208,5.2874756 3.053833,5.375 C2.3538208,6.3375244 1.9163208,7.5625 1.9163208,8.875 C1.9163208,12.2874756 4.6288452,15 8.0413208,15 C11.4538574,15 14.1663208,12.2874756 14.1663208,8.875 C14.1663208,7.5625 13.7288208,6.3375244 13.0288086,5.375 C14.1663208,5.2874756 15.0413208,4.3250122 15.0413208,3.1875 Z M5.1240234,7.4799805 C5.1240234,7.0300293 5.4240112,6.7299805 5.8740234,6.7299805 C6.3239746,6.7299805 6.6240234,7.0300293 6.6240234,7.4799805 C6.6240234,7.9299927 6.3239746,8.2299805 5.8740234,8.2299805 C5.4240112,8.2299805 5.1240234,7.9299927 5.1240234,7.4799805 Z M8.0413208,13.1902466 C6.5812988,13.1902466 5.3977051,12.2433472 5.3977051,11.0753174 C5.3977051,9.9072876 6.5812989,8.9603882 8.0413208,8.9603882 C9.5014038,8.9603882 10.6849976,9.9072876 10.6849976,11.0753174 C10.6849976,12.2433472 9.5014038,13.1902466 8.0413208,13.1902466 Z M8,9.6 C8.69035594,9.6 9.25,10.0477153 9.25,10.6 C9.25,11.1522847 8.69035594,11.6 8,11.6 C7.30964406,11.6 6.75,11.1522847 6.75,10.6 C6.75,10.0477153 7.30964406,9.6 8,9.6 Z M10.3740234,6.7299805 C10.8239746,6.7299805 11.1240234,7.0300293 11.1240234,7.4799805 C11.1240234,7.9299927 10.8239746,8.2299805 10.3740234,8.2299805 C9.9240112,8.2299805 9.6240234,7.9299927 9.6240234,7.4799805 C9.6240234,7.0300293 9.9240112,6.7299805 10.3740234,6.7299805 Z" id="path-1"></path>
    </defs>
    <g id="Icon/Facilities/Teddy" stroke="none" stroke-width="1" fill="none" fill-rule="evenodd">
        <mask id="mask-2" fill="white">
            <use xlink:href="#path-1"></use>
        </mask>
        <use id="Icon-Fill" fill="#181C56" xlink:href="#path-1"></use>
    </g>
</svg>