<?xml version="1.0" encoding="utf-8"?>
<!-- Generator: Adobe Illustrator 22.0.1, SVG Export Plug-In . SVG Version: 6.00 Build 0)  -->
<svg version="1.1" id="Layer_1" xmlns="http://www.w3.org/2000/svg" xmlns:xlink="http://www.w3.org/1999/xlink" x="0px" y="0px"
	 viewBox="0 0 16 16" enable-background="new 0 0 16 16" xml:space="preserve">
<title>Icon/Facilities/Teddy</title>
<desc>Created with Sketch.</desc>
<g id="Icon_x2F_Facilities_x2F_Teddy">
	<g id="Icon-Fill">
		<path id="path-1_1_" fill="#181C56" d="M15,3.18749c0-1.225-0.9625-2.1875-2.1875-2.1875s-2.1875,0.9625-2.1875,2.1875v0.175
			c-0.7875-0.35-1.6625-0.6125-2.625-0.6125s-1.8375,0.2625-2.625,0.6125v-0.175c0-1.225-0.9625-2.1875-2.1875-2.1875
			S1,1.96249,1,3.18749c0,1.1375,0.875,2.1,2.0125,2.1875c-0.7,0.9625-1.1375,2.1875-1.1375,3.5c0,3.4125,2.7125,6.125,6.125,6.125
			s6.125-2.7125,6.125-6.125c0-1.3125-0.4375-2.5375-1.1375-3.5C14.125,5.28749,15,4.32499,15,3.18749L15,3.18749z M5.375,7.99999
			c0-0.525,0.35-0.875,0.875-0.875s0.875,0.35,0.875,0.875s-0.35,0.875-0.875,0.875S5.375,8.52499,5.375,7.99999L5.375,7.99999z
			 M9.75,12.37499h-3.5v-0.875h0.875v-1.75h1.75v1.75H9.75V12.37499L9.75,12.37499z M9.75,8.87499c-0.525,0-0.875-0.35-0.875-0.875
			s0.35-0.875,0.875-0.875s0.875,0.35,0.875,0.875S10.275,8.87499,9.75,8.87499L9.75,8.87499z"/>
	</g>
</g>
</svg>
