<?xml version="1.0" encoding="utf-8"?>
<!-- Generator: Adobe Illustrator 22.0.1, SVG Export Plug-In . SVG Version: 6.00 Build 0)  -->
<svg version="1.1" id="Layer_1" xmlns="http://www.w3.org/2000/svg" xmlns:xlink="http://www.w3.org/1999/xlink" x="0px" y="0px"
	 viewBox="0 0 16 16" enable-background="new 0 0 16 16" xml:space="preserve">
<title>Icon/Facilities/Wheelchair</title>
<desc>Created with Sketch.</desc>
<g id="Icon_x2F_Facilities_x2F_Wheelchair">
	<path id="Icon-Fill" fill="#181C56" d="M7.14078,3.57253C6.51622,3.12016,6.36437,2.24341,6.80105,1.60028
		C7.23773,0.96415,8.10422,0.8084,8.73478,1.25465c0.6237,0.4515,0.77641,1.32825,0.33973,1.97138
		C8.63012,3.86216,7.77135,4.01791,7.14078,3.57253z M8.4352,11.94832h1.41041l-0.03174,0.11112
		c-0.48815,1.73076-2.06242,2.94088-3.828,2.94088C3.78789,15.00033,2,13.17683,2,10.93594
		c0-2.14026,1.63861-3.92176,3.73192-4.05651l0.08922-0.00612v1.35976L5.74307,8.24094
		c-1.35207,0.12513-2.41073,1.309-2.41073,2.69501c0,1.491,1.18907,2.70551,2.65352,2.70551c1.05352,0,2.0058-0.644,2.42703-1.64063
		L8.4352,11.94832z M11.83245,9.2597l2.55143,3.88064c0.21019,0.31938,0.12697,0.7525-0.18445,0.96863L14.039,14.22009
		c-0.31142,0.21525-0.73437,0.13475-0.94885-0.18025l-1.93545-2.84463H7.93753c-0.76526,0-1.38553-0.63263-1.38553-1.41313V5.96794
		c0-0.85838,0.75067-1.53826,1.61802-1.39388c0.68118,0.11288,1.15303,0.76563,1.15303,1.47V9.2597H11.83245z"/>
</g>
</svg>
