<?xml version="1.0" encoding="utf-8"?>
<!-- Generator: Adobe Illustrator 22.0.1, SVG Export Plug-In . SVG Version: 6.00 Build 0)  -->
<svg version="1.1" id="Layer_1" xmlns="http://www.w3.org/2000/svg" xmlns:xlink="http://www.w3.org/1999/xlink" x="0px" y="0px"
	 viewBox="0 0 16 16" enable-background="new 0 0 16 16" xml:space="preserve">
<title>Icon/Flag/Norway</title>
<desc>Created with Sketch.</desc>
<g id="Icon_x2F_Flag_x2F_Norway">
	<g id="Flag" transform="translate(1.000000, 4.000000)">
		<polygon id="Icon-Fill" fill="#D80027" points="0,9.99999 14,9.99999 14,-0.00001 0,-0.00001 		"/>
		<polygon id="Icon-Fill_1_" fill="#D80027" points="0,9.99999 14,9.99999 14,-0.00001 0,-0.00001 		"/>
		<polygon id="Icon-Fill_2_" fill="#FFFFFF" points="4.15953,-0.00001 4.15953,3.69557 0,3.69557 0,4.34779 0,5.65215 0,6.30434 
			4.15953,6.30434 4.15953,9.99999 4.76823,9.99999 5.98563,9.99999 6.5943,9.99999 6.5943,6.30434 14,6.30434 14,3.69557 
			6.5943,3.69557 6.5943,-0.00001 		"/>
		<polygon id="Icon-Fill_3_" fill="#0052B4" points="4.7682,-0.00001 4.7682,4.34779 0,4.34779 0,5.65215 4.7682,5.65215 
			4.7682,9.99999 5.9856,9.99999 5.9856,5.65215 14,5.65215 14,4.34779 5.9856,4.34779 5.9856,-0.00001 		"/>
	</g>
</g>
</svg>
