<?xml version="1.0" encoding="UTF-8"?>
<svg width="68.625" height="20.825" version="1.1" viewBox="0 0 68.625 20.825" xmlns="http://www.w3.org/2000/svg" xmlns:xlink="http://www.w3.org/1999/xlink"><title>Logo</title><desc>Created with Sketch.</desc><defs><path id="path-1" d="m50.935 6.0764v8.651c0 0.726-0.116 1.326-0.348 1.802-0.232 0.475-0.519 0.85-0.861 1.127-0.341 0.278-0.708 0.469-1.102 0.574-0.392 0.107-0.744 0.158-1.053 0.158s-0.661-0.051-1.054-0.158c-0.393-0.105-0.76-0.296-1.101-0.574-0.343-0.277-0.629-0.652-0.861-1.127-0.232-0.476-0.348-1.076-0.348-1.802v-8.651h-2.707v8.651c0 0.924 0.144 1.762 0.435 2.515 0.289 0.751 0.699 1.389 1.227 1.918 0.529 0.53 1.168 0.938 1.916 1.23 0.746 0.288 1.577 0.435 2.493 0.435 0.928 0 1.765-0.147 2.513-0.435 0.747-0.292 1.384-0.7 1.914-1.23 0.529-0.529 0.935-1.167 1.218-1.918 0.284-0.753 0.425-1.591 0.425-2.515v-8.651z"/><path id="path-3" d="m56.734 6.0764v14.49h2.708v-4.612h2.679l3.277 4.612h3.227l-3.524-4.869c0.438-0.12 0.843-0.328 1.211-0.624s0.678-0.65 0.93-1.059c0.252-0.41 0.448-0.869 0.59-1.376s0.214-1.033 0.214-1.573c0-0.726-0.121-1.397-0.36-2.01-0.238-0.614-0.57-1.141-0.997-1.583-0.425-0.442-0.939-0.784-1.54-1.028-0.599-0.246-1.261-0.368-1.984-0.368zm2.708 2.456h3.083c0.501 0 0.929 0.065 1.281 0.198 0.354 0.13 0.642 0.309 0.866 0.533 0.227 0.225 0.394 0.489 0.503 0.792 0.108 0.304 0.163 0.632 0.163 0.991 0 0.303-0.038 0.603-0.116 0.899-0.076 0.298-0.22 0.566-0.433 0.802-0.211 0.239-0.501 0.43-0.866 0.574-0.368 0.145-0.832 0.218-1.398 0.218h-3.083z"/></defs><g id="Komponenter" fill="none" fill-rule="evenodd"><g id="Komponenter-/-Knapper" transform="translate(-24,-32)"><g id="Logo" transform="translate(24,32)"><g id="Entur"><polygon points="10.422 14.49 10.422 12.036 2.7071 12.036 2.7071 8.533 9.5521 8.533 9.5521 6.079 2.7071 6.079 2.7071 2.455 10.422 2.455 10.422 0 1e-4 0 1e-4 14.49" fill="#ffffff"/><polygon points="13.495 0 13.205 0 13.205 14.49 15.912 14.49 15.912 5.881 25.212 14.49 25.502 14.49 25.502 0 22.794 0 22.794 8.77" fill="#ffffff"/><polygon points="25.501 17.824 0 17.824 0 20.052 25.501 20.052" fill="#ff5959"/><g fill="#ffffff"><polygon points="32.607 8.5318 32.607 20.567 35.313 20.567 35.313 8.5318 39.354 8.5318 39.354 6.0768 28.546 6.0768 28.546 8.5318"/><mask><use width="100%" height="100%" xlink:href="#path-1"/></mask><use width="100%" height="100%" xlink:href="#path-1"/><mask><use width="100%" height="100%" xlink:href="#path-3"/></mask><use width="100%" height="100%" xlink:href="#path-3"/></g></g></g></g></g></svg>
