<svg width="320" height="320" viewBox="0 0 320 320" fill="none" xmlns="http://www.w3.org/2000/svg">
<path d="M158.829 295.501C160.11 296.048 159.83 295.908 161.432 296.469C162.195 296.736 163.084 297.017 164.078 297.311C164.918 297.564 165.792 297.887 166.737 298.119C167.619 298.329 168.55 298.413 169.481 298.582C170.411 298.75 171.272 299.206 172.196 299.291C173.12 299.375 174.086 299.389 174.995 299.368C175.954 299.347 176.843 298.94 177.725 298.764C178.67 298.575 179.67 298.596 180.461 298.189C180.839 297.992 181.147 298.147 181.084 298.568C180.923 299.649 181.147 299.684 180.979 300.771C180.811 301.859 180.692 301.838 180.531 302.919C180.363 304.056 180.258 305.263 180.643 306.344C181.035 307.432 181.133 307.39 181.518 308.478C181.903 309.565 181.875 309.58 182.26 310.66C182.645 311.741 182.26 312.029 183.219 312.675C184.177 313.32 184.331 312.913 185.528 312.899C186.725 312.885 186.725 312.597 187.922 312.583C189.118 312.569 189.118 312.808 190.315 312.794C190.504 312.794 190.532 312.548 190.406 312.408C189.097 311.018 188.789 311.229 187.831 309.58C187.236 308.562 187.677 308.393 187.495 307.228C187.313 306.063 187.348 306.056 187.166 304.891C187.054 304.21 187.131 303.551 187.383 302.94C187.635 302.33 187.957 301.677 188.51 301.27C189.762 300.364 189.713 300.287 191.001 299.438C191.785 298.919 191.953 299.199 192.779 298.743C193.583 298.301 194.199 297.585 194.878 296.982C195.557 296.378 196.208 295.746 196.74 295.002C197.272 294.258 197.797 293.507 198.153 292.658C198.664 291.444 198.461 291.36 198.972 290.153C199.483 288.946 199.56 288.974 200.071 287.759C200.582 286.545 200.505 286.51 201.016 285.296C201.527 284.082 201.8 284.194 202.311 282.987C202.821 281.78 202.688 281.717 203.199 280.502C203.71 279.288 203.22 278.909 204.291 278.144C205.026 277.618 205.089 278.46 205.978 278.664C207.168 278.937 207.091 278.678 208.308 277.962C208.875 277.625 209.561 277.183 210.072 276.319C210.422 275.73 210.8 274.986 211.038 274.053C211.213 273.358 211.185 272.53 211.262 271.61C211.325 270.873 211.437 270.143 211.43 269.245C212.682 268.726 212.339 269.708 213.865 270.312C214.6 270.599 215.503 270.817 216.462 271.105C217.28 271.35 218.12 271.8 219.044 271.982C219.912 272.151 220.857 271.947 221.773 272.01C222.69 272.073 223.572 272.249 224.475 272.151C225.833 272.01 227.071 271.722 228.205 271.519C229.402 271.308 230.291 270.529 230.473 269.519C230.655 268.508 230.074 267.511 229.031 266.887C228.163 266.367 227.386 265.631 226.525 265.069C225.623 264.48 224.685 263.981 223.929 263.399C222.956 262.648 222.263 261.827 221.787 261.195C221.319 260.577 220.759 259.868 220.206 259.047C219.737 258.345 219.331 257.524 218.785 256.78C218.239 256.036 217.623 255.433 217.021 254.766C216.42 254.099 215.79 253.454 215.104 252.913C214.418 252.373 213.62 251.896 212.801 251.573C211.983 251.25 211.115 251.166 210.191 251.166C209.169 251.166 208.252 251.278 207.391 251.39C206.405 251.524 205.495 251.622 204.662 252.008C203.829 252.394 203.108 252.934 202.388 253.65C201.786 254.247 201.268 255.005 200.701 255.896C200.246 256.612 199.56 257.307 199.112 258.247C198.734 259.026 198.426 259.925 198.041 260.879C197.72 261.679 197.587 262.563 197.202 263.314C196.817 264.065 196.082 264.655 195.634 265.364C195.186 266.073 194.766 266.838 194.241 267.497C193.716 268.157 193.22 268.88 192.625 269.484C192.03 270.087 191.281 270.536 190.616 271.063C189.951 271.589 189.447 272.382 188.726 272.824C188.006 273.266 187.166 273.547 186.382 273.891C185.598 274.235 184.744 274.326 183.912 274.551C183.079 274.775 182.316 275.204 181.455 275.309C180.594 275.414 179.761 275.4 178.887 275.393C178.012 275.386 177.109 275.232 176.108 275.225C175.226 275.211 174.296 275.372 173.33 275.358C172.427 275.344 171.503 275.168 170.551 275.154C169.6 275.14 168.704 275.253 167.773 275.239C166.842 275.225 165.911 275.175 164.995 275.168C164.078 275.161 163.126 275.091 162.216 275.084C161.257 275.07 160.327 274.944 159.438 274.93C158.451 274.916 157.52 275.063 156.652 275.056C155.61 275.042 154.672 275.063 153.874 275.056C152.152 275.035 152.439 275.379 151.117 274.965C149.794 274.551 150.312 274.333 149.017 273.288C148.408 272.796 147.624 272.312 146.875 271.631C146.253 271.063 145.707 270.319 145.042 269.638C144.433 269.013 143.761 268.403 143.166 267.694C142.571 266.985 141.844 266.438 141.319 265.694C140.794 264.95 140.479 264.079 140.038 263.286C139.597 262.493 139.044 261.742 138.715 260.907C138.386 260.072 138.295 259.124 138.12 258.247C137.798 257.201 137.609 257.258 137.246 256.226C137.001 255.524 135.888 255.636 135.846 256.38C135.797 257.215 135.909 258.177 135.923 259.188C135.937 260.093 135.909 261.055 136.014 261.995C136.119 262.935 136.532 263.813 136.777 264.69C137.036 265.631 137.309 266.515 137.77 267.266C138.183 267.933 138.54 268.754 139.044 269.554C139.492 270.263 139.982 270.993 140.465 271.743C140.948 272.494 141.445 273.196 141.914 273.926C142.382 274.656 143.005 275.351 143.453 276.046C143.978 276.853 144.419 277.632 144.832 278.271C145.693 279.597 146.365 279.218 146.344 280.523C146.323 281.829 145.49 281.303 144.888 282.664C144.594 283.331 144.482 284.187 144.244 285.078C144.048 285.836 143.628 286.622 143.565 287.5C143.509 288.293 143.824 289.121 143.943 289.984C144.048 290.77 144.048 291.563 144.349 292.385C143.803 293.332 143.628 293.185 142.816 293.915C142.005 294.644 141.963 294.595 141.151 295.332C140.22 296.181 139.765 297.459 139.933 298.708C140.108 300.028 140.045 300.035 140.22 301.354C140.395 302.673 140.465 302.666 140.633 303.986C140.801 305.305 140.969 305.284 141.144 306.604C141.319 307.923 141.207 307.937 141.382 309.264C141.445 309.755 141.641 310.211 142.011 310.548C142.879 311.334 142.585 311.867 143.677 312.296C144.769 312.724 144.86 311.994 145.98 311.994C147.099 311.994 147.099 312.022 148.219 312.022C148.527 312.022 148.702 311.72 148.464 311.517C147.386 310.232 147.47 310.162 146.386 308.885C145.973 308.534 145.609 308.085 145.56 307.537C145.427 306.07 145.308 306.084 145.168 304.618C145.028 303.151 145.14 303.144 145.007 301.677C144.916 300.729 145.504 299.943 146.309 299.445C147.253 298.827 147.106 298.603 148.044 297.978C148.982 297.354 148.989 297.354 149.927 296.722" fill="white"/>
<path d="M158.829 295.501C160.11 296.048 159.83 295.908 161.432 296.469C162.195 296.736 163.084 297.017 164.078 297.311C164.918 297.564 165.792 297.887 166.737 298.119C167.619 298.329 168.55 298.413 169.481 298.582C170.411 298.75 171.272 299.206 172.196 299.291C173.12 299.375 174.086 299.389 174.995 299.368C175.954 299.347 176.843 298.94 177.725 298.764C178.67 298.575 179.67 298.596 180.461 298.189C180.839 297.992 181.147 298.147 181.084 298.568C180.923 299.649 181.147 299.684 180.979 300.771C180.811 301.859 180.692 301.838 180.531 302.919C180.363 304.056 180.258 305.263 180.643 306.344C181.035 307.432 181.133 307.39 181.518 308.478C181.903 309.565 181.875 309.58 182.26 310.66C182.645 311.741 182.26 312.029 183.219 312.675C184.177 313.32 184.331 312.913 185.528 312.899C186.725 312.885 186.725 312.597 187.922 312.583C189.118 312.569 189.118 312.808 190.315 312.794C190.504 312.794 190.532 312.548 190.406 312.408C189.097 311.018 188.789 311.229 187.831 309.58C187.236 308.562 187.677 308.393 187.495 307.228C187.313 306.063 187.348 306.056 187.166 304.891C187.054 304.21 187.131 303.551 187.383 302.94C187.635 302.33 187.957 301.677 188.51 301.27C189.762 300.364 189.713 300.287 191.001 299.438C191.785 298.919 191.953 299.199 192.779 298.743C193.583 298.301 194.199 297.585 194.878 296.982C195.557 296.378 196.208 295.746 196.74 295.002C197.272 294.258 197.797 293.507 198.153 292.658C198.664 291.444 198.461 291.36 198.972 290.153C199.483 288.946 199.56 288.974 200.071 287.759C200.582 286.545 200.505 286.51 201.016 285.296C201.527 284.082 201.8 284.194 202.311 282.987C202.821 281.78 202.688 281.717 203.199 280.502C203.71 279.288 203.22 278.909 204.291 278.144C205.026 277.618 205.089 278.46 205.978 278.664C207.168 278.937 207.091 278.678 208.308 277.962C208.875 277.625 209.561 277.183 210.072 276.319C210.422 275.73 210.8 274.986 211.038 274.053C211.213 273.358 211.185 272.53 211.262 271.61C211.325 270.873 211.437 270.143 211.43 269.245C212.682 268.726 212.339 269.708 213.865 270.312C214.6 270.599 215.503 270.817 216.462 271.105C217.28 271.35 218.12 271.8 219.044 271.982C219.912 272.151 220.857 271.947 221.773 272.01C222.69 272.073 223.572 272.249 224.475 272.151C225.833 272.01 227.071 271.722 228.205 271.519C229.402 271.308 230.291 270.529 230.473 269.519C230.655 268.508 230.074 267.511 229.031 266.887C228.163 266.367 227.386 265.631 226.525 265.069C225.623 264.48 224.685 263.981 223.929 263.399C222.956 262.648 222.263 261.827 221.787 261.195C221.319 260.577 220.759 259.868 220.206 259.047C219.737 258.345 219.331 257.524 218.785 256.78C218.239 256.036 217.623 255.433 217.021 254.766C216.42 254.099 215.79 253.454 215.104 252.913C214.418 252.373 213.62 251.896 212.801 251.573C211.983 251.25 211.115 251.166 210.191 251.166C209.169 251.166 208.252 251.278 207.391 251.39C206.405 251.524 205.495 251.622 204.662 252.008C203.829 252.394 203.108 252.934 202.388 253.65C201.786 254.247 201.268 255.005 200.701 255.896C200.246 256.612 199.56 257.307 199.112 258.247C198.734 259.026 198.426 259.925 198.041 260.879C197.72 261.679 197.587 262.563 197.202 263.314C196.817 264.065 196.082 264.655 195.634 265.364C195.186 266.073 194.766 266.838 194.241 267.497C193.716 268.157 193.22 268.88 192.625 269.484C192.03 270.087 191.281 270.536 190.616 271.063C189.951 271.589 189.447 272.382 188.726 272.824C188.006 273.266 187.166 273.547 186.382 273.891C185.598 274.235 184.744 274.326 183.912 274.551C183.079 274.775 182.316 275.204 181.455 275.309C180.594 275.414 179.761 275.4 178.887 275.393C178.012 275.386 177.109 275.232 176.108 275.225C175.226 275.211 174.296 275.372 173.33 275.358C172.427 275.344 171.503 275.168 170.551 275.154C169.6 275.14 168.704 275.253 167.773 275.239C166.842 275.225 165.911 275.175 164.995 275.168C164.078 275.161 163.126 275.091 162.216 275.084C161.257 275.07 160.327 274.944 159.438 274.93C158.451 274.916 157.52 275.063 156.652 275.056C155.61 275.042 154.672 275.063 153.874 275.056C152.152 275.035 152.439 275.379 151.117 274.965C149.794 274.551 150.312 274.333 149.017 273.288C148.408 272.796 147.624 272.312 146.875 271.631C146.253 271.063 145.707 270.319 145.042 269.638C144.433 269.013 143.761 268.403 143.166 267.694C142.571 266.985 141.844 266.438 141.319 265.694C140.794 264.95 140.479 264.079 140.038 263.286C139.597 262.493 139.044 261.742 138.715 260.907C138.386 260.072 138.295 259.124 138.12 258.247C137.798 257.201 137.609 257.258 137.246 256.226C137.001 255.524 135.888 255.636 135.846 256.38C135.797 257.215 135.909 258.177 135.923 259.188C135.937 260.093 135.909 261.055 136.014 261.995C136.119 262.935 136.532 263.813 136.777 264.69C137.036 265.631 137.309 266.515 137.77 267.266C138.183 267.933 138.54 268.754 139.044 269.554C139.492 270.263 139.982 270.993 140.465 271.743C140.948 272.494 141.445 273.196 141.914 273.926C142.382 274.656 143.005 275.351 143.453 276.046C143.978 276.853 144.419 277.632 144.832 278.271C145.693 279.597 146.365 279.218 146.344 280.523C146.323 281.829 145.49 281.303 144.888 282.664C144.594 283.331 144.482 284.187 144.244 285.078C144.048 285.836 143.628 286.622 143.565 287.5C143.509 288.293 143.824 289.121 143.943 289.984C144.048 290.77 144.048 291.563 144.349 292.385C143.803 293.332 143.628 293.185 142.816 293.915C142.005 294.644 141.963 294.595 141.151 295.332C140.22 296.181 139.765 297.459 139.933 298.708C140.108 300.028 140.045 300.035 140.22 301.354C140.395 302.673 140.465 302.666 140.633 303.986C140.801 305.305 140.969 305.284 141.144 306.604C141.319 307.923 141.207 307.937 141.382 309.264C141.445 309.755 141.641 310.211 142.011 310.548C142.879 311.334 142.585 311.867 143.677 312.296C144.769 312.724 144.86 311.994 145.98 311.994C147.099 311.994 147.099 312.022 148.219 312.022C148.527 312.022 148.702 311.72 148.464 311.517C147.386 310.232 147.47 310.162 146.386 308.885C145.973 308.534 145.609 308.085 145.56 307.537C145.427 306.07 145.308 306.084 145.168 304.618C145.028 303.151 145.14 303.144 145.007 301.677C144.916 300.729 145.504 299.943 146.309 299.445C147.253 298.827 147.106 298.603 148.044 297.978C148.982 297.354 148.989 297.354 149.927 296.722" stroke="#181C56" stroke-width="1.5" stroke-miterlimit="10"/>
<path d="M149.975 296.778C150.388 296.561 150.878 296.855 150.878 297.326V304.47L155.455 312.12H160.305C160.599 312.12 160.746 311.762 160.543 311.552L157.701 308.625L155.651 301.038L158.793 295.599" fill="#181C56"/>
<path d="M149.975 296.778C150.388 296.561 150.878 296.855 150.878 297.326V304.47L155.455 312.12H160.305C160.599 312.12 160.746 311.762 160.543 311.552L157.701 308.625L155.651 301.038L158.793 295.599" stroke="#181C56" stroke-width="1.5486" stroke-miterlimit="10"/>
<path d="M195.248 297.255L196.088 305.789C196.186 306.751 196.585 307.656 197.228 308.365L200.294 311.748C200.42 311.888 200.322 312.113 200.133 312.113H195.353L192.504 308.47C192.281 308.19 192.106 307.867 191.987 307.53L189.579 300.638" fill="#181C56"/>
<path d="M195.248 297.255L196.088 305.789C196.186 306.751 196.585 307.656 197.228 308.365L200.294 311.748C200.42 311.888 200.322 312.113 200.133 312.113H195.353L192.504 308.47C192.281 308.19 192.106 307.867 191.987 307.53L189.579 300.638" stroke="#181C56" stroke-width="1.5486" stroke-miterlimit="10"/>
<path d="M210.22 256.879C210.339 258.107 210.297 258.114 210.416 259.335C210.535 260.556 210.577 260.556 210.696 261.784C210.815 263.013 210.822 263.013 210.941 264.241C211.06 265.469 211.039 265.476 211.158 266.704C211.276 267.932 211.276 267.932 211.395 269.168" stroke="#181C56" stroke-miterlimit="10" stroke-linecap="round"/>
<path d="M204.248 278.06C202.939 277.983 203.233 277.99 202.47 276.341C202.19 275.737 201.868 274.951 201.749 273.842C201.665 273.105 201.665 272.242 201.707 271.224C201.735 270.445 201.868 269.589 201.994 268.627C202.099 267.834 202.106 266.95 202.288 266.017C202.442 265.216 202.673 264.374 202.89 263.462C203.079 262.662 203.247 261.798 203.485 260.907C203.702 260.107 203.961 259.265 204.227 258.388" stroke="#181C56" stroke-miterlimit="10" stroke-linecap="round"/>
<path d="M148.644 296.617L159.373 289.675C159.8 289.402 160.248 290.033 159.828 290.342L149.519 297.894C148.665 298.497 147.769 297.206 148.644 296.617Z" fill="#181C56"/>
<path d="M166.072 298.006C166.072 298.006 156.029 294.68 154.23 293.711L166.072 298.006Z" fill="#181C56"/>
<path d="M166.072 298.006C166.072 298.006 156.029 294.68 154.23 293.711" stroke="#181C56" stroke-width="1.5486" stroke-miterlimit="10"/>
<path d="M158.787 295.599L154.672 293.634L150.347 296.785" fill="#181C56"/>
<path d="M158.787 295.599L154.672 293.634L150.347 296.785" stroke="#181C56" stroke-width="1.5486" stroke-miterlimit="10"/>
<path d="M216.154 260.711C216.792 260.711 217.309 260.192 217.309 259.553C217.309 258.913 216.792 258.395 216.154 258.395C215.516 258.395 214.999 258.913 214.999 259.553C214.999 260.192 215.516 260.711 216.154 260.711Z" fill="#181C56"/>
<path d="M227.832 265.981C227.832 265.981 226.852 266.606 227.244 267.666C227.636 268.726 230.05 270.277 230.05 270.277C230.05 270.277 231.646 269.736 230.372 268.248C229.099 266.76 227.839 265.988 227.839 265.988L227.832 265.981Z" fill="#181C56"/>
<path fill-rule="evenodd" clip-rule="evenodd" d="M190.966 270.791C190.836 270.027 190.113 269.514 189.351 269.644C188.589 269.775 188.077 270.5 188.207 271.264L189.586 271.028C188.207 271.264 188.207 271.264 188.207 271.264L188.207 271.266L188.208 271.269L188.209 271.276L188.213 271.297C188.216 271.315 188.22 271.338 188.226 271.368C188.237 271.427 188.254 271.511 188.276 271.616C188.322 271.827 188.391 272.125 188.49 272.494C188.687 273.23 189.005 274.252 189.489 275.415C190.452 277.73 192.105 280.675 194.852 283.018C197.413 285.201 199.027 286.201 200.082 286.633C200.615 286.852 201.08 286.957 201.498 286.947C201.712 286.942 201.918 286.906 202.111 286.836C202.207 286.801 202.296 286.759 202.378 286.71C202.419 286.686 202.457 286.661 202.494 286.635C202.512 286.622 202.529 286.609 202.546 286.595C202.555 286.588 202.563 286.582 202.571 286.575L202.583 286.565L202.589 286.56C202.592 286.557 202.595 286.555 201.68 285.493L202.595 286.555C203.18 286.048 203.244 285.162 202.739 284.575C202.392 284.173 201.867 284.016 201.383 284.121C201.33 284.105 201.25 284.079 201.141 284.035C200.497 283.771 199.151 282.998 196.666 280.879C194.368 278.919 192.934 276.404 192.072 274.334C191.644 273.305 191.364 272.404 191.193 271.764C191.107 271.445 191.049 271.193 191.013 271.025C190.995 270.941 190.983 270.878 190.975 270.838L190.967 270.797L190.966 270.789C190.966 270.789 190.966 270.789 190.966 270.789M190.966 270.789L190.966 270.791L190.966 270.789Z" fill="#FFBF9E"/>
<path d="M126.712 296.525C126.712 296.525 129.792 302.14 136.181 302.645C142.571 303.144 154.321 304.73 156.148 312.969L109.832 311.973C109.832 311.973 111.078 302.982 112.407 300.238C113.737 297.494 113.653 295.157 113.653 295.157" fill="#181C56"/>
<path d="M126.712 296.525C126.712 296.525 129.792 302.14 136.181 302.645C142.571 303.144 154.321 304.73 156.148 312.969L109.832 311.973C109.832 311.973 111.078 302.982 112.407 300.238C113.737 297.494 113.653 295.157 113.653 295.157" stroke="#181C56" stroke-width="0.623643" stroke-miterlimit="10" stroke-linecap="round"/>
<path d="M118.867 299.326C118.867 299.326 120.476 302.154 126.866 302.652C133.256 303.151 143.634 304.737 145.461 312.976L99.145 311.98C99.145 311.98 100.391 302.989 101.72 300.245C103.05 297.501 102.154 299.234 102.154 299.234" fill="white"/>
<path d="M118.867 299.326C118.867 299.326 120.476 302.154 126.866 302.652C133.256 303.151 143.634 304.737 145.461 312.976L99.145 311.98C99.145 311.98 100.391 302.989 101.72 300.245C103.05 297.501 102.154 299.234 102.154 299.234" stroke="#181C56" stroke-width="1.5" stroke-miterlimit="10" stroke-linecap="round"/>
<path d="M135.046 169.17L130.868 242.463L127.698 298.133H119.544" fill="#181C56"/>
<path d="M135.046 169.17L130.868 242.463L127.698 298.133H119.544" stroke="#181C56" stroke-width="0.623643" stroke-miterlimit="10" stroke-linecap="round"/>
<path d="M102.428 295.318C102.911 295.311 102.911 295.304 103.401 295.297C103.891 295.29 103.884 295.297 104.374 295.297C104.864 295.297 104.857 295.297 105.347 295.283C105.836 295.269 105.829 295.262 106.319 295.248C106.809 295.234 106.802 295.248 107.292 295.234C107.782 295.22 107.775 295.227 108.265 295.22C108.755 295.213 108.748 295.192 109.231 295.178C109.714 295.164 109.714 295.171 110.204 295.157C110.693 295.143 110.693 295.157 111.176 295.157C111.659 295.157 111.659 295.143 112.149 295.136C112.639 295.129 112.632 295.122 113.122 295.115C113.612 295.108 113.612 295.115 114.095 295.108C114.578 295.101 114.578 295.108 115.068 295.101C115.557 295.094 115.557 295.08 116.04 295.073C116.523 295.066 116.53 295.073 117.02 295.073C117.51 295.073 117.51 295.059 117.993 295.052" fill="white"/>
<path d="M102.428 295.262C107.6 294.981 112.807 294.848 117.986 294.946C118.084 294.946 118.091 295.1 117.986 295.107C117.342 295.149 116.684 295.177 116.04 295.206C112.8 295.339 109.56 295.395 106.319 295.416C105.025 295.465 103.723 295.381 102.428 295.374C102.365 295.374 102.351 295.269 102.428 295.262Z" fill="#181C56"/>
<path d="M138.393 164.994C137.903 165.008 137.903 165.044 137.413 165.051C136.923 165.058 136.923 165.1 136.426 165.107C135.929 165.114 135.936 165.1 135.439 165.107C134.942 165.114 134.949 165.065 134.453 165.072C133.956 165.079 133.963 165.072 133.466 165.086C132.969 165.1 132.976 165.086 132.479 165.093C131.982 165.1 131.989 165.219 131.499 165.226C131.009 165.233 131.002 165.058 130.512 165.065C130.023 165.072 130.023 165.219 129.533 165.226C129.043 165.233 129.043 165.268 128.546 165.275C128.049 165.282 128.049 165.079 127.559 165.086C127.069 165.093 127.069 165.128 126.579 165.135C126.089 165.142 126.089 165.282 125.592 165.289C125.096 165.296 125.103 165.303 124.606 165.31C124.109 165.317 124.109 165.156 123.619 165.163C123.129 165.17 123.129 165.205 122.632 165.212C122.135 165.219 122.142 165.317 121.645 165.324C121.148 165.331 121.148 165.345 120.659 165.352C120.169 165.359 120.162 165.226 119.665 165.233C119.168 165.24 119.161 165.226 118.671 165.303C118.286 165.366 118.3 165.43 117.936 165.563C117.572 165.696 117.446 165.528 117.152 165.78C117.432 165.907 117.831 166.11 118.09 166.377C118.314 166.602 118.349 167.016 118.552 167.31C118.734 167.584 119.021 167.802 119.189 168.111C119.357 168.419 119.42 168.749 119.567 169.058C119.714 169.367 119.987 169.626 120.113 169.935C120.246 170.265 120.246 170.637 120.358 170.939C120.484 171.29 120.722 171.578 120.806 171.858C120.994 172.448 121.141 172.343 121.141 172.848C121.043 173.129 120.764 173.416 120.547 173.697C120.358 173.936 120.064 174.104 119.812 174.343C119.581 174.553 119.378 174.813 119.105 175.024C118.853 175.22 118.664 175.515 118.384 175.704C118.104 175.894 117.747 175.922 117.467 176.09C117.187 176.259 116.921 176.455 116.641 176.617C116.361 176.778 116.047 176.905 115.76 177.052C115.459 177.213 115.158 177.34 114.878 177.48C114.57 177.634 114.346 177.943 114.073 178.07C113.737 178.224 113.387 178.252 113.128 178.364C112.575 178.61 112.736 178.835 112.246 178.828C111.98 178.673 111.791 178.364 111.567 178.084C111.372 177.845 111.064 177.648 110.896 177.333C110.749 177.052 110.609 176.736 110.483 176.42C110.364 176.118 110.203 175.81 110.105 175.487C110.007 175.164 110.147 174.785 110.07 174.455C109.993 174.125 109.895 173.809 109.832 173.487C109.769 173.164 109.503 172.855 109.447 172.539C109.384 172.195 109.328 171.858 109.286 171.55C109.23 171.178 109.195 170.841 109.167 170.553C109.097 169.942 109.664 169.641 109.167 169.634C108.782 169.634 108.824 169.725 108.488 169.914C108.152 170.104 108.187 170.413 107.823 170.286C107.368 170.125 107.515 169.928 107.242 169.528C106.969 169.128 107.067 169.065 106.802 168.665C106.536 168.265 106.473 168.307 106.207 167.907C105.941 167.507 105.906 167.528 105.64 167.128C105.374 166.728 105.465 166.665 105.192 166.265C104.919 165.865 104.975 165.801 104.548 165.584C104.121 165.366 104.086 165.458 103.596 165.465C103.106 165.472 103.099 165.633 102.609 165.64C102.12 165.647 102.113 165.598 101.623 165.605C101.133 165.612 101.126 165.605 100.636 165.605C100.146 165.605 100.139 165.472 99.642 165.479C99.1452 165.486 99.1451 165.514 98.6483 165.521C98.1514 165.528 98.1514 165.633 97.6545 165.64C97.1576 165.647 97.1576 165.563 96.6607 165.57C96.1638 165.577 96.1638 165.675 95.6669 165.682C95.17 165.689 95.17 165.507 94.6731 165.514C94.1762 165.521 94.1762 165.703 93.6793 165.71C93.1824 165.717 93.1824 165.71 92.6855 165.71C92.6855 165.71 92.5806 165.661 92.5806 165.668C92.5456 166.209 92.5386 166.209 92.5176 166.756C92.4966 167.303 92.6295 167.31 92.6015 167.851C92.5736 168.391 92.5176 168.391 92.4546 168.932C92.3986 169.409 92.3986 169.409 92.3146 169.879C92.2306 170.349 92.1956 170.349 92.1047 170.82C92.0137 171.29 92.0907 171.304 91.9997 171.774C91.9087 172.244 91.8177 172.23 91.7267 172.701C91.6358 173.171 91.6637 173.178 91.5728 173.655C91.4818 174.132 91.6078 174.153 91.5238 174.624C91.4398 175.094 91.2928 175.073 91.2018 175.543C91.1109 176.013 91.2788 176.048 91.1879 176.519C91.0969 176.989 91.1039 176.989 91.0129 177.466C90.9219 177.943 90.8309 177.922 90.7399 178.399C90.649 178.877 90.656 178.877 90.572 179.354C90.488 179.831 90.572 179.845 90.481 180.322C90.439 180.631 90.2291 180.933 90.2081 181.284C90.1871 181.6 90.2081 181.93 90.2081 182.274C90.2081 182.589 90.1941 182.926 90.2081 183.263C90.2221 183.579 90.2431 183.916 90.271 184.253C90.292 184.576 90.334 184.905 90.362 185.235C90.39 185.565 90.418 185.888 90.453 186.225C90.488 186.562 90.495 186.878 90.537 187.215C90.579 187.551 90.649 187.86 90.698 188.19C90.7469 188.52 90.9219 188.822 90.9709 189.152C91.0199 189.481 91.1179 189.79 91.1739 190.12C91.2298 190.45 91.0969 190.801 91.1529 191.131C91.2088 191.461 91.4678 191.741 91.5238 192.071C91.5798 192.401 91.5868 192.724 91.6498 193.054C91.7127 193.384 91.8597 193.678 91.9227 194.008C91.9857 194.338 91.8597 194.689 91.9227 195.019C91.9857 195.349 92.2026 195.63 92.2726 195.959C92.3426 196.289 92.2446 196.64 92.3146 196.963C92.3846 197.286 92.6435 197.567 92.7135 197.889C92.7835 198.212 92.6855 198.57 92.7555 198.893C92.8255 199.216 92.8535 199.553 92.9235 199.876C92.9935 200.198 93.1964 200.493 93.2664 200.816C93.3364 201.139 93.3784 201.469 93.4554 201.792C93.5323 202.115 93.6023 202.437 93.6723 202.76C93.7423 203.083 93.9383 203.378 94.0152 203.701C94.0922 204.024 94.0712 204.367 94.1412 204.69C94.2112 205.013 94.2462 205.35 94.3162 205.666C94.3862 205.982 94.4142 206.326 94.4841 206.641C94.5541 206.957 94.7851 207.259 94.8551 207.575C94.9251 207.891 94.988 208.228 95.058 208.543C95.128 208.859 95.086 209.217 95.149 209.54C95.212 209.863 95.317 210.186 95.387 210.501C95.4569 210.817 95.6389 211.133 95.6949 211.449C95.7509 211.765 95.5759 212.158 95.6319 212.474C95.6949 212.811 95.8419 213.112 95.8978 213.428C95.9538 213.765 96.0168 214.088 96.0658 214.404C96.1218 214.748 96.2758 215.056 96.3108 215.365C96.3527 215.709 96.2968 216.053 96.3247 216.355C96.3457 216.853 96.4787 216.846 96.4997 217.344C96.5207 217.843 96.4227 217.843 96.4367 218.341C96.4507 218.839 96.3317 218.846 96.3457 219.345C96.3597 219.843 96.4787 219.836 96.4997 220.334C96.5207 220.832 96.5697 220.832 96.5907 221.331C96.6117 221.829 96.4507 221.836 96.4717 222.334C96.4927 222.833 96.6887 222.826 96.7027 223.324C96.7167 223.822 96.5697 223.829 96.5837 224.328C96.5977 224.826 96.6467 224.826 96.6607 225.324C96.6747 225.823 96.5697 225.83 96.5837 226.328C96.5977 226.826 96.6327 226.826 96.6537 227.324C96.6747 227.823 96.7517 227.823 96.7727 228.321C96.7936 228.819 96.8566 228.819 96.8776 229.318C96.8986 229.816 96.7097 229.823 96.7237 230.321C96.7377 230.82 96.7237 230.82 96.7377 231.318C96.7517 231.816 97.0036 231.809 97.0176 232.308C97.0316 232.806 96.9896 232.806 97.0106 233.304C97.0316 233.802 96.9406 233.809 96.9546 234.308C96.9686 234.806 97.0386 234.806 97.0596 235.304C97.0806 235.803 97.0106 235.803 97.0246 236.301C97.0386 236.799 96.9266 236.806 96.9406 237.305C96.9546 237.803 97.0316 237.803 97.0526 238.301C97.0736 238.8 97.1366 238.8 97.1576 239.298C97.1786 239.796 97.1926 239.796 97.2136 240.294C97.2346 240.793 97.1716 240.793 97.1856 241.298C97.1996 241.803 97.2975 241.796 97.3115 242.295C97.3255 242.793 97.2416 242.8 97.2626 243.298C97.2835 243.797 97.2626 243.797 97.2835 244.295C97.3045 244.793 97.3395 244.793 97.3535 245.291C97.3675 245.79 97.3955 245.79 97.4165 246.288C97.4375 246.786 97.3675 246.786 97.3815 247.292C97.3955 247.797 97.5425 247.783 97.5635 248.281C97.5845 248.78 97.4795 248.787 97.5005 249.285C97.5215 249.783 97.3745 249.79 97.3955 250.289C97.4165 250.787 97.4655 250.787 97.4795 251.285C97.4935 251.783 97.5425 251.783 97.5565 252.282C97.5705 252.78 97.6615 252.78 97.6755 253.278C97.6895 253.777 97.6825 253.777 97.7035 254.275C97.7245 254.773 97.7874 254.773 97.8014 255.272C97.8154 255.77 97.6405 255.777 97.6615 256.275C97.6825 256.774 97.8294 256.767 97.8434 257.272C97.8574 257.777 97.6965 257.777 97.7105 258.275C97.7245 258.774 97.8854 258.767 97.9064 259.272C97.9274 259.777 97.7175 259.777 97.7385 260.276C97.7594 260.774 97.8924 260.774 97.9064 261.272C97.9204 261.771 97.7874 261.778 97.8014 262.276C97.8154 262.774 97.8434 262.774 97.8574 263.273C97.8714 263.771 97.8994 263.771 97.9134 264.269C97.9274 264.767 98.1444 264.76 98.1584 265.259C98.1724 265.757 98.0324 265.764 98.0534 266.262C98.0744 266.761 98.0954 266.761 98.1164 267.259C98.1374 267.757 98.0044 267.764 98.0254 268.263C98.0464 268.761 98.1654 268.761 98.1864 269.259C98.2073 269.757 98.1864 269.758 98.2003 270.263C98.2143 270.768 98.3053 270.761 98.3263 271.259C98.3473 271.758 98.2773 271.758 98.2913 272.263C98.3053 272.768 98.2073 272.768 98.2283 273.267C98.2493 273.765 98.3473 273.765 98.3613 274.263C98.3753 274.762 98.4453 274.762 98.4593 275.26C98.4733 275.758 98.3123 275.765 98.3333 276.264C98.3543 276.762 98.3963 276.762 98.4173 277.26C98.4383 277.758 98.4733 277.758 98.4943 278.257C98.5153 278.755 98.6133 278.755 98.6343 279.253C98.6553 279.752 98.6203 279.752 98.6343 280.257C98.6483 280.762 98.6552 280.755 98.6692 281.261C98.6832 281.766 98.5573 281.766 98.5783 282.264C98.5993 282.763 98.6832 282.763 98.7042 283.261C98.7252 283.759 98.7952 283.759 98.8092 284.257C98.8232 284.756 98.8442 284.756 98.8652 285.261C98.8862 285.766 98.8652 285.759 98.8862 286.265C98.9072 286.77 98.6832 286.77 98.7042 287.275C98.7252 287.781 98.8162 287.774 98.8372 288.272C98.8582 288.77 98.7392 288.777 98.7532 289.276C98.7672 289.774 98.8442 289.774 98.8652 290.272C98.8862 290.77 98.9842 290.77 98.9982 291.269C99.0122 291.767 99.0262 291.767 99.0402 292.272C99.0542 292.778 99.0122 292.778 99.0332 293.276C99.0542 293.774 99.0192 293.781 99.0332 294.28C99.0472 294.778 99.0192 294.785 99.0332 295.283C99.0472 295.782 99.2081 295.782 99.2221 296.28C99.2361 296.778 99.0122 296.792 99.0262 297.291C99.0402 297.789 99.1801 297.789 99.2011 298.294C99.2221 298.8 98.9142 298.877 99.0962 299.347C99.2781 299.817 99.5791 299.438 100.216 299.473C100.496 299.487 100.846 299.298 101.231 299.319C101.539 299.333 101.868 299.431 102.224 299.445C102.539 299.459 102.875 299.473 103.225 299.487C103.547 299.501 103.883 299.438 104.226 299.445C104.548 299.459 104.884 299.494 105.227 299.501C105.556 299.508 105.885 299.579 106.228 299.593C106.571 299.607 106.885 299.698 107.228 299.705C107.571 299.712 107.893 299.529 108.236 299.536C108.579 299.543 108.901 299.677 109.237 299.684C109.573 299.691 109.902 299.656 110.238 299.656C110.574 299.656 110.903 299.635 111.246 299.635C111.588 299.635 111.917 299.719 112.253 299.719C112.589 299.719 112.918 299.501 113.254 299.494C113.59 299.487 113.926 299.529 114.262 299.522C114.598 299.515 114.941 299.607 115.27 299.593C115.599 299.579 115.942 299.501 116.27 299.487C116.599 299.473 116.935 299.368 117.271 299.347C117.607 299.326 117.957 299.508 118.286 299.48C118.615 299.452 119.049 299.382 119.378 299.354C119.574 298.898 119.392 298.821 119.448 298.329C119.504 297.838 119.343 297.817 119.399 297.319C119.455 296.82 119.511 296.827 119.574 296.336C119.637 295.845 119.574 295.838 119.637 295.339C119.7 294.841 119.861 294.862 119.917 294.371C119.973 293.88 119.973 293.873 120.029 293.381C120.085 292.89 119.987 292.876 120.043 292.378C120.099 291.879 120.043 291.879 120.099 291.381C120.155 290.883 120.19 290.89 120.246 290.399C120.302 289.907 120.386 289.914 120.442 289.416C120.498 288.918 120.554 288.932 120.617 288.433C120.68 287.935 120.631 287.935 120.687 287.437C120.743 286.938 120.666 286.931 120.722 286.44C120.778 285.949 120.764 285.942 120.82 285.451C120.875 284.959 121.022 284.973 121.078 284.475C121.134 283.977 120.945 283.956 121.001 283.464C121.057 282.973 121.099 282.973 121.155 282.482C121.211 281.991 121.295 281.998 121.351 281.499C121.407 281.001 121.414 281.001 121.47 280.51C121.526 280.018 121.547 280.018 121.61 279.52C121.673 279.022 121.666 279.022 121.722 278.53C121.778 278.039 121.638 278.018 121.694 277.52C121.75 277.022 121.799 277.029 121.855 276.53C121.911 276.032 121.939 276.039 122.002 275.541C122.065 275.042 122.121 275.049 122.177 274.558C122.233 274.067 122.135 274.053 122.191 273.554C122.247 273.056 122.443 273.084 122.499 272.586C122.555 272.088 122.541 272.088 122.597 271.596C122.653 271.105 122.534 271.084 122.597 270.593C122.66 270.101 122.555 270.087 122.618 269.589C122.681 269.091 122.772 269.105 122.828 268.606C122.884 268.108 122.849 268.108 122.912 267.61C122.975 267.112 123.101 267.133 123.164 266.634C123.227 266.136 123.08 266.122 123.136 265.624C123.192 265.125 123.115 265.118 123.171 264.627C123.227 264.136 123.444 264.157 123.5 263.659C123.556 263.16 123.584 263.167 123.64 262.669C123.696 262.171 123.668 262.171 123.724 261.672C123.78 261.174 123.591 261.153 123.647 260.662C123.703 260.17 123.864 260.184 123.927 259.686C123.99 259.188 123.913 259.181 123.969 258.683C124.025 258.184 124.144 258.198 124.2 257.7C124.256 257.202 124.228 257.202 124.284 256.703C124.34 256.205 124.228 256.191 124.284 255.7C124.34 255.208 124.333 255.201 124.389 254.703C124.445 254.205 124.375 254.198 124.431 253.707C124.487 253.215 124.515 253.215 124.571 252.717C124.627 252.219 124.788 252.24 124.844 251.741C124.9 251.243 124.767 251.229 124.83 250.738C124.893 250.246 125.012 250.253 125.068 249.762C125.124 249.271 125.033 249.257 125.089 248.759C125.145 248.26 125.068 248.253 125.131 247.755C125.194 247.257 125.362 247.278 125.418 246.779C125.474 246.281 125.453 246.281 125.515 245.783C125.578 245.284 125.592 245.291 125.648 244.793C125.704 244.295 125.62 244.288 125.676 243.79C125.732 243.291 125.732 243.291 125.795 242.8C125.858 242.309 125.935 242.316 125.998 241.817C126.061 241.319 125.872 241.298 125.935 240.807C125.998 240.315 126.243 240.337 126.299 239.845C126.355 239.354 126.32 239.347 126.376 238.849C126.432 238.35 126.481 238.357 126.537 237.859C126.593 237.361 126.39 237.34 126.446 236.841C126.502 236.343 126.537 236.35 126.593 235.852C126.649 235.353 126.726 235.36 126.782 234.869C126.838 234.378 126.705 234.357 126.761 233.859C126.817 233.36 126.803 233.36 126.866 232.862C126.929 232.364 126.964 232.371 127.02 231.872C127.076 231.374 127.062 231.374 127.125 230.876C127.188 230.377 127.279 230.391 127.335 229.893C127.391 229.395 127.265 229.381 127.321 228.883C127.377 228.384 127.629 228.412 127.685 227.921C127.741 227.43 127.748 227.423 127.811 226.924C127.874 226.426 127.776 226.419 127.832 225.921C127.888 225.422 127.818 225.415 127.881 224.917C127.944 224.419 127.972 224.426 128.035 223.928C128.098 223.429 128.098 223.436 128.154 222.938C128.21 222.44 128.28 222.454 128.336 221.955C128.392 221.457 128.231 221.443 128.287 220.945C128.343 220.446 128.525 220.468 128.581 219.976C128.637 219.485 128.602 219.478 128.658 218.98C128.714 218.481 128.637 218.474 128.693 217.976C128.749 217.478 128.742 217.478 128.798 216.979C128.854 216.481 129.001 216.502 129.064 216.004C129.127 215.506 128.952 215.485 129.008 214.993C129.064 214.502 128.987 214.488 129.043 213.99C129.099 213.491 129.106 213.491 129.162 213C129.218 212.509 129.421 212.53 129.477 212.031C129.533 211.533 129.547 211.533 129.603 211.035C129.659 210.537 129.687 210.544 129.75 210.045C129.813 209.547 129.624 209.526 129.68 209.028C129.736 208.529 129.897 208.55 129.953 208.052C130.009 207.554 129.89 207.54 129.946 207.041C130.002 206.543 130.072 206.55 130.128 206.052C130.183 205.554 130.142 205.546 130.197 205.048C130.253 204.55 130.351 204.564 130.414 204.066C130.477 203.567 130.414 203.56 130.47 203.062C130.526 202.564 130.498 202.564 130.554 202.065C130.61 201.567 130.554 201.56 130.617 201.062C130.68 200.563 130.666 200.563 130.722 200.065C130.778 199.567 130.736 199.56 130.792 199.062C130.848 198.563 130.995 198.577 131.051 198.079C131.107 197.581 131.051 197.574 131.114 197.082C131.177 196.591 131.1 196.577 131.156 196.079C131.212 195.58 131.198 195.58 131.254 195.082C131.31 194.584 131.338 194.591 131.394 194.093C131.45 193.594 131.506 193.601 131.562 193.103C131.618 192.605 131.772 192.619 131.835 192.12C131.898 191.622 131.709 191.601 131.772 191.103C131.835 190.604 131.779 190.597 131.842 190.099C131.905 189.601 131.891 189.601 131.947 189.095C132.003 188.59 132.241 188.625 132.297 188.12C132.325 187.86 132.234 187.509 132.311 187.116C132.367 186.822 132.388 186.485 132.465 186.127C132.535 185.825 132.577 185.488 132.661 185.151C132.738 184.842 132.955 184.555 133.046 184.218C133.123 183.909 133.305 183.607 133.389 183.277C133.473 182.961 133.361 182.589 133.445 182.26C133.529 181.93 133.76 181.663 133.851 181.34C133.942 181.017 134.061 180.716 134.152 180.393C134.243 180.07 134.285 179.74 134.376 179.417C134.467 179.094 134.397 178.736 134.488 178.413C134.579 178.091 134.705 177.789 134.803 177.466C134.9 177.143 135.18 176.883 135.271 176.561C135.362 176.238 135.355 175.887 135.453 175.571C135.551 175.255 135.516 174.89 135.614 174.567C135.712 174.245 136.006 173.985 136.097 173.669C136.188 173.353 136.237 173.009 136.335 172.694C136.433 172.378 136.461 172.027 136.552 171.711C136.643 171.395 136.678 171.044 136.769 170.728C136.86 170.413 137.035 170.104 137.126 169.795C137.224 169.465 137.322 169.149 137.413 168.84C137.511 168.504 137.749 168.23 137.84 167.921C137.945 167.584 137.84 167.198 137.924 166.903C138.029 166.552 138.33 166.293 138.414 166.012C138.533 165.626 138.512 165.289 138.582 165.044C138.533 164.952 138.512 164.931 138.407 164.91C138.393 164.91 138.393 165.001 138.386 165.001L138.393 164.994Z" fill="#AEB7E2"/>
<path d="M117.523 165.829L118.986 165.303L138.694 165.022L138.141 144.76H138.232C137.994 141.377 137.693 137.875 137.308 134.282C136.755 129.13 136.083 124.211 135.335 119.536C134.705 115.374 134.082 111.206 133.452 107.044L131.457 101.731L129.54 99.3726L130.352 96.9583L127.293 95.9266C127.293 95.9266 129.372 93.7088 133.13 92.8876C136.881 92.0735 137.567 89.6732 137.791 88.9012C138.015 88.1292 139.254 84.1919 139.254 84.1919L139.891 83.8129L142.165 83.9743C142.165 83.9743 143.6 83.497 143.425 82.332C143.25 81.1669 141.738 77.6297 141.738 77.6297L141.871 67.8742C141.871 67.8742 140.548 61.9858 138.82 59.9504C137.091 57.9151 135.482 55.95 132.857 55.4657C130.233 54.9814 125.859 54.048 124.123 54.427C122.387 54.806 116.999 56.9536 116.999 56.9536C116.999 56.9536 112.394 60.6452 110.882 63.5649C109.37 66.4845 109.454 69.9516 110.133 72.5484C110.812 75.1452 113.044 80.6265 113.296 82.353C113.548 84.0866 113.331 89.5679 112.184 90.6838L110.889 90.1083L110.378 90.4312L108.985 95.4633C108.985 95.4633 104.156 97.5197 101.518 101.415C100.818 102.447 100.216 103.605 99.7052 104.735C99.7052 104.735 85.6872 128.099 84.5465 131.025C83.4057 133.952 85.9322 138.205 87.1499 139.258C88.1367 140.107 92.4968 146.95 94.1064 149.491L93.9945 154.179L94.4843 161.12L93.5535 162.601L92.9727 165.689L104.891 165.521L108.131 170.314L109.489 169.57C109.489 169.57 110.056 177.375 112.575 178.806C112.575 178.806 120.344 175.676 121.359 172.855C121.359 172.855 119.749 166.847 117.544 165.851L117.523 165.829Z" fill="white"/>
<path d="M109.468 169.684L116.959 166.178H118.457L120.954 171.687C121.12 172.188 121.154 173.389 119.955 174.191C118.757 174.992 114.462 177.529 112.465 178.698C111.965 178.364 110.867 177.296 110.467 175.693C110.068 174.091 109.635 171.019 109.468 169.684Z" fill="white"/>
<path d="M132.432 92.8876C128.674 93.7088 126.595 95.9266 126.595 95.9266L111.486 90.6838C112.633 89.5679 112.85 84.0866 112.598 82.353C112.347 80.6265 110.114 75.1452 109.435 72.5484C108.756 69.9516 108.672 66.4845 110.184 63.5649C111.696 60.6452 116.301 56.9536 116.301 56.9536C116.301 56.9536 121.69 54.806 123.425 54.427C125.161 54.048 129.535 54.9814 132.159 55.4657C134.784 55.95 136.393 57.9151 138.122 59.9504C139.851 61.9858 141.173 67.8742 141.173 67.8742L141.04 77.6297C141.04 77.6297 142.552 81.1669 142.727 82.332C142.902 83.497 141.467 83.9743 141.467 83.9743L139.193 83.8129L138.556 84.1919C138.556 84.1919 137.317 88.1292 137.093 88.9012L137.091 88.908C136.865 89.6873 136.172 92.0759 132.432 92.8876Z" fill="white"/>
<path d="M234.755 313.327C234.636 313.313 234.65 313.299 234.629 313.299L234.594 313.285L234.524 313.257L234.391 313.215C233.985 313.089 233.439 313.019 233.033 313.089C232.634 313.18 232.249 313.348 231.815 313.37C231.213 313.419 230.577 313.047 230.045 313.124C229.289 313.257 228.463 313.313 227.651 313.419C227.196 313.51 226.622 313.405 226.266 313.18C225.356 312.619 225.321 313.349 224.306 313.601C223.466 313.685 223.13 313.25 222.521 313.299C222.122 313.363 221.856 313.594 221.402 313.678C220.807 313.84 219.995 313.447 219.54 313.461C219.113 313.489 218.14 314.064 217.573 313.727C217.139 313.559 216.86 313.152 216.503 313.075C216.006 313.222 215.572 313.727 214.928 313.685C213.57 313.608 212.199 313.756 210.841 313.713C210.288 313.763 209.462 313.566 209.007 313.517C207.412 313.657 205.844 313.454 204.199 313.503C203.422 313.482 202.45 313.503 201.701 313.313C201.113 313.271 200.49 313.18 199.944 313.089C199.741 313.075 199.776 313.075 199.629 313.131C199.503 313.187 199.342 313.292 199.153 313.405C198.957 313.51 198.726 313.657 198.363 313.692C197.719 313.706 197.341 313.482 197.012 313.412C196.333 313.285 195.661 313.559 194.947 313.454C194.807 313.433 194.688 313.398 194.569 313.363L193.995 313.166C193.918 313.138 193.723 313.096 193.695 313.11C193.457 313.215 193.17 313.503 192.855 313.699C192.603 313.875 192.127 313.987 191.819 313.868C191.343 313.706 191.042 313.384 190.706 313.194C190.37 313.082 189.943 313.482 189.278 313.545C188.67 313.587 188.257 313.405 187.914 313.341C187.151 313.236 186.325 313.278 185.555 313.215C185.254 313.187 184.834 313.131 184.554 313.124C184.519 313.124 184.561 313.124 184.547 313.124C184.526 313.124 184.387 313.208 184.247 313.313C183.918 313.622 183.246 314.043 182.742 313.903C182.133 313.826 181.699 313.524 181.132 313.657C180.775 313.706 180.362 313.854 179.788 313.819C178.928 313.699 178.781 313.482 178.06 313.517C176.94 313.454 176.093 313.552 174.932 313.454C174.26 313.363 174.043 313.089 173.602 313.37C173.231 313.629 172.608 314.029 172.083 313.882C171.607 313.798 171.257 313.517 170.907 313.398C170.767 313.363 170.578 313.384 170.431 313.363C169.55 313.229 168.619 313.271 167.772 313.292C167.282 313.341 166.911 313.636 166.33 313.657C165.722 313.657 165.008 313.742 164.399 313.678C163.888 313.594 163.503 313.419 163.265 313.419C163.069 313.419 162.817 313.419 162.628 313.391C161.907 313.257 161.075 313.299 160.298 313.313C159.745 313.292 159.143 313.826 158.562 313.77C157.855 313.798 156.686 313.917 156.029 313.643C155.672 313.573 155.168 313.629 154.783 313.482C154.461 313.377 154.363 313.348 154.09 313.348C153.887 313.37 153.943 313.37 153.67 313.587C153.411 313.847 152.851 314.036 152.431 313.994L152.109 313.987C151.962 313.973 151.375 313.945 151.221 313.945C150.822 313.973 150.304 313.833 150.024 313.601C149.639 313.341 149.835 313.433 149.163 313.377C148.68 313.32 148.477 313.166 148.043 313.173C147.609 313.159 147.357 313.285 146.896 313.32C145.825 313.285 145.272 313.861 144.236 313.426C143.788 313.215 143.788 313.117 143.417 313.145C143.333 313.159 143.305 313.166 143.165 313.285C142.997 313.489 142.395 313.847 142.011 313.805C141.647 313.84 141.087 313.622 140.87 313.461C140.737 313.384 140.674 313.37 140.534 313.356C139.582 313.32 138.49 313.292 137.546 313.292C136.958 313.264 136.349 313.454 135.691 313.391C135.271 313.391 134.9 313.11 134.529 313.075C134.396 313.061 134.165 313.075 133.99 313.075C133.066 313.208 131.947 313.019 131.009 313.075C130.512 313.229 129.735 313.229 129.203 313.271C127.706 313.384 126.411 313.243 124.983 313.391C124.402 313.552 123.563 313.727 122.954 313.433C122.429 313.201 122.163 313.124 121.694 313.475C121.26 313.791 120.602 313.868 120.077 313.622C119.622 313.391 119.622 313.194 119.188 313.187C118.468 313.236 117.733 312.78 117.082 313.299C116.487 313.671 115.815 313.489 115.115 313.657C114.422 313.636 113.954 313.812 113.289 313.854C113.079 313.868 112.722 313.833 112.47 313.671C112.211 313.517 112.071 313.334 111.966 313.257C111.749 313.089 111.455 313.138 111.224 313.215C111.098 313.257 110.867 313.398 110.601 313.447C110.097 313.531 109.789 313.468 109.321 313.51C108.565 313.608 107.683 313.363 106.92 313.377C106.745 313.391 106.633 313.419 106.43 313.489C105.835 313.72 105.044 313.608 104.471 313.552C104.079 313.531 103.568 313.552 103.183 313.405C102.833 313.299 102.518 313.271 102.189 313.341C102.056 313.37 101.895 313.461 101.643 313.545C101.146 313.678 100.698 313.65 100.223 313.51C99.4527 313.208 98.7318 313.489 97.934 313.454C97.3461 313.468 96.7793 313.068 96.1914 313.173C96.0094 313.18 95.8625 313.222 95.6385 313.271C95.2466 313.363 94.8407 313.285 94.4768 313.391C94.3298 313.433 94.0988 313.545 93.8539 313.58C93.392 313.678 92.7971 313.559 92.4612 313.271C92.3002 313.159 92.2022 313.117 92.0553 313.096C91.9293 313.082 91.6704 313.096 91.4674 313.068C91.0125 313.019 90.6906 312.962 90.2917 312.977C89.8787 312.977 89.5288 313.131 89.1019 313.138C88.64 313.138 88.3741 313.159 87.9192 313.236C87.1493 313.412 86.3025 312.955 85.5327 313.054C85.2037 313.124 84.6859 313.348 84.3079 313.306C84.14 313.306 84 313.166 84 312.998C84.028 312.555 84.5389 312.745 84.8118 312.619C85.1758 312.464 85.6936 312.359 86.1136 312.415C86.7154 312.506 87.2123 312.71 87.8422 312.598C88.1851 312.527 88.724 312.478 89.0669 312.485C89.4518 312.464 89.8717 312.303 90.2707 312.31C91.0125 312.296 91.4254 312.415 92.1323 312.415C92.7971 312.485 93.0351 313.068 93.7279 312.885C94.0708 312.801 94.5747 312.569 94.9597 312.612C95.3796 312.626 95.6945 312.485 96.1284 312.45C96.3524 312.436 96.5623 312.429 96.8073 312.45C97.2692 312.499 97.5071 312.717 97.941 312.703C98.7249 312.703 99.6836 312.45 100.446 312.773C101.279 313.089 101.874 312.422 102.714 312.52C103.449 312.591 103.68 312.787 104.513 312.745C105.128 312.78 105.604 312.899 106.157 312.71C106.332 312.64 106.612 312.555 106.843 312.548C107.235 312.506 107.781 312.576 108.138 312.654C108.747 312.71 109.831 312.654 110.405 312.605C110.713 312.492 111.273 312.226 111.658 312.275C111.924 312.275 112.267 312.38 112.47 312.555C112.687 312.724 112.799 312.864 112.897 312.913C113.24 313.11 113.968 312.794 114.429 312.787C115.038 312.808 115.64 312.626 116.235 312.633C116.627 312.612 116.781 312.296 117.257 312.183C117.684 312.078 118.23 312.148 118.643 312.212C119.083 312.282 119.559 312.176 119.993 312.45C120.546 312.843 120.7 312.941 121.148 312.675C121.463 312.373 122.163 312.19 122.618 312.303C123.108 312.366 123.283 312.612 123.716 312.605C124.248 312.619 124.913 312.303 125.487 312.366C126.908 312.205 128.363 312.359 129.728 312.197C130.197 312.212 130.365 312.12 130.862 312.036C131.324 311.98 131.744 312.001 132.185 312.036C133.004 312.127 133.745 311.966 134.599 312.001C135.033 312.001 135.39 312.275 135.761 312.31C136.307 312.352 136.909 312.162 137.525 312.19C138.259 312.19 139.26 312.169 139.967 312.219L140.59 312.226C141.003 312.197 141.472 312.548 141.787 312.647C142.102 312.682 142.102 312.675 142.409 312.408C142.57 312.254 142.899 312.043 143.221 312.001C143.655 311.882 144.411 312.155 144.684 312.352C145.132 312.541 145.622 312.226 146.161 312.162C146.378 312.134 146.581 312.148 146.784 312.127C147.413 312.015 148.12 311.868 148.771 312.043C149.135 312.141 149.226 312.169 149.527 312.176C149.891 312.127 150.514 312.401 150.703 312.583C150.843 312.682 150.871 312.682 150.983 312.703C151.417 312.703 151.997 312.745 152.438 312.752C152.634 312.752 152.697 312.787 152.879 312.626C152.998 312.527 153.236 312.289 153.572 312.176C154.048 312.001 154.727 312.12 155.14 312.275C155.511 312.387 155.861 312.296 156.288 312.401C156.791 312.527 156.861 312.569 157.344 312.534L158.555 312.471C158.912 312.436 159.094 312.247 159.493 312.127C159.892 311.966 160.473 312.008 160.9 311.987C161.291 311.987 161.788 311.931 162.194 312.001C162.516 312.057 163.041 312.141 163.363 312.148C164.07 312.233 164.322 312.45 164.798 312.443C165.225 312.429 165.854 312.415 166.281 312.408C166.708 312.359 167.247 312.029 167.765 312.043C168.024 312.043 169.025 312.022 169.284 312.015C170.054 312.064 170.578 312.092 171.264 312.204C171.684 312.324 171.985 312.584 172.307 312.661C172.356 312.668 172.349 312.661 172.363 312.661C172.559 312.598 172.734 312.45 172.979 312.303C173.182 312.19 173.427 312.029 173.833 312.008C174.428 312.008 174.82 312.19 175.141 312.24C175.379 312.289 175.862 312.254 176.247 312.268C177.108 312.268 177.871 312.268 178.753 312.338C179.271 312.429 179.635 312.598 179.893 312.612C180.572 312.598 181.615 312.226 182.399 312.591C182.637 312.661 182.868 312.724 183.001 312.724C183.477 312.492 183.876 311.917 184.561 311.924H184.736L185.072 311.952C185.814 312.057 186.647 312.064 187.431 312.106C187.949 312.064 188.81 312.394 189.166 312.366C189.383 312.359 189.74 312.148 190.258 312.022C190.517 311.945 191 311.987 191.224 312.134C191.644 312.331 191.875 312.64 192.162 312.745C192.694 312.471 193.212 311.79 193.96 311.966C194.415 312.015 194.863 312.338 195.318 312.317C195.955 312.31 196.62 312.127 197.278 312.296C197.733 312.422 198.104 312.569 198.279 312.548C198.321 312.548 198.453 312.499 198.607 312.408C198.761 312.317 198.943 312.198 199.181 312.092C199.398 311.973 199.825 311.924 200.049 311.966C200.707 312.078 201.246 312.155 201.89 312.219L202.478 312.331C202.674 312.366 202.765 312.366 202.996 312.373C204.094 312.45 205.578 312.345 206.684 312.471C207.538 312.612 208.174 312.436 209.077 312.457C209.826 312.534 210.183 312.696 210.848 312.668C212.227 312.717 213.647 312.583 215.026 312.668C215.222 312.668 215.943 312.085 216.412 312.071C217.084 311.98 217.559 312.661 218.056 312.836C218.546 312.815 218.805 312.534 219.519 312.492C220.464 312.492 220.912 313.019 221.724 312.591C222.087 312.394 222.794 312.303 223.186 312.471C223.613 312.605 223.991 312.766 224.166 312.731C224.425 312.71 225.069 312.12 225.573 312.113C226.154 312.071 226.615 312.513 227.084 312.647C227.112 312.654 227.133 312.654 227.161 312.661H227.294L227.574 312.647C228.365 312.562 229.149 312.555 229.996 312.429C230.682 312.359 231.199 312.731 231.794 312.752C231.962 312.752 232.144 312.717 232.333 312.675C233.124 312.366 234.3 312.541 234.895 312.92C235.091 313.019 234.993 313.356 234.769 313.32L234.755 313.327Z" fill="#181C56"/>
<path d="M112.694 89.7082C112.785 89.4135 112.932 89.1187 113.016 88.8029C113.1 88.487 113.016 88.1502 113.079 87.8343C113.142 87.5185 113.275 87.2237 113.324 86.9079C113.373 86.5921 113.324 86.2692 113.352 85.9464C113.38 85.6235 113.471 85.3147 113.478 84.9919C113.485 84.669 113.429 84.3532 113.408 84.0374C113.387 83.7216 113.324 83.4057 113.275 83.0899C113.226 82.7741 113.317 82.4302 113.247 82.1214C113.177 81.8126 112.925 81.5459 112.827 81.2441C112.729 80.9423 112.715 80.5844 112.61 80.2545C112.505 79.9387 112.296 79.6579 112.184 79.3281C112.072 78.9982 112.044 78.6683 111.939 78.3385C111.834 78.0086 111.638 77.7279 111.54 77.405C111.442 77.0822 111.54 76.7032 111.449 76.3733C111.358 76.0435 111.099 75.7768 111.008 75.4469C110.917 75.1171 110.84 74.7942 110.763 74.4643C110.686 74.1345 110.588 73.8116 110.511 73.4818C110.434 73.1519 110.378 72.815 110.315 72.4852C110.252 72.1553 110.252 71.8114 110.203 71.4745C110.154 71.1376 110.091 70.8078 110.056 70.4709C110.021 70.134 110.028 69.7901 110.007 69.4532C109.986 69.1163 109.979 68.7795 109.979 68.4356C109.979 68.0917 110 67.7618 110.021 67.4179C110.042 67.074 110.133 66.7512 110.175 66.4143C110.217 66.0774 110.329 65.7616 110.399 65.4317C110.469 65.1018 110.392 64.7369 110.49 64.407C110.588 64.0772 110.784 63.7964 110.91 63.4806C111.036 63.1648 111.148 62.849 111.302 62.5472C111.456 62.2454 111.708 62.0138 111.883 61.719C112.058 61.4242 112.065 61.0312 112.275 60.7575C112.484 60.4838 112.848 60.3645 113.079 60.1118C113.31 59.8591 113.457 59.5503 113.709 59.3117C113.961 59.0731 114.248 58.9187 114.514 58.6941C114.78 58.4695 115.046 58.3011 115.326 58.0975C115.606 57.894 115.893 57.7536 116.187 57.5641C116.481 57.3746 116.649 57.0307 116.957 56.8623C117.39 56.6237 117.313 56.757 117.88 56.4903C118.132 56.371 118.419 56.1815 118.762 56.0341C119.042 55.9148 119.378 55.8657 119.714 55.7394C120.008 55.6271 120.323 55.5218 120.645 55.4095C120.946 55.3042 121.254 55.1989 121.583 55.1007C121.89 55.0094 122.226 54.9814 122.548 54.8971C122.87 54.8129 123.136 54.5532 123.465 54.4831C123.794 54.4129 124.137 54.4831 124.466 54.4269C124.795 54.3708 125.117 54.3497 125.446 54.3006C125.775 54.2515 126.097 54.2093 126.425 54.1813C126.754 54.1532 127.076 54.0339 127.405 54.0199C127.734 54.0058 128.063 53.9918 128.399 54.0058C128.735 54.0199 129.05 54.1111 129.386 54.1392C129.722 54.1672 130.03 54.2515 130.359 54.3006C130.688 54.3497 131.002 54.4059 131.324 54.476C131.646 54.5462 131.996 54.5182 132.311 54.6164C132.626 54.7147 132.948 54.8129 133.256 54.9393C133.564 55.0656 133.837 55.2551 134.131 55.4095C134.425 55.5639 134.67 55.7815 134.957 55.9569C135.244 56.1324 135.608 56.1745 135.873 56.371C136.139 56.5675 136.384 56.7921 136.636 57.0167C136.888 57.2413 137.014 57.5711 137.245 57.8168C137.476 58.0624 137.637 58.3361 137.847 58.5958C138.057 58.8555 138.281 59.0801 138.477 59.3538C138.673 59.6275 138.904 59.8521 139.079 60.1399C139.254 60.4276 139.303 60.7575 139.464 61.0593C139.625 61.3611 139.926 61.5576 140.073 61.8664C140.22 62.1752 140.227 62.5121 140.359 62.8279C140.492 63.1437 140.59 63.4385 140.702 63.7613C140.814 64.0842 140.912 64.379 141.017 64.7018C141.122 65.0246 141.234 65.3194 141.325 65.6423C141.416 65.9651 141.402 66.295 141.479 66.6248C141.556 66.9547 141.64 67.2565 141.71 67.5934C141.78 67.9302 141.815 68.2391 141.878 68.5759C141.941 68.9128 142.039 69.2146 142.088 69.5515C142.137 69.8884 142.207 70.1972 142.249 70.5341C142.291 70.8709 142.319 71.1797 142.354 71.5166C142.34 71.9869 142.347 71.9798 142.312 72.4501C142.277 72.9203 142.34 72.9203 142.312 73.3905C142.284 73.8608 142.186 73.8537 142.151 74.317C142.116 74.7802 142.263 74.7942 142.228 75.2644C142.193 75.7347 142.039 75.7206 142.004 76.1909C141.969 76.6611 141.934 76.6541 141.899 77.1243C141.864 77.5945 141.899 77.6016 141.969 78.0648C142.046 78.5841 142.179 78.535 142.361 79.0263C142.543 79.5176 142.592 79.5035 142.767 79.9948C142.942 80.4861 142.767 80.5563 142.942 81.0476C143.117 81.5389 143.215 81.5038 143.39 82.0021C143.509 82.374 143.488 82.7601 143.355 83.0759C143.215 83.4057 142.921 83.6654 142.599 83.8198C142.291 83.9742 141.92 84.0935 141.542 83.9953C140.996 83.9181 140.996 83.9321 140.45 83.8549C140.164 83.7777 139.863 83.7567 139.611 83.883C139.359 84.0093 139.233 84.262 139.121 84.5427C138.981 84.9849 138.925 84.9708 138.799 85.413C138.673 85.8552 138.694 85.8692 138.568 86.3113C138.442 86.7535 138.365 86.7324 138.239 87.1816C138.113 87.6308 138.155 87.6448 138.029 88.087C137.903 88.5291 137.98 88.5572 137.847 89.0064C137.714 89.4556 137.595 89.4205 137.455 89.8626C137.322 90.1644 137.154 90.396 136.965 90.6347C136.769 90.8873 136.594 91.1259 136.349 91.3225C136.104 91.519 135.866 91.7085 135.587 91.8629C135.307 92.0173 135.013 92.0804 134.719 92.2068C134.425 92.3331 134.173 92.5086 133.872 92.6209C133.571 92.7331 133.284 92.8244 132.983 92.9367C132.549 93.0981 132.528 93.056 132.094 93.2174C131.66 93.3788 131.674 93.435 131.24 93.5964C130.807 93.7578 130.779 93.7017 130.345 93.8701C129.911 94.0386 129.946 94.1509 129.512 94.3123C129.246 94.4105 129.029 94.5649 128.798 94.7123C128.567 94.8597 128.287 94.9439 128.084 95.1334C127.881 95.3229 127.727 95.5545 127.559 95.7791" stroke="#181C56" stroke-width="1.5" stroke-linecap="round" stroke-linejoin="round"/>
<path d="M129.224 64.0842C129.525 64.5545 129.833 65.3897 130.064 65.909L130.316 66.8776C130.393 67.1372 130.596 67.432 130.687 67.825C130.771 68.2391 130.701 68.569 130.757 68.8146C130.799 69.0673 130.988 69.3691 131.044 69.7902C131.03 70.5833 130.981 71.1307 130.981 71.7974C130.974 72.029 131.128 72.3589 131.114 72.8011C131.086 73.2011 130.953 73.5169 130.918 73.7977C130.918 74.4293 130.75 75.1943 130.456 75.7628L130.127 76.7243L129.693 77.6507C129.469 78.0017 129.168 78.1631 129.007 78.3947C128.846 78.6052 128.783 78.9702 128.517 79.265C128.461 79.3281 128.363 79.3281 128.307 79.272C128.252 79.2158 128.245 79.1246 128.294 79.0685C128.461 78.8509 128.482 78.514 128.685 78.1701C128.895 77.8473 129.175 77.6437 129.287 77.4121L129.651 76.5208L129.917 75.5873C130.022 75.2294 130.176 74.9346 130.225 74.675C130.253 74.1626 130.372 73.2572 130.477 72.7589C130.498 72.5344 130.351 72.2396 130.33 71.8044C130.337 71.1447 130.4 70.3727 130.428 69.8533C130.407 69.6077 130.246 69.3199 130.169 68.9199C130.099 68.5128 130.176 68.1689 130.134 67.9303C130.092 67.6706 129.931 67.3899 129.826 67.0109L129.63 66.0424C129.413 65.4177 129.252 64.8071 128.979 64.1965C128.895 64.0281 129.175 63.8948 129.252 64.0702L129.224 64.0842Z" fill="#181C56"/>
<path d="M142.364 68.4833L140.923 68.5022L141.049 78.2007L142.491 78.1818L142.364 68.4833Z" fill="#181C56" stroke="#181C56" stroke-width="0.679701" stroke-miterlimit="10" stroke-linecap="round"/>
<path d="M138.946 165.015C138.939 164.678 138.918 164.334 138.911 163.998C138.904 163.661 138.939 163.317 138.925 162.98C138.911 162.643 138.75 162.306 138.743 161.969C138.736 161.632 138.771 161.289 138.757 160.952C138.743 160.615 138.617 160.278 138.61 159.941C138.603 159.604 138.729 159.26 138.722 158.923C138.715 158.586 138.631 158.25 138.617 157.913C138.603 157.576 138.568 157.232 138.561 156.895C138.554 156.558 138.715 156.207 138.701 155.87C138.687 155.533 138.638 155.19 138.624 154.853C138.61 154.516 138.505 154.179 138.491 153.842C138.477 153.505 138.393 153.168 138.379 152.831C138.365 152.495 138.323 152.158 138.309 151.821C138.295 151.484 138.309 151.14 138.295 150.81C138.281 150.48 138.456 150.122 138.442 149.792C138.428 149.463 138.253 149.126 138.239 148.789C138.225 148.452 138.295 148.108 138.281 147.771C138.267 147.434 138.351 147.09 138.337 146.753C138.323 146.417 138.176 146.087 138.162 145.75C138.148 145.413 138.141 145.076 138.127 144.739C138.113 144.402 137.96 144.072 137.946 143.736C137.932 143.399 138.037 143.055 138.016 142.725C137.995 142.395 137.96 142.051 137.946 141.721C137.946 141.721 138.106 141.391 138.058 140.711C138.037 140.437 137.75 140.128 137.715 139.735C137.687 139.44 137.652 139.11 137.624 138.746C137.596 138.437 137.715 138.093 137.68 137.735C137.652 137.426 137.505 137.103 137.47 136.752C137.435 136.436 137.596 136.086 137.561 135.735C137.526 135.419 137.379 135.096 137.344 134.752C137.309 134.429 137.33 134.092 137.295 133.748C137.26 133.426 137.232 133.096 137.19 132.752C137.155 132.429 137.162 132.092 137.12 131.748C137.085 131.425 136.847 131.117 136.805 130.78C136.763 130.443 136.749 130.12 136.707 129.783C136.665 129.446 136.84 129.102 136.798 128.765C136.756 128.429 136.511 128.134 136.469 127.797C136.427 127.46 136.385 127.144 136.343 126.807C136.301 126.47 136.413 126.134 136.371 125.797C136.329 125.46 136.042 125.172 136 124.835C135.958 124.498 136.098 124.154 136.049 123.817C136 123.481 135.853 123.179 135.811 122.842C135.769 122.505 135.685 122.189 135.636 121.859C135.587 121.529 135.531 121.207 135.482 120.87C135.433 120.533 135.37 120.217 135.328 119.88C135.286 119.543 135.482 119.192 135.433 118.855C135.384 118.519 135.181 118.224 135.132 117.887C135.083 117.55 135.111 117.22 135.062 116.883C135.013 116.546 135.048 116.217 134.999 115.88C134.95 115.543 134.642 115.262 134.593 114.925C134.544 114.588 134.635 114.251 134.593 113.915C134.551 113.578 134.425 113.269 134.369 112.932C134.313 112.595 134.257 112.272 134.208 111.942C134.159 111.613 134.075 111.29 134.026 110.96C133.977 110.63 134.026 110.286 133.977 109.949C133.928 109.612 133.823 109.296 133.774 108.96C133.739 108.714 133.844 108.363 133.767 107.977C133.711 107.696 133.522 107.402 133.431 107.058C133.355 106.77 133.327 106.44 133.222 106.11C133.131 105.815 133.061 105.493 132.942 105.177C132.837 104.882 132.746 104.566 132.613 104.257C132.487 103.97 132.193 103.752 132.046 103.45C131.906 103.169 131.808 102.868 131.654 102.601C131.5 102.334 131.311 102.075 131.143 101.815C130.975 101.555 130.779 101.31 130.597 101.057C130.415 100.804 130.177 100.601 129.981 100.355C129.785 100.109 129.596 99.7866 129.393 99.555C129.428 99.0988 129.533 99.0988 129.673 98.6707C129.813 98.2426 129.89 98.2636 130.037 97.8285C130.184 97.3933 130.681 97.3091 130.464 96.9021C130.226 96.4669 129.841 96.9231 129.372 96.7617C128.903 96.6003 128.952 96.4529 128.484 96.2985C128.015 96.1441 128.022 96.109 127.553 95.9476C127.084 95.7861 127.077 95.8072 126.608 95.6528C126.139 95.4984 126.132 95.5194 125.663 95.358C125.194 95.1966 125.187 95.2106 124.718 95.0492C124.249 94.8878 124.2 95.0281 123.732 94.8667C123.263 94.7053 123.27 94.6772 122.801 94.5158C122.332 94.3544 122.36 94.2631 121.891 94.1017C121.422 93.9403 121.401 93.9965 120.932 93.835C120.463 93.6736 120.505 93.5473 120.036 93.3929C119.567 93.2385 119.574 93.2104 119.106 93.049C118.637 92.8876 118.616 92.9577 118.147 92.7963C117.678 92.6349 117.664 92.677 117.195 92.5156C116.726 92.3542 116.74 92.3191 116.271 92.1576C115.802 91.9962 115.753 92.1366 115.284 91.9752C114.815 91.8137 114.836 91.7506 114.361 91.5892C113.885 91.4277 113.948 91.2523 113.479 91.0979C113.01 90.9435 113.003 90.9575 112.527 90.7961C112.051 90.6347 112.03 90.7189 111.554 90.5575C111.078 90.396 110.994 89.9539 110.56 90.1925C110.084 90.4522 110.539 90.8171 110.371 91.3365C110.203 91.8558 109.973 91.7716 109.798 92.284C109.623 92.7963 109.847 92.8735 109.672 93.3859C109.497 93.8982 109.329 93.8421 109.154 94.3614C108.979 94.8808 109.21 94.979 108.944 95.4563C108.643 95.5966 108.195 95.5686 107.901 95.723C107.607 95.8774 107.313 96.0528 107.019 96.2213C106.725 96.3897 106.438 96.5652 106.158 96.7547C105.878 96.9442 105.745 97.3302 105.472 97.5267C105.2 97.7232 104.899 97.8706 104.64 98.0882C104.381 98.3057 104.045 98.425 103.8 98.6566C103.555 98.8882 103.338 99.1479 103.107 99.3866C102.876 99.6252 102.799 100.011 102.582 100.264C102.365 100.517 102.064 100.699 101.861 100.966C101.658 101.232 101.364 101.436 101.175 101.71C100.986 101.983 101 102.39 100.825 102.678C100.651 102.966 100.364 103.176 100.203 103.478C100.042 103.78 99.9787 104.11 99.8387 104.419C99.6987 104.728 99.5517 105.015 99.4258 105.331C99.2998 105.647 99.1808 105.949 99.0688 106.272" stroke="#181C56" stroke-width="1.5" stroke-miterlimit="10" stroke-linecap="round"/>
<path d="M94.372 161.387C94.0917 161.808 94.1828 161.689 94.0216 160.58C93.9866 160.327 93.9585 159.997 93.9235 159.569C93.9025 159.281 93.8604 158.944 93.8464 158.558C93.8324 158.25 93.8324 157.913 93.8254 157.541C93.8254 157.225 93.7974 156.888 93.7974 156.523C93.7974 156.207 93.8184 155.87 93.8184 155.505C93.8184 155.183 93.8184 154.846 93.8184 154.488C93.8184 154.165 93.8184 153.828 93.8324 153.47C93.8324 153.147 93.8744 152.81 93.8815 152.459C93.8885 152.13 93.8955 151.793 93.9025 151.442C93.9095 151.112 93.9025 150.775 93.9235 150.424" stroke="#181C56" stroke-width="0.840867" stroke-miterlimit="10" stroke-linecap="round"/>
<path d="M118.586 118.041C118.257 118.42 118.369 118.519 118.04 118.905C117.711 119.291 117.627 119.206 117.298 119.592C116.97 119.978 116.949 119.957 116.62 120.336C116.291 120.715 116.501 120.898 116.172 121.277C115.843 121.656 115.745 121.572 115.409 121.951C115.073 122.33 115.129 122.372 114.8 122.751C114.471 123.13 114.506 123.158 114.177 123.537C113.848 123.916 113.939 124 113.61 124.379C113.281 124.758 113.029 124.54 112.7 124.919C112.372 125.298 112.532 125.439 112.204 125.818C111.875 126.197 111.868 126.19 111.539 126.569C111.21 126.948 111.161 126.906 110.832 127.285C110.503 127.664 110.461 127.628 110.125 128.007C109.789 128.386 109.873 128.457 109.544 128.836C109.215 129.215 109.117 129.13 108.788 129.509C108.459 129.888 108.417 129.853 108.088 130.239C107.759 130.625 107.808 130.667 107.48 131.046C107.151 131.425 107.221 131.489 106.885 131.868C106.549 132.247 106.528 132.225 106.199 132.604C105.87 132.983 105.758 132.892 105.429 133.271C105.1 133.65 105.24 133.777 104.911 134.163C104.582 134.549 104.666 134.626 104.337 135.005C104.008 135.384 103.483 135.152 103.427 135.657C103.371 136.163 103.952 136.029 104.197 136.472C104.442 136.914 104.267 137.012 104.512 137.454C104.757 137.896 104.904 137.819 105.149 138.261C105.394 138.703 105.366 138.725 105.611 139.167C105.856 139.609 105.877 139.602 106.122 140.044C106.367 140.486 106.241 140.556 106.486 140.998C106.731 141.441 106.696 141.462 106.941 141.904C107.186 142.346 107.34 142.262 107.585 142.704C107.829 143.146 107.662 143.237 107.906 143.686C108.151 144.136 108.116 144.15 108.361 144.592C108.606 145.034 108.718 144.978 108.963 145.42C109.208 145.862 109.229 145.855 109.474 146.297C109.719 146.739 109.768 146.711 110.013 147.154C110.258 147.596 110.055 147.708 110.293 148.157C110.531 148.606 110.51 148.613 110.755 149.063C111 149.512 111.273 149.357 111.518 149.799C111.763 150.242 111.609 150.326 111.854 150.775C112.099 151.224 111.966 151.294 112.211 151.737C112.455 152.179 112.749 152.017 112.994 152.466C113.239 152.916 112.973 153.056 113.218 153.505C113.463 153.954 113.624 153.863 113.869 154.305C114.114 154.747 113.925 154.853 114.17 155.295C114.415 155.737 114.513 155.688 114.758 156.137C115.003 156.586 114.933 156.621 115.178 157.063C115.423 157.506 115.549 157.435 115.794 157.885C116.039 158.334 116.074 158.313 116.319 158.755C116.564 159.197 116.648 159.155 116.886 159.604C117.123 160.053 117.005 160.116 117.249 160.566C117.494 161.015 117.515 161.001 117.76 161.45C118.005 161.899 117.816 162.004 118.061 162.447C118.306 162.889 118.397 162.847 118.642 163.289C118.887 163.731 118.915 163.724 119.16 164.173C119.405 164.622 119.874 164.587 119.72 165.078C119.566 165.57 119.237 165.296 118.789 165.5C118.341 165.703 118.369 165.752 117.928 165.949C117.487 166.145 117.417 166.005 116.977 166.208C116.536 166.412 116.536 166.419 116.095 166.622C115.654 166.826 115.626 166.763 115.178 166.966C114.73 167.17 114.821 167.359 114.373 167.556C113.925 167.752 113.904 167.703 113.456 167.9C113.008 168.096 113.078 168.244 112.63 168.447C112.183 168.651 112.106 168.468 111.658 168.672C111.21 168.875 111.252 168.96 110.804 169.163C110.356 169.367 110.37 169.395 109.922 169.598C109.474 169.802 109.376 169.584 108.928 169.781C108.48 169.977 108.578 170.363 108.102 170.23C107.627 170.097 107.752 169.907 107.473 169.493C107.193 169.079 107.109 169.128 106.822 168.714C106.535 168.3 106.507 168.321 106.227 167.9C105.947 167.479 105.975 167.465 105.695 167.044C105.415 166.623 105.632 166.482 105.345 166.061C105.058 165.64 104.883 165.766 104.603 165.345C104.323 164.924 104.421 164.861 104.141 164.447C103.861 164.033 103.973 163.956 103.686 163.541C103.399 163.127 103.259 163.219 102.98 162.805C102.7 162.39 102.714 162.376 102.427 161.962C102.14 161.548 101.993 161.646 101.713 161.225C101.433 160.804 101.566 160.713 101.286 160.292C101.006 159.871 100.978 159.892 100.698 159.471C100.418 159.05 100.614 158.916 100.334 158.495C100.054 158.074 99.7602 158.278 99.4733 157.857C99.1863 157.435 99.1863 157.442 98.8994 157.028C98.6125 156.614 98.7804 156.495 98.5005 156.081C98.2205 155.667 98.0946 155.744 97.8146 155.33C97.5347 154.916 97.7446 154.761 97.4647 154.347C97.1848 153.933 97.0588 154.01 96.7718 153.596C96.4849 153.182 96.5549 153.133 96.275 152.712C95.995 152.291 96.002 152.284 95.7221 151.87C95.4421 151.456 95.4911 151.414 95.2112 150.993C94.9312 150.572 94.7073 150.726 94.4203 150.305C94.1334 149.884 94.1614 149.87 93.8815 149.449C93.6015 149.027 93.8395 148.866 93.5525 148.445C93.2656 148.024 93.0416 148.178 92.7547 147.764C92.4678 147.35 92.4748 147.343 92.1878 146.922C91.9009 146.501 92.0829 146.382 91.8029 145.96C91.523 145.539 91.25 145.729 90.9701 145.308C90.6901 144.887 90.8931 144.746 90.6132 144.325C90.3332 143.904 90.2143 143.988 89.9273 143.567C89.6404 143.146 89.6054 143.174 89.3184 142.76C89.0315 142.346 89.0175 142.353 88.7376 141.932C88.4576 141.511 88.4366 141.525 88.1497 141.104C87.8628 140.683 88.1497 140.493 87.8628 140.072C87.5758 139.651 87.4009 139.77 87.1209 139.349C86.841 138.928 86.925 138.872 86.638 138.451C86.3511 138.03 86.4491 137.967 86.1621 137.545C85.8752 137.124 85.5812 137.328 85.2943 136.907C85.0074 136.486 85.1543 136.387 84.8884 135.952C84.7554 135.643 84.5525 135.363 84.4615 135.047C84.3705 134.731 84.2865 134.394 84.2375 134.064C84.1885 133.734 84.1186 133.391 84.1116 133.061C84.1046 132.731 84.2585 132.394 84.3005 132.064C84.3425 131.734 84.3285 131.39 84.4125 131.067C84.4965 130.745 84.7904 130.513 84.9164 130.204C85.1543 129.755 85.0214 129.685 85.2733 129.25C85.5253 128.815 85.5952 128.85 85.8472 128.408C86.0991 127.965 86.1411 127.993 86.3931 127.551C86.645 127.109 86.694 127.144 86.9459 126.702C87.1979 126.26 86.9949 126.148 87.2469 125.705C87.4988 125.263 87.5688 125.305 87.8208 124.87C88.0727 124.435 88.0377 124.414 88.2897 123.972C88.5416 123.53 88.5136 123.516 88.7656 123.081C89.0175 122.645 88.9405 122.596 89.1925 122.154C89.4444 121.712 89.4934 121.74 89.7453 121.305C89.9973 120.87 89.9833 120.856 90.2352 120.421C90.4872 119.985 90.5782 120.035 90.8301 119.599C91.0821 119.164 91.257 119.263 91.509 118.82C91.7609 118.378 91.467 118.21 91.7189 117.768C91.9709 117.326 92.1528 117.431 92.4048 116.996C92.6567 116.561 92.6987 116.582 92.9507 116.139C93.2026 115.697 93.1816 115.683 93.4336 115.248C93.6855 114.813 93.6575 114.792 93.9095 114.35C94.1614 113.908 94.1474 113.901 94.3994 113.458C94.6513 113.016 94.4833 112.925 94.7353 112.483C94.9872 112.041 95.0292 112.069 95.2812 111.627C95.5331 111.184 95.6451 111.255 95.904 110.812C96.163 110.37 96.093 110.335 96.3449 109.9C96.5969 109.465 96.7509 109.549 97.0098 109.107C97.2687 108.665 97.2897 108.686 97.5417 108.244C97.7936 107.802 97.7166 107.759 97.9686 107.317C98.2205 106.875 98.1715 106.847 98.4235 106.405C98.6754 105.963 98.7244 105.991 98.9834 105.556C99.2423 105.121 99.0674 105.015 99.3193 104.573C99.5712 104.131 99.6552 104.18 99.9072 103.738C100.159 103.296 100.376 103.422 100.635 102.98" stroke="#181C56" stroke-width="1.5" stroke-linecap="round" stroke-linejoin="round"/>
<path d="M113.744 96.3264C116.305 96.9861 118.796 97.8354 121.274 98.7407C122.093 99.0495 122.919 99.3654 123.723 99.7233C123.814 99.7654 123.856 99.8707 123.814 99.9619C123.779 100.046 123.688 100.088 123.604 100.067C121.897 99.6321 120.231 99.0776 118.566 98.5161C116.914 97.9266 115.255 97.3371 113.646 96.6282C113.478 96.558 113.569 96.2843 113.744 96.3334V96.3264Z" fill="#181C56"/>
<path d="M95.6938 165.668C96.0204 165.658 96.347 165.651 96.6736 165.647C97.1635 165.633 97.1635 165.647 97.6534 165.633C98.1433 165.619 98.1433 165.619 98.6332 165.612C99.1231 165.605 99.1231 165.598 99.613 165.584C100.103 165.57 100.103 165.584 100.593 165.57C101.083 165.555 101.083 165.57 101.573 165.556C102.062 165.541 102.062 165.541 102.552 165.527C103.042 165.513 103.042 165.527 103.539 165.513C104.036 165.499 104.029 165.499 104.526 165.492" fill="white"/>
<path d="M95.6878 165.57C98.6132 165.177 101.574 165.099 104.52 165.338C104.681 165.352 104.681 165.591 104.52 165.612C103.785 165.724 103.05 165.787 102.315 165.829C100.104 165.97 97.8924 165.977 95.6878 165.752C95.5828 165.745 95.5758 165.577 95.6878 165.563V165.57Z" fill="#181C56"/>
<path d="M118.726 165.661C119.053 165.661 119.379 165.656 119.706 165.647C120.196 165.647 120.196 165.654 120.686 165.647C121.176 165.64 121.176 165.64 121.665 165.633C122.155 165.626 122.155 165.619 122.645 165.619C123.135 165.619 123.135 165.619 123.625 165.619C124.115 165.619 124.115 165.619 124.605 165.619C125.095 165.619 125.095 165.605 125.585 165.598C126.075 165.591 126.075 165.598 126.564 165.598C127.054 165.598 127.054 165.591 127.544 165.584C128.034 165.577 128.034 165.57 128.524 165.57C129.014 165.57 129.014 165.556 129.504 165.549C129.994 165.542 129.994 165.535 130.484 165.528C130.973 165.521 130.973 165.549 131.463 165.542C131.953 165.535 131.953 165.528 132.45 165.528C132.947 165.528 132.94 165.528 133.437 165.528C133.934 165.528 133.927 165.507 134.424 165.507" fill="white"/>
<path d="M118.72 165.472C122.611 164.882 126.572 164.826 130.498 164.889C131.66 164.952 133.29 165.065 134.431 165.205C134.732 165.233 134.753 165.703 134.452 165.745C133.822 165.872 133.101 165.935 132.479 165.998C129.224 166.272 125.921 166.37 122.66 166.188C121.351 166.145 120.021 166.026 118.727 165.844C118.517 165.823 118.51 165.5 118.727 165.472H118.72Z" fill="#181C56"/>
<path d="M119.392 83.7426C119.098 83.5039 118.734 83.3074 118.405 82.9425C118.111 82.5705 118.02 82.2687 117.726 81.9248C117.327 81.3282 117.005 80.9914 116.586 80.4509C116.089 79.4964 115.676 78.5419 115.494 77.4681C115.326 76.1136 115.41 74.7169 116.313 73.6291C116.991 72.9624 117.775 72.6465 118.678 72.4219C119.637 72.3026 120.337 72.6395 121.205 72.829C121.855 72.8992 122.478 73.2992 123.031 73.6782C123.395 74.0011 123.563 74.2116 123.934 74.5134C124.179 74.752 124.795 75.0819 124.452 75.496C124.291 75.6785 124.018 75.6714 123.85 75.503C123.549 75.2574 123.227 74.9907 122.919 74.7169C122.534 74.2748 122.037 74.0502 121.554 73.7695C121.345 73.6782 120.974 73.6572 120.708 73.5659C120.533 73.5098 120.064 73.3975 119.882 73.3413C119.077 73.1027 118.468 73.3062 117.768 73.608C115.592 74.6397 116.068 77.7559 116.956 79.5526L117.194 80.072C117.831 80.837 118.405 81.7002 118.874 82.5494C119.077 82.8021 119.42 83.0267 119.749 83.3144C119.861 83.4127 119.875 83.5882 119.777 83.7075C119.679 83.8198 119.511 83.8338 119.392 83.7426Z" fill="#181C56"/>
<path d="M126.803 62.5752C125.488 63.5578 124.333 64.7579 123.514 66.1897C123.479 66.2599 123.395 66.2809 123.332 66.2388C123.276 66.2037 123.255 66.1335 123.276 66.0704C123.927 64.4912 125.194 63.1718 126.705 62.3927C126.81 62.3366 126.908 62.498 126.803 62.5682V62.5752Z" fill="#181C56"/>
<path d="M139.561 72.6536C139.211 72.6606 139.204 72.443 138.847 72.45C138.49 72.457 138.49 72.443 138.14 72.45C137.79 72.457 137.79 72.7027 137.44 72.7097C137.091 72.7167 137.091 72.7729 136.734 72.7799C136.377 72.7869 136.377 72.6044 136.02 72.6114C135.663 72.6185 135.663 72.4781 135.306 72.4921C134.949 72.5062 134.963 72.808 134.606 72.822C134.249 72.836 134.249 72.8009 133.899 72.808C133.549 72.815 133.542 72.6536 133.185 72.6676C132.828 72.6816 132.835 72.7237 132.479 72.7308C132.122 72.7378 132.129 72.7869 131.772 72.7939C131.415 72.8009 131.415 72.7308 131.065 72.7378C130.715 72.7448 130.715 72.8922 130.365 72.9062C130.015 72.9203 130.008 72.7308 129.651 72.7378C129.294 72.7448 129.301 72.9203 128.944 72.9343C128.587 72.9483 128.587 72.7448 128.23 72.7518C127.874 72.7588 127.874 72.6746 127.524 72.6886C127.174 72.7027 127.174 72.9132 126.817 72.9273C126.46 72.9413 126.46 72.815 126.103 72.829C125.746 72.8431 125.753 72.9483 125.396 72.9553C125.039 72.9624 125.039 72.8501 124.689 72.8571C124.339 72.8641 124.332 72.9343 123.982 72.9413C123.632 72.9483 123.625 72.9975 123.269 73.0115C122.912 73.0255 122.905 72.815 122.548 72.829C122.191 72.8431 122.198 73.0887 121.841 73.1027" fill="white"/>
<path d="M139.561 72.6536C139.211 72.6606 139.204 72.443 138.847 72.45C138.49 72.457 138.49 72.443 138.14 72.45C137.79 72.457 137.79 72.7027 137.44 72.7097C137.091 72.7167 137.091 72.7729 136.734 72.7799C136.377 72.7869 136.377 72.6044 136.02 72.6114C135.663 72.6185 135.663 72.4781 135.306 72.4921C134.949 72.5062 134.963 72.808 134.606 72.822C134.249 72.836 134.249 72.8009 133.899 72.808C133.549 72.815 133.542 72.6536 133.185 72.6676C132.828 72.6816 132.835 72.7237 132.479 72.7308C132.122 72.7378 132.129 72.7869 131.772 72.7939C131.415 72.8009 131.415 72.7308 131.065 72.7378C130.715 72.7448 130.715 72.8922 130.365 72.9062C130.015 72.9203 130.008 72.7308 129.651 72.7378C129.294 72.7448 129.301 72.9203 128.944 72.9343C128.587 72.9483 128.587 72.7448 128.23 72.7518C127.874 72.7588 127.874 72.6746 127.524 72.6886C127.174 72.7027 127.174 72.9132 126.817 72.9273C126.46 72.9413 126.46 72.815 126.103 72.829C125.746 72.8431 125.753 72.9483 125.396 72.9553C125.039 72.9624 125.039 72.8501 124.689 72.8571C124.339 72.8641 124.332 72.9343 123.982 72.9413C123.632 72.9483 123.625 72.9975 123.269 73.0115C122.912 73.0255 122.905 72.815 122.548 72.829C122.191 72.8431 122.198 73.0887 121.841 73.1027" stroke="#181C56" stroke-miterlimit="10" stroke-linecap="round"/>
<path d="M118.727 60.6172C117.411 61.5998 116.256 62.7999 115.437 64.2317C115.402 64.3019 115.318 64.3229 115.255 64.2808C115.199 64.2457 115.178 64.1755 115.199 64.1124C115.85 62.5332 117.117 61.2138 118.629 60.4347C118.734 60.3786 118.832 60.54 118.727 60.6102V60.6172Z" fill="#181C56"/>
<path d="M122.765 61.5995C121.323 62.6663 120.029 63.9998 119.28 65.6562C119.252 65.7263 119.168 65.7614 119.098 65.7263C119.035 65.6983 119.007 65.6281 119.028 65.5649C119.602 63.7682 121.015 62.2944 122.667 61.4311C122.772 61.375 122.87 61.5364 122.765 61.5995Z" fill="#181C56"/>
<path d="M124.262 169.093C121.917 175.122 116.003 179.641 109.509 179.901C108.949 179.943 108.858 179.101 109.418 179.024C114.275 178.196 118.642 175.522 121.63 171.598C122.316 170.693 122.988 169.724 123.52 168.742C123.758 168.307 124.443 168.623 124.262 169.086V169.093Z" fill="#181C56"/>
<path d="M109.468 169.682C109.468 169.682 110.133 177.585 112.814 178.785" stroke="#181C56" stroke-miterlimit="10" stroke-linecap="round"/>
<path d="M117.977 165.822C117.935 165.457 121.098 169.528 121.378 173.206" stroke="#181C56" stroke-miterlimit="10" stroke-linecap="round"/>
<path d="M93.8401 161.619C93.7491 162.117 93.5181 162.075 93.4272 162.566C93.3362 163.057 93.4481 163.085 93.3502 163.577C93.2522 164.068 93.1682 164.054 93.0702 164.552C92.9722 165.051 93.0702 165.065 92.9792 165.563C92.8883 166.061 93.0142 166.082 92.9163 166.581C92.8183 167.079 92.8043 167.072 92.7063 167.57C92.6083 168.069 92.3844 168.026 92.2934 168.518C92.2024 169.009 92.3494 169.044 92.2584 169.542C92.1674 170.041 92.1674 170.041 92.0764 170.532C91.9855 171.023 91.9435 171.023 91.8525 171.515C91.7615 172.006 91.6915 171.999 91.6005 172.497C91.5096 172.995 91.6005 173.009 91.5096 173.508C91.4186 174.006 91.4816 174.02 91.3906 174.511C91.2996 175.003 91.0827 174.968 90.9917 175.466C90.9007 175.964 90.9777 175.978 90.8797 176.477C90.7817 176.975 90.9567 177.01 90.8657 177.501C90.7747 177.992 90.5928 177.964 90.4948 178.463C90.3968 178.961 90.3618 178.954 90.2778 179.452C90.2358 179.761 90.3268 180.105 90.3058 180.456C90.2848 180.772 90.1309 181.095 90.1309 181.439C90.1309 181.754 90.2498 182.084 90.2638 182.428C90.2778 182.744 90.3968 183.067 90.4178 183.411C90.4388 183.734 90.2288 184.077 90.2568 184.414C90.2848 184.751 90.5368 185.039 90.5718 185.376C90.6068 185.713 90.5718 186.036 90.6138 186.365C90.6557 186.695 90.7117 187.011 90.7607 187.341C90.8097 187.671 90.7327 188.008 90.7817 188.338C90.8307 188.667 90.9497 188.976 91.0057 189.306C91.0617 189.636 91.2156 189.938 91.2716 190.261C91.3276 190.583 91.2156 190.941 91.2716 191.264C91.3276 191.587 91.6145 191.868 91.6775 192.191C91.7405 192.513 91.6355 192.864 91.7055 193.194C91.7755 193.524 91.8105 193.847 91.8735 194.17C91.9365 194.493 92.0764 194.801 92.1394 195.124C92.2024 195.447 92.2514 195.77 92.3214 196.093C92.3914 196.416 92.5803 196.71 92.6503 197.033C92.7203 197.356 92.8323 197.672 92.9093 197.995C92.9862 198.318 92.8463 198.69 92.9163 199.012C92.9862 199.335 93.1892 199.63 93.2592 199.953C93.3292 200.276 93.4761 200.585 93.5531 200.9C93.6301 201.216 93.6091 201.567 93.6791 201.89C93.7491 202.213 93.6931 202.564 93.7631 202.887C93.8331 203.209 93.945 203.525 94.015 203.848C94.085 204.171 94.358 204.452 94.4279 204.775C94.4979 205.097 94.337 205.476 94.4069 205.792C94.4769 206.108 94.6729 206.417 94.7429 206.733C94.8129 207.049 94.9458 207.371 95.0088 207.687C95.0718 208.003 95.1208 208.347 95.1908 208.663C95.2608 208.979 95.3727 209.308 95.4357 209.624C95.4987 209.94 95.5617 210.284 95.6247 210.6C95.6877 210.916 95.7297 211.26 95.7926 211.582C95.8556 211.919 95.7926 212.263 95.8556 212.579C95.9116 212.916 95.9466 213.246 95.9956 213.555C96.0516 213.898 96.0516 214.228 96.0936 214.537C96.1356 214.881 96.3105 215.197 96.3385 215.499C96.3665 215.997 96.4085 215.997 96.4295 216.495C96.4505 216.994 96.3665 216.994 96.3875 217.492C96.4085 217.99 96.3385 217.99 96.3595 218.488C96.3805 218.987 96.5275 218.98 96.5485 219.478C96.5695 219.976 96.5345 219.976 96.5485 220.475C96.5625 220.973 96.6115 220.973 96.6325 221.464C96.6535 221.956 96.6675 221.963 96.6885 222.461C96.7095 222.959 96.5065 222.966 96.5275 223.464C96.5485 223.963 96.7584 223.956 96.7794 224.454C96.8004 224.952 96.5905 224.959 96.6115 225.458C96.6325 225.956 96.6325 225.956 96.6535 226.454C96.6745 226.953 96.8004 226.946 96.8214 227.444C96.8424 227.942 96.8494 227.942 96.8704 228.441C96.8914 228.939 96.7724 228.946 96.7934 229.444C96.8144 229.942 96.9334 229.935 96.9474 230.434C96.9614 230.932 96.7864 230.939 96.8004 231.437C96.8144 231.936 96.8004 231.936 96.8144 232.434C96.8284 232.932 96.8914 232.932 96.9054 233.431C96.9194 233.929 97.0944 233.922 97.1084 234.42C97.1224 234.918 97.0244 234.918 97.0384 235.417C97.0524 235.915 97.1714 235.908 97.1923 236.406C97.2133 236.905 97.0944 236.912 97.1154 237.403C97.1364 237.894 97.2553 237.894 97.2693 238.393C97.2833 238.891 97.1224 238.898 97.1434 239.396C97.1643 239.894 97.3463 239.887 97.3673 240.386C97.3883 240.884 97.3113 240.884 97.3253 241.382C97.3393 241.881 97.1714 241.888 97.1853 242.386C97.1993 242.884 97.2273 242.884 97.2483 243.383C97.2693 243.881 97.4023 243.874 97.4233 244.372C97.4443 244.87 97.5283 244.871 97.5493 245.362C97.5703 245.853 97.4513 245.867 97.4723 246.365C97.4933 246.864 97.3743 246.871 97.3883 247.369C97.4023 247.867 97.6123 247.86 97.6333 248.359C97.6542 248.857 97.5633 248.857 97.5843 249.355C97.6053 249.854 97.5003 249.861 97.5213 250.359C97.5423 250.857 97.6612 250.85 97.6822 251.348C97.7032 251.847 97.7872 251.847 97.8082 252.345C97.8292 252.843 97.6752 252.85 97.6892 253.349C97.7032 253.847 97.6892 253.847 97.7032 254.345C97.7172 254.844 97.7942 254.844 97.8082 255.342C97.8222 255.84 97.7732 255.84 97.7942 256.339C97.8152 256.837 97.7942 256.837 97.8152 257.335C97.8362 257.833 97.9832 257.826 98.0042 258.325C98.0252 258.823 97.8502 258.83 97.8712 259.328C97.8922 259.827 98.0602 259.82 98.0742 260.318C98.0882 260.816 98.1022 260.816 98.1231 261.315C98.1441 261.813 98.0952 261.813 98.1162 262.311C98.1371 262.809 98.0602 262.809 98.0812 263.308C98.1022 263.806 98.1721 263.806 98.1931 264.304C98.2141 264.803 98.2841 264.796 98.3051 265.294C98.3261 265.792 98.2351 265.792 98.2491 266.291C98.2631 266.789 98.2631 266.789 98.2771 267.287C98.2911 267.785 98.3681 267.785 98.3891 268.277C98.4101 268.768 98.2281 268.782 98.2491 269.28C98.2701 269.779 98.4171 269.772 98.4381 270.277C98.4591 270.782 98.4871 270.775 98.5081 271.274C98.5291 271.772 98.4031 271.779 98.4241 272.277C98.4451 272.776 98.3541 272.776 98.3681 273.274C98.3821 273.772 98.4241 273.772 98.4381 274.27C98.4521 274.769 98.585 274.762 98.599 275.26C98.613 275.758 98.4661 275.765 98.4801 276.264C98.4941 276.762 98.739 276.755 98.753 277.253C98.767 277.752 98.788 277.752 98.809 278.25C98.83 278.748 98.767 278.748 98.788 279.246C98.809 279.745 98.788 279.745 98.809 280.243C98.83 280.741 98.893 280.741 98.914 281.24C98.935 281.738 98.753 281.745 98.767 282.243C98.781 282.742 98.9 282.735 98.921 283.24C98.942 283.745 98.97 283.738 98.984 284.237C98.998 284.735 98.97 284.735 98.991 285.24C99.012 285.745 98.872 285.745 98.893 286.244C98.914 286.742 99.033 286.742 99.0539 287.24C99.0749 287.739 99.019 287.739 99.04 288.244C99.0609 288.749 99.2079 288.735 99.2219 289.241C99.2359 289.746 99.005 289.746 99.026 290.244C99.0469 290.743 99.1939 290.736 99.2149 291.234C99.2359 291.732 99.2499 291.732 99.2639 292.237C99.2779 292.743 99.2009 292.743 99.2219 293.241C99.2429 293.739 99.2709 293.739 99.2849 294.238C99.2989 294.736 99.1869 294.743 99.2079 295.241C99.2289 295.74 99.3689 295.733 99.3829 296.238C99.3969 296.743 99.2499 296.743 99.2639 297.249C99.2779 297.754 99.4319 297.747 99.4459 298.245C99.4599 298.743 99.2569 298.793 99.4459 299.263C99.6348 299.733 99.8378 299.179 100.482 299.214C100.762 299.228 101.105 299.214 101.482 299.228C101.79 299.242 102.119 299.368 102.476 299.382C102.791 299.396 103.12 299.565 103.47 299.579C103.792 299.593 104.128 299.445 104.478 299.452C104.8 299.466 105.129 299.607 105.472 299.614C105.801 299.621 106.136 299.431 106.479 299.438C106.822 299.445 107.137 299.628 107.48 299.635C107.823 299.642 108.145 299.663 108.481 299.663C108.817 299.663 109.146 299.48 109.482 299.487C109.818 299.494 110.147 299.452 110.483 299.452C110.818 299.452 111.147 299.6 111.49 299.593C111.833 299.586 112.162 299.698 112.498 299.691C112.834 299.684 113.163 299.438 113.499 299.431C113.835 299.424 114.171 299.438 114.507 299.431C114.843 299.424 115.185 299.537 115.514 299.523C115.843 299.508 116.186 299.459 116.515 299.445C116.844 299.431 117.187 299.375 117.516 299.354C117.845 299.333 118.195 299.368 118.524 299.34C118.853 299.312 119.112 299.228 119.434 299.2C119.63 298.743 119.63 298.743 119.686 298.245C119.742 297.747 119.609 297.733 119.665 297.235C119.721 296.736 119.874 296.757 119.93 296.259C119.986 295.761 120.056 295.768 120.112 295.269C120.168 294.771 120 294.75 120.063 294.259C120.126 293.767 120.21 293.774 120.273 293.276C120.336 292.778 120.245 292.771 120.308 292.273C120.371 291.774 120.455 291.788 120.511 291.29C120.567 290.792 120.518 290.785 120.574 290.293C120.63 289.802 120.595 289.795 120.651 289.297C120.707 288.798 120.868 288.819 120.924 288.321C120.98 287.823 120.791 287.802 120.847 287.304C120.903 286.805 121.008 286.819 121.064 286.321C121.12 285.823 121.001 285.809 121.057 285.31C121.113 284.812 121.197 284.826 121.253 284.328C121.309 283.829 121.204 283.815 121.26 283.317C121.316 282.819 121.547 282.847 121.61 282.349C121.673 281.85 121.484 281.829 121.54 281.331C121.596 280.833 121.61 280.833 121.666 280.334C121.722 279.836 121.701 279.836 121.764 279.338C121.827 278.839 121.827 278.839 121.89 278.341C121.953 277.843 122.009 277.85 122.065 277.352C122.121 276.853 122.1 276.853 122.156 276.355C122.212 275.857 122.247 275.864 122.303 275.365C122.359 274.867 122.359 274.867 122.415 274.369C122.471 273.87 122.485 273.87 122.541 273.372C122.597 272.874 122.66 272.881 122.716 272.382C122.772 271.884 122.835 271.891 122.891 271.393C122.947 270.895 122.765 270.874 122.821 270.375C122.877 269.877 122.975 269.891 123.038 269.393C123.101 268.894 123.066 268.894 123.122 268.396C123.178 267.898 123.29 267.912 123.353 267.413C123.416 266.915 123.164 266.887 123.227 266.389C123.29 265.89 123.514 265.919 123.57 265.42C123.626 264.922 123.507 264.908 123.57 264.41C123.633 263.911 123.703 263.918 123.766 263.42C123.829 262.922 123.843 262.922 123.899 262.423C123.955 261.925 123.99 261.932 124.053 261.434C124.116 260.936 123.871 260.907 123.927 260.409C123.983 259.911 124.074 259.918 124.137 259.42C124.2 258.921 124.137 258.914 124.193 258.416C124.249 257.918 124.34 257.925 124.403 257.426C124.466 256.928 124.473 256.928 124.528 256.43C124.584 255.931 124.584 255.931 124.64 255.433C124.696 254.935 124.773 254.942 124.836 254.444C124.899 253.945 124.696 253.924 124.752 253.426C124.808 252.928 124.969 252.949 125.025 252.45C125.081 251.952 125.123 251.959 125.179 251.461C125.235 250.962 125.228 250.962 125.284 250.464C125.34 249.966 125.228 249.952 125.284 249.454C125.34 248.955 125.333 248.955 125.389 248.457C125.445 247.959 125.536 247.966 125.592 247.467C125.648 246.969 125.697 246.976 125.753 246.478C125.809 245.979 125.802 245.979 125.858 245.481C125.914 244.983 125.781 244.969 125.837 244.47C125.893 243.972 125.872 243.972 125.935 243.474C125.998 242.976 126.061 242.983 126.117 242.484C126.173 241.986 126.25 241.993 126.306 241.495C126.362 240.996 126.166 240.975 126.222 240.477C126.278 239.979 126.292 239.979 126.355 239.48C126.418 238.982 126.572 239.003 126.635 238.505C126.698 238.007 126.761 238.014 126.817 237.515C126.873 237.017 126.824 237.01 126.88 236.512C126.936 236.013 126.859 236.006 126.915 235.501C126.971 234.996 127.104 235.017 127.16 234.518C127.216 234.02 127.013 233.999 127.076 233.494C127.139 232.988 127.272 233.009 127.328 232.511C127.384 232.013 127.398 232.013 127.454 231.515C127.51 231.016 127.51 231.016 127.573 230.518C127.636 230.02 127.594 230.013 127.657 229.514C127.72 229.016 127.811 229.023 127.874 228.525C127.937 228.026 127.916 228.026 127.972 227.521C128.028 227.016 128.049 227.023 128.112 226.524C128.175 226.026 128.112 226.019 128.175 225.521C128.238 225.023 128.203 225.016 128.266 224.517C128.329 224.019 128.329 224.019 128.392 223.521C128.455 223.022 128.42 223.022 128.483 222.524C128.546 222.026 128.469 222.019 128.532 221.52C128.595 221.022 128.693 221.036 128.749 220.538C128.805 220.04 128.644 220.018 128.707 219.52C128.77 219.022 128.938 219.043 128.994 218.538C129.05 218.032 129.092 218.046 129.148 217.541C129.203 217.036 129.057 217.022 129.113 216.523C129.168 216.025 129.134 216.018 129.189 215.52C129.245 215.021 129.189 215.014 129.252 214.516C129.315 214.018 129.525 214.046 129.581 213.541C129.637 213.035 129.532 213.028 129.588 212.53C129.644 212.032 129.637 212.032 129.693 211.526C129.749 211.021 129.798 211.035 129.854 210.53C129.91 210.024 129.833 210.024 129.889 209.519C129.945 209.014 129.973 209.021 130.029 208.522C130.085 208.024 130.155 208.031 130.211 207.533C130.267 207.034 130.169 207.02 130.232 206.522C130.295 206.024 130.365 206.031 130.428 205.533C130.491 205.034 130.456 205.027 130.519 204.529C130.582 204.031 130.659 204.038 130.722 203.539C130.785 203.041 130.722 203.034 130.785 202.536C130.848 202.037 130.757 202.023 130.813 201.525C130.869 201.027 131.03 201.041 131.086 200.543C131.142 200.044 131.177 200.044 131.233 199.546C131.289 199.048 131.233 199.041 131.296 198.542C131.359 198.044 131.317 198.037 131.373 197.539C131.429 197.04 131.499 197.047 131.555 196.542C131.611 196.037 131.527 196.03 131.59 195.531C131.653 195.033 131.66 195.033 131.716 194.528C131.772 194.022 131.828 194.029 131.884 193.531C131.94 193.033 131.884 193.026 131.94 192.521C131.996 192.015 132.066 192.029 132.122 191.524C132.178 191.019 132.052 191.005 132.108 190.506C132.164 190.008 132.115 190.001 132.178 189.496C132.22 189.152 132.367 188.822 132.416 188.485C132.465 188.148 132.458 187.797 132.514 187.453C132.57 187.109 132.71 186.787 132.766 186.45C132.822 186.113 132.871 185.769 132.934 185.432C132.997 185.095 132.948 184.73 133.018 184.393C133.088 184.056 133.333 183.755 133.41 183.418C133.487 183.081 133.515 182.737 133.599 182.4C133.683 182.063 133.774 181.733 133.864 181.403C133.955 181.074 134.011 180.73 134.102 180.4C134.193 180.07 134.389 179.768 134.487 179.438C134.627 178.968 134.466 178.919 134.606 178.456C134.746 177.992 134.837 178.014 134.977 177.543C135.117 177.073 135.145 177.08 135.285 176.617C135.425 176.154 135.488 176.168 135.628 175.697C135.768 175.227 135.516 175.157 135.656 174.687C135.796 174.217 135.894 174.245 136.034 173.781C136.174 173.318 136.09 173.29 136.23 172.82C136.37 172.35 136.405 172.364 136.545 171.894C136.685 171.423 136.657 171.416 136.797 170.946C136.937 170.476 136.972 170.49 137.112 170.02C137.252 169.549 137.427 169.606 137.567 169.135C137.707 168.665 137.49 168.602 137.63 168.132C137.77 167.661 137.959 167.718 138.099 167.247" stroke="#181C56" stroke-width="1.5" stroke-miterlimit="10" stroke-linecap="round"/>
</svg>
