<?xml version="1.0" encoding="utf-8"?>
<!-- Generator: Adobe Illustrator 22.0.1, SVG Export Plug-In . SVG Version: 6.00 Build 0)  -->
<svg version="1.1" id="Layer_1" xmlns="http://www.w3.org/2000/svg" xmlns:xlink="http://www.w3.org/1999/xlink" x="0px" y="0px"
	 viewBox="0 0 16 16" enable-background="new 0 0 16 16" xml:space="preserve">
<title>Icon/Text/Bold</title>
<desc>Created with Sketch.</desc>
<g id="Icon_x2F_Text_x2F_Bold">
	<g id="Icon-Fill">
		<path id="path-1_1_" fill="#181C56" d="M9.00024,12.99999H7.00017v-4h2.00007c1.10504,0,2.00007,0.895,2.00007,2
			S10.10528,12.99999,9.00024,12.99999L9.00024,12.99999z M7.00017,2.99999h1.00003c1.10504,0,2.00007,0.895,2.00007,2
			c0,1.104-0.89503,2-2.00007,2H7.00017V2.99999z M11.56133,7.31599c0.96503-0.707,1.56205-1.888,1.41805-3.207
			c-0.19801-1.804-1.83606-3.109-3.65013-3.109H2v1l1.44705,0.724c0.33901,0.169,0.55302,0.515,0.55302,0.894v8.764
			c0,0.379-0.21401,0.725-0.55302,0.894L2,13.99999v1h7.82327c2.10307,0,3.98014-1.548,4.16114-3.643
			C14.14142,9.55099,13.09638,7.96799,11.56133,7.31599L11.56133,7.31599z"/>
	</g>
</g>
</svg>
