<?xml version="1.0" encoding="utf-8"?>
<!-- Generator: Adobe Illustrator 22.0.1, SVG Export Plug-In . SVG Version: 6.00 Build 0)  -->
<svg version="1.1" id="Layer_1" xmlns="http://www.w3.org/2000/svg" xmlns:xlink="http://www.w3.org/1999/xlink" x="0px" y="0px"
	 viewBox="0 0 16 16" enable-background="new 0 0 16 16" xml:space="preserve">
<title>Icon/Text/BulletList</title>
<desc>Created with Sketch.</desc>
<g id="Icon_x2F_Text_x2F_BulletList">
	<g id="Icon-Fill">
		<path id="path-1_1_" fill="#181C56" d="M2.75,0.99999c0.96688,0,1.75,0.78313,1.75,1.75s-0.78312,1.75-1.75,1.75
			S1,3.71686,1,2.74999S1.78313,0.99999,2.75,0.99999z M2.75,6.24999c0.96688,0,1.75,0.78312,1.75,1.75s-0.78312,1.75-1.75,1.75
			S1,8.96686,1,7.99999S1.78313,6.24999,2.75,6.24999z M6.25,1.87499H15v1.75H6.25V1.87499z M6.25,7.12499H15v1.75H6.25V7.12499z
			 M2.75,11.49999c0.96688,0,1.75,0.78312,1.75,1.75s-0.78312,1.75-1.75,1.75S1,14.21686,1,13.24999S1.78313,11.49999,2.75,11.49999
			z M6.25,12.37499H15v1.75H6.25V12.37499z"/>
	</g>
</g>
</svg>
