<?xml version="1.0" encoding="utf-8"?>
<!-- Generator: Adobe Illustrator 22.0.1, SVG Export Plug-In . SVG Version: 6.00 Build 0)  -->
<svg version="1.1" id="Layer_1" xmlns="http://www.w3.org/2000/svg" xmlns:xlink="http://www.w3.org/1999/xlink" x="0px" y="0px"
	 viewBox="0 0 16 16" enable-background="new 0 0 16 16" xml:space="preserve">
<title>Icon/Text/Link</title>
<desc>Created with Sketch.</desc>
<g id="Icon_x2F_Text_x2F_Link">
	<g id="Icon-Fill">
		<path id="path-1_1_" fill="#181C56" d="M11.87554,9.91064l-1.18977-1.18977l1.96959-1.97561
			c0.88105-0.92616,0.88105-2.38055-0.00301-3.30771c-0.44504-0.46709-1.03642-0.72669-1.67491-0.74173
			c-0.63849-0.01403-1.2439,0.22051-1.70498,0.66154L7.30689,5.34198L6.1101,4.1462l1.96859-1.98663
			c1.59372-1.5456,4.08853-1.5456,5.67924-0.00301c0.01604,0.01503,0.03107,0.03007,0.04611,0.04611
			c1.57267,1.57166,1.59973,4.13264,0.04911,5.73738L11.87554,9.91064z M4.12497,6.1211l1.18977,1.18977L3.34415,9.28748
			c-0.88105,0.92516-0.88105,2.37955,0.00301,3.30671c0.44604,0.46609,1.03742,0.72569,1.67591,0.74173
			c0.63749,0.01403,1.2429-0.22051,1.70498-0.66054l1.96558-1.98663l1.19579,1.19679l-1.96859,1.98763
			c-1.59372,1.5446-4.08753,1.5446-5.67824,0.002c-0.01604-0.01503-0.03107-0.03007-0.04611-0.0451
			C0.62381,12.25741,0.59574,9.69744,2.14636,8.0917L4.12497,6.1211z M6.73656,10.55283L5.56884,9.38511L9.8839,5.07105
			l1.16772,1.16772L6.73656,10.55283z"/>
	</g>
</g>
</svg>
