<?xml version="1.0" encoding="utf-8"?>
<!-- Generator: Adobe Illustrator 22.0.1, SVG Export Plug-In . SVG Version: 6.00 Build 0)  -->
<svg version="1.1" id="Layer_1" xmlns="http://www.w3.org/2000/svg" xmlns:xlink="http://www.w3.org/1999/xlink" x="0px" y="0px"
	 viewBox="0 0 16 16" enable-background="new 0 0 16 16" xml:space="preserve">
<title>Icon/Text/Unlink</title>
<desc>Created with Sketch.</desc>
<g id="Icon_x2F_Text_x2F_Unlink">
	<g id="Icon-Fill">
		<path id="path-1_1_" fill="#181C56" d="M11.5009,9.90946l-1.13503-1.13503l1.87993-1.88566
			c0.83956-0.88259,0.83956-2.27006-0.00287-3.15552c-0.42552-0.44464-0.98969-0.6923-1.5988-0.70665
			C10.03597,3.01225,9.45842,3.23601,9.0176,3.6577L7.14245,5.55101L6.00073,4.40929L7.8797,2.51406
			c1.52039-1.47353,3.89946-1.47353,5.41698-0.00191c0.0153,0.01339,0.02964,0.02869,0.04399,0.04303
			c1.50031,1.50031,1.52612,3.94345,0.04781,5.47435L11.5009,9.90946z M4.10703,6.29371l1.13503,1.13503L3.36214,9.31345
			c-0.83956,0.88355-0.83956,2.27102,0.00382,3.15648c0.42456,0.44464,0.98873,0.6923,1.59784,0.70665
			c0.60911,0.01339,1.18667-0.20941,1.62653-0.6311l1.87515-1.89331l1.14172,1.14173l-1.87801,1.89427
			c-1.52039,1.47449-3.90042,1.47449-5.41794,0.00191c-0.0153-0.01339-0.02964-0.02773-0.04399-0.04303
			c-1.50031-1.49935-1.52613-3.94249-0.04781-5.4734L4.10703,6.29371z M6.59884,10.52201L5.48485,9.40802L9.60041,5.2915
			l1.11495,1.114L6.59884,10.52201z M0.9998,2.11398l1.11495-1.11399L4.9595,3.84474L3.84455,4.95873L0.9998,2.11398z
			 M11.0401,12.15428l1.11495-1.114l2.84475,2.84475l-1.11495,1.11399L11.0401,12.15428z"/>
	</g>
</g>
</svg>
