<svg width="720" height="353" viewBox="0 0 720 353" fill="none" xmlns="http://www.w3.org/2000/svg">
<rect width="720" height="352" transform="translate(0 0.914062)" fill="#F6F6F9"/>
<rect x="360" y="1" width="360" height="352" fill="#181C56"/>
<path fill-rule="evenodd" clip-rule="evenodd" d="M563.339 114.562L570.756 121.979L559.998 132.731C561.232 134.63 562.219 136.715 562.909 138.941C564.711 140.246 566.412 141.696 568.002 143.275L577.642 133.634L585.059 141.05L574.584 151.523C578.675 158.015 581.38 165.678 582.414 173.944L597.19 173.948V184.437L582.817 184.44C582.327 194.457 579.287 203.77 574.423 211.458L585.059 222.102L577.642 229.519L567.859 219.744C560.678 227.01 551.43 231.599 541.252 232.074L539.5 232.115C528.633 232.115 518.732 227.425 511.141 219.744L501.358 229.519L493.941 222.102L504.576 211.458C499.713 203.77 496.673 194.457 496.183 184.44L481.81 184.437V173.948L496.61 173.947C497.68 165.793 500.439 158.16 504.536 151.652L493.941 141.05L501.358 133.634L511.084 143.362C512.649 141.777 514.317 140.316 516.08 138.996C516.763 136.752 517.756 134.647 519.002 132.731L508.244 121.979L515.661 114.562L526.438 125.337C530.24 122.902 534.73 121.503 539.5 121.503C544.27 121.503 548.76 122.902 552.562 125.337L563.339 114.562ZM519.929 149.416L519.589 149.719C519.222 150.061 518.861 150.413 518.507 150.773L518.787 151.063L515.202 154.63C509.82 161.837 506.602 171.361 506.602 181.576C506.602 192.079 510.001 201.638 515.479 208.781L518.787 212.09L518.556 212.319C522.997 216.816 528.395 219.928 534.259 221.104L534.263 155.312C530.857 154.653 527.434 153.396 524.043 151.701C522.481 150.92 521.098 150.137 519.929 149.416ZM559.157 149.358L558.926 149.504C557.789 150.201 556.455 150.952 554.957 151.701C551.566 153.396 548.143 154.653 544.736 155.312L544.741 221.104C550.604 219.928 556.003 216.816 560.444 212.319L560.213 212.09L563.521 208.781C568.999 201.638 572.397 192.079 572.397 181.576C572.397 171.56 569.53 162.408 564.565 155.402L560.213 151.063L560.584 150.692C560.12 150.232 559.644 149.788 559.157 149.358ZM539.5 131.992C533.754 131.992 528.673 135.609 526.53 140.872L526.449 141.084L527.596 141.73L528.734 142.319C532.539 144.222 536.271 145.341 539.5 145.341C542.729 145.341 546.461 144.222 550.266 142.319C551.055 141.925 551.785 141.531 552.442 141.154L552.544 141.084L552.47 140.872C550.47 135.96 545.91 132.481 540.64 132.039L539.5 131.992Z" fill="white"/>
<path d="M207.572 150.602L177.625 180.548L164.428 167.352L157.322 174.458L174.072 191.208C176.034 193.17 179.216 193.17 181.178 191.208L214.678 157.708L207.572 150.602Z" fill="#181C56"/>
<path fill-rule="evenodd" clip-rule="evenodd" d="M132.393 126.926C129.618 126.926 127.368 129.176 127.368 131.951V157.013C127.368 159.209 128.794 161.151 130.889 161.808C135.653 163.302 139.1 167.755 139.1 172.999C139.1 178.243 135.653 182.695 130.889 184.189C128.794 184.846 127.368 186.788 127.368 188.984V214.045C127.368 216.821 129.618 219.07 132.393 219.07H239.605C242.381 219.07 244.63 216.821 244.63 214.045V188.984C244.63 186.788 243.205 184.846 241.109 184.189C236.346 182.695 232.9 178.243 232.9 172.999C232.9 167.755 236.346 163.303 241.109 161.808C243.205 161.151 244.63 159.21 244.63 157.014V131.951C244.63 129.176 242.381 126.926 239.605 126.926H132.393ZM137.418 153.675V136.976H234.58V153.675C227.613 157.304 222.85 164.59 222.85 172.999C222.85 181.407 227.613 188.693 234.58 192.322V209.02H137.418V192.323C144.386 188.694 149.15 181.408 149.15 172.999C149.15 164.59 144.386 157.303 137.418 153.675Z" fill="#181C56"/>
</svg>
