<?xml version="1.0" encoding="utf-8"?>
<!-- Generator: Adobe Illustrator 22.0.1, SVG Export Plug-In . SVG Version: 6.00 Build 0)  -->
<svg version="1.1" id="Layer_1" xmlns="http://www.w3.org/2000/svg" xmlns:xlink="http://www.w3.org/1999/xlink" x="0px" y="0px"
	 viewBox="0 0 16 16" enable-background="new 0 0 16 16" xml:space="preserve">
<title>Icon/UI/Chat</title>
<desc>Created with Sketch.</desc>
<g id="Icon_x2F_UI_x2F_Chat">
	<g id="Icon-Fill">
		<path id="path-1_1_" fill="#181C56" d="M14.14917,4.73332C14.61883,4.73332,15,5.11661,15,5.58887v5.98889
			c0,0.47227-0.38117,0.85556-0.85083,0.85556h-1.70166v2.56667l-2.55249-2.56667H5.64088l1.55532-1.71111h5.25131
			c0.46966,0,0.85083-0.38329,0.85083-0.85556V4.73332H14.14917z M1.85083,0.99999h8.50829
			c0.46966,0,0.85083,0.38329,0.85083,0.85556v5.98889c0,0.47227-0.38117,0.85556-0.85083,0.85556H6.10497l-2.55249,2.56667V8.69999
			H1.85083C1.38117,8.69999,1,8.3167,1,7.84443V1.85554C1,1.38327,1.38117,0.99999,1.85083,0.99999z"/>
	</g>
</g>
</svg>
