<?xml version="1.0" encoding="utf-8"?>
<!-- Generator: Adobe Illustrator 22.0.1, SVG Export Plug-In . SVG Version: 6.00 Build 0)  -->
<svg version="1.1" id="Layer_1" xmlns="http://www.w3.org/2000/svg" xmlns:xlink="http://www.w3.org/1999/xlink" x="0px" y="0px"
	 viewBox="0 0 16 16" enable-background="new 0 0 16 16" xml:space="preserve">
<title>Icon/UI/Color</title>
<desc>Created with Sketch.</desc>
<g id="Icon_x2F_UI_x2F_Color">
	<path id="Icon-Fill" fill="#181C56" d="M11.50517,9.23756c-0.96297,0-1.75086-0.77931-1.75086-1.73179
		c0-0.95249,0.78789-1.73179,1.75086-1.73179s1.75086,0.77931,1.75086,1.73179C13.25604,8.45825,12.46815,9.23756,11.50517,9.23756
		 M8.87888,12.70114c-0.52526,0-0.87543-0.34636-0.87543-0.8659c0-0.51954,0.35017-0.8659,0.87543-0.8659
		c0.52526,0,0.87543,0.34636,0.87543,0.8659C9.75431,12.35478,9.40414,12.70114,8.87888,12.70114 M5.37716,10.96935
		c-0.52526,0-0.87543-0.34636-0.87543-0.8659c0-0.51954,0.35017-0.8659,0.87543-0.8659s0.87543,0.34636,0.87543,0.8659
		C6.25259,10.62299,5.90241,10.96935,5.37716,10.96935 M3.62629,7.50576c-0.52526,0-0.87543-0.34636-0.87543-0.8659
		s0.35017-0.8659,0.87543-0.8659s0.87543,0.34636,0.87543,0.8659S4.15155,7.50576,3.62629,7.50576 M13.16849,3.869
		c-3.15155-1.47202-5.77785,1.55861-7.00345,0c-0.43772-0.60613,0.6128-1.73179,0-2.5111
		c-0.43772-0.51954-1.48823-0.43295-2.10104,0C2.2256,2.65675,1,4.7349,1,7.07282c0,3.80994,3.15155,6.92717,7.00345,6.92717
		c3.2391,0,5.95293-2.16474,6.74082-5.10879C15.09444,7.93871,15.44462,4.99467,13.16849,3.869"/>
</g>
</svg>
