<?xml version="1.0" encoding="utf-8"?>
<!-- Generator: Adobe Illustrator 22.0.1, SVG Export Plug-In . SVG Version: 6.00 Build 0)  -->
<svg version="1.1" id="Layer_1" xmlns="http://www.w3.org/2000/svg" xmlns:xlink="http://www.w3.org/1999/xlink" x="0px" y="0px"
	 viewBox="0 0 16 16" enable-background="new 0 0 16 16" xml:space="preserve">
<title>Icon/UI/Configuration</title>
<desc>Created with Sketch.</desc>
<g id="Icon_x2F_UI_x2F_Configuration">
	<path id="Icon-Fill" fill="#181C56" d="M12.55423,5.5307l-2.09637-2.0911l2.09637-2.0911
		c-0.43674-0.26139-0.96084-0.34852-1.48493-0.34852c-2.18372,0-3.9307,1.74258-3.9307,3.92081
		c0,0.43565,0.08735,0.78416,0.1747,1.21981l-5.76502,4.26933c-0.69879,0.52277-0.69879,1.48119-0.1747,2.0911l2.00902,2.0911
		c0.61144,0.6099,1.57228,0.52277,2.09637-0.17426l4.28009-5.75052c0.43674,0.08713,0.87349,0.17426,1.31023,0.17426
		C13.25302,8.8416,15,7.09902,15,4.92079c0-0.52277-0.08735-1.04555-0.26205-1.48119L12.55423,5.5307z"/>
</g>
</svg>
