<?xml version="1.0" encoding="utf-8"?>
<!-- Generator: Adobe Illustrator 22.0.1, SVG Export Plug-In . SVG Version: 6.00 Build 0)  -->
<svg version="1.1" id="Layer_1" xmlns="http://www.w3.org/2000/svg" xmlns:xlink="http://www.w3.org/1999/xlink" x="0px" y="0px"
	 viewBox="0 0 16 16" enable-background="new 0 0 16 16" xml:space="preserve">
<title>Icon/UI/Delete</title>
<desc>Created with Sketch.</desc>
<g id="Icon_x2F_UI_x2F_Delete">
	<g id="Icon-Fill">
		<path id="path-1_1_" fill="#181C56" d="M5.375,7.12499h1.75v5.25h-1.75V7.12499z M8.875,7.12499h1.75v5.25h-1.75V7.12499z
			 M11.5,1.87499c0-0.525-0.35-0.875-0.875-0.875h-5.25c-0.525,0-0.875,0.35-0.875,0.875v1.75H1v1.75h0.875v8.75
			c0,0.525,0.35,0.875,0.875,0.875h10.5c0.525,0,0.875-0.35,0.875-0.875v-8.75H15v-1.75h-3.5V1.87499z M6.25,2.74999h3.5v0.875h-3.5
			V2.74999z M12.375,5.37499v7.875h-8.75v-7.875H12.375z"/>
	</g>
</g>
</svg>
