<?xml version="1.0" encoding="utf-8"?>
<!-- Generator: Adobe Illustrator 22.0.1, SVG Export Plug-In . SVG Version: 6.00 Build 0)  -->
<svg version="1.1" id="Layer_1" xmlns="http://www.w3.org/2000/svg" xmlns:xlink="http://www.w3.org/1999/xlink" x="0px" y="0px"
	 viewBox="0 0 16 16" enable-background="new 0 0 16 16" xml:space="preserve">
<title>Icon/UI/Edit</title>
<desc>Created with Sketch.</desc>
<g id="Icon_x2F_UI_x2F_Edit">
	<g id="Icon-Fill">
		<path id="path-1_1_" fill="#181C56" d="M11.2375,1.26249c-0.35-0.35-0.875-0.35-1.225,0l-8.75,8.75
			C1.0875,10.18749,1,10.36249,1,10.62499v3.5c0,0.525,0.35,0.875,0.875,0.875h3.5c0.2625,0,0.4375-0.0875,0.6125-0.2625l8.75-8.75
			c0.35-0.35,0.35-0.875,0-1.225L11.2375,1.26249z M5.025,13.24999H2.75v-2.275l5.25-5.25l2.275,2.275L5.025,13.24999z
			 M11.5,6.77499l-2.275-2.275l1.4-1.4l2.275,2.275L11.5,6.77499z"/>
	</g>
</g>
</svg>
