<?xml version="1.0" encoding="utf-8"?>
<!-- Generator: Adobe Illustrator 22.0.1, SVG Export Plug-In . SVG Version: 6.00 Build 0)  -->
<svg version="1.1" id="Layer_1" xmlns="http://www.w3.org/2000/svg" xmlns:xlink="http://www.w3.org/1999/xlink" x="0px" y="0px"
	 viewBox="0 0 16 16" enable-background="new 0 0 16 16" xml:space="preserve">
<title>Icon/UI/Suitcase</title>
<desc>Created with Sketch.</desc>
<g id="Icon_x2F_UI_x2F_Suitcase">
	<g id="Icon-Fill">
		<path id="path-1_1_" fill="#181C56" d="M14.125,12.37499H9.75c0,0.525-0.35,0.875-0.875,0.875h-1.75
			c-0.525,0-0.875-0.35-0.875-0.875H1.875v1.75c0,0.525,0.35,0.875,0.875,0.875h10.5c0.525,0,0.875-0.35,0.875-0.875V12.37499
			 M14.125,4.49999H11.5v-2.625c0-0.525-0.35-0.875-0.875-0.875h-5.25c-0.525,0-0.875,0.35-0.875,0.875v2.625H1.875
			c-0.525,0-0.875,0.35-0.875,0.875v5.25c0,0.525,0.35,0.875,0.875,0.875H6.25v-0.875c0-0.525,0.35-0.875,0.875-0.875h1.75
			c0.525,0,0.875,0.35,0.875,0.875v0.875h4.375c0.525,0,0.875-0.35,0.875-0.875v-5.25C15,4.84999,14.65,4.49999,14.125,4.49999
			L14.125,4.49999z M6.25,2.74999h3.5v1.75h-3.5V2.74999z"/>
	</g>
</g>
</svg>
