<?xml version="1.0" encoding="utf-8"?>
<!-- Generator: Adobe Illustrator 22.0.1, SVG Export Plug-In . SVG Version: 6.00 Build 0)  -->
<svg version="1.1" id="Layer_1" xmlns="http://www.w3.org/2000/svg" xmlns:xlink="http://www.w3.org/1999/xlink" x="0px" y="0px"
	 viewBox="0 0 16 16" enable-background="new 0 0 16 16" xml:space="preserve">
<title>Icon/UI/Unview</title>
<desc>Created with Sketch.</desc>
<g id="Icon_x2F_UI_x2F_Unview">
	<g id="Icon-Fill">
		<path id="path-1_1_" fill="#181C56" d="M13.75265,5.96061c0.69825,0.84175,1.09463,1.53826,1.13576,1.61263
			c0.14963,0.266,0.14875,0.5915-0.00088,0.85751c-0.11112,0.196-2.76852,4.81953-6.88716,4.81953
			c-0.47513,0-0.92838-0.0665-1.36238-0.175l1.58813-1.58813c2.37214-0.14438,4.2009-2.49814,4.8659-3.48689
			c-0.14263-0.21263-0.34213-0.49-0.58538-0.79363L13.75265,5.96061z M1.2567,14.74391
			c-0.34213-0.34213-0.34213-0.89513-0.00087-1.23638l2.21289-2.21289C2.02583,10.00488,1.17358,8.5375,1.11233,8.42812
			c-0.14875-0.26513-0.14963-0.588-0.00175-0.85313c0.10938-0.19688,2.72914-4.82478,6.88979-4.82478
			c1.16463,0,2.20064,0.37713,3.10452,0.90826l2.40189-2.40189c0.34213-0.34213,0.89513-0.34213,1.23726,0
			s0.34213,0.89513,0,1.23726L2.49396,14.74391c-0.17063,0.17063-0.39463,0.25638-0.61863,0.25638
			C1.65133,15.00028,1.42733,14.91453,1.2567,14.74391z M2.90871,7.99937C3.23947,8.492,3.87472,9.3215,4.71035,10.05301
			l1.60476-1.60476c-0.03938-0.1435-0.06475-0.29225-0.06475-0.448c0-0.96688,0.78313-1.75001,1.75001-1.75001
			c0.15575,0,0.3045,0.02538,0.448,0.06475l1.37026-1.37026c-0.56088-0.26863-1.16901-0.4445-1.81826-0.4445
			C5.5031,4.50022,3.58859,6.98086,2.90871,7.99937z"/>
	</g>
</g>
</svg>
