<svg width="42" height="66" viewBox="0 0 42 66" fill="none" xmlns="http://www.w3.org/2000/svg">
<path d="M12.0107 9.75767C12.0107 10.0577 12.0695 10.3377 12.0205 10.6277C11.9714 10.9177 11.9322 11.2077 11.8439 11.4777C11.7556 11.7477 11.8439 12.1277 11.7164 12.3877C11.5889 12.6477 11.1769 12.7477 11.0101 12.9877C10.8433 13.2277 10.5785 13.3477 10.3725 13.5577C10.1665 13.7677 10.0586 14.0477 9.82314 14.2177C9.58772 14.3877 9.44057 14.6977 9.17572 14.8277C8.91086 14.9577 8.60678 14.9677 8.33212 15.0577C8.05745 15.1477 7.81221 15.3977 7.52773 15.4377C7.24326 15.4777 6.93917 15.3377 6.64489 15.3377C6.3506 15.3377 6.08574 15.1877 5.81108 15.1377C5.53641 15.0877 5.27157 15.0077 4.99691 14.9177C4.72224 14.8277 4.50642 14.6677 4.25138 14.5377C3.99633 14.4077 3.60396 14.5177 3.36853 14.3377C3.1331 14.1577 2.91728 13.9577 2.71128 13.7477C2.50529 13.5377 2.35815 13.2777 2.19138 13.0377C2.02462 12.7977 2.05405 12.4577 1.91672 12.1977C1.77939 11.9377 1.39682 11.7877 1.30854 11.5077C1.22025 11.2277 1.0535 10.9377 1.00445 10.6477C0.955401 10.3577 1.32815 10.0377 1.32815 9.73768C1.32815 9.43768 1.29874 9.16767 1.34779 8.87767C1.39683 8.58767 1.24969 8.24767 1.34779 7.97767C1.44588 7.70767 1.64206 7.45767 1.76958 7.19767C1.89711 6.93767 2.16197 6.76769 2.32873 6.52769C2.49549 6.28769 2.59357 6.00769 2.79957 5.80769C3.00556 5.60769 3.26063 5.47769 3.49606 5.30769C3.73149 5.13769 3.91787 4.90769 4.17291 4.77769C4.42796 4.64769 4.68299 4.51768 4.95766 4.42768C5.23232 4.33768 5.47757 4.05768 5.76204 4.01768C6.04652 3.97768 6.36042 4.21769 6.65471 4.21769C6.94899 4.21769 7.22364 4.24767 7.49831 4.28767C7.77297 4.32767 8.07706 4.31766 8.35172 4.40766C8.62639 4.49766 8.9501 4.49767 9.20514 4.62767C9.46019 4.75767 9.676 4.99767 9.91143 5.16767C10.1469 5.33767 10.3627 5.53769 10.5687 5.74769C10.7747 5.95769 11.0493 6.11768 11.2259 6.35768C11.4025 6.59768 11.5594 6.86767 11.687 7.12767C11.8145 7.38767 11.8341 7.71769 11.9224 7.99769C12.0107 8.27769 11.8929 8.59768 11.942 8.88768C11.991 9.17768 12.0205 9.44768 12.0205 9.73768L12.0107 9.75767Z" fill="#F2F2F5"/>
<path d="M12.0107 9.75767C12.0107 10.0577 12.0695 10.3377 12.0205 10.6277C11.9714 10.9177 11.9322 11.2077 11.8439 11.4777C11.7556 11.7477 11.8439 12.1277 11.7164 12.3877C11.5889 12.6477 11.1769 12.7477 11.0101 12.9877C10.8433 13.2277 10.5785 13.3477 10.3725 13.5577C10.1665 13.7677 10.0586 14.0477 9.82314 14.2177C9.58772 14.3877 9.44057 14.6977 9.17572 14.8277C8.91086 14.9577 8.60678 14.9677 8.33212 15.0577C8.05745 15.1477 7.81221 15.3977 7.52773 15.4377C7.24326 15.4777 6.93917 15.3377 6.64489 15.3377C6.3506 15.3377 6.08574 15.1877 5.81108 15.1377C5.53641 15.0877 5.27157 15.0077 4.99691 14.9177C4.72224 14.8277 4.50642 14.6677 4.25138 14.5377C3.99633 14.4077 3.60396 14.5177 3.36853 14.3377C3.1331 14.1577 2.91728 13.9577 2.71128 13.7477C2.50529 13.5377 2.35815 13.2777 2.19138 13.0377C2.02462 12.7977 2.05405 12.4577 1.91672 12.1977C1.77939 11.9377 1.39682 11.7877 1.30854 11.5077C1.22025 11.2277 1.0535 10.9377 1.00445 10.6477C0.955401 10.3577 1.32815 10.0377 1.32815 9.73768C1.32815 9.43768 1.29874 9.16767 1.34779 8.87767C1.39683 8.58767 1.24969 8.24767 1.34779 7.97767C1.44588 7.70767 1.64206 7.45767 1.76958 7.19767C1.89711 6.93767 2.16197 6.76769 2.32873 6.52769C2.49549 6.28769 2.59357 6.00769 2.79957 5.80769C3.00556 5.60769 3.26063 5.47769 3.49606 5.30769C3.73149 5.13769 3.91787 4.90769 4.17291 4.77769C4.42796 4.64769 4.68299 4.51768 4.95766 4.42768C5.23232 4.33768 5.47757 4.05768 5.76204 4.01768C6.04652 3.97768 6.36042 4.21769 6.65471 4.21769C6.94899 4.21769 7.22364 4.24767 7.49831 4.28767C7.77297 4.32767 8.07706 4.31766 8.35172 4.40766C8.62639 4.49766 8.9501 4.49767 9.20514 4.62767C9.46019 4.75767 9.676 4.99767 9.91143 5.16767C10.1469 5.33767 10.3627 5.53769 10.5687 5.74769C10.7747 5.95769 11.0493 6.11768 11.2259 6.35768C11.4025 6.59768 11.5594 6.86767 11.687 7.12767C11.8145 7.38767 11.8341 7.71769 11.9224 7.99769C12.0107 8.27769 11.8929 8.59768 11.942 8.88768C11.991 9.17768 12.0205 9.44768 12.0205 9.73768L12.0107 9.75767Z" stroke="#5E5F6C" stroke-width="1.5" stroke-linecap="round" stroke-linejoin="round"/>
<path d="M30.0901 6.7277C30.0901 7.0277 30.2372 7.3477 30.1882 7.6377C30.1391 7.9277 29.6879 8.11771 29.5996 8.39771C29.5113 8.67771 29.58 9.0077 29.4525 9.2677C29.3249 9.5277 29.1974 9.79771 29.0307 10.0277C28.8639 10.2577 28.6187 10.4277 28.4127 10.6377C28.2067 10.8477 27.9418 10.9377 27.7064 11.1077C27.471 11.2777 27.3336 11.5677 27.0688 11.6977C26.8039 11.8277 26.5194 11.8577 26.2448 11.9477C25.9701 12.0377 25.7543 12.3977 25.4698 12.4477C25.1854 12.4977 24.8714 12.1377 24.5772 12.1377C24.2829 12.1377 23.9788 12.3977 23.7041 12.3577C23.4295 12.3177 23.1352 12.1877 22.8703 12.0977C22.6055 12.0077 22.3406 11.8477 22.0954 11.7077C21.8501 11.5677 21.4774 11.5777 21.2518 11.4077C21.0262 11.2377 21.0556 10.7477 20.8496 10.5377C20.6436 10.3277 20.2708 10.2877 20.0942 10.0477C19.9177 9.8077 19.7607 9.5577 19.6234 9.2977C19.4861 9.0377 19.5645 8.6977 19.4762 8.4177C19.3879 8.1377 19.1722 7.8977 19.1231 7.6077C19.0741 7.3177 19.2702 7.0277 19.2702 6.7277C19.2702 6.4277 19.2212 6.15771 19.2702 5.86771C19.3193 5.57771 19.2506 5.26771 19.3389 4.98771C19.4272 4.70771 19.5253 4.4277 19.6528 4.1677C19.7803 3.9077 20.0354 3.71771 20.2022 3.48771C20.3689 3.25771 20.5945 3.08769 20.8005 2.87769C21.0065 2.66769 21.1635 2.43771 21.3989 2.26771C21.6343 2.09771 21.8109 1.83771 22.0659 1.70771C22.321 1.57771 22.6447 1.62769 22.9194 1.53769C23.194 1.44769 23.4393 1.3077 23.7237 1.2577C24.0082 1.2077 24.2829 1.1677 24.5772 1.1677C24.8714 1.1677 25.1854 0.957696 25.4698 1.0077C25.7543 1.0577 25.9799 1.4177 26.2448 1.5077C26.5096 1.5977 26.7156 1.8177 26.9707 1.9477C27.2257 2.0777 27.5298 2.09772 27.7554 2.27772C27.981 2.45772 28.3244 2.50772 28.5206 2.71772C28.7167 2.92772 28.8247 3.22772 28.9914 3.46772C29.1582 3.70772 29.4623 3.86769 29.5996 4.12769C29.7369 4.38769 29.6879 4.73771 29.7762 5.01771C29.8645 5.29771 29.8056 5.5977 29.8448 5.8877C29.8841 6.1777 30.0606 6.44771 30.0606 6.73771L30.0901 6.7277Z" fill="#F2F2F5"/>
<path d="M30.0901 6.7277C30.0901 7.0277 30.2372 7.3477 30.1882 7.6377C30.1391 7.9277 29.6879 8.11771 29.5996 8.39771C29.5113 8.67771 29.58 9.0077 29.4525 9.2677C29.3249 9.5277 29.1974 9.79771 29.0307 10.0277C28.8639 10.2577 28.6187 10.4277 28.4127 10.6377C28.2067 10.8477 27.9418 10.9377 27.7064 11.1077C27.471 11.2777 27.3336 11.5677 27.0688 11.6977C26.8039 11.8277 26.5194 11.8577 26.2448 11.9477C25.9701 12.0377 25.7543 12.3977 25.4698 12.4477C25.1854 12.4977 24.8714 12.1377 24.5772 12.1377C24.2829 12.1377 23.9788 12.3977 23.7041 12.3577C23.4295 12.3177 23.1352 12.1877 22.8703 12.0977C22.6055 12.0077 22.3406 11.8477 22.0954 11.7077C21.8501 11.5677 21.4774 11.5777 21.2518 11.4077C21.0262 11.2377 21.0556 10.7477 20.8496 10.5377C20.6436 10.3277 20.2708 10.2877 20.0942 10.0477C19.9177 9.8077 19.7607 9.5577 19.6234 9.2977C19.4861 9.0377 19.5645 8.6977 19.4762 8.4177C19.3879 8.1377 19.1722 7.8977 19.1231 7.6077C19.0741 7.3177 19.2702 7.0277 19.2702 6.7277C19.2702 6.4277 19.2212 6.15771 19.2702 5.86771C19.3193 5.57771 19.2506 5.26771 19.3389 4.98771C19.4272 4.70771 19.5253 4.4277 19.6528 4.1677C19.7803 3.9077 20.0354 3.71771 20.2022 3.48771C20.3689 3.25771 20.5945 3.08769 20.8005 2.87769C21.0065 2.66769 21.1635 2.43771 21.3989 2.26771C21.6343 2.09771 21.8109 1.83771 22.0659 1.70771C22.321 1.57771 22.6447 1.62769 22.9194 1.53769C23.194 1.44769 23.4393 1.3077 23.7237 1.2577C24.0082 1.2077 24.2829 1.1677 24.5772 1.1677C24.8714 1.1677 25.1854 0.957696 25.4698 1.0077C25.7543 1.0577 25.9799 1.4177 26.2448 1.5077C26.5096 1.5977 26.7156 1.8177 26.9707 1.9477C27.2257 2.0777 27.5298 2.09772 27.7554 2.27772C27.981 2.45772 28.3244 2.50772 28.5206 2.71772C28.7167 2.92772 28.8247 3.22772 28.9914 3.46772C29.1582 3.70772 29.4623 3.86769 29.5996 4.12769C29.7369 4.38769 29.6879 4.73771 29.7762 5.01771C29.8645 5.29771 29.8056 5.5977 29.8448 5.8877C29.8841 6.1777 30.0606 6.44771 30.0606 6.73771L30.0901 6.7277Z" stroke="#5E5F6C" stroke-width="1.5" stroke-linecap="round" stroke-linejoin="round"/>
<path d="M24.6448 29.0277C24.7331 28.7177 24.9881 28.3577 25.2333 28.1977C25.459 28.0477 25.8611 28.1877 26.1849 28.1477C26.4497 28.1177 26.7342 28.1477 27.0481 28.1777C27.3227 28.1977 27.617 28.1777 27.9113 28.2377C28.186 28.2877 28.441 28.4877 28.7255 28.5677C29.0002 28.6377 29.2552 28.7977 29.5397 28.8877C29.8242 28.9777 30.1871 28.7377 30.4716 28.8377C30.7561 28.9377 30.9621 29.2177 31.2367 29.3177C31.5114 29.4177 31.8743 29.2977 32.149 29.4077C32.4237 29.5177 32.6002 29.8777 32.8749 29.9777C33.1496 30.0777 33.4439 30.1477 33.7185 30.2577C33.9932 30.3677 34.3365 30.3077 34.6014 30.4177C34.8858 30.5377 35.033 30.9477 35.2978 31.0577C35.5921 31.1777 35.8864 31.2277 36.1415 31.3277C36.4456 31.4477 36.7791 31.4077 37.0145 31.4777C37.299 31.5677 37.6619 31.4677 37.917 31.5877C38.172 31.7077 38.4467 31.9077 38.6723 32.0777C38.8979 32.2477 38.9568 32.6677 39.1628 32.8677C39.3688 33.0677 39.6729 33.1877 39.8494 33.4177C40.026 33.6477 40.3301 33.8277 40.4674 34.0777C40.6048 34.3277 40.5067 34.7177 40.6048 34.9977C40.7028 35.2777 40.9088 35.5277 40.9677 35.8177C41.0266 36.1077 40.9873 36.4177 40.9873 36.7177C40.9873 37.0177 40.9383 37.3077 40.8991 37.5977C40.8598 37.8877 40.7127 38.1477 40.6244 38.4277C40.5361 38.7077 40.6636 39.0877 40.5459 39.3477C40.4282 39.6077 39.9279 39.6577 39.7612 39.8977C39.5944 40.1377 39.5551 40.4577 39.359 40.6677C39.1628 40.8777 38.9764 41.1077 38.7508 41.2877C38.5252 41.4677 38.2799 41.6277 38.0347 41.7677C37.7894 41.9077 37.5148 42.0077 37.2401 42.0977C36.9654 42.1877 36.6712 42.1477 36.3867 42.1977C36.1022 42.2477 35.8472 42.2877 35.5529 42.2977C35.2586 42.3077 35.0035 42.2777 34.7191 42.2377C34.4346 42.1977 34.0913 42.4577 33.8068 42.3677C33.5714 42.2977 33.3458 42.0277 33.0711 41.8577C32.8455 41.7177 32.5512 41.6377 32.306 41.4477C32.0901 41.2777 31.943 40.9977 31.7174 40.7977C31.5114 40.6177 31.1681 40.5477 30.9522 40.3377C30.7561 40.1377 30.864 39.6177 30.6678 39.3977C30.4716 39.1777 30.1282 39.1277 29.9321 38.9077C29.7359 38.6877 29.5299 38.4977 29.3435 38.2677C29.1571 38.0377 29.0492 37.7577 28.8726 37.5377C28.6961 37.3177 28.6176 37.0077 28.441 36.7777C28.2645 36.5477 27.9505 36.4177 27.7838 36.1877C27.617 35.9577 27.5287 35.6577 27.3718 35.4077C27.2148 35.1577 26.7832 35.0977 26.6263 34.8577C26.4693 34.6177 26.6753 34.1377 26.538 33.8877C26.4007 33.6377 25.9788 33.5377 25.8513 33.2777C25.714 33.0077 25.6257 32.7177 25.508 32.4677C25.3805 32.1877 25.3216 31.8977 25.2235 31.6377C25.1156 31.3477 24.8115 31.1277 24.7429 30.8677C24.6644 30.5577 25.0273 30.1977 24.9979 29.9377C24.9685 29.6177 24.5761 29.2877 24.6448 29.0377V29.0277Z" fill="#F2F2F5"/>
<path d="M24.6448 29.0277C24.7331 28.7177 24.9881 28.3577 25.2333 28.1977C25.459 28.0477 25.8611 28.1877 26.1849 28.1477C26.4497 28.1177 26.7342 28.1477 27.0481 28.1777C27.3227 28.1977 27.617 28.1777 27.9113 28.2377C28.186 28.2877 28.441 28.4877 28.7255 28.5677C29.0002 28.6377 29.2552 28.7977 29.5397 28.8877C29.8242 28.9777 30.1871 28.7377 30.4716 28.8377C30.7561 28.9377 30.9621 29.2177 31.2367 29.3177C31.5114 29.4177 31.8743 29.2977 32.149 29.4077C32.4237 29.5177 32.6002 29.8777 32.8749 29.9777C33.1496 30.0777 33.4439 30.1477 33.7185 30.2577C33.9932 30.3677 34.3365 30.3077 34.6014 30.4177C34.8858 30.5377 35.033 30.9477 35.2978 31.0577C35.5921 31.1777 35.8864 31.2277 36.1415 31.3277C36.4456 31.4477 36.7791 31.4077 37.0145 31.4777C37.299 31.5677 37.6619 31.4677 37.917 31.5877C38.172 31.7077 38.4467 31.9077 38.6723 32.0777C38.8979 32.2477 38.9568 32.6677 39.1628 32.8677C39.3688 33.0677 39.6729 33.1877 39.8494 33.4177C40.026 33.6477 40.3301 33.8277 40.4674 34.0777C40.6048 34.3277 40.5067 34.7177 40.6048 34.9977C40.7028 35.2777 40.9088 35.5277 40.9677 35.8177C41.0266 36.1077 40.9873 36.4177 40.9873 36.7177C40.9873 37.0177 40.9383 37.3077 40.8991 37.5977C40.8598 37.8877 40.7127 38.1477 40.6244 38.4277C40.5361 38.7077 40.6636 39.0877 40.5459 39.3477C40.4282 39.6077 39.9279 39.6577 39.7612 39.8977C39.5944 40.1377 39.5551 40.4577 39.359 40.6677C39.1628 40.8777 38.9764 41.1077 38.7508 41.2877C38.5252 41.4677 38.2799 41.6277 38.0347 41.7677C37.7894 41.9077 37.5148 42.0077 37.2401 42.0977C36.9654 42.1877 36.6712 42.1477 36.3867 42.1977C36.1022 42.2477 35.8472 42.2877 35.5529 42.2977C35.2586 42.3077 35.0035 42.2777 34.7191 42.2377C34.4346 42.1977 34.0913 42.4577 33.8068 42.3677C33.5714 42.2977 33.3458 42.0277 33.0711 41.8577C32.8455 41.7177 32.5512 41.6377 32.306 41.4477C32.0901 41.2777 31.943 40.9977 31.7174 40.7977C31.5114 40.6177 31.1681 40.5477 30.9522 40.3377C30.7561 40.1377 30.864 39.6177 30.6678 39.3977C30.4716 39.1777 30.1282 39.1277 29.9321 38.9077C29.7359 38.6877 29.5299 38.4977 29.3435 38.2677C29.1571 38.0377 29.0492 37.7577 28.8726 37.5377C28.6961 37.3177 28.6176 37.0077 28.441 36.7777C28.2645 36.5477 27.9505 36.4177 27.7838 36.1877C27.617 35.9577 27.5287 35.6577 27.3718 35.4077C27.2148 35.1577 26.7832 35.0977 26.6263 34.8577C26.4693 34.6177 26.6753 34.1377 26.538 33.8877C26.4007 33.6377 25.9788 33.5377 25.8513 33.2777C25.714 33.0077 25.6257 32.7177 25.508 32.4677C25.3805 32.1877 25.3216 31.8977 25.2235 31.6377C25.1156 31.3477 24.8115 31.1277 24.7429 30.8677C24.6644 30.5577 25.0273 30.1977 24.9979 29.9377C24.9685 29.6177 24.5761 29.2877 24.6448 29.0377V29.0277Z" stroke="#5E5F6C" stroke-width="1.5" stroke-linecap="round" stroke-linejoin="round"/>
<path d="M31.1977 38.4377C31.1977 38.7277 31.2664 39.0277 31.2467 39.3077C31.2271 39.5877 31.1683 39.8877 31.129 40.1777C31.0898 40.4677 30.5699 40.6477 30.511 40.9277C30.4522 41.2077 30.9525 41.6376 30.8642 41.9176C30.7759 42.1976 30.1186 42.2577 30.0205 42.5277C29.9225 42.7977 30.2658 43.2577 30.1481 43.5177C30.0304 43.7777 29.6772 43.9176 29.5399 44.1676C29.4026 44.4176 29.226 44.6376 29.069 44.8776C28.9121 45.1176 28.8532 45.4277 28.6767 45.6477C28.5001 45.8677 28.2254 46.0077 28.039 46.2177C27.8527 46.4277 27.7644 46.7476 27.5584 46.9476C27.3524 47.1476 27.2641 47.4977 27.0483 47.6777C26.8325 47.8577 26.2341 47.5177 25.9987 47.6777C25.7633 47.8377 25.8417 48.4876 25.5965 48.6376C25.3513 48.7876 25.0079 48.7576 24.7529 48.8776C24.4978 48.9976 24.2722 49.2277 24.0172 49.3277C23.7621 49.4277 23.4875 49.5576 23.2128 49.6376C22.9381 49.7176 22.5948 49.5177 22.3201 49.5777C22.0455 49.6377 21.7414 49.4876 21.4667 49.5376C21.192 49.5876 20.9664 50.1677 20.6918 50.1877C20.4171 50.2077 20.113 49.6077 19.8285 49.6077C19.5441 49.6077 19.2498 50.0977 18.9751 50.0777C18.7005 50.0577 18.416 49.8876 18.1413 49.8476C17.8666 49.8076 17.5429 49.9177 17.2682 49.8577C16.9936 49.7977 16.8661 49.1677 16.6012 49.0877C16.3364 49.0077 16.0323 49.0577 15.7772 48.9577C15.5222 48.8577 15.3162 48.6377 15.0611 48.5177C14.8061 48.3977 14.4628 48.4777 14.2175 48.3277C13.9723 48.1777 13.7761 47.9776 13.5407 47.8176C13.3052 47.6576 13.2071 47.3376 12.9913 47.1576C12.7755 46.9776 12.5695 46.8176 12.3635 46.6276C12.1575 46.4376 11.9712 46.2477 11.775 46.0477C11.5788 45.8477 11.1276 45.8777 10.951 45.6477C10.7744 45.4177 10.4801 45.2776 10.3232 45.0376C10.1662 44.7976 10.4899 44.2576 10.3526 44.0076C10.2153 43.7576 9.62671 43.7577 9.50899 43.4977C9.39128 43.2377 9.14604 43.0077 9.04795 42.7477C8.94985 42.4877 8.91061 42.1677 8.83214 41.8977C8.75366 41.6277 8.89099 41.2777 8.83214 40.9977C8.77328 40.7177 8.8027 40.4276 8.76346 40.1376C8.72423 39.8476 8.94004 39.5577 8.92042 39.2677C8.9008 38.9777 8.56726 38.7177 8.56726 38.4277C8.56726 38.1377 8.51822 37.8476 8.53784 37.5676C8.55745 37.2876 8.7929 37.0177 8.83214 36.7377C8.87138 36.4577 8.55747 36.0976 8.61633 35.8176C8.67518 35.5376 8.89098 35.2876 8.96945 35.0076C9.04793 34.7276 9.50897 34.5977 9.60706 34.3377C9.70516 34.0777 9.53841 33.6877 9.65613 33.4377C9.77384 33.1877 9.91117 32.9277 10.0485 32.6777C10.1858 32.4277 10.5193 32.3177 10.6861 32.0777C10.8529 31.8377 10.6076 31.2977 10.7744 31.0777C10.9412 30.8577 11.2453 30.7077 11.4415 30.4977C11.6376 30.2877 11.9025 30.1477 12.1085 29.9577C12.3145 29.7677 12.7265 29.8277 12.9521 29.6477C13.1777 29.4677 13.3347 29.2377 13.5701 29.0777C13.8055 28.9177 13.8153 28.3877 14.0507 28.2377C14.2862 28.0877 14.7178 28.2777 14.9728 28.1477C15.2279 28.0177 15.4143 27.7477 15.6791 27.6477C15.944 27.5477 16.2775 27.6476 16.5424 27.5676C16.8072 27.4876 16.9936 27.0377 17.2682 26.9677C17.5429 26.8977 17.8372 26.8276 18.1119 26.7876C18.3865 26.7476 18.7201 27.0677 18.9947 27.0477C19.2694 27.0277 19.5539 27.0676 19.8285 27.0676C20.1032 27.0676 20.3877 26.9977 20.6721 27.0177C20.9566 27.0377 21.2019 27.2677 21.4765 27.3077C21.7512 27.3477 21.9964 27.5077 22.2613 27.5777C22.5261 27.6477 22.9185 27.2576 23.1834 27.3476C23.4482 27.4376 23.6248 27.7877 23.8896 27.8877C24.1545 27.9877 24.5371 27.8077 24.7921 27.9277C25.0472 28.0477 25.1256 28.5176 25.3611 28.6576C25.5965 28.7976 25.881 28.8776 26.1066 29.0376C26.3322 29.1976 26.7246 29.1577 26.9404 29.3377C27.1562 29.5177 27.0777 30.0477 27.2837 30.2377C27.4897 30.4277 27.7252 30.5677 27.9213 30.7777C28.1175 30.9877 28.4412 31.0676 28.6178 31.2876C28.7944 31.5076 29.2162 31.5677 29.3732 31.7977C29.5301 32.0277 29.6576 32.3176 29.795 32.5676C29.9323 32.8176 29.7067 33.2677 29.8342 33.5277C29.9617 33.7877 30.256 33.9576 30.3639 34.2276C30.4718 34.4976 30.7857 34.6977 30.8642 34.9677C30.9427 35.2377 30.7072 35.6177 30.7661 35.8977C30.8249 36.1777 31.0702 36.4277 31.1192 36.7077C31.1683 36.9877 31.0996 37.2977 31.1192 37.5777C31.1389 37.8577 31.1977 38.1577 31.1977 38.4377Z" fill="#F2F2F5"/>
<path d="M31.1977 38.4377C31.1977 38.7277 31.2664 39.0277 31.2467 39.3077C31.2271 39.5877 31.1683 39.8877 31.129 40.1777C31.0898 40.4677 30.5699 40.6477 30.511 40.9277C30.4522 41.2077 30.9525 41.6376 30.8642 41.9176C30.7759 42.1976 30.1186 42.2577 30.0205 42.5277C29.9225 42.7977 30.2658 43.2577 30.1481 43.5177C30.0304 43.7777 29.6772 43.9176 29.5399 44.1676C29.4026 44.4176 29.226 44.6376 29.069 44.8776C28.9121 45.1176 28.8532 45.4277 28.6767 45.6477C28.5001 45.8677 28.2254 46.0077 28.039 46.2177C27.8527 46.4277 27.7644 46.7476 27.5584 46.9476C27.3524 47.1476 27.2641 47.4977 27.0483 47.6777C26.8325 47.8577 26.2341 47.5177 25.9987 47.6777C25.7633 47.8377 25.8417 48.4876 25.5965 48.6376C25.3513 48.7876 25.0079 48.7576 24.7529 48.8776C24.4978 48.9976 24.2722 49.2277 24.0172 49.3277C23.7621 49.4277 23.4875 49.5576 23.2128 49.6376C22.9381 49.7176 22.5948 49.5177 22.3201 49.5777C22.0455 49.6377 21.7414 49.4876 21.4667 49.5376C21.192 49.5876 20.9664 50.1677 20.6918 50.1877C20.4171 50.2077 20.113 49.6077 19.8285 49.6077C19.5441 49.6077 19.2498 50.0977 18.9751 50.0777C18.7005 50.0577 18.416 49.8876 18.1413 49.8476C17.8666 49.8076 17.5429 49.9177 17.2682 49.8577C16.9936 49.7977 16.8661 49.1677 16.6012 49.0877C16.3364 49.0077 16.0323 49.0577 15.7772 48.9577C15.5222 48.8577 15.3162 48.6377 15.0611 48.5177C14.8061 48.3977 14.4628 48.4777 14.2175 48.3277C13.9723 48.1777 13.7761 47.9776 13.5407 47.8176C13.3052 47.6576 13.2071 47.3376 12.9913 47.1576C12.7755 46.9776 12.5695 46.8176 12.3635 46.6276C12.1575 46.4376 11.9712 46.2477 11.775 46.0477C11.5788 45.8477 11.1276 45.8777 10.951 45.6477C10.7744 45.4177 10.4801 45.2776 10.3232 45.0376C10.1662 44.7976 10.4899 44.2576 10.3526 44.0076C10.2153 43.7576 9.62671 43.7577 9.50899 43.4977C9.39128 43.2377 9.14604 43.0077 9.04795 42.7477C8.94985 42.4877 8.91061 42.1677 8.83214 41.8977C8.75366 41.6277 8.89099 41.2777 8.83214 40.9977C8.77328 40.7177 8.8027 40.4276 8.76346 40.1376C8.72423 39.8476 8.94004 39.5577 8.92042 39.2677C8.9008 38.9777 8.56726 38.7177 8.56726 38.4277C8.56726 38.1377 8.51822 37.8476 8.53784 37.5676C8.55745 37.2876 8.7929 37.0177 8.83214 36.7377C8.87138 36.4577 8.55747 36.0976 8.61633 35.8176C8.67518 35.5376 8.89098 35.2876 8.96945 35.0076C9.04793 34.7276 9.50897 34.5977 9.60706 34.3377C9.70516 34.0777 9.53841 33.6877 9.65613 33.4377C9.77384 33.1877 9.91117 32.9277 10.0485 32.6777C10.1858 32.4277 10.5193 32.3177 10.6861 32.0777C10.8529 31.8377 10.6076 31.2977 10.7744 31.0777C10.9412 30.8577 11.2453 30.7077 11.4415 30.4977C11.6376 30.2877 11.9025 30.1477 12.1085 29.9577C12.3145 29.7677 12.7265 29.8277 12.9521 29.6477C13.1777 29.4677 13.3347 29.2377 13.5701 29.0777C13.8055 28.9177 13.8153 28.3877 14.0507 28.2377C14.2862 28.0877 14.7178 28.2777 14.9728 28.1477C15.2279 28.0177 15.4143 27.7477 15.6791 27.6477C15.944 27.5477 16.2775 27.6476 16.5424 27.5676C16.8072 27.4876 16.9936 27.0377 17.2682 26.9677C17.5429 26.8977 17.8372 26.8276 18.1119 26.7876C18.3865 26.7476 18.7201 27.0677 18.9947 27.0477C19.2694 27.0277 19.5539 27.0676 19.8285 27.0676C20.1032 27.0676 20.3877 26.9977 20.6721 27.0177C20.9566 27.0377 21.2019 27.2677 21.4765 27.3077C21.7512 27.3477 21.9964 27.5077 22.2613 27.5777C22.5261 27.6477 22.9185 27.2576 23.1834 27.3476C23.4482 27.4376 23.6248 27.7877 23.8896 27.8877C24.1545 27.9877 24.5371 27.8077 24.7921 27.9277C25.0472 28.0477 25.1256 28.5176 25.3611 28.6576C25.5965 28.7976 25.881 28.8776 26.1066 29.0376C26.3322 29.1976 26.7246 29.1577 26.9404 29.3377C27.1562 29.5177 27.0777 30.0477 27.2837 30.2377C27.4897 30.4277 27.7252 30.5677 27.9213 30.7777C28.1175 30.9877 28.4412 31.0676 28.6178 31.2876C28.7944 31.5076 29.2162 31.5677 29.3732 31.7977C29.5301 32.0277 29.6576 32.3176 29.795 32.5676C29.9323 32.8176 29.7067 33.2677 29.8342 33.5277C29.9617 33.7877 30.256 33.9576 30.3639 34.2276C30.4718 34.4976 30.7857 34.6977 30.8642 34.9677C30.9427 35.2377 30.7072 35.6177 30.7661 35.8977C30.8249 36.1777 31.0702 36.4277 31.1192 36.7077C31.1683 36.9877 31.0996 37.2977 31.1192 37.5777C31.1389 37.8577 31.1977 38.1577 31.1977 38.4377Z" stroke="#5E5F6C" stroke-width="1.5" stroke-linecap="round" stroke-linejoin="round"/>
<path d="M11.7058 29.4478C12.0295 29.4678 12.314 29.5778 12.52 29.7878C12.7064 29.9778 12.9614 30.2078 13.0791 30.5178C13.1772 30.7678 13.0203 31.1278 13.0693 31.4478C13.1086 31.7178 13.4617 31.9878 13.4715 32.3078C13.4911 32.5878 13.3244 32.9078 13.3146 33.2078C13.3146 33.4978 13.0105 33.7778 13.0007 34.0878C12.9909 34.3978 13.393 34.7078 13.3734 35.0078C13.3538 35.3078 13.344 35.6078 13.3146 35.9078C13.2851 36.2078 13.1086 36.4878 13.0791 36.7878C13.0497 37.0878 13.0497 37.3878 13.0105 37.6878C12.9712 37.9878 12.7554 38.2578 12.7162 38.5478C12.677 38.8378 12.8927 39.1878 12.8535 39.4778C12.8045 39.7878 12.6475 40.0678 12.6083 40.3478C12.569 40.6678 12.3238 40.9378 12.2944 41.2078C12.2552 41.5378 12.4906 41.8578 12.471 42.1178C12.4513 42.4178 12.2846 42.7078 12.2257 42.9878C12.1669 43.2678 12.1963 43.6078 12.0982 43.8778C12.0001 44.1478 11.7745 44.3878 11.6273 44.6378C11.4802 44.8878 11.4606 45.2678 11.284 45.4878C11.1074 45.7078 10.5973 45.6378 10.3815 45.8378C10.1657 46.0378 9.94992 46.1778 9.70468 46.3378C9.45944 46.4978 9.34175 46.8678 9.07689 46.9878C8.81203 47.1078 8.4785 47.0178 8.20383 47.0878C7.92917 47.1578 7.66432 47.2378 7.37984 47.2678C7.09537 47.2978 6.8109 47.5078 6.52642 47.4878C6.24195 47.4678 5.93785 47.3978 5.66319 47.3378C5.38852 47.2778 5.09423 47.1678 4.82938 47.0678C4.56452 46.9678 4.32911 46.7578 4.08388 46.6178C3.83864 46.4778 3.48548 46.4478 3.26968 46.2578C3.05387 46.0678 3.01464 45.6778 2.81845 45.4578C2.62226 45.2378 2.53396 44.9678 2.37701 44.7278C2.22006 44.4878 1.92579 44.3278 1.80808 44.0578C1.69036 43.7878 1.76884 43.4678 1.69037 43.1878C1.61189 42.9078 1.28818 42.6778 1.25875 42.3778C1.22932 42.0778 1.12142 41.7778 1.14104 41.4778C1.15085 41.2278 1.4255 40.9578 1.52359 40.6378C1.60207 40.3878 1.70016 40.1078 1.82768 39.8278C1.93559 39.5778 1.89635 39.2278 2.04349 38.9578C2.17102 38.7078 2.66149 38.6578 2.80863 38.3978C2.94596 38.1578 2.72036 37.6678 2.88712 37.4178C3.05388 37.1678 3.20102 36.9278 3.36778 36.6878C3.53454 36.4478 4.05444 36.4778 4.23101 36.2378C4.40758 35.9978 4.45663 35.6878 4.6332 35.4578C4.80978 35.2278 4.74109 34.7978 4.91766 34.5678C5.09423 34.3378 5.41795 34.2278 5.60433 34.0078C5.79071 33.7878 6.06538 33.6378 6.25176 33.4278C6.43814 33.2178 6.53623 32.8978 6.74223 32.6878C6.94823 32.4778 7.05613 32.1678 7.26213 31.9678C7.46813 31.7678 7.73297 31.6078 7.94878 31.4178C8.1744 31.2178 8.60604 31.2978 8.83165 31.1178C9.06708 30.9278 9.15535 30.5678 9.37116 30.4078C9.6164 30.2278 9.99897 30.3178 10.2344 30.1878C10.5091 30.0378 10.6268 29.6378 10.872 29.5578C11.1761 29.4478 11.4802 29.4378 11.7254 29.4478H11.7058Z" fill="#F2F2F5"/>
<path d="M11.7058 29.4478C12.0295 29.4678 12.314 29.5778 12.52 29.7878C12.7064 29.9778 12.9614 30.2078 13.0791 30.5178C13.1772 30.7678 13.0203 31.1278 13.0693 31.4478C13.1086 31.7178 13.4617 31.9878 13.4715 32.3078C13.4911 32.5878 13.3244 32.9078 13.3146 33.2078C13.3146 33.4978 13.0105 33.7778 13.0007 34.0878C12.9909 34.3978 13.393 34.7078 13.3734 35.0078C13.3538 35.3078 13.344 35.6078 13.3146 35.9078C13.2851 36.2078 13.1086 36.4878 13.0791 36.7878C13.0497 37.0878 13.0497 37.3878 13.0105 37.6878C12.9712 37.9878 12.7554 38.2578 12.7162 38.5478C12.677 38.8378 12.8927 39.1878 12.8535 39.4778C12.8045 39.7878 12.6475 40.0678 12.6083 40.3478C12.569 40.6678 12.3238 40.9378 12.2944 41.2078C12.2552 41.5378 12.4906 41.8578 12.471 42.1178C12.4513 42.4178 12.2846 42.7078 12.2257 42.9878C12.1669 43.2678 12.1963 43.6078 12.0982 43.8778C12.0001 44.1478 11.7745 44.3878 11.6273 44.6378C11.4802 44.8878 11.4606 45.2678 11.284 45.4878C11.1074 45.7078 10.5973 45.6378 10.3815 45.8378C10.1657 46.0378 9.94992 46.1778 9.70468 46.3378C9.45944 46.4978 9.34175 46.8678 9.07689 46.9878C8.81203 47.1078 8.4785 47.0178 8.20383 47.0878C7.92917 47.1578 7.66432 47.2378 7.37984 47.2678C7.09537 47.2978 6.8109 47.5078 6.52642 47.4878C6.24195 47.4678 5.93785 47.3978 5.66319 47.3378C5.38852 47.2778 5.09423 47.1678 4.82938 47.0678C4.56452 46.9678 4.32911 46.7578 4.08388 46.6178C3.83864 46.4778 3.48548 46.4478 3.26968 46.2578C3.05387 46.0678 3.01464 45.6778 2.81845 45.4578C2.62226 45.2378 2.53396 44.9678 2.37701 44.7278C2.22006 44.4878 1.92579 44.3278 1.80808 44.0578C1.69036 43.7878 1.76884 43.4678 1.69037 43.1878C1.61189 42.9078 1.28818 42.6778 1.25875 42.3778C1.22932 42.0778 1.12142 41.7778 1.14104 41.4778C1.15085 41.2278 1.4255 40.9578 1.52359 40.6378C1.60207 40.3878 1.70016 40.1078 1.82768 39.8278C1.93559 39.5778 1.89635 39.2278 2.04349 38.9578C2.17102 38.7078 2.66149 38.6578 2.80863 38.3978C2.94596 38.1578 2.72036 37.6678 2.88712 37.4178C3.05388 37.1678 3.20102 36.9278 3.36778 36.6878C3.53454 36.4478 4.05444 36.4778 4.23101 36.2378C4.40758 35.9978 4.45663 35.6878 4.6332 35.4578C4.80978 35.2278 4.74109 34.7978 4.91766 34.5678C5.09423 34.3378 5.41795 34.2278 5.60433 34.0078C5.79071 33.7878 6.06538 33.6378 6.25176 33.4278C6.43814 33.2178 6.53623 32.8978 6.74223 32.6878C6.94823 32.4778 7.05613 32.1678 7.26213 31.9678C7.46813 31.7678 7.73297 31.6078 7.94878 31.4178C8.1744 31.2178 8.60604 31.2978 8.83165 31.1178C9.06708 30.9278 9.15535 30.5678 9.37116 30.4078C9.6164 30.2278 9.99897 30.3178 10.2344 30.1878C10.5091 30.0378 10.6268 29.6378 10.872 29.5578C11.1761 29.4478 11.4802 29.4378 11.7254 29.4478H11.7058Z" stroke="#5E5F6C" stroke-width="1.5" stroke-linecap="round" stroke-linejoin="round"/>
<path d="M15.4052 47.1179C15.6701 46.8579 16.0625 46.9879 16.4058 47.0079C16.7001 47.0179 17.1023 46.8379 17.4456 47.0179C17.7203 47.1579 18.0243 47.3679 18.3186 47.5879C18.5737 47.7879 18.6325 48.2379 18.8974 48.4879C19.1328 48.7079 19.4369 48.8879 19.6821 49.1379C19.9078 49.3779 20.3001 49.4879 20.5257 49.7479C20.7514 50.0079 20.8887 50.3379 21.1045 50.6079C21.3203 50.8779 21.4871 51.1779 21.7029 51.4479C21.9187 51.7179 22.2032 51.9279 22.419 52.1879C22.6348 52.4479 22.9192 52.6779 23.1252 52.9379C23.3411 53.2179 23.5176 53.5179 23.7138 53.7779C23.9394 54.0679 23.9787 54.4879 24.1749 54.7279C24.4201 55.0279 24.7634 55.1879 24.9596 55.3979C25.1853 55.6379 25.2343 55.9979 25.4109 56.2679C25.5874 56.5379 25.9111 56.7179 26.0387 57.0179C26.1662 57.3179 26.2741 57.6379 26.3526 57.9479C26.431 58.2579 26.5095 58.5979 26.5291 58.9179C26.5487 59.2379 26.5488 59.5879 26.5193 59.9079C26.4899 60.2279 26.4605 60.5779 26.3624 60.8879C26.2643 61.1979 26.0877 61.4979 25.9504 61.7879C25.813 62.0779 25.7051 62.4179 25.5188 62.6879C25.3324 62.9579 24.8909 62.9879 24.6555 63.2179C24.4201 63.4479 24.1847 63.6279 23.9198 63.7979C23.655 63.9679 23.4391 64.2279 23.1547 64.3579C22.8702 64.4879 22.6054 64.7479 22.2915 64.8279C21.9776 64.9079 21.644 64.9279 21.3203 64.9479C20.9966 64.9679 20.6631 65.0179 20.3394 64.9879C20.0156 64.9579 19.7017 64.8379 19.3878 64.7479C19.0739 64.6579 18.7699 64.5279 18.4854 64.3779C18.2009 64.2279 18.0734 63.8379 17.8085 63.6479C17.5437 63.4579 17.2984 63.2979 17.0728 63.0579C16.8864 62.8579 16.5529 62.7079 16.3764 62.3779C16.239 62.1179 16.1017 61.8179 15.9742 61.4879C15.8663 61.2079 15.6603 60.9179 15.5622 60.5979C15.4641 60.2979 15.4445 59.9579 15.366 59.6379C15.2875 59.3279 15.3758 58.9679 15.3071 58.6479C15.2384 58.3279 15.209 58.0079 15.1502 57.6879C15.0913 57.3679 14.9638 57.0679 14.9147 56.7379C14.8657 56.4079 14.8657 56.0879 14.8264 55.7679C14.7872 55.4479 14.4831 55.1479 14.4439 54.8279C14.4047 54.5079 14.6597 54.1479 14.6401 53.8279C14.6204 53.5079 14.3949 53.1879 14.385 52.8579C14.3752 52.5279 14.6303 52.1979 14.6303 51.8779C14.6303 51.5379 14.6499 51.2179 14.6597 50.9079C14.6793 50.5679 14.4537 50.2279 14.4929 49.9179C14.5322 49.5779 14.7774 49.2879 14.8461 48.9879C14.9245 48.6379 14.8853 48.2979 15.003 48.0279C15.1403 47.6879 15.2384 47.3179 15.4346 47.1279L15.4052 47.1179Z" fill="#F2F2F5"/>
<path d="M15.4052 47.1179C15.6701 46.8579 16.0625 46.9879 16.4058 47.0079C16.7001 47.0179 17.1023 46.8379 17.4456 47.0179C17.7203 47.1579 18.0243 47.3679 18.3186 47.5879C18.5737 47.7879 18.6325 48.2379 18.8974 48.4879C19.1328 48.7079 19.4369 48.8879 19.6821 49.1379C19.9078 49.3779 20.3001 49.4879 20.5257 49.7479C20.7514 50.0079 20.8887 50.3379 21.1045 50.6079C21.3203 50.8779 21.4871 51.1779 21.7029 51.4479C21.9187 51.7179 22.2032 51.9279 22.419 52.1879C22.6348 52.4479 22.9192 52.6779 23.1252 52.9379C23.3411 53.2179 23.5176 53.5179 23.7138 53.7779C23.9394 54.0679 23.9787 54.4879 24.1749 54.7279C24.4201 55.0279 24.7634 55.1879 24.9596 55.3979C25.1853 55.6379 25.2343 55.9979 25.4109 56.2679C25.5874 56.5379 25.9111 56.7179 26.0387 57.0179C26.1662 57.3179 26.2741 57.6379 26.3526 57.9479C26.431 58.2579 26.5095 58.5979 26.5291 58.9179C26.5487 59.2379 26.5488 59.5879 26.5193 59.9079C26.4899 60.2279 26.4605 60.5779 26.3624 60.8879C26.2643 61.1979 26.0877 61.4979 25.9504 61.7879C25.813 62.0779 25.7051 62.4179 25.5188 62.6879C25.3324 62.9579 24.8909 62.9879 24.6555 63.2179C24.4201 63.4479 24.1847 63.6279 23.9198 63.7979C23.655 63.9679 23.4391 64.2279 23.1547 64.3579C22.8702 64.4879 22.6054 64.7479 22.2915 64.8279C21.9776 64.9079 21.644 64.9279 21.3203 64.9479C20.9966 64.9679 20.6631 65.0179 20.3394 64.9879C20.0156 64.9579 19.7017 64.8379 19.3878 64.7479C19.0739 64.6579 18.7699 64.5279 18.4854 64.3779C18.2009 64.2279 18.0734 63.8379 17.8085 63.6479C17.5437 63.4579 17.2984 63.2979 17.0728 63.0579C16.8864 62.8579 16.5529 62.7079 16.3764 62.3779C16.239 62.1179 16.1017 61.8179 15.9742 61.4879C15.8663 61.2079 15.6603 60.9179 15.5622 60.5979C15.4641 60.2979 15.4445 59.9579 15.366 59.6379C15.2875 59.3279 15.3758 58.9679 15.3071 58.6479C15.2384 58.3279 15.209 58.0079 15.1502 57.6879C15.0913 57.3679 14.9638 57.0679 14.9147 56.7379C14.8657 56.4079 14.8657 56.0879 14.8264 55.7679C14.7872 55.4479 14.4831 55.1479 14.4439 54.8279C14.4047 54.5079 14.6597 54.1479 14.6401 53.8279C14.6204 53.5079 14.3949 53.1879 14.385 52.8579C14.3752 52.5279 14.6303 52.1979 14.6303 51.8779C14.6303 51.5379 14.6499 51.2179 14.6597 50.9079C14.6793 50.5679 14.4537 50.2279 14.4929 49.9179C14.5322 49.5779 14.7774 49.2879 14.8461 48.9879C14.9245 48.6379 14.8853 48.2979 15.003 48.0279C15.1403 47.6879 15.2384 47.3179 15.4346 47.1279L15.4052 47.1179Z" stroke="#5E5F6C" stroke-width="1.5" stroke-miterlimit="10" stroke-linecap="round"/>
<path d="M24.8911 46.4077C24.9892 46.0977 25.1658 45.8477 25.411 45.6977C25.6366 45.5577 25.9211 45.4077 26.2448 45.3677C26.5097 45.3377 26.8039 45.4877 27.1277 45.5177C27.4023 45.5477 27.7162 45.3977 28.0203 45.4577C28.295 45.5177 28.5598 45.6877 28.8541 45.7677C29.1288 45.8477 29.3544 46.0977 29.6389 46.1877C29.9233 46.2777 30.2765 46.1177 30.5511 46.2177C30.8258 46.3177 31.1103 46.4077 31.385 46.5177C31.6596 46.6277 31.9049 46.8077 32.1795 46.9277C32.4542 47.0477 32.7387 47.1277 33.0035 47.2377C33.2684 47.3477 33.5136 47.5677 33.7785 47.6777C34.0433 47.7877 34.3866 47.7577 34.6515 47.8777C34.936 47.9977 35.1714 48.1877 35.4363 48.2877C35.7306 48.4077 35.9562 48.6377 36.2014 48.7377C36.5055 48.8577 36.839 48.8077 37.0744 48.8877C37.3491 48.9777 37.5943 49.1677 37.8494 49.2977C38.1044 49.4277 38.3987 49.5177 38.6341 49.6877C38.8696 49.8577 39.056 50.1077 39.262 50.3077C39.4679 50.5077 39.7524 50.6677 39.9192 50.9077C40.086 51.1477 40.0271 51.5277 40.1644 51.7977C40.3018 52.0677 40.39 52.3177 40.4881 52.5977C40.5862 52.8777 40.802 53.1177 40.8511 53.4077C40.9001 53.6977 40.802 53.9977 40.802 54.2877C40.802 54.5777 40.802 54.8577 40.753 55.1577C40.7039 55.4577 40.753 55.7577 40.6745 56.0377C40.596 56.3177 40.4587 56.5977 40.3312 56.8577C40.2037 57.1177 40.0369 57.3777 39.8701 57.6077C39.7034 57.8377 39.4777 58.0377 39.2816 58.2477C39.0854 58.4577 38.9284 58.7377 38.693 58.9077C38.4576 59.0777 38.1339 59.0977 37.8788 59.2377C37.6238 59.3777 37.3491 59.4377 37.0744 59.5277C36.7998 59.6177 36.5546 59.7977 36.2701 59.8477C35.9856 59.8977 35.7011 59.8077 35.4068 59.8177C35.1126 59.8277 34.8281 59.9777 34.5338 59.9277C34.2395 59.8777 33.9452 59.8777 33.6705 59.7877C33.4253 59.7077 33.1997 59.4477 32.9054 59.2577C32.67 59.1077 32.4248 58.9277 32.1795 58.7177C31.9539 58.5377 31.6498 58.4177 31.4242 58.1977C31.2084 57.9977 31.1691 57.6077 30.9435 57.3777C30.7375 57.1677 30.3353 57.1277 30.1293 56.8977C29.9233 56.6677 29.7271 56.4377 29.531 56.1977C29.3348 55.9577 29.3544 55.5477 29.168 55.3077C28.9816 55.0677 28.7364 54.8777 28.55 54.6277C28.3636 54.3777 28.0301 54.2477 27.8535 53.9977C27.677 53.7477 27.5887 53.4277 27.4219 53.1777C27.2552 52.9277 27.1375 52.6277 26.9805 52.3677C26.8236 52.1077 26.5881 51.8877 26.441 51.6177C26.2938 51.3477 26.0682 51.1177 25.9309 50.8477C25.7838 50.5677 25.6857 50.2677 25.568 49.9977C25.4306 49.7077 25.5091 49.3377 25.4012 49.0677C25.2835 48.7677 25.0579 48.5177 24.9794 48.2477C24.8911 47.9277 24.999 47.5977 24.9794 47.3277C24.95 46.9877 24.8126 46.6877 24.8911 46.4277V46.4077Z" fill="#F2F2F5"/>
<path d="M24.8911 46.4077C24.9892 46.0977 25.1658 45.8477 25.411 45.6977C25.6366 45.5577 25.9211 45.4077 26.2448 45.3677C26.5097 45.3377 26.8039 45.4877 27.1277 45.5177C27.4023 45.5477 27.7162 45.3977 28.0203 45.4577C28.295 45.5177 28.5598 45.6877 28.8541 45.7677C29.1288 45.8477 29.3544 46.0977 29.6389 46.1877C29.9233 46.2777 30.2765 46.1177 30.5511 46.2177C30.8258 46.3177 31.1103 46.4077 31.385 46.5177C31.6596 46.6277 31.9049 46.8077 32.1795 46.9277C32.4542 47.0477 32.7387 47.1277 33.0035 47.2377C33.2684 47.3477 33.5136 47.5677 33.7785 47.6777C34.0433 47.7877 34.3866 47.7577 34.6515 47.8777C34.936 47.9977 35.1714 48.1877 35.4363 48.2877C35.7306 48.4077 35.9562 48.6377 36.2014 48.7377C36.5055 48.8577 36.839 48.8077 37.0744 48.8877C37.3491 48.9777 37.5943 49.1677 37.8494 49.2977C38.1044 49.4277 38.3987 49.5177 38.6341 49.6877C38.8696 49.8577 39.056 50.1077 39.262 50.3077C39.4679 50.5077 39.7524 50.6677 39.9192 50.9077C40.086 51.1477 40.0271 51.5277 40.1644 51.7977C40.3018 52.0677 40.39 52.3177 40.4881 52.5977C40.5862 52.8777 40.802 53.1177 40.8511 53.4077C40.9001 53.6977 40.802 53.9977 40.802 54.2877C40.802 54.5777 40.802 54.8577 40.753 55.1577C40.7039 55.4577 40.753 55.7577 40.6745 56.0377C40.596 56.3177 40.4587 56.5977 40.3312 56.8577C40.2037 57.1177 40.0369 57.3777 39.8701 57.6077C39.7034 57.8377 39.4777 58.0377 39.2816 58.2477C39.0854 58.4577 38.9284 58.7377 38.693 58.9077C38.4576 59.0777 38.1339 59.0977 37.8788 59.2377C37.6238 59.3777 37.3491 59.4377 37.0744 59.5277C36.7998 59.6177 36.5546 59.7977 36.2701 59.8477C35.9856 59.8977 35.7011 59.8077 35.4068 59.8177C35.1126 59.8277 34.8281 59.9777 34.5338 59.9277C34.2395 59.8777 33.9452 59.8777 33.6705 59.7877C33.4253 59.7077 33.1997 59.4477 32.9054 59.2577C32.67 59.1077 32.4248 58.9277 32.1795 58.7177C31.9539 58.5377 31.6498 58.4177 31.4242 58.1977C31.2084 57.9977 31.1691 57.6077 30.9435 57.3777C30.7375 57.1677 30.3353 57.1277 30.1293 56.8977C29.9233 56.6677 29.7271 56.4377 29.531 56.1977C29.3348 55.9577 29.3544 55.5477 29.168 55.3077C28.9816 55.0677 28.7364 54.8777 28.55 54.6277C28.3636 54.3777 28.0301 54.2477 27.8535 53.9977C27.677 53.7477 27.5887 53.4277 27.4219 53.1777C27.2552 52.9277 27.1375 52.6277 26.9805 52.3677C26.8236 52.1077 26.5881 51.8877 26.441 51.6177C26.2938 51.3477 26.0682 51.1177 25.9309 50.8477C25.7838 50.5677 25.6857 50.2677 25.568 49.9977C25.4306 49.7077 25.5091 49.3377 25.4012 49.0677C25.2835 48.7677 25.0579 48.5177 24.9794 48.2477C24.8911 47.9277 24.999 47.5977 24.9794 47.3277C24.95 46.9877 24.8126 46.6877 24.8911 46.4277V46.4077Z" stroke="#5E5F6C" stroke-width="1.5" stroke-linecap="round" stroke-linejoin="round"/>
<path d="M30.2072 18.0079C30.2072 18.3079 29.9718 18.5979 29.9521 18.8879C29.9325 19.1779 29.7952 19.458 29.7559 19.748C29.7167 20.038 29.6186 20.3079 29.5597 20.5979C29.5009 20.8879 29.3734 21.1379 29.2949 21.4279C29.2164 21.7179 29.6971 22.188 29.599 22.468C29.5009 22.748 29.3047 23.008 29.187 23.278C29.0693 23.548 28.8535 23.7879 28.7063 24.0479C28.5592 24.3079 28.3924 24.558 28.2355 24.808C28.0785 25.058 28.0883 25.448 27.9118 25.688C27.7352 25.928 27.5194 26.1579 27.333 26.3879C27.1466 26.6179 26.921 26.8379 26.715 27.0479C26.509 27.2579 26.1068 27.278 25.891 27.468C25.6752 27.658 25.5967 28.0579 25.3613 28.2379C25.1259 28.4179 24.6746 28.278 24.4294 28.438C24.1842 28.598 24.0566 28.9679 23.8016 29.1079C23.5465 29.2479 23.0757 28.9579 22.8109 29.0779C22.546 29.1979 22.5166 29.9079 22.2419 30.0179C21.9672 30.1279 21.6141 30.0379 21.3394 30.1279C21.0648 30.2179 20.7999 30.4479 20.5154 30.5179C20.231 30.5879 19.8484 30.1279 19.5639 30.1679C19.2794 30.2079 19.0048 30.2379 18.7105 30.2579C18.4162 30.2779 18.1416 30.4779 17.8473 30.4779C17.553 30.4779 17.2685 30.4279 16.9742 30.4079C16.6799 30.3879 16.3758 30.508 16.0914 30.468C15.8069 30.428 15.5813 30.008 15.3066 29.938C15.0319 29.868 14.7867 29.7079 14.512 29.6279C14.2374 29.5479 13.7371 30.1079 13.4722 30.0079C13.2074 29.9079 13.021 29.5279 12.7562 29.4079C12.4913 29.2879 12.3343 28.948 12.0793 28.808C11.8243 28.668 11.5986 28.498 11.3534 28.338C11.1081 28.178 10.7256 28.2179 10.5 28.0479C10.2743 27.8779 9.88196 27.8579 9.66615 27.6679C9.45034 27.4779 9.66617 26.798 9.46998 26.588C9.27379 26.378 9.03836 26.218 8.85198 25.998C8.6656 25.778 7.96914 25.9579 7.79257 25.7279C7.616 25.4979 8.04759 24.8279 7.89064 24.5779C7.73369 24.3279 7.25305 24.288 7.11572 24.028C6.97838 23.768 6.60561 23.608 6.4879 23.338C6.37018 23.068 6.41924 22.708 6.31133 22.438C6.20343 22.168 6.15439 21.8579 6.07592 21.5779C5.99744 21.2979 5.79144 21.0279 5.73258 20.7379C5.67372 20.4479 6.15437 20.0679 6.11513 19.7679C6.07589 19.4679 5.68351 19.228 5.65409 18.938C5.62466 18.648 5.97781 18.3479 5.97781 18.0479C5.97781 17.7479 5.75218 17.4579 5.77179 17.1679C5.79141 16.8779 5.93858 16.598 5.97781 16.308C6.01705 16.018 6.15438 15.758 6.21323 15.468C6.27209 15.178 5.98763 14.8079 6.07592 14.5179C6.1642 14.2279 6.37999 13.998 6.4879 13.718C6.5958 13.438 6.73313 13.1879 6.85084 12.9179C6.96855 12.6479 6.86065 12.258 7.0078 11.998C7.15494 11.738 7.18436 11.3979 7.34131 11.1479C7.49827 10.8979 7.95931 10.858 8.13588 10.618C8.31245 10.378 8.57732 10.2279 8.7637 10.0079C8.95008 9.78793 9.00892 9.43794 9.20511 9.22794C9.4013 9.01794 9.76426 8.97793 9.98988 8.78793C10.2155 8.59793 10.137 8.02793 10.3724 7.84793C10.6079 7.66793 11.0885 7.84796 11.3338 7.68796C11.579 7.52796 11.6673 7.10795 11.9223 6.95795C12.1774 6.80795 12.4226 6.62796 12.6875 6.49796C12.9523 6.36796 13.3055 6.45793 13.5801 6.34793C13.8548 6.23793 14.2079 6.42793 14.4924 6.34793C14.7769 6.26793 15.0123 6.08794 15.2968 6.01794C15.5813 5.94794 15.8265 5.70794 16.1208 5.66794C16.4151 5.62794 16.6995 5.56794 16.9938 5.54794C17.2881 5.52794 17.5726 5.37793 17.8669 5.37793C18.1612 5.37793 18.4456 5.72796 18.7301 5.74796C19.0146 5.76796 19.3677 5.34794 19.6522 5.38794C19.9367 5.42794 20.2015 5.71793 20.486 5.78793C20.7705 5.85793 20.947 6.31795 21.2217 6.39795C21.4964 6.47795 21.9672 5.98793 22.2419 6.09793C22.5166 6.20793 22.8207 6.28794 23.0757 6.41794C23.3307 6.54794 23.5269 6.84796 23.782 6.99796C24.037 7.14796 24.3313 7.23795 24.5765 7.39795C24.8218 7.55795 24.9297 7.92794 25.1553 8.10794C25.3809 8.28794 25.8518 8.18793 26.0676 8.37793C26.2834 8.56793 26.4011 8.90795 26.6071 9.11795C26.8131 9.32795 26.8033 9.74796 26.9897 9.96796C27.176 10.188 27.6469 10.1979 27.8235 10.4279C28 10.6579 28.0197 11.028 28.1766 11.278C28.3336 11.528 28.6377 11.6979 28.775 11.9579C28.9123 12.2179 28.9221 12.5579 29.0497 12.8279C29.1772 13.0979 29.5303 13.278 29.6382 13.558C29.7461 13.838 29.2851 14.308 29.3636 14.588C29.442 14.868 29.4911 15.148 29.5499 15.438C29.6088 15.728 30.011 15.9479 30.06 16.2379C30.1091 16.5279 29.854 16.8479 29.8835 17.1479C29.9129 17.4479 30.217 17.728 30.217 18.028L30.2072 18.0079Z" fill="#F2F2F5"/>
<path d="M30.2072 18.0079C30.2072 18.3079 29.9718 18.5979 29.9521 18.8879C29.9325 19.1779 29.7952 19.458 29.7559 19.748C29.7167 20.038 29.6186 20.3079 29.5597 20.5979C29.5009 20.8879 29.3734 21.1379 29.2949 21.4279C29.2164 21.7179 29.6971 22.188 29.599 22.468C29.5009 22.748 29.3047 23.008 29.187 23.278C29.0693 23.548 28.8535 23.7879 28.7063 24.0479C28.5592 24.3079 28.3924 24.558 28.2355 24.808C28.0785 25.058 28.0883 25.448 27.9118 25.688C27.7352 25.928 27.5194 26.1579 27.333 26.3879C27.1466 26.6179 26.921 26.8379 26.715 27.0479C26.509 27.2579 26.1068 27.278 25.891 27.468C25.6752 27.658 25.5967 28.0579 25.3613 28.2379C25.1259 28.4179 24.6746 28.278 24.4294 28.438C24.1842 28.598 24.0566 28.9679 23.8016 29.1079C23.5465 29.2479 23.0757 28.9579 22.8109 29.0779C22.546 29.1979 22.5166 29.9079 22.2419 30.0179C21.9672 30.1279 21.6141 30.0379 21.3394 30.1279C21.0648 30.2179 20.7999 30.4479 20.5154 30.5179C20.231 30.5879 19.8484 30.1279 19.5639 30.1679C19.2794 30.2079 19.0048 30.2379 18.7105 30.2579C18.4162 30.2779 18.1416 30.4779 17.8473 30.4779C17.553 30.4779 17.2685 30.4279 16.9742 30.4079C16.6799 30.3879 16.3758 30.508 16.0914 30.468C15.8069 30.428 15.5813 30.008 15.3066 29.938C15.0319 29.868 14.7867 29.7079 14.512 29.6279C14.2374 29.5479 13.7371 30.1079 13.4722 30.0079C13.2074 29.9079 13.021 29.5279 12.7562 29.4079C12.4913 29.2879 12.3343 28.948 12.0793 28.808C11.8243 28.668 11.5986 28.498 11.3534 28.338C11.1081 28.178 10.7256 28.2179 10.5 28.0479C10.2743 27.8779 9.88196 27.8579 9.66615 27.6679C9.45034 27.4779 9.66617 26.798 9.46998 26.588C9.27379 26.378 9.03836 26.218 8.85198 25.998C8.6656 25.778 7.96914 25.9579 7.79257 25.7279C7.616 25.4979 8.04759 24.8279 7.89064 24.5779C7.73369 24.3279 7.25305 24.288 7.11572 24.028C6.97838 23.768 6.60561 23.608 6.4879 23.338C6.37018 23.068 6.41924 22.708 6.31133 22.438C6.20343 22.168 6.15439 21.8579 6.07592 21.5779C5.99744 21.2979 5.79144 21.0279 5.73258 20.7379C5.67372 20.4479 6.15437 20.0679 6.11513 19.7679C6.07589 19.4679 5.68351 19.228 5.65409 18.938C5.62466 18.648 5.97781 18.3479 5.97781 18.0479C5.97781 17.7479 5.75218 17.4579 5.77179 17.1679C5.79141 16.8779 5.93858 16.598 5.97781 16.308C6.01705 16.018 6.15438 15.758 6.21323 15.468C6.27209 15.178 5.98763 14.8079 6.07592 14.5179C6.1642 14.2279 6.37999 13.998 6.4879 13.718C6.5958 13.438 6.73313 13.1879 6.85084 12.9179C6.96855 12.6479 6.86065 12.258 7.0078 11.998C7.15494 11.738 7.18436 11.3979 7.34131 11.1479C7.49827 10.8979 7.95931 10.858 8.13588 10.618C8.31245 10.378 8.57732 10.2279 8.7637 10.0079C8.95008 9.78793 9.00892 9.43794 9.20511 9.22794C9.4013 9.01794 9.76426 8.97793 9.98988 8.78793C10.2155 8.59793 10.137 8.02793 10.3724 7.84793C10.6079 7.66793 11.0885 7.84796 11.3338 7.68796C11.579 7.52796 11.6673 7.10795 11.9223 6.95795C12.1774 6.80795 12.4226 6.62796 12.6875 6.49796C12.9523 6.36796 13.3055 6.45793 13.5801 6.34793C13.8548 6.23793 14.2079 6.42793 14.4924 6.34793C14.7769 6.26793 15.0123 6.08794 15.2968 6.01794C15.5813 5.94794 15.8265 5.70794 16.1208 5.66794C16.4151 5.62794 16.6995 5.56794 16.9938 5.54794C17.2881 5.52794 17.5726 5.37793 17.8669 5.37793C18.1612 5.37793 18.4456 5.72796 18.7301 5.74796C19.0146 5.76796 19.3677 5.34794 19.6522 5.38794C19.9367 5.42794 20.2015 5.71793 20.486 5.78793C20.7705 5.85793 20.947 6.31795 21.2217 6.39795C21.4964 6.47795 21.9672 5.98793 22.2419 6.09793C22.5166 6.20793 22.8207 6.28794 23.0757 6.41794C23.3307 6.54794 23.5269 6.84796 23.782 6.99796C24.037 7.14796 24.3313 7.23795 24.5765 7.39795C24.8218 7.55795 24.9297 7.92794 25.1553 8.10794C25.3809 8.28794 25.8518 8.18793 26.0676 8.37793C26.2834 8.56793 26.4011 8.90795 26.6071 9.11795C26.8131 9.32795 26.8033 9.74796 26.9897 9.96796C27.176 10.188 27.6469 10.1979 27.8235 10.4279C28 10.6579 28.0197 11.028 28.1766 11.278C28.3336 11.528 28.6377 11.6979 28.775 11.9579C28.9123 12.2179 28.9221 12.5579 29.0497 12.8279C29.1772 13.0979 29.5303 13.278 29.6382 13.558C29.7461 13.838 29.2851 14.308 29.3636 14.588C29.442 14.868 29.4911 15.148 29.5499 15.438C29.6088 15.728 30.011 15.9479 30.06 16.2379C30.1091 16.5279 29.854 16.8479 29.8835 17.1479C29.9129 17.4479 30.217 17.728 30.217 18.028L30.2072 18.0079Z" stroke="#5E5F6C" stroke-width="1.5" stroke-linecap="round" stroke-linejoin="round"/>
<path d="M15.5898 22.0677L15.6193 20.7977L15.9724 19.5977L16.3354 18.3877L17.2771 17.5477L18.1893 16.7277L19.239 16.0577L20.4259 15.6577L21.6717 15.6777L22.9077 15.7177L24.0652 16.1477L25.2326 16.5977L26.1252 17.4877L26.8805 18.5077L27.116 19.7577" fill="#F2F2F5"/>
<path d="M15.5898 22.0677L15.6193 20.7977L15.9724 19.5977L16.3354 18.3877L17.2771 17.5477L18.1893 16.7277L19.239 16.0577L20.4259 15.6577L21.6717 15.6777L22.9077 15.7177L24.0652 16.1477L25.2326 16.5977L26.1252 17.4877L26.8805 18.5077L27.116 19.7577" stroke="#5E5F6C" stroke-miterlimit="10" stroke-linecap="round"/>
<path d="M24.5658 59.328L24.5167 60.528L24.0949 61.638L23.2513 62.458L22.1919 62.988L21.005 62.908L19.9455 62.438L19.0333 61.668L18.6899 60.508L18.582 59.308L19.1215 58.228L19.9259 57.368L21.0246 56.938L22.1821 56.948L23.3004 57.338L24.0949 58.238L24.5658 59.328Z" fill="#FFBF9E"/>
<path d="M40.3392 54.348L40.2999 55.548L39.8978 56.678L39.0247 57.498L37.9359 57.908H36.7784L35.6601 57.518L34.8361 56.658L34.3652 55.548L34.4143 54.338L34.8066 53.198L35.7091 52.408L36.7784 51.918L37.9457 51.968L39.0345 52.398L39.8389 53.258L40.3392 54.348Z" fill="#FFBF9E"/>
<path d="M16.5704 15.3478C16.5704 15.6478 16.384 15.8578 16.1879 16.0578C15.9917 16.2578 15.7856 16.4077 15.4914 16.4077C15.1971 16.4077 14.9813 16.2678 14.7949 16.0678C14.6085 15.8678 14.3633 15.6478 14.3633 15.3578C14.3633 15.0678 14.6085 14.8378 14.7949 14.6478C14.9813 14.4578 15.2069 14.3678 15.4914 14.3678C15.7758 14.3678 16.129 14.3278 16.3154 14.5178C16.5017 14.7078 16.5606 15.0578 16.5606 15.3578L16.5704 15.3478Z" fill="#5E5F6C"/>
<path d="M25.5484 13.9681C25.5484 14.2681 25.4601 14.4681 25.2639 14.6581C25.0677 14.8481 24.8715 15.0981 24.5871 15.0981C24.3026 15.0981 24.0181 14.9381 23.8219 14.7381C23.6257 14.5381 23.459 14.2581 23.459 13.9581C23.459 13.6581 23.6552 13.4081 23.8514 13.2081C24.0475 13.0081 24.2928 12.7881 24.5871 12.7881C24.8814 12.7881 25.107 13.0381 25.2933 13.2381C25.4797 13.4381 25.5484 13.6581 25.5484 13.9581V13.9681Z" fill="#5E5F6C"/>
<path d="M24.6351 18.448C24.6351 18.778 24.6155 19.158 24.4978 19.438C24.3801 19.718 23.919 19.808 23.7032 20.028C23.4874 20.248 23.3109 20.478 23.0264 20.598C22.7419 20.718 22.4672 20.938 22.1533 20.938C21.8394 20.938 21.4961 20.868 21.2116 20.748C20.9272 20.628 20.5348 20.528 20.319 20.308C20.1032 20.088 20.0541 19.668 19.9364 19.378C19.8187 19.088 19.75 18.768 19.75 18.438C19.75 18.108 19.8089 17.778 19.9266 17.498C20.0443 17.218 20.2405 16.928 20.4563 16.708C20.6721 16.488 21.035 16.508 21.3195 16.388C21.604 16.268 21.8296 15.998 22.1533 15.998C22.477 15.998 22.7419 16.178 23.0264 16.298C23.3109 16.418 23.6934 16.428 23.9092 16.658C24.125 16.888 24.1741 17.248 24.2918 17.548C24.4095 17.848 24.6449 18.118 24.6449 18.448H24.6351Z" fill="#FFBF9E"/>
<path d="M24.6351 18.448C24.6351 18.778 24.6155 19.158 24.4978 19.438C24.3801 19.718 23.919 19.808 23.7032 20.028C23.4874 20.248 23.3109 20.478 23.0264 20.598C22.7419 20.718 22.4672 20.938 22.1533 20.938C21.8394 20.938 21.4961 20.868 21.2116 20.748C20.9272 20.628 20.5348 20.528 20.319 20.308C20.1032 20.088 20.0541 19.668 19.9364 19.378C19.8187 19.088 19.75 18.768 19.75 18.438C19.75 18.108 19.8089 17.778 19.9266 17.498C20.0443 17.218 20.2405 16.928 20.4563 16.708C20.6721 16.488 21.035 16.508 21.3195 16.388C21.604 16.268 21.8296 15.998 22.1533 15.998C22.477 15.998 22.7419 16.178 23.0264 16.298C23.3109 16.418 23.6934 16.428 23.9092 16.658C24.125 16.888 24.1741 17.248 24.2918 17.548C24.4095 17.848 24.6449 18.118 24.6449 18.448H24.6351Z" stroke="#5E5F6C" stroke-miterlimit="10"/>
<path d="M22.3008 26.1478C23.2425 24.4578 22.6834 21.0078 22.6834 21.0078" stroke="#5E5F6C" stroke-linecap="round" stroke-linejoin="round"/>
</svg>
