<?xml version="1.0" encoding="UTF-8"?>
<svg width="227px" height="21px" viewBox="0 0 227 21" version="1.1" xmlns="http://www.w3.org/2000/svg" xmlns:xlink="http://www.w3.org/1999/xlink">
    <!-- Generator: Sketch 58 (84663) - https://sketch.com -->
    <title>Logo</title>
    <desc>Created with Sketch.</desc>
    <defs>
        <path d="M50.935,6.0764 L50.935,14.7274 C50.935,15.4534 50.819,16.0534 50.587,16.5294 L50.587,16.5294 C50.355,17.0044 50.068,17.3794 49.726,17.6564 L49.726,17.6564 C49.385,17.9344 49.018,18.1254 48.624,18.2304 L48.624,18.2304 C48.232,18.3374 47.88,18.3884 47.571,18.3884 L47.571,18.3884 C47.262,18.3884 46.91,18.3374 46.517,18.2304 L46.517,18.2304 C46.124,18.1254 45.757,17.9344 45.416,17.6564 L45.416,17.6564 C45.073,17.3794 44.787,17.0044 44.555,16.5294 L44.555,16.5294 C44.323,16.0534 44.207,15.4534 44.207,14.7274 L44.207,14.7274 L44.207,6.0764 L41.5,6.0764 L41.5,14.7274 C41.5,15.6514 41.644,16.4894 41.935,17.2424 L41.935,17.2424 C42.224,17.9934 42.634,18.6314 43.162,19.1604 L43.162,19.1604 C43.691,19.6904 44.33,20.0984 45.078,20.3904 L45.078,20.3904 C45.824,20.6784 46.655,20.8254 47.571,20.8254 L47.571,20.8254 C48.499,20.8254 49.336,20.6784 50.084,20.3904 L50.084,20.3904 C50.831,20.0984 51.468,19.6904 51.998,19.1604 L51.998,19.1604 C52.527,18.6314 52.933,17.9934 53.216,17.2424 L53.216,17.2424 C53.5,16.4894 53.641,15.6514 53.641,14.7274 L53.641,14.7274 L53.641,6.0764 L50.935,6.0764 Z" id="path-1"></path>
        <path d="M56.734,6.0764 L56.734,20.5664 L59.442,20.5664 L59.442,15.9544 L62.121,15.9544 L65.398,20.5664 L68.625,20.5664 L65.101,15.6974 C65.539,15.5774 65.944,15.3694 66.312,15.0734 L66.312,15.0734 C66.68,14.7774 66.99,14.4234 67.242,14.0144 L67.242,14.0144 C67.494,13.6044 67.69,13.1454 67.832,12.6384 L67.832,12.6384 C67.974,12.1314 68.046,11.6054 68.046,11.0654 L68.046,11.0654 C68.046,10.3394 67.925,9.6684 67.686,9.0554 L67.686,9.0554 C67.448,8.4414 67.116,7.9144 66.689,7.4724 L66.689,7.4724 C66.264,7.0304 65.75,6.6884 65.149,6.4444 L65.149,6.4444 C64.55,6.1984 63.888,6.0764 63.165,6.0764 L63.165,6.0764 L56.734,6.0764 Z M59.442,8.5324 L62.525,8.5324 C63.026,8.5324 63.454,8.5974 63.806,8.7304 L63.806,8.7304 C64.16,8.8604 64.448,9.0394 64.672,9.2634 L64.672,9.2634 C64.899,9.4884 65.066,9.7524 65.175,10.0554 L65.175,10.0554 C65.283,10.3594 65.338,10.6874 65.338,11.0464 L65.338,11.0464 C65.338,11.3494 65.3,11.6494 65.222,11.9454 L65.222,11.9454 C65.146,12.2434 65.002,12.5114 64.789,12.7474 L64.789,12.7474 C64.578,12.9864 64.288,13.1774 63.923,13.3214 L63.923,13.3214 C63.555,13.4664 63.091,13.5394 62.525,13.5394 L62.525,13.5394 L59.442,13.5394 L59.442,8.5324 Z" id="path-3"></path>
    </defs>
    <g id="Komponenter" stroke="none" stroke-width="1" fill="none" fill-rule="evenodd">
        <g id="Komponenter-/-Knapper" transform="translate(-24.000000, -32.000000)">
            <g id="Logo" transform="translate(24.000000, 32.000000)">
                <g id="Entur">
                    <polygon id="Fill-1" fill="#FFFFFF" points="0.0001 0 0.0001 14.49 10.4221 14.49 10.4221 12.036 2.7071 12.036 2.7071 8.533 9.5521 8.533 9.5521 6.079 2.7071 6.079 2.7071 2.455 10.4221 2.455 10.4221 0"></polygon>
                    <polygon id="Fill-2" fill="#FFFFFF" points="22.7944 0 22.7944 8.77 13.4954 0 13.2054 0 13.2054 14.49 15.9124 14.49 15.9124 5.881 25.2124 14.49 25.5024 14.49 25.5024 0"></polygon>
                    <polygon id="Fill-3" fill="#FF5959" points="0 20.0524 25.501 20.0524 25.501 17.8244 0 17.8244"></polygon>
                    <polygon id="Fill-4" fill="#FFFFFF" points="28.5463 6.0768 28.5463 8.5318 32.6073 8.5318 32.6073 20.5668 35.3133 20.5668 35.3133 8.5318 39.3543 8.5318 39.3543 6.0768"></polygon>
                    <mask id="mask-2" fill="white">
                        <use xlink:href="#path-1"></use>
                    </mask>
                    <use id="Clip-6" fill="#FFFFFF" xlink:href="#path-1"></use>
                    <mask id="mask-4" fill="white">
                        <use xlink:href="#path-3"></use>
                    </mask>
                    <use id="Clip-9" fill="#FFFFFF" xlink:href="#path-3"></use>
                </g>
                <g id="Designsystem" transform="translate(74.968800, 5.695900)" fill="#FF5959">
                    <path d="M2.03,13.1003 L4.573,13.1003 C8.079,13.1003 10.642,11.0913 10.642,7.6253 C10.642,4.0363 8.079,2.1293 4.573,2.1293 L2.03,2.1293 L2.03,13.1003 Z M-1.42108547e-14,0.3673 L4.983,0.3673 C8.694,0.3673 12.816,2.4803 12.816,7.6253 C12.816,12.5873 8.694,14.8853 4.983,14.8853 L-1.42108547e-14,14.8853 L-1.42108547e-14,0.3673 Z" id="Fill-11"></path>
                    <polygon id="Fill-13" points="15.6121 14.8854 15.6121 0.3664 25.4961 0.3664 25.4961 2.1514 17.6421 2.1514 17.6421 6.6204 24.0401 6.6204 24.0401 8.3644 17.6421 8.3644 17.6421 13.0804 25.6381 13.0804 25.6381 14.8854"></polygon>
                    <path d="M35.0364,3.197 C34.0114,2.13 33.0474,1.782 32.0434,1.782 C30.1764,1.782 29.5204,2.847 29.5204,3.771 C29.5204,6.928 37.1484,6.007 37.1484,10.865 C37.1484,13.305 34.9334,15.253 32.0834,15.253 C29.2134,15.253 27.5324,13.286 27.3474,13.058 L28.7414,11.707 C29.7464,12.835 30.9154,13.449 32.2064,13.449 C33.9904,13.449 35.1594,12.321 35.1594,11.028 C35.1594,7.729 27.5324,8.713 27.5324,3.996 C27.5324,1.885 29.2544,2.27373675e-13 32.0224,2.27373675e-13 C33.6414,2.27373675e-13 35.3434,0.634 36.3694,1.926 L35.0364,3.197 Z" id="Fill-15"></path>
                    <polygon id="Fill-17" points="40.0662 14.8855 42.0962 14.8855 42.0962 0.3665 40.0662 0.3665"></polygon>
                    <path d="M56.5755,3.362 C55.7145,2.417 54.2995,1.782 52.6385,1.782 C49.2345,1.782 47.1025,4.427 47.1025,7.606 C47.1025,10.844 49.2345,13.429 52.6995,13.429 C54.0535,13.429 55.2425,13.162 56.0835,12.712 L56.0835,8.671 L52.8645,8.671 L52.8645,6.948 L58.0925,6.948 L58.0925,13.982 C56.5755,14.801 54.7705,15.253 52.6385,15.253 C48.1065,15.253 44.8875,12.075 44.8875,7.606 C44.8875,3.075 48.2095,0 52.6175,0 C54.9145,0 56.8015,0.737 57.9905,1.884 L56.5755,3.362 Z" id="Fill-19"></path>
                    <polygon id="Fill-20" points="61.5867 0.3669 63.5347 0.3669 71.3877 11.5829 71.3877 0.3669 73.3367 0.3669 73.3367 14.8859 71.3877 14.8859 63.5347 3.6889 63.5347 14.8859 61.5867 14.8859"></polygon>
                    <path d="M83.5554,3.197 C82.5314,2.13 81.5664,1.782 80.5624,1.782 C78.6954,1.782 78.0394,2.847 78.0394,3.771 C78.0394,6.928 85.6674,6.007 85.6674,10.865 C85.6674,13.305 83.4524,15.253 80.6034,15.253 C77.7324,15.253 76.0514,13.286 75.8664,13.058 L77.2604,11.707 C78.2654,12.835 79.4344,13.449 80.7254,13.449 C82.5094,13.449 83.6784,12.321 83.6784,11.028 C83.6784,7.729 76.0514,8.713 76.0514,3.996 C76.0514,1.885 77.7734,2.27373675e-13 80.5414,2.27373675e-13 C82.1604,2.27373675e-13 83.8634,0.634 84.8884,1.926 L83.5554,3.197 Z" id="Fill-21"></path>
                    <polygon id="Fill-22" points="93.8142 14.8854 91.7632 14.8854 91.7632 8.6114 86.3302 0.3664 88.8322 0.3664 92.8502 6.9284 96.8892 0.3664 99.2482 0.3664 93.8142 8.6114"></polygon>
                    <path d="M107.6404,3.197 C106.6164,2.13 105.6514,1.782 104.6474,1.782 C102.7814,1.782 102.1244,2.847 102.1244,3.771 C102.1244,6.928 109.7524,6.007 109.7524,10.865 C109.7524,13.305 107.5374,15.253 104.6884,15.253 C101.8174,15.253 100.1364,13.286 99.9524,13.058 L101.3454,11.707 C102.3504,12.835 103.5194,13.449 104.8114,13.449 C106.5944,13.449 107.7634,12.321 107.7634,11.028 C107.7634,7.729 100.1364,8.713 100.1364,3.996 C100.1364,1.885 101.8584,2.27373675e-13 104.6264,2.27373675e-13 C106.2454,2.27373675e-13 107.9484,0.634 108.9734,1.926 L107.6404,3.197 Z" id="Fill-23"></path>
                    <polygon id="Fill-24" points="117.4275 14.8854 115.3975 14.8854 115.3975 2.1514 110.7435 2.1514 110.7435 0.3664 122.0825 0.3664 122.0825 2.1514 117.4275 2.1514"></polygon>
                    <polygon id="Fill-25" points="124.0154 14.8854 124.0154 0.3664 133.8994 0.3664 133.8994 2.1514 126.0454 2.1514 126.0454 6.6204 132.4434 6.6204 132.4434 8.3644 126.0454 8.3644 126.0454 13.0804 134.0414 13.0804 134.0414 14.8854"></polygon>
                    <polygon id="Fill-26" points="144.2595 11.5222 144.3005 11.5222 148.5855 0.3672 151.7435 0.3672 151.7435 14.8852 149.7135 14.8852 149.7135 2.7462 149.6725 2.7462 144.8545 14.8852 143.5625 14.8852 138.7645 2.7462 138.7235 2.7462 138.7235 14.8852 136.7545 14.8852 136.7545 0.3672 139.9125 0.3672"></polygon>
                </g>
            </g>
        </g>
    </g>
</svg>