<svg width="720" height="406" viewBox="0 0 720 406" fill="none" xmlns="http://www.w3.org/2000/svg">
<rect width="720" height="405" transform="translate(0 0.914062)" fill="#F6F6F9"/>
<g clip-path="url(#clip0_4863_37188)">
<rect x="247" y="90" width="226" height="226" fill="white"/>
<circle cx="360" cy="203" r="42.375" stroke="#CFCFCF" stroke-width="0.941667"/>
<path d="M247 90H473M247 90V316M247 90L473 316M473 90V316M473 90L247 316M473 316H247" stroke="#CFCFCF" stroke-width="0.941667"/>
<rect opacity="0.5" x="275.721" y="118.721" width="168.558" height="168.558" stroke="#007C2E" stroke-width="0.941667"/>
<path d="M254.062 287.75L360 104.125L465.938 287.75H254.062Z" stroke="#C1CB33" stroke-width="0.941667"/>
<circle opacity="0.5" cx="360" cy="203" r="98.4042" stroke="#881D0C" stroke-width="0.941667"/>
<rect opacity="0.5" x="289.846" y="104.596" width="140.308" height="196.808" stroke="#634689" stroke-width="0.941667" stroke-dasharray="2.83 2.83"/>
<rect opacity="0.5" x="261.596" y="132.846" width="196.808" height="140.308" stroke="#D47B00" stroke-width="0.941667" stroke-dasharray="2.83 2.83"/>
</g>
<rect x="254.062" y="97.0625" width="211.875" height="211.875" stroke="#BA3A26" stroke-opacity="0.2" stroke-width="14.125"/>
<defs>
<clipPath id="clip0_4863_37188">
<rect x="247" y="90" width="226" height="226" fill="white"/>
</clipPath>
</defs>
</svg>
