<?xml version="1.0" encoding="utf-8"?>
<!-- Generator: Adobe Illustrator 24.0.1, SVG Export Plug-In . SVG Version: 6.00 Build 0)  -->
<svg version="1.1" id="Layer_2_1_" xmlns="http://www.w3.org/2000/svg" xmlns:xlink="http://www.w3.org/1999/xlink" x="0px" y="0px"
	 width="41.3925934px" height="16px" viewBox="0 0 41.3925934 16" enable-background="new 0 0 41.3925934 16" xml:space="preserve">
<g>
	<path fill="#FFFFFF" d="M18.577383,8.7875261h0.4096355v1.4613333l0.5683632-0.6717577h0.4908581l-0.6495876,0.7604761
		l0.7086372,0.9964228h-0.4908581l-0.62006-0.885788h-0.0073528v0.885788H18.577383V8.7875261z"/>
	<path fill="#FFFFFF" d="M20.142168,10.4556789c0-0.5758295,0.2693329-0.9190607,0.7750111-0.9190607
		c0.5055656,0,0.7750397,0.3432312,0.7750397,0.9190607c0,0.5755692-0.269474,0.9188013-0.7750397,0.9188013
		C20.4115009,11.3744802,20.142168,11.0312481,20.142168,10.4556789z M20.9171791,11.0866985
		c0.2952824,0,0.3394852-0.3024654,0.3394852-0.6310196c0-0.3285255-0.0442028-0.631278-0.3394852-0.631278
		c-0.2952518,0-0.3394833,0.3027525-0.3394833,0.631278C20.5776958,10.7842331,20.6219273,11.0866985,20.9171791,11.0866985z"/>
	<path fill="#FFFFFF" d="M22.1018543,8.7875261h0.4096355v2.5464745h-0.4096355V8.7875261z"/>
	<path fill="#FFFFFF" d="M23.0245209,8.7875261h0.4096355v2.5464745h-0.4096355V8.7875261z"/>
	<path fill="#FFFFFF" d="M25.2204132,11.3043337c-0.1476288,0.048233-0.3026085,0.0701466-0.49086,0.0701466
		c-0.5683365,0-0.885788-0.3651447-0.885788-1.0111246c0-0.4910002,0.2213821-0.8267374,0.7528667-0.8267374
		c0.4466286,0,0.6680107,0.2841816,0.6680107,0.7122412v0.0998182H24.223875c0,0.2434139,0.1660786,0.7380209,0.6606579,0.7380209
		c0.1292019,0,0.2620068-0.0404844,0.3358803-0.0665464V11.3043337z M24.8772068,10.1013746
		c0-0.1108942-0.0554447-0.3027477-0.3101006-0.3027477c-0.2398071,0-0.3210583,0.1993237-0.3321323,0.3027477H24.8772068z"/>
	<path fill="#FFFFFF" d="M25.6448936,8.7875261h0.4096088v1.4613333l0.5683632-0.6717577h0.4908581l-0.6495876,0.7604761
		l0.7086391,0.9964228h-0.4908581l-0.6200638-0.885788h-0.0073509v0.885788h-0.4096088V8.7875261z"/>
	<path fill="#FFFFFF" d="M28.5160046,11.3450727c-0.1106071,0.0183115-0.2251034,0.0294075-0.3357372,0.0294075
		c-0.4650803,0-0.5388088-0.2212372-0.5388088-0.4832468V9.8615665h-0.3433743V9.5771017h0.3433743V9.1601419l0.4096375-0.247303
		v0.6642628h0.5203838v0.2844648H28.051096v0.8303432c0,0.2101412,0.0257759,0.3947887,0.2767982,0.3947887
		c0.0664043,0,0.1290588-0.0147066,0.1881104-0.0293837V11.3450727z"/>
	<path fill="#FFFFFF" d="M28.8629837,8.7875261h0.4096355v0.4058599h-0.4096355V8.7875261z M28.8629837,9.5771017h0.4096355
		v1.7568989h-0.4096355V9.5771017z"/>
	<path fill="#FFFFFF" d="M29.5199223,9.5771017h0.4280605l0.3914642,1.2032423h0.0072136l0.3947868-1.2032423h0.4280605
		l-0.6271286,1.7568989h-0.3986778L29.5199223,9.5771017z"/>
	<path fill="#FFFFFF" d="M32.5388298,11.3450727c-0.1106339,0.0183115-0.225132,0.0294075-0.3357353,0.0294075
		c-0.4652233,0-0.5389824-0.2212372-0.5389824-0.4832468V9.8615665h-0.3432312V9.5771017h0.3432312V9.1601419l0.4097786-0.247303
		v0.6642628h0.5203857v0.2844648h-0.5203857v0.8303432c0,0.2101412,0.0257797,0.3947887,0.2766876,0.3947887
		c0.0665436,0,0.1292-0.0147066,0.1882515-0.0293837V11.3450727z"/>
	<path fill="#FFFFFF" d="M32.8598595,9.5771017h0.4094963v0.3249207h0.0074959
		c0.09618-0.1696568,0.2143097-0.3654041,0.5683327-0.3654041v0.4280605c-0.4133568,0-0.5758286,0.1735744-0.5758286,0.5980291
		v0.7712927h-0.4094963V9.5771017z"/>
	<path fill="#FFFFFF" d="M35.000473,11.1310415h-0.0072098c-0.0554428,0.1145248-0.1774368,0.2434387-0.4580116,0.2434387
		c-0.2949982,0-0.5164948-0.1771765-0.5164948-0.4613333c0-0.5830641,0.7382774-0.5866404,0.9817162-0.5941362v-0.1732912
		c0-0.1735458-0.0443687-0.3213186-0.2472992-0.3213186c-0.225132,0-0.269474,0.1513786-0.269474,0.2694798H34.085022
		c0-0.3357382,0.2217789-0.5572624,0.6681519-0.5572624c0.4355545,0,0.638485,0.1882524,0.638485,0.5461903v1.2511921H35.000473
		V11.1310415z M34.6350708,11.0866985c0.2655869,0,0.3654022-0.2877874,0.3654022-0.5278797
		c-0.2656136,0-0.5833206,0.0812197-0.5833206,0.3174534C34.4171524,11.0129414,34.4947701,11.0866985,34.6350708,11.0866985z"/>
	<path fill="#FFFFFF" d="M36.0151825,9.8615665h-0.3210602V9.5771017h0.3210602V9.3372936
		c0-0.3726149,0.2251282-0.5905342,0.6792526-0.5905342c0.1291733,0,0.2916451,0.0149612,0.3836861,0.0368738v0.3138523
		c-0.06987-0.0296717-0.1879692-0.0626841-0.2988586-0.0626841c-0.2988586,0-0.354332,0.2176638-0.354332,0.4205933v0.121707
		h0.5168037v0.2844648h-0.5168037v1.472434h-0.4097481V9.8615665z M37.1890411,8.7875261h0.4097481v0.4058599h-0.4097481V8.7875261z
		 M37.1890411,9.5771017h0.4097481v1.7568989h-0.4097481V9.5771017z"/>
	<path fill="#FFFFFF" d="M38.100605,8.7875261h0.4097481v1.4613333l0.5683632-0.6717577h0.4907188l-0.6495857,0.7604761
		l0.7086372,0.9964228h-0.4910049l-0.619915-0.885788h-0.0072136v0.885788H38.100605V8.7875261z"/>
	<path fill="#FFFFFF" d="M39.8647156,8.7875261h0.4094658v1.4613333l0.5683632-0.6717577h0.4910011L40.68396,10.3375778
		l0.7086334,0.9964228h-0.490715l-0.6202049-0.885788h-0.0074921v0.885788h-0.4094658V8.7875261z"/>
</g>
<g>
	<path fill="#FFFFFF" d="M13.1157141,0H2.6735978C2.6735978,0,0,0,0,2.6737363v5.984024l15.4461021-7.3366952
		C15.1092863,0.6579682,14.4419088,0,13.1157141,0z"/>
	<path fill="#FFFFFF" d="M15.5442982,1.5385629c-0.932682,0.6133493-2.1008644,1.4378368-3.2516155,2.4043941
		c-2.5148582,2.1125953-1.8388004,3.5104573,0.4024363,4.3255529c1.1303387,0.41117,2.2587204,0.7374678,3.0941591,0.9590034
		V2.6737363C15.789278,2.6737363,15.7870255,2.1332674,15.5442982,1.5385629z"/>
	<path fill="#FFFFFF" d="M0,13.3262806C0,13.3262806,0,16,2.6735978,16h10.4421158c0,0,2.673564,0,2.673564-2.6737194V9.5560293H0
		V13.3262806z"/>
</g>
<g>
	<path fill="#FFFFFF" d="M18.2455368,5.6697659h0.2643356l0.5070992,1.3618274h0.0072098l0.4417725-1.3618274h0.2643642
		l-0.5830364,1.7239056h-0.2499466L18.2455368,5.6697659z"/>
	<path fill="#FFFFFF" d="M21.167408,7.3828592c-0.105072,0.0325632-0.2353802,0.050591-0.3947887,0.050591
		c-0.5323067,0-0.8401947-0.3222804-0.8401947-0.9596586c0-0.514308,0.2136078-0.8437996,0.6735477-0.8437996
		c0.4056301,0,0.6012096,0.2788968,0.6012096,0.6555471V6.368835h-0.9922504v0.1013513
		c0,0.2607312,0.1158867,0.7568703,0.6120243,0.7568703c0.1918316,0,0.2607327-0.0289898,0.3404522-0.0470133V7.3828592z
		 M20.924675,6.1624413c0-0.1158867-0.0797195-0.326056-0.3294926-0.326056c-0.2571526,0-0.340477,0.2101693-0.3622246,0.326056
		H20.924675z"/>
	<path fill="#FFFFFF" d="M22.2094231,6.4194255c0.1810417,0.0942822,0.4019985,0.1956053,0.4019985,0.4925337
		c0,0.3440552-0.2389832,0.5214911-0.6409836,0.5214911c-0.2245617,0-0.4019985-0.050591-0.4707584-0.0723662V7.1365218
		c0.0433807,0.014564,0.2498055,0.0905347,0.4453793,0.0905347c0.2389851,0,0.4200249-0.0795765,0.4200249-0.2787871
		c0-0.1775494-0.2099991-0.2535205-0.3113194-0.3114681l-0.1558342-0.0833197
		c-0.1592655-0.0905066-0.3910389-0.1846466-0.3910389-0.4671569c0-0.2788968,0.2063942-0.4563327,0.59025-0.4563327
		c0.1847897,0,0.3258877,0.0397739,0.4056053,0.0579433v0.228168c-0.0579433-0.0217743-0.2281685-0.0797181-0.4019985-0.0797181
		c-0.2100277,0-0.347662,0.1014934-0.347662,0.2245917c0,0.1412387,0.1738338,0.199182,0.3114643,0.2715473L22.2094231,6.4194255z"
		/>
	<path fill="#FFFFFF" d="M23.8093834,7.4154224c-0.0723648,0.0108166-0.1448441,0.0180278-0.2172089,0.0180278
		c-0.3476601,0-0.4781132-0.1375203-0.4781132-0.4453783v-1.111742h-0.282505V5.6697659h0.282505V5.267909l0.2463398-0.1558027
		v0.5576596h0.4635468v0.2065639h-0.4635468v1.0610094c0,0.1122813,0.0289574,0.2897172,0.2823639,0.2897172
		c0.0797176,0,0.1122818-0.0144219,0.1666183-0.0325913V7.4154224z"/>
	<path fill="#FFFFFF" d="M24.3013515,5.8763299h-0.2897186V5.6697659h0.2897186V5.4307814
		c0-0.2825065,0.133913-0.5468431,0.5648975-0.5468431c0.1230965,0,0.213604,0.0145354,0.2933216,0.0325627v0.2209578
		c-0.065155-0.0217471-0.1448727-0.0471272-0.2499428-0.0471272c-0.2859669,0-0.3620834,0.1594086-0.3620834,0.3911819v0.1882524
		h0.4961414v0.2065639h-0.4961414v1.5173416h-0.2461929V5.8763299z"/>
	<path fill="#FFFFFF" d="M25.2169476,6.5353403c0-0.5033498,0.1956043-0.9053483,0.7025318-0.9053483
		c0.5107021,0,0.7098846,0.4019985,0.7098846,0.9053483c0,0.5034599-0.1991825,0.8981099-0.7098846,0.8981099
		C25.4125519,7.4334502,25.2169476,7.0388002,25.2169476,6.5353403z M25.9194794,7.2270565
		c0.2825336,0,0.4273777-0.2607594,0.4273777-0.6953216c0-0.4309845-0.1448441-0.6953497-0.4273777-0.6953497
		c-0.2789001,0-0.4201393,0.2643652-0.4201393,0.6953497C25.4993401,6.9662971,25.6405792,7.2270565,25.9194794,7.2270565z"/>
	<path fill="#FFFFFF" d="M27.1029053,4.8948684h0.2461967v2.4988031h-0.2461967V4.8948684z"/>
	<path fill="#FFFFFF" d="M28.8733749,7.1003528h-0.0072117c-0.0363102,0.1230984-0.17383,0.3330975-0.4491253,0.3330975
		c-0.4164181,0-0.59025-0.3403082-0.59025-0.8871794c0-0.4635477,0.1628723-0.9162788,0.5866451-0.9162788
		c0.3005333,0,0.4092083,0.1991825,0.4527302,0.3222804h0.0072117v-1.057404h0.2461948v2.4988031h-0.2461948V7.1003528z
		 M28.4677696,7.2270565c0.2825069,0,0.4056053-0.3910689,0.4056053-0.688139c0-0.3838291-0.1376343-0.7025323-0.3983936-0.7025323
		c-0.2933216,0-0.3658295,0.3912106-0.3658295,0.7568989C28.1091518,6.8142371,28.1417427,7.2270565,28.4677696,7.2270565z"/>
</g>
</svg>
