<svg width="171" height="52" xmlns="http://www.w3.org/2000/svg">
  <g fill="none" fill-rule="evenodd">
    <path fill="#181C56" d="M2.7188.5483v35.117H28.252v-5.9487H9.3509v-8.4914h16.7695v-5.9487H9.351V6.497H28.252V.5483z"/>
    <path fill="#FF5959" d="M0 51.8483h62.4842v-5.4H0z"/>
    <path fill="#181C56" d="M58.5706.5483v21.2524L35.7846.5483h-.7104v35.117h6.6318V14.7966l22.7875 20.8687h.7096V.5483zM99.1444 21.2233h-9.9007v29.1682H82.612V21.2233h-9.9488v-5.9487h26.4812zM119.2772 51.015c-2.2428 0-4.2797-.3524-6.1109-1.0555-1.8318-.703-3.3953-1.6946-4.6899-2.9743-1.295-1.279-2.2975-2.8305-3.0078-4.6535-.7107-1.823-1.0664-3.8534-1.0664-6.093V15.2747h6.6325v20.9642c0 1.7596.284 3.2145.8527 4.3657.5683 1.1513 1.2707 2.0632 2.1078 2.7346.8367.6718 1.7368 1.1358 2.7007 1.391.9627.2568 1.8236.384 2.5813.384.758 0 1.6186-.1272 2.5825-.384.9627-.2552 1.8628-.7192 2.6999-1.391.8363-.6714 1.5395-1.5833 2.1078-2.7346.569-1.1512.8527-2.6061.8527-4.3657V15.2746h6.6325v20.9642c0 2.2395-.3479 4.2698-1.0422 6.0929-.6953 1.823-1.6905 3.3746-2.9847 4.6535-1.2954 1.2797-2.8588 2.2712-4.6895 2.9743-1.8323.7031-3.8845 1.0554-6.159 1.0554M148.3635 33.3608h7.5553c1.3841 0 2.525-.1756 3.4222-.528.8975-.3515 1.6059-.8155 2.1253-1.3914.5198-.5754.8736-1.223 1.0623-1.9427a8.5673 8.5673 0 00.2834-2.1825c0-.8636-.1339-1.663-.4009-2.3989-.2684-.7352-.6775-1.3745-1.2285-1.919-.5508-.5433-1.2588-.9749-2.1246-1.2955-.8666-.319-1.912-.4795-3.1392-.4795h-7.5553v12.1375zm0 5.8527v11.178h-6.6321V15.2746h15.7542c1.7722 0 3.393.296 4.8644.8877 1.471.5921 2.7286 1.4232 3.7723 2.4944 1.0436 1.072 1.8583 2.351 2.444 3.838.5847 1.4873.8778 3.1106.8778 4.8694 0 1.3114-.1741 2.5828-.5216 3.8138-.348 1.2313-.8308 2.343-1.4482 3.3342-.6171.9915-1.3763 1.8468-2.2775 2.5665-.9012.7197-1.8904 1.2234-2.9661 1.5111l8.6344 11.8018h-7.9107l-8.0278-11.178h-6.5631z"/>
  </g>
</svg>