<svg width="320" height="320" viewBox="0 0 320 320" fill="none" xmlns="http://www.w3.org/2000/svg">
<path d="M183.882 89.453V56.3628H134.012V90.883C117.518 97.2438 103.804 109.232 95.2943 124.727C86.785 140.223 84.0287 158.228 87.5125 175.559C90.9963 192.891 100.496 208.433 114.332 219.437C128.168 230.441 145.449 236.198 163.12 235.691C180.791 235.185 197.713 228.446 210.896 216.668C224.079 204.889 232.672 188.828 235.157 171.326C237.642 153.823 233.858 136.005 224.475 121.023C215.092 106.041 200.713 94.8582 183.882 89.453Z" fill="#F2F2F5"/>
<path d="M161.92 238.915C160.889 238.896 159.864 238.771 158.86 238.54C158.525 238.473 158.109 238.388 157.934 238.38L157.473 238.356C156.358 238.301 155.206 238.244 154.008 238.124C153.873 238.128 153.56 238.166 153.328 238.194C152.192 238.37 151.037 238.384 149.898 238.235C148.746 238.032 147.63 237.66 146.586 237.133C146.434 237.062 146.242 236.973 146.103 236.914C145.967 236.919 145.781 236.93 145.633 236.939C144.413 237.058 143.182 236.974 141.989 236.692C141.081 236.44 140.191 236.126 139.327 235.752C138.905 235.58 138.508 235.417 138.195 235.317C137.304 235.02 136.435 234.662 135.593 234.245C135.183 234.052 134.797 233.87 134.489 233.754C133.629 233.418 132.791 233.028 131.979 232.589C131.574 232.379 131.192 232.18 130.868 232.039C130.521 231.887 130.115 231.734 129.685 231.573C128.827 231.266 127.987 230.913 127.167 230.516C126.875 230.369 126.478 230.211 126.058 230.044C125.178 229.713 124.323 229.32 123.498 228.869C123.174 228.685 122.846 228.505 122.518 228.326C121.708 227.882 120.871 227.424 120.007 226.873C119.08 226.255 118.238 225.518 117.502 224.681C117.33 224.497 117.098 224.249 116.991 224.156C116.86 224.075 116.523 223.916 116.273 223.799C115.284 223.367 114.35 222.819 113.491 222.165C113.197 221.932 112.84 221.678 112.461 221.41C111.703 220.891 110.975 220.332 110.279 219.733C109.56 219.077 108.897 218.363 108.295 217.599C108.017 217.261 107.755 216.942 107.559 216.75C107.288 216.485 106.962 216.197 106.617 215.891C105.922 215.293 105.258 214.66 104.629 213.993C103.941 213.217 103.337 212.369 102.829 211.465C102.675 211.194 102.507 210.931 102.327 210.676C102.101 210.403 101.804 210.089 101.489 209.757C100.842 209.097 100.237 208.398 99.6756 207.664C99.4517 207.362 99.1746 207.027 98.881 206.672C98.2848 205.974 97.7265 205.244 97.2085 204.485C97.0293 204.215 96.7627 203.879 96.4806 203.523C95.8784 202.792 95.3286 202.021 94.8352 201.213C94.3721 200.403 93.9608 199.565 93.6035 198.703C93.4194 198.28 93.2454 197.881 93.0833 197.57C92.8906 197.2 92.6837 196.835 92.4775 196.469C92.0672 195.743 91.6022 194.919 91.1872 194.008C90.7812 193.071 90.47 192.096 90.2583 191.097C90.1885 190.772 90.1022 190.452 89.9999 190.136C89.9456 190.003 89.7293 189.642 89.5716 189.378C88.997 188.48 88.5275 187.518 88.1724 186.512C87.8118 185.333 87.6503 184.103 87.6946 182.872C87.6941 182.687 87.6937 182.445 87.6866 182.312C87.6083 182.028 87.5275 181.745 87.4471 181.462C87.1875 180.55 86.9189 179.608 86.6952 178.571C86.6306 178.273 86.5056 177.873 86.3735 177.451C86.0704 176.545 85.8349 175.618 85.6689 174.678C85.4428 173.27 85.267 171.966 85.1321 170.692C85.0462 169.732 85.0379 168.767 85.1073 167.806C85.1296 167.368 85.1506 166.954 85.1354 166.667C85.126 166.525 85.0358 166.12 84.9698 165.824C84.7103 164.791 84.5684 163.732 84.5469 162.667C84.5631 161.689 84.6608 160.715 84.8387 159.753C84.9081 159.328 84.9735 158.926 84.9875 158.659C85.0019 158.39 84.9777 157.98 84.9523 157.547C84.8736 156.574 84.8775 155.596 84.9639 154.624C85.0727 153.707 85.2294 152.797 85.4335 151.897C85.5279 151.449 85.617 151.027 85.6764 150.657C85.7356 150.287 85.7808 149.853 85.8287 149.394C85.9098 148.476 86.0419 147.564 86.2246 146.661C86.4785 145.595 86.8628 144.564 87.3689 143.592C87.4912 143.34 87.6587 142.994 87.6993 142.867C87.7371 142.728 87.7827 142.312 87.8194 141.977C87.9048 140.933 88.1049 139.902 88.416 138.902C88.7185 138.028 89.0708 137.171 89.4713 136.337C89.663 135.921 89.8441 135.528 89.9774 135.188C90.3651 134.2 90.7838 133.304 91.1891 132.438C91.3319 132.133 91.4748 131.827 91.6146 131.52C92.0057 130.689 92.4424 129.88 92.9227 129.097C93.1406 128.73 93.3473 128.38 93.5139 128.066C93.5575 127.938 93.63 127.654 93.6842 127.441C93.9346 126.297 94.3532 125.195 94.9264 124.173C95.5275 123.205 96.2591 122.324 97.1006 121.556C97.2746 121.386 97.5096 121.157 97.5966 121.054C97.81 120.732 98.0156 120.406 98.2214 120.081C98.6737 119.366 99.1862 118.557 99.786 117.75C100.381 116.95 101 116.249 101.546 115.63C101.822 115.318 102.099 115.007 102.365 114.685C103.226 113.646 104.092 112.692 104.909 111.803C104.975 111.688 105.081 111.48 105.162 111.322C105.688 110.197 106.397 109.168 107.262 108.277C107.944 107.628 108.67 107.028 109.435 106.479C109.801 106.206 110.147 105.948 110.394 105.73C110.71 105.451 111.016 105.16 111.324 104.869C111.926 104.3 112.609 103.654 113.388 103.035C114.186 102.425 115.039 101.892 115.937 101.443C116.244 101.288 116.543 101.118 116.833 100.933C117.587 100.411 118.37 99.933 119.179 99.5013C119.581 99.2784 119.962 99.0676 120.271 98.8705C120.394 98.7913 120.712 98.5063 120.944 98.2984C121.71 97.5724 122.555 96.9349 123.464 96.398C123.73 96.2472 123.997 96.0934 124.265 95.9388C125.124 95.4439 126.012 94.9319 126.983 94.4467C127.901 94.0085 128.86 93.6629 129.846 93.4151C130.167 93.3334 130.484 93.2355 130.795 93.1218C131.635 92.7673 132.493 92.4585 133.366 92.1967C133.804 92.0584 134.218 91.9272 134.572 91.7942C134.811 91.7042 135.168 91.5205 135.547 91.3259C136.409 90.8583 137.309 90.466 138.239 90.1534C138.53 90.0605 138.919 89.8963 139.331 89.7222C140.202 89.3341 141.099 89.0108 142.017 88.7547C143.052 88.5068 144.111 88.3782 145.175 88.3713C145.48 88.3609 145.897 88.3468 146.039 88.3192C147.294 88.0597 148.512 87.873 149.691 87.692L149.982 87.6475C150.255 87.6054 150.652 87.5008 151.073 87.3903C152.003 87.1248 152.952 86.9345 153.912 86.8212C154.283 86.7833 154.714 86.7158 155.17 86.6441C156.074 86.4879 156.986 86.3805 157.902 86.3224C158.323 86.3011 158.747 86.2627 159.172 86.2254C159.994 86.1533 160.925 86.0718 161.92 86.0718C162.944 86.0903 163.964 86.212 164.964 86.4351C165.281 86.5046 165.601 86.5582 165.923 86.5956C166.335 86.6164 166.747 86.6268 167.159 86.6376C167.996 86.6597 168.946 86.6851 169.93 86.7851C170.922 86.8864 171.842 87.0593 172.654 87.2122C173.067 87.2897 173.479 87.368 173.892 87.4318C174.241 87.4855 174.677 87.5214 175.137 87.5593C176.06 87.6186 176.978 87.7361 177.885 87.911C178.941 88.1525 179.964 88.5197 180.933 89.0047C181.137 89.0997 181.4 89.2223 181.567 89.2897C181.702 89.2905 181.902 89.288 182.058 89.2847C183.301 89.2179 184.547 89.3603 185.743 89.7059C186.705 90.0312 187.634 90.4496 188.516 90.9551C188.807 91.1216 189.107 91.2731 189.414 91.4089C190.391 91.7763 191.278 92.1763 192.136 92.563C192.458 92.7081 192.779 92.8532 193.102 92.994C193.477 93.1577 193.857 93.3119 194.236 93.4665C195.014 93.7831 195.896 94.1423 196.787 94.5877C197.664 95.0449 198.498 95.579 199.28 96.1839C199.62 96.4348 199.941 96.6719 200.155 96.7931C200.432 96.9498 200.818 97.1259 201.226 97.3123C202.091 97.6874 202.928 98.1237 203.731 98.6179C203.981 98.7767 204.231 98.9347 204.483 99.0921C205.33 99.6242 206.205 100.175 207.096 100.809C207.835 101.35 208.543 101.931 209.219 102.55C209.564 102.855 209.89 103.144 210.183 103.377C210.284 103.451 210.632 103.636 210.887 103.772C211.861 104.255 212.773 104.854 213.603 105.556C214.476 106.362 215.22 107.297 215.81 108.328C215.919 108.504 216.063 108.736 216.143 108.847C216.364 109.056 216.663 109.302 216.979 109.56C217.721 110.145 218.42 110.783 219.071 111.469C219.996 112.475 220.837 113.491 221.65 114.473L221.684 114.514C222.29 115.272 222.833 116.077 223.306 116.924C223.525 117.296 223.732 117.649 223.896 117.869C224.147 118.206 224.41 118.533 224.672 118.86C225.185 119.5 225.766 120.225 226.318 121.056C226.483 121.305 226.747 121.628 227.025 121.971C227.645 122.702 228.207 123.479 228.708 124.296C229.266 125.24 229.739 126.162 230.197 127.054C230.332 127.317 230.468 127.58 230.604 127.843C231.057 128.75 231.419 129.701 231.684 130.68C231.779 130.998 231.877 131.326 231.957 131.532C232.038 131.643 232.191 131.831 232.308 131.976C233.107 132.891 233.753 133.928 234.222 135.049C234.588 135.981 234.867 136.901 235.113 137.712C235.233 138.104 235.351 138.496 235.479 138.884C235.593 139.226 235.755 139.63 235.927 140.058C236.289 140.915 236.599 141.793 236.856 142.688C237.127 143.775 237.254 144.893 237.233 146.013C237.237 146.281 237.241 146.649 237.26 146.775C237.285 146.87 237.437 147.244 237.548 147.517C237.983 148.506 238.301 149.542 238.494 150.604C238.549 150.951 238.61 151.3 238.671 151.651C238.833 152.587 239.001 153.555 239.112 154.599C239.205 155.7 239.157 156.808 238.969 157.897C238.931 158.172 238.877 158.549 238.877 158.681C238.894 158.991 238.949 159.416 239.007 159.864C239.144 160.792 239.22 161.729 239.233 162.667C239.233 163.091 239.249 163.517 239.264 163.941C239.292 164.769 239.325 165.707 239.272 166.697C239.184 167.879 238.916 169.041 238.479 170.143C238.409 170.34 238.316 170.603 238.279 170.732C238.243 171.096 238.219 171.496 238.194 171.918C238.152 172.829 238.064 173.738 237.93 174.64C237.734 175.862 237.495 177.114 237.178 178.58C237.115 178.872 237.054 179.166 236.993 179.458C236.789 180.431 236.579 181.437 236.291 182.491C236.037 183.378 235.732 184.249 235.378 185.1C235.21 185.523 235.051 185.922 234.936 186.269C234.833 186.579 234.734 186.991 234.628 187.428C234.426 188.347 234.158 189.25 233.827 190.131C233.417 191.177 232.974 192.136 232.546 193.064L232.206 193.805C232.165 193.909 232.075 194.281 232.009 194.552C231.782 195.63 231.42 196.676 230.931 197.663C230.182 199.099 229.582 200.191 228.984 201.203C228.338 202.24 227.529 203.165 226.586 203.941C226.444 204.068 226.255 204.234 226.161 204.328C225.515 205.293 224.856 206.177 224.217 207.033L223.895 207.466C223.13 208.495 222.34 209.558 221.452 210.63C220.764 211.461 219.844 212.557 218.836 213.653C218.785 213.72 218.599 214.029 218.463 214.255C217.916 215.233 217.242 216.134 216.459 216.935C215.743 217.612 214.969 218.226 214.146 218.768C213.794 219.011 213.461 219.24 213.272 219.408C212.468 220.117 211.675 220.737 210.908 221.335C210.657 221.532 210.406 221.728 210.156 221.926C209.868 222.155 209.545 222.445 209.202 222.751C208.527 223.375 207.818 223.959 207.077 224.502C206.874 224.647 206.574 224.919 206.258 225.207C205.541 225.888 204.766 226.505 203.942 227.05C202.934 227.693 201.833 228.35 200.48 229.117C199.417 229.688 198.27 230.085 197.082 230.296C196.889 230.338 196.633 230.393 196.503 230.429C196.279 230.541 196.054 230.655 195.829 230.77C194.939 231.221 194.019 231.688 193.01 232.129C192.672 232.276 192.286 232.473 191.878 232.681C191.067 233.11 190.232 233.493 189.377 233.827C189.015 233.963 188.62 234.131 188.201 234.308C187.446 234.628 186.59 234.991 185.637 235.294C185.239 235.421 184.844 235.561 184.449 235.701C183.665 235.979 182.777 236.293 181.811 236.546C180.714 236.808 179.585 236.92 178.457 236.878C178.211 236.876 177.878 236.875 177.741 236.888C177.524 236.938 177.16 237.065 176.807 237.188C175.866 237.542 174.894 237.806 173.904 237.976C172.907 238.129 171.975 238.208 171.074 238.284C170.688 238.316 170.301 238.349 169.914 238.388C169.53 238.427 169.145 238.474 168.76 238.52C167.865 238.627 166.939 238.738 165.927 238.79C164.727 238.85 163.33 238.915 161.92 238.915ZM154.033 227.457C154.367 227.457 154.7 227.473 155.032 227.507C155.975 227.602 156.959 227.651 158.002 227.703L158.473 227.726C159.315 227.782 160.151 227.901 160.974 228.085C161.287 228.156 161.604 228.211 161.923 228.248C163.082 228.248 164.27 228.193 165.388 228.136C166.033 228.104 166.741 228.019 167.49 227.929C167.939 227.875 168.387 227.822 168.835 227.776C169.283 227.73 169.73 227.692 170.177 227.655C170.933 227.591 171.647 227.531 172.283 227.433C172.625 227.348 172.962 227.242 173.291 227.117C174.048 226.838 174.823 226.61 175.61 226.436C176.567 226.256 177.541 226.181 178.514 226.211C178.744 226.213 179.051 226.213 179.198 226.204C179.708 226.064 180.283 225.861 180.89 225.647C181.394 225.468 181.898 225.29 182.405 225.129C182.884 224.977 183.445 224.739 184.039 224.487C184.538 224.276 185.055 224.057 185.621 223.844C186.105 223.645 186.578 223.422 187.039 223.175C187.544 222.918 188.116 222.627 188.742 222.354C189.466 222.037 190.212 221.659 191.001 221.258C191.278 221.118 191.555 220.978 191.833 220.838C192.789 220.385 193.801 220.058 194.842 219.867C195.019 219.829 195.248 219.78 195.385 219.744C196.497 219.112 197.398 218.572 198.21 218.055C198.516 217.826 198.808 217.578 199.085 217.312C199.654 216.778 200.256 216.278 200.886 215.816C201.303 215.499 201.704 215.162 202.087 214.804C202.51 214.426 202.989 213.997 203.523 213.573C203.796 213.357 204.068 213.142 204.342 212.929C205.015 212.404 205.65 211.908 206.215 211.409C206.807 210.901 207.429 210.428 208.078 209.995C208.401 209.772 208.764 209.521 208.947 209.359C209.036 209.235 209.199 208.964 209.321 208.76C209.793 207.928 210.352 207.148 210.986 206.431C211.827 205.518 212.63 204.56 213.236 203.829C213.946 202.971 214.62 202.064 215.333 201.104L215.667 200.656C216.27 199.847 216.84 199.083 217.348 198.319C217.958 197.441 218.683 196.649 219.504 195.965C219.634 195.85 219.802 195.701 219.902 195.604C220.364 194.815 220.846 193.933 221.448 192.781C221.498 192.639 221.581 192.296 221.643 192.041C221.84 191.129 222.127 190.239 222.499 189.384C222.618 189.122 222.739 188.859 222.861 188.596C223.241 187.771 223.601 186.992 223.897 186.237C224.043 185.807 224.164 185.37 224.26 184.927C224.405 184.326 224.569 183.644 224.812 182.912C225.024 182.272 225.258 181.682 225.465 181.162C225.669 180.678 225.848 180.184 226.001 179.682C226.204 178.939 226.373 178.131 226.552 177.275C226.618 176.96 226.684 176.644 226.752 176.327C227.028 175.051 227.233 173.979 227.399 172.949C227.474 172.481 227.509 171.895 227.547 171.275C227.579 170.746 227.615 170.147 227.681 169.521C227.81 168.507 228.062 167.512 228.433 166.56C228.499 166.375 228.586 166.132 228.627 165.993C228.645 165.498 228.625 164.92 228.604 164.31C228.585 163.762 228.567 163.215 228.567 162.667C228.547 162.187 228.501 161.708 228.429 161.232C228.352 160.635 228.264 159.958 228.225 159.22C228.191 158.278 228.253 157.335 228.408 156.406C228.444 156.153 228.492 155.812 228.498 155.662C228.424 154.985 228.296 154.25 228.161 153.473C228.093 153.079 228.025 152.686 227.962 152.295C227.937 152.196 227.782 151.816 227.669 151.539C227.312 150.717 227.031 149.865 226.827 148.992C226.643 148.054 226.556 147.1 226.568 146.144C226.565 145.902 226.561 145.576 226.546 145.426C226.433 145.039 226.237 144.55 226.03 144.035C225.816 143.501 225.573 142.897 225.356 142.242C225.199 141.77 225.053 141.291 224.908 140.813C224.722 140.201 224.545 139.62 224.358 139.116C224.274 139.003 224.131 138.826 224.02 138.689C223.329 137.888 222.747 136.999 222.289 136.046C221.96 135.294 221.684 134.521 221.464 133.73C221.376 133.406 221.27 133.086 221.146 132.774C221 132.493 220.854 132.209 220.709 131.926C220.304 131.138 219.922 130.394 219.525 129.722C219.288 129.367 219.03 129.026 218.752 128.703C218.345 128.203 217.884 127.636 217.434 126.959C217.146 126.524 216.759 126.042 216.349 125.531C216.022 125.122 215.683 124.699 215.335 124.231C214.892 123.621 214.484 122.986 214.111 122.33C213.918 121.979 213.703 121.641 213.468 121.317L213.433 121.274C212.674 120.357 211.957 119.491 211.22 118.69C210.903 118.377 210.568 118.083 210.217 117.809C209.73 117.41 209.179 116.959 208.617 116.408C207.893 115.669 207.263 114.842 206.744 113.947C206.659 113.809 206.551 113.635 206.47 113.514C206.314 113.421 206.069 113.29 205.877 113.189C205.057 112.777 204.278 112.289 203.55 111.73C203.029 111.317 202.558 110.899 202.142 110.53C201.691 110.13 201.265 109.752 200.904 109.495C200.267 109.041 199.558 108.595 198.808 108.123C198.538 107.954 198.269 107.784 198 107.613C197.612 107.391 197.211 107.192 196.799 107.016C196.228 106.756 195.581 106.46 194.898 106.074C194.222 105.679 193.571 105.242 192.948 104.767C192.651 104.536 192.341 104.323 192.018 104.129C191.495 103.867 190.872 103.613 190.213 103.345C189.752 103.157 189.291 102.969 188.835 102.77C188.473 102.612 188.113 102.45 187.753 102.287C187.016 101.955 186.319 101.641 185.66 101.393C184.897 101.093 184.155 100.74 183.441 100.337C183.202 100.207 182.897 100.043 182.688 99.9445C182.555 99.9432 182.388 99.9469 182.252 99.9494C181.149 100.005 180.044 99.9037 178.971 99.6474C178.095 99.4028 177.245 99.0769 176.431 98.674C176.177 98.5561 175.834 98.3957 175.69 98.349C175.323 98.277 174.808 98.2345 174.264 98.1899C173.668 98.1407 172.992 98.0853 172.27 97.974C171.74 97.8924 171.212 97.794 170.683 97.6944C170.019 97.5698 169.393 97.4519 168.85 97.3965C168.265 97.3368 167.592 97.3194 166.878 97.3003C166.381 97.2875 165.883 97.2736 165.385 97.2486C164.553 97.1939 163.726 97.078 162.911 96.9019C162.584 96.8291 162.253 96.7745 161.919 96.7382C161.393 96.7382 160.768 96.7932 160.106 96.8511C159.575 96.8978 159.026 96.9461 158.441 96.9757C157.993 96.9982 157.426 97.0874 156.826 97.1815C156.275 97.2678 155.651 97.3661 154.992 97.4328C154.586 97.4994 154.183 97.5907 153.787 97.7061C153.069 97.9067 152.34 98.0683 151.604 98.1903L151.307 98.2357C150.216 98.4028 149.185 98.5607 148.202 98.7644C147.323 98.9319 146.432 99.0212 145.537 99.0315C145.236 99.0415 144.824 99.0557 144.684 99.0819C144.276 99.2151 143.875 99.3705 143.484 99.5473C142.897 99.7957 142.231 100.077 141.471 100.318C141.112 100.461 140.762 100.627 140.423 100.813C139.744 101.175 139.044 101.498 138.327 101.778C137.708 102.011 137.112 102.199 136.586 102.366C136.013 102.547 135.472 102.719 135.064 102.897C134.298 103.218 133.511 103.483 132.708 103.691C132.384 103.772 132.065 103.871 131.752 103.988C131.064 104.331 130.349 104.744 129.591 105.18C129.302 105.347 129.012 105.513 128.722 105.678C128.614 105.748 128.295 106.034 128.062 106.243C127.423 106.841 126.734 107.384 126.004 107.866C125.42 108.238 124.853 108.552 124.352 108.83C123.897 109.07 123.454 109.334 123.025 109.619C122.359 110.08 121.663 110.495 120.941 110.862C120.625 111.02 120.318 111.196 120.022 111.389C119.603 111.721 119.142 112.158 118.653 112.619C118.256 112.994 117.859 113.369 117.452 113.728C116.878 114.235 116.313 114.656 115.815 115.028C115.462 115.291 115.126 115.542 114.881 115.755C114.815 115.874 114.727 116.046 114.658 116.182C114.191 117.172 113.587 118.091 112.864 118.911C112.111 119.73 111.315 120.602 110.582 121.488C110.242 121.898 109.891 122.296 109.54 122.694C109.094 123.198 108.673 123.674 108.348 124.112C107.986 124.599 107.621 125.175 107.235 125.785C106.98 126.189 106.723 126.593 106.458 126.992C105.902 127.795 105.26 128.534 104.544 129.196C104.418 129.319 104.26 129.473 104.149 129.588C104.109 129.73 104.06 129.921 104.021 130.075C103.798 131.065 103.457 132.026 103.006 132.935C102.7 133.521 102.383 134.058 102.102 134.532C101.796 135.049 101.507 135.536 101.323 135.941C101.168 136.28 101.01 136.619 100.852 136.957C100.502 137.705 100.172 138.411 99.908 139.084C99.6619 139.711 99.3955 140.289 99.1605 140.799C98.9295 141.275 98.7226 141.763 98.5405 142.259C98.5049 142.389 98.4574 142.823 98.4225 143.139C98.3462 144 98.1999 144.854 97.9851 145.691C97.7288 146.571 97.3886 147.425 96.9692 148.241C96.8513 148.484 96.6919 148.813 96.6419 148.955C96.5555 149.373 96.4984 149.921 96.438 150.5C96.3801 151.056 96.3143 151.686 96.2084 152.346C96.1076 152.974 95.9817 153.571 95.8707 154.097C95.7421 154.707 95.6207 155.283 95.5711 155.749C95.5573 156.14 95.5671 156.531 95.6007 156.921C95.6579 157.686 95.6709 158.453 95.6397 159.22C95.5909 159.973 95.4999 160.724 95.3669 161.467C95.2912 161.863 95.24 162.264 95.2136 162.666C95.2219 162.788 95.314 163.201 95.3813 163.504C95.5914 164.358 95.7274 165.228 95.7876 166.105C95.8184 166.852 95.8092 167.601 95.7601 168.348C95.7288 168.753 95.7218 169.16 95.7392 169.566C95.8542 170.649 96.0051 171.767 96.2009 172.987C96.2926 173.419 96.4102 173.846 96.5532 174.264C96.7413 174.865 96.9549 175.547 97.1215 176.319C97.2723 177.017 97.483 177.757 97.706 178.539C97.8096 178.903 97.9133 179.268 98.0132 179.634C98.2764 180.685 98.3935 181.767 98.3614 182.85C98.3616 182.986 98.362 183.155 98.3649 183.287C98.4536 183.448 98.603 183.697 98.7203 183.893C99.1902 184.639 99.5949 185.424 99.9299 186.24C100.221 187.015 100.456 187.81 100.633 188.619C100.703 188.946 100.791 189.27 100.896 189.587C101.119 190.078 101.434 190.636 101.767 191.227C102.032 191.696 102.295 192.164 102.542 192.638C102.877 193.28 103.146 193.898 103.383 194.443C103.571 194.902 103.783 195.35 104.019 195.786C104.272 196.173 104.547 196.545 104.843 196.9C105.229 197.388 105.667 197.941 106.093 198.581C106.343 198.958 106.71 199.402 107.1 199.872C107.45 200.296 107.847 200.776 108.237 201.301C108.55 201.692 108.883 202.067 109.235 202.423C109.636 202.847 110.091 203.327 110.544 203.875C111.078 204.54 111.559 205.247 111.983 205.988C112.137 206.259 112.305 206.523 112.486 206.778C112.792 207.11 113.228 207.496 113.689 207.905C114.098 208.266 114.56 208.676 115.023 209.129C115.557 209.665 116.062 210.231 116.534 210.823C116.783 211.143 117.051 211.447 117.336 211.734C117.666 212.025 118.133 212.356 118.627 212.706C119.076 213.024 119.583 213.383 120.096 213.788C120.222 213.868 120.563 214.028 120.814 214.146C121.647 214.514 122.444 214.959 123.194 215.476C123.957 216.041 124.659 216.684 125.291 217.393C125.46 217.573 125.687 217.816 125.798 217.914C126.349 218.262 126.977 218.605 127.641 218.969C128.015 219.174 128.388 219.378 128.758 219.588C129.164 219.794 129.581 219.976 130.008 220.135C130.587 220.365 131.243 220.627 131.937 220.974C132.337 221.174 132.871 221.375 133.436 221.587C133.951 221.78 134.533 221.999 135.136 222.262C135.79 222.548 136.377 222.853 136.895 223.122C137.333 223.361 137.784 223.578 138.245 223.77C138.956 224.038 139.586 224.335 140.142 224.597C140.56 224.806 140.989 224.991 141.427 225.152C142.152 225.382 142.8 225.648 143.371 225.882C143.787 226.052 144.184 226.215 144.499 226.316C144.637 226.312 144.838 226.3 144.996 226.291C146.075 226.192 147.163 226.242 148.229 226.439C149.213 226.664 150.168 227.005 151.072 227.455C151.215 227.521 151.394 227.604 151.531 227.663C151.681 227.649 151.881 227.625 152.042 227.605C152.702 227.514 153.367 227.465 154.033 227.457Z" fill="#B3B4BD"/>
<path d="M133.278 92.7859C132.436 80.6627 132.596 68.49 133.278 56.3631C133.293 56.1791 133.378 56.0076 133.514 55.8827C133.65 55.7578 133.828 55.6885 134.012 55.6885C134.197 55.6885 134.375 55.7578 134.511 55.8827C134.647 56.0076 134.731 56.1791 134.747 56.3631C135.32 65.4587 135.392 74.5718 135.204 83.6801C135.118 86.7154 134.999 89.7506 134.747 92.7859C134.729 92.9681 134.644 93.1373 134.508 93.2603C134.372 93.3833 134.195 93.4514 134.012 93.4514C133.829 93.4514 133.652 93.3833 133.517 93.2603C133.381 93.1373 133.296 92.9681 133.278 92.7859L133.278 92.7859Z" fill="#5E5F6C"/>
<path d="M183.149 91.3556C182.458 82.6214 182.53 73.8611 182.739 65.1111C182.824 62.195 182.937 59.279 183.149 56.363C183.162 56.1774 183.246 56.0039 183.382 55.8772C183.518 55.7506 183.697 55.6802 183.883 55.6802C184.069 55.6802 184.248 55.7506 184.385 55.8772C184.521 56.0039 184.604 56.1774 184.618 56.363C185.191 65.1008 185.263 73.8565 185.075 82.6075C184.989 85.5236 184.87 88.4396 184.618 91.3556C184.599 91.5374 184.513 91.7058 184.378 91.8282C184.242 91.9506 184.066 92.0184 183.883 92.0184C183.701 92.0184 183.524 91.9506 183.389 91.8282C183.253 91.7058 183.168 91.5374 183.149 91.3556V91.3556Z" fill="#5E5F6C"/>
<path d="M160.974 239.18C160.236 239.163 159.501 239.089 158.774 238.958C158.266 238.871 157.753 238.809 157.238 238.773C156.44 238.735 155.661 238.632 154.907 238.532C154.446 238.472 153.985 238.411 153.524 238.366C153.03 238.317 152.526 238.305 151.993 238.292C151.255 238.288 150.518 238.239 149.786 238.145C149.055 238.016 148.34 237.81 147.653 237.53C147.176 237.34 146.685 237.185 146.184 237.07C145.672 236.982 145.155 236.928 144.635 236.908C143.903 236.884 143.174 236.792 142.459 236.633C141.368 236.361 140.29 236.034 139.248 235.717L138.864 235.601C137.893 235.306 136.939 234.961 136.017 234.628L135.331 234.381C134.206 233.978 133.034 233.524 131.847 233.032C131.166 232.735 130.503 232.398 129.861 232.023C129.403 231.767 128.97 231.525 128.528 231.316C128.055 231.116 127.565 230.964 127.063 230.859C126.326 230.709 125.612 230.465 124.937 230.134C124.291 229.771 123.668 229.368 123.073 228.926C122.636 228.615 122.224 228.322 121.802 228.069C121.173 227.661 120.598 227.177 120.089 226.627C119.741 226.254 119.359 225.915 118.947 225.613C118.513 225.356 118.051 225.148 117.57 224.993C116.844 224.761 116.155 224.425 115.524 223.996C114.944 223.545 114.398 223.051 113.891 222.519C113.507 222.136 113.145 221.773 112.763 221.459C111.96 220.799 111.191 220.099 110.449 219.422L109.971 218.988C109.577 218.65 109.161 218.339 108.725 218.057C108.105 217.661 107.523 217.206 106.988 216.7C106.479 216.157 106.034 215.557 105.661 214.913C105.401 214.468 105.104 214.046 104.772 213.652C104.44 213.286 104.067 212.941 103.672 212.576C103.122 212.09 102.606 211.566 102.128 211.008C101.677 210.43 101.28 209.811 100.942 209.161C100.7 208.703 100.429 208.261 100.131 207.838C99.6014 207.125 99.1208 206.388 98.6557 205.676C98.4558 205.37 98.2555 205.063 98.0508 204.758C97.3518 203.714 96.7005 202.688 96.0601 201.622C95.7739 201.222 95.4331 200.864 95.0476 200.559C94.4264 200.066 93.8985 199.466 93.4891 198.786C93.1589 198.121 92.9028 197.421 92.7254 196.699C92.5992 196.196 92.4326 195.705 92.227 195.229C92.0162 194.784 91.7595 194.346 91.4879 193.882C91.1006 193.253 90.7574 192.599 90.4606 191.923C90.1979 191.232 90.0085 190.515 89.8956 189.785C89.8136 189.274 89.6927 188.769 89.5339 188.277C89.266 187.528 89.0646 186.773 88.8695 186.042C88.7501 185.595 88.6306 185.147 88.4958 184.701C88.3341 184.213 88.1417 183.735 87.9195 183.27C87.5981 182.608 87.3374 181.919 87.1408 181.21C87.0022 180.711 86.8312 180.222 86.6288 179.746C86.3354 179.067 86.1056 178.362 85.9425 177.64C85.829 176.859 85.8551 176.065 86.0198 175.293C86.1236 174.809 86.1594 174.313 86.1261 173.818C86.0419 173.313 85.9322 172.813 85.7975 172.319C85.5998 171.612 85.4568 170.891 85.3696 170.162C85.3093 169.419 85.2878 168.673 85.3052 167.928C85.3088 167.411 85.3121 166.922 85.2882 166.434C85.2537 165.922 85.1936 165.412 85.108 164.906C84.9808 164.182 84.9087 163.45 84.8926 162.715C84.9088 161.981 84.9816 161.249 85.1102 160.525C85.1968 160.019 85.2576 159.509 85.2922 158.997C85.3034 158.477 85.2792 157.956 85.22 157.439C85.1324 156.712 85.114 155.979 85.1652 155.249C85.2523 154.518 85.3937 153.794 85.5883 153.084C85.7185 152.561 85.8414 152.067 85.9129 151.581C86.0337 150.842 86.194 150.11 86.3933 149.388C86.5213 148.89 86.6423 148.421 86.7358 147.948C86.8236 147.437 86.8783 146.92 86.8995 146.402C86.925 145.671 87.0175 144.944 87.176 144.229C87.3649 143.473 87.6208 142.755 87.8683 142.061C88.0379 141.585 88.1981 141.136 88.336 140.68C88.4759 140.181 88.5881 139.673 88.6722 139.161C88.7861 138.438 88.959 137.725 89.1891 137.029C89.4518 136.296 89.7779 135.603 90.0936 134.934C90.3095 134.476 90.5134 134.044 90.6958 133.604C91.0041 132.861 91.3656 132.155 91.7149 131.473C91.9235 131.066 92.1318 130.659 92.3272 130.247C92.8179 129.211 93.3745 128.036 93.9803 126.905C94.2059 126.484 94.4118 126.053 94.6297 125.597C94.9476 124.931 95.2766 124.242 95.6764 123.576C96.0678 122.955 96.5033 122.362 96.9797 121.803C97.3195 121.385 97.6405 120.99 97.9151 120.58C98.1741 120.193 98.4193 119.798 98.6645 119.404C99.0643 118.761 99.4778 118.096 99.952 117.457C100.419 116.829 100.93 116.258 101.425 115.705C101.757 115.334 102.07 114.984 102.37 114.619C102.682 114.239 102.971 113.834 103.277 113.406C103.696 112.796 104.15 112.21 104.637 111.653C105.142 111.123 105.69 110.636 106.275 110.197C106.686 109.884 107.079 109.548 107.452 109.191C108.275 108.368 109.156 107.532 110.146 106.634C110.521 106.279 110.876 105.904 111.21 105.51C111.679 104.948 112.193 104.426 112.747 103.948C113.14 103.61 113.514 103.251 113.866 102.87C114.363 102.328 114.903 101.828 115.483 101.375C116.082 100.951 116.713 100.573 117.37 100.245C117.832 100.01 118.282 99.7522 118.718 99.4724C119.139 99.1711 119.538 98.8392 119.911 98.4793C120.441 97.9615 121.022 97.4992 121.646 97.0993C122.314 96.7343 123.031 96.4649 123.774 96.2988C124.269 96.1874 124.752 96.0222 125.212 95.8061C125.914 95.4299 126.632 95.118 127.327 94.8163C127.75 94.6325 128.174 94.4488 128.593 94.25C129.644 93.7525 130.781 93.2235 131.984 92.7248C132.392 92.5556 132.794 92.3763 133.197 92.1969C133.907 91.8802 134.642 91.5529 135.413 91.2769C135.888 91.0856 136.346 90.8529 136.78 90.5814C137.413 90.1813 138.091 89.8576 138.801 89.6171C139.543 89.3923 140.295 89.2407 141.023 89.0942C141.521 88.994 141.991 88.8992 142.455 88.7834C143.18 88.6269 143.919 88.5535 144.661 88.5646C145.176 88.5699 145.692 88.5313 146.201 88.4494C146.686 88.3237 147.154 88.1421 147.596 87.9082C148.277 87.5476 149.008 87.2908 149.765 87.1463C150.527 87.0342 151.288 86.9982 152.024 86.9636C152.537 86.9393 153.023 86.9164 153.504 86.8698C154.248 86.8226 154.994 86.8681 155.726 87.0052C156.233 87.0967 156.747 87.1412 157.261 87.1383C157.759 87.0851 158.248 86.9747 158.721 86.8093C159.446 86.5544 160.206 86.4084 160.975 86.376C161.745 86.409 162.506 86.5579 163.232 86.8178C163.702 86.9859 164.191 87.0981 164.687 87.152C165.157 87.1747 165.624 87.181 166.09 87.1872C166.841 87.1977 167.618 87.2083 168.404 87.2849C168.9 87.3331 169.409 87.3372 169.949 87.3416C170.68 87.3312 171.411 87.3718 172.137 87.4633C173.418 87.6516 174.661 87.8885 175.813 88.1166C176.64 88.2799 177.443 88.4976 178.219 88.7083C178.624 88.8176 179.027 88.9272 179.433 89.0285C179.941 89.1413 180.455 89.2211 180.973 89.2674C181.705 89.3285 182.43 89.4569 183.139 89.651C183.846 89.88 184.538 90.1528 185.211 90.4678C185.696 90.6835 186.155 90.8872 186.617 91.0524C187.307 91.3147 187.981 91.6216 188.632 91.9709C189.105 92.2124 189.552 92.4405 190.006 92.6289C190.49 92.815 190.986 92.9691 191.491 93.0903C192.206 93.2576 192.904 93.4909 193.576 93.7874C194.232 94.1197 194.857 94.5109 195.443 94.9561C195.857 95.2666 196.289 95.5505 196.739 95.8061C197.202 96.0318 197.684 96.2167 198.179 96.3587C198.897 96.5604 199.588 96.8456 200.239 97.2082C200.864 97.6012 201.463 98.036 202.029 98.5096C202.449 98.8454 202.846 99.1627 203.256 99.4373C203.695 99.7171 204.148 99.9721 204.615 100.201C205.277 100.52 205.911 100.894 206.512 101.317L206.84 101.561C207.719 102.213 208.629 102.887 209.493 103.597C210.053 104.078 210.578 104.596 211.066 105.15C211.433 105.549 211.78 105.925 212.147 106.257C212.503 106.581 212.88 106.889 213.278 107.214C213.871 107.683 214.44 108.182 214.983 108.708C215.495 109.24 215.971 109.806 216.409 110.4C216.737 110.826 217.046 111.229 217.379 111.595C217.711 111.961 218.088 112.308 218.488 112.674C219.042 113.159 219.561 113.683 220.04 114.242C220.5 114.852 220.87 115.524 221.139 116.238C221.318 116.712 221.549 117.163 221.828 117.585C222.15 117.983 222.508 118.35 222.898 118.681C223.471 119.164 223.982 119.716 224.42 120.324C224.826 120.953 225.198 121.605 225.535 122.274C225.777 122.735 226.006 123.171 226.256 123.588C226.456 123.92 226.66 124.25 226.865 124.58C227.307 125.292 227.764 126.029 228.175 126.797C228.7 127.778 229.18 128.792 229.643 129.772L229.823 130.153C230.119 130.832 230.339 131.541 230.478 132.268C230.577 132.774 230.717 133.27 230.898 133.753C231.08 134.192 231.282 134.621 231.496 135.075C231.81 135.739 232.133 136.427 232.396 137.161C232.58 137.642 232.791 138.112 233.027 138.57C233.369 139.222 233.656 139.9 233.886 140.598C234.085 141.307 234.238 142.027 234.343 142.756C234.431 143.284 234.514 143.783 234.634 144.265C234.777 144.758 234.96 145.238 235.183 145.701C235.511 146.372 235.761 147.078 235.93 147.806C236.057 148.53 236.133 149.262 236.157 149.996C236.188 150.539 236.217 151.051 236.289 151.544C236.416 152.406 236.489 153.275 236.56 154.116C236.592 154.497 236.624 154.879 236.661 155.261C236.725 155.774 236.822 156.282 236.951 156.782C237.141 157.497 237.264 158.228 237.319 158.965C237.322 159.731 237.211 160.492 236.988 161.224C236.841 161.709 236.752 162.21 236.722 162.716C236.747 163.227 236.825 163.735 236.955 164.23C237.149 164.958 237.243 165.709 237.234 166.462C237.171 167.215 237.01 167.957 236.754 168.669C236.585 169.147 236.463 169.641 236.391 170.144C236.342 170.638 236.331 171.14 236.318 171.671C236.315 172.406 236.267 173.141 236.173 173.87C236.101 174.363 236.074 174.875 236.045 175.417C236.024 176.15 235.949 176.881 235.822 177.604C235.651 178.338 235.385 179.047 235.033 179.713C234.797 180.164 234.606 180.636 234.461 181.123C234.356 181.627 234.296 182.139 234.283 182.654C234.267 183.399 234.162 184.139 233.97 184.859C233.826 185.332 233.716 185.826 233.599 186.349C233.452 187.076 233.26 187.793 233.024 188.496C232.738 189.203 232.356 189.868 231.888 190.47C231.578 190.871 231.312 191.303 231.094 191.76C230.785 192.504 230.425 193.206 230.077 193.885C229.869 194.291 229.661 194.697 229.466 195.11C228.85 196.409 228.321 197.466 227.802 198.436C227.407 199.172 226.97 199.867 226.547 200.539C226.322 200.896 226.097 201.254 225.878 201.618C225.66 202.059 225.505 202.529 225.418 203.014C225.277 203.794 224.997 204.543 224.59 205.224C224.147 205.836 223.625 206.388 223.038 206.864C222.643 207.187 222.281 207.549 221.957 207.944C221.659 208.369 221.388 208.812 221.147 209.272C220.81 209.925 220.413 210.546 219.961 211.126C219.482 211.683 218.961 212.201 218.401 212.677C218.009 213.014 217.635 213.372 217.279 213.749C217.01 214.046 216.745 214.348 216.48 214.65C215.937 215.269 215.376 215.908 214.77 216.513C214.496 216.788 214.225 217.066 213.953 217.345C213.37 217.946 212.766 218.567 212.122 219.15C211.555 219.632 210.932 220.045 210.266 220.38C209.81 220.613 209.374 220.886 208.966 221.195C208.641 221.463 208.323 221.735 208.005 222.007C207.399 222.525 206.772 223.062 206.099 223.562C205.692 223.879 205.303 224.22 204.935 224.582C204.415 225.099 203.853 225.572 203.254 225.994C202.83 226.291 202.421 226.611 202.031 226.952C201.479 227.439 200.89 227.881 200.269 228.275C199.388 228.804 198.222 229.494 197.013 230.141C196.356 230.476 195.677 230.766 194.98 231.008C194.474 231.197 193.996 231.375 193.548 231.587C193.131 231.785 192.718 231.998 192.306 232.21C191.625 232.561 190.921 232.923 190.182 233.23C189.497 233.494 188.792 233.698 188.072 233.841C187.563 233.946 187.06 234.08 186.567 234.244C186.127 234.401 185.695 234.576 185.237 234.762C184.543 235.043 183.826 235.333 183.072 235.561C182.601 235.704 182.129 235.895 181.63 236.097C180.951 236.39 180.252 236.634 179.539 236.828C178.808 236.984 178.06 237.05 177.313 237.024C176.799 237.008 176.284 237.04 175.775 237.119C175.273 237.234 174.78 237.384 174.299 237.569C173.61 237.838 172.895 238.038 172.166 238.166C171.438 238.258 170.704 238.3 169.97 238.293C169.43 238.299 168.92 238.305 168.424 238.353C167.914 238.42 167.41 238.528 166.917 238.674C166.203 238.89 165.469 239.029 164.726 239.087C163.459 239.148 162.197 239.18 160.974 239.18ZM154.044 89.1635C153.936 89.1635 153.831 89.168 153.729 89.1779C153.19 89.2303 152.653 89.2556 152.134 89.2803C151.423 89.3138 150.751 89.3455 150.103 89.4409C149.574 89.5578 149.064 89.7477 148.588 90.0051C147.975 90.3251 147.325 90.5669 146.652 90.7249C146.01 90.835 145.36 90.888 144.709 90.8834C144.142 90.8724 143.574 90.9228 143.017 91.0336C142.501 91.1624 141.983 91.2667 141.482 91.3678C140.776 91.5098 140.11 91.644 139.473 91.8367C138.938 92.0292 138.425 92.2808 137.945 92.5869C137.39 92.9317 136.804 93.2242 136.195 93.4607C135.506 93.7071 134.843 94.0026 134.14 94.3157C133.72 94.503 133.299 94.6905 132.872 94.8674C131.716 95.3467 130.61 95.8615 129.587 96.3463C129.145 96.5557 128.698 96.7501 128.251 96.9437C127.569 97.2397 126.925 97.5197 126.307 97.8505C125.692 98.1544 125.044 98.3853 124.376 98.5386C123.843 98.6535 123.326 98.838 122.841 99.0874C122.352 99.4099 121.895 99.7791 121.477 100.19C121.019 100.63 120.528 101.035 120.009 101.4C119.507 101.724 118.99 102.022 118.458 102.293C117.905 102.568 117.373 102.884 116.866 103.237C116.39 103.616 115.945 104.032 115.535 104.481C115.121 104.926 114.682 105.347 114.22 105.741C113.763 106.14 113.339 106.576 112.951 107.042C112.561 107.502 112.145 107.939 111.705 108.352C110.743 109.224 109.888 110.036 109.092 110.832C108.657 111.252 108.197 111.647 107.716 112.014C107.231 112.376 106.776 112.777 106.356 113.212C105.929 113.702 105.532 114.217 105.165 114.754C104.85 115.195 104.524 115.651 104.162 116.092C103.831 116.494 103.487 116.879 103.153 117.252C102.672 117.79 102.218 118.297 101.814 118.841C101.397 119.402 101.027 119.998 100.634 120.628C100.376 121.045 100.116 121.462 99.8428 121.87C99.5082 122.37 99.1378 122.826 98.7794 123.266C98.3733 123.741 98.0009 124.244 97.6649 124.77C97.3219 125.341 97.0309 125.951 96.723 126.596C96.5032 127.056 96.2761 127.532 96.025 128.001C95.4463 129.081 94.9029 130.228 94.4236 131.24C94.2178 131.674 93.9988 132.102 93.7793 132.53C93.4356 133.201 93.111 133.835 92.8383 134.493C92.635 134.983 92.4096 135.461 92.1917 135.924C91.8864 136.571 91.5979 137.183 91.3731 137.811C91.1868 138.39 91.0464 138.982 90.9533 139.582C90.8544 140.179 90.7217 140.77 90.556 141.353C90.4018 141.862 90.2248 142.359 90.0533 142.84C89.8139 143.511 89.5879 144.145 89.4266 144.791C89.3043 145.37 89.2332 145.959 89.2143 146.55C89.1877 147.17 89.12 147.787 89.0114 148.398C88.9047 148.936 88.7702 149.46 88.6396 149.966C88.4613 150.609 88.3171 151.26 88.2077 151.918C88.1198 152.516 87.9773 153.09 87.8394 153.644C87.6736 154.244 87.5514 154.856 87.4737 155.474C87.4394 156.06 87.4583 156.648 87.5302 157.231C87.6003 157.854 87.6267 158.482 87.6091 159.109C87.5712 159.701 87.5024 160.291 87.4031 160.875C87.2938 161.483 87.2299 162.098 87.2121 162.715C87.2297 163.334 87.293 163.95 87.4014 164.56C87.4993 165.143 87.5672 165.731 87.605 166.322C87.6316 166.874 87.6281 167.418 87.6246 167.944C87.6081 168.609 87.6259 169.274 87.6779 169.937C87.7552 170.55 87.8781 171.155 88.0456 171.749C88.2004 172.32 88.3256 172.898 88.4206 173.481C88.4948 174.207 88.4578 174.939 88.311 175.654C88.1981 176.157 88.1667 176.676 88.2179 177.19C88.3557 177.772 88.5453 178.341 88.7843 178.89C89.026 179.462 89.2287 180.049 89.3912 180.648C89.5564 181.222 89.7715 181.781 90.0341 182.317C90.2983 182.872 90.5259 183.444 90.7154 184.029C90.8581 184.499 90.9846 184.972 91.1106 185.444C91.3016 186.161 91.4823 186.837 91.7177 187.495C91.9191 188.102 92.0718 188.724 92.1745 189.354C92.2611 189.927 92.4047 190.49 92.6031 191.034C92.8604 191.612 93.1564 192.172 93.4891 192.71C93.7741 193.197 94.0689 193.7 94.3231 194.236C94.5858 194.828 94.7979 195.44 94.9573 196.068C95.0926 196.627 95.2857 197.171 95.5335 197.691C95.8213 198.123 96.1769 198.505 96.5866 198.824C97.153 199.28 97.646 199.821 98.0483 200.428C98.6689 201.461 99.3002 202.455 99.9781 203.467C100.188 203.78 100.393 204.095 100.598 204.408C101.064 205.123 101.505 205.798 101.993 206.455C102.352 206.958 102.678 207.485 102.967 208.032C103.24 208.56 103.559 209.063 103.919 209.536C104.331 210.011 104.774 210.458 105.246 210.873C105.66 211.256 106.089 211.652 106.49 212.094C106.915 212.588 107.295 213.118 107.625 213.68C107.909 214.175 108.245 214.638 108.628 215.06C109.062 215.462 109.532 215.824 110.032 216.141C110.556 216.482 111.056 216.859 111.528 217.27L112.01 217.708C112.765 218.396 113.477 219.045 114.235 219.668C114.705 220.053 115.124 220.473 115.531 220.879C115.959 221.33 116.419 221.75 116.907 222.135C117.363 222.427 117.856 222.657 118.373 222.818C119.027 223.031 119.653 223.323 120.237 223.686C120.776 224.069 121.276 224.505 121.729 224.987C122.107 225.4 122.532 225.767 122.996 226.081C123.495 226.381 123.964 226.714 124.417 227.036C124.933 227.421 125.472 227.773 126.032 228.09C126.538 228.325 127.07 228.498 127.617 228.607C128.271 228.746 128.909 228.951 129.521 229.22C130.034 229.463 130.522 229.736 130.994 230C131.557 230.33 132.139 230.627 132.736 230.89C133.887 231.368 135.024 231.807 136.113 232.197L136.806 232.447C137.7 232.77 138.624 233.105 139.537 233.381L139.923 233.498C140.937 233.806 141.986 234.125 143.021 234.383C143.6 234.505 144.188 234.575 144.78 234.593C145.402 234.619 146.021 234.686 146.634 234.795C147.255 234.932 147.863 235.12 148.454 235.354C148.993 235.575 149.552 235.742 150.124 235.851C150.763 235.93 151.406 235.971 152.051 235.974C152.601 235.987 153.171 236.001 153.749 236.058C154.236 236.105 154.723 236.169 155.211 236.233C155.95 236.331 156.648 236.423 157.351 236.457C157.946 236.496 158.539 236.566 159.128 236.666C159.738 236.777 160.355 236.842 160.975 236.861C162.16 236.861 163.385 236.83 164.614 236.771C165.193 236.717 165.765 236.604 166.321 236.433C166.936 236.252 167.564 236.123 168.2 236.045C168.795 235.987 169.379 235.98 169.944 235.974C170.574 235.982 171.204 235.947 171.829 235.872C172.408 235.763 172.976 235.599 173.524 235.383C174.11 235.159 174.712 234.979 175.325 234.844C175.979 234.733 176.642 234.687 177.305 234.705C177.865 234.727 178.426 234.684 178.977 234.578C179.585 234.409 180.181 234.198 180.761 233.947C181.286 233.735 181.829 233.515 182.4 233.342C183.054 233.144 183.692 232.886 184.367 232.612C184.827 232.426 185.302 232.234 185.786 232.06C186.367 231.864 186.959 231.704 187.558 231.58C188.15 231.464 188.73 231.299 189.294 231.087C189.945 230.817 190.576 230.492 191.245 230.148C191.68 229.924 192.115 229.7 192.556 229.491C193.093 229.237 193.641 229.033 194.171 228.835C194.769 228.628 195.353 228.381 195.919 228.097C197.083 227.474 198.217 226.802 199.075 226.287C199.592 225.955 200.081 225.583 200.54 225.176C200.995 224.78 201.47 224.41 201.965 224.067C202.455 223.715 202.916 223.323 203.343 222.896C203.777 222.47 204.236 222.071 204.717 221.7C205.325 221.248 205.895 220.76 206.498 220.245C206.828 219.963 207.157 219.68 207.494 219.404C208.011 219.001 208.565 218.648 209.147 218.349C209.653 218.097 210.128 217.79 210.565 217.432C211.155 216.898 211.707 216.33 212.292 215.729C212.57 215.442 212.849 215.155 213.131 214.873C213.683 214.321 214.195 213.738 214.737 213.12C215.01 212.809 215.284 212.497 215.562 212.191C215.971 211.754 216.403 211.339 216.857 210.947C217.326 210.55 217.766 210.117 218.17 209.654C218.53 209.181 218.848 208.677 219.12 208.148C219.409 207.598 219.736 207.068 220.096 206.561C220.513 206.034 220.985 205.552 221.504 205.125C221.938 204.777 222.328 204.377 222.664 203.933C222.908 203.479 223.076 202.987 223.162 202.478C223.297 201.76 223.543 201.066 223.891 200.423C224.118 200.046 224.352 199.674 224.585 199.303C225.005 198.636 225.402 198.005 225.758 197.341C226.26 196.405 226.772 195.381 227.371 194.117C227.577 193.682 227.795 193.255 228.014 192.828C228.357 192.16 228.68 191.529 228.952 190.872C229.233 190.252 229.584 189.666 229.999 189.126C230.339 188.694 230.623 188.22 230.841 187.715C231.044 187.102 231.21 186.477 231.337 185.844C231.458 185.302 231.583 184.742 231.751 184.186C231.886 183.64 231.959 183.079 231.969 182.516C231.988 181.859 232.069 181.204 232.212 180.562C232.391 179.922 232.636 179.303 232.941 178.713C233.205 178.219 233.409 177.696 233.548 177.154C233.652 176.539 233.713 175.918 233.73 175.295C233.761 174.723 233.792 174.132 233.88 173.533C233.959 172.897 233.999 172.257 234.001 171.616C234.014 171.066 234.027 170.498 234.083 169.919C234.168 169.257 234.321 168.606 234.542 167.976C234.733 167.451 234.86 166.905 234.919 166.35C234.911 165.802 234.835 165.258 234.691 164.73C234.521 164.071 234.425 163.395 234.404 162.715C234.428 162.016 234.542 161.322 234.742 160.652C234.901 160.141 234.989 159.612 235.003 159.077C234.952 158.48 234.849 157.889 234.694 157.31C234.54 156.71 234.426 156.1 234.354 155.485C234.316 155.094 234.283 154.702 234.25 154.311C234.179 153.468 234.112 152.672 233.996 151.881C233.908 151.285 233.875 150.696 233.843 150.126C233.823 149.499 233.76 148.874 233.655 148.256C233.517 147.699 233.319 147.158 233.065 146.642C232.785 146.058 232.558 145.45 232.385 144.826C232.242 144.255 232.148 143.686 232.056 143.136C231.967 142.506 231.837 141.883 231.667 141.271C231.472 140.693 231.231 140.132 230.947 139.593C230.671 139.057 230.426 138.506 230.214 137.942C229.989 137.313 229.702 136.706 229.399 136.063C229.183 135.605 228.96 135.131 228.757 134.641C228.524 134.038 228.344 133.417 228.217 132.783C228.112 132.222 227.948 131.673 227.728 131.146L227.547 130.763C227.096 129.809 226.629 128.822 226.131 127.892C225.755 127.189 225.337 126.515 224.895 125.802C224.684 125.463 224.474 125.123 224.269 124.782C223.984 124.307 223.729 123.821 223.483 123.352C223.184 122.755 222.853 122.175 222.493 121.614C222.156 121.164 221.768 120.755 221.336 120.395C220.834 119.966 220.376 119.487 219.967 118.968C219.575 118.402 219.253 117.792 219.007 117.149C218.82 116.639 218.565 116.157 218.249 115.715C217.838 115.241 217.394 114.796 216.921 114.383C216.5 113.998 216.065 113.599 215.661 113.153C215.266 112.717 214.913 112.258 214.571 111.814C214.194 111.3 213.784 110.81 213.344 110.348C212.88 109.884 212.36 109.459 211.81 109.009C211.407 108.68 210.99 108.339 210.589 107.975C210.145 107.573 209.746 107.14 209.361 106.721C208.945 106.247 208.497 105.802 208.021 105.389C207.202 104.716 206.316 104.059 205.459 103.424L205.129 103.179C204.629 102.832 204.102 102.526 203.553 102.262C203.007 101.994 202.478 101.694 201.967 101.364C201.475 101.035 201.021 100.672 200.582 100.321C200.095 99.9127 199.582 99.537 199.046 99.1963C198.545 98.929 198.016 98.7177 197.469 98.5663C196.84 98.3841 196.229 98.1445 195.644 97.8505C195.106 97.5486 194.588 97.2118 194.094 96.8422C193.619 96.4792 193.114 96.1583 192.583 95.8832C192.039 95.6496 191.474 95.4651 190.897 95.3319C190.292 95.1853 189.698 94.998 189.118 94.7711C188.58 94.5478 188.071 94.288 187.578 94.0367C187.015 93.7332 186.433 93.4657 185.835 93.2359C185.293 93.0417 184.773 92.8107 184.27 92.5874C183.684 92.3118 183.082 92.0723 182.467 91.8702C181.892 91.7192 181.305 91.6193 180.713 91.5716C180.093 91.5148 179.478 91.4168 178.871 91.278C178.451 91.173 178.032 91.0595 177.613 90.946C176.84 90.7366 176.111 90.5389 175.363 90.3913C174.24 90.1688 173.031 89.9382 171.8 89.7571C171.179 89.6825 170.555 89.65 169.93 89.66C169.364 89.6555 168.778 89.6509 168.18 89.5925C167.49 89.5255 166.795 89.5157 166.058 89.5057C165.566 89.499 165.072 89.4919 164.575 89.4679C163.885 89.41 163.205 89.2643 162.551 89.0342C162.044 88.8479 161.513 88.7336 160.975 88.6944C160.434 88.7327 159.901 88.8453 159.39 89.0292C158.738 89.2543 158.061 89.3972 157.374 89.4544C156.709 89.4672 156.045 89.4153 155.391 89.2994C154.946 89.2226 154.495 89.1772 154.044 89.1635Z" fill="#5E5F6C"/>
<path d="M138.912 153.501L159.217 170.832C163.136 174.452 158.195 180.257 153.994 176.952C153.816 176.798 153.651 176.63 153.5 176.449L136.533 155.838C136.272 155.514 136.141 155.105 136.165 154.689C136.189 154.274 136.367 153.883 136.663 153.592C136.96 153.3 137.354 153.129 137.77 153.113C138.185 153.096 138.592 153.234 138.912 153.501Z" fill="#5E5F6C"/>
<path d="M189.541 137.691L160.324 176.806C156.98 180.938 150.876 176.404 153.894 172.004C154.224 171.526 186.854 136.175 187.199 135.748C187.465 135.466 187.828 135.295 188.215 135.271C188.602 135.248 188.984 135.372 189.282 135.62C189.581 135.867 189.774 136.219 189.822 136.604C189.87 136.989 189.769 137.377 189.541 137.691Z" fill="#5E5F6C"/>
<path d="M201.854 121.514C200.353 123.707 198.558 125.684 196.518 127.389C195.846 127.974 195.131 128.508 194.38 128.987C194.315 129.028 194.239 129.045 194.163 129.036C194.087 129.027 194.016 128.993 193.962 128.939C193.908 128.885 193.874 128.815 193.865 128.739C193.857 128.663 193.874 128.586 193.914 128.522C194.895 127.043 196.033 125.675 197.308 124.442C198.548 123.174 199.915 122.036 201.388 121.048C201.453 121.009 201.529 120.993 201.604 121.002C201.679 121.011 201.749 121.045 201.803 121.099C201.856 121.152 201.89 121.222 201.9 121.297C201.909 121.373 201.893 121.449 201.854 121.513V121.514Z" fill="#FFBF9E"/>
<path d="M128.035 195.333C126.535 197.526 124.74 199.503 122.7 201.208C122.028 201.793 121.313 202.327 120.562 202.806C120.497 202.846 120.42 202.863 120.344 202.855C120.269 202.846 120.198 202.812 120.144 202.758C120.09 202.704 120.056 202.633 120.047 202.558C120.038 202.482 120.056 202.405 120.096 202.34C121.077 200.862 122.215 199.494 123.49 198.261C124.73 196.993 126.097 195.855 127.57 194.867C127.635 194.828 127.711 194.812 127.786 194.821C127.861 194.83 127.931 194.864 127.984 194.918C128.038 194.971 128.072 195.041 128.081 195.116C128.091 195.191 128.074 195.267 128.035 195.332V195.333Z" fill="#FFBF9E"/>
<path d="M201.388 202.807C199.194 201.306 197.217 199.511 195.513 197.471C194.928 196.799 194.393 196.084 193.914 195.333C193.874 195.268 193.857 195.191 193.865 195.115C193.874 195.04 193.908 194.969 193.962 194.915C194.016 194.861 194.087 194.827 194.163 194.818C194.239 194.809 194.315 194.827 194.38 194.867C195.858 195.848 197.226 196.986 198.46 198.261C199.728 199.501 200.866 200.868 201.854 202.341C201.893 202.406 201.909 202.482 201.9 202.557C201.891 202.632 201.857 202.702 201.803 202.756C201.75 202.809 201.68 202.843 201.605 202.852C201.529 202.862 201.453 202.846 201.389 202.807H201.388Z" fill="#FFBF9E"/>
<path d="M127.57 128.987C125.376 127.487 123.399 125.692 121.694 123.652C121.109 122.98 120.575 122.265 120.096 121.514C120.056 121.449 120.038 121.372 120.047 121.297C120.056 121.221 120.09 121.15 120.144 121.096C120.198 121.042 120.269 121.008 120.344 120.999C120.42 120.991 120.497 121.008 120.562 121.048C122.04 122.029 123.408 123.167 124.641 124.442C125.91 125.682 127.047 127.049 128.035 128.522C128.074 128.587 128.09 128.663 128.081 128.738C128.072 128.813 128.038 128.883 127.984 128.936C127.931 128.99 127.861 129.024 127.786 129.033C127.711 129.043 127.635 129.026 127.57 128.987H127.57Z" fill="#FFBF9E"/>
<path d="M218.456 162.257C215.844 162.747 213.176 162.876 210.529 162.639C209.64 162.577 208.757 162.449 207.887 162.257C207.812 162.239 207.746 162.198 207.698 162.138C207.651 162.078 207.625 162.004 207.625 161.928C207.625 161.851 207.651 161.777 207.698 161.717C207.746 161.658 207.812 161.616 207.887 161.598C209.626 161.247 211.397 161.084 213.171 161.113C214.945 161.094 216.716 161.256 218.456 161.598C218.529 161.617 218.595 161.659 218.641 161.719C218.688 161.778 218.713 161.852 218.713 161.928C218.713 162.003 218.688 162.077 218.641 162.136C218.595 162.196 218.529 162.238 218.456 162.257Z" fill="#FFBF9E"/>
<path d="M114.061 162.257C111.449 162.747 108.782 162.876 106.134 162.638C105.245 162.577 104.362 162.449 103.492 162.257C103.418 162.239 103.351 162.197 103.304 162.138C103.256 162.078 103.23 162.004 103.23 161.928C103.23 161.851 103.256 161.777 103.304 161.717C103.351 161.658 103.418 161.616 103.492 161.598C105.231 161.247 107.003 161.084 108.777 161.113C110.55 161.094 112.321 161.256 114.061 161.598C114.135 161.617 114.2 161.659 114.247 161.719C114.293 161.778 114.318 161.852 114.318 161.928C114.318 162.003 114.293 162.077 114.247 162.136C114.2 162.196 114.135 162.238 114.061 162.257V162.257Z" fill="#FFBF9E"/>
<path d="M161.303 104.444C161.794 107.057 161.922 109.724 161.685 112.372C161.623 113.261 161.496 114.144 161.303 115.014C161.286 115.088 161.244 115.155 161.184 115.202C161.124 115.25 161.05 115.276 160.974 115.276C160.898 115.276 160.824 115.25 160.764 115.202C160.704 115.155 160.662 115.088 160.645 115.014C160.293 113.275 160.13 111.503 160.16 109.729C160.14 107.956 160.302 106.185 160.645 104.444C160.663 104.371 160.706 104.306 160.765 104.259C160.825 104.213 160.898 104.188 160.974 104.188C161.05 104.188 161.123 104.213 161.183 104.259C161.242 104.306 161.285 104.371 161.303 104.444V104.444Z" fill="#FFBF9E"/>
<path d="M161.303 208.841C161.793 211.453 161.922 214.12 161.685 216.768C161.623 217.657 161.496 218.54 161.303 219.41C161.286 219.484 161.244 219.551 161.184 219.598C161.124 219.646 161.05 219.671 160.974 219.671C160.898 219.671 160.824 219.646 160.764 219.598C160.704 219.551 160.662 219.484 160.645 219.41C160.293 217.671 160.13 215.899 160.16 214.125C160.14 212.352 160.302 210.581 160.645 208.841C160.663 208.767 160.705 208.702 160.765 208.655C160.825 208.609 160.898 208.583 160.974 208.583C161.05 208.583 161.123 208.609 161.183 208.655C161.242 208.702 161.285 208.767 161.303 208.841V208.841Z" fill="#FFBF9E"/>
<path d="M160.975 227.376C159.48 227.376 157.928 227.321 156.362 227.21C155.77 227.168 155.169 227.17 154.533 227.173C153.596 227.199 152.657 227.156 151.726 227.045C150.266 226.837 148.73 226.56 147.161 226.22C146.238 225.999 145.332 225.711 144.451 225.358C143.865 225.139 143.311 224.933 142.754 224.769C141.852 224.484 140.972 224.134 140.121 223.723C139.557 223.467 139.024 223.225 138.481 223.022C137.877 222.824 137.255 222.682 136.624 222.598C135.704 222.484 134.804 222.248 133.947 221.896C133.118 221.485 132.333 220.991 131.604 220.421C131.105 220.038 130.582 219.687 130.037 219.372C128.767 218.676 127.554 217.895 126.382 217.139L126.111 216.964C125.152 216.347 124.26 215.66 123.396 214.996C123.067 214.743 122.738 214.489 122.404 214.239C121.984 213.924 121.555 213.623 121.127 213.322C120.29 212.754 119.483 212.143 118.708 211.493C117.53 210.471 116.395 209.415 115.334 208.355C114.877 207.92 114.392 207.515 113.882 207.142C113.132 206.604 112.439 205.992 111.813 205.313C111.231 204.598 110.726 203.823 110.306 203.003C110.013 202.442 109.682 201.902 109.316 201.385C108.675 200.531 108.124 199.632 107.591 198.762C107.336 198.347 107.082 197.931 106.817 197.519C106.614 197.204 106.409 196.892 106.203 196.58C105.583 195.635 104.941 194.658 104.374 193.621C103.591 192.191 102.914 190.846 102.303 189.509C101.841 188.5 101.472 187.463 101.116 186.46C100.967 186.044 100.819 185.627 100.664 185.21C100.457 184.657 100.198 184.114 99.9237 183.539C99.5004 182.707 99.1449 181.842 98.8608 180.954C98.6983 180.399 98.4949 179.848 98.2797 179.264C97.9297 178.377 97.6427 177.467 97.4208 176.54C97.2534 175.636 97.177 174.717 97.1929 173.798C97.1973 173.164 97.1622 172.53 97.0879 171.901C97.0046 171.316 96.8589 170.722 96.7049 170.094C96.4577 169.195 96.2885 168.276 96.1991 167.347C96.1178 166.196 96.1295 165.03 96.1408 163.903C96.1447 163.507 96.1487 163.111 96.1487 162.715C96.1487 162.376 96.1466 162.037 96.1444 161.699C96.1369 160.515 96.1295 159.29 96.2142 158.084C96.3037 157.156 96.473 156.237 96.7203 155.338C96.8745 154.71 97.0201 154.117 97.1034 153.532C97.2884 152.235 97.5663 150.97 97.8351 149.748L97.9955 149.015C98.1117 148.389 98.1815 147.756 98.2046 147.12C98.2291 146.201 98.3572 145.287 98.5865 144.396C98.8733 143.494 99.2264 142.614 99.6427 141.764C99.906 141.192 100.155 140.652 100.359 140.106C100.718 139.195 101.13 138.306 101.594 137.444C101.86 136.927 102.111 136.438 102.34 135.937C102.585 135.401 102.791 134.842 103.01 134.25C103.314 133.363 103.683 132.499 104.115 131.667C104.642 130.702 105.25 129.795 105.837 128.917C106.093 128.535 106.348 128.154 106.597 127.768L106.68 127.639C107.469 126.413 108.285 125.146 109.185 123.945C109.538 123.474 109.86 122.97 110.202 122.437C110.69 121.632 111.237 120.863 111.838 120.138C112.924 118.886 113.985 117.74 114.993 116.733C115.664 116.099 116.396 115.534 117.179 115.044C117.709 114.705 118.219 114.333 118.705 113.932C119.991 112.816 121.089 111.892 122.268 111.008C122.726 110.665 123.165 110.294 123.63 109.902C124.35 109.268 125.11 108.682 125.906 108.147C126.755 107.621 127.631 107.141 128.532 106.71C129.037 106.457 129.514 106.218 129.985 105.961C130.94 105.438 131.932 105.006 132.891 104.589C133.318 104.403 133.746 104.217 134.171 104.023C134.733 103.75 135.279 103.445 135.805 103.11C136.582 102.604 137.405 102.174 138.264 101.826C139.221 101.487 140.195 101.198 141.181 100.96C141.696 100.827 142.211 100.693 142.72 100.544C144.042 100.157 145.608 99.7137 147.195 99.3702C147.522 99.2991 147.851 99.2265 148.179 99.1526C149.332 98.8951 150.523 98.6291 151.736 98.4561C152.772 98.3084 153.818 98.2613 154.83 98.2159C155.339 98.193 155.848 98.1703 156.356 98.1345C156.858 98.0991 157.362 98.0501 157.867 98.0009C158.874 97.903 159.915 97.8018 160.974 97.8018C161.9 97.8315 162.819 97.965 163.714 98.1999C164.322 98.3534 164.941 98.4619 165.566 98.5247C166.204 98.5493 166.843 98.5229 167.476 98.4459C168.386 98.3271 169.307 98.3165 170.219 98.4142C171.133 98.5782 172.024 98.8565 172.868 99.2426C173.443 99.499 174.038 99.706 174.648 99.8612C175.207 99.9823 175.769 100.073 176.364 100.168C177.311 100.3 178.249 100.492 179.172 100.743L179.221 100.758C180.652 101.177 182.131 101.611 183.566 102.147C184.111 102.35 184.672 102.519 185.266 102.698C186.181 102.953 187.079 103.27 187.952 103.647C188.965 104.11 189.932 104.659 190.866 105.19C191.254 105.41 191.641 105.63 192.03 105.843C192.828 106.308 193.582 106.847 194.281 107.45C194.756 107.852 195.252 108.228 195.768 108.576L196.28 108.904C197.373 109.606 198.504 110.331 199.584 111.14C200.057 111.495 200.564 111.816 201.1 112.155C201.902 112.635 202.666 113.175 203.386 113.771C204.07 114.395 204.699 115.076 205.266 115.807C205.677 116.308 206.065 116.781 206.488 117.203C207.595 118.31 208.626 119.485 209.587 120.594C209.948 121.01 210.324 121.407 210.722 121.827C211.407 122.524 212.052 123.26 212.652 124.032C213.278 124.866 213.81 125.747 214.325 126.598C214.59 127.037 214.856 127.477 215.135 127.91C215.485 128.428 215.866 128.924 216.275 129.397C216.885 130.09 217.427 130.839 217.893 131.636C218.496 132.739 219.016 133.89 219.519 135.003L219.886 135.812C220.04 136.148 220.197 136.483 220.354 136.819C220.84 137.857 221.343 138.931 221.758 140.044C222.074 140.947 222.331 141.87 222.528 142.807C222.666 143.402 222.796 143.964 222.958 144.516C223.147 145.111 223.371 145.694 223.628 146.263C224.019 147.105 224.328 147.984 224.55 148.886C224.72 149.793 224.807 150.713 224.809 151.636C224.817 152.266 224.859 152.894 224.936 153.519C225.016 154.084 225.132 154.649 225.255 155.248C225.467 156.183 225.618 157.131 225.705 158.086C225.743 159.002 225.695 159.918 225.562 160.824C225.476 161.451 225.426 162.083 225.412 162.715C225.412 164.019 225.318 165.299 225.227 166.536L225.123 167.995C225.037 169.267 224.947 170.583 224.761 171.886C224.679 172.464 224.633 173.046 224.584 173.662C224.53 174.607 224.412 175.547 224.231 176.476C224.137 176.914 224.049 177.354 223.961 177.793C223.75 178.845 223.533 179.931 223.222 180.993C223.095 181.426 222.975 181.863 222.855 182.299C222.57 183.333 222.275 184.402 221.889 185.436C221.541 186.296 221.113 187.123 220.612 187.904C220.28 188.432 219.979 188.977 219.707 189.539C219.466 190.067 219.257 190.613 219.036 191.191C218.716 192.085 218.336 192.956 217.897 193.799C217.162 195.144 216.34 196.436 215.492 197.753C214.971 198.519 214.384 199.239 213.739 199.905C213.301 200.382 212.888 200.833 212.53 201.31C212.165 201.824 211.833 202.36 211.536 202.916C211.11 203.732 210.603 204.502 210.021 205.215C209.396 205.891 208.697 206.495 207.939 207.017C207.422 207.381 206.932 207.781 206.472 208.214C206.039 208.674 205.639 209.165 205.277 209.683C204.757 210.443 204.153 211.142 203.477 211.767C202.455 212.653 201.305 213.572 199.857 214.657C199.045 215.245 198.202 215.789 197.331 216.287C196.849 216.574 196.395 216.845 195.946 217.133C194.65 217.968 193.314 218.763 191.978 219.494C190.407 220.354 189.098 221.018 187.859 221.585C187.332 221.826 186.814 222.107 186.267 222.404C185.441 222.877 184.583 223.291 183.699 223.643C182.771 223.97 181.825 224.242 180.866 224.46C180.298 224.6 179.761 224.732 179.23 224.888C178.324 225.132 177.402 225.309 176.47 225.419C175.846 225.507 175.257 225.59 174.679 225.715C173.087 226.06 171.493 226.303 170.145 226.495C169.604 226.572 169.067 226.673 168.5 226.78C167.538 226.979 166.565 227.123 165.587 227.209C164.011 227.32 162.459 227.376 160.975 227.376ZM154.973 224.853C155.482 224.853 156.002 224.86 156.525 224.897C158.037 225.004 159.534 225.058 160.975 225.058C162.405 225.058 163.902 225.003 165.424 224.896C166.313 224.815 167.197 224.684 168.071 224.501C168.639 224.394 169.226 224.284 169.818 224.199C171.126 224.013 172.668 223.778 174.189 223.449C174.848 223.306 175.508 223.213 176.145 223.122C176.966 223.027 177.779 222.874 178.578 222.663C179.157 222.493 179.744 222.349 180.311 222.209C181.183 222.012 182.044 221.765 182.889 221.47C183.671 221.155 184.43 220.786 185.161 220.366C185.719 220.063 186.296 219.75 186.895 219.476C188.082 218.933 189.343 218.293 190.865 217.46C192.153 216.755 193.441 215.989 194.691 215.184C195.173 214.873 195.668 214.579 196.145 214.295C196.945 213.839 197.719 213.34 198.466 212.802C199.869 211.751 200.978 210.865 201.958 210.015C202.503 209.499 202.99 208.925 203.412 208.305C203.842 207.694 204.317 207.115 204.833 206.575C205.372 206.06 205.949 205.585 206.558 205.155C207.178 204.731 207.752 204.242 208.269 203.696C208.747 203.099 209.165 202.456 209.516 201.777C209.862 201.133 210.249 200.513 210.675 199.919C211.102 199.351 211.574 198.836 212.03 198.338C212.585 197.768 213.091 197.152 213.543 196.498C214.367 195.218 215.164 193.964 215.864 192.686C216.251 191.935 216.587 191.159 216.87 190.363C217.095 189.776 217.327 189.17 217.599 188.574C217.906 187.934 218.248 187.312 218.624 186.71C219.05 186.05 219.416 185.352 219.717 184.625C220.067 183.687 220.335 182.714 220.619 181.683C220.743 181.234 220.867 180.786 220.997 180.341C221.28 179.377 221.477 178.387 221.687 177.339C221.777 176.887 221.868 176.436 221.965 175.986C222.123 175.158 222.226 174.321 222.273 173.479C222.322 172.855 222.373 172.209 222.466 171.56C222.64 170.341 222.722 169.125 222.81 167.838L222.915 166.366C223.007 165.115 223.094 163.934 223.094 162.716C223.107 161.993 223.162 161.273 223.259 160.557C223.373 159.794 223.418 159.021 223.392 158.25C223.311 157.397 223.175 156.55 222.983 155.714C222.859 155.108 222.73 154.482 222.64 153.847C222.551 153.138 222.502 152.425 222.492 151.71C222.492 150.928 222.423 150.147 222.284 149.377C222.091 148.62 221.827 147.882 221.495 147.174C221.202 146.521 220.947 145.852 220.733 145.169C220.552 144.552 220.408 143.931 220.269 143.331C220.094 142.492 219.866 141.665 219.586 140.856C219.203 139.83 218.72 138.799 218.254 137.803C218.094 137.46 217.934 137.119 217.778 136.777L217.406 135.958C216.921 134.885 216.419 133.775 215.859 132.75C215.461 132.084 215.003 131.457 214.489 130.877C214.02 130.333 213.585 129.762 213.185 129.166C212.895 128.714 212.617 128.256 212.341 127.799C211.833 126.959 211.353 126.166 210.796 125.423C210.249 124.723 209.662 124.055 209.039 123.422C208.641 123.002 208.23 122.568 207.835 122.114C206.863 120.992 205.902 119.897 204.848 118.843C204.345 118.341 203.902 117.801 203.474 117.279C202.988 116.65 202.45 116.063 201.867 115.523C201.234 115.004 200.564 114.534 199.861 114.115C199.31 113.767 198.74 113.406 198.193 112.996C197.181 112.237 196.135 111.567 195.028 110.856L194.513 110.526C193.925 110.132 193.359 109.706 192.818 109.25C192.226 108.736 191.59 108.277 190.917 107.878C190.517 107.659 190.12 107.433 189.721 107.207C188.83 106.701 187.909 106.177 186.987 105.756C186.21 105.423 185.411 105.144 184.596 104.919C183.993 104.737 183.37 104.549 182.756 104.32C181.399 103.813 180.024 103.41 178.568 102.984L178.519 102.969C177.69 102.746 176.847 102.575 175.996 102.458C175.397 102.362 174.778 102.263 174.157 102.128C173.414 101.946 172.689 101.699 171.99 101.389C171.32 101.08 170.616 100.852 169.892 100.711C169.158 100.643 168.42 100.658 167.689 100.756C166.931 100.846 166.166 100.873 165.403 100.839C164.662 100.769 163.928 100.644 163.206 100.463C162.477 100.269 161.729 100.155 160.974 100.121C160.028 100.121 159.087 100.213 158.091 100.31C157.565 100.361 157.041 100.412 156.519 100.448C155.992 100.486 155.463 100.51 154.934 100.533C153.933 100.578 152.988 100.621 152.063 100.753C150.94 100.913 149.794 101.169 148.685 101.416C148.351 101.491 148.018 101.565 147.685 101.637C146.171 101.965 144.655 102.394 143.372 102.771C142.84 102.926 142.301 103.066 141.763 103.206C140.854 103.424 139.956 103.689 139.075 103.999C138.354 104.299 137.663 104.664 137.011 105.092C136.407 105.475 135.781 105.823 135.136 106.132C134.698 106.332 134.257 106.524 133.816 106.716C132.862 107.131 131.961 107.523 131.098 107.996C130.59 108.274 130.071 108.533 129.57 108.784C128.744 109.178 127.94 109.616 127.161 110.097C126.45 110.579 125.77 111.106 125.126 111.675C124.656 112.071 124.17 112.481 123.659 112.864C122.536 113.707 121.474 114.601 120.224 115.684C119.667 116.149 119.081 116.579 118.471 116.971C117.815 117.379 117.2 117.848 116.633 118.373C115.664 119.342 114.64 120.447 113.591 121.658C113.064 122.299 112.585 122.977 112.155 123.687C111.806 124.233 111.445 124.797 111.041 125.337C110.19 126.471 109.397 127.704 108.63 128.895L108.547 129.024C108.291 129.421 108.028 129.815 107.765 130.208C107.18 131.082 106.628 131.907 106.15 132.78C105.774 133.514 105.451 134.274 105.186 135.055C104.962 135.66 104.731 136.287 104.449 136.902C104.198 137.451 103.923 137.987 103.657 138.504C103.235 139.286 102.859 140.092 102.532 140.918C102.298 141.545 102.019 142.15 101.749 142.735C101.382 143.483 101.068 144.257 100.812 145.05C100.635 145.776 100.537 146.519 100.519 147.267C100.49 148.019 100.404 148.767 100.262 149.506L100.1 150.246C99.8287 151.482 99.5723 152.649 99.3996 153.86C99.3 154.559 99.1335 155.237 98.9725 155.892C98.7584 156.664 98.6097 157.452 98.5279 158.248C98.4492 159.366 98.4562 160.492 98.4639 161.685C98.466 162.029 98.4682 162.372 98.4682 162.716C98.4682 163.12 98.4639 163.524 98.4601 163.927C98.4488 165.059 98.438 166.127 98.5128 167.185C98.5947 167.982 98.7434 168.771 98.9574 169.543C99.1182 170.198 99.2844 170.876 99.384 171.575C99.4731 172.301 99.5158 173.032 99.5117 173.764C99.4964 174.53 99.5553 175.296 99.6876 176.05C99.8875 176.871 100.144 177.677 100.456 178.463C100.675 179.057 100.902 179.672 101.087 180.302C101.337 181.072 101.648 181.821 102.017 182.541C102.301 183.136 102.595 183.752 102.837 184.4C102.996 184.828 103.149 185.257 103.301 185.684C103.656 186.684 103.992 187.628 104.412 188.546C105 189.831 105.653 191.128 106.409 192.509C106.931 193.464 107.52 194.359 108.142 195.307C108.351 195.626 108.559 195.945 108.767 196.265C109.041 196.691 109.305 197.121 109.569 197.551C110.097 198.414 110.596 199.228 111.172 199.995C111.602 200.596 111.991 201.225 112.335 201.879C112.679 202.557 113.092 203.199 113.566 203.795C114.091 204.353 114.67 204.859 115.295 205.304C115.885 205.737 116.446 206.209 116.974 206.716C118.01 207.752 119.075 208.742 120.228 209.742C120.943 210.341 121.689 210.903 122.461 211.426C122.909 211.74 123.357 212.055 123.796 212.385C124.137 212.641 124.474 212.9 124.811 213.159C125.674 213.824 126.49 214.451 127.367 215.016L127.639 215.191C128.829 215.958 129.954 216.683 131.151 217.338C131.784 217.702 132.393 218.106 132.973 218.55C133.577 219.025 134.227 219.44 134.912 219.788C135.586 220.05 136.289 220.226 137.007 220.312C137.784 220.417 138.549 220.597 139.292 220.85C139.911 221.081 140.506 221.352 141.081 221.613C141.833 221.978 142.611 222.289 143.407 222.545C144.044 222.732 144.663 222.963 145.262 223.186C146.04 223.499 146.838 223.755 147.652 223.954C149.167 224.282 150.648 224.55 152.054 224.75C152.874 224.844 153.699 224.879 154.524 224.855C154.672 224.854 154.822 224.853 154.973 224.853Z" fill="#5E5F6C"/>
</svg>
