<svg width="320" height="320" viewBox="0 0 320 320" fill="none" xmlns="http://www.w3.org/2000/svg">
<path d="M260.552 160C260.552 159.61 259.386 159.223 259.382 158.834C259.377 158.445 259.632 158.052 259.623 157.663C259.615 157.273 260.339 156.858 260.325 156.47C260.312 156.08 259.315 155.727 259.297 155.339C259.279 154.95 258.891 154.584 258.869 154.196C258.846 153.807 258.171 153.47 258.144 153.083C258.117 152.694 260.548 152.12 260.516 151.733C260.485 151.345 259.187 151.059 259.151 150.672C259.115 150.284 257.985 150.011 257.944 149.625C257.904 149.237 257.785 148.872 257.74 148.486C257.695 148.099 258.56 147.609 258.51 147.224C258.461 146.838 257.596 146.569 257.542 146.184C257.487 145.798 258.48 145.266 258.421 144.882C258.363 144.497 258.713 144.045 258.65 143.661C258.586 143.277 259.349 142.743 259.281 142.36C259.213 141.976 257.326 141.921 257.253 141.539C257.181 141.157 257.178 140.768 257.101 140.386C257.025 140.005 256.209 139.787 256.128 139.407C256.047 139.026 257.026 138.421 256.941 138.042C256.855 137.662 256.602 137.325 256.512 136.946C256.422 136.568 256.405 136.175 256.311 135.798C256.216 135.42 257.471 134.691 257.372 134.315C257.273 133.939 254.957 134.16 254.854 133.785C254.75 133.41 255.2 132.889 255.092 132.516C254.984 132.142 255.277 131.654 255.165 131.282C255.052 130.91 254.361 130.721 254.245 130.35C254.128 129.979 254.194 129.558 254.072 129.188C253.951 128.818 253.607 128.532 253.482 128.163C253.356 127.795 253.035 127.506 252.906 127.139C252.776 126.773 252.796 126.364 252.662 125.999C252.528 125.634 253.893 124.709 253.754 124.345C253.616 123.982 252.007 124.188 251.865 123.826C251.722 123.464 253.158 122.469 253.011 122.109C252.864 121.749 251.231 122.004 251.08 121.646C250.929 121.287 251.99 120.41 251.835 120.053C251.68 119.697 251.726 119.242 251.566 118.887C251.407 118.532 249.676 118.895 249.513 118.543C249.349 118.19 250.742 117.104 250.574 116.753C250.407 116.402 250.653 115.836 250.481 115.487C250.309 115.138 248.648 115.529 248.472 115.182C248.295 114.835 248.136 114.484 247.955 114.14C247.775 113.795 247.939 113.27 247.755 112.927C247.571 112.584 246.335 112.823 246.147 112.482C245.959 112.142 247.129 111.045 246.937 110.707C246.745 110.369 247.048 109.736 246.852 109.4C246.655 109.064 246.202 108.869 246.002 108.536C245.802 108.202 244.387 108.607 244.183 108.275C243.979 107.944 244.05 107.45 243.842 107.121C243.634 106.792 244.308 105.898 244.096 105.571C243.884 105.245 243.94 104.732 243.725 104.408C243.509 104.084 243.475 103.623 243.255 103.302C243.036 102.98 241.613 103.484 241.39 103.165C241.167 102.847 241.736 101.964 241.509 101.648C241.283 101.332 241.424 100.735 241.194 100.422C240.963 100.108 238.979 101.099 238.745 100.788C238.511 100.477 239.48 99.2536 239.242 98.9456C239.004 98.6376 239.05 98.0981 238.809 97.7929C238.568 97.4877 237.061 98.1943 236.816 97.892C236.571 97.5896 236.824 96.8869 236.575 96.5873C236.327 96.2878 236.349 95.7613 236.097 95.4647C235.845 95.1681 235.701 94.7748 235.445 94.4812C235.19 94.1875 234.437 94.3312 234.178 94.0406C233.919 93.7499 234.353 92.8337 234.091 92.5461C233.829 92.2585 232.575 92.8857 232.309 92.6011C232.044 92.3166 232.705 91.1596 232.436 90.8782C232.167 90.5968 232.011 90.1967 231.739 89.9182C231.467 89.6397 230.739 89.8051 230.464 89.5299C230.189 89.2547 229.92 88.9721 229.642 88.7003C229.363 88.4284 229.345 87.8823 229.063 87.6137C228.782 87.345 228.251 87.336 227.966 87.0707C227.682 86.8054 227.808 86.0861 227.521 85.8241C227.233 85.562 226.682 85.5836 226.391 85.3249C226.1 85.0661 225.984 84.6003 225.691 84.3451C225.397 84.0899 225.163 83.7526 224.867 83.5009C224.57 83.2491 224.315 82.9331 224.016 82.6848C223.716 82.4365 223.092 82.5742 222.79 82.3294C222.487 82.0845 221.839 82.2713 221.534 82.03C221.229 81.7887 220.472 82.1374 220.164 81.8997C219.856 81.662 220.068 80.7524 219.757 80.5182C219.447 80.2841 219.124 80.0688 218.81 79.8383C218.497 79.6079 218.03 79.5947 217.714 79.368C217.398 79.1412 216.945 79.1179 216.626 78.8949C216.307 78.6718 216.99 76.9951 216.668 76.7758C216.347 76.5565 215.977 76.3863 215.653 76.1708C215.329 75.9552 214.314 76.7829 213.988 76.5712C213.661 76.3594 212.946 76.7681 212.617 76.5602C212.288 76.3523 212.397 75.4538 212.066 75.2498C211.735 75.0458 211.273 75.0627 210.939 74.8626C210.605 74.6625 210.852 73.4764 210.516 73.2802C210.18 73.084 209.324 73.7856 208.985 73.5934C208.647 73.4012 208.974 72.0114 208.634 71.8232C208.293 71.6349 207.099 73.0085 206.756 72.8242C206.413 72.6399 205.976 72.653 205.631 72.4727C205.286 72.2925 205.362 71.3074 205.015 71.1312C204.668 70.955 204.645 70.1217 204.296 69.9497C203.947 69.7776 202.736 71.3864 202.385 71.2184C202.034 71.0505 202.632 68.8707 202.279 68.7069C201.926 68.5431 201 69.6251 200.645 69.4655C200.29 69.3059 200.055 68.8814 199.698 68.726C199.342 68.5706 199.183 67.9476 198.824 67.7964C198.466 67.6452 197.851 68.1092 197.49 67.9623C197.13 67.8153 197.229 66.5113 196.866 66.3686C196.504 66.2258 195.654 67.3332 195.29 67.1948C194.926 67.0563 194.357 67.4892 193.992 67.3549C193.626 67.2206 193.451 66.5842 193.084 66.4544C192.717 66.3246 192.237 66.5409 191.868 66.4155C191.5 66.29 191.713 64.4187 191.343 64.2975C190.973 64.1763 190.029 65.8382 189.658 65.7214C189.286 65.6047 189.356 64.0598 188.983 63.9474C188.61 63.8351 188.367 63.2448 187.993 63.1368C187.619 63.0287 186.955 63.9215 186.579 63.818C186.204 63.7146 186.041 62.7983 185.664 62.6994C185.288 62.6005 184.506 64.0727 184.128 63.9782C183.751 63.8836 183.486 63.3473 183.107 63.2571C182.729 63.1669 182.272 63.4345 181.892 63.3489C181.512 63.2632 181.508 61.4476 181.127 61.3664C180.747 61.2854 180.332 61.299 179.95 61.2223C179.568 61.1456 178.747 63.3266 178.364 63.2544C177.982 63.1823 177.845 61.7949 177.462 61.7272C177.079 61.6597 176.804 60.9159 176.42 60.8526C176.036 60.7896 175.432 62.1005 175.047 62.0419C174.663 61.9833 174.455 60.7031 174.069 60.649C173.684 60.595 173.079 62.1842 172.693 62.1346C172.307 62.0851 172.151 60.1584 171.764 60.1134C171.378 60.0684 170.99 59.9234 170.603 59.883C170.216 59.8425 169.635 61.7478 169.247 61.7117C168.86 61.6757 168.606 60.1173 168.218 60.0857C167.831 60.0543 167.329 61.5476 166.94 61.5206C166.553 61.4936 166.277 59.6805 165.888 59.658C165.501 59.6356 165.047 60.7941 164.657 60.7759C164.269 60.758 163.865 61.2489 163.476 61.2354C163.088 61.222 162.714 60.9129 162.324 60.904C161.936 60.895 161.542 61.6784 161.153 61.6739C160.764 61.6694 160.389 60.9006 159.999 60.9006C159.609 60.9006 159.214 59.8641 158.825 59.8685C158.436 59.873 158.069 61.1544 157.681 61.1634C157.291 61.1723 156.93 61.7595 156.542 61.7729C156.152 61.7864 155.723 60.6102 155.335 60.6281C154.946 60.6461 154.621 61.7471 154.233 61.7696C153.844 61.792 153.357 60.2093 152.97 60.2363C152.581 60.2632 152.146 59.7797 151.759 59.8113C151.371 59.8428 151.092 61.1693 150.705 61.2053C150.317 61.2413 149.927 61.2117 149.54 61.2522C149.153 61.2928 148.715 60.866 148.329 60.9109C147.942 60.956 147.611 61.4504 147.225 61.4997C146.839 61.5493 146.566 62.3857 146.181 62.4397C145.796 62.4938 145.266 61.5226 144.882 61.5811C144.497 61.6398 143.974 60.8582 143.591 60.9213C143.206 60.9844 143.108 62.7228 142.725 62.7904C142.342 62.8581 141.995 63.064 141.613 63.136C141.23 63.2082 140.448 61.2321 140.067 61.3086C139.685 61.3854 139.62 63.0089 139.24 63.09C138.859 63.171 138.64 63.9412 138.26 64.0268C137.881 64.1124 137.114 62.5121 136.736 62.6021C136.357 62.6923 136.412 64.5396 136.035 64.6341C135.657 64.7286 135.09 64.0444 134.714 64.1434C134.338 64.2425 133.905 64.119 133.53 64.2223C133.155 64.3257 132.485 63.3973 132.111 63.5051C131.738 63.6129 131.644 64.6869 131.271 64.799C130.899 64.911 130.239 64.106 129.868 64.2225C129.497 64.3391 129.082 64.3532 128.712 64.4743C128.343 64.5954 128.088 65.0904 127.72 65.2157C127.352 65.3411 126.829 65.0493 126.462 65.1788C126.095 65.3082 125.866 65.8476 125.501 65.9816C125.136 66.1155 125.043 66.9867 124.68 67.125C124.317 67.2633 124.24 68.1243 123.878 68.2669C123.516 68.4095 122.575 67.1015 122.215 67.2483C121.855 67.3952 121.386 67.3018 121.027 67.4531C120.669 67.6045 120.923 69.187 120.566 69.3423C120.21 69.4976 119.528 68.9091 119.173 69.0685C118.818 69.228 118.717 69.9389 118.365 70.1024C118.012 70.2659 117.585 70.2624 117.234 70.4302C116.883 70.598 116.106 69.8923 115.757 70.0642C115.408 70.2362 115.714 71.7163 115.367 71.8924C115.02 72.0685 114.078 71.0857 113.733 71.2658C113.389 71.446 112.735 71.0642 112.392 71.2483C112.049 71.4325 112.482 73.0472 112.142 73.2354C111.801 73.4236 111.676 73.979 111.337 74.1712C110.999 74.3634 110.391 74.0736 110.056 74.2698C109.72 74.4659 108.992 74.001 108.658 74.2012C108.325 74.4015 108.772 75.879 108.44 76.0828C108.109 76.2867 107.2 75.5533 106.871 75.7611C106.542 75.969 105.711 75.4022 105.384 75.6139C105.058 75.8256 105.269 76.8662 104.945 77.0816C104.622 77.2971 104.466 77.7594 104.145 77.9786C103.824 78.1979 102.824 77.4406 102.505 77.6636C102.186 77.8865 101.796 78.0278 101.48 78.2545C101.164 78.4812 101.462 79.5625 101.148 79.7929C100.835 80.0233 100.745 80.5494 100.434 80.7835C100.123 81.0175 99.0654 80.2746 98.7574 80.5122C98.4494 80.7499 98.4545 81.3987 98.1494 81.64C97.8443 81.8812 97.3427 81.8852 97.0404 82.1299C96.738 82.3747 96.2735 82.4346 95.974 82.6829C95.6744 82.9312 96.0715 84.015 95.7749 84.2667C95.4783 84.5185 95.7138 85.3779 95.4202 85.6332C95.1266 85.8884 94.7506 86.0325 94.4599 86.2911C94.1693 86.5497 92.8911 85.7083 92.6035 85.9702C92.3158 86.2322 92.5275 87.0391 92.2429 87.3045C91.9584 87.5698 91.9862 88.1593 91.7048 88.428C91.4234 88.6966 90.7772 88.5816 90.4989 88.8533C90.2206 89.125 90.3356 89.7887 90.0605 90.0638C89.7855 90.339 88.5528 89.6681 88.2809 89.9464C88.009 90.2247 88.6381 91.3741 88.3695 91.6556C88.1009 91.937 86.9253 91.364 86.66 91.6486C86.3946 91.9331 86.1949 92.2882 85.9328 92.5758C85.6706 92.8635 86.5088 94.1392 86.2503 94.43C85.9918 94.7207 85.6464 94.9224 85.3912 95.2161C85.136 95.5098 85.2175 96.0777 84.9657 96.3743C84.7138 96.671 83.962 96.535 83.7136 96.8346C83.4653 97.1341 81.995 96.4366 81.7502 96.7391C81.5054 97.0415 82.6123 98.4278 82.3711 98.7331C82.1298 99.0384 80.6633 98.3884 80.4255 98.6964C80.1876 99.0045 79.7794 99.1968 79.5454 99.5077C79.3113 99.8185 80.3505 101.081 80.12 101.394C79.8896 101.708 78.6812 101.313 78.4545 101.629C78.2277 101.945 78.1765 102.394 77.9534 102.713C77.7304 103.032 78.1241 103.778 77.9046 104.1C77.6851 104.421 77.9817 105.082 77.7661 105.406C77.5506 105.73 76.4819 105.488 76.2701 105.815C76.0583 106.141 76.39 106.813 76.1822 107.142C75.9743 107.471 75.2015 107.445 74.9975 107.776C74.7935 108.108 75.3314 108.886 75.1312 109.22C74.9311 109.554 73.0896 108.92 72.8934 109.256C72.6972 109.592 74.1277 110.868 73.9355 111.207C73.7433 111.545 73.2086 111.685 73.0203 112.026C72.8321 112.366 71.3833 112.026 71.1991 112.368C71.0148 112.711 70.9477 113.13 70.7675 113.475C70.5873 113.82 72.4806 115.231 72.3044 115.578C72.1283 115.925 71.3451 115.956 71.1731 116.305C71.001 116.654 70.8665 117.013 70.6985 117.364C70.5306 117.715 70.5336 118.137 70.37 118.49C70.2064 118.843 69.8269 119.088 69.6672 119.443C69.5076 119.798 69.8858 120.38 69.7303 120.736C69.5749 121.093 67.5117 120.631 67.3606 120.989C67.2095 121.348 68.9531 122.491 68.8061 122.851C68.6591 123.212 67.7111 123.242 67.5684 123.604C67.4257 123.966 67.4355 124.382 67.2971 124.746C67.1586 125.11 65.7308 124.995 65.5967 125.36C65.4626 125.726 65.811 126.273 65.6812 126.64C65.5514 127.007 65.7389 127.487 65.6134 127.856C65.4879 128.224 65.7435 128.718 65.6224 129.088C65.5013 129.458 66.2617 130.101 66.145 130.473C66.0283 130.844 63.6618 130.522 63.5493 130.895C63.4368 131.267 63.6277 131.741 63.5198 132.115C63.4119 132.489 64.9832 133.336 64.8798 133.711C64.7763 134.086 63.9632 134.263 63.8643 134.64C63.7654 135.016 62.265 135.039 62.1704 135.416C62.0759 135.793 62.3025 136.262 62.2124 136.641C62.1223 137.02 61.7695 137.35 61.6838 137.73C61.5981 138.11 63.7608 138.983 63.6796 139.364C63.5985 139.744 62.7568 139.959 62.6801 140.34C62.6034 140.722 61.0601 140.823 60.988 141.205C60.9158 141.587 62.5453 142.285 62.4777 142.668C62.4101 143.051 62.7277 143.491 62.6645 143.876C62.6014 144.259 62.2258 144.585 62.1671 144.97C62.1086 145.354 61.8355 145.701 61.7813 146.087C61.7273 146.472 62.579 146.969 62.5294 147.355C62.4799 147.741 61.8867 148.048 61.8416 148.435C61.7967 148.821 60.0373 149.019 59.9967 149.407C59.9562 149.793 60.1157 150.21 60.0797 150.598C60.0437 150.985 60.4 151.414 60.3684 151.802C60.337 152.19 60.8667 152.621 60.8397 153.01C60.8128 153.397 61.053 153.799 61.0307 154.188C61.0083 154.576 61.8377 154.999 61.8197 155.388C61.8018 155.776 60.9371 156.121 60.9237 156.511C60.9103 156.899 59.5803 157.253 59.5712 157.642C59.5623 158.031 61.2557 158.45 61.2512 158.84C61.2469 159.228 59.334 159.608 59.334 159.998C59.334 160.388 60.8824 160.772 60.8868 161.161C60.8911 161.55 59.81 161.959 59.8189 162.348C59.8279 162.737 59.7631 163.136 59.7766 163.525C59.79 163.914 60.0103 164.302 60.0283 164.69C60.0463 165.079 61.0116 165.419 61.034 165.807C61.0564 166.196 60.579 166.614 60.606 167.002C60.6329 167.39 60.0614 167.828 60.0929 168.215C60.1243 168.604 61.7313 168.853 61.7671 169.24C61.8032 169.628 61.0783 170.084 61.1186 170.471C61.1591 170.858 60.674 171.305 60.719 171.691C60.7641 172.078 60.3478 172.529 60.3972 172.914C60.4468 173.3 61.2608 173.589 61.3148 173.974C61.3689 174.36 61.1989 174.781 61.2574 175.165C61.3161 175.55 62.2225 175.799 62.2857 176.183C62.3488 176.567 62.8675 176.864 62.9351 177.247C63.0027 177.63 61.8241 178.237 61.8961 178.619C61.9683 179.002 61.4238 179.511 61.5003 179.892C61.5771 180.274 62.8785 180.405 62.9595 180.786C63.0406 181.167 63.6523 181.423 63.7378 181.803C63.8233 182.182 62.8471 182.804 62.9371 183.182C63.0272 183.561 62.7806 184.027 62.875 184.404C62.9695 184.781 64.0091 184.917 64.1081 185.293C64.2071 185.669 65.0715 185.83 65.1748 186.205C65.2781 186.58 65.1387 187.011 65.2465 187.384C65.3543 187.758 64.1775 188.508 64.2897 188.88C64.4018 189.252 64.5112 189.631 64.6278 190.002C64.7444 190.373 65.256 190.62 65.377 190.99C65.4979 191.36 64.4777 192.118 64.603 192.486C64.7283 192.855 66.0029 192.832 66.1325 193.198C66.2622 193.565 67.331 193.587 67.465 193.953C67.599 194.318 66.4097 195.174 66.548 195.537C66.6863 195.901 68.223 195.719 68.3656 196.081C68.5082 196.443 67.2478 197.363 67.3946 197.724C67.5414 198.084 69.1338 197.84 69.2847 198.199C69.4357 198.557 69.29 199.031 69.4453 199.387C69.6006 199.743 69.3566 200.269 69.516 200.624C69.6755 200.979 69.2721 201.59 69.4357 201.943C69.5994 202.296 69.4402 202.807 69.6081 203.157C69.7759 203.508 70.6314 203.529 70.8033 203.877C70.9753 204.226 71.0886 204.603 71.2647 204.95C71.4407 205.297 71.0536 205.937 71.2338 206.282C71.4139 206.626 71.9318 206.797 72.116 207.14C72.3002 207.482 72.4758 207.832 72.6639 208.173C72.8521 208.513 72.4798 209.175 72.672 209.513C72.8642 209.851 73.4784 209.954 73.6746 210.29C73.8709 210.626 73.5802 211.259 73.7803 211.593C73.9804 211.926 73.8675 212.465 74.0715 212.797C74.2755 213.128 75.5117 212.825 75.7195 213.154C75.9274 213.482 75.5214 214.211 75.7331 214.537C75.9447 214.863 76.6314 214.885 76.8469 215.209C77.0623 215.533 77.941 215.408 78.1603 215.73C78.3795 216.051 79.0591 216.043 79.2822 216.362C79.5052 216.68 79.1016 217.432 79.3283 217.749C79.555 218.065 78.78 219.112 79.0104 219.426C79.2408 219.739 79.4863 220.055 79.7203 220.365C79.9543 220.676 80.5593 220.714 80.7969 221.022C81.0346 221.33 82.0999 220.99 82.3411 221.295C82.5824 221.6 82.49 222.166 82.7348 222.469C82.9796 222.771 83.2336 223.063 83.4819 223.363C83.7302 223.662 84.704 223.343 84.9558 223.639C85.2075 223.936 84.2831 225.237 84.5384 225.53C84.7936 225.824 85.6025 225.631 85.861 225.922C86.1196 226.212 85.2888 227.49 85.5508 227.778C85.8128 228.065 86.5756 227.904 86.8409 228.188C87.1063 228.473 87.6845 228.466 87.9531 228.748C88.2218 229.029 87.779 230.006 88.0509 230.284C88.3228 230.562 89.3344 230.118 89.6095 230.393C89.8847 230.668 89.3968 231.724 89.6751 231.996C89.9534 232.268 91.3047 231.434 91.5862 231.702C91.8677 231.971 92.1725 232.207 92.4571 232.472C92.7417 232.737 93.2635 232.734 93.551 232.996C93.8386 233.258 93.6072 234.088 93.898 234.347C94.1887 234.606 95.2249 234.005 95.5187 234.26C95.8124 234.515 95.1502 235.875 95.4468 236.126C95.7435 236.378 96.3245 236.291 96.6241 236.54C96.9237 236.788 97.2563 236.992 97.5585 237.237C97.8608 237.481 97.271 238.851 97.5763 239.092C97.8815 239.333 99.4982 237.897 99.8063 238.135C100.114 238.373 99.5028 239.813 99.8136 240.047C100.124 240.282 101.399 239.215 101.713 239.445C102.027 239.676 101.025 241.72 101.341 241.946C101.657 242.173 102.899 241.101 103.218 241.324C103.537 241.547 103.99 241.564 104.312 241.784C104.633 242.003 104.536 242.838 104.86 243.054C105.184 243.269 105.604 243.34 105.93 243.551C106.257 243.763 106.448 244.187 106.777 244.395C107.106 244.603 107.885 244.084 108.216 244.288C108.547 244.492 108.972 244.525 109.305 244.725C109.639 244.926 109.279 246.293 109.616 246.49C109.952 246.686 111.043 245.564 111.381 245.756C111.72 245.949 111.145 247.768 111.486 247.956C111.826 248.144 112.241 248.215 112.584 248.399C112.927 248.584 113.441 248.458 113.786 248.638C114.13 248.818 114.435 249.087 114.782 249.263C115.129 249.439 115.154 250.282 115.503 250.454C115.852 250.626 116.573 250.053 116.924 250.221C117.275 250.389 118.029 249.699 118.382 249.862C118.735 250.026 119.146 250.044 119.501 250.204C119.856 250.363 120.097 250.763 120.454 250.918C120.811 251.074 121.044 251.507 121.403 251.658C121.762 251.809 122.12 251.957 122.48 252.104C122.84 252.25 123.331 252.061 123.694 252.204C124.056 252.346 124.082 253.353 124.446 253.492C124.81 253.63 125.764 252.175 126.129 252.309C126.494 252.443 126.198 254.401 126.566 254.531C126.933 254.661 127.894 253.066 128.263 253.191C128.632 253.317 128.522 254.858 128.892 254.98C129.262 255.101 129.65 255.174 130.022 255.291C130.393 255.407 130.983 254.808 131.356 254.92C131.729 255.033 131.682 256.577 132.056 256.685C132.43 256.793 133.104 255.858 133.479 255.962C133.854 256.065 134.024 256.945 134.401 257.045C134.777 257.144 135.457 256.067 135.834 256.162C136.212 256.256 136.772 255.56 137.15 255.651C137.529 255.741 137.53 257.435 137.91 257.521C138.29 257.607 138.842 256.901 139.223 256.982C139.604 257.063 139.989 257.094 140.371 257.171C140.752 257.248 140.927 258.391 141.309 258.464C141.692 258.536 142.111 258.442 142.494 258.51C142.877 258.577 143.327 258.276 143.711 258.339C144.095 258.402 144.526 258.159 144.911 258.218C145.296 258.277 145.49 259.672 145.876 259.726C146.261 259.78 146.823 258.56 147.21 258.61C147.595 258.659 148.035 258.23 148.422 258.275C148.808 258.32 149.244 257.826 149.631 257.866C150.018 257.907 150.289 259.05 150.676 259.087C151.063 259.122 151.513 258.386 151.901 258.417C152.289 258.449 152.696 258.071 153.084 258.098C153.472 258.125 153.759 259.656 154.148 259.679C154.536 259.701 154.899 260.337 155.288 260.355C155.677 260.373 156.13 258.829 156.52 258.843C156.908 258.856 157.27 259.681 157.66 259.69C158.049 259.699 158.439 259.745 158.829 259.75C159.218 259.754 159.609 258.521 159.999 258.521C160.389 258.521 160.765 258.462 161.154 258.457C161.544 258.453 161.916 258.258 162.304 258.249C162.694 258.24 163.108 259.386 163.496 259.372C163.886 259.359 164.229 258.387 164.617 258.369C165.006 258.351 165.427 259.102 165.815 259.079C166.204 259.057 166.583 258.958 166.971 258.931C167.36 258.904 167.703 258.377 168.09 258.346C168.478 258.314 168.875 258.485 169.262 258.449C169.65 258.413 170.217 260.169 170.603 260.129C170.991 260.088 171.169 258.141 171.555 258.096C171.941 258.051 172.301 257.865 172.686 257.816C173.072 257.766 173.692 259.46 174.077 259.406C174.463 259.352 174.552 257.288 174.936 257.229C175.321 257.171 175.839 258.012 176.223 257.949C176.607 257.886 177.21 259.082 177.592 259.014C177.976 258.946 178.377 258.913 178.76 258.841C179.142 258.769 179.095 256.499 179.476 256.422C179.858 256.345 180.597 258.013 180.977 257.932C181.358 257.851 181.379 256.146 181.758 256.06C182.138 255.974 183.035 258.117 183.413 258.027C183.791 257.937 184.155 257.725 184.532 257.631C184.909 257.536 184.814 255.59 185.189 255.492C185.565 255.393 185.91 255.213 186.285 255.11C186.66 255.006 187.285 255.807 187.659 255.699C188.032 255.591 188.36 255.328 188.733 255.216C189.105 255.104 189.835 256.132 190.206 256.015C190.577 255.899 190.484 254.323 190.854 254.202C191.223 254.081 191.655 254.155 192.023 254.03C192.391 253.905 193.079 254.69 193.445 254.56C193.812 254.43 193.915 253.557 194.28 253.423C194.645 253.289 194.614 252.114 194.978 251.976C195.341 251.837 196.022 252.542 196.384 252.399C196.746 252.257 196.74 251.218 197.1 251.072C197.46 250.925 198.243 251.818 198.602 251.667C198.96 251.516 199.74 252.335 200.097 252.18C200.453 252.025 200.582 251.333 200.936 251.174C201.291 251.014 201.825 251.23 202.178 251.066C202.531 250.902 202.099 249.076 202.45 248.908C202.801 248.74 203.702 249.716 204.051 249.544C204.399 249.372 204.715 249.127 205.061 248.951C205.408 248.775 205.299 247.721 205.643 247.541C205.988 247.361 207.261 248.927 207.603 248.743C207.946 248.559 208.171 248.134 208.512 247.945C208.852 247.757 209.173 247.513 209.511 247.321C209.849 247.128 210.318 247.141 210.654 246.945C210.99 246.749 210.376 244.944 210.71 244.744C211.043 244.544 212.254 245.786 212.585 245.582C212.917 245.378 213.358 245.329 213.687 245.121C214.016 244.913 213.99 244.134 214.316 243.922C214.642 243.711 215.149 243.761 215.473 243.546C215.797 243.33 215.803 242.634 216.124 242.414C216.445 242.195 216.057 240.957 216.375 240.734C216.694 240.511 218.217 241.989 218.533 241.762C218.849 241.536 219.089 241.185 219.403 240.955C219.716 240.725 220.198 240.701 220.508 240.467C220.819 240.233 221.042 239.863 221.35 239.625C221.658 239.387 220.767 237.615 221.072 237.374C221.377 237.133 222.316 237.692 222.618 237.447C222.921 237.202 223.165 236.887 223.465 236.638C223.764 236.39 223.883 235.93 224.179 235.678C224.476 235.426 224.852 235.272 225.146 235.017C225.439 234.761 226.716 235.614 227.007 235.356C227.298 235.097 227.438 234.652 227.726 234.39C228.014 234.128 227.152 232.615 227.436 232.35C227.721 232.085 228.602 232.455 228.883 232.187C229.165 231.918 229.228 231.422 229.506 231.15C229.784 230.878 231.017 231.562 231.292 231.287C231.567 231.012 231.046 229.938 231.318 229.66C231.59 229.382 230.863 228.148 231.132 227.867C231.4 227.585 233.371 228.911 233.636 228.626C233.902 228.341 233.291 227.242 233.553 226.954C233.815 226.666 234.385 226.654 234.643 226.363C234.902 226.073 235.477 226.052 235.732 225.758C235.987 225.464 236.237 225.155 236.488 224.858C236.74 224.562 235.605 223.105 235.854 222.805C236.102 222.505 237.99 223.549 238.234 223.247C238.479 222.944 238.432 222.396 238.673 222.09C238.914 221.785 239.343 221.615 239.58 221.307C239.818 220.998 239.569 220.311 239.803 220C240.037 219.689 239.051 218.478 239.281 218.164C239.512 217.851 240.461 218.07 240.687 217.754C240.914 217.438 242.169 217.846 242.392 217.527C242.615 217.208 243.028 217.006 243.247 216.684C243.466 216.363 241.704 214.707 241.919 214.383C242.135 214.059 244.34 215.043 244.552 214.717C244.764 214.39 243.097 212.861 243.305 212.532C243.513 212.203 243.794 211.935 243.998 211.603C244.202 211.272 246.348 212.119 246.548 211.785C246.749 211.452 244.738 209.81 244.934 209.474C245.13 209.138 245.591 208.97 245.783 208.632C245.975 208.293 246.679 208.251 246.868 207.911C247.056 207.57 246.622 206.9 246.806 206.558C246.99 206.215 248.467 206.562 248.647 206.217C248.827 205.872 248.729 205.381 248.905 205.034C249.082 204.687 250.179 204.793 250.351 204.444C250.523 204.095 248.692 202.774 248.86 202.423C249.028 202.072 249.816 202.023 249.98 201.67C250.144 201.317 250.062 200.86 250.222 200.505C250.382 200.15 250.049 199.59 250.204 199.233C250.36 198.876 251.597 198.991 251.748 198.633C251.899 198.274 251.179 197.561 251.326 197.201C251.473 196.84 252.59 196.875 252.733 196.513C252.875 196.15 252.65 195.648 252.788 195.284C252.927 194.92 253.516 194.726 253.65 194.361C253.785 193.996 254.56 193.855 254.69 193.488C254.82 193.121 254.325 192.532 254.45 192.163C254.576 191.795 255.193 191.586 255.314 191.216C255.435 190.846 255.727 190.521 255.844 190.15C255.96 189.779 254.084 188.796 254.197 188.424C254.309 188.051 254.494 187.715 254.602 187.341C254.71 186.966 255.447 186.78 255.55 186.405C255.654 186.03 256.954 185.976 257.053 185.599C257.152 185.223 256.426 184.631 256.521 184.253C256.615 183.876 256.021 183.336 256.111 182.957C256.201 182.578 257.185 182.411 257.271 182.031C257.356 181.652 256.997 181.176 257.079 180.795C257.16 180.415 257.958 180.182 258.035 179.8C258.111 179.419 257.549 178.912 257.622 178.529C257.694 178.147 257.074 177.646 257.142 177.262C257.209 176.879 258.633 176.73 258.696 176.345C258.759 175.962 258.101 175.463 258.16 175.078C258.218 174.693 257.631 174.221 257.685 173.835C257.739 173.45 258.568 173.175 258.617 172.789C258.667 172.404 259.394 172.098 259.439 171.712C259.484 171.326 260.02 170.984 260.061 170.597C260.101 170.21 258.015 169.613 258.051 169.225C258.087 168.838 259.49 168.574 259.521 168.186C259.553 167.799 259.559 167.406 259.586 167.017C259.613 166.629 258.86 166.193 258.883 165.804C258.905 165.416 258.29 165.004 258.308 164.615C258.326 164.227 259.271 163.883 259.285 163.494C259.298 163.105 260.69 162.75 260.699 162.361C260.708 161.972 258.698 161.546 258.703 161.157C258.707 160.769 260.552 160.389 260.552 160Z" fill="#CCCDD4" fill-opacity="0.3"/>
<path d="M183.882 89.453V56.3628H134.012V90.883C117.518 97.2438 103.804 109.232 95.2943 124.727C86.785 140.223 84.0287 158.228 87.5125 175.559C90.9963 192.891 100.496 208.433 114.332 219.437C128.168 230.441 145.449 236.198 163.12 235.691C180.791 235.185 197.713 228.446 210.896 216.668C224.079 204.889 232.672 188.828 235.157 171.326C237.642 153.823 233.858 136.005 224.475 121.023C215.092 106.041 200.713 94.8582 183.882 89.453Z" fill="#F2F2F5"/>
<path d="M133.278 92.7859C132.436 80.6627 132.596 68.4901 133.278 56.3631C133.293 56.1791 133.378 56.0076 133.514 55.8827C133.65 55.7578 133.828 55.6885 134.012 55.6885C134.197 55.6885 134.375 55.7578 134.511 55.8827C134.647 56.0076 134.731 56.1791 134.747 56.3631C135.32 65.4587 135.392 74.5718 135.204 83.6802C135.118 86.7154 134.999 89.7506 134.747 92.7859C134.729 92.9681 134.644 93.1373 134.508 93.2603C134.372 93.3833 134.195 93.4514 134.012 93.4514C133.829 93.4514 133.652 93.3833 133.517 93.2603C133.381 93.1373 133.296 92.9681 133.278 92.7859L133.278 92.7859Z" fill="#5E5F6C"/>
<path d="M183.149 91.3556C182.458 82.6215 182.53 73.8611 182.739 65.1111C182.824 62.1951 182.937 59.279 183.149 56.363C183.162 56.1774 183.246 56.0039 183.382 55.8772C183.518 55.7506 183.697 55.6802 183.883 55.6802C184.069 55.6802 184.248 55.7506 184.385 55.8772C184.521 56.0039 184.604 56.1774 184.618 56.363C185.191 65.1008 185.263 73.8566 185.075 82.6075C184.989 85.5235 184.87 88.4396 184.618 91.3556C184.599 91.5374 184.513 91.7058 184.378 91.8282C184.242 91.9506 184.066 92.0184 183.883 92.0184C183.701 92.0184 183.524 91.9506 183.389 91.8282C183.253 91.7058 183.168 91.5374 183.149 91.3556Z" fill="#5E5F6C"/>
<path d="M160.974 239.18C160.236 239.163 159.501 239.089 158.774 238.958C158.266 238.871 157.753 238.809 157.238 238.773C156.44 238.735 155.661 238.632 154.907 238.532C154.446 238.472 153.985 238.411 153.524 238.366C153.03 238.317 152.526 238.305 151.993 238.292C151.255 238.288 150.518 238.239 149.786 238.145C149.055 238.016 148.34 237.81 147.653 237.53C147.176 237.34 146.685 237.185 146.184 237.07C145.672 236.982 145.154 236.928 144.635 236.908C143.903 236.884 143.174 236.792 142.459 236.633C141.368 236.361 140.29 236.034 139.248 235.717L138.864 235.601C137.893 235.306 136.939 234.961 136.017 234.628L135.331 234.381C134.206 233.978 133.034 233.524 131.847 233.032C131.166 232.735 130.503 232.398 129.861 232.023C129.403 231.767 128.97 231.525 128.528 231.316C128.055 231.116 127.565 230.964 127.063 230.859C126.326 230.709 125.612 230.465 124.937 230.134C124.291 229.771 123.668 229.368 123.073 228.926C122.636 228.615 122.224 228.322 121.802 228.069C121.173 227.661 120.598 227.177 120.089 226.627C119.741 226.254 119.359 225.915 118.947 225.613C118.513 225.356 118.051 225.148 117.57 224.993C116.844 224.761 116.155 224.425 115.524 223.996C114.944 223.545 114.398 223.051 113.891 222.519C113.507 222.136 113.145 221.773 112.763 221.459C111.96 220.799 111.191 220.099 110.449 219.422L109.971 218.988C109.577 218.65 109.161 218.339 108.725 218.057C108.105 217.661 107.523 217.206 106.988 216.7C106.479 216.157 106.034 215.557 105.661 214.913C105.401 214.468 105.104 214.046 104.772 213.652C104.44 213.286 104.067 212.941 103.672 212.576C103.122 212.09 102.606 211.566 102.128 211.008C101.677 210.43 101.28 209.811 100.942 209.161C100.7 208.703 100.429 208.261 100.131 207.838C99.6014 207.125 99.1208 206.388 98.6557 205.676C98.4558 205.37 98.2555 205.063 98.0508 204.758C97.3518 203.714 96.7005 202.688 96.0601 201.622C95.7739 201.222 95.4331 200.864 95.0476 200.559C94.4264 200.066 93.8985 199.466 93.4891 198.786C93.1589 198.121 92.9028 197.421 92.7254 196.699C92.5992 196.196 92.4326 195.705 92.227 195.229C92.0162 194.784 91.7595 194.346 91.4879 193.882C91.1006 193.253 90.7574 192.599 90.4606 191.923C90.1979 191.232 90.0085 190.515 89.8956 189.785C89.8136 189.274 89.6927 188.769 89.5339 188.277C89.266 187.528 89.0646 186.773 88.8695 186.042C88.7501 185.595 88.6306 185.147 88.4958 184.701C88.3341 184.213 88.1417 183.735 87.9195 183.27C87.5981 182.608 87.3374 181.919 87.1408 181.21C87.0022 180.711 86.8312 180.222 86.6288 179.746C86.3354 179.067 86.1056 178.362 85.9425 177.64C85.829 176.859 85.8551 176.065 86.0198 175.293C86.1236 174.809 86.1594 174.313 86.1261 173.818C86.0419 173.313 85.9322 172.813 85.7975 172.319C85.5998 171.612 85.4568 170.891 85.3696 170.162C85.3093 169.419 85.2878 168.673 85.3052 167.928C85.3088 167.411 85.3121 166.922 85.2882 166.434C85.2537 165.922 85.1936 165.412 85.108 164.906C84.9808 164.182 84.9087 163.45 84.8926 162.715C84.9088 161.981 84.9816 161.249 85.1102 160.525C85.1968 160.019 85.2576 159.509 85.2922 158.997C85.3034 158.477 85.2792 157.956 85.22 157.439C85.1324 156.712 85.114 155.979 85.1652 155.249C85.2523 154.518 85.3937 153.794 85.5883 153.084C85.7185 152.561 85.8414 152.067 85.9129 151.581C86.0337 150.842 86.194 150.11 86.3933 149.388C86.5213 148.89 86.6423 148.421 86.7358 147.948C86.8236 147.437 86.8783 146.92 86.8995 146.402C86.925 145.671 87.0175 144.944 87.176 144.229C87.3649 143.473 87.6208 142.755 87.8683 142.061C88.0379 141.585 88.1981 141.136 88.336 140.68C88.4759 140.181 88.5881 139.673 88.6722 139.161C88.7861 138.438 88.959 137.725 89.1891 137.029C89.4518 136.296 89.7779 135.603 90.0936 134.934C90.3095 134.476 90.5134 134.044 90.6958 133.604C91.0041 132.861 91.3656 132.155 91.7149 131.473C91.9235 131.066 92.1318 130.659 92.3272 130.247C92.8179 129.211 93.3745 128.036 93.9803 126.905C94.2059 126.484 94.4118 126.053 94.6297 125.597C94.9476 124.931 95.2766 124.242 95.6764 123.576C96.0678 122.955 96.5033 122.362 96.9797 121.803C97.3195 121.385 97.6405 120.99 97.9151 120.58C98.1741 120.193 98.4193 119.798 98.6645 119.404C99.0643 118.761 99.4778 118.096 99.952 117.457C100.419 116.829 100.93 116.258 101.425 115.705C101.757 115.334 102.07 114.984 102.37 114.619C102.682 114.239 102.971 113.834 103.277 113.406C103.696 112.796 104.15 112.21 104.637 111.653C105.142 111.123 105.69 110.636 106.275 110.197C106.686 109.884 107.079 109.548 107.452 109.191C108.275 108.368 109.156 107.532 110.146 106.634C110.521 106.279 110.876 105.904 111.21 105.51C111.679 104.948 112.193 104.426 112.747 103.948C113.14 103.61 113.514 103.251 113.866 102.87C114.363 102.328 114.903 101.828 115.483 101.375C116.082 100.951 116.713 100.573 117.37 100.245C117.832 100.01 118.282 99.7522 118.718 99.4724C119.139 99.1711 119.538 98.8392 119.911 98.4793C120.441 97.9615 121.022 97.4992 121.646 97.0993C122.314 96.7343 123.031 96.4649 123.774 96.2988C124.269 96.1874 124.752 96.0222 125.212 95.8061C125.914 95.4299 126.632 95.118 127.327 94.8163C127.75 94.6325 128.174 94.4488 128.593 94.25C129.644 93.7525 130.781 93.2235 131.984 92.7248C132.392 92.5556 132.794 92.3763 133.197 92.1969C133.907 91.8802 134.642 91.5529 135.413 91.2769C135.888 91.0856 136.346 90.8529 136.78 90.5814C137.413 90.1813 138.091 89.8576 138.8 89.6171C139.543 89.3923 140.295 89.2407 141.023 89.0942C141.521 88.994 141.991 88.8992 142.455 88.7834C143.18 88.6269 143.919 88.5535 144.661 88.5646C145.176 88.5699 145.692 88.5313 146.201 88.4494C146.686 88.3237 147.154 88.1421 147.596 87.9082C148.277 87.5476 149.008 87.2908 149.765 87.1463C150.527 87.0342 151.288 86.9982 152.024 86.9636C152.537 86.9393 153.023 86.9164 153.504 86.8698C154.248 86.8226 154.994 86.8681 155.726 87.0052C156.233 87.097 156.747 87.1415 157.261 87.1383C157.759 87.0851 158.248 86.9747 158.721 86.8093C159.446 86.5544 160.206 86.4084 160.975 86.376C161.745 86.409 162.506 86.5579 163.232 86.8178C163.702 86.9859 164.191 87.0981 164.687 87.152C165.157 87.1747 165.624 87.181 166.09 87.1872C166.841 87.1977 167.618 87.2083 168.404 87.2849C168.9 87.3331 169.409 87.3372 169.949 87.3416C170.68 87.3312 171.411 87.3718 172.137 87.4633C173.418 87.6516 174.661 87.8885 175.813 88.1166C176.64 88.2799 177.443 88.4976 178.219 88.7083C178.623 88.8176 179.027 88.9272 179.433 89.0285C179.941 89.1413 180.455 89.2211 180.973 89.2674C181.705 89.3285 182.43 89.4569 183.139 89.651C183.846 89.88 184.538 90.1528 185.211 90.4678C185.696 90.6835 186.155 90.8872 186.617 91.0524C187.307 91.3147 187.981 91.6216 188.632 91.9709C189.105 92.2124 189.552 92.4405 190.006 92.6289C190.49 92.815 190.986 92.9691 191.491 93.0903C192.206 93.2576 192.904 93.4909 193.576 93.7874C194.232 94.1197 194.857 94.5109 195.443 94.9561C195.857 95.2666 196.289 95.5505 196.739 95.8061C197.202 96.0318 197.684 96.2167 198.179 96.3587C198.897 96.5604 199.588 96.8456 200.239 97.2082C200.864 97.6012 201.463 98.036 202.029 98.5096C202.449 98.8454 202.846 99.1627 203.256 99.4373C203.695 99.7171 204.148 99.9721 204.615 100.201C205.277 100.52 205.911 100.894 206.512 101.317L206.84 101.561C207.719 102.213 208.629 102.887 209.493 103.597C210.053 104.078 210.578 104.596 211.066 105.15C211.433 105.548 211.78 105.925 212.147 106.257C212.503 106.581 212.88 106.889 213.278 107.214C213.871 107.683 214.44 108.182 214.983 108.708C215.495 109.24 215.971 109.806 216.409 110.4C216.737 110.826 217.046 111.229 217.379 111.595C217.711 111.961 218.088 112.308 218.488 112.674C219.042 113.159 219.561 113.683 220.04 114.242C220.5 114.852 220.87 115.524 221.139 116.238C221.318 116.712 221.549 117.163 221.828 117.585C222.15 117.983 222.508 118.35 222.898 118.681C223.471 119.164 223.982 119.716 224.42 120.324C224.826 120.953 225.198 121.605 225.535 122.274C225.777 122.735 226.006 123.171 226.256 123.588C226.456 123.92 226.66 124.25 226.865 124.58C227.307 125.292 227.764 126.029 228.175 126.797C228.7 127.778 229.18 128.792 229.643 129.772L229.823 130.153C230.119 130.832 230.339 131.541 230.478 132.268C230.577 132.774 230.717 133.27 230.898 133.753C231.08 134.192 231.282 134.621 231.496 135.075C231.81 135.739 232.133 136.426 232.396 137.161C232.58 137.642 232.791 138.112 233.027 138.57C233.369 139.222 233.656 139.9 233.886 140.598C234.085 141.307 234.238 142.027 234.343 142.756C234.431 143.284 234.514 143.783 234.634 144.265C234.777 144.758 234.96 145.238 235.183 145.701C235.511 146.372 235.761 147.078 235.93 147.806C236.057 148.53 236.133 149.262 236.157 149.996C236.188 150.539 236.217 151.051 236.289 151.544C236.416 152.406 236.489 153.275 236.56 154.116C236.592 154.497 236.624 154.879 236.661 155.261C236.725 155.774 236.822 156.282 236.951 156.782C237.141 157.497 237.264 158.228 237.319 158.965C237.322 159.731 237.211 160.492 236.988 161.224C236.841 161.709 236.752 162.21 236.722 162.716C236.747 163.227 236.825 163.735 236.955 164.23C237.149 164.958 237.243 165.709 237.234 166.462C237.171 167.215 237.01 167.957 236.754 168.669C236.585 169.147 236.463 169.641 236.391 170.144C236.342 170.638 236.331 171.14 236.318 171.671C236.315 172.406 236.267 173.141 236.173 173.87C236.101 174.363 236.074 174.875 236.045 175.417C236.024 176.15 235.949 176.881 235.822 177.604C235.651 178.338 235.385 179.047 235.033 179.713C234.797 180.164 234.606 180.636 234.461 181.123C234.356 181.627 234.296 182.139 234.283 182.654C234.267 183.399 234.162 184.139 233.97 184.859C233.826 185.332 233.716 185.826 233.599 186.349C233.452 187.076 233.26 187.793 233.024 188.496C232.738 189.203 232.356 189.868 231.888 190.47C231.578 190.871 231.312 191.303 231.094 191.76C230.785 192.504 230.425 193.206 230.077 193.885C229.869 194.291 229.661 194.697 229.466 195.11C228.85 196.409 228.321 197.466 227.802 198.436C227.407 199.172 226.97 199.867 226.547 200.539C226.322 200.896 226.097 201.254 225.878 201.618C225.66 202.059 225.505 202.529 225.418 203.014C225.277 203.794 224.997 204.543 224.59 205.224C224.147 205.836 223.625 206.388 223.038 206.864C222.643 207.187 222.281 207.549 221.957 207.944C221.659 208.369 221.388 208.812 221.147 209.272C220.81 209.925 220.413 210.546 219.961 211.126C219.482 211.683 218.961 212.201 218.401 212.677C218.009 213.014 217.635 213.372 217.279 213.749C217.009 214.046 216.744 214.348 216.479 214.65C215.937 215.269 215.376 215.908 214.77 216.513C214.496 216.788 214.225 217.066 213.953 217.345C213.37 217.946 212.766 218.567 212.122 219.15C211.555 219.632 210.932 220.045 210.266 220.38C209.81 220.613 209.374 220.886 208.966 221.195C208.641 221.463 208.323 221.735 208.005 222.007C207.399 222.525 206.772 223.062 206.099 223.562C205.692 223.879 205.303 224.22 204.935 224.582C204.415 225.099 203.853 225.572 203.254 225.994C202.83 226.291 202.421 226.611 202.031 226.952C201.479 227.439 200.89 227.881 200.269 228.275C199.388 228.804 198.222 229.494 197.013 230.141C196.356 230.476 195.677 230.766 194.98 231.008C194.474 231.197 193.996 231.375 193.548 231.587C193.131 231.785 192.718 231.998 192.306 232.21C191.625 232.561 190.921 232.923 190.182 233.23C189.497 233.494 188.792 233.698 188.072 233.841C187.563 233.946 187.06 234.08 186.567 234.244C186.127 234.401 185.695 234.576 185.237 234.762C184.543 235.043 183.826 235.333 183.072 235.561C182.601 235.704 182.129 235.895 181.63 236.097C180.951 236.39 180.252 236.634 179.539 236.828C178.808 236.984 178.06 237.05 177.313 237.024C176.799 237.008 176.284 237.04 175.775 237.119C175.273 237.234 174.78 237.384 174.299 237.569C173.61 237.838 172.895 238.038 172.166 238.166C171.438 238.258 170.704 238.3 169.97 238.293C169.43 238.299 168.92 238.305 168.424 238.353C167.914 238.42 167.41 238.528 166.917 238.674C166.203 238.89 165.469 239.029 164.726 239.087C163.459 239.148 162.197 239.18 160.974 239.18ZM154.044 89.1635C153.936 89.1635 153.831 89.168 153.729 89.1779C153.19 89.2303 152.653 89.2555 152.134 89.2803C151.423 89.3138 150.751 89.3455 150.103 89.4409C149.574 89.5578 149.064 89.7477 148.588 90.0051C147.975 90.3251 147.325 90.5669 146.652 90.7249C146.01 90.835 145.36 90.888 144.709 90.8834C144.142 90.8724 143.574 90.9228 143.017 91.0336C142.501 91.1624 141.983 91.2667 141.482 91.3678C140.776 91.5098 140.11 91.644 139.473 91.8367C138.938 92.0291 138.425 92.2808 137.945 92.5869C137.39 92.9317 136.804 93.2242 136.195 93.4607C135.506 93.7071 134.843 94.0026 134.14 94.3157C133.72 94.503 133.299 94.6905 132.872 94.8674C131.716 95.3467 130.61 95.8615 129.587 96.3463C129.145 96.5557 128.698 96.7501 128.251 96.9437C127.569 97.2397 126.925 97.5197 126.307 97.8505C125.692 98.1544 125.044 98.3853 124.376 98.5386C123.843 98.6535 123.326 98.838 122.841 99.0874C122.352 99.4099 121.895 99.7791 121.477 100.19C121.019 100.63 120.528 101.035 120.009 101.4C119.507 101.724 118.99 102.022 118.458 102.293C117.905 102.568 117.373 102.884 116.866 103.237C116.39 103.616 115.945 104.032 115.535 104.481C115.121 104.926 114.682 105.347 114.22 105.741C113.763 106.14 113.339 106.576 112.951 107.042C112.561 107.502 112.145 107.939 111.705 108.352C110.743 109.224 109.888 110.036 109.092 110.832C108.657 111.252 108.197 111.647 107.716 112.014C107.231 112.376 106.776 112.777 106.356 113.212C105.929 113.702 105.532 114.217 105.165 114.754C104.85 115.195 104.524 115.651 104.162 116.092C103.831 116.494 103.487 116.879 103.153 117.252C102.672 117.79 102.218 118.297 101.814 118.841C101.397 119.402 101.027 119.998 100.634 120.628C100.376 121.045 100.116 121.462 99.8428 121.87C99.5082 122.37 99.1378 122.826 98.7794 123.266C98.3733 123.741 98.0009 124.244 97.6649 124.77C97.3219 125.341 97.0309 125.951 96.723 126.596C96.5032 127.056 96.2761 127.532 96.025 128.001C95.4463 129.081 94.9029 130.228 94.4236 131.24C94.2178 131.674 93.9988 132.102 93.7793 132.53C93.4356 133.201 93.111 133.835 92.8383 134.493C92.635 134.983 92.4096 135.461 92.1917 135.924C91.8864 136.571 91.5979 137.183 91.3731 137.811C91.1868 138.39 91.0464 138.982 90.9533 139.582C90.8544 140.179 90.7217 140.77 90.556 141.353C90.4018 141.862 90.2248 142.359 90.0533 142.84C89.8139 143.511 89.5879 144.145 89.4266 144.791C89.3043 145.37 89.2332 145.959 89.2143 146.55C89.1877 147.17 89.12 147.787 89.0114 148.398C88.9047 148.936 88.7702 149.459 88.6396 149.966C88.4613 150.609 88.3171 151.26 88.2077 151.918C88.1198 152.516 87.9773 153.09 87.8394 153.644C87.6736 154.244 87.5514 154.856 87.4737 155.474C87.4394 156.06 87.4583 156.648 87.5302 157.231C87.6003 157.854 87.6267 158.482 87.6091 159.109C87.5712 159.701 87.5024 160.291 87.4031 160.875C87.2938 161.483 87.2299 162.098 87.2121 162.715C87.2297 163.334 87.293 163.95 87.4014 164.56C87.4993 165.143 87.5672 165.731 87.605 166.322C87.6316 166.874 87.6281 167.418 87.6246 167.944C87.6081 168.609 87.6259 169.274 87.6779 169.937C87.7552 170.55 87.8781 171.155 88.0456 171.749C88.2004 172.32 88.3256 172.898 88.4206 173.481C88.4948 174.207 88.4578 174.939 88.311 175.654C88.1981 176.157 88.1667 176.676 88.2179 177.19C88.3557 177.772 88.5453 178.341 88.7843 178.89C89.026 179.462 89.2287 180.049 89.3912 180.648C89.5564 181.222 89.7715 181.781 90.0341 182.317C90.2983 182.872 90.5259 183.444 90.7154 184.029C90.8581 184.499 90.9846 184.972 91.1106 185.444C91.3016 186.161 91.4823 186.837 91.7177 187.495C91.9191 188.102 92.0718 188.724 92.1745 189.354C92.2611 189.927 92.4047 190.49 92.6031 191.034C92.8604 191.612 93.1564 192.172 93.4891 192.71C93.7741 193.197 94.0689 193.7 94.3231 194.236C94.5858 194.828 94.7979 195.44 94.9573 196.068C95.0926 196.627 95.2857 197.171 95.5335 197.691C95.8213 198.123 96.1769 198.505 96.5866 198.824C97.153 199.28 97.646 199.821 98.0483 200.428C98.6689 201.461 99.3002 202.455 99.9781 203.467C100.188 203.78 100.393 204.095 100.598 204.408C101.064 205.123 101.505 205.798 101.993 206.455C102.352 206.958 102.678 207.485 102.967 208.032C103.24 208.56 103.559 209.063 103.919 209.536C104.331 210.011 104.774 210.458 105.246 210.873C105.66 211.256 106.089 211.652 106.49 212.094C106.915 212.588 107.295 213.118 107.625 213.68C107.909 214.175 108.245 214.638 108.628 215.06C109.062 215.462 109.532 215.824 110.032 216.141C110.556 216.482 111.056 216.859 111.528 217.27L112.01 217.708C112.765 218.396 113.477 219.045 114.235 219.668C114.705 220.053 115.124 220.473 115.531 220.879C115.959 221.33 116.419 221.75 116.907 222.135C117.363 222.427 117.856 222.657 118.373 222.818C119.027 223.031 119.653 223.323 120.237 223.686C120.776 224.069 121.276 224.505 121.729 224.987C122.107 225.4 122.532 225.767 122.996 226.081C123.495 226.381 123.964 226.714 124.417 227.036C124.933 227.421 125.472 227.773 126.032 228.09C126.538 228.325 127.07 228.498 127.617 228.607C128.271 228.746 128.909 228.951 129.521 229.22C130.034 229.463 130.522 229.736 130.994 230C131.557 230.33 132.139 230.627 132.736 230.89C133.887 231.368 135.024 231.807 136.113 232.197L136.806 232.447C137.7 232.77 138.624 233.105 139.537 233.381L139.923 233.498C140.937 233.806 141.986 234.125 143.021 234.383C143.6 234.505 144.188 234.575 144.78 234.593C145.402 234.619 146.021 234.686 146.634 234.794C147.255 234.932 147.863 235.12 148.454 235.354C148.993 235.575 149.552 235.742 150.124 235.851C150.763 235.93 151.406 235.971 152.051 235.974C152.601 235.987 153.171 236.001 153.749 236.058C154.236 236.105 154.723 236.169 155.211 236.233C155.95 236.331 156.648 236.423 157.351 236.457C157.946 236.496 158.539 236.565 159.128 236.666C159.738 236.777 160.355 236.842 160.975 236.861C162.16 236.861 163.385 236.83 164.614 236.771C165.193 236.717 165.765 236.604 166.321 236.433C166.936 236.252 167.564 236.123 168.2 236.045C168.795 235.987 169.379 235.98 169.944 235.974C170.574 235.982 171.204 235.947 171.829 235.872C172.408 235.763 172.976 235.599 173.524 235.383C174.11 235.159 174.712 234.979 175.325 234.844C175.979 234.733 176.642 234.687 177.305 234.705C177.865 234.727 178.426 234.684 178.977 234.578C179.585 234.409 180.181 234.198 180.761 233.947C181.286 233.735 181.829 233.515 182.4 233.342C183.054 233.144 183.692 232.886 184.367 232.612C184.827 232.426 185.302 232.234 185.786 232.06C186.367 231.864 186.959 231.704 187.558 231.58C188.15 231.464 188.73 231.299 189.294 231.087C189.945 230.817 190.576 230.492 191.245 230.148C191.68 229.924 192.115 229.7 192.556 229.491C193.093 229.237 193.641 229.032 194.171 228.835C194.769 228.628 195.353 228.381 195.919 228.097C197.083 227.474 198.217 226.802 199.075 226.287C199.591 225.955 200.081 225.583 200.54 225.176C200.995 224.78 201.47 224.41 201.965 224.067C202.455 223.715 202.916 223.323 203.343 222.896C203.777 222.47 204.236 222.071 204.717 221.7C205.325 221.248 205.895 220.76 206.498 220.245C206.828 219.963 207.157 219.68 207.494 219.404C208.011 219.001 208.565 218.648 209.147 218.349C209.653 218.097 210.128 217.79 210.565 217.432C211.155 216.897 211.707 216.33 212.292 215.729C212.57 215.442 212.849 215.155 213.131 214.873C213.683 214.321 214.195 213.738 214.737 213.12C215.01 212.809 215.284 212.497 215.562 212.191C215.971 211.754 216.403 211.339 216.857 210.947C217.326 210.55 217.765 210.117 218.17 209.654C218.53 209.181 218.848 208.677 219.12 208.148C219.409 207.598 219.736 207.068 220.096 206.561C220.513 206.034 220.985 205.552 221.504 205.125C221.938 204.777 222.328 204.377 222.664 203.933C222.908 203.479 223.076 202.987 223.162 202.478C223.297 201.76 223.543 201.066 223.891 200.423C224.118 200.046 224.352 199.674 224.585 199.303C225.005 198.636 225.402 198.005 225.758 197.341C226.26 196.405 226.772 195.381 227.371 194.117C227.577 193.682 227.795 193.255 228.014 192.828C228.357 192.16 228.68 191.529 228.952 190.872C229.233 190.252 229.584 189.666 229.999 189.126C230.339 188.694 230.623 188.22 230.841 187.715C231.044 187.102 231.21 186.477 231.337 185.844C231.458 185.302 231.583 184.742 231.751 184.186C231.886 183.64 231.959 183.079 231.969 182.516C231.988 181.859 232.069 181.204 232.212 180.562C232.391 179.922 232.636 179.303 232.941 178.713C233.205 178.219 233.409 177.696 233.548 177.153C233.652 176.539 233.713 175.918 233.73 175.295C233.761 174.723 233.792 174.132 233.88 173.533C233.959 172.897 233.999 172.257 234.001 171.616C234.014 171.066 234.027 170.498 234.083 169.919C234.168 169.257 234.321 168.606 234.542 167.976C234.733 167.451 234.86 166.905 234.919 166.35C234.911 165.802 234.835 165.258 234.691 164.73C234.521 164.071 234.425 163.395 234.404 162.715C234.428 162.016 234.542 161.322 234.742 160.652C234.901 160.141 234.989 159.612 235.003 159.077C234.952 158.48 234.849 157.889 234.694 157.31C234.54 156.71 234.426 156.1 234.354 155.485C234.316 155.094 234.283 154.702 234.25 154.311C234.179 153.468 234.112 152.672 233.996 151.881C233.908 151.285 233.875 150.696 233.843 150.126C233.823 149.499 233.76 148.874 233.655 148.256C233.517 147.698 233.319 147.158 233.065 146.642C232.785 146.058 232.558 145.45 232.385 144.826C232.242 144.255 232.148 143.686 232.056 143.136C231.967 142.506 231.837 141.883 231.667 141.271C231.472 140.693 231.231 140.132 230.947 139.593C230.671 139.057 230.426 138.506 230.214 137.942C229.989 137.313 229.702 136.706 229.399 136.063C229.183 135.605 228.96 135.131 228.757 134.641C228.524 134.038 228.344 133.417 228.217 132.783C228.112 132.222 227.948 131.673 227.728 131.146L227.547 130.763C227.096 129.809 226.629 128.822 226.131 127.892C225.755 127.189 225.337 126.515 224.895 125.802C224.684 125.463 224.474 125.123 224.269 124.782C223.984 124.307 223.729 123.821 223.483 123.352C223.184 122.755 222.853 122.175 222.493 121.614C222.156 121.164 221.768 120.755 221.336 120.395C220.834 119.966 220.376 119.487 219.967 118.968C219.575 118.402 219.253 117.792 219.007 117.149C218.82 116.639 218.565 116.157 218.249 115.715C217.838 115.241 217.394 114.796 216.921 114.383C216.5 113.998 216.065 113.599 215.661 113.153C215.266 112.717 214.913 112.258 214.571 111.814C214.194 111.3 213.784 110.81 213.344 110.348C212.88 109.884 212.36 109.459 211.81 109.009C211.407 108.68 210.99 108.339 210.589 107.975C210.145 107.573 209.746 107.14 209.361 106.721C208.945 106.247 208.497 105.802 208.021 105.389C207.202 104.716 206.316 104.059 205.459 103.424L205.129 103.179C204.629 102.832 204.102 102.526 203.553 102.262C203.007 101.994 202.478 101.694 201.967 101.364C201.475 101.035 201.021 100.672 200.582 100.321C200.095 99.9127 199.582 99.537 199.046 99.1963C198.545 98.929 198.016 98.7177 197.469 98.5663C196.84 98.3841 196.229 98.1445 195.644 97.8505C195.106 97.5486 194.588 97.2118 194.094 96.8422C193.619 96.4792 193.114 96.1583 192.583 95.8832C192.039 95.6496 191.474 95.4651 190.897 95.3319C190.292 95.1853 189.698 94.998 189.118 94.7711C188.58 94.5478 188.071 94.288 187.578 94.0367C187.015 93.7332 186.433 93.4657 185.835 93.2359C185.293 93.0417 184.773 92.8107 184.27 92.5874C183.684 92.3118 183.082 92.0723 182.467 91.8702C181.892 91.7192 181.305 91.6193 180.713 91.5716C180.093 91.5148 179.478 91.4168 178.871 91.278C178.451 91.173 178.032 91.0595 177.613 90.946C176.84 90.7366 176.111 90.5389 175.363 90.3913C174.24 90.1688 173.031 89.9382 171.8 89.7571C171.179 89.6825 170.555 89.65 169.93 89.66C169.364 89.6555 168.778 89.6509 168.18 89.5925C167.49 89.5255 166.795 89.5157 166.058 89.5057C165.566 89.499 165.072 89.4919 164.575 89.4679C163.885 89.41 163.205 89.2643 162.551 89.0342C162.044 88.8479 161.513 88.7336 160.975 88.6944C160.434 88.7327 159.901 88.8453 159.39 89.0292C158.738 89.2543 158.061 89.3972 157.374 89.4544C156.709 89.4676 156.045 89.4156 155.391 89.2994C154.946 89.2226 154.495 89.1772 154.044 89.1635V89.1635Z" fill="#5E5F6C"/>
<path d="M138.911 153.501L159.218 170.833C159.642 171.195 159.987 171.641 160.229 172.144C160.472 172.647 160.607 173.194 160.627 173.752C160.646 174.31 160.55 174.865 160.343 175.384C160.136 175.902 159.824 176.371 159.425 176.763C159.027 177.154 158.552 177.458 158.03 177.655C157.508 177.853 156.951 177.939 156.394 177.91C155.837 177.881 155.292 177.735 154.793 177.484C154.295 177.233 153.855 176.88 153.5 176.449L136.533 155.838C136.272 155.514 136.141 155.105 136.165 154.689C136.189 154.274 136.367 153.883 136.663 153.592C136.96 153.3 137.354 153.129 137.77 153.113C138.185 153.096 138.592 153.234 138.912 153.501H138.911Z" fill="#5E5F6C"/>
<path d="M189.541 137.691L160.324 176.806C156.98 180.939 150.876 176.404 153.894 172.004C154.224 171.527 186.854 136.175 187.199 135.748C187.465 135.466 187.828 135.295 188.215 135.271C188.602 135.248 188.984 135.372 189.282 135.62C189.581 135.867 189.774 136.219 189.822 136.604C189.87 136.989 189.769 137.378 189.541 137.691V137.691Z" fill="#5E5F6C"/>
<path d="M201.854 121.514C200.353 123.707 198.558 125.684 196.518 127.389C195.846 127.974 195.131 128.508 194.38 128.987C194.315 129.028 194.239 129.045 194.163 129.036C194.087 129.027 194.016 128.993 193.962 128.939C193.908 128.885 193.874 128.815 193.865 128.739C193.857 128.663 193.874 128.586 193.914 128.522C194.895 127.043 196.033 125.675 197.308 124.442C198.548 123.174 199.915 122.036 201.388 121.048C201.453 121.009 201.529 120.993 201.604 121.002C201.679 121.011 201.749 121.045 201.803 121.099C201.856 121.152 201.89 121.222 201.899 121.297C201.909 121.373 201.893 121.449 201.854 121.513V121.514Z" fill="#FFBF9E"/>
<path d="M128.035 195.332C126.535 197.526 124.74 199.503 122.7 201.208C122.028 201.793 121.313 202.327 120.562 202.806C120.497 202.846 120.42 202.864 120.344 202.855C120.269 202.846 120.198 202.812 120.144 202.758C120.09 202.704 120.056 202.634 120.047 202.558C120.038 202.482 120.056 202.405 120.096 202.34C121.077 200.862 122.215 199.494 123.49 198.261C124.73 196.992 126.097 195.855 127.57 194.867C127.635 194.828 127.711 194.812 127.786 194.821C127.861 194.83 127.931 194.864 127.984 194.918C128.038 194.971 128.072 195.041 128.081 195.116C128.09 195.191 128.074 195.267 128.035 195.332V195.332Z" fill="#FFBF9E"/>
<path d="M201.388 202.806C199.194 201.306 197.217 199.511 195.513 197.471C194.928 196.799 194.393 196.084 193.914 195.333C193.874 195.268 193.857 195.191 193.865 195.115C193.874 195.04 193.908 194.969 193.962 194.915C194.016 194.861 194.087 194.827 194.163 194.818C194.239 194.809 194.315 194.827 194.38 194.867C195.858 195.848 197.226 196.986 198.46 198.261C199.728 199.501 200.865 200.868 201.854 202.341C201.893 202.406 201.909 202.482 201.9 202.557C201.89 202.632 201.856 202.702 201.803 202.755C201.749 202.809 201.679 202.843 201.604 202.852C201.529 202.862 201.453 202.845 201.388 202.806H201.388Z" fill="#FFBF9E"/>
<path d="M127.57 128.987C125.376 127.487 123.399 125.692 121.694 123.652C121.109 122.98 120.575 122.265 120.096 121.514C120.056 121.449 120.038 121.372 120.047 121.297C120.056 121.221 120.09 121.15 120.144 121.096C120.198 121.042 120.269 121.008 120.344 120.999C120.42 120.991 120.497 121.008 120.562 121.048C122.04 122.029 123.408 123.167 124.642 124.442C125.91 125.682 127.047 127.049 128.035 128.522C128.074 128.587 128.09 128.663 128.081 128.738C128.072 128.813 128.038 128.883 127.984 128.936C127.931 128.99 127.861 129.024 127.786 129.033C127.711 129.042 127.635 129.026 127.57 128.987H127.57Z" fill="#FFBF9E"/>
<path d="M218.458 162.256C215.845 162.747 213.178 162.875 210.531 162.638C209.642 162.576 208.759 162.449 207.888 162.256C207.814 162.239 207.748 162.197 207.7 162.137C207.653 162.077 207.627 162.003 207.627 161.927C207.627 161.851 207.653 161.777 207.7 161.717C207.748 161.657 207.814 161.615 207.888 161.598C209.627 161.246 211.399 161.084 213.173 161.113C214.947 161.093 216.717 161.256 218.458 161.598C218.531 161.616 218.596 161.659 218.643 161.718C218.689 161.778 218.715 161.851 218.715 161.927C218.715 162.003 218.689 162.076 218.643 162.136C218.596 162.195 218.531 162.238 218.458 162.256Z" fill="#FFBF9E"/>
<path d="M114.062 162.256C111.449 162.747 108.782 162.875 106.134 162.638C105.245 162.576 104.362 162.449 103.492 162.256C103.418 162.239 103.351 162.197 103.304 162.137C103.256 162.077 103.23 162.003 103.23 161.927C103.23 161.851 103.256 161.777 103.304 161.717C103.351 161.657 103.418 161.615 103.492 161.598C105.231 161.246 107.003 161.084 108.777 161.113C110.55 161.093 112.321 161.256 114.062 161.598C114.135 161.616 114.2 161.659 114.247 161.718C114.293 161.778 114.319 161.851 114.319 161.927C114.319 162.003 114.293 162.076 114.247 162.136C114.2 162.195 114.135 162.238 114.062 162.256Z" fill="#FFBF9E"/>
<path d="M161.303 104.445C161.793 107.057 161.922 109.724 161.685 112.372C161.623 113.261 161.496 114.144 161.303 115.014C161.286 115.088 161.244 115.155 161.184 115.202C161.124 115.25 161.05 115.276 160.974 115.276C160.898 115.276 160.823 115.25 160.764 115.202C160.704 115.155 160.662 115.088 160.645 115.014C160.293 113.275 160.13 111.503 160.16 109.729C160.14 107.956 160.302 106.185 160.645 104.445C160.663 104.371 160.705 104.306 160.765 104.259C160.825 104.213 160.898 104.188 160.974 104.188C161.05 104.188 161.123 104.213 161.183 104.259C161.242 104.306 161.285 104.371 161.303 104.445V104.445Z" fill="#FFBF9E"/>
<path d="M161.303 208.841C161.793 211.453 161.922 214.12 161.685 216.768C161.623 217.657 161.496 218.54 161.303 219.41C161.286 219.484 161.244 219.551 161.184 219.598C161.124 219.646 161.05 219.672 160.974 219.672C160.898 219.672 160.823 219.646 160.764 219.598C160.704 219.551 160.662 219.484 160.645 219.41C160.293 217.671 160.13 215.899 160.16 214.125C160.14 212.352 160.302 210.581 160.645 208.841C160.663 208.767 160.705 208.702 160.765 208.655C160.825 208.609 160.898 208.583 160.974 208.583C161.05 208.583 161.123 208.609 161.183 208.655C161.242 208.702 161.285 208.767 161.303 208.841V208.841Z" fill="#FFBF9E"/>
<path d="M160.975 227.376C159.48 227.376 157.928 227.321 156.362 227.21C155.77 227.168 155.169 227.17 154.533 227.173C153.596 227.199 152.657 227.156 151.726 227.045C150.266 226.837 148.73 226.56 147.161 226.22C146.238 225.999 145.332 225.711 144.451 225.358C143.865 225.139 143.311 224.933 142.754 224.769C141.852 224.484 140.972 224.134 140.121 223.723C139.557 223.467 139.024 223.225 138.481 223.022C137.877 222.824 137.255 222.682 136.624 222.598C135.704 222.484 134.804 222.248 133.947 221.896C133.118 221.485 132.333 220.991 131.604 220.421C131.105 220.038 130.582 219.687 130.037 219.372C128.767 218.676 127.554 217.895 126.382 217.139L126.111 216.964C125.152 216.347 124.26 215.66 123.396 214.996C123.067 214.743 122.738 214.489 122.404 214.239C121.984 213.924 121.555 213.623 121.127 213.322C120.29 212.754 119.483 212.143 118.708 211.493C117.53 210.471 116.395 209.415 115.334 208.355C114.877 207.92 114.392 207.515 113.882 207.142C113.132 206.604 112.439 205.992 111.813 205.313C111.231 204.598 110.726 203.823 110.306 203.003C110.013 202.442 109.682 201.902 109.316 201.385C108.675 200.531 108.124 199.632 107.591 198.762C107.336 198.347 107.082 197.931 106.817 197.519C106.614 197.204 106.409 196.892 106.203 196.58C105.583 195.635 104.941 194.658 104.374 193.621C103.591 192.191 102.914 190.846 102.303 189.509C101.841 188.5 101.472 187.463 101.116 186.46C100.967 186.044 100.819 185.627 100.664 185.21C100.457 184.657 100.198 184.114 99.9237 183.539C99.5004 182.707 99.1449 181.842 98.8608 180.954C98.6983 180.399 98.4949 179.848 98.2797 179.264C97.9297 178.377 97.6427 177.467 97.4208 176.54C97.2534 175.636 97.177 174.717 97.1929 173.798C97.1973 173.164 97.1622 172.53 97.0879 171.901C97.0046 171.316 96.8589 170.722 96.7049 170.094C96.4577 169.195 96.2885 168.276 96.1991 167.347C96.1178 166.196 96.1295 165.03 96.1408 163.903C96.1447 163.507 96.1487 163.111 96.1487 162.715C96.1487 162.376 96.1466 162.037 96.1444 161.699C96.1369 160.515 96.1295 159.29 96.2142 158.084C96.3037 157.156 96.473 156.237 96.7203 155.338C96.8745 154.71 97.0201 154.117 97.1034 153.532C97.2884 152.235 97.5663 150.97 97.8351 149.748L97.9955 149.015C98.1117 148.389 98.1815 147.756 98.2046 147.12C98.2291 146.201 98.3572 145.287 98.5865 144.396C98.8733 143.494 99.2264 142.614 99.6427 141.764C99.906 141.192 100.155 140.652 100.359 140.106C100.718 139.195 101.13 138.306 101.594 137.444C101.86 136.927 102.111 136.438 102.34 135.937C102.585 135.401 102.791 134.842 103.01 134.25C103.314 133.363 103.683 132.499 104.115 131.667C104.642 130.702 105.25 129.795 105.837 128.917C106.093 128.535 106.348 128.154 106.597 127.768L106.68 127.639C107.469 126.413 108.285 125.146 109.185 123.945C109.538 123.474 109.86 122.97 110.202 122.437C110.69 121.632 111.237 120.863 111.838 120.138C112.924 118.886 113.985 117.74 114.993 116.733C115.664 116.099 116.396 115.534 117.179 115.044C117.709 114.705 118.219 114.333 118.705 113.932C119.991 112.816 121.089 111.892 122.268 111.008C122.726 110.665 123.165 110.294 123.63 109.902C124.35 109.268 125.11 108.682 125.906 108.147C126.755 107.621 127.631 107.141 128.532 106.71C129.037 106.457 129.514 106.218 129.985 105.961C130.94 105.438 131.932 105.006 132.891 104.589C133.318 104.403 133.746 104.217 134.171 104.023C134.733 103.75 135.279 103.445 135.805 103.11C136.582 102.604 137.405 102.174 138.264 101.826C139.221 101.487 140.195 101.198 141.181 100.96C141.696 100.827 142.211 100.693 142.72 100.544C144.042 100.157 145.608 99.7137 147.195 99.3702C147.522 99.2991 147.851 99.2265 148.179 99.1526C149.332 98.8951 150.523 98.6291 151.736 98.4561C152.772 98.3084 153.818 98.2613 154.83 98.2159C155.339 98.193 155.848 98.1703 156.356 98.1345C156.858 98.0991 157.362 98.0501 157.867 98.0009C158.874 97.903 159.915 97.8018 160.974 97.8018C161.9 97.8315 162.819 97.965 163.714 98.1999C164.322 98.3534 164.941 98.4619 165.566 98.5247C166.204 98.5495 166.843 98.5231 167.476 98.4459C168.386 98.327 169.307 98.3164 170.219 98.4142C171.133 98.5782 172.024 98.8565 172.868 99.2426C173.443 99.499 174.038 99.706 174.648 99.8612C175.207 99.9823 175.769 100.073 176.364 100.168C177.311 100.3 178.249 100.492 179.172 100.743L179.221 100.758C180.652 101.177 182.131 101.611 183.566 102.147C184.111 102.35 184.672 102.519 185.266 102.698C186.181 102.953 187.079 103.27 187.952 103.647C188.965 104.11 189.932 104.659 190.866 105.19C191.254 105.41 191.641 105.63 192.03 105.843C192.828 106.308 193.582 106.847 194.281 107.45C194.756 107.852 195.252 108.228 195.768 108.576L196.28 108.904C197.373 109.606 198.504 110.331 199.584 111.14C200.057 111.495 200.564 111.816 201.1 112.155C201.902 112.635 202.666 113.175 203.386 113.771C204.07 114.395 204.699 115.076 205.266 115.807C205.677 116.308 206.065 116.781 206.488 117.203C207.595 118.31 208.626 119.485 209.587 120.594C209.948 121.01 210.324 121.407 210.722 121.827C211.407 122.524 212.052 123.26 212.652 124.032C213.278 124.866 213.81 125.747 214.325 126.598C214.59 127.037 214.856 127.477 215.135 127.91C215.485 128.428 215.866 128.924 216.275 129.397C216.885 130.09 217.427 130.839 217.893 131.636C218.496 132.739 219.016 133.89 219.519 135.003L219.886 135.812C220.04 136.148 220.197 136.483 220.354 136.819C220.84 137.857 221.343 138.931 221.758 140.044C222.074 140.947 222.331 141.87 222.528 142.807C222.666 143.402 222.796 143.964 222.958 144.516C223.147 145.111 223.371 145.694 223.628 146.263C224.019 147.105 224.328 147.984 224.55 148.886C224.72 149.793 224.807 150.713 224.809 151.636C224.817 152.266 224.859 152.894 224.936 153.519C225.016 154.084 225.132 154.649 225.255 155.248C225.467 156.183 225.618 157.131 225.705 158.086C225.743 159.002 225.695 159.918 225.562 160.824C225.476 161.451 225.426 162.083 225.412 162.715C225.412 164.019 225.318 165.299 225.227 166.536L225.123 167.995C225.037 169.267 224.947 170.583 224.761 171.886C224.679 172.464 224.633 173.046 224.584 173.662C224.53 174.607 224.412 175.547 224.231 176.476C224.137 176.914 224.049 177.354 223.961 177.793C223.75 178.845 223.533 179.931 223.222 180.993C223.095 181.426 222.975 181.863 222.855 182.299C222.57 183.333 222.275 184.402 221.889 185.436C221.541 186.296 221.113 187.123 220.612 187.904C220.28 188.432 219.979 188.977 219.707 189.539C219.466 190.067 219.257 190.613 219.036 191.191C218.716 192.085 218.336 192.956 217.897 193.799C217.162 195.144 216.34 196.436 215.492 197.753C214.971 198.519 214.384 199.239 213.739 199.905C213.301 200.382 212.888 200.833 212.53 201.31C212.165 201.824 211.833 202.36 211.536 202.916C211.11 203.732 210.603 204.502 210.021 205.215C209.396 205.891 208.697 206.495 207.939 207.017C207.422 207.381 206.932 207.781 206.472 208.214C206.039 208.674 205.639 209.165 205.277 209.683C204.757 210.443 204.153 211.142 203.477 211.767C202.455 212.653 201.305 213.572 199.857 214.657C199.045 215.245 198.202 215.789 197.331 216.287C196.849 216.574 196.395 216.845 195.946 217.133C194.65 217.968 193.314 218.763 191.978 219.494C190.407 220.354 189.098 221.018 187.859 221.585C187.332 221.826 186.814 222.107 186.267 222.404C185.441 222.877 184.583 223.291 183.699 223.643C182.771 223.97 181.825 224.242 180.866 224.46C180.298 224.6 179.761 224.732 179.23 224.888C178.324 225.132 177.402 225.309 176.47 225.419C175.846 225.507 175.257 225.59 174.679 225.715C173.087 226.06 171.493 226.303 170.145 226.495C169.604 226.572 169.067 226.673 168.5 226.78C167.538 226.979 166.565 227.123 165.587 227.209C164.011 227.32 162.459 227.376 160.975 227.376ZM154.973 224.853C155.482 224.853 156.002 224.86 156.525 224.897C158.037 225.004 159.534 225.058 160.975 225.058C162.405 225.058 163.902 225.003 165.424 224.896C166.313 224.815 167.197 224.684 168.071 224.501C168.639 224.394 169.226 224.284 169.818 224.199C171.126 224.013 172.668 223.778 174.189 223.449C174.848 223.306 175.508 223.213 176.145 223.122C176.966 223.027 177.779 222.874 178.578 222.663C179.157 222.493 179.744 222.349 180.311 222.209C181.183 222.012 182.044 221.765 182.889 221.47C183.671 221.155 184.43 220.786 185.161 220.366C185.719 220.063 186.296 219.75 186.895 219.476C188.082 218.933 189.343 218.293 190.865 217.46C192.153 216.755 193.441 215.989 194.691 215.184C195.173 214.873 195.668 214.579 196.145 214.295C196.945 213.839 197.719 213.34 198.466 212.802C199.869 211.751 200.978 210.865 201.958 210.015C202.503 209.499 202.99 208.925 203.412 208.305C203.842 207.694 204.317 207.115 204.833 206.575C205.372 206.06 205.949 205.585 206.558 205.155C207.178 204.731 207.752 204.242 208.269 203.696C208.747 203.099 209.165 202.456 209.516 201.777C209.862 201.133 210.249 200.513 210.675 199.919C211.102 199.351 211.574 198.836 212.03 198.338C212.585 197.768 213.091 197.152 213.543 196.498C214.367 195.218 215.164 193.964 215.864 192.686C216.251 191.935 216.587 191.159 216.87 190.363C217.095 189.776 217.327 189.17 217.599 188.574C217.906 187.934 218.248 187.312 218.624 186.71C219.05 186.05 219.416 185.352 219.717 184.625C220.067 183.687 220.335 182.714 220.619 181.683C220.743 181.234 220.867 180.786 220.997 180.341C221.28 179.377 221.477 178.387 221.687 177.339C221.777 176.887 221.868 176.436 221.965 175.986C222.123 175.158 222.226 174.321 222.273 173.479C222.322 172.855 222.373 172.209 222.466 171.56C222.64 170.341 222.722 169.125 222.81 167.838L222.915 166.366C223.007 165.115 223.094 163.934 223.094 162.716C223.107 161.993 223.162 161.273 223.259 160.557C223.373 159.794 223.418 159.021 223.392 158.25C223.311 157.397 223.175 156.55 222.983 155.714C222.859 155.108 222.73 154.482 222.64 153.847C222.551 153.138 222.502 152.425 222.492 151.71C222.492 150.928 222.423 150.147 222.284 149.377C222.091 148.62 221.827 147.882 221.495 147.174C221.202 146.521 220.947 145.852 220.733 145.169C220.552 144.552 220.408 143.931 220.269 143.331C220.094 142.492 219.866 141.665 219.586 140.856C219.203 139.83 218.72 138.799 218.254 137.803C218.094 137.46 217.934 137.119 217.778 136.777L217.406 135.958C216.921 134.885 216.419 133.775 215.859 132.75C215.461 132.084 215.003 131.457 214.489 130.877C214.02 130.333 213.585 129.762 213.185 129.166C212.895 128.714 212.617 128.256 212.341 127.799C211.833 126.959 211.353 126.166 210.796 125.423C210.249 124.723 209.662 124.055 209.039 123.422C208.641 123.002 208.23 122.568 207.835 122.114C206.863 120.992 205.902 119.897 204.848 118.843C204.345 118.341 203.902 117.801 203.474 117.279C202.988 116.65 202.45 116.063 201.867 115.523C201.234 115.004 200.564 114.534 199.861 114.115C199.31 113.767 198.74 113.406 198.193 112.996C197.181 112.237 196.135 111.567 195.028 110.856L194.513 110.526C193.925 110.132 193.359 109.706 192.818 109.25C192.226 108.736 191.59 108.277 190.917 107.878C190.517 107.659 190.12 107.433 189.721 107.207C188.83 106.701 187.909 106.177 186.987 105.756C186.21 105.423 185.411 105.144 184.596 104.919C183.993 104.737 183.37 104.549 182.756 104.32C181.399 103.813 180.024 103.41 178.568 102.984L178.519 102.969C177.69 102.746 176.847 102.575 175.996 102.458C175.397 102.362 174.778 102.263 174.157 102.128C173.414 101.946 172.689 101.699 171.99 101.389C171.32 101.08 170.616 100.852 169.892 100.711C169.158 100.643 168.42 100.658 167.689 100.756C166.931 100.846 166.166 100.873 165.403 100.839C164.662 100.769 163.928 100.644 163.206 100.463C162.477 100.269 161.729 100.155 160.974 100.121C160.028 100.121 159.087 100.213 158.091 100.31C157.565 100.361 157.041 100.412 156.519 100.448C155.992 100.486 155.463 100.51 154.934 100.533C153.933 100.578 152.988 100.621 152.063 100.753C150.94 100.913 149.794 101.169 148.685 101.416C148.351 101.491 148.018 101.565 147.685 101.637C146.171 101.965 144.655 102.394 143.372 102.771C142.84 102.926 142.301 103.066 141.763 103.206C140.854 103.424 139.956 103.689 139.075 103.999C138.354 104.299 137.663 104.664 137.011 105.092C136.407 105.475 135.781 105.823 135.136 106.132C134.698 106.332 134.257 106.524 133.816 106.716C132.862 107.131 131.961 107.523 131.098 107.996C130.59 108.274 130.071 108.533 129.57 108.784C128.744 109.178 127.94 109.616 127.161 110.097C126.45 110.579 125.77 111.106 125.126 111.675C124.656 112.071 124.17 112.481 123.659 112.864C122.536 113.707 121.474 114.601 120.224 115.684C119.667 116.149 119.081 116.579 118.471 116.971C117.815 117.379 117.2 117.848 116.633 118.373C115.664 119.342 114.64 120.447 113.591 121.658C113.064 122.299 112.585 122.977 112.155 123.687C111.806 124.233 111.445 124.797 111.041 125.337C110.19 126.471 109.397 127.704 108.63 128.895L108.547 129.024C108.291 129.421 108.028 129.815 107.765 130.208C107.18 131.082 106.628 131.907 106.15 132.78C105.774 133.514 105.451 134.274 105.186 135.055C104.962 135.66 104.731 136.287 104.449 136.902C104.198 137.451 103.923 137.987 103.657 138.504C103.235 139.286 102.859 140.092 102.532 140.918C102.298 141.545 102.019 142.15 101.749 142.735C101.382 143.483 101.068 144.257 100.812 145.05C100.635 145.776 100.537 146.519 100.519 147.267C100.49 148.019 100.404 148.767 100.262 149.506L100.1 150.246C99.8287 151.482 99.5723 152.649 99.3996 153.86C99.3 154.559 99.1335 155.237 98.9725 155.892C98.7584 156.664 98.6097 157.452 98.5279 158.248C98.4492 159.366 98.4562 160.492 98.4639 161.685C98.466 162.029 98.4682 162.372 98.4682 162.716C98.4682 163.12 98.4639 163.524 98.4601 163.927C98.4488 165.059 98.438 166.127 98.5128 167.185C98.5947 167.982 98.7434 168.771 98.9574 169.543C99.1182 170.198 99.2844 170.876 99.384 171.575C99.4731 172.301 99.5158 173.032 99.5117 173.764C99.4964 174.53 99.5553 175.296 99.6876 176.05C99.8875 176.871 100.144 177.677 100.456 178.463C100.675 179.057 100.902 179.672 101.087 180.302C101.337 181.072 101.648 181.821 102.017 182.541C102.301 183.136 102.595 183.752 102.837 184.4C102.996 184.828 103.149 185.257 103.301 185.684C103.656 186.684 103.992 187.628 104.412 188.546C105 189.831 105.653 191.128 106.409 192.509C106.931 193.464 107.52 194.359 108.142 195.307C108.351 195.626 108.559 195.945 108.767 196.265C109.041 196.691 109.305 197.121 109.569 197.551C110.097 198.414 110.596 199.228 111.172 199.995C111.602 200.596 111.991 201.225 112.335 201.879C112.679 202.557 113.092 203.199 113.566 203.795C114.091 204.353 114.67 204.859 115.295 205.304C115.885 205.737 116.446 206.209 116.974 206.716C118.01 207.752 119.075 208.742 120.228 209.742C120.943 210.341 121.689 210.903 122.461 211.426C122.909 211.74 123.357 212.055 123.796 212.385C124.137 212.641 124.474 212.9 124.811 213.159C125.674 213.824 126.49 214.451 127.367 215.016L127.639 215.191C128.829 215.958 129.954 216.683 131.151 217.338C131.784 217.702 132.393 218.106 132.973 218.55C133.577 219.025 134.227 219.44 134.912 219.788C135.586 220.05 136.289 220.226 137.007 220.312C137.784 220.417 138.549 220.597 139.292 220.85C139.911 221.081 140.506 221.352 141.081 221.613C141.833 221.978 142.611 222.289 143.407 222.545C144.044 222.732 144.663 222.963 145.262 223.186C146.04 223.499 146.838 223.755 147.652 223.954C149.167 224.282 150.648 224.55 152.054 224.75C152.874 224.844 153.699 224.879 154.524 224.855C154.672 224.854 154.822 224.853 154.973 224.853Z" fill="#5E5F6C"/>
</svg>
