<svg width="320" height="320" viewBox="0 0 320 320" fill="none" xmlns="http://www.w3.org/2000/svg">
<path d="M260.552 160C260.552 159.61 259.386 159.223 259.382 158.834C259.377 158.445 259.632 158.052 259.623 157.663C259.615 157.273 260.339 156.858 260.325 156.47C260.312 156.08 259.315 155.727 259.297 155.339C259.279 154.95 258.891 154.584 258.869 154.196C258.846 153.807 258.171 153.47 258.144 153.083C258.117 152.694 260.548 152.12 260.516 151.733C260.485 151.345 259.187 151.059 259.151 150.672C259.115 150.284 257.985 150.011 257.944 149.625C257.904 149.237 257.785 148.872 257.74 148.486C257.695 148.099 258.56 147.609 258.51 147.224C258.461 146.838 257.596 146.569 257.542 146.184C257.487 145.798 258.48 145.266 258.421 144.882C258.363 144.497 258.713 144.045 258.65 143.661C258.586 143.277 259.349 142.743 259.281 142.36C259.213 141.976 257.326 141.921 257.253 141.539C257.181 141.157 257.178 140.768 257.101 140.386C257.025 140.005 256.209 139.787 256.128 139.407C256.047 139.026 257.026 138.421 256.941 138.042C256.855 137.662 256.602 137.325 256.512 136.946C256.422 136.568 256.405 136.175 256.311 135.798C256.216 135.42 257.471 134.691 257.372 134.315C257.273 133.939 254.957 134.16 254.854 133.785C254.75 133.41 255.2 132.889 255.092 132.516C254.984 132.142 255.277 131.654 255.165 131.282C255.052 130.91 254.361 130.721 254.245 130.35C254.128 129.979 254.194 129.558 254.072 129.188C253.951 128.818 253.607 128.532 253.482 128.163C253.356 127.795 253.035 127.506 252.906 127.139C252.776 126.773 252.796 126.364 252.662 125.999C252.528 125.634 253.893 124.709 253.754 124.345C253.616 123.982 252.007 124.188 251.865 123.826C251.722 123.464 253.158 122.469 253.011 122.109C252.864 121.749 251.231 122.004 251.08 121.646C250.929 121.287 251.99 120.41 251.835 120.053C251.68 119.697 251.726 119.242 251.566 118.887C251.407 118.532 249.676 118.895 249.513 118.543C249.349 118.19 250.742 117.104 250.574 116.753C250.407 116.402 250.653 115.836 250.481 115.487C250.309 115.138 248.648 115.529 248.472 115.182C248.295 114.835 248.136 114.484 247.955 114.14C247.775 113.795 247.939 113.27 247.755 112.927C247.571 112.584 246.335 112.823 246.147 112.482C245.959 112.142 247.129 111.045 246.937 110.707C246.745 110.369 247.048 109.736 246.852 109.4C246.655 109.064 246.202 108.869 246.002 108.536C245.802 108.202 244.387 108.607 244.183 108.275C243.979 107.944 244.05 107.45 243.842 107.121C243.634 106.792 244.308 105.898 244.096 105.571C243.884 105.245 243.94 104.732 243.725 104.408C243.509 104.084 243.475 103.623 243.255 103.302C243.036 102.98 241.613 103.484 241.39 103.165C241.167 102.847 241.736 101.964 241.509 101.648C241.283 101.332 241.424 100.735 241.194 100.422C240.963 100.108 238.979 101.099 238.745 100.788C238.511 100.477 239.48 99.2536 239.242 98.9456C239.004 98.6376 239.05 98.0981 238.809 97.7929C238.568 97.4877 237.061 98.1943 236.816 97.892C236.571 97.5896 236.824 96.8869 236.575 96.5873C236.327 96.2878 236.349 95.7613 236.097 95.4647C235.845 95.1681 235.701 94.7748 235.445 94.4812C235.19 94.1875 234.437 94.3312 234.178 94.0406C233.919 93.7499 234.353 92.8337 234.091 92.5461C233.829 92.2585 232.575 92.8857 232.309 92.6011C232.044 92.3166 232.705 91.1596 232.436 90.8782C232.167 90.5968 232.011 90.1967 231.739 89.9182C231.467 89.6397 230.739 89.8051 230.464 89.5299C230.189 89.2547 229.92 88.9721 229.642 88.7003C229.363 88.4284 229.345 87.8823 229.063 87.6137C228.782 87.345 228.251 87.336 227.966 87.0707C227.682 86.8054 227.808 86.0861 227.521 85.8241C227.233 85.562 226.682 85.5836 226.391 85.3249C226.1 85.0661 225.984 84.6003 225.691 84.3451C225.397 84.0899 225.163 83.7526 224.867 83.5009C224.57 83.2491 224.315 82.9331 224.016 82.6848C223.716 82.4365 223.092 82.5742 222.79 82.3294C222.487 82.0845 221.839 82.2713 221.534 82.03C221.229 81.7887 220.472 82.1374 220.164 81.8997C219.856 81.662 220.068 80.7524 219.757 80.5182C219.447 80.2841 219.124 80.0688 218.81 79.8383C218.497 79.6079 218.03 79.5947 217.714 79.368C217.398 79.1412 216.945 79.1179 216.626 78.8949C216.307 78.6718 216.99 76.9951 216.668 76.7758C216.347 76.5565 215.977 76.3863 215.653 76.1708C215.329 75.9552 214.314 76.7829 213.988 76.5712C213.661 76.3594 212.946 76.7681 212.617 76.5602C212.288 76.3523 212.397 75.4538 212.066 75.2498C211.735 75.0458 211.273 75.0627 210.939 74.8626C210.605 74.6625 210.852 73.4764 210.516 73.2802C210.18 73.084 209.324 73.7856 208.985 73.5934C208.647 73.4012 208.974 72.0114 208.634 71.8232C208.293 71.6349 207.099 73.0085 206.756 72.8242C206.413 72.6399 205.976 72.653 205.631 72.4727C205.286 72.2925 205.362 71.3074 205.015 71.1312C204.668 70.955 204.645 70.1217 204.296 69.9497C203.947 69.7776 202.736 71.3864 202.385 71.2184C202.034 71.0505 202.632 68.8707 202.279 68.7069C201.926 68.5431 201 69.6251 200.645 69.4655C200.29 69.3059 200.055 68.8814 199.698 68.726C199.342 68.5706 199.183 67.9476 198.824 67.7964C198.466 67.6452 197.851 68.1092 197.49 67.9623C197.13 67.8153 197.229 66.5113 196.866 66.3686C196.504 66.2258 195.654 67.3332 195.29 67.1948C194.926 67.0563 194.357 67.4892 193.992 67.3549C193.626 67.2206 193.451 66.5842 193.084 66.4544C192.717 66.3246 192.237 66.5409 191.868 66.4155C191.5 66.29 191.713 64.4187 191.343 64.2975C190.973 64.1763 190.029 65.8382 189.658 65.7214C189.286 65.6047 189.356 64.0598 188.983 63.9474C188.61 63.8351 188.367 63.2448 187.993 63.1368C187.619 63.0287 186.955 63.9215 186.579 63.818C186.204 63.7146 186.041 62.7983 185.664 62.6994C185.288 62.6005 184.506 64.0727 184.128 63.9782C183.751 63.8836 183.486 63.3473 183.107 63.2571C182.729 63.1669 182.272 63.4345 181.892 63.3489C181.512 63.2632 181.508 61.4476 181.127 61.3664C180.747 61.2854 180.332 61.299 179.95 61.2223C179.568 61.1456 178.747 63.3266 178.364 63.2544C177.982 63.1823 177.845 61.7949 177.462 61.7272C177.079 61.6597 176.804 60.9159 176.42 60.8526C176.036 60.7896 175.432 62.1005 175.047 62.0419C174.663 61.9833 174.455 60.7031 174.069 60.649C173.684 60.595 173.079 62.1842 172.693 62.1346C172.307 62.0851 172.151 60.1584 171.764 60.1134C171.378 60.0684 170.99 59.9234 170.603 59.883C170.216 59.8425 169.635 61.7478 169.247 61.7117C168.86 61.6757 168.606 60.1173 168.218 60.0857C167.831 60.0543 167.329 61.5476 166.94 61.5206C166.553 61.4936 166.277 59.6805 165.888 59.658C165.501 59.6356 165.047 60.7941 164.657 60.7759C164.269 60.758 163.865 61.2489 163.476 61.2354C163.088 61.222 162.714 60.9129 162.324 60.904C161.936 60.895 161.542 61.6784 161.153 61.6739C160.764 61.6694 160.389 60.9006 159.999 60.9006C159.609 60.9006 159.214 59.8641 158.825 59.8685C158.436 59.873 158.069 61.1544 157.681 61.1634C157.291 61.1723 156.93 61.7595 156.542 61.7729C156.152 61.7864 155.723 60.6102 155.335 60.6281C154.946 60.6461 154.621 61.7471 154.233 61.7696C153.844 61.792 153.357 60.2093 152.97 60.2363C152.581 60.2632 152.146 59.7797 151.759 59.8113C151.371 59.8428 151.092 61.1693 150.705 61.2053C150.317 61.2413 149.927 61.2117 149.54 61.2522C149.153 61.2928 148.715 60.866 148.329 60.9109C147.942 60.956 147.611 61.4504 147.225 61.4997C146.839 61.5493 146.566 62.3857 146.181 62.4397C145.796 62.4938 145.266 61.5226 144.882 61.5811C144.497 61.6398 143.974 60.8582 143.591 60.9213C143.206 60.9844 143.108 62.7228 142.725 62.7904C142.342 62.8581 141.995 63.064 141.613 63.136C141.23 63.2082 140.448 61.2321 140.067 61.3086C139.685 61.3854 139.62 63.0089 139.24 63.09C138.859 63.171 138.64 63.9412 138.26 64.0268C137.881 64.1124 137.114 62.5121 136.736 62.6021C136.357 62.6923 136.412 64.5396 136.035 64.6341C135.657 64.7286 135.09 64.0444 134.714 64.1434C134.338 64.2425 133.905 64.119 133.53 64.2223C133.155 64.3257 132.485 63.3973 132.111 63.5051C131.738 63.6129 131.644 64.6869 131.271 64.799C130.899 64.911 130.239 64.106 129.868 64.2225C129.497 64.3391 129.082 64.3532 128.712 64.4743C128.343 64.5954 128.088 65.0904 127.72 65.2157C127.352 65.3411 126.829 65.0493 126.462 65.1788C126.095 65.3082 125.866 65.8476 125.501 65.9816C125.136 66.1155 125.043 66.9867 124.68 67.125C124.317 67.2633 124.24 68.1243 123.878 68.2669C123.516 68.4095 122.575 67.1015 122.215 67.2483C121.855 67.3952 121.386 67.3018 121.027 67.4531C120.669 67.6045 120.923 69.187 120.566 69.3423C120.21 69.4976 119.528 68.9091 119.173 69.0685C118.818 69.228 118.717 69.9389 118.365 70.1024C118.012 70.2659 117.585 70.2624 117.234 70.4302C116.883 70.598 116.106 69.8923 115.757 70.0642C115.408 70.2362 115.714 71.7163 115.367 71.8924C115.02 72.0685 114.078 71.0857 113.733 71.2658C113.389 71.446 112.735 71.0642 112.392 71.2483C112.049 71.4325 112.482 73.0472 112.142 73.2354C111.801 73.4236 111.676 73.979 111.337 74.1712C110.999 74.3634 110.391 74.0736 110.056 74.2698C109.72 74.4659 108.992 74.001 108.658 74.2012C108.325 74.4015 108.772 75.879 108.44 76.0828C108.109 76.2867 107.2 75.5533 106.871 75.7611C106.542 75.969 105.711 75.4022 105.384 75.6139C105.058 75.8256 105.269 76.8662 104.945 77.0816C104.622 77.2971 104.466 77.7594 104.145 77.9786C103.824 78.1979 102.824 77.4406 102.505 77.6636C102.186 77.8865 101.796 78.0278 101.48 78.2545C101.164 78.4812 101.462 79.5625 101.148 79.7929C100.835 80.0233 100.745 80.5494 100.434 80.7835C100.123 81.0175 99.0654 80.2746 98.7574 80.5122C98.4494 80.7499 98.4545 81.3987 98.1494 81.64C97.8443 81.8812 97.3427 81.8852 97.0404 82.1299C96.738 82.3747 96.2735 82.4346 95.974 82.6829C95.6744 82.9312 96.0715 84.015 95.7749 84.2667C95.4783 84.5185 95.7138 85.3779 95.4202 85.6332C95.1266 85.8884 94.7506 86.0325 94.4599 86.2911C94.1693 86.5497 92.8911 85.7083 92.6035 85.9702C92.3158 86.2322 92.5275 87.0391 92.2429 87.3045C91.9584 87.5698 91.9862 88.1593 91.7048 88.428C91.4234 88.6966 90.7772 88.5816 90.4989 88.8533C90.2206 89.125 90.3356 89.7887 90.0605 90.0638C89.7855 90.339 88.5528 89.6681 88.2809 89.9464C88.009 90.2247 88.6381 91.3741 88.3695 91.6556C88.1009 91.937 86.9253 91.364 86.66 91.6486C86.3946 91.9331 86.1949 92.2882 85.9328 92.5758C85.6706 92.8635 86.5088 94.1392 86.2503 94.43C85.9918 94.7207 85.6464 94.9224 85.3912 95.2161C85.136 95.5098 85.2175 96.0777 84.9657 96.3743C84.7138 96.671 83.962 96.535 83.7136 96.8346C83.4653 97.1341 81.995 96.4366 81.7502 96.7391C81.5054 97.0415 82.6123 98.4278 82.3711 98.7331C82.1298 99.0384 80.6633 98.3884 80.4255 98.6964C80.1876 99.0045 79.7794 99.1968 79.5454 99.5077C79.3113 99.8185 80.3505 101.081 80.12 101.394C79.8896 101.708 78.6812 101.313 78.4545 101.629C78.2277 101.945 78.1765 102.394 77.9534 102.713C77.7304 103.032 78.1241 103.778 77.9046 104.1C77.6851 104.421 77.9817 105.082 77.7661 105.406C77.5506 105.73 76.4819 105.488 76.2701 105.815C76.0583 106.141 76.39 106.813 76.1822 107.142C75.9743 107.471 75.2015 107.445 74.9975 107.776C74.7935 108.108 75.3314 108.886 75.1312 109.22C74.9311 109.554 73.0896 108.92 72.8934 109.256C72.6972 109.592 74.1277 110.868 73.9355 111.207C73.7433 111.545 73.2086 111.685 73.0203 112.026C72.8321 112.366 71.3833 112.026 71.1991 112.368C71.0148 112.711 70.9477 113.13 70.7675 113.475C70.5873 113.82 72.4806 115.231 72.3044 115.578C72.1283 115.925 71.3451 115.956 71.1731 116.305C71.001 116.654 70.8665 117.013 70.6985 117.364C70.5306 117.715 70.5336 118.137 70.37 118.49C70.2064 118.843 69.8269 119.088 69.6672 119.443C69.5076 119.798 69.8858 120.38 69.7303 120.736C69.5749 121.093 67.5117 120.631 67.3606 120.989C67.2095 121.348 68.9531 122.491 68.8061 122.851C68.6591 123.212 67.7111 123.242 67.5684 123.604C67.4257 123.966 67.4355 124.382 67.2971 124.746C67.1586 125.11 65.7308 124.995 65.5967 125.36C65.4626 125.726 65.811 126.273 65.6812 126.64C65.5514 127.007 65.7389 127.487 65.6134 127.856C65.4879 128.224 65.7435 128.718 65.6224 129.088C65.5013 129.458 66.2617 130.101 66.145 130.473C66.0283 130.844 63.6618 130.522 63.5493 130.895C63.4368 131.267 63.6277 131.741 63.5198 132.115C63.4119 132.489 64.9832 133.336 64.8798 133.711C64.7763 134.086 63.9632 134.263 63.8643 134.64C63.7654 135.016 62.265 135.039 62.1704 135.416C62.0759 135.793 62.3025 136.262 62.2124 136.641C62.1223 137.02 61.7695 137.35 61.6838 137.73C61.5981 138.11 63.7608 138.983 63.6796 139.364C63.5985 139.744 62.7568 139.959 62.6801 140.34C62.6034 140.722 61.0601 140.823 60.988 141.205C60.9158 141.587 62.5453 142.285 62.4777 142.668C62.4101 143.051 62.7277 143.491 62.6645 143.876C62.6014 144.259 62.2258 144.585 62.1671 144.97C62.1086 145.354 61.8355 145.701 61.7813 146.087C61.7273 146.472 62.579 146.969 62.5294 147.355C62.4799 147.741 61.8867 148.048 61.8416 148.435C61.7967 148.821 60.0373 149.019 59.9967 149.407C59.9562 149.793 60.1157 150.21 60.0797 150.598C60.0437 150.985 60.4 151.414 60.3684 151.802C60.337 152.19 60.8667 152.621 60.8397 153.01C60.8128 153.397 61.053 153.799 61.0307 154.188C61.0083 154.576 61.8377 154.999 61.8197 155.388C61.8018 155.776 60.9371 156.121 60.9237 156.511C60.9103 156.899 59.5803 157.253 59.5712 157.642C59.5623 158.031 61.2557 158.45 61.2512 158.84C61.2469 159.228 59.334 159.608 59.334 159.998C59.334 160.388 60.8824 160.772 60.8868 161.161C60.8911 161.55 59.81 161.959 59.8189 162.348C59.8279 162.737 59.7631 163.136 59.7766 163.525C59.79 163.914 60.0103 164.302 60.0283 164.69C60.0463 165.079 61.0116 165.419 61.034 165.807C61.0564 166.196 60.579 166.614 60.606 167.002C60.6329 167.39 60.0614 167.828 60.0929 168.215C60.1243 168.604 61.7313 168.853 61.7671 169.24C61.8032 169.628 61.0783 170.084 61.1186 170.471C61.1591 170.858 60.674 171.305 60.719 171.691C60.7641 172.078 60.3478 172.529 60.3972 172.914C60.4468 173.3 61.2608 173.589 61.3148 173.974C61.3689 174.36 61.1989 174.781 61.2574 175.165C61.3161 175.55 62.2225 175.799 62.2857 176.183C62.3488 176.567 62.8675 176.864 62.9351 177.247C63.0027 177.63 61.8241 178.237 61.8961 178.619C61.9683 179.002 61.4238 179.511 61.5003 179.892C61.5771 180.274 62.8785 180.405 62.9595 180.786C63.0406 181.167 63.6523 181.423 63.7378 181.803C63.8233 182.182 62.8471 182.804 62.9371 183.182C63.0272 183.561 62.7806 184.027 62.875 184.404C62.9695 184.781 64.0091 184.917 64.1081 185.293C64.2071 185.669 65.0715 185.83 65.1748 186.205C65.2781 186.58 65.1387 187.011 65.2465 187.384C65.3543 187.758 64.1775 188.508 64.2897 188.88C64.4018 189.252 64.5112 189.631 64.6278 190.002C64.7444 190.373 65.256 190.62 65.377 190.99C65.4979 191.36 64.4777 192.118 64.603 192.486C64.7283 192.855 66.0029 192.832 66.1325 193.198C66.2622 193.565 67.331 193.587 67.465 193.953C67.599 194.318 66.4097 195.174 66.548 195.537C66.6863 195.901 68.223 195.719 68.3656 196.081C68.5082 196.443 67.2478 197.363 67.3946 197.724C67.5414 198.084 69.1338 197.84 69.2847 198.199C69.4357 198.557 69.29 199.031 69.4453 199.387C69.6006 199.743 69.3566 200.269 69.516 200.624C69.6755 200.979 69.2721 201.59 69.4357 201.943C69.5994 202.296 69.4402 202.807 69.6081 203.157C69.7759 203.508 70.6314 203.529 70.8033 203.877C70.9753 204.226 71.0886 204.603 71.2647 204.95C71.4407 205.297 71.0536 205.937 71.2338 206.282C71.4139 206.626 71.9318 206.797 72.116 207.14C72.3002 207.482 72.4758 207.832 72.6639 208.173C72.8521 208.513 72.4798 209.175 72.672 209.513C72.8642 209.851 73.4784 209.954 73.6746 210.29C73.8709 210.626 73.5802 211.259 73.7803 211.593C73.9804 211.926 73.8675 212.465 74.0715 212.797C74.2755 213.128 75.5117 212.825 75.7195 213.154C75.9274 213.482 75.5214 214.211 75.7331 214.537C75.9447 214.863 76.6314 214.885 76.8469 215.209C77.0623 215.533 77.941 215.408 78.1603 215.73C78.3795 216.051 79.0591 216.043 79.2822 216.362C79.5052 216.68 79.1016 217.432 79.3283 217.749C79.555 218.065 78.78 219.112 79.0104 219.426C79.2408 219.739 79.4863 220.055 79.7203 220.365C79.9543 220.676 80.5592 220.714 80.7969 221.022C81.0346 221.33 82.0999 220.99 82.3411 221.295C82.5824 221.6 82.49 222.166 82.7348 222.469C82.9796 222.771 83.2336 223.063 83.4819 223.363C83.7302 223.662 84.704 223.343 84.9558 223.639C85.2075 223.936 84.2831 225.237 84.5384 225.53C84.7936 225.824 85.6025 225.631 85.861 225.922C86.1196 226.212 85.2888 227.49 85.5508 227.778C85.8128 228.065 86.5756 227.904 86.8409 228.188C87.1063 228.473 87.6845 228.466 87.9531 228.748C88.2218 229.029 87.779 230.006 88.0509 230.284C88.3228 230.562 89.3344 230.118 89.6095 230.393C89.8847 230.668 89.3968 231.724 89.6751 231.996C89.9534 232.268 91.3047 231.434 91.5862 231.702C91.8677 231.971 92.1725 232.207 92.4571 232.472C92.7417 232.737 93.2635 232.734 93.551 232.996C93.8386 233.258 93.6072 234.088 93.898 234.347C94.1887 234.605 95.2249 234.005 95.5187 234.26C95.8124 234.515 95.1502 235.875 95.4468 236.126C95.7435 236.378 96.3245 236.291 96.6241 236.54C96.9237 236.788 97.2563 236.992 97.5585 237.237C97.8608 237.481 97.271 238.851 97.5763 239.092C97.8815 239.333 99.4982 237.897 99.8063 238.135C100.114 238.373 99.5028 239.813 99.8136 240.047C100.124 240.282 101.399 239.215 101.713 239.445C102.027 239.676 101.025 241.72 101.341 241.946C101.657 242.173 102.899 241.101 103.218 241.324C103.537 241.547 103.99 241.564 104.312 241.784C104.633 242.003 104.536 242.838 104.86 243.054C105.184 243.269 105.604 243.34 105.93 243.551C106.257 243.763 106.448 244.187 106.777 244.395C107.106 244.603 107.885 244.084 108.216 244.288C108.547 244.492 108.972 244.525 109.305 244.725C109.639 244.926 109.279 246.293 109.616 246.49C109.952 246.686 111.043 245.564 111.381 245.756C111.72 245.949 111.145 247.768 111.486 247.956C111.826 248.144 112.241 248.215 112.584 248.399C112.927 248.584 113.441 248.458 113.786 248.638C114.13 248.818 114.435 249.087 114.782 249.263C115.129 249.439 115.154 250.282 115.503 250.454C115.852 250.626 116.573 250.053 116.924 250.221C117.275 250.389 118.029 249.699 118.382 249.862C118.735 250.026 119.146 250.044 119.501 250.204C119.856 250.363 120.097 250.763 120.454 250.918C120.811 251.074 121.044 251.507 121.403 251.658C121.762 251.809 122.12 251.957 122.48 252.104C122.84 252.25 123.331 252.061 123.694 252.204C124.056 252.346 124.082 253.353 124.446 253.492C124.81 253.63 125.764 252.175 126.129 252.309C126.494 252.443 126.198 254.401 126.566 254.531C126.933 254.661 127.894 253.066 128.263 253.191C128.632 253.317 128.522 254.858 128.892 254.98C129.262 255.101 129.65 255.174 130.022 255.291C130.393 255.407 130.983 254.808 131.356 254.92C131.729 255.033 131.682 256.577 132.056 256.685C132.43 256.793 133.104 255.858 133.479 255.962C133.854 256.065 134.024 256.945 134.401 257.045C134.777 257.144 135.457 256.067 135.834 256.162C136.212 256.256 136.772 255.56 137.15 255.651C137.529 255.741 137.53 257.435 137.91 257.521C138.29 257.607 138.842 256.901 139.223 256.982C139.604 257.063 139.989 257.094 140.371 257.171C140.752 257.248 140.927 258.391 141.309 258.464C141.692 258.536 142.111 258.442 142.494 258.51C142.877 258.577 143.327 258.276 143.711 258.339C144.095 258.402 144.526 258.159 144.911 258.218C145.296 258.277 145.49 259.672 145.876 259.726C146.261 259.78 146.823 258.56 147.21 258.61C147.595 258.659 148.035 258.23 148.422 258.275C148.808 258.32 149.244 257.826 149.631 257.866C150.018 257.907 150.289 259.05 150.676 259.087C151.063 259.122 151.513 258.386 151.901 258.417C152.289 258.449 152.696 258.071 153.084 258.098C153.472 258.125 153.759 259.656 154.148 259.679C154.536 259.701 154.899 260.337 155.288 260.355C155.677 260.373 156.13 258.829 156.52 258.843C156.908 258.856 157.27 259.681 157.66 259.69C158.049 259.699 158.439 259.745 158.829 259.75C159.218 259.754 159.609 258.521 159.999 258.521C160.389 258.521 160.765 258.462 161.154 258.457C161.544 258.453 161.916 258.258 162.304 258.249C162.694 258.24 163.108 259.386 163.496 259.372C163.886 259.359 164.229 258.387 164.617 258.369C165.006 258.351 165.427 259.102 165.815 259.079C166.204 259.057 166.583 258.958 166.971 258.931C167.36 258.904 167.703 258.377 168.09 258.346C168.478 258.314 168.875 258.485 169.262 258.449C169.65 258.413 170.217 260.169 170.603 260.129C170.991 260.088 171.169 258.141 171.555 258.096C171.941 258.051 172.301 257.865 172.686 257.816C173.072 257.766 173.692 259.46 174.077 259.406C174.463 259.352 174.552 257.288 174.936 257.229C175.321 257.171 175.839 258.012 176.223 257.949C176.607 257.886 177.21 259.082 177.592 259.014C177.976 258.946 178.377 258.913 178.76 258.841C179.142 258.769 179.095 256.499 179.476 256.422C179.858 256.345 180.597 258.013 180.977 257.932C181.358 257.851 181.379 256.146 181.758 256.06C182.138 255.974 183.035 258.117 183.413 258.027C183.791 257.937 184.155 257.725 184.532 257.631C184.909 257.536 184.814 255.59 185.189 255.492C185.565 255.393 185.91 255.213 186.285 255.109C186.66 255.006 187.285 255.807 187.659 255.699C188.032 255.591 188.36 255.328 188.733 255.216C189.105 255.104 189.835 256.132 190.206 256.015C190.577 255.899 190.484 254.323 190.854 254.202C191.223 254.081 191.655 254.155 192.023 254.03C192.391 253.905 193.079 254.69 193.445 254.56C193.812 254.43 193.915 253.557 194.28 253.423C194.645 253.289 194.614 252.114 194.978 251.976C195.341 251.837 196.022 252.542 196.384 252.399C196.746 252.257 196.74 251.218 197.1 251.072C197.46 250.925 198.243 251.818 198.602 251.667C198.96 251.516 199.74 252.335 200.097 252.18C200.453 252.025 200.582 251.333 200.936 251.174C201.291 251.014 201.825 251.23 202.178 251.066C202.531 250.902 202.099 249.076 202.45 248.908C202.801 248.74 203.702 249.716 204.051 249.544C204.399 249.372 204.715 249.127 205.061 248.951C205.408 248.775 205.299 247.721 205.643 247.541C205.988 247.361 207.261 248.927 207.603 248.743C207.946 248.559 208.171 248.134 208.512 247.945C208.852 247.757 209.173 247.513 209.511 247.321C209.849 247.128 210.318 247.141 210.654 246.945C210.99 246.749 210.376 244.944 210.71 244.744C211.043 244.544 212.254 245.786 212.585 245.582C212.917 245.378 213.358 245.329 213.687 245.121C214.016 244.913 213.99 244.134 214.316 243.922C214.642 243.711 215.149 243.761 215.473 243.546C215.797 243.33 215.803 242.634 216.124 242.414C216.445 242.195 216.057 240.957 216.375 240.734C216.694 240.511 218.217 241.989 218.533 241.762C218.849 241.536 219.089 241.185 219.403 240.955C219.716 240.725 220.198 240.701 220.508 240.467C220.819 240.233 221.042 239.863 221.35 239.625C221.658 239.387 220.767 237.615 221.072 237.374C221.377 237.133 222.316 237.692 222.618 237.447C222.921 237.202 223.165 236.887 223.465 236.638C223.764 236.39 223.883 235.93 224.179 235.678C224.476 235.426 224.852 235.272 225.146 235.017C225.439 234.761 226.716 235.614 227.007 235.356C227.298 235.097 227.438 234.652 227.726 234.39C228.014 234.128 227.152 232.615 227.436 232.35C227.721 232.085 228.602 232.455 228.883 232.187C229.165 231.918 229.228 231.422 229.506 231.15C229.784 230.878 231.017 231.562 231.292 231.287C231.567 231.012 231.046 229.938 231.318 229.66C231.59 229.382 230.863 228.148 231.132 227.867C231.4 227.585 233.371 228.911 233.636 228.626C233.902 228.341 233.291 227.242 233.553 226.954C233.815 226.666 234.385 226.654 234.643 226.363C234.902 226.073 235.477 226.052 235.732 225.758C235.987 225.464 236.237 225.155 236.488 224.858C236.74 224.562 235.605 223.105 235.854 222.805C236.102 222.505 237.99 223.549 238.234 223.247C238.479 222.944 238.432 222.396 238.673 222.09C238.914 221.785 239.343 221.615 239.58 221.307C239.818 220.998 239.569 220.311 239.803 220C240.037 219.689 239.051 218.478 239.281 218.164C239.512 217.851 240.461 218.07 240.687 217.754C240.914 217.438 242.169 217.846 242.392 217.527C242.615 217.208 243.028 217.006 243.247 216.684C243.466 216.363 241.704 214.707 241.919 214.383C242.135 214.059 244.34 215.043 244.552 214.717C244.764 214.39 243.097 212.861 243.305 212.532C243.513 212.203 243.794 211.935 243.998 211.603C244.202 211.272 246.348 212.119 246.548 211.785C246.749 211.452 244.738 209.81 244.934 209.474C245.13 209.138 245.591 208.97 245.783 208.632C245.975 208.293 246.679 208.251 246.868 207.911C247.056 207.57 246.622 206.9 246.806 206.557C246.99 206.215 248.467 206.562 248.647 206.217C248.827 205.872 248.729 205.381 248.905 205.034C249.082 204.687 250.179 204.793 250.351 204.444C250.523 204.095 248.692 202.774 248.86 202.423C249.028 202.072 249.816 202.023 249.98 201.67C250.144 201.317 250.062 200.86 250.222 200.505C250.382 200.15 250.049 199.59 250.204 199.233C250.36 198.876 251.597 198.991 251.748 198.633C251.899 198.274 251.179 197.561 251.326 197.201C251.473 196.84 252.59 196.875 252.733 196.513C252.875 196.15 252.65 195.648 252.788 195.284C252.927 194.92 253.516 194.726 253.65 194.361C253.785 193.996 254.56 193.855 254.69 193.488C254.82 193.121 254.325 192.532 254.45 192.163C254.576 191.795 255.193 191.586 255.314 191.216C255.435 190.846 255.727 190.521 255.844 190.15C255.96 189.779 254.084 188.796 254.197 188.424C254.309 188.051 254.494 187.715 254.602 187.341C254.71 186.966 255.447 186.78 255.55 186.405C255.654 186.03 256.954 185.976 257.053 185.599C257.152 185.223 256.426 184.631 256.521 184.253C256.615 183.876 256.021 183.336 256.111 182.957C256.201 182.578 257.185 182.411 257.271 182.031C257.356 181.652 256.997 181.176 257.079 180.795C257.16 180.415 257.958 180.182 258.035 179.8C258.111 179.419 257.549 178.912 257.622 178.529C257.694 178.147 257.074 177.646 257.142 177.262C257.209 176.879 258.633 176.73 258.696 176.345C258.759 175.962 258.101 175.463 258.16 175.078C258.218 174.693 257.631 174.221 257.685 173.835C257.739 173.45 258.568 173.175 258.617 172.789C258.667 172.404 259.394 172.098 259.439 171.712C259.484 171.326 260.02 170.984 260.061 170.597C260.101 170.21 258.015 169.613 258.051 169.225C258.087 168.838 259.49 168.574 259.521 168.186C259.553 167.799 259.559 167.406 259.586 167.017C259.613 166.629 258.86 166.193 258.883 165.804C258.905 165.416 258.29 165.004 258.308 164.615C258.326 164.227 259.271 163.883 259.285 163.494C259.298 163.105 260.69 162.75 260.699 162.361C260.708 161.972 258.698 161.546 258.703 161.157C258.707 160.769 260.552 160.389 260.552 160Z" fill="#EBEBF1"/>
<path d="M183.883 89.453V56.3628H134.013V90.883C117.519 97.2438 103.804 109.232 95.2952 124.727C86.786 140.223 84.0296 158.228 87.5134 175.559C90.9972 192.891 100.497 208.433 114.333 219.437C128.169 230.441 145.45 236.198 163.121 235.691C180.792 235.185 197.714 228.446 210.897 216.668C224.08 204.889 232.673 188.828 235.158 171.326C237.643 153.823 233.859 136.005 224.476 121.023C215.093 106.041 200.714 94.8582 183.883 89.453Z" fill="white"/>
<path d="M133.278 92.7859C132.436 80.6627 132.596 68.4901 133.278 56.3631C133.293 56.1791 133.378 56.0076 133.514 55.8827C133.65 55.7578 133.828 55.6885 134.012 55.6885C134.197 55.6885 134.375 55.7578 134.511 55.8827C134.647 56.0076 134.731 56.1791 134.747 56.3631C135.32 65.4587 135.392 74.5718 135.204 83.6802C135.118 86.7154 134.999 89.7506 134.747 92.7859C134.729 92.9682 134.644 93.1373 134.508 93.2603C134.372 93.3833 134.195 93.4514 134.012 93.4514C133.829 93.4514 133.652 93.3833 133.517 93.2603C133.381 93.1373 133.296 92.9682 133.278 92.7859L133.278 92.7859Z" fill="#181C56"/>
<path d="M183.147 91.3556C182.456 82.6215 182.528 73.8611 182.737 65.1111C182.822 62.1951 182.935 59.279 183.147 56.363C183.16 56.1774 183.244 56.0039 183.38 55.8772C183.516 55.7506 183.695 55.6802 183.881 55.6802C184.067 55.6802 184.246 55.7506 184.383 55.8772C184.519 56.0039 184.602 56.1774 184.616 56.363C185.189 65.1008 185.261 73.8566 185.073 82.6075C184.987 85.5235 184.868 88.4396 184.616 91.3556C184.597 91.5374 184.512 91.7058 184.376 91.8282C184.24 91.9506 184.064 92.0184 183.881 92.0184C183.699 92.0184 183.522 91.9506 183.387 91.8282C183.251 91.7058 183.166 91.5374 183.147 91.3556Z" fill="#181C56"/>
<path d="M160.973 239.18C160.235 239.163 159.5 239.089 158.773 238.958C158.265 238.871 157.752 238.809 157.237 238.773C156.439 238.735 155.66 238.632 154.906 238.532C154.445 238.472 153.984 238.411 153.523 238.366C153.029 238.317 152.525 238.305 151.992 238.292C151.254 238.288 150.517 238.239 149.785 238.145C149.054 238.016 148.339 237.81 147.652 237.53C147.175 237.34 146.684 237.185 146.183 237.07C145.671 236.982 145.154 236.928 144.634 236.908C143.902 236.884 143.173 236.792 142.458 236.633C141.367 236.361 140.289 236.034 139.247 235.717L138.863 235.601C137.892 235.306 136.938 234.961 136.016 234.628L135.33 234.381C134.205 233.978 133.033 233.524 131.846 233.032C131.165 232.735 130.502 232.398 129.86 232.023C129.402 231.767 128.969 231.525 128.527 231.316C128.054 231.116 127.564 230.964 127.062 230.859C126.325 230.709 125.611 230.465 124.936 230.134C124.29 229.771 123.667 229.368 123.072 228.926C122.635 228.615 122.223 228.322 121.801 228.069C121.172 227.661 120.597 227.177 120.088 226.627C119.74 226.254 119.358 225.915 118.946 225.613C118.512 225.356 118.05 225.148 117.569 224.993C116.843 224.761 116.154 224.425 115.523 223.996C114.943 223.545 114.397 223.051 113.89 222.519C113.506 222.136 113.144 221.773 112.762 221.459C111.959 220.799 111.191 220.099 110.448 219.422L109.97 218.988C109.576 218.65 109.16 218.339 108.724 218.057C108.104 217.661 107.522 217.206 106.987 216.7C106.478 216.157 106.033 215.557 105.66 214.913C105.4 214.468 105.103 214.046 104.771 213.652C104.439 213.286 104.066 212.941 103.671 212.576C103.121 212.09 102.605 211.566 102.127 211.008C101.676 210.43 101.279 209.811 100.941 209.161C100.699 208.703 100.428 208.261 100.13 207.838C99.6004 207.125 99.1198 206.388 98.6548 205.676C98.4548 205.37 98.2546 205.063 98.0498 204.757C97.3508 203.714 96.6996 202.688 96.0591 201.622C95.7729 201.222 95.4321 200.864 95.0467 200.559C94.4254 200.066 93.8975 199.466 93.4881 198.786C93.1579 198.121 92.9018 197.421 92.7244 196.699C92.5982 196.196 92.4316 195.705 92.226 195.229C92.0152 194.784 91.7586 194.346 91.4869 193.882C91.0997 193.253 90.7564 192.599 90.4596 191.923C90.1969 191.232 90.0075 190.515 89.8946 189.785C89.8126 189.274 89.6917 188.769 89.5329 188.277C89.265 187.528 89.0636 186.773 88.8686 186.042C88.7491 185.595 88.6296 185.147 88.4948 184.701C88.3332 184.213 88.1407 183.735 87.9186 183.27C87.5971 182.608 87.3365 181.919 87.1398 181.21C87.0012 180.711 86.8302 180.222 86.6278 179.746C86.3344 179.067 86.1047 178.362 85.9415 177.64C85.828 176.859 85.8542 176.065 86.0189 175.293C86.1227 174.809 86.1584 174.313 86.1251 173.818C86.0409 173.313 85.9312 172.813 85.7966 172.319C85.5988 171.612 85.4558 170.891 85.3687 170.162C85.3083 169.419 85.2868 168.673 85.3043 167.928C85.3078 167.411 85.3111 166.922 85.2872 166.434C85.2527 165.922 85.1926 165.412 85.107 164.906C84.9798 164.182 84.9078 163.45 84.8916 162.715C84.9078 161.981 84.9806 161.249 85.1092 160.525C85.1958 160.019 85.2566 159.509 85.2913 158.997C85.3024 158.477 85.2782 157.956 85.219 157.439C85.1314 156.712 85.1131 155.979 85.1642 155.249C85.2513 154.518 85.3927 153.794 85.5873 153.084C85.7175 152.561 85.8404 152.067 85.9119 151.581C86.0327 150.842 86.1931 150.11 86.3923 149.388C86.5203 148.89 86.6413 148.421 86.7348 147.948C86.8226 147.437 86.8773 146.92 86.8986 146.402C86.924 145.671 87.0165 144.944 87.175 144.229C87.364 143.473 87.6198 142.755 87.8673 142.061C88.0369 141.585 88.1971 141.136 88.335 140.68C88.4749 140.181 88.5871 139.673 88.6713 139.161C88.7851 138.438 88.958 137.725 89.1881 137.029C89.4508 136.296 89.7769 135.603 90.0927 134.934C90.3085 134.476 90.5125 134.044 90.6948 133.604C91.0031 132.861 91.3647 132.155 91.7139 131.473C91.9225 131.066 92.1308 130.659 92.3262 130.247C92.8169 129.211 93.3735 128.036 93.9793 126.905C94.205 126.484 94.4108 126.053 94.6287 125.597C94.9466 124.931 95.2756 124.242 95.6754 123.576C96.0668 122.955 96.5023 122.362 96.9787 121.803C97.3185 121.385 97.6396 120.99 97.9142 120.58C98.1731 120.193 98.4183 119.798 98.6635 119.404C99.0633 118.761 99.4769 118.096 99.951 117.457C100.418 116.829 100.929 116.258 101.424 115.705C101.756 115.334 102.069 114.984 102.369 114.619C102.681 114.239 102.97 113.834 103.276 113.406C103.695 112.796 104.149 112.21 104.636 111.653C105.141 111.123 105.689 110.636 106.274 110.197C106.685 109.884 107.078 109.548 107.451 109.191C108.274 108.368 109.155 107.532 110.145 106.634C110.52 106.279 110.875 105.904 111.209 105.51C111.678 104.948 112.192 104.426 112.746 103.948C113.139 103.61 113.513 103.251 113.865 102.87C114.362 102.328 114.902 101.828 115.482 101.375C116.081 100.951 116.712 100.573 117.369 100.245C117.831 100.01 118.281 99.7522 118.717 99.4724C119.138 99.1711 119.537 98.8392 119.91 98.4793C120.44 97.9615 121.021 97.4992 121.645 97.0993C122.313 96.7343 123.03 96.4649 123.773 96.2988C124.268 96.1874 124.751 96.0222 125.211 95.8061C125.913 95.4299 126.631 95.118 127.326 94.8163C127.749 94.6325 128.173 94.4488 128.592 94.25C129.643 93.7525 130.78 93.2235 131.983 92.7248C132.391 92.5556 132.793 92.3763 133.196 92.1969C133.906 91.8802 134.641 91.5529 135.412 91.2769C135.888 91.0856 136.345 90.8529 136.779 90.5814C137.412 90.1813 138.09 89.8576 138.8 89.6171C139.542 89.3923 140.295 89.2407 141.022 89.0942C141.52 88.994 141.99 88.8992 142.454 88.7834C143.179 88.6269 143.919 88.5535 144.66 88.5646C145.175 88.5699 145.691 88.5313 146.2 88.4494C146.685 88.3237 147.153 88.1421 147.595 87.9082C148.276 87.5476 149.007 87.2908 149.764 87.1463C150.526 87.0342 151.287 86.9982 152.023 86.9636C152.536 86.9393 153.022 86.9164 153.503 86.8698C154.247 86.8226 154.993 86.8681 155.725 87.0052C156.232 87.097 156.746 87.1415 157.26 87.1383C157.758 87.0851 158.247 86.9747 158.72 86.8093C159.446 86.5544 160.205 86.4084 160.974 86.376C161.744 86.409 162.505 86.5579 163.231 86.8178C163.701 86.9859 164.19 87.0981 164.686 87.152C165.156 87.1747 165.623 87.181 166.089 87.1872C166.84 87.1977 167.617 87.2083 168.403 87.2849C168.899 87.3331 169.408 87.3372 169.948 87.3416C170.679 87.3312 171.41 87.3718 172.136 87.4633C173.417 87.6516 174.66 87.8885 175.812 88.1166C176.639 88.2799 177.442 88.4976 178.218 88.7083C178.623 88.8176 179.026 88.9272 179.432 89.0285C179.94 89.1413 180.454 89.2211 180.972 89.2674C181.704 89.3285 182.429 89.4569 183.138 89.651C183.845 89.88 184.537 90.1528 185.21 90.4678C185.695 90.6835 186.154 90.8872 186.616 91.0524C187.306 91.3147 187.98 91.6216 188.631 91.9709C189.104 92.2124 189.551 92.4405 190.005 92.6289C190.489 92.815 190.985 92.9691 191.49 93.0903C192.205 93.2576 192.903 93.4909 193.575 93.7874C194.231 94.1197 194.856 94.5109 195.442 94.9561C195.856 95.2666 196.288 95.5505 196.738 95.8061C197.201 96.0318 197.683 96.2167 198.178 96.3587C198.896 96.5604 199.587 96.8456 200.238 97.2082C200.864 97.6012 201.462 98.036 202.028 98.5096C202.448 98.8454 202.845 99.1627 203.255 99.4373C203.694 99.7171 204.147 99.9721 204.614 100.201C205.276 100.52 205.91 100.894 206.511 101.317L206.839 101.561C207.718 102.213 208.628 102.887 209.492 103.597C210.052 104.078 210.577 104.596 211.065 105.15C211.432 105.548 211.779 105.925 212.146 106.257C212.502 106.581 212.879 106.889 213.277 107.214C213.87 107.683 214.439 108.182 214.982 108.708C215.494 109.24 215.97 109.806 216.408 110.4C216.736 110.826 217.045 111.229 217.378 111.595C217.71 111.961 218.087 112.308 218.487 112.674C219.041 113.159 219.56 113.683 220.039 114.242C220.499 114.852 220.869 115.524 221.138 116.238C221.317 116.712 221.548 117.163 221.827 117.585C222.149 117.983 222.507 118.35 222.897 118.681C223.47 119.164 223.981 119.716 224.419 120.324C224.825 120.953 225.197 121.605 225.534 122.274C225.776 122.735 226.005 123.171 226.255 123.588C226.455 123.92 226.659 124.25 226.864 124.58C227.306 125.292 227.763 126.029 228.174 126.797C228.699 127.778 229.179 128.792 229.642 129.772L229.822 130.153C230.118 130.832 230.338 131.541 230.477 132.268C230.576 132.774 230.716 133.27 230.897 133.753C231.079 134.192 231.281 134.621 231.495 135.075C231.809 135.739 232.132 136.426 232.395 137.161C232.579 137.642 232.79 138.112 233.026 138.57C233.368 139.222 233.655 139.9 233.885 140.598C234.084 141.307 234.237 142.027 234.342 142.756C234.43 143.284 234.513 143.783 234.633 144.265C234.776 144.758 234.959 145.238 235.182 145.701C235.51 146.372 235.76 147.078 235.929 147.806C236.056 148.53 236.132 149.262 236.156 149.996C236.187 150.539 236.216 151.051 236.288 151.544C236.415 152.406 236.488 153.275 236.559 154.116C236.591 154.497 236.623 154.879 236.66 155.261C236.724 155.774 236.821 156.282 236.95 156.782C237.14 157.497 237.263 158.228 237.318 158.965C237.321 159.731 237.21 160.492 236.987 161.224C236.84 161.709 236.751 162.21 236.721 162.716C236.746 163.227 236.824 163.735 236.954 164.23C237.148 164.958 237.242 165.709 237.233 166.462C237.17 167.215 237.009 167.957 236.753 168.669C236.584 169.147 236.462 169.641 236.39 170.144C236.341 170.638 236.33 171.14 236.317 171.671C236.314 172.406 236.266 173.141 236.172 173.87C236.1 174.363 236.073 174.875 236.044 175.417C236.023 176.15 235.948 176.881 235.822 177.604C235.65 178.338 235.384 179.047 235.032 179.713C234.796 180.164 234.605 180.636 234.46 181.123C234.355 181.627 234.295 182.139 234.282 182.654C234.266 183.399 234.161 184.139 233.969 184.859C233.825 185.332 233.715 185.826 233.598 186.349C233.451 187.076 233.259 187.793 233.023 188.496C232.737 189.203 232.355 189.868 231.887 190.47C231.577 190.871 231.311 191.303 231.093 191.76C230.784 192.504 230.424 193.206 230.076 193.885C229.868 194.291 229.66 194.697 229.465 195.11C228.849 196.409 228.32 197.466 227.801 198.436C227.406 199.172 226.969 199.867 226.546 200.539C226.321 200.896 226.096 201.254 225.877 201.618C225.659 202.059 225.504 202.529 225.417 203.014C225.276 203.794 224.996 204.543 224.589 205.224C224.146 205.836 223.624 206.388 223.037 206.864C222.642 207.187 222.28 207.549 221.956 207.944C221.658 208.369 221.387 208.812 221.146 209.272C220.809 209.925 220.412 210.546 219.96 211.126C219.481 211.683 218.96 212.201 218.4 212.677C218.008 213.014 217.634 213.372 217.279 213.749C217.009 214.046 216.744 214.348 216.479 214.65C215.936 215.269 215.375 215.908 214.769 216.513C214.495 216.788 214.224 217.066 213.952 217.345C213.369 217.946 212.765 218.567 212.121 219.15C211.554 219.632 210.931 220.045 210.265 220.38C209.809 220.613 209.373 220.886 208.965 221.195C208.64 221.462 208.322 221.735 208.004 222.007C207.398 222.525 206.771 223.062 206.098 223.562C205.691 223.879 205.302 224.22 204.934 224.582C204.414 225.099 203.852 225.572 203.253 225.994C202.829 226.291 202.42 226.611 202.03 226.952C201.479 227.439 200.889 227.881 200.268 228.275C199.387 228.804 198.221 229.494 197.012 230.141C196.355 230.476 195.676 230.766 194.979 231.008C194.473 231.197 193.995 231.375 193.547 231.587C193.13 231.785 192.717 231.998 192.305 232.21C191.624 232.561 190.92 232.923 190.181 233.23C189.497 233.494 188.791 233.698 188.071 233.841C187.562 233.946 187.059 234.08 186.566 234.244C186.126 234.401 185.694 234.576 185.236 234.762C184.542 235.043 183.825 235.333 183.071 235.561C182.6 235.704 182.128 235.895 181.629 236.097C180.95 236.39 180.251 236.634 179.538 236.828C178.807 236.984 178.059 237.05 177.312 237.024C176.798 237.008 176.283 237.04 175.774 237.119C175.272 237.234 174.779 237.384 174.298 237.569C173.609 237.838 172.894 238.038 172.165 238.166C171.437 238.258 170.703 238.3 169.969 238.293C169.429 238.299 168.919 238.305 168.423 238.353C167.913 238.42 167.409 238.528 166.916 238.674C166.202 238.89 165.468 239.029 164.725 239.087C163.458 239.148 162.196 239.18 160.973 239.18ZM154.043 89.1635C153.935 89.1635 153.83 89.168 153.728 89.1779C153.189 89.2303 152.652 89.2555 152.133 89.2803C151.422 89.3138 150.75 89.3455 150.102 89.4409C149.573 89.5578 149.063 89.7477 148.587 90.0051C147.974 90.3251 147.324 90.5669 146.651 90.7249C146.009 90.835 145.359 90.888 144.708 90.8834C144.141 90.8724 143.573 90.9228 143.016 91.0336C142.501 91.1624 141.982 91.2667 141.481 91.3678C140.775 91.5098 140.109 91.644 139.472 91.8367C138.937 92.0292 138.424 92.2808 137.944 92.5869C137.389 92.9317 136.803 93.2242 136.194 93.4607C135.505 93.7071 134.842 94.0026 134.139 94.3157C133.719 94.503 133.298 94.6905 132.871 94.8674C131.715 95.3467 130.609 95.8615 129.586 96.3463C129.144 96.5557 128.697 96.7501 128.25 96.9437C127.568 97.2397 126.924 97.5197 126.306 97.8505C125.691 98.1544 125.043 98.3853 124.375 98.5386C123.842 98.6535 123.325 98.838 122.84 99.0874C122.351 99.4099 121.894 99.7791 121.476 100.19C121.018 100.63 120.527 101.035 120.008 101.4C119.506 101.724 118.989 102.022 118.457 102.293C117.904 102.568 117.372 102.884 116.865 103.237C116.389 103.616 115.944 104.032 115.534 104.481C115.12 104.926 114.681 105.347 114.219 105.741C113.762 106.14 113.338 106.576 112.95 107.042C112.56 107.502 112.144 107.939 111.704 108.352C110.742 109.224 109.887 110.036 109.091 110.832C108.656 111.252 108.196 111.647 107.715 112.014C107.23 112.376 106.775 112.777 106.355 113.212C105.928 113.702 105.531 114.217 105.164 114.754C104.849 115.195 104.523 115.651 104.161 116.092C103.83 116.494 103.486 116.879 103.152 117.252C102.671 117.79 102.217 118.297 101.813 118.841C101.396 119.402 101.026 119.998 100.633 120.628C100.375 121.045 100.115 121.462 99.8418 121.87C99.5072 122.37 99.1368 122.826 98.7785 123.266C98.3724 123.741 97.9999 124.244 97.6639 124.77C97.321 125.341 97.0299 125.951 96.722 126.596C96.5022 127.056 96.2751 127.532 96.0241 128.001C95.4453 129.081 94.9019 130.228 94.4226 131.24C94.2168 131.674 93.9978 132.102 93.7783 132.53C93.4346 133.201 93.11 133.835 92.8373 134.493C92.634 134.983 92.4086 135.461 92.1907 135.924C91.8854 136.571 91.5969 137.183 91.3721 137.811C91.1858 138.39 91.0454 138.982 90.9523 139.582C90.8534 140.179 90.7208 140.77 90.555 141.353C90.4009 141.862 90.2238 142.359 90.0523 142.84C89.8129 143.511 89.5869 144.145 89.4257 144.791C89.3033 145.37 89.2323 145.959 89.2134 146.55C89.1868 147.17 89.119 147.787 89.0104 148.398C88.9038 148.936 88.7692 149.459 88.6386 149.966C88.4603 150.609 88.3162 151.26 88.2067 151.918C88.1188 152.516 87.9763 153.09 87.8384 153.644C87.6727 154.244 87.5505 154.856 87.4727 155.474C87.4384 156.06 87.4573 156.648 87.5292 157.231C87.5994 157.854 87.6257 158.482 87.6081 159.109C87.5702 159.701 87.5015 160.291 87.4021 160.875C87.2928 161.483 87.2289 162.098 87.2111 162.715C87.2287 163.334 87.292 163.95 87.4004 164.56C87.4983 165.143 87.5662 165.731 87.604 166.322C87.6307 166.874 87.6271 167.418 87.6236 167.944C87.6071 168.609 87.6249 169.274 87.6769 169.937C87.7542 170.55 87.8771 171.155 88.0446 171.749C88.1994 172.32 88.3246 172.898 88.4196 173.481C88.4938 174.207 88.4569 174.939 88.31 175.654C88.1971 176.157 88.1657 176.676 88.2169 177.19C88.3548 177.772 88.5443 178.341 88.7834 178.89C89.025 179.462 89.2277 180.049 89.3903 180.648C89.5554 181.222 89.7706 181.781 90.0332 182.317C90.2974 182.872 90.5249 183.444 90.7144 184.029C90.8571 184.499 90.9836 184.972 91.1096 185.444C91.3007 186.161 91.4813 186.837 91.7167 187.495C91.9181 188.102 92.0709 188.724 92.1736 189.354C92.2602 189.927 92.4037 190.49 92.6021 191.034C92.8594 191.612 93.1555 192.172 93.4882 192.71C93.7731 193.197 94.068 193.7 94.3221 194.236C94.5848 194.828 94.7969 195.44 94.9563 196.068C95.0916 196.627 95.2848 197.171 95.5325 197.691C95.8203 198.123 96.1759 198.505 96.5856 198.824C97.1521 199.28 97.645 199.821 98.0473 200.428C98.6679 201.461 99.2992 202.455 99.9771 203.467C100.187 203.78 100.392 204.095 100.597 204.408C101.063 205.123 101.504 205.798 101.992 206.455C102.351 206.958 102.677 207.485 102.966 208.032C103.239 208.56 103.558 209.063 103.918 209.536C104.33 210.011 104.773 210.458 105.245 210.873C105.659 211.256 106.088 211.652 106.489 212.094C106.914 212.588 107.294 213.118 107.624 213.68C107.908 214.175 108.244 214.638 108.627 215.06C109.061 215.462 109.531 215.824 110.031 216.141C110.555 216.482 111.055 216.859 111.527 217.27L112.009 217.708C112.764 218.396 113.476 219.045 114.234 219.668C114.704 220.053 115.123 220.473 115.53 220.879C115.958 221.33 116.418 221.75 116.906 222.135C117.362 222.427 117.855 222.657 118.372 222.818C119.026 223.031 119.652 223.323 120.236 223.686C120.775 224.069 121.275 224.505 121.728 224.987C122.106 225.4 122.531 225.767 122.995 226.081C123.495 226.381 123.963 226.714 124.416 227.036C124.932 227.421 125.472 227.773 126.031 228.09C126.537 228.325 127.069 228.498 127.616 228.607C128.27 228.746 128.908 228.951 129.52 229.22C130.033 229.463 130.521 229.736 130.993 230C131.556 230.33 132.138 230.627 132.735 230.89C133.886 231.368 135.023 231.807 136.112 232.197L136.805 232.447C137.699 232.77 138.623 233.105 139.536 233.381L139.922 233.498C140.936 233.806 141.985 234.125 143.02 234.383C143.599 234.505 144.188 234.575 144.779 234.593C145.401 234.619 146.021 234.686 146.633 234.794C147.254 234.932 147.862 235.12 148.453 235.354C148.992 235.575 149.551 235.742 150.123 235.851C150.762 235.93 151.405 235.971 152.05 235.974C152.6 235.987 153.17 236.001 153.748 236.058C154.235 236.105 154.722 236.169 155.21 236.233C155.949 236.331 156.647 236.423 157.35 236.457C157.945 236.496 158.538 236.565 159.127 236.666C159.737 236.777 160.354 236.842 160.974 236.861C162.159 236.861 163.384 236.83 164.613 236.771C165.192 236.717 165.764 236.604 166.32 236.433C166.935 236.252 167.563 236.123 168.199 236.045C168.794 235.987 169.378 235.98 169.943 235.974C170.573 235.982 171.203 235.947 171.828 235.872C172.407 235.763 172.975 235.599 173.523 235.383C174.109 235.159 174.711 234.979 175.324 234.844C175.978 234.733 176.641 234.687 177.304 234.705C177.864 234.727 178.425 234.684 178.976 234.578C179.584 234.409 180.18 234.198 180.76 233.947C181.285 233.735 181.828 233.515 182.399 233.342C183.053 233.144 183.691 232.886 184.366 232.612C184.826 232.426 185.301 232.234 185.785 232.06C186.366 231.864 186.958 231.704 187.557 231.58C188.149 231.464 188.729 231.299 189.293 231.087C189.944 230.817 190.575 230.492 191.244 230.148C191.679 229.924 192.114 229.7 192.555 229.491C193.092 229.237 193.64 229.033 194.17 228.835C194.768 228.628 195.352 228.381 195.918 228.097C197.082 227.474 198.216 226.802 199.074 226.287C199.591 225.955 200.08 225.583 200.539 225.176C200.994 224.78 201.469 224.41 201.964 224.067C202.455 223.715 202.915 223.323 203.342 222.896C203.776 222.47 204.235 222.071 204.716 221.7C205.324 221.248 205.894 220.76 206.497 220.245C206.827 219.963 207.156 219.68 207.493 219.404C208.01 219.001 208.564 218.648 209.146 218.349C209.652 218.097 210.127 217.79 210.564 217.432C211.154 216.897 211.706 216.33 212.291 215.729C212.569 215.442 212.848 215.155 213.13 214.873C213.682 214.321 214.194 213.738 214.736 213.12C215.009 212.809 215.283 212.497 215.561 212.191C215.97 211.754 216.402 211.339 216.856 210.947C217.325 210.55 217.765 210.117 218.169 209.654C218.529 209.181 218.847 208.677 219.119 208.148C219.408 207.598 219.735 207.068 220.095 206.561C220.512 206.034 220.984 205.552 221.503 205.125C221.937 204.777 222.327 204.377 222.663 203.933C222.907 203.479 223.075 202.987 223.161 202.478C223.296 201.76 223.542 201.066 223.89 200.423C224.117 200.046 224.351 199.674 224.584 199.303C225.004 198.636 225.401 198.005 225.757 197.341C226.259 196.405 226.771 195.381 227.37 194.117C227.576 193.682 227.794 193.255 228.013 192.828C228.356 192.16 228.679 191.529 228.951 190.872C229.232 190.252 229.583 189.666 229.998 189.126C230.338 188.694 230.622 188.22 230.84 187.715C231.043 187.102 231.209 186.477 231.336 185.844C231.457 185.302 231.582 184.742 231.75 184.186C231.885 183.64 231.958 183.079 231.968 182.516C231.987 181.859 232.068 181.204 232.211 180.562C232.39 179.922 232.635 179.303 232.94 178.713C233.204 178.219 233.408 177.696 233.547 177.153C233.651 176.539 233.712 175.918 233.729 175.295C233.76 174.723 233.791 174.132 233.879 173.533C233.958 172.897 233.998 172.257 234 171.616C234.013 171.066 234.026 170.498 234.082 169.919C234.167 169.257 234.321 168.606 234.541 167.976C234.732 167.451 234.859 166.905 234.918 166.35C234.91 165.802 234.834 165.258 234.69 164.73C234.52 164.071 234.424 163.395 234.403 162.715C234.427 162.016 234.541 161.322 234.741 160.652C234.9 160.141 234.988 159.612 235.002 159.077C234.951 158.48 234.848 157.889 234.693 157.31C234.539 156.71 234.426 156.1 234.353 155.485C234.315 155.094 234.282 154.702 234.249 154.311C234.178 153.468 234.111 152.672 233.995 151.881C233.907 151.285 233.874 150.696 233.842 150.126C233.822 149.499 233.759 148.874 233.654 148.256C233.516 147.698 233.318 147.158 233.064 146.642C232.784 146.058 232.557 145.45 232.384 144.826C232.241 144.255 232.147 143.686 232.055 143.136C231.966 142.506 231.836 141.883 231.666 141.271C231.471 140.693 231.23 140.132 230.946 139.593C230.67 139.057 230.425 138.506 230.213 137.942C229.988 137.313 229.701 136.706 229.398 136.063C229.182 135.605 228.959 135.131 228.756 134.641C228.523 134.038 228.343 133.417 228.216 132.783C228.111 132.222 227.947 131.673 227.727 131.146L227.546 130.763C227.095 129.809 226.628 128.822 226.13 127.892C225.754 127.189 225.336 126.515 224.894 125.802C224.683 125.463 224.473 125.123 224.268 124.782C223.983 124.307 223.728 123.821 223.482 123.352C223.183 122.755 222.852 122.175 222.492 121.614C222.155 121.164 221.767 120.755 221.335 120.395C220.833 119.966 220.375 119.487 219.966 118.968C219.574 118.402 219.252 117.792 219.006 117.149C218.819 116.639 218.564 116.157 218.248 115.715C217.837 115.241 217.393 114.796 216.92 114.383C216.499 113.998 216.064 113.599 215.66 113.153C215.265 112.717 214.912 112.258 214.57 111.814C214.193 111.3 213.783 110.81 213.343 110.348C212.879 109.884 212.359 109.459 211.809 109.009C211.406 108.68 210.989 108.339 210.588 107.975C210.144 107.573 209.745 107.14 209.36 106.721C208.944 106.247 208.496 105.802 208.02 105.389C207.201 104.716 206.315 104.059 205.458 103.424L205.128 103.179C204.628 102.832 204.101 102.526 203.552 102.262C203.006 101.994 202.477 101.694 201.966 101.364C201.474 101.035 201.02 100.672 200.581 100.321C200.094 99.9127 199.581 99.537 199.045 99.1963C198.544 98.929 198.015 98.7177 197.468 98.5663C196.839 98.3841 196.228 98.1445 195.643 97.8505C195.105 97.5486 194.587 97.2118 194.093 96.8422C193.618 96.4792 193.113 96.1583 192.582 95.8832C192.038 95.6496 191.473 95.4651 190.896 95.3319C190.291 95.1853 189.697 94.998 189.117 94.7711C188.579 94.5478 188.07 94.288 187.577 94.0367C187.014 93.7332 186.432 93.4657 185.835 93.2359C185.292 93.0417 184.772 92.8107 184.269 92.5874C183.683 92.3118 183.081 92.0723 182.466 91.8702C181.891 91.7192 181.304 91.6193 180.712 91.5716C180.092 91.5148 179.477 91.4168 178.87 91.278C178.45 91.173 178.031 91.0595 177.612 90.946C176.839 90.7366 176.11 90.5389 175.362 90.3913C174.239 90.1688 173.03 89.9382 171.799 89.7571C171.178 89.6825 170.554 89.65 169.929 89.66C169.363 89.6555 168.777 89.6509 168.179 89.5925C167.489 89.5255 166.794 89.5157 166.057 89.5057C165.565 89.499 165.071 89.4919 164.574 89.4679C163.884 89.41 163.204 89.2643 162.55 89.0342C162.043 88.8479 161.512 88.7336 160.974 88.6944C160.433 88.7327 159.9 88.8453 159.389 89.0292C158.737 89.2543 158.06 89.3972 157.373 89.4544C156.708 89.4676 156.044 89.4156 155.39 89.2994C154.945 89.2226 154.494 89.1772 154.043 89.1635Z" fill="#181C56"/>
<path d="M138.91 153.501L159.217 170.833C159.641 171.195 159.986 171.641 160.228 172.144C160.471 172.647 160.606 173.194 160.626 173.752C160.645 174.31 160.549 174.865 160.342 175.384C160.135 175.902 159.823 176.371 159.425 176.763C159.026 177.154 158.551 177.458 158.029 177.655C157.508 177.853 156.95 177.939 156.393 177.91C155.836 177.881 155.291 177.735 154.792 177.484C154.294 177.233 153.854 176.88 153.499 176.449L136.532 155.838C136.271 155.514 136.14 155.105 136.164 154.689C136.188 154.274 136.366 153.883 136.662 153.592C136.959 153.3 137.354 153.129 137.769 153.113C138.185 153.096 138.591 153.234 138.911 153.501H138.91Z" fill="#181C56"/>
<path d="M189.539 137.691L160.322 176.806C156.978 180.939 150.874 176.404 153.892 172.004C154.222 171.527 186.852 136.175 187.197 135.748C187.463 135.466 187.826 135.295 188.213 135.271C188.6 135.248 188.982 135.372 189.28 135.62C189.579 135.867 189.772 136.219 189.82 136.604C189.868 136.989 189.767 137.378 189.539 137.691V137.691Z" fill="#181C56"/>
<path d="M201.853 121.514C200.352 123.707 198.557 125.684 196.517 127.389C195.845 127.974 195.13 128.508 194.379 128.987C194.314 129.028 194.238 129.045 194.162 129.036C194.086 129.027 194.015 128.993 193.961 128.939C193.907 128.885 193.873 128.815 193.864 128.739C193.856 128.663 193.873 128.586 193.913 128.522C194.894 127.043 196.032 125.675 197.307 124.442C198.547 123.174 199.915 122.036 201.387 121.048C201.452 121.009 201.528 120.993 201.603 121.002C201.678 121.011 201.748 121.045 201.802 121.099C201.855 121.152 201.889 121.222 201.898 121.297C201.908 121.373 201.892 121.449 201.853 121.513V121.514Z" fill="#FFBF9E"/>
<path d="M128.034 195.332C126.534 197.526 124.739 199.503 122.699 201.208C122.027 201.793 121.312 202.327 120.561 202.806C120.496 202.846 120.419 202.864 120.343 202.855C120.268 202.846 120.197 202.812 120.143 202.758C120.089 202.704 120.055 202.634 120.046 202.558C120.037 202.482 120.055 202.405 120.095 202.34C121.076 200.862 122.214 199.494 123.489 198.261C124.729 196.992 126.096 195.855 127.569 194.867C127.634 194.828 127.71 194.812 127.785 194.821C127.86 194.83 127.93 194.864 127.983 194.918C128.037 194.971 128.071 195.041 128.08 195.116C128.089 195.191 128.073 195.267 128.034 195.332V195.332Z" fill="#FFBF9E"/>
<path d="M201.387 202.806C199.193 201.306 197.216 199.511 195.512 197.471C194.927 196.799 194.392 196.084 193.913 195.333C193.873 195.268 193.856 195.191 193.865 195.115C193.873 195.04 193.907 194.969 193.961 194.915C194.015 194.861 194.086 194.827 194.162 194.818C194.238 194.809 194.314 194.827 194.379 194.867C195.857 195.848 197.225 196.986 198.459 198.261C199.727 199.501 200.864 200.868 201.853 202.341C201.892 202.406 201.908 202.482 201.899 202.557C201.89 202.632 201.855 202.702 201.802 202.755C201.748 202.809 201.679 202.843 201.603 202.852C201.528 202.862 201.452 202.845 201.387 202.806H201.387Z" fill="#FFBF9E"/>
<path d="M127.568 128.987C125.374 127.487 123.397 125.692 121.693 123.652C121.107 122.98 120.573 122.265 120.094 121.514C120.054 121.449 120.036 121.372 120.045 121.297C120.054 121.221 120.088 121.15 120.142 121.096C120.196 121.042 120.267 121.008 120.342 120.999C120.418 120.991 120.495 121.008 120.56 121.048C122.038 122.029 123.406 123.167 124.64 124.442C125.908 125.682 127.045 127.049 128.033 128.522C128.072 128.587 128.089 128.663 128.079 128.738C128.07 128.813 128.036 128.883 127.982 128.936C127.929 128.99 127.859 129.024 127.784 129.033C127.709 129.042 127.633 129.026 127.568 128.987H127.568Z" fill="#FFBF9E"/>
<path d="M218.456 162.256C215.843 162.747 213.176 162.875 210.529 162.638C209.64 162.576 208.757 162.449 207.886 162.256C207.812 162.239 207.746 162.197 207.698 162.137C207.651 162.077 207.625 162.003 207.625 161.927C207.625 161.851 207.651 161.777 207.698 161.717C207.746 161.657 207.812 161.615 207.886 161.598C209.625 161.246 211.397 161.084 213.171 161.113C214.945 161.093 216.716 161.256 218.456 161.598C218.529 161.616 218.594 161.659 218.641 161.718C218.688 161.778 218.713 161.851 218.713 161.927C218.713 162.003 218.688 162.076 218.641 162.136C218.594 162.195 218.529 162.238 218.456 162.256Z" fill="#FFBF9E"/>
<path d="M114.061 162.256C111.448 162.747 108.781 162.875 106.133 162.638C105.244 162.576 104.361 162.449 103.491 162.256C103.417 162.239 103.35 162.197 103.303 162.137C103.255 162.077 103.229 162.003 103.229 161.927C103.229 161.851 103.255 161.777 103.303 161.717C103.35 161.657 103.417 161.615 103.491 161.598C105.23 161.246 107.002 161.084 108.776 161.113C110.549 161.093 112.32 161.256 114.061 161.598C114.134 161.616 114.199 161.659 114.246 161.718C114.292 161.778 114.318 161.851 114.318 161.927C114.318 162.003 114.292 162.076 114.246 162.136C114.199 162.195 114.134 162.238 114.061 162.256Z" fill="#FFBF9E"/>
<path d="M161.302 104.445C161.793 107.057 161.921 109.724 161.684 112.372C161.622 113.261 161.495 114.144 161.302 115.014C161.285 115.088 161.243 115.155 161.183 115.202C161.123 115.25 161.049 115.276 160.973 115.276C160.897 115.276 160.822 115.25 160.763 115.202C160.703 115.155 160.661 115.088 160.644 115.014C160.292 113.275 160.129 111.503 160.159 109.729C160.139 107.956 160.301 106.185 160.644 104.445C160.662 104.371 160.704 104.306 160.764 104.259C160.824 104.213 160.897 104.188 160.973 104.188C161.049 104.188 161.122 104.213 161.182 104.259C161.241 104.306 161.284 104.371 161.302 104.445Z" fill="#FFBF9E"/>
<path d="M161.302 208.841C161.792 211.453 161.921 214.12 161.684 216.768C161.622 217.657 161.495 218.54 161.302 219.41C161.285 219.484 161.243 219.551 161.183 219.598C161.123 219.646 161.049 219.672 160.973 219.672C160.897 219.672 160.822 219.646 160.763 219.598C160.703 219.551 160.661 219.484 160.644 219.41C160.292 217.671 160.129 215.899 160.159 214.125C160.139 212.352 160.301 210.581 160.644 208.841C160.662 208.767 160.704 208.702 160.764 208.655C160.824 208.609 160.897 208.583 160.973 208.583C161.049 208.583 161.122 208.609 161.182 208.655C161.241 208.702 161.284 208.767 161.302 208.841Z" fill="#FFBF9E"/>
<path d="M160.974 227.376C159.479 227.376 157.927 227.321 156.361 227.21C155.769 227.168 155.168 227.17 154.532 227.173C153.595 227.199 152.656 227.156 151.725 227.045C150.265 226.837 148.729 226.56 147.16 226.22C146.237 225.999 145.331 225.711 144.45 225.358C143.864 225.139 143.31 224.933 142.753 224.769C141.851 224.484 140.971 224.134 140.12 223.723C139.556 223.467 139.023 223.225 138.48 223.022C137.876 222.824 137.254 222.682 136.623 222.598C135.703 222.484 134.803 222.248 133.946 221.896C133.117 221.485 132.332 220.991 131.603 220.421C131.104 220.038 130.581 219.688 130.037 219.372C128.766 218.676 127.553 217.895 126.381 217.139L126.11 216.964C125.151 216.347 124.259 215.66 123.395 214.996C123.066 214.743 122.737 214.489 122.403 214.239C121.983 213.924 121.554 213.623 121.126 213.322C120.289 212.754 119.482 212.143 118.707 211.493C117.529 210.471 116.394 209.415 115.333 208.355C114.876 207.92 114.391 207.515 113.881 207.142C113.131 206.604 112.438 205.992 111.812 205.313C111.23 204.598 110.725 203.823 110.305 203.003C110.012 202.442 109.681 201.902 109.315 201.385C108.674 200.531 108.123 199.632 107.59 198.762C107.335 198.347 107.081 197.931 106.816 197.519C106.613 197.204 106.408 196.892 106.203 196.58C105.582 195.635 104.94 194.658 104.373 193.621C103.59 192.191 102.913 190.846 102.302 189.509C101.84 188.5 101.471 187.463 101.115 186.46C100.966 186.044 100.818 185.627 100.663 185.21C100.456 184.657 100.197 184.114 99.9227 183.539C99.4994 182.707 99.1439 181.842 98.8598 180.954C98.6973 180.399 98.494 179.848 98.2788 179.264C97.9287 178.377 97.6417 177.467 97.4198 176.54C97.2524 175.636 97.1761 174.717 97.1919 173.798C97.1963 173.164 97.1613 172.53 97.0869 171.901C97.0036 171.316 96.8579 170.722 96.704 170.094C96.4568 169.195 96.2875 168.276 96.1982 167.347C96.1169 166.196 96.1286 165.03 96.1398 163.903C96.1438 163.507 96.1477 163.111 96.1477 162.715C96.1477 162.376 96.1456 162.037 96.1435 161.699C96.1359 160.515 96.1285 159.29 96.2133 158.084C96.3027 157.156 96.472 156.237 96.7193 155.338C96.8735 154.71 97.0191 154.117 97.1024 153.532C97.2874 152.235 97.5653 150.97 97.8341 149.748L97.9945 149.015C98.1107 148.389 98.1806 147.756 98.2036 147.12C98.2282 146.201 98.3563 145.287 98.5855 144.396C98.8724 143.494 99.2254 142.614 99.6417 141.764C99.905 141.192 100.154 140.652 100.358 140.106C100.717 139.195 101.129 138.306 101.593 137.444C101.859 136.927 102.11 136.438 102.339 135.937C102.584 135.401 102.79 134.842 103.009 134.25C103.313 133.363 103.682 132.499 104.114 131.667C104.642 130.702 105.249 129.795 105.836 128.917C106.092 128.535 106.347 128.154 106.596 127.768L106.679 127.639C107.468 126.413 108.284 125.146 109.184 123.945C109.537 123.474 109.859 122.97 110.201 122.437C110.689 121.632 111.236 120.863 111.837 120.138C112.923 118.886 113.984 117.74 114.992 116.733C115.663 116.099 116.395 115.534 117.178 115.044C117.708 114.705 118.218 114.333 118.704 113.932C119.99 112.816 121.088 111.892 122.267 111.008C122.725 110.665 123.164 110.294 123.63 109.902C124.349 109.268 125.109 108.682 125.905 108.147C126.754 107.621 127.63 107.141 128.531 106.71C129.036 106.457 129.513 106.218 129.984 105.961C130.939 105.438 131.931 105.006 132.89 104.589C133.317 104.403 133.745 104.217 134.17 104.023C134.732 103.75 135.278 103.445 135.804 103.11C136.581 102.604 137.404 102.174 138.263 101.826C139.22 101.487 140.194 101.198 141.18 100.96C141.695 100.827 142.21 100.693 142.719 100.544C144.041 100.157 145.607 99.7137 147.194 99.3702C147.521 99.2991 147.85 99.2265 148.178 99.1526C149.331 98.8951 150.522 98.6291 151.735 98.4561C152.771 98.3084 153.817 98.2613 154.829 98.2159C155.338 98.193 155.847 98.1703 156.355 98.1345C156.857 98.0991 157.361 98.0501 157.866 98.0009C158.873 97.903 159.914 97.8018 160.974 97.8018C161.899 97.8315 162.818 97.965 163.713 98.1999C164.321 98.3534 164.94 98.4619 165.565 98.5247C166.203 98.5495 166.842 98.5231 167.475 98.4459C168.385 98.327 169.306 98.3164 170.218 98.4142C171.132 98.5782 172.023 98.8565 172.867 99.2426C173.442 99.499 174.037 99.706 174.647 99.8612C175.206 99.9823 175.768 100.073 176.363 100.168C177.31 100.3 178.248 100.492 179.171 100.743L179.22 100.758C180.651 101.177 182.13 101.611 183.565 102.147C184.11 102.35 184.671 102.519 185.265 102.698C186.181 102.953 187.078 103.27 187.951 103.647C188.964 104.11 189.931 104.659 190.865 105.19C191.253 105.41 191.64 105.63 192.029 105.843C192.827 106.308 193.581 106.847 194.28 107.45C194.755 107.852 195.251 108.228 195.768 108.576L196.279 108.904C197.373 109.606 198.503 110.331 199.583 111.14C200.056 111.495 200.563 111.816 201.099 112.155C201.901 112.635 202.665 113.175 203.385 113.771C204.069 114.395 204.698 115.076 205.265 115.807C205.676 116.308 206.064 116.781 206.487 117.203C207.594 118.31 208.625 119.485 209.586 120.594C209.947 121.01 210.323 121.407 210.721 121.827C211.406 122.524 212.051 123.26 212.651 124.032C213.277 124.866 213.809 125.747 214.324 126.598C214.589 127.037 214.855 127.477 215.134 127.91C215.484 128.428 215.865 128.924 216.274 129.397C216.884 130.09 217.426 130.839 217.892 131.636C218.495 132.739 219.015 133.89 219.518 135.003L219.885 135.812C220.039 136.148 220.196 136.483 220.353 136.819C220.839 137.857 221.342 138.931 221.757 140.044C222.073 140.947 222.33 141.87 222.527 142.807C222.665 143.402 222.795 143.964 222.957 144.516C223.146 145.111 223.37 145.694 223.627 146.263C224.018 147.105 224.327 147.984 224.549 148.886C224.719 149.793 224.806 150.713 224.808 151.636C224.816 152.266 224.858 152.894 224.935 153.519C225.015 154.084 225.131 154.649 225.254 155.248C225.467 156.183 225.617 157.131 225.704 158.086C225.742 159.002 225.694 159.918 225.561 160.824C225.475 161.451 225.425 162.083 225.411 162.715C225.411 164.019 225.317 165.299 225.226 166.536L225.122 167.995C225.036 169.267 224.946 170.583 224.76 171.886C224.678 172.464 224.632 173.046 224.583 173.662C224.529 174.607 224.411 175.547 224.23 176.476C224.136 176.914 224.048 177.354 223.96 177.793C223.749 178.845 223.532 179.931 223.221 180.993C223.094 181.426 222.974 181.863 222.854 182.299C222.569 183.333 222.274 184.402 221.888 185.436C221.54 186.296 221.112 187.123 220.611 187.904C220.28 188.432 219.978 188.977 219.706 189.539C219.465 190.067 219.256 190.613 219.035 191.191C218.715 192.085 218.335 192.956 217.896 193.799C217.161 195.144 216.339 196.436 215.491 197.753C214.97 198.519 214.383 199.239 213.738 199.905C213.3 200.382 212.887 200.833 212.529 201.31C212.164 201.824 211.832 202.36 211.535 202.916C211.109 203.732 210.602 204.502 210.02 205.215C209.395 205.891 208.696 206.495 207.938 207.017C207.421 207.381 206.931 207.781 206.471 208.214C206.038 208.674 205.638 209.165 205.276 209.683C204.756 210.443 204.152 211.142 203.476 211.767C202.454 212.653 201.304 213.572 199.856 214.657C199.044 215.245 198.201 215.789 197.33 216.287C196.849 216.574 196.394 216.845 195.945 217.133C194.649 217.968 193.313 218.763 191.977 219.494C190.406 220.354 189.097 221.018 187.858 221.585C187.331 221.826 186.813 222.107 186.266 222.404C185.44 222.877 184.582 223.291 183.698 223.643C182.77 223.97 181.824 224.242 180.865 224.46C180.297 224.6 179.76 224.732 179.229 224.888C178.323 225.132 177.401 225.309 176.469 225.419C175.845 225.507 175.256 225.59 174.678 225.715C173.086 226.06 171.492 226.303 170.144 226.495C169.603 226.572 169.066 226.673 168.499 226.78C167.537 226.979 166.564 227.123 165.586 227.209C164.01 227.32 162.458 227.376 160.974 227.376ZM154.972 224.853C155.481 224.853 156.001 224.86 156.524 224.897C158.036 225.004 159.533 225.058 160.974 225.058C162.404 225.058 163.901 225.003 165.423 224.896C166.312 224.815 167.196 224.684 168.07 224.501C168.638 224.394 169.225 224.284 169.817 224.199C171.125 224.013 172.667 223.778 174.188 223.449C174.848 223.306 175.507 223.213 176.144 223.122C176.965 223.027 177.778 222.874 178.577 222.663C179.156 222.493 179.743 222.349 180.31 222.209C181.182 222.012 182.043 221.765 182.888 221.47C183.67 221.155 184.429 220.786 185.16 220.366C185.718 220.063 186.295 219.75 186.894 219.476C188.081 218.933 189.342 218.293 190.864 217.46C192.152 216.755 193.44 215.989 194.69 215.184C195.172 214.873 195.667 214.579 196.144 214.295C196.944 213.839 197.718 213.34 198.465 212.802C199.868 211.751 200.977 210.865 201.957 210.015C202.502 209.499 202.989 208.925 203.412 208.305C203.841 207.694 204.316 207.115 204.832 206.575C205.371 206.06 205.948 205.585 206.557 205.155C207.177 204.731 207.751 204.242 208.268 203.696C208.746 203.099 209.164 202.456 209.515 201.777C209.861 201.133 210.248 200.513 210.674 199.919C211.101 199.351 211.573 198.836 212.029 198.338C212.584 197.768 213.09 197.152 213.542 196.498C214.366 195.218 215.163 193.964 215.863 192.686C216.25 191.935 216.586 191.159 216.869 190.363C217.094 189.776 217.326 189.17 217.598 188.574C217.905 187.934 218.247 187.312 218.623 186.71C219.049 186.05 219.415 185.352 219.716 184.625C220.066 183.687 220.334 182.714 220.618 181.683C220.742 181.234 220.866 180.786 220.996 180.341C221.279 179.377 221.477 178.387 221.686 177.339C221.777 176.887 221.867 176.436 221.964 175.986C222.122 175.158 222.225 174.321 222.272 173.479C222.321 172.855 222.372 172.209 222.465 171.56C222.639 170.341 222.722 169.125 222.809 167.838L222.914 166.366C223.006 165.115 223.093 163.934 223.093 162.716C223.106 161.993 223.161 161.273 223.258 160.557C223.372 159.794 223.417 159.021 223.391 158.25C223.31 157.397 223.174 156.55 222.982 155.714C222.858 155.108 222.729 154.482 222.639 153.847C222.55 153.138 222.501 152.425 222.491 151.71C222.491 150.928 222.422 150.147 222.283 149.377C222.09 148.62 221.826 147.882 221.494 147.174C221.201 146.521 220.946 145.852 220.732 145.169C220.551 144.552 220.407 143.931 220.268 143.331C220.093 142.492 219.865 141.665 219.585 140.856C219.202 139.83 218.719 138.799 218.253 137.803C218.093 137.46 217.933 137.119 217.777 136.777L217.405 135.958C216.92 134.885 216.418 133.775 215.858 132.75C215.461 132.084 215.002 131.457 214.488 130.877C214.019 130.333 213.584 129.762 213.184 129.166C212.894 128.714 212.617 128.256 212.34 127.799C211.832 126.959 211.352 126.166 210.795 125.423C210.248 124.723 209.661 124.055 209.038 123.422C208.64 123.002 208.229 122.568 207.834 122.114C206.862 120.992 205.901 119.897 204.847 118.843C204.344 118.341 203.901 117.801 203.473 117.279C202.987 116.65 202.449 116.063 201.866 115.523C201.233 115.004 200.563 114.534 199.86 114.115C199.309 113.767 198.739 113.406 198.192 112.996C197.18 112.237 196.134 111.567 195.027 110.856L194.512 110.526C193.924 110.132 193.358 109.706 192.817 109.25C192.225 108.736 191.589 108.277 190.916 107.878C190.516 107.659 190.119 107.433 189.72 107.207C188.829 106.701 187.908 106.177 186.986 105.756C186.209 105.423 185.41 105.144 184.595 104.919C183.992 104.737 183.369 104.549 182.755 104.32C181.398 103.813 180.023 103.41 178.567 102.984L178.518 102.969C177.689 102.746 176.846 102.575 175.995 102.458C175.396 102.362 174.777 102.263 174.156 102.128C173.413 101.946 172.688 101.699 171.989 101.389C171.319 101.08 170.615 100.852 169.891 100.711C169.157 100.643 168.419 100.658 167.688 100.756C166.93 100.846 166.165 100.873 165.402 100.839C164.661 100.769 163.927 100.644 163.205 100.463C162.476 100.269 161.728 100.155 160.973 100.121C160.027 100.121 159.086 100.213 158.09 100.31C157.564 100.361 157.04 100.412 156.518 100.448C155.991 100.486 155.462 100.51 154.933 100.533C153.932 100.578 152.987 100.621 152.062 100.753C150.939 100.913 149.793 101.169 148.684 101.416C148.35 101.491 148.017 101.565 147.684 101.637C146.17 101.965 144.654 102.394 143.371 102.771C142.839 102.926 142.3 103.066 141.762 103.206C140.853 103.424 139.955 103.689 139.074 103.999C138.353 104.299 137.662 104.664 137.01 105.092C136.406 105.475 135.78 105.823 135.135 106.132C134.697 106.332 134.256 106.524 133.815 106.716C132.861 107.131 131.96 107.523 131.097 107.996C130.589 108.274 130.07 108.533 129.569 108.784C128.743 109.178 127.939 109.616 127.16 110.097C126.449 110.579 125.769 111.106 125.125 111.675C124.655 112.071 124.17 112.481 123.658 112.864C122.535 113.707 121.473 114.601 120.223 115.684C119.666 116.149 119.08 116.579 118.47 116.971C117.814 117.379 117.199 117.848 116.632 118.373C115.663 119.342 114.639 120.447 113.59 121.658C113.063 122.299 112.584 122.977 112.154 123.687C111.805 124.233 111.444 124.797 111.04 125.337C110.189 126.471 109.396 127.704 108.629 128.895L108.546 129.024C108.29 129.421 108.027 129.815 107.764 130.208C107.179 131.082 106.627 131.907 106.149 132.78C105.773 133.514 105.45 134.274 105.185 135.055C104.961 135.66 104.73 136.287 104.448 136.902C104.197 137.451 103.922 137.987 103.656 138.504C103.234 139.286 102.858 140.092 102.531 140.918C102.297 141.545 102.018 142.15 101.748 142.735C101.381 143.483 101.067 144.257 100.811 145.05C100.634 145.776 100.536 146.519 100.518 147.267C100.489 148.019 100.404 148.767 100.261 149.506L100.099 150.246C99.8278 151.482 99.5713 152.649 99.3986 153.86C99.299 154.559 99.1326 155.237 98.9715 155.892C98.7575 156.664 98.6088 157.452 98.5269 158.248C98.4482 159.366 98.4553 160.492 98.4629 161.685C98.465 162.029 98.4672 162.372 98.4672 162.716C98.4672 163.12 98.4629 163.524 98.4591 163.927C98.4478 165.059 98.437 166.127 98.5118 167.185C98.5937 167.982 98.7424 168.771 98.9564 169.543C99.1172 170.198 99.2835 170.876 99.383 171.575C99.4722 172.301 99.5148 173.032 99.5108 173.764C99.4954 174.53 99.5543 175.296 99.6866 176.05C99.8865 176.871 100.143 177.677 100.455 178.463C100.674 179.057 100.901 179.672 101.086 180.302C101.336 181.072 101.647 181.821 102.016 182.541C102.3 183.136 102.594 183.752 102.836 184.4C102.995 184.828 103.148 185.257 103.3 185.684C103.655 186.684 103.991 187.628 104.411 188.546C104.999 189.831 105.652 191.128 106.408 192.509C106.93 193.464 107.519 194.359 108.141 195.307C108.35 195.626 108.558 195.945 108.766 196.265C109.04 196.691 109.304 197.121 109.568 197.551C110.096 198.414 110.595 199.228 111.171 199.995C111.601 200.596 111.99 201.225 112.334 201.879C112.678 202.557 113.091 203.199 113.565 203.795C114.09 204.353 114.669 204.859 115.294 205.304C115.884 205.737 116.445 206.209 116.973 206.716C118.009 207.752 119.074 208.742 120.227 209.742C120.942 210.341 121.688 210.903 122.46 211.426C122.908 211.74 123.356 212.055 123.795 212.385C124.136 212.641 124.473 212.9 124.81 213.159C125.674 213.824 126.489 214.451 127.366 215.016L127.638 215.191C128.828 215.958 129.953 216.683 131.15 217.338C131.783 217.702 132.392 218.106 132.972 218.55C133.576 219.025 134.226 219.44 134.911 219.788C135.585 220.05 136.288 220.226 137.006 220.312C137.783 220.417 138.548 220.597 139.291 220.85C139.91 221.081 140.505 221.352 141.08 221.613C141.832 221.978 142.61 222.289 143.406 222.545C144.043 222.732 144.662 222.963 145.261 223.186C146.039 223.499 146.837 223.755 147.651 223.954C149.166 224.282 150.647 224.55 152.053 224.75C152.873 224.844 153.698 224.879 154.523 224.855C154.671 224.854 154.821 224.853 154.972 224.853Z" fill="#181C56"/>
</svg>
