<?xml version="1.0" encoding="utf-8"?>
<!-- Generator: Adobe Illustrator 24.0.1, SVG Export Plug-In . SVG Version: 6.00 Build 0)  -->
<svg version="1.1" id="Layer_1" xmlns="http://www.w3.org/2000/svg" xmlns:xlink="http://www.w3.org/1999/xlink" x="0px" y="0px"
	 width="42.1553574px" height="16px" viewBox="0 0 42.1553574 16" enable-background="new 0 0 42.1553574 16" xml:space="preserve">
<path fill="#FFFFFF" d="M0.1100507,3.1605995C0.1071711,3.1062877,0.1037835,3.0718033,0.1037522,3.0373156
	C0.1033833,2.6303339,0.1033421,2.223352,0.1036308,1.8163698c0.0000799-0.1126715,0.0004949-0.1133393,0.1051876-0.1470119
	c0.97294-0.3129252,1.9567745-0.5855719,2.9605215-0.7806649C3.682198,0.7890108,4.1967983,0.6970033,4.7127514,0.614988
	c0.342876-0.0545034,0.689219-0.0881365,1.0346012-0.1256703c0.3107505-0.0337703,0.6218009-0.0681895,0.9336329-0.0877658
	c0.4136791-0.0259704,0.8283978-0.0348799,1.2423944-0.0563976c0.5986862-0.0311166,1.1971455-0.0102162,1.7951317,0.0107581
	c0.4217339,0.0147924,0.8428831,0.0513577,1.2637043,0.0854649c0.3347464,0.0271304,0.6686649,0.064632,1.0028076,0.0989236
	c0.0853453,0.0087585,0.170146,0.0228029,0.2651272,0.0357749c0.0292778-0.0293092,0.0617533-0.0621576,0.0945902-0.0946416
	c0.3440704-0.3403701,0.761838-0.5103118,1.2412968-0.4774152c0.6648827,0.0456193,1.1431427,0.3834695,1.4182959,0.994603
	c0.0334234,0.0742308,0.0701399,0.1138946,0.1534357,0.1345346c0.6962996,0.172542,1.3858709,0.36932,2.064868,0.6014009
	c0.1542416,0.0527191,0.3043995,0.1173768,0.477375,0.1846868c-0.2995186,0.3081465-0.5861549,0.6030407-0.8729172,0.8980641
	c-0.9401226-0.3141289-1.8867626-0.5711675-2.8576221-0.7769823c0.1352119-0.2799245,0.1232204-0.5337677-0.1084299-0.743184
	c-0.1716461-0.1551704-0.3779659-0.1893386-0.589139-0.0951325c-0.2682352,0.119663-0.3672037,0.3439735-0.341547,0.6406478
	C9.4659014,1.2756588,6.030952,1.3835976,2.6010695,2.1913145c0.0276275,0.0181415,0.039788,0.032047,0.0540009,0.0346205
	c1.8647952,0.3376751,3.5848875,1.0342894,5.1631808,2.0817537c0.1856456,0.1232066,0.3662782,0.2540727,0.5471272,0.3843122
	C8.4084091,4.7229891,8.4494638,4.7404261,8.5038109,4.7412c0.4263821,0.0060773,0.8529367,0.0093665,1.2789936,0.0253701
	c0.2888851,0.0108514,0.5772667,0.0383396,0.8654728,0.0630713c0.2568302,0.0220408,0.5136719,0.0459552,0.7694845,0.0773644
	c0.2866068,0.0351925,0.5736752,0.0708375,0.8576555,0.1222386c0.4601994,0.0832953,0.9198475,0.1713886,1.3765268,0.2719927
	c1.2366409,0.2724257,2.4370127,0.6610904,3.6062937,1.1464653c0.0251198,0.0104256,0.0507565,0.0195994,0.0907803,0.0349784
	c0.4127865-0.4079132,0.8292198-0.8194284,1.2589912-1.2441244c-0.9656868-0.4729061-1.9507465-0.8673344-2.9440737-1.2040629
	c0.2962351-0.2962594,0.5938616-0.593909,0.9036207-0.9036901c1.3606911,0.4798219,2.6861763,1.1028321,3.9789162,1.8077304
	c-0.1286736,0.1302567-0.2535934,0.259203-0.381176,0.3854537c-0.7537918,0.7459164-1.5081997,1.4912071-2.2623997,2.2367096
	c-0.0751381,0.0742722-0.1501465,0.1486797-0.2254448,0.2227883c-0.0705318,0.0694132-0.070631,0.0691895-0.1606808,0.0312972
	c-0.3883762-0.1634264-0.7732639-0.3358202-1.1658401-0.4884486c-1.0627995-0.4132028-2.1522474-0.7386522-3.2691383-0.9717011
	c-0.488862-0.1020045-0.9789553-0.1965098-1.4748802-0.2556953c-0.4380102-0.0522747-0.877017-0.0963774-1.3158531-0.1414762
	C10.1441011,5.9423575,9.996314,5.9353061,9.8255396,5.9228721c2.7374735,2.7592874,4.1157846,6.0619731,4.1546049,9.9223652
	c-0.0947609,0.0288706-0.9593945,0.0369835-1.1523685,0.0138674c-0.0029364-0.0238371-0.0079365-0.0496416-0.0090399-0.0756121
	c-0.0149364-0.3516464-0.0190926-0.7041025-0.0460339-1.0548134c-0.0524836-0.6831408-0.1660767-1.3573141-0.3340569-2.0218525
	c-0.4774923-1.888979-1.3470926-3.5767908-2.6043406-5.0647216C9.3125362,7.0246,8.733922,6.4648356,8.1062365,5.9553571
	c-0.0556288-0.0451531-0.109972-0.0608339-0.1815848-0.056304c-0.265389,0.0167851-0.5314879,0.0225067-0.796813,0.040062
	C6.901803,5.9540725,6.6762633,5.9776406,6.4508758,6.0009875C6.2373271,6.023108,6.0236015,6.0452738,5.81113,6.0756469
	C5.4366455,6.12918,5.0613904,6.1798954,4.6894646,6.2481689C4.0529714,6.3650103,3.422612,6.5107799,2.7999949,6.6884394
	C2.7627785,6.699059,2.7259026,6.7108707,2.6668804,6.7288108C2.9594128,6.829134,3.2363193,6.9143763,3.5056145,7.0191712
	c0.272414,0.1060095,0.5419738,0.2218723,0.804157,0.3509393c0.2624617,0.1292038,0.519712,0.2711668,0.7691827,0.4239645
	C5.325325,7.9449773,5.5654001,8.1080332,5.7966461,8.2812271c0.2345457,0.1756659,0.46209,0.3623161,0.6794777,0.5587845
	c0.2174196,0.1964931,0.4264121,0.4038115,0.624474,0.6197939c0.1980357,0.2159557,0.3865237,0.442029,0.5634265,0.6756077
	c0.1768293,0.2334824,0.3433104,0.4760723,0.4974079,0.7251358c0.1540155,0.2489347,0.2965717,0.5061207,0.42665,0.7683678
	c0.1300049,0.2621012,0.248333,0.5311041,0.3533344,0.8041735c0.1035671,0.2693357,0.1937904,0.5448112,0.2719021,0.8226414
	c0.0791912,0.2816687,0.1471519,0.5675354,0.2002134,0.8552151c0.0530949,0.2878637,0.0881481,0.5795565,0.1191845,0.870842
	c0.030962,0.2905951,0.0385542,0.5829382,0.0314188,0.8814344c-0.3861885,0-0.7603273,0-1.1441088,0
	c-0.0192471-2.2880545-0.8056107-4.2687235-2.4260821-5.8887835C4.3771009,8.3580065,2.3990088,7.5780554,0.1124247,7.552196
	c-0.003204-0.0341845-0.0084555-0.0644774-0.0085124-0.0947795c-0.0006034-0.320889,0.0020885-0.6418128-0.0022-0.9626446
	c-0.0010137-0.075839,0.028348-0.1089053,0.0948088-0.1355038c1.0332264-0.4135094,2.0892756-0.7563877,3.1738539-1.0057731
	c0.5315893-0.122232,1.067652-0.2271471,1.6048038-0.3223324C5.3475409,4.9651775,5.7251906,4.928956,6.1005435,4.8799405
	C6.2084928,4.8658442,6.3166714,4.8535051,6.4295363,4.839777C6.3218737,4.7089396,5.2199101,4.171473,4.4497228,3.8982985
	C3.753886,3.6514938,3.0429287,3.461297,2.3152492,3.3373489C1.5902768,3.2138617,0.8593799,3.1511257,0.1100507,3.1605995z"/>
<path fill="#FFFFFF" d="M18.6624393,10.1403017c0.2623062-0.0318022,0.5169353-0.0666389,0.7724895-0.0922718
	c0.1709347-0.0171432,0.3431034-0.0229921,0.5148621-0.0307541c0.3757668-0.0169821,0.7497921-0.0053139,1.118906,0.076519
	c0.2822685,0.0625811,0.5406246,0.1811476,0.773098,0.3503199c0.6152592,0.4477291,0.5924644,1.2413893,0.2394371,1.7234583
	c-0.2060699,0.2813911-0.4870892,0.4572763-0.8086548,0.5764322c-0.0327988,0.0121527-0.06604,0.0231037-0.0989132,0.0350666
	c-0.0023136,0.000843-0.0032501,0.0054817-0.0096016,0.0170507c0.0302238,0.0141745,0.059576,0.0294352,0.0900383,0.0419989
	c0.486742,0.2007542,0.7555504,0.5646315,0.8037167,1.0871754c0.0553474,0.6004286-0.1833363,1.0723934-0.6476307,1.4405756
	c-0.3034172,0.2406082-0.6550846,0.3746967-1.0290108,0.4559145c-0.375227,0.0814991-0.7554855,0.1224966-1.139431,0.1179867
	c-0.3439922-0.0040398-0.6882496-0.0092993-1.031702-0.0272064c-0.2049389-0.010685-0.408556-0.0467682-0.6266022-0.0731058
	C17.9445896,13.9319038,18.302393,12.0420275,18.6624393,10.1403017z M19.2959347,13.293685
	c-0.1041183,0.5510788-0.2057877,1.0892029-0.3073311,1.6266527c0.214983,0.0499525,0.6010342,0.0466223,0.8320236,0.0071249
	c0.2088261-0.0357056,0.4091854-0.0984659,0.58428-0.2251129c0.2855282-0.206521,0.4050903-0.5711784,0.2964153-0.9057007
	c-0.079277-0.2440367-0.264534-0.3708134-0.4968491-0.4365616C19.9115276,13.2771797,19.6102371,13.2895412,19.2959347,13.293685z
	 M19.48773,12.3799667c0.2315445-0.0076323,0.4495239-0.0095797,0.6667156-0.0236177
	c0.176569-0.0114107,0.3445358-0.0627699,0.5008297-0.1483221c0.1151123-0.0630083,0.2128429-0.1453028,0.2839203-0.2566748
	c0.2369556-0.3712807,0.0708599-0.8041954-0.3534889-0.9152174c-0.0825272-0.0215912-0.1686363-0.0329819-0.2538433-0.0401335
	c-0.1953735-0.0163918-0.3889351,0.0001698-0.5857944,0.0397482C19.6604633,11.481184,19.575985,11.920743,19.48773,12.3799667z"/>
<path fill="#FFFFFF" d="M31.0874157,15.8926115c-0.4171371,0-0.8230648,0-1.2478237,0
	c0.3853607-2.0526085,0.7724724-4.0961475,1.1590099-6.1443243c0.4171181,0,0.8264561,0,1.2514591,0
	c-0.2289429,1.2174978-0.4566498,2.4284058-0.6897812,3.6681709c0.0413132-0.0474348,0.0641689-0.0726366,0.0858974-0.0987778
	c0.4376736-0.5264883,0.8753796-1.052949,1.3124828-1.5799065c0.0383682-0.046257,0.0744553-0.0816441,0.1444931-0.0811176
	c0.4618149,0.0034723,0.9236679,0.0018673,1.3855095,0.0022068c0.0154457,0.0000124,0.0308952,0.0031033,0.0453796,0.0046549
	c0.0022316,0.0055685,0.0040894,0.0090771,0.0050011,0.0128136c0.0008202,0.0033855,0.0015411,0.0073071,0.0005913,0.010479
	c-0.0010796,0.0035915-0.0037384,0.0068874-0.0062714,0.0098276c-0.0076447,0.0088749-0.0150604,0.018033-0.0234489,0.0261641
	c-0.5731506,0.5554514-1.146389,1.1108093-1.7195053,1.666297c-0.002655,0.0025759-0.0036507,0.0068665-0.0132256,0.0257435
	c0.3844643,0.8150597,0.7734909,1.6397972,1.1680717,2.476306c-0.4725952,0-0.9286575,0-1.398777,0
	c-0.2426758-0.5885239-0.4875832-1.182456-0.7389069-1.7919483c-0.0797386,0.0764818-0.1431904,0.1520081-0.2204933,0.208621
	c-0.1970119,0.1442738-0.2745781,0.3405743-0.3079166,0.576292c-0.0448055,0.316802-0.1171265,0.629714-0.1777382,0.9442759
	C31.0977955,15.8472242,31.0932732,15.8658886,31.0874157,15.8926115z"/>
<path fill="#FFFFFF" d="M29.1826248,15.8926287c-0.3833981,0-0.7613716,0-1.1552086,0
	c0.0185871-0.2711916,0.0367584-0.5363703,0.0549297-0.801549c-0.0048981-0.0019979-0.0098-0.0039959-0.014698-0.0059958
	c-0.0229206,0.0344496-0.046484,0.068491-0.0686665,0.1034098c-0.181736,0.2861023-0.4096279,0.5234499-0.7209644,0.6686344
	c-0.3395157,0.1583271-0.6929817,0.1891632-1.0486641,0.071908c-0.4199295-0.1384344-0.6646023-0.4489202-0.7924576-0.8612204
	c-0.0789032-0.2544565-0.0870514-0.5165033-0.0677032-0.778532c0.0343838-0.4656858,0.156805-0.9073963,0.3907089-1.3143597
	c0.4137001-0.7197809,1.0367718-1.1521378,1.8413754-1.3307095c0.4353409-0.0966187,0.8745861-0.1012974,1.3167496-0.0515442
	c0.264286,0.0297384,0.5244732,0.0764608,0.7809582,0.1454544c0.0333614,0.0089731,0.0659542,0.020833,0.1072063,0.0340099
	c-0.0187588,0.1003637-0.0352669,0.1955481-0.054451,0.2901907c-0.1349907,0.6659451-0.2803154,1.329998-0.4019756,1.9983587
	c-0.0656357,0.3605652-0.0976181,0.7278223-0.1323509,1.0932407C29.1945496,15.3944874,29.1938534,15.6371565,29.1826248,15.8926287
	z M28.3939304,12.5461168c-0.0614834-0.0062437-0.1072025-0.0080309-0.1518574-0.0158777
	c-0.3173847-0.0557699-0.5943394,0.0383654-0.8439026,0.2289762c-0.1860619,0.1421099-0.3292122,0.3220406-0.4433594,0.5252514
	c-0.1935673,0.3446026-0.2992249,0.7114897-0.2757549,1.1100836c0.0083942,0.1425486,0.0410156,0.278532,0.1232586,0.3977852
	c0.0832176,0.1206694,0.2004433,0.1797762,0.3469105,0.1867247c0.1663265,0.0078926,0.3043289-0.0580168,0.4285374-0.1593533
	c0.138443-0.1129532,0.2400265-0.2558107,0.3246002-0.4118538c0.1011105-0.1865568,0.178093-0.3835621,0.2241611-0.5895338
	C28.2193108,13.403451,28.3020363,12.98633,28.3939304,12.5461168z"/>
<path fill="#FFFFFF" d="M38.5261574,11.7724342c-0.0305443,0.1562471-0.0587921,0.3050957-0.0888214,0.4535818
	c-0.1269035,0.6275425-0.2664909,1.2528496-0.3770828,1.8832455c-0.0673409,0.3838673-0.0948029,0.7750988-0.131279,1.1638556
	c-0.0189095,0.2015896-0.0184593,0.404995-0.0271072,0.6161385c-0.3769493,0-0.7542839,0-1.1461792,0
	c-0.0109749-0.2645092,0.0367813-0.5286722,0.028698-0.8001022c-0.0332985,0.0505142-0.0661163,0.1013536-0.0999794,0.1514854
	c-0.1874886,0.2775955-0.4202843,0.5036383-0.7327499,0.6371336c-0.3046379,0.1301546-0.6202774,0.1582079-0.9387665,0.0701466
	c-0.4651794-0.1286211-0.7312851-0.4560652-0.8630409-0.905549c-0.0530853-0.1810961-0.0738068-0.3676262-0.0700569-0.5562553
	c0.0097656-0.4914494,0.1124115-0.9614496,0.3394241-1.399539c0.402916-0.7775517,1.0431099-1.2485495,1.8914909-1.4407024
	c0.4344254-0.0983973,0.8741112-0.1033478,1.3162727-0.0545034c0.2681999,0.0296249,0.5321808,0.0769625,0.7924385,0.1468096
	C38.4493179,11.7462044,38.4784698,11.7570305,38.5261574,11.7724342z M37.1082153,12.5540848
	c-0.1985855-0.0428572-0.3855095-0.05826-0.5753136-0.0053692c-0.2578201,0.0718412-0.4646835,0.2199097-0.6358643,0.4197807
	c-0.291008,0.3397884-0.4532394,0.7362328-0.4984207,1.1797581c-0.0187798,0.1843109-0.0074768,0.3680325,0.0666161,0.5416307
	c0.1024704,0.2400799,0.3249817,0.3420429,0.5770226,0.2679024c0.2018509-0.0593805,0.3426018-0.1973429,0.4616852-0.3615417
	c0.1533928-0.2115135,0.257618-0.4480972,0.3190575-0.6997643c0.0795937-0.3260498,0.1437035-0.6558924,0.2135429-0.9843016
	C37.0615082,12.7947807,37.0837402,12.6768026,37.1082153,12.5540848z"/>
<path fill="#FFFFFF" d="M41.6787415,12.7900944c-0.0965691,0-0.1857872-0.0020733-0.2748795,0.0003824
	c-0.2930489,0.0080729-0.535305,0.1283684-0.7333183,0.3404198c-0.2104683,0.2253857-0.3393517,0.4973936-0.4154205,0.7909994
	c-0.0742989,0.286788-0.1297913,0.5786686-0.1870308,0.8695946c-0.0685768,0.3485689-0.1301804,0.6985102-0.1952286,1.0477762
	c-0.0027885,0.0149746-0.0098801,0.02915-0.017395,0.0506411c-0.4124908,0-0.8247032,0-1.2501335,0
	c0.0186157-0.1073208,0.0350685-0.2097378,0.0542679-0.3116388c0.1424141-0.7557611,0.2900352-1.5105801,0.4259644-2.2674999
	c0.0579185-0.3225393,0.0941887-0.6490936,0.1356926-0.9744081c0.0280952-0.2202539,0.0481644-0.4415312,0.071537-0.6596289
	c0.1127014-0.026494,0.9992027-0.0247097,1.0948868,0.0016775c-0.0124969,0.1347523-0.0256653,0.2703953-0.0375023,0.4061527
	c-0.0115051,0.131958-0.0216522,0.2640314-0.0149345,0.4036131c0.0180588-0.026391,0.0376282-0.0518847,0.0539398-0.0793133
	c0.1374397-0.2310381,0.3069115-0.4338512,0.5258255-0.5921059c0.2809868-0.2031307,0.5952148-0.2841835,0.9396858-0.2496023
	c0.01894,0.0019035,0.0375786,0.0067863,0.0664864,0.012167C41.8401108,11.9841871,41.760067,12.3839369,41.6787415,12.7900944z"/>
<path fill="#FFFFFF" d="M25.4260273,12.7902269c-0.0558052,0-0.0985279,0.0022106-0.1409664-0.0003433
	c-0.4194355-0.0252457-0.742178,0.1464672-0.9830379,0.4831123c-0.1756802,0.2455444-0.2833652,0.5224056-0.3457031,0.8145142
	c-0.0855675,0.4009628-0.1580048,0.804738-0.2351112,1.2074909c-0.0337849,0.176465-0.0648308,0.3534555-0.0981922,0.5300055
	c-0.0042095,0.0222692-0.0149574,0.0433083-0.0236301,0.0675955c-0.4124279,0-0.8220901,0-1.2398949,0
	c0.002037-0.0352278,0.0004711-0.0655594,0.0059566-0.0945587c0.158947-0.8405619,0.3255062-1.6797657,0.4750404-2.5219908
	c0.0682259-0.3842926,0.10396-0.7743959,0.1526318-1.1620913c0.0184097-0.1466656,0.0317459-0.2939701,0.0481186-0.4477997
	c0.3655949,0,0.72328,0,1.0927582,0c-0.0230942,0.2729006-0.0456696,0.5396786-0.068243,0.8064566
	c0.0069675,0.0033121,0.0139351,0.0066242,0.0209007,0.0099354c0.0196781-0.0296383,0.0404263-0.0586271,0.058857-0.0890188
	c0.1373901-0.2265482,0.3059921-0.4251719,0.5221672-0.5805473c0.2747192-0.1974506,0.5819664-0.2767668,0.9179821-0.2475376
	c0.0264225,0.0022993,0.0523624,0.0101595,0.08251,0.0162392C25.5875263,11.9841948,25.5078316,12.3819246,25.4260273,12.7902269z"
	/>
</svg>
