<?xml version="1.0" encoding="utf-8"?>
<!-- Generator: Adobe Illustrator 24.0.1, SVG Export Plug-In . SVG Version: 6.00 Build 0)  -->
<svg version="1.1" id="Layer_1" xmlns="http://www.w3.org/2000/svg" xmlns:xlink="http://www.w3.org/1999/xlink" x="0px" y="0px"
	 width="69.4px" height="16px" viewBox="0 0 69.4 16" style="enable-background:new 0 0 69.4 16;" xml:space="preserve">
<style type="text/css">
	.st0{clip-path:url(#SVGID_2_);}
	.st1{fill:#FFFFFF;}
</style>
<g>
	<g>
		<defs>
			<rect id="SVGID_1_" y="2" width="69.6" height="12"/>
		</defs>
		<clipPath id="SVGID_2_">
			<use xlink:href="#SVGID_1_"  style="overflow:visible;"/>
		</clipPath>
		<g class="st0">
			<path class="st1" d="M67,8.5c1.4,0.2,2.6,0.6,2.6,2c0,1.3-1.1,2.1-2.8,2.1c-1.6,0-2.7-0.7-2.9-1.9l1.5-0.2c0.1,0.7,0.6,1,1.4,1
				c0.7,0,1.2-0.3,1.2-0.8s-0.4-0.7-1.5-0.9C65,9.6,64,9.1,64,7.8c0-1.4,1.3-2,2.7-2c1.4,0,2.6,0.7,2.7,1.8l-1.5,0.3
				c-0.1-0.6-0.5-1-1.2-1c-0.6,0-1.1,0.3-1.1,0.8C65.6,8.2,66.2,8.3,67,8.5z"/>
			<path class="st1" d="M62.8,12.3h-1.5v-1c-0.4,0.7-1,1.1-2,1.1c-1.3,0-2.3-0.7-2.3-2.2V5.9h1.6V10c0,0.9,0.6,1.3,1.2,1.3
				c0.8,0,1.5-0.7,1.5-1.9V5.9h1.6L62.8,12.3L62.8,12.3z"/>
			<path class="st1" d="M55.9,9.1c0,2.1-1.3,3.4-3,3.4c-1.1,0-1.8-0.5-2.1-1.1v1h-1.5V2.8h1.6v3.9c0.4-0.5,1.1-1,2.1-1
				C54.7,5.7,55.9,7,55.9,9.1z M50.9,9.4c0,1.3,1,1.9,1.8,1.9c1,0,1.7-0.9,1.7-2.2c0-1.2-0.7-2.2-1.7-2.2c-0.8,0-1.8,0.5-1.8,1.9
				C50.9,8.8,50.9,9.4,50.9,9.4z"/>
			<path class="st1" d="M38,5.9h1.5v1c0.4-0.7,1-1.2,2-1.2c0.9,0,1.7,0.4,2,1.2c0.4-0.6,1.1-1.2,2.1-1.2c1.2,0,2.2,0.7,2.2,2.2v4.5
				h-1.6V8.3c0-0.9-0.5-1.3-1.1-1.3c-0.7,0-1.4,0.7-1.4,1.9v3.4h-1.6v-4C42.1,7.4,41.6,7,41,7c-0.7,0-1.4,0.7-1.4,1.9v3.4H38V5.9z"
				/>
			<path class="st1" d="M36.3,12.3h-1.5v-1c-0.4,0.7-1,1.1-2,1.1c-1.3,0-2.3-0.7-2.3-2.2V5.9h1.6V10c0,0.9,0.6,1.3,1.2,1.3
				c0.8,0,1.5-0.7,1.5-1.9V5.9h1.6L36.3,12.3z"/>
			<path class="st1" d="M27.4,2.8H29v9.5h-1.6V2.8z"/>
			<path class="st1" d="M26.3,9.1c0,2-1.3,3.4-3.3,3.4s-3.3-1.4-3.3-3.4S21,5.7,23,5.7C25,5.7,26.3,7.1,26.3,9.1z M24.7,9.1
				c0-1.2-0.5-2.2-1.7-2.2c-1.1,0-1.7,1-1.7,2.2s0.5,2.2,1.7,2.2C24.1,11.3,24.7,10.3,24.7,9.1z"/>
			<path class="st1" d="M14.6,7.8l-0.9,1v3.5h-1.6V2.8h1.6v4l3.8-4h1.9l-3.6,3.8l3.9,5.7h-2L14.6,7.8z"/>
			<path class="st1" d="M0,10.6V14l7.8-4.2V6.4L0,10.6z"/>
			<path class="st1" d="M0,2v3.3l3.8,2.1l3.1-1.7L0,2z"/>
		</g>
	</g>
</g>
</svg>
