<?xml version="1.0" encoding="utf-8"?>
<!-- Generator: Adobe Illustrator 24.0.1, SVG Export Plug-In . SVG Version: 6.00 Build 0)  -->
<svg version="1.1" id="Layer_1" xmlns="http://www.w3.org/2000/svg" xmlns:xlink="http://www.w3.org/1999/xlink" x="0px" y="0px"
	 width="63px" height="16px" viewBox="0 0 63 16" enable-background="new 0 0 63 16" xml:space="preserve">
<path fill="#FFFFFF" d="M8.3999996,9.9399948c0.0100002-1.4899998-0.98-2.2299995-3.3299999-2.6199994
	C4.0300002,7.1499958,3.4300001,7.0499959,3.21,6.9999957C2.51,6.8399959,2.2,6.5599957,2.2,6.1699958
	c0.01-0.29,0.1099999-0.4400001,0.47-0.5999999c0.3600001-0.1500001,0.98-0.2199998,1.8499999-0.2199998
	c0.8499999,0,1.6900001,0.0500002,2.71,0.1700001l0.1700001,0.02L7.6399999,3.949996L7.46,3.9299958
	c-1.1700001-0.1400001-2.4299998-0.2-3.3600001-0.2C1.46,3.7299957,0,4.4899955,0,6.1399956
	c-0.01,1.02,0.57,1.8099999,1.59,2.1699991c0.39,0.1499996,1.1799999,0.3100004,2.29,0.5200005
	C4.6599998,8.9699955,4.9500003,9.029995,5.2200003,9.1299953c0.6899996,0.25,0.9199996,0.5299997,0.9199996,0.8699999
	c-0.0100002,0.3100004-0.1700001,0.5299997-0.5799999,0.7200003c-0.4200001,0.1800003-1.0799999,0.29-1.95,0.29
	s-1.74-0.0500002-3.04-0.1899996L0.4,10.7999954l-0.03,0.1700001l-0.26,1.4700003l0.2,0.0200005
	c1.29,0.1199999,2.4200001,0.1899996,3.3800001,0.1899996C6.6999998,12.6499949,8.3999996,11.7699957,8.3999996,9.9399948"/>
<polygon fill="#FFFFFF" points="19.4099998,12.5499954 14.3199997,7.659996 19.3099995,3.7999961 16.4099998,3.7999961 
	12.3899994,6.8599963 11.9399996,6.8599963 11.9399996,-0.0000043 9.7600002,-0.0000043 9.7600002,12.5499954 
	11.9400005,12.5499954 11.9400005,8.4399948 12.3400002,8.4399948 16.5599995,12.5499945 "/>
<path fill="#FFFFFF" d="M29.7299995,12.239995V3.7999957h-2.2700005v7.0900002
	c-0.5900002,0.0799999-1.2700005,0.1400003-1.7399998,0.1400003c-2.6299992,0-2.9099998-0.79-2.9099998-2.2299995V3.7999969
	H20.539999v5.02c0,3.1099997,1.8500004,3.8599997,4.9200001,3.8599997c0.5900002,0,1.4699993-0.1000004,1.9799995-0.2299995
	c-0.0100002,0.5100002-0.0100002,1.1000004-0.3799992,1.4700003c-0.3400002,0.3400002-1.0799999,0.3999996-2.2399998,0.3999996
	c-1.0499992,0-2.2800007-0.1300001-3.3199997-0.29l-0.2700005,1.6199999
	c1.3999996,0.2399998,2.5599995,0.3500004,3.7000008,0.3500004C28.8400002,15.9999952,29.7299995,14.8699951,29.7299995,12.239995"
	/>
<path fill="#FFFFFF" d="M39.6100006,9.9399948c0.0200005-1.4899998-0.9799995-2.2299995-3.3300018-2.6199994
	c-1.0399971-0.1699996-1.6399994-0.2699995-1.8499985-0.3199997c-0.7000008-0.1599998-1.0099983-0.4499998-1.0099983-0.8299999
	c0.0099983-0.29,0.1100006-0.4400001,0.4700012-0.5999999c0.3600006-0.1500001,0.9799995-0.2199998,1.8499985-0.2199998
	c0.8499985,0,1.6899986,0.0500002,2.7099991,0.1700001l0.1699982,0.02l0.2400017-1.5900002l-0.1899986-0.02
	c-1.1699982-0.1400001-2.4399986-0.21-3.3699989-0.21c-2.6399994,0-4.0900002,0.77-4.1000004,2.4099998
	c-0.0100002,1.02,0.5799999,1.8099999,1.5899982,2.1699996c0.3899994,0.1499996,1.1800003,0.3100004,2.2900009,0.5199995
	c0.7799988,0.1400003,1.0699997,0.1999998,1.3400002,0.3000002c0.6899986,0.2600002,0.9199982,0.5299997,0.9199982,0.8699999
	c-0.0099983,0.3100004-0.1699982,0.5299997-0.5800018,0.7200003c-0.4199982,0.1800003-1.0800018,0.29-1.9500008,0.29
	s-1.7400017-0.0500002-3.0400009-0.1899996l-0.1700001-0.0200005l-0.0300007,0.1700001l-0.2600002,1.4700003l0.2000008,0.0200005
	c1.289999,0.1199999,2.4100018,0.1899996,3.3799992,0.1899996C37.9099998,12.6499949,39.6100006,11.7699957,39.6100006,9.9399948"/>
<path fill="#FFFFFF" d="M49.0200005,9.9399948c0.0099983-1.4899998-0.9799995-2.2299995-3.329998-2.6199994
	c-1.0400009-0.1699996-1.6300011-0.2699995-1.8500023-0.3199997c-0.7000008-0.1599998-1.0099983-0.4499998-1.0099983-0.8299999
	c0.0099983-0.29,0.1100006-0.4400001,0.4700012-0.5999999c0.3600006-0.1500001,0.9799995-0.2199998,1.8499985-0.2199998
	c0.8499985,0,1.6899986,0.0500002,2.7099991,0.1700001l0.1699982,0.02l0.2400017-1.5900002l-0.1899986-0.02
	c-1.1699982-0.1400001-2.4399986-0.21-3.3699989-0.21c-2.6399994,0-4.0999985,0.77-4.0999985,2.4099998
	c-0.0099983,1.02,0.5699997,1.8099999,1.5900002,2.1699996c0.3899994,0.1499996,1.1800003,0.3100004,2.2900009,0.5199995
	c0.7799988,0.1400003,1.0699997,0.1999998,1.3400002,0.3000002c0.6899986,0.2600002,0.9199982,0.5299997,0.9199982,0.8699999
	c-0.0099983,0.3100004-0.1699982,0.5299997-0.5800018,0.7200003c-0.4199982,0.1800003-1.0800018,0.29-1.9500008,0.29
	s-1.7400017-0.0500002-3.0400009-0.1899996l-0.1699982-0.0200005l-0.0299988,0.1700001l-0.2599983,1.4700003l0.2000008,0.0200005
	c1.2900009,0.1199999,2.4099998,0.1899996,3.3800011,0.1899996C47.3199997,12.6499949,49.0200005,11.7699957,49.0200005,9.9399948"
	/>
<path fill="#FFFFFF" d="M53.2800293,3.7999878c0,3.8400269,0,5.2800293,0.1999512,6.0900269
	c0.5400391,2.1399536,2.3000488,3.9899902,4.3800049,4.4299927C59.9299927,13.8800049,61.75,12.0299683,62.289978,9.8900146
	C62.5,9.0800171,62.5,7.6400146,62.5,3.7999878H53.2800293z M56.3699951,5.2600098
	c0.1500244,0.0899658,0.210022,0.2000122,0.2999878,0.3200073c0-0.1300049,0.0900269-0.2300415,0.210022-0.2300415
	s0.2199707,0.1000366,0.2199707,0.2200317S57,5.789978,56.8800049,5.789978c-0.0300293,0-0.0599976,0-0.0900269-0.0100098
	l0.3099976,0.4900513l0.6700439-0.2200317V5.4199829l-0.2800293,0.1600342l-0.1900024-0.1600342v-0.25l0.1900024-0.1599731
	l0.2800293,0.1599731l-0.1199951-0.3499756l0.25-0.2800293l0.25,0.2800293l-0.1300049,0.3499756l0.2799683-0.1599731
	l0.1799927,0.1699829v0.25L58.289978,5.5899658l-0.2799683-0.1599731v0.6300049l0.6599731,0.2199707l0.3000488-0.4899902
	c-0.0200195,0-0.0500488,0.0100098-0.0800171,0.0100098c-0.1199951,0-0.2200317-0.0999756-0.2200317-0.2199707
	s0.1000366-0.2200317,0.2200317-0.2200317s0.2099609,0.1099854,0.2099609,0.2299805
	c0.1000366-0.1199951,0.1600342-0.2299805,0.3000488-0.3199463c0.1599731-0.0900269,0.4899902-0.0900269,0.4899902-0.0900269
	l-0.7800293,0.8800049l-0.0700073,0.75c-0.1499634-0.1799927-0.6499634-0.2700195-1.1399536-0.2700195
	c-0.3699951,0-1,0.0599976-1.1500244,0.2800293l-0.0900269-0.7700195l-0.789978-0.8800049
	C55.8699951,5.1699829,56.2000122,5.1599731,56.3699951,5.2600098z M58.960022,6.9099731
	c0,0.0700073-0.3699951,0.2300415-1.0599976,0.2300415s-1.0599976-0.1600342-1.0599976-0.2300415
	c0-0.0599976,0.3599854-0.2199707,1.0599976-0.2199707C58.5900269,6.6900024,58.9500122,6.8499756,58.960022,6.9099731z
	 M61.4100342,8.4299927c-0.4800415,0.5599976-1.0300293,0.7399902-1.1600342,0.75
	c0.3300171-0.4000244,0.25-1.0599976-0.1500244-1.3900146l-0.289978-0.0499878l-1.6500244,1.960022l2.1500244,2.5599976
	L60,12.5200195l-2.0999756-2.5l-2.1099854,2.5099487l-0.3100586-0.2599487l2.1500244-2.5700073l-1.6500244-1.960022
	l-0.289978,0.0499878C55.289978,8.1199951,55.210022,8.7799683,55.539978,9.1799927
	c-0.1199951-0.0100098-0.6799927-0.1900024-1.1499634-0.75c-0.4700317-0.5599976-0.5499878-1.1400146-0.5400391-1.2700195
	c0.3300171,0.3900146,0.9900513,0.4299927,1.3900146,0.1000366l0.1000366-0.2900391l-0.2000122-0.2399902l0.3099976-0.2600098
	l0.2000122,0.2400513l0.2999878-0.0400391l0.4500122,0.5300293l-0.0900269,0.289978l1.5900269,1.9000244l1.5899658-1.9000244
	l-0.0899658-0.289978l0.4299927-0.5200195l0.2999878,0.039978l0.2000122-0.2399902l0.3099976,0.2600098l-0.2000122,0.2399902
	l0.0999756,0.2800293c0.3900146,0.3299561,1.0599976,0.289978,1.4100342-0.1000366
	C61.960022,7.289978,61.8800049,7.8699951,61.4100342,8.4299927z"/>
</svg>
