<svg width="1440" height="694" viewBox="0 0 1440 694" fill="none" xmlns="http://www.w3.org/2000/svg">
<g clip-path="url(#clip0_6214_28333)">
<rect x="0.816124" y="0.816124" width="694.985" height="691.837" stroke="#0082B9" stroke-width="1.63225"/>
<rect opacity="0.1" x="0.787138" y="0.787138" width="695.043" height="691.895" fill="#E1EFF8" stroke="#0082B9" stroke-width="1.57428"/>
<path d="M43.1213 336.483H40.2498V341.301H37.7372V327.926H43.1401C46.4461 327.926 48.0897 329.494 48.0897 332.063C48.0897 334.84 46.2005 336.483 43.1213 336.483ZM40.2498 330.042V334.424H42.8946C44.7081 334.424 45.5771 333.518 45.5771 332.157C45.5771 330.873 44.8215 330.042 42.8946 330.042H40.2498ZM49.4859 341.301V332.252H51.7906V333.669H51.8473C52.3196 332.705 53.3208 332.006 54.5109 332.006C54.7754 332.006 55.0021 332.025 55.2099 332.082V334.254C54.9643 334.179 54.5487 334.141 54.2654 334.141C52.6974 334.141 51.9039 335.369 51.9039 336.729V341.301H49.4859ZM65.7368 336.767C65.7368 339.638 63.5265 341.584 60.7684 341.584C58.0292 341.584 55.8378 339.638 55.8378 336.767C55.8378 333.914 58.0292 332.006 60.7684 332.006C63.5265 332.006 65.7368 333.914 65.7368 336.767ZM63.3187 336.767C63.3187 335.312 62.3931 334.047 60.7684 334.047C59.1815 334.047 58.237 335.312 58.237 336.767C58.237 338.24 59.1815 339.525 60.7684 339.525C62.3931 339.525 63.3187 338.24 63.3187 336.767ZM75.0362 339.997C74.3939 340.98 73.1282 341.546 71.8814 341.546C69.161 341.546 67.423 339.336 67.423 336.767C67.423 334.16 69.2177 332.006 71.9003 332.006C73.2604 332.006 74.2806 332.649 74.8851 333.442H74.9229V327.019H77.341V341.301H75.074V339.997H75.0362ZM69.9167 336.786C69.9167 338.221 70.8423 339.525 72.467 339.525C73.9972 339.525 75.0551 338.259 75.0551 336.786C75.0551 335.312 73.9972 334.047 72.467 334.047C70.8423 334.047 69.9167 335.331 69.9167 336.786ZM80.1096 337.296V332.252H82.5277V337.088C82.5277 338.448 83.0377 339.544 84.4924 339.544C85.9092 339.544 86.6082 338.278 86.6082 336.824V332.252H89.0452V341.301H86.6838V339.978H86.6271C86.1926 340.677 85.1158 341.509 83.8312 341.509C81.1864 341.509 80.1096 339.903 80.1096 337.296ZM98.059 341.301L95.6976 337.107L94.2996 338.543V341.301H91.8626V327.019H94.2996V335.936H94.3563L97.7189 332.252H100.76L97.4922 335.539L101.025 341.301H98.059ZM107.419 339.412V341.301H106.323C103.49 341.301 102.772 340.753 102.772 337.674V334.122H101.336V332.252H102.772V329.872H105.133V332.252H107.438V334.122H105.133V337.73C105.133 339.317 105.87 339.412 106.739 339.412H107.419ZM117.763 337.39H110.906C111.076 338.883 112.134 339.714 113.532 339.714C114.779 339.714 115.61 338.977 116.025 338.486L117.65 339.544C116.894 340.64 115.251 341.584 113.362 341.584C110.792 341.584 108.601 339.827 108.601 336.975C108.601 334.122 110.698 332.006 113.437 332.006C116.195 332.006 117.801 334.217 117.801 336.502C117.801 336.824 117.782 337.107 117.763 337.39ZM113.362 333.763C112.02 333.763 111.114 334.708 110.906 335.936H115.648C115.648 334.727 114.646 333.763 113.362 333.763ZM120.033 341.301V332.252H122.338V333.669H122.395C122.867 332.705 123.868 332.006 125.058 332.006C125.323 332.006 125.549 332.025 125.757 332.082V334.254C125.512 334.179 125.096 334.141 124.813 334.141C123.245 334.141 122.451 335.369 122.451 336.729V341.301H120.033ZM141.339 336.767C141.339 339.638 139.129 341.584 136.371 341.584C133.631 341.584 131.44 339.638 131.44 336.767C131.44 333.914 133.631 332.006 136.371 332.006C139.129 332.006 141.339 333.914 141.339 336.767ZM138.921 336.767C138.921 335.312 137.995 334.047 136.371 334.047C134.784 334.047 133.839 335.312 133.839 336.767C133.839 338.24 134.784 339.525 136.371 339.525C137.995 339.525 138.921 338.24 138.921 336.767ZM143.157 344.305L144.442 342.548C145.235 343.341 146.445 343.851 147.597 343.851C149.694 343.851 150.544 342.604 150.544 340.904V339.941H150.506C149.921 340.772 148.787 341.301 147.672 341.301C144.933 341.301 143.044 339.449 143.044 336.691C143.044 334.16 144.782 332.006 147.521 332.006C148.749 332.006 149.902 332.535 150.582 333.593H150.62V332.252H152.943V340.715C152.943 343.757 151.243 345.835 147.672 345.835C146.048 345.835 144.348 345.306 143.157 344.305ZM145.519 336.71C145.519 338.108 146.501 339.393 148.069 339.393C149.599 339.393 150.676 338.221 150.676 336.691C150.676 335.237 149.599 334.028 148.069 334.028C146.501 334.028 145.519 335.237 145.519 336.71ZM42.5356 362.412V364.301H41.4399C38.6062 364.301 37.8884 363.753 37.8884 360.674V357.122H36.4526V355.252H37.8884V352.872H40.2498V355.252H42.5545V357.122H40.2498V360.73C40.2498 362.317 40.9865 362.412 41.8555 362.412H42.5356ZM46.7212 355.252V364.225C46.7212 366.832 46.4568 368.835 43.1697 368.835H42.3573V366.813H42.7163C43.7364 366.813 44.3031 366.606 44.3031 365.056V355.252H46.7212ZM44.0764 351.889C44.0764 351.096 44.6999 350.435 45.5122 350.435C46.3245 350.435 46.9668 351.096 46.9668 351.889C46.9668 352.702 46.3245 353.306 45.5122 353.306C44.6999 353.306 44.0764 352.702 44.0764 351.889ZM58.1745 360.39H51.317C51.487 361.883 52.5449 362.714 53.9429 362.714C55.1897 362.714 56.0209 361.977 56.4365 361.486L58.0612 362.544C57.3055 363.64 55.662 364.584 53.7729 364.584C51.2036 364.584 49.0122 362.827 49.0122 359.975C49.0122 357.122 51.1092 355.006 53.8484 355.006C56.6066 355.006 58.2123 357.217 58.2123 359.502C58.2123 359.824 58.1934 360.107 58.1745 360.39ZM53.7729 356.763C52.4316 356.763 51.5248 357.708 51.317 358.936H56.0587C56.0587 357.727 55.0575 356.763 53.7729 356.763ZM69.5121 359.219V364.301H67.094V359.427C67.094 358.104 66.5651 356.971 65.186 356.971C63.807 356.971 62.8624 358.123 62.8624 359.729V364.301H60.4443V355.252H62.8057V356.631H62.8813C63.3158 355.819 64.4681 355.006 65.9417 355.006C68.5676 355.006 69.5121 356.99 69.5121 359.219ZM80.9216 360.39H74.0641C74.2341 361.883 75.292 362.714 76.6899 362.714C77.9368 362.714 78.768 361.977 79.1836 361.486L80.8083 362.544C80.0526 363.64 78.4091 364.584 76.5199 364.584C73.9507 364.584 71.7593 362.827 71.7593 359.975C71.7593 357.122 73.8562 355.006 76.5955 355.006C79.3536 355.006 80.9594 357.217 80.9594 359.502C80.9594 359.824 80.9405 360.107 80.9216 360.39ZM76.5199 356.763C75.1786 356.763 74.2719 357.708 74.0641 358.936H78.8058C78.8058 357.727 77.8045 356.763 76.5199 356.763ZM90.6723 356.499L89.2933 357.916C88.7076 357.349 87.4986 356.858 86.5729 356.858C85.7606 356.858 84.8727 357.122 84.8727 357.783C84.8727 358.444 85.7984 358.633 87.1019 358.841C89.1043 359.162 90.8423 359.729 90.8423 361.599C90.8423 363.658 88.8588 364.584 86.7807 364.584C84.5326 364.584 82.908 363.488 82.2279 362.903L83.7014 361.448C84.6082 362.298 85.7606 362.771 86.7618 362.771C87.6308 362.771 88.5187 362.468 88.5187 361.75C88.5187 359.956 82.5302 361.221 82.5302 357.934C82.5302 355.989 84.4004 355.006 86.4596 355.006C88.0087 355.006 89.69 355.535 90.6723 356.499ZM97.8444 362.412V364.301H96.7487C93.915 364.301 93.1971 363.753 93.1971 360.674V357.122H91.7614V355.252H93.1971V352.872H95.5585V355.252H97.8633V357.122H95.5585V360.73C95.5585 362.317 96.2953 362.412 97.1643 362.412H97.8444ZM108.189 360.39H101.331C101.501 361.883 102.559 362.714 103.957 362.714C105.204 362.714 106.035 361.977 106.451 361.486L108.075 362.544C107.32 363.64 105.676 364.584 103.787 364.584C101.218 364.584 99.0263 362.827 99.0263 359.975C99.0263 357.122 101.123 355.006 103.862 355.006C106.621 355.006 108.226 357.217 108.226 359.502C108.226 359.824 108.207 360.107 108.189 360.39ZM103.787 356.763C102.446 356.763 101.539 357.708 101.331 358.936H106.073C106.073 357.727 105.071 356.763 103.787 356.763ZM110.458 364.301V355.252H112.763V356.669H112.82C113.292 355.705 114.293 355.006 115.483 355.006C115.748 355.006 115.975 355.025 116.182 355.082V357.254C115.937 357.179 115.521 357.141 115.238 357.141C113.67 357.141 112.876 358.369 112.876 359.729V364.301H110.458Z" fill="#0082B9"/>
<path d="M44.4436 384.891H43.4739V380.747H38.3229V384.891H37.3657V375.974H38.3229V379.891H43.4739V375.974H44.4436V384.891ZM51.5102 378.921L49.1677 384.891H48.1601L45.7672 378.921H46.7748L48.6513 383.921H48.6765L50.5404 378.921H51.5102ZM57.3841 384.891H56.5151V383.921H56.4773C56.1121 384.664 55.3187 385.054 54.4496 385.054C53.354 385.054 52.3464 384.488 52.3464 383.253C52.3464 382.145 53.0769 381.314 54.8904 381.289C55.432 381.289 56.0239 381.377 56.5025 381.49V381.024C56.5025 380.017 55.9987 379.513 54.8904 379.513C54.1474 379.513 53.5555 379.803 53.1524 380.231L52.6109 379.601C53.1902 379.06 53.8829 378.757 54.9156 378.757C56.5403 378.757 57.3841 379.412 57.3841 381.15V384.891ZM56.5025 382.536V382.17C55.9358 382.032 55.3438 381.956 54.8149 381.969C53.7822 381.994 53.2784 382.485 53.2784 383.241C53.2784 384.009 53.9081 384.324 54.626 384.324C55.7469 384.324 56.5025 383.556 56.5025 382.536ZM65.4575 384.891H64.7648C63.3543 384.891 62.926 384.362 62.926 382.787V379.677H61.8681V378.921H62.9135V377.271H63.8202V378.921H65.4323V379.677H63.8202V382.976C63.8202 384.047 64.3366 384.135 64.9537 384.135H65.4575V384.891ZM67.2495 377.208C66.8969 377.208 66.6324 376.944 66.6324 376.578C66.6324 376.213 66.8969 375.924 67.2495 375.924C67.6147 375.924 67.8918 376.213 67.8918 376.578C67.8918 376.944 67.6147 377.208 67.2495 377.208ZM67.7029 384.891H66.7961V378.921H67.7029V384.891ZM70.8394 384.891H69.9327V375.369H70.8394V384.891ZM74.0258 380.042C74.454 379.299 75.2852 378.757 76.2927 378.757C78.0559 378.757 79.2524 380.143 79.2524 381.918C79.2524 383.669 78.0685 385.054 76.2801 385.054C75.3608 385.054 74.454 384.601 73.988 383.757H73.9628V384.891H73.0812V375.369H73.988V380.042H74.0258ZM78.3204 381.918C78.3204 380.672 77.527 379.513 76.1416 379.513C74.8318 379.513 73.9376 380.659 73.9376 381.918C73.9376 383.19 74.8318 384.286 76.1416 384.286C77.527 384.286 78.3204 383.153 78.3204 381.918ZM85.8116 378.921L83.0283 386.163C82.6253 387.208 82.2097 387.926 81.051 387.926C80.8369 387.926 80.5724 387.926 80.3583 387.888V387.082C80.5094 387.12 80.8243 387.12 81.0132 387.12C81.6555 387.12 81.9074 386.704 82.1467 386.087L82.5749 384.941L80.0938 378.921H81.114L83.0535 383.946H83.0661L84.8418 378.921H85.8116ZM87.996 380.092C88.3235 379.248 89.0539 378.757 89.8851 378.757C90.0237 378.757 90.1496 378.77 90.2756 378.795V379.639C90.1496 379.614 89.9607 379.588 89.8096 379.588C88.5753 379.588 88.0212 380.672 88.0212 381.742V384.891H87.1018V378.921H87.9708V380.092H87.996ZM99.4272 378.921L97.0847 384.891H96.0772L93.6843 378.921H94.6918L96.5683 383.921H96.5935L98.4575 378.921H99.4272ZM101.17 377.208C100.818 377.208 100.553 376.944 100.553 376.578C100.553 376.213 100.818 375.924 101.17 375.924C101.535 375.924 101.813 376.213 101.813 376.578C101.813 376.944 101.535 377.208 101.17 377.208ZM101.624 384.891H100.717V378.921H101.624V384.891ZM105.931 383.619C106.297 383.619 106.599 383.908 106.599 384.286C106.599 384.651 106.309 384.966 105.931 384.966C105.554 384.966 105.251 384.664 105.251 384.299C105.251 383.921 105.541 383.619 105.931 383.619ZM106.334 382.145V382.359H105.415V381.994C105.415 381.1 105.705 380.483 106.473 379.765C107.103 379.185 107.493 378.833 107.493 378.09C107.493 377.158 106.826 376.616 105.919 376.616C104.999 376.616 104.357 377.271 104.307 378.128H103.375C103.438 376.604 104.559 375.772 105.969 375.772C107.329 375.772 108.45 376.566 108.45 378.039C108.45 379.097 107.947 379.588 107.266 380.168C106.536 380.785 106.334 381.238 106.334 382.145Z" fill="#0082B9"/>
<path d="M275.076 62.9512H274.107V58.8077H268.956V62.9512H267.999V54.0345H268.956V57.9513H274.107V54.0345H275.076V62.9512ZM282.143 56.9815L279.8 62.9512H278.793L276.4 56.9815H277.408L279.284 61.9814H279.309L281.173 56.9815H282.143ZM289.327 59.9537C289.327 61.7799 287.967 63.1149 286.153 63.1149C284.339 63.1149 283.004 61.7799 283.004 59.9537C283.004 58.1276 284.339 56.8178 286.153 56.8178C287.967 56.8178 289.327 58.1276 289.327 59.9537ZM288.37 59.9537C288.37 58.6943 287.564 57.5734 286.153 57.5734C284.755 57.5734 283.936 58.6943 283.936 59.9537C283.936 61.2132 284.755 62.3466 286.153 62.3466C287.564 62.3466 288.37 61.2132 288.37 59.9537ZM292.001 58.1528C292.329 57.309 293.059 56.8178 293.891 56.8178C294.029 56.8178 294.155 56.8304 294.281 56.8556V57.6994C294.155 57.6742 293.966 57.649 293.815 57.649C292.581 57.649 292.027 58.7321 292.027 59.8026V62.9512H291.107V56.9815H291.976V58.1528H292.001ZM300.088 58.1024V53.4299H301.007V62.9512H300.113V61.8051H300.088C299.622 62.6489 298.715 63.1149 297.796 63.1149C296.007 63.1149 294.823 61.7169 294.823 59.9663C294.823 58.2032 296.033 56.8178 297.783 56.8178C298.791 56.8178 299.622 57.3467 300.063 58.1024H300.088ZM295.768 59.9663C295.768 61.2132 296.549 62.3466 297.934 62.3466C299.244 62.3466 300.151 61.2384 300.151 59.9663C300.151 58.7069 299.244 57.5734 297.934 57.5734C296.549 57.5734 295.768 58.7195 295.768 59.9663ZM307.806 62.9512H306.937V61.9814H306.899C306.534 62.7245 305.741 63.1149 304.872 63.1149C303.776 63.1149 302.768 62.5482 302.768 61.3139C302.768 60.2056 303.499 59.3744 305.312 59.3492C305.854 59.3492 306.446 59.4374 306.924 59.5507V59.0847C306.924 58.0772 306.421 57.5734 305.312 57.5734C304.569 57.5734 303.977 57.8631 303.574 58.2913L303.033 57.6616C303.612 57.1201 304.305 56.8178 305.338 56.8178C306.962 56.8178 307.806 57.4727 307.806 59.2107V62.9512ZM306.924 60.5961V60.2308C306.358 60.0923 305.766 60.0167 305.237 60.0293C304.204 60.0545 303.7 60.5457 303.7 61.3013C303.7 62.0696 304.33 62.3844 305.048 62.3844C306.169 62.3844 306.924 61.6162 306.924 60.5961ZM310.955 58.1276C311.27 57.3971 312.089 56.8178 313.134 56.8178C314.847 56.8178 315.439 58.0268 315.439 59.5885V62.9512H314.519V59.513C314.519 58.5432 314.116 57.5608 312.932 57.5608C311.761 57.5608 310.943 58.518 310.943 59.916V62.9512H310.023V56.9815H310.917V58.1276H310.955ZM321.667 58.1276H321.705C322.007 57.4097 322.826 56.8178 323.833 56.8178C325.521 56.8178 326.138 58.0898 326.138 59.5381V62.9512H325.231V59.5507C325.231 58.581 324.853 57.5608 323.644 57.5608C322.498 57.5608 321.667 58.518 321.667 59.916V62.9512H320.748V53.4299H321.667V58.1276ZM329.219 56.9815V64.0091C329.219 65.6589 328.261 65.9738 327.279 65.9738H326.926V65.2181H327.141C328.085 65.2181 328.324 64.7396 328.324 63.6439V56.9815H329.219ZM328.765 55.2687C328.413 55.2687 328.148 55.0042 328.148 54.639C328.148 54.2738 328.413 53.9841 328.765 53.9841C329.13 53.9841 329.407 54.2738 329.407 54.639C329.407 55.0042 329.13 55.2687 328.765 55.2687ZM336.776 60.2056H331.902C331.99 61.4399 332.783 62.3466 334.106 62.3466C335.05 62.3466 335.718 61.8429 336.083 61.3769L336.675 61.8681C336.171 62.5608 335.201 63.1149 334.005 63.1149C332.292 63.1149 331.008 61.8555 331.008 60.0797C331.008 58.2787 332.292 56.8178 334.03 56.8178C335.869 56.8178 336.801 58.3417 336.801 59.6893C336.801 59.8656 336.788 60.0419 336.776 60.2056ZM335.957 59.5255C335.944 58.4424 335.101 57.5734 333.98 57.5734C332.746 57.5734 332.028 58.5936 331.914 59.5255H335.957ZM339.501 62.9512H338.594V53.4299H339.501V62.9512ZM342.612 58.1402H342.649C343.078 57.3467 343.921 56.8178 344.942 56.8178C346.705 56.8178 347.901 58.1906 347.901 59.9663C347.901 61.7169 346.717 63.1149 344.929 63.1149C344.01 63.1149 343.115 62.6489 342.675 61.8429H342.637V65.9738H341.717V56.9815H342.612V58.1402ZM346.957 59.9663C346.957 58.7195 346.176 57.5734 344.778 57.5734C343.481 57.5734 342.574 58.6943 342.574 59.9663C342.574 61.2258 343.481 62.3466 344.778 62.3466C346.176 62.3466 346.957 61.2132 346.957 59.9663ZM355.027 60.2056H350.154C350.242 61.4399 351.035 62.3466 352.357 62.3466C353.302 62.3466 353.97 61.8429 354.335 61.3769L354.927 61.8681C354.423 62.5608 353.453 63.1149 352.257 63.1149C350.544 63.1149 349.259 61.8555 349.259 60.0797C349.259 58.2787 350.544 56.8178 352.282 56.8178C354.121 56.8178 355.053 58.3417 355.053 59.6893C355.053 59.8656 355.04 60.0419 355.027 60.2056ZM354.209 59.5255C354.196 58.4424 353.352 57.5734 352.232 57.5734C350.997 57.5734 350.279 58.5936 350.166 59.5255H354.209ZM357.727 58.1528C358.055 57.309 358.785 56.8178 359.617 56.8178C359.755 56.8178 359.881 56.8304 360.007 56.8556V57.6994C359.881 57.6742 359.692 57.649 359.541 57.649C358.307 57.649 357.753 58.7321 357.753 59.8026V62.9512H356.833V56.9815H357.702V58.1528H357.727ZM369.159 56.9815L366.816 62.9512H365.809L363.416 56.9815H364.423L366.3 61.9814H366.325L368.189 56.9815H369.159ZM370.902 55.2687C370.549 55.2687 370.285 55.0042 370.285 54.639C370.285 54.2738 370.549 53.9841 370.902 53.9841C371.267 53.9841 371.544 54.2738 371.544 54.639C371.544 55.0042 371.267 55.2687 370.902 55.2687ZM371.355 62.9512H370.448V56.9815H371.355V62.9512ZM377.678 58.1024C378.106 57.3593 378.937 56.8178 379.945 56.8178C381.708 56.8178 382.905 58.2032 382.905 59.9789C382.905 61.7295 381.721 63.1149 379.932 63.1149C379.013 63.1149 378.106 62.6615 377.64 61.8177H377.615V62.9512H376.733V53.4299H377.64V58.1024H377.678ZM381.973 59.9789C381.973 58.7321 381.179 57.5734 379.794 57.5734C378.484 57.5734 377.59 58.7195 377.59 59.9789C377.59 61.251 378.484 62.3466 379.794 62.3466C381.179 62.3466 381.973 61.2132 381.973 59.9789ZM385.585 58.1528C385.912 57.309 386.643 56.8178 387.474 56.8178C387.612 56.8178 387.738 56.8304 387.864 56.8556V57.6994C387.738 57.6742 387.549 57.649 387.398 57.649C386.164 57.649 385.61 58.7321 385.61 59.8026V62.9512H384.691V56.9815H385.56V58.1528H385.585ZM393.401 61.8429C393.087 62.523 392.281 63.1149 391.323 63.1149C389.623 63.1149 389.031 61.8303 389.031 60.382V56.9815H389.938V60.3568C389.938 61.3265 390.303 62.3466 391.55 62.3466C392.734 62.3466 393.414 61.3265 393.414 60.0167V56.9815H394.333V62.9512H393.452V61.8429H393.401ZM400.476 62.9512L398.486 59.7774L397.466 60.7724V62.9512H396.559V53.4299H397.466V59.7522H397.491L400.149 56.9815H401.383L399.141 59.1981L401.648 62.9512H400.476ZM407.987 60.2056H403.113C403.201 61.4399 403.995 62.3466 405.317 62.3466C406.262 62.3466 406.929 61.8429 407.294 61.3769L407.886 61.8681C407.383 62.5608 406.413 63.1149 405.216 63.1149C403.504 63.1149 402.219 61.8555 402.219 60.0797C402.219 58.2787 403.504 56.8178 405.242 56.8178C407.08 56.8178 408.012 58.3417 408.012 59.6893C408.012 59.8656 408 60.0419 407.987 60.2056ZM407.168 59.5255C407.156 58.4424 406.312 57.5734 405.191 57.5734C403.957 57.5734 403.239 58.5936 403.126 59.5255H407.168ZM410.687 58.1528C411.015 57.309 411.745 56.8178 412.576 56.8178C412.715 56.8178 412.841 56.8304 412.967 56.8556V57.6994C412.841 57.6742 412.652 57.649 412.501 57.649C411.266 57.649 410.712 58.7321 410.712 59.8026V62.9512H409.793V56.9815H410.662V58.1528H410.687ZM415.103 58.1276C415.418 57.3971 416.237 56.8178 417.282 56.8178C418.995 56.8178 419.587 58.0268 419.587 59.5885V62.9512H418.668V59.513C418.668 58.5432 418.264 57.5608 417.081 57.5608C415.909 57.5608 415.091 58.518 415.091 59.916V62.9512H414.171V56.9815H415.066V58.1276H415.103ZM427.1 60.2056H422.226C422.314 61.4399 423.107 62.3466 424.43 62.3466C425.374 62.3466 426.042 61.8429 426.407 61.3769L426.999 61.8681C426.495 62.5608 425.526 63.1149 424.329 63.1149C422.616 63.1149 421.332 61.8555 421.332 60.0797C421.332 58.2787 422.616 56.8178 424.354 56.8178C426.193 56.8178 427.125 58.3417 427.125 59.6893C427.125 59.8656 427.112 60.0419 427.1 60.2056ZM426.281 59.5255C426.269 58.4424 425.425 57.5734 424.304 57.5734C423.07 57.5734 422.352 58.5936 422.238 59.5255H426.281ZM436.638 62.9512H435.769V61.9814H435.732C435.366 62.7245 434.573 63.1149 433.704 63.1149C432.608 63.1149 431.601 62.5482 431.601 61.3139C431.601 60.2056 432.331 59.3744 434.145 59.3492C434.686 59.3492 435.278 59.4374 435.757 59.5507V59.0847C435.757 58.0772 435.253 57.5734 434.145 57.5734C433.402 57.5734 432.81 57.8631 432.407 58.2913L431.865 57.6616C432.445 57.1201 433.137 56.8178 434.17 56.8178C435.795 56.8178 436.638 57.4727 436.638 59.2107V62.9512ZM435.757 60.5961V60.2308C435.19 60.0923 434.598 60.0167 434.069 60.0293C433.037 60.0545 432.533 60.5457 432.533 61.3013C432.533 62.0696 433.162 62.3844 433.88 62.3844C435.001 62.3844 435.757 61.6162 435.757 60.5961ZM435.593 54.7397C435.593 55.445 435.026 55.974 434.334 55.974C433.654 55.974 433.099 55.445 433.099 54.7523C433.099 54.0471 433.654 53.5181 434.334 53.5181C435.026 53.5181 435.593 54.0471 435.593 54.7397ZM435.077 54.7397C435.077 54.3367 434.749 54.0345 434.334 54.0345C433.943 54.0345 433.616 54.3367 433.616 54.7397C433.616 55.1428 433.943 55.4576 434.334 55.4576C434.749 55.4576 435.077 55.1428 435.077 54.7397ZM447.898 59.9537C447.898 61.7799 446.538 63.1149 444.724 63.1149C442.911 63.1149 441.576 61.7799 441.576 59.9537C441.576 58.1276 442.911 56.8178 444.724 56.8178C446.538 56.8178 447.898 58.1276 447.898 59.9537ZM446.941 59.9537C446.941 58.6943 446.135 57.5734 444.724 57.5734C443.326 57.5734 442.508 58.6943 442.508 59.9537C442.508 61.2132 443.326 62.3466 444.724 62.3466C446.135 62.3466 446.941 61.2132 446.941 59.9537ZM450.56 58.1402H450.598C451.026 57.3467 451.87 56.8178 452.89 56.8178C454.653 56.8178 455.85 58.1906 455.85 59.9663C455.85 61.7169 454.666 63.1149 452.878 63.1149C451.958 63.1149 451.064 62.6489 450.623 61.8429H450.585V65.9738H449.666V56.9815H450.56V58.1402ZM454.905 59.9663C454.905 58.7195 454.124 57.5734 452.726 57.5734C451.429 57.5734 450.522 58.6943 450.522 59.9663C450.522 61.2258 451.429 62.3466 452.726 62.3466C454.124 62.3466 454.905 61.2132 454.905 59.9663ZM458.518 58.1402H458.556C458.984 57.3467 459.828 56.8178 460.848 56.8178C462.611 56.8178 463.807 58.1906 463.807 59.9663C463.807 61.7169 462.623 63.1149 460.835 63.1149C459.916 63.1149 459.022 62.6489 458.581 61.8429H458.543V65.9738H457.624V56.9815H458.518V58.1402ZM462.863 59.9663C462.863 58.7195 462.082 57.5734 460.684 57.5734C459.387 57.5734 458.48 58.6943 458.48 59.9663C458.48 61.2258 459.387 62.3466 460.684 62.3466C462.082 62.3466 462.863 61.2132 462.863 59.9663ZM466.526 58.1276C466.84 57.3971 467.659 56.8178 468.704 56.8178C470.417 56.8178 471.009 58.0268 471.009 59.5885V62.9512H470.09V59.513C470.09 58.5432 469.687 57.5608 468.503 57.5608C467.332 57.5608 466.513 58.518 466.513 59.916V62.9512H465.594V56.9815H466.488V58.1276H466.526ZM477.766 62.9512H476.897V61.9814H476.86C476.494 62.7245 475.701 63.1149 474.832 63.1149C473.736 63.1149 472.729 62.5482 472.729 61.3139C472.729 60.2056 473.459 59.3744 475.273 59.3492C475.814 59.3492 476.406 59.4374 476.885 59.5507V59.0847C476.885 58.0772 476.381 57.5734 475.273 57.5734C474.53 57.5734 473.938 57.8631 473.535 58.2913L472.993 57.6616C473.573 57.1201 474.265 56.8178 475.298 56.8178C476.923 56.8178 477.766 57.4727 477.766 59.2107V62.9512ZM476.885 60.5961V60.2308C476.318 60.0923 475.726 60.0167 475.197 60.0293C474.164 60.0545 473.661 60.5457 473.661 61.3013C473.661 62.0696 474.29 62.3844 475.008 62.3844C476.129 62.3844 476.885 61.6162 476.885 60.5961ZM476.721 54.7397C476.721 55.445 476.154 55.974 475.462 55.974C474.782 55.974 474.227 55.445 474.227 54.7523C474.227 54.0471 474.782 53.5181 475.462 53.5181C476.154 53.5181 476.721 54.0471 476.721 54.7397ZM476.205 54.7397C476.205 54.3367 475.877 54.0345 475.462 54.0345C475.071 54.0345 474.744 54.3367 474.744 54.7397C474.744 55.1428 475.071 55.4576 475.462 55.4576C475.877 55.4576 476.205 55.1428 476.205 54.7397ZM487.956 62.6993V61.7673H487.93C487.49 62.5733 486.595 63.0393 485.676 63.0393C483.888 63.0393 482.704 61.6666 482.704 59.9537C482.704 58.2283 483.875 56.8178 485.664 56.8178C486.595 56.8178 487.49 57.2838 487.956 58.1528H487.981V56.9815H488.875V62.6363C488.875 64.4121 488.082 66.0116 485.701 66.0116C484.656 66.0116 483.585 65.6086 482.893 64.9285L483.472 64.2232C484.026 64.8529 484.87 65.2181 485.714 65.2181C487.427 65.2181 487.956 64.0595 487.956 62.6993ZM483.636 59.9286C483.636 61.1502 484.454 62.2711 485.802 62.2711C487.124 62.2711 488.019 61.2132 488.019 59.9286C488.019 58.6691 487.112 57.5734 485.802 57.5734C484.454 57.5734 483.636 58.6691 483.636 59.9286ZM496.405 60.2056H491.531C491.619 61.4399 492.413 62.3466 493.735 62.3466C494.679 62.3466 495.347 61.8429 495.712 61.3769L496.304 61.8681C495.8 62.5608 494.831 63.1149 493.634 63.1149C491.921 63.1149 490.637 61.8555 490.637 60.0797C490.637 58.2787 491.921 56.8178 493.659 56.8178C495.498 56.8178 496.43 58.3417 496.43 59.6893C496.43 59.8656 496.417 60.0419 496.405 60.2056ZM495.586 59.5255C495.574 58.4424 494.73 57.5734 493.609 57.5734C492.375 57.5734 491.657 58.5936 491.544 59.5255H495.586ZM503.009 56.9815L500.667 62.9512H499.659L497.266 56.9815H498.274L500.15 61.9814H500.175L502.039 56.9815H503.009ZM504.752 55.2687C504.399 55.2687 504.135 55.0042 504.135 54.639C504.135 54.2738 504.399 53.9841 504.752 53.9841C505.117 53.9841 505.394 54.2738 505.394 54.639C505.394 55.0042 505.117 55.2687 504.752 55.2687ZM505.205 62.9512H504.299V56.9815H505.205V62.9512ZM508.355 58.1276C508.669 57.3971 509.488 56.8178 510.533 56.8178C512.246 56.8178 512.838 58.0268 512.838 59.5885V62.9512H511.919V59.513C511.919 58.5432 511.516 57.5608 510.332 57.5608C509.161 57.5608 508.342 58.518 508.342 59.916V62.9512H507.423V56.9815H508.317V58.1276H508.355ZM519.646 61.2384C519.646 62.4222 518.601 63.1149 517.127 63.1149C515.704 63.1149 514.722 62.3844 514.344 61.994L515.024 61.4021C515.616 61.9814 516.409 62.3466 517.19 62.3466C518.059 62.3466 518.739 61.9814 518.739 61.3139C518.739 60.5961 517.971 60.4323 516.913 60.2434C516.737 60.2182 516.56 60.193 516.371 60.1553C515.326 59.9537 514.52 59.5507 514.52 58.581C514.52 57.4727 515.515 56.8178 516.9 56.8178C517.971 56.8178 518.915 57.1956 519.457 57.8001L518.827 58.3669C518.449 57.9639 517.681 57.586 516.913 57.586C516.17 57.586 515.427 57.8631 515.427 58.5054C515.427 59.1351 516.195 59.3366 517.19 59.4878C518.613 59.7019 519.646 60.0797 519.646 61.2384ZM524.028 62.9512H523.336C521.925 62.9512 521.497 62.4222 521.497 60.8479V57.7372H520.439V56.9815H521.484V55.3317H522.391V56.9815H524.003V57.7372H522.391V61.0369C522.391 62.1074 522.907 62.1955 523.525 62.1955H524.028V62.9512ZM530.707 60.2056H525.833C525.921 61.4399 526.715 62.3466 528.037 62.3466C528.981 62.3466 529.649 61.8429 530.014 61.3769L530.606 61.8681C530.102 62.5608 529.133 63.1149 527.936 63.1149C526.223 63.1149 524.939 61.8555 524.939 60.0797C524.939 58.2787 526.223 56.8178 527.961 56.8178C529.8 56.8178 530.732 58.3417 530.732 59.6893C530.732 59.8656 530.719 60.0419 530.707 60.2056ZM529.888 59.5255C529.876 58.4424 529.032 57.5734 527.911 57.5734C526.677 57.5734 525.959 58.5936 525.846 59.5255H529.888ZM533.445 58.1276C533.76 57.3971 534.578 56.8178 535.623 56.8178C537.336 56.8178 537.928 58.0268 537.928 59.5885V62.9512H537.009V59.513C537.009 58.5432 536.606 57.5608 535.422 57.5608C534.251 57.5608 533.432 58.518 533.432 59.916V62.9512H532.513V56.9815H533.407V58.1276H533.445ZM545.441 60.2056H540.567C540.655 61.4399 541.449 62.3466 542.771 62.3466C543.716 62.3466 544.383 61.8429 544.748 61.3769L545.34 61.8681C544.837 62.5608 543.867 63.1149 542.67 63.1149C540.958 63.1149 539.673 61.8555 539.673 60.0797C539.673 58.2787 540.958 56.8178 542.696 56.8178C544.534 56.8178 545.466 58.3417 545.466 59.6893C545.466 59.8656 545.454 60.0419 545.441 60.2056ZM544.623 59.5255C544.61 58.4424 543.766 57.5734 542.645 57.5734C541.411 57.5734 540.693 58.5936 540.58 59.5255H544.623ZM549.338 61.6792C549.703 61.6792 550.005 61.9688 550.005 62.3466C550.005 62.7119 549.715 63.0267 549.338 63.0267C548.96 63.0267 548.657 62.7245 548.657 62.3592C548.657 61.9814 548.947 61.6792 549.338 61.6792ZM549.741 60.2056V60.4197H548.821V60.0545C548.821 59.1603 549.111 58.5432 549.879 57.8253C550.509 57.246 550.899 56.8934 550.899 56.1503C550.899 55.2183 550.232 54.6768 549.325 54.6768C548.406 54.6768 547.763 55.3317 547.713 56.1881H546.781C546.844 54.6642 547.965 53.833 549.375 53.833C550.736 53.833 551.856 54.6264 551.856 56.0999C551.856 57.1578 551.353 57.649 550.673 58.2283C549.942 58.8455 549.741 59.2988 549.741 60.2056Z" fill="#0082B9"/>
<path d="M275.076 670.622H274.107V666.479H268.956V670.622H267.999V661.705H268.956V665.622H274.107V661.705H275.076V670.622ZM282.143 664.652L279.8 670.622H278.793L276.4 664.652H277.408L279.284 669.652H279.309L281.173 664.652H282.143ZM289.327 667.625C289.327 669.451 287.967 670.786 286.153 670.786C284.339 670.786 283.004 669.451 283.004 667.625C283.004 665.798 284.339 664.489 286.153 664.489C287.967 664.489 289.327 665.798 289.327 667.625ZM288.37 667.625C288.37 666.365 287.564 665.244 286.153 665.244C284.755 665.244 283.936 666.365 283.936 667.625C283.936 668.884 284.755 670.018 286.153 670.018C287.564 670.018 288.37 668.884 288.37 667.625ZM292.001 665.824C292.329 664.98 293.059 664.489 293.891 664.489C294.029 664.489 294.155 664.501 294.281 664.526V665.37C294.155 665.345 293.966 665.32 293.815 665.32C292.581 665.32 292.027 666.403 292.027 667.474V670.622H291.107V664.652H291.976V665.824H292.001ZM300.088 665.773V661.101H301.007V670.622H300.113V669.476H300.088C299.622 670.32 298.715 670.786 297.796 670.786C296.007 670.786 294.823 669.388 294.823 667.637C294.823 665.874 296.033 664.489 297.783 664.489C298.791 664.489 299.622 665.018 300.063 665.773H300.088ZM295.768 667.637C295.768 668.884 296.549 670.018 297.934 670.018C299.244 670.018 300.151 668.909 300.151 667.637C300.151 666.378 299.244 665.244 297.934 665.244C296.549 665.244 295.768 666.39 295.768 667.637ZM307.806 670.622H306.937V669.652H306.899C306.534 670.395 305.741 670.786 304.872 670.786C303.776 670.786 302.768 670.219 302.768 668.985C302.768 667.877 303.499 667.045 305.312 667.02C305.854 667.02 306.446 667.108 306.924 667.222V666.756C306.924 665.748 306.421 665.244 305.312 665.244C304.569 665.244 303.977 665.534 303.574 665.962L303.033 665.333C303.612 664.791 304.305 664.489 305.338 664.489C306.962 664.489 307.806 665.144 307.806 666.882V670.622ZM306.924 668.267V667.902C306.358 667.763 305.766 667.688 305.237 667.7C304.204 667.725 303.7 668.217 303.7 668.972C303.7 669.74 304.33 670.055 305.048 670.055C306.169 670.055 306.924 669.287 306.924 668.267ZM310.955 665.798C311.27 665.068 312.089 664.489 313.134 664.489C314.847 664.489 315.439 665.698 315.439 667.259V670.622H314.519V667.184C314.519 666.214 314.116 665.232 312.932 665.232C311.761 665.232 310.943 666.189 310.943 667.587V670.622H310.023V664.652H310.917V665.798H310.955ZM321.667 665.798H321.705C322.007 665.081 322.826 664.489 323.833 664.489C325.521 664.489 326.138 665.761 326.138 667.209V670.622H325.231V667.222C325.231 666.252 324.853 665.232 323.644 665.232C322.498 665.232 321.667 666.189 321.667 667.587V670.622H320.748V661.101H321.667V665.798ZM329.219 664.652V671.68C329.219 673.33 328.261 673.645 327.279 673.645H326.926V672.889H327.141C328.085 672.889 328.324 672.41 328.324 671.315V664.652H329.219ZM328.765 662.94C328.413 662.94 328.148 662.675 328.148 662.31C328.148 661.945 328.413 661.655 328.765 661.655C329.13 661.655 329.407 661.945 329.407 662.31C329.407 662.675 329.13 662.94 328.765 662.94ZM336.776 667.877H331.902C331.99 669.111 332.783 670.018 334.106 670.018C335.05 670.018 335.718 669.514 336.083 669.048L336.675 669.539C336.171 670.232 335.201 670.786 334.005 670.786C332.292 670.786 331.008 669.526 331.008 667.751C331.008 665.95 332.292 664.489 334.03 664.489C335.869 664.489 336.801 666.013 336.801 667.36C336.801 667.536 336.788 667.713 336.776 667.877ZM335.957 667.196C335.944 666.113 335.101 665.244 333.98 665.244C332.746 665.244 332.028 666.264 331.914 667.196H335.957ZM339.501 670.622H338.594V661.101H339.501V670.622ZM342.612 665.811H342.649C343.078 665.018 343.921 664.489 344.942 664.489C346.705 664.489 347.901 665.861 347.901 667.637C347.901 669.388 346.717 670.786 344.929 670.786C344.01 670.786 343.115 670.32 342.675 669.514H342.637V673.645H341.717V664.652H342.612V665.811ZM346.957 667.637C346.957 666.39 346.176 665.244 344.778 665.244C343.481 665.244 342.574 666.365 342.574 667.637C342.574 668.897 343.481 670.018 344.778 670.018C346.176 670.018 346.957 668.884 346.957 667.637ZM355.027 667.877H350.154C350.242 669.111 351.035 670.018 352.357 670.018C353.302 670.018 353.97 669.514 354.335 669.048L354.927 669.539C354.423 670.232 353.453 670.786 352.257 670.786C350.544 670.786 349.259 669.526 349.259 667.751C349.259 665.95 350.544 664.489 352.282 664.489C354.121 664.489 355.053 666.013 355.053 667.36C355.053 667.536 355.04 667.713 355.027 667.877ZM354.209 667.196C354.196 666.113 353.352 665.244 352.232 665.244C350.997 665.244 350.279 666.264 350.166 667.196H354.209ZM357.727 665.824C358.055 664.98 358.785 664.489 359.617 664.489C359.755 664.489 359.881 664.501 360.007 664.526V665.37C359.881 665.345 359.692 665.32 359.541 665.32C358.307 665.32 357.753 666.403 357.753 667.474V670.622H356.833V664.652H357.702V665.824H357.727ZM369.159 664.652L366.816 670.622H365.809L363.416 664.652H364.423L366.3 669.652H366.325L368.189 664.652H369.159ZM370.902 662.94C370.549 662.94 370.285 662.675 370.285 662.31C370.285 661.945 370.549 661.655 370.902 661.655C371.267 661.655 371.544 661.945 371.544 662.31C371.544 662.675 371.267 662.94 370.902 662.94ZM371.355 670.622H370.448V664.652H371.355V670.622ZM377.678 665.773C378.106 665.03 378.937 664.489 379.945 664.489C381.708 664.489 382.905 665.874 382.905 667.65C382.905 669.4 381.721 670.786 379.932 670.786C379.013 670.786 378.106 670.332 377.64 669.489H377.615V670.622H376.733V661.101H377.64V665.773H377.678ZM381.973 667.65C381.973 666.403 381.179 665.244 379.794 665.244C378.484 665.244 377.59 666.39 377.59 667.65C377.59 668.922 378.484 670.018 379.794 670.018C381.179 670.018 381.973 668.884 381.973 667.65ZM385.585 665.824C385.912 664.98 386.643 664.489 387.474 664.489C387.612 664.489 387.738 664.501 387.864 664.526V665.37C387.738 665.345 387.549 665.32 387.398 665.32C386.164 665.32 385.61 666.403 385.61 667.474V670.622H384.691V664.652H385.56V665.824H385.585ZM393.401 669.514C393.087 670.194 392.281 670.786 391.323 670.786C389.623 670.786 389.031 669.501 389.031 668.053V664.652H389.938V668.028C389.938 668.997 390.303 670.018 391.55 670.018C392.734 670.018 393.414 668.997 393.414 667.688V664.652H394.333V670.622H393.452V669.514H393.401ZM400.476 670.622L398.486 667.448L397.466 668.443V670.622H396.559V661.101H397.466V667.423H397.491L400.149 664.652H401.383L399.141 666.869L401.648 670.622H400.476ZM407.987 667.877H403.113C403.201 669.111 403.995 670.018 405.317 670.018C406.262 670.018 406.929 669.514 407.294 669.048L407.886 669.539C407.383 670.232 406.413 670.786 405.216 670.786C403.504 670.786 402.219 669.526 402.219 667.751C402.219 665.95 403.504 664.489 405.242 664.489C407.08 664.489 408.012 666.013 408.012 667.36C408.012 667.536 408 667.713 407.987 667.877ZM407.168 667.196C407.156 666.113 406.312 665.244 405.191 665.244C403.957 665.244 403.239 666.264 403.126 667.196H407.168ZM410.687 665.824C411.015 664.98 411.745 664.489 412.576 664.489C412.715 664.489 412.841 664.501 412.967 664.526V665.37C412.841 665.345 412.652 665.32 412.501 665.32C411.266 665.32 410.712 666.403 410.712 667.474V670.622H409.793V664.652H410.662V665.824H410.687ZM415.103 665.798C415.418 665.068 416.237 664.489 417.282 664.489C418.995 664.489 419.587 665.698 419.587 667.259V670.622H418.668V667.184C418.668 666.214 418.264 665.232 417.081 665.232C415.909 665.232 415.091 666.189 415.091 667.587V670.622H414.171V664.652H415.066V665.798H415.103ZM427.1 667.877H422.226C422.314 669.111 423.107 670.018 424.43 670.018C425.374 670.018 426.042 669.514 426.407 669.048L426.999 669.539C426.495 670.232 425.526 670.786 424.329 670.786C422.616 670.786 421.332 669.526 421.332 667.751C421.332 665.95 422.616 664.489 424.354 664.489C426.193 664.489 427.125 666.013 427.125 667.36C427.125 667.536 427.112 667.713 427.1 667.877ZM426.281 667.196C426.269 666.113 425.425 665.244 424.304 665.244C423.07 665.244 422.352 666.264 422.238 667.196H426.281ZM436.638 670.622H435.769V669.652H435.732C435.366 670.395 434.573 670.786 433.704 670.786C432.608 670.786 431.601 670.219 431.601 668.985C431.601 667.877 432.331 667.045 434.145 667.02C434.686 667.02 435.278 667.108 435.757 667.222V666.756C435.757 665.748 435.253 665.244 434.145 665.244C433.402 665.244 432.81 665.534 432.407 665.962L431.865 665.333C432.445 664.791 433.137 664.489 434.17 664.489C435.795 664.489 436.638 665.144 436.638 666.882V670.622ZM435.757 668.267V667.902C435.19 667.763 434.598 667.688 434.069 667.7C433.037 667.725 432.533 668.217 432.533 668.972C432.533 669.74 433.162 670.055 433.88 670.055C435.001 670.055 435.757 669.287 435.757 668.267ZM435.593 662.411C435.593 663.116 435.026 663.645 434.334 663.645C433.654 663.645 433.099 663.116 433.099 662.423C433.099 661.718 433.654 661.189 434.334 661.189C435.026 661.189 435.593 661.718 435.593 662.411ZM435.077 662.411C435.077 662.008 434.749 661.705 434.334 661.705C433.943 661.705 433.616 662.008 433.616 662.411C433.616 662.814 433.943 663.129 434.334 663.129C434.749 663.129 435.077 662.814 435.077 662.411ZM447.898 667.625C447.898 669.451 446.538 670.786 444.724 670.786C442.911 670.786 441.576 669.451 441.576 667.625C441.576 665.798 442.911 664.489 444.724 664.489C446.538 664.489 447.898 665.798 447.898 667.625ZM446.941 667.625C446.941 666.365 446.135 665.244 444.724 665.244C443.326 665.244 442.508 666.365 442.508 667.625C442.508 668.884 443.326 670.018 444.724 670.018C446.135 670.018 446.941 668.884 446.941 667.625ZM454.477 664.652L452.135 670.622H451.127L448.734 664.652H449.742L451.618 669.652H451.643L453.507 664.652H454.477ZM461.107 667.877H456.233C456.321 669.111 457.114 670.018 458.437 670.018C459.381 670.018 460.049 669.514 460.414 669.048L461.006 669.539C460.502 670.232 459.532 670.786 458.336 670.786C456.623 670.786 455.339 669.526 455.339 667.751C455.339 665.95 456.623 664.489 458.361 664.489C460.2 664.489 461.132 666.013 461.132 667.36C461.132 667.536 461.119 667.713 461.107 667.877ZM460.288 667.196C460.275 666.113 459.432 665.244 458.311 665.244C457.077 665.244 456.359 666.264 456.245 667.196H460.288ZM463.807 665.824C464.134 664.98 464.865 664.489 465.696 664.489C465.834 664.489 465.96 664.501 466.086 664.526V665.37C465.96 665.345 465.771 665.32 465.62 665.32C464.386 665.32 463.832 666.403 463.832 667.474V670.622H462.912V664.652H463.781V665.824H463.807ZM471.22 670.622L469.23 667.448L468.21 668.443V670.622H467.304V661.101H468.21V667.423H468.235L470.893 664.652H472.127L469.885 666.869L472.392 670.622H471.22ZM479.261 667.625C479.261 669.451 477.901 670.786 476.087 670.786C474.273 670.786 472.938 669.451 472.938 667.625C472.938 665.798 474.273 664.489 476.087 664.489C477.901 664.489 479.261 665.798 479.261 667.625ZM478.304 667.625C478.304 666.365 477.498 665.244 476.087 665.244C474.689 665.244 473.87 666.365 473.87 667.625C473.87 668.884 474.689 670.018 476.087 670.018C477.498 670.018 478.304 668.884 478.304 667.625ZM486.041 665.849H486.079C486.495 664.98 487.288 664.489 488.346 664.489C489.58 664.489 490.613 665.32 490.613 666.919V670.622H489.693V667.058C489.693 666.139 489.328 665.232 488.182 665.232C487.099 665.232 486.268 666.252 486.268 667.461V670.622H485.361V667.058C485.361 666.139 485.008 665.232 483.875 665.232C482.779 665.232 481.961 666.252 481.961 667.461V670.622H481.041V664.652H481.948V665.723H481.986C482.275 665.018 483.069 664.489 484.026 664.489C484.933 664.489 485.701 664.955 486.041 665.849ZM497.787 665.849H497.824C498.24 664.98 499.034 664.489 500.091 664.489C501.326 664.489 502.358 665.32 502.358 666.919V670.622H501.439V667.058C501.439 666.139 501.074 665.232 499.928 665.232C498.845 665.232 498.013 666.252 498.013 667.461V670.622H497.107V667.058C497.107 666.139 496.754 665.232 495.621 665.232C494.525 665.232 493.706 666.252 493.706 667.461V670.622H492.787V664.652H493.694V665.723H493.731C494.021 665.018 494.814 664.489 495.772 664.489C496.678 664.489 497.447 664.955 497.787 665.849ZM509.872 667.877H504.998C505.087 669.111 505.88 670.018 507.202 670.018C508.147 670.018 508.814 669.514 509.18 669.048L509.772 669.539C509.268 670.232 508.298 670.786 507.102 670.786C505.389 670.786 504.104 669.526 504.104 667.751C504.104 665.95 505.389 664.489 507.127 664.489C508.966 664.489 509.898 666.013 509.898 667.36C509.898 667.536 509.885 667.713 509.872 667.877ZM509.054 667.196C509.041 666.113 508.197 665.244 507.076 665.244C505.842 665.244 505.124 666.264 505.011 667.196H509.054ZM515.733 665.798H515.771C516.074 665.081 516.892 664.489 517.9 664.489C519.587 664.489 520.204 665.761 520.204 667.209V670.622H519.298V667.222C519.298 666.252 518.92 665.232 517.711 665.232C516.565 665.232 515.733 666.189 515.733 667.587V670.622H514.814V661.101H515.733V665.798ZM522.832 662.94C522.479 662.94 522.215 662.675 522.215 662.31C522.215 661.945 522.479 661.655 522.832 661.655C523.197 661.655 523.474 661.945 523.474 662.31C523.474 662.675 523.197 662.94 522.832 662.94ZM523.285 670.622H522.378V664.652H523.285V670.622ZM526.434 665.798C526.749 665.068 527.568 664.489 528.613 664.489C530.326 664.489 530.918 665.698 530.918 667.259V670.622H529.998V667.184C529.998 666.214 529.595 665.232 528.412 665.232C527.24 665.232 526.422 666.189 526.422 667.587V670.622H525.502V664.652H526.396V665.798H526.434ZM537.914 665.773V661.101H538.834V670.622H537.94V669.476H537.914C537.448 670.32 536.542 670.786 535.622 670.786C533.834 670.786 532.65 669.388 532.65 667.637C532.65 665.874 533.859 664.489 535.61 664.489C536.617 664.489 537.448 665.018 537.889 665.773H537.914ZM533.595 667.637C533.595 668.884 534.375 670.018 535.761 670.018C537.071 670.018 537.977 668.909 537.977 667.637C537.977 666.378 537.071 665.244 535.761 665.244C534.375 665.244 533.595 666.39 533.595 667.637ZM541.942 665.824C542.27 664.98 543 664.489 543.832 664.489C543.97 664.489 544.096 664.501 544.222 664.526V665.37C544.096 665.345 543.907 665.32 543.756 665.32C542.522 665.32 541.968 666.403 541.968 667.474V670.622H541.048V664.652H541.917V665.824H541.942ZM545.88 662.94C545.527 662.94 545.263 662.675 545.263 662.31C545.263 661.945 545.527 661.655 545.88 661.655C546.245 661.655 546.522 661.945 546.522 662.31C546.522 662.675 546.245 662.94 545.88 662.94ZM546.333 670.622H545.427V664.652H546.333V670.622ZM549.483 665.798C549.797 665.068 550.616 664.489 551.661 664.489C553.374 664.489 553.966 665.698 553.966 667.259V670.622H553.047V667.184C553.047 666.214 552.644 665.232 551.46 665.232C550.289 665.232 549.47 666.189 549.47 667.587V670.622H548.551V664.652H549.445V665.798H549.483ZM560.963 670.37V669.438H560.938C560.497 670.244 559.603 670.71 558.683 670.71C556.895 670.71 555.711 669.337 555.711 667.625C555.711 665.899 556.882 664.489 558.671 664.489C559.603 664.489 560.497 664.955 560.963 665.824H560.988V664.652H561.882V670.307C561.882 672.083 561.089 673.682 558.708 673.682C557.663 673.682 556.593 673.279 555.9 672.599L556.479 671.894C557.033 672.524 557.877 672.889 558.721 672.889C560.434 672.889 560.963 671.73 560.963 670.37ZM556.643 667.599C556.643 668.821 557.462 669.942 558.809 669.942C560.132 669.942 561.026 668.884 561.026 667.599C561.026 666.34 560.119 665.244 558.809 665.244C557.462 665.244 556.643 666.34 556.643 667.599ZM569.412 667.877H564.538C564.626 669.111 565.42 670.018 566.742 670.018C567.687 670.018 568.354 669.514 568.719 669.048L569.311 669.539C568.807 670.232 567.838 670.786 566.641 670.786C564.928 670.786 563.644 669.526 563.644 667.751C563.644 665.95 564.928 664.489 566.666 664.489C568.505 664.489 569.437 666.013 569.437 667.36C569.437 667.536 569.425 667.713 569.412 667.877ZM568.593 667.196C568.581 666.113 567.737 665.244 566.616 665.244C565.382 665.244 564.664 666.264 564.551 667.196H568.593ZM572.15 665.798C572.465 665.068 573.283 664.489 574.329 664.489C576.041 664.489 576.633 665.698 576.633 667.259V670.622H575.714V667.184C575.714 666.214 575.311 665.232 574.127 665.232C572.956 665.232 572.137 666.189 572.137 667.587V670.622H571.218V664.652H572.112V665.798H572.15ZM584.146 667.877H579.272C579.36 669.111 580.154 670.018 581.476 670.018C582.421 670.018 583.088 669.514 583.454 669.048L584.045 669.539C583.542 670.232 582.572 670.786 581.375 670.786C579.663 670.786 578.378 669.526 578.378 667.751C578.378 665.95 579.663 664.489 581.401 664.489C583.239 664.489 584.171 666.013 584.171 667.36C584.171 667.536 584.159 667.713 584.146 667.877ZM583.328 667.196C583.315 666.113 582.471 665.244 581.35 665.244C580.116 665.244 579.398 666.264 579.285 667.196H583.328ZM588.043 669.35C588.408 669.35 588.71 669.64 588.71 670.018C588.71 670.383 588.42 670.698 588.043 670.698C587.665 670.698 587.363 670.395 587.363 670.03C587.363 669.652 587.652 669.35 588.043 669.35ZM588.446 667.877V668.091H587.526V667.725C587.526 666.831 587.816 666.214 588.584 665.496C589.214 664.917 589.604 664.564 589.604 663.821C589.604 662.889 588.937 662.348 588.03 662.348C587.111 662.348 586.468 663.003 586.418 663.859H585.486C585.549 662.335 586.67 661.504 588.08 661.504C589.441 661.504 590.561 662.297 590.561 663.771C590.561 664.829 590.058 665.32 589.378 665.899C588.647 666.516 588.446 666.97 588.446 667.877Z" fill="#0082B9"/>
<path d="M277.211 650.646V644.866H270.901V650.646H268.37V637.271H270.883V642.693H277.211V637.271H279.743V650.646H277.211ZM282.683 650.646V641.598H285.102V650.646H282.683ZM282.457 638.235C282.457 637.441 283.099 636.78 283.893 636.78C284.705 636.78 285.347 637.441 285.347 638.235C285.347 639.047 284.705 639.652 283.893 639.652C283.099 639.652 282.457 639.047 282.457 638.235ZM296.99 645.565V650.646H294.572V645.773C294.572 644.45 294.043 643.317 292.664 643.317C291.285 643.317 290.34 644.469 290.34 646.075V650.646H287.922V641.598H290.284V642.977H290.359C290.794 642.164 291.946 641.352 293.42 641.352C296.046 641.352 296.99 643.336 296.99 645.565ZM306.813 649.343C306.171 650.325 304.905 650.892 303.658 650.892C300.938 650.892 299.2 648.682 299.2 646.113C299.2 643.506 300.994 641.352 303.677 641.352C305.037 641.352 306.057 641.994 306.662 642.788H306.699V636.365H309.118V650.646H306.851V649.343H306.813ZM301.693 646.131C301.693 647.567 302.619 648.871 304.244 648.871C305.774 648.871 306.832 647.605 306.832 646.131C306.832 644.658 305.774 643.392 304.244 643.392C302.619 643.392 301.693 644.677 301.693 646.131ZM311.924 650.646V641.598H314.229V643.014H314.285C314.758 642.051 315.759 641.352 316.949 641.352C317.214 641.352 317.44 641.371 317.648 641.428V643.6C317.402 643.524 316.987 643.487 316.703 643.487C315.136 643.487 314.342 644.715 314.342 646.075V650.646H311.924ZM319.175 650.646V641.598H321.593V650.646H319.175ZM318.948 638.235C318.948 637.441 319.59 636.78 320.384 636.78C321.196 636.78 321.838 637.441 321.838 638.235C321.838 639.047 321.196 639.652 320.384 639.652C319.59 639.652 318.948 639.047 318.948 638.235ZM333.481 645.565V650.646H331.063V645.773C331.063 644.45 330.534 643.317 329.155 643.317C327.776 643.317 326.832 644.469 326.832 646.075V650.646H324.414V641.598H326.775V642.977H326.851C327.285 642.164 328.437 641.352 329.911 641.352C332.537 641.352 333.481 643.336 333.481 645.565ZM335.823 653.65L337.108 651.893C337.901 652.687 339.11 653.197 340.263 653.197C342.36 653.197 343.21 651.95 343.21 650.25V649.286H343.172C342.586 650.118 341.453 650.646 340.338 650.646C337.599 650.646 335.71 648.795 335.71 646.037C335.71 643.506 337.448 641.352 340.187 641.352C341.415 641.352 342.567 641.881 343.247 642.939H343.285V641.598H345.609V650.061C345.609 653.102 343.909 655.18 340.338 655.18C338.713 655.18 337.013 654.651 335.823 653.65ZM338.185 646.056C338.185 647.454 339.167 648.738 340.735 648.738C342.265 648.738 343.342 647.567 343.342 646.037C343.342 644.582 342.265 643.373 340.735 643.373C339.167 643.373 338.185 644.582 338.185 646.056ZM355.878 642.844L354.499 644.261C353.913 643.694 352.704 643.203 351.778 643.203C350.966 643.203 350.078 643.468 350.078 644.129C350.078 644.79 351.004 644.979 352.307 645.187C354.31 645.508 356.048 646.075 356.048 647.945C356.048 650.004 354.064 650.93 351.986 650.93C349.738 650.93 348.113 649.834 347.433 649.249L348.907 647.794C349.814 648.644 350.966 649.116 351.967 649.116C352.836 649.116 353.724 648.814 353.724 648.096C353.724 646.301 347.736 647.567 347.736 644.28C347.736 642.334 349.606 641.352 351.665 641.352C353.214 641.352 354.895 641.881 355.878 642.844ZM362.067 644.866V646.812H357.477V644.866H362.067ZM362.922 643.468V641.598H364.679V640.256C364.679 637.876 365.321 636.195 368.155 636.195H369.685V638.197H368.589C367.493 638.197 367.097 638.367 367.097 639.916V641.598H369.194V643.468H367.097V650.646H364.679V643.468H362.922ZM373.104 641.598V650.571C373.104 653.178 372.84 655.18 369.553 655.18H368.74V653.159H369.099C370.119 653.159 370.686 652.951 370.686 651.402V641.598H373.104ZM370.459 638.235C370.459 637.441 371.083 636.78 371.895 636.78C372.707 636.78 373.35 637.441 373.35 638.235C373.35 639.047 372.707 639.652 371.895 639.652C371.083 639.652 370.459 639.047 370.459 638.235ZM384.555 646.736H377.698C377.868 648.228 378.926 649.06 380.324 649.06C381.571 649.06 382.402 648.323 382.817 647.832L384.442 648.89C383.686 649.985 382.043 650.93 380.154 650.93C377.584 650.93 375.393 649.173 375.393 646.32C375.393 643.468 377.49 641.352 380.229 641.352C382.987 641.352 384.593 643.562 384.593 645.848C384.593 646.169 384.574 646.453 384.555 646.736ZM380.154 643.109C378.812 643.109 377.906 644.053 377.698 645.281H382.44C382.44 644.072 381.438 643.109 380.154 643.109ZM386.825 650.646V641.598H389.13V643.014H389.187C389.659 642.051 390.66 641.352 391.85 641.352C392.115 641.352 392.341 641.371 392.549 641.428V643.6C392.304 643.524 391.888 643.487 391.605 643.487C390.037 643.487 389.243 644.715 389.243 646.075V650.646H386.825ZM403.125 645.565V650.646H400.707V645.773C400.707 644.45 400.178 643.317 398.799 643.317C397.42 643.317 396.475 644.469 396.475 646.075V650.646H394.057V641.598H396.418V642.977H396.494C396.928 642.164 398.081 641.352 399.554 641.352C402.18 641.352 403.125 643.336 403.125 645.565ZM414.534 646.736H407.677C407.847 648.228 408.905 649.06 410.303 649.06C411.549 649.06 412.381 648.323 412.796 647.832L414.421 648.89C413.665 649.985 412.022 650.93 410.133 650.93C407.563 650.93 405.372 649.173 405.372 646.32C405.372 643.468 407.469 641.352 410.208 641.352C412.966 641.352 414.572 643.562 414.572 645.848C414.572 646.169 414.553 646.453 414.534 646.736ZM410.133 643.109C408.791 643.109 407.885 644.053 407.677 645.281H412.418C412.418 644.072 411.417 643.109 410.133 643.109ZM416.804 650.646V641.598H419.109V643.014H419.165C419.638 642.051 420.639 641.352 421.829 641.352C422.094 641.352 422.32 641.371 422.528 641.428V643.6C422.282 643.524 421.867 643.487 421.584 643.487C420.016 643.487 419.222 644.715 419.222 646.075V650.646H416.804ZM432.337 646.736H425.48C425.65 648.228 426.707 649.06 428.105 649.06C429.352 649.06 430.183 648.323 430.599 647.832L432.224 648.89C431.468 649.985 429.825 650.93 427.935 650.93C425.366 650.93 423.175 649.173 423.175 646.32C423.175 643.468 425.272 641.352 428.011 641.352C430.769 641.352 432.375 643.562 432.375 645.848C432.375 646.169 432.356 646.453 432.337 646.736ZM427.935 643.109C426.594 643.109 425.687 644.053 425.48 645.281H430.221C430.221 644.072 429.22 643.109 427.935 643.109Z" fill="#0082B9"/>
<path d="M279.894 31.0174L278.269 32.8121C277.532 32.0186 276.361 31.4897 274.944 31.4897C272.224 31.4897 270.391 33.6244 270.391 36.2692C270.391 38.9895 272.111 41.0865 275.039 41.0865C276.059 41.0865 277.003 40.8786 277.627 40.5386V37.4782H274.963V35.4568H280.026V42.1066C278.666 42.8622 276.89 43.3156 274.906 43.3156C270.731 43.3156 267.709 40.4441 267.709 36.2692C267.709 32.0753 270.807 29.2605 274.869 29.2605C276.966 29.2605 278.779 29.9406 279.894 31.0174ZM291.501 39.0651H284.643C284.813 40.5575 285.871 41.3887 287.269 41.3887C288.516 41.3887 289.347 40.652 289.763 40.1608L291.387 41.2187C290.632 42.3144 288.988 43.259 287.099 43.259C284.53 43.259 282.339 41.5021 282.339 38.6495C282.339 35.7969 284.435 33.6811 287.175 33.6811C289.933 33.6811 291.539 35.8913 291.539 38.1772C291.539 38.4983 291.52 38.7817 291.501 39.0651ZM287.099 35.4379C285.758 35.4379 284.851 36.3825 284.643 37.6105H289.385C289.385 36.4014 288.384 35.4379 287.099 35.4379ZM302.423 33.9266L298.777 42.9756H296.132L292.467 33.9266H295.15L297.473 40.4064H297.511L299.835 33.9266H302.423ZM303.936 42.9756V33.9266H306.354V42.9756H303.936ZM303.71 30.564C303.71 29.7706 304.352 29.1094 305.145 29.1094C305.958 29.1094 306.6 29.7706 306.6 30.564C306.6 31.3763 305.958 31.9808 305.145 31.9808C304.352 31.9808 303.71 31.3763 303.71 30.564ZM318.243 37.8938V42.9756H315.825V38.1016C315.825 36.7792 315.296 35.6458 313.917 35.6458C312.538 35.6458 311.593 36.7981 311.593 38.4039V42.9756H309.175V33.9266H311.537V35.3057H311.612C312.047 34.4934 313.199 33.6811 314.673 33.6811C317.298 33.6811 318.243 35.6646 318.243 37.8938ZM328.5 35.1735L327.121 36.5903C326.535 36.0236 325.326 35.5324 324.401 35.5324C323.588 35.5324 322.7 35.7969 322.7 36.4581C322.7 37.1193 323.626 37.3082 324.93 37.516C326.932 37.8371 328.67 38.4039 328.67 40.2741C328.67 42.3333 326.687 43.259 324.608 43.259C322.36 43.259 320.736 42.1633 320.056 41.5776L321.529 40.123C322.436 40.9731 323.588 41.4454 324.59 41.4454C325.459 41.4454 326.346 41.1431 326.346 40.4253C326.346 38.6306 320.358 39.8963 320.358 36.6092C320.358 34.6634 322.228 33.6811 324.287 33.6811C325.836 33.6811 327.518 34.21 328.5 35.1735ZM335.672 41.0865V42.9756H334.576C331.743 42.9756 331.025 42.4277 331.025 39.3485V35.7969H329.589V33.9266H331.025V31.5463H333.386V33.9266H335.691V35.7969H333.386V39.4051C333.386 40.992 334.123 41.0865 334.992 41.0865H335.672ZM344.864 35.1735L343.485 36.5903C342.899 36.0236 341.69 35.5324 340.765 35.5324C339.952 35.5324 339.064 35.7969 339.064 36.4581C339.064 37.1193 339.99 37.3082 341.293 37.516C343.296 37.8371 345.034 38.4039 345.034 40.2741C345.034 42.3333 343.05 43.259 340.972 43.259C338.724 43.259 337.1 42.1633 336.42 41.5776L337.893 40.123C338.8 40.9731 339.952 41.4454 340.953 41.4454C341.822 41.4454 342.71 41.1431 342.71 40.4253C342.71 38.6306 336.722 39.8963 336.722 36.6092C336.722 34.6634 338.592 33.6811 340.651 33.6811C342.2 33.6811 343.882 34.21 344.864 35.1735ZM353.321 42.9756L350.959 38.7817L349.561 40.2175V42.9756H347.124V28.6937H349.561V37.6105H349.618L352.981 33.9266H356.022L352.754 37.2137L356.287 42.9756H353.321ZM363.194 39.6129V39.1406C362.57 38.9895 361.852 38.8573 361.153 38.8573C359.85 38.8573 359.302 39.4618 359.302 40.3119C359.302 41.162 359.944 41.5776 360.908 41.5776C362.079 41.5776 363.194 40.8786 363.194 39.6129ZM357.016 40.3686C357.016 38.6117 358.32 37.4215 360.945 37.4215C361.682 37.4215 362.4 37.4971 363.194 37.6671V37.2704C363.194 36.118 362.608 35.5135 361.153 35.5135C360.095 35.5135 359.264 35.8913 358.679 36.477L357.356 35.0601C358.32 34.1344 359.548 33.6811 361.323 33.6811C364.176 33.6811 365.442 34.8145 365.442 37.5538V42.9756H363.194V41.8799H363.137C362.589 42.7678 361.474 43.2212 360.322 43.2212C358.641 43.2212 357.016 42.39 357.016 40.3686ZM370.666 41.7854V47.5095H368.247V33.9266H370.571V35.2301H370.628C371.176 34.3611 372.271 33.6811 373.688 33.6811C376.371 33.6811 378.165 35.8347 378.165 38.4228C378.165 41.0109 376.408 43.2212 373.688 43.2212C372.498 43.2212 371.346 42.6733 370.703 41.7854H370.666ZM375.672 38.4417C375.672 37.0059 374.746 35.7213 373.121 35.7213C371.591 35.7213 370.533 36.987 370.533 38.4606C370.533 39.9341 371.591 41.1998 373.121 41.1998C374.746 41.1998 375.672 39.8963 375.672 38.4417ZM389.149 39.0651H382.291C382.462 40.5575 383.519 41.3887 384.917 41.3887C386.164 41.3887 386.995 40.652 387.411 40.1608L389.036 41.2187C388.28 42.3144 386.636 43.259 384.747 43.259C382.178 43.259 379.987 41.5021 379.987 38.6495C379.987 35.7969 382.084 33.6811 384.823 33.6811C387.581 33.6811 389.187 35.8913 389.187 38.1772C389.187 38.4983 389.168 38.7817 389.149 39.0651ZM384.747 35.4379C383.406 35.4379 382.499 36.3825 382.291 37.6105H387.033C387.033 36.4014 386.032 35.4379 384.747 35.4379ZM391.419 42.9756V33.9266H393.724V35.3435H393.78C394.252 34.38 395.254 33.6811 396.444 33.6811C396.708 33.6811 396.935 33.6999 397.143 33.7566V35.9291C396.897 35.8536 396.482 35.8158 396.198 35.8158C394.63 35.8158 393.837 37.0437 393.837 38.4039V42.9756H391.419ZM406.952 39.0651H400.094C400.264 40.5575 401.322 41.3887 402.72 41.3887C403.967 41.3887 404.798 40.652 405.214 40.1608L406.839 41.2187C406.083 42.3144 404.439 43.259 402.55 43.259C399.981 43.259 397.79 41.5021 397.79 38.6495C397.79 35.7969 399.887 33.6811 402.626 33.6811C405.384 33.6811 406.99 35.8913 406.99 38.1772C406.99 38.4983 406.971 38.7817 406.952 39.0651ZM402.55 35.4379C401.209 35.4379 400.302 36.3825 400.094 37.6105H404.836C404.836 36.4014 403.835 35.4379 402.55 35.4379Z" fill="#0082B9"/>
<path d="M0.789062 0.787109L348.507 346.734M348.507 346.734L0.789062 692.682M348.507 346.734H696.226" stroke="#0082B9" stroke-width="1.57428"/>
<rect x="747.318" y="0.82913" width="691.895" height="691.895" rx="345.947" stroke="#78469A" stroke-width="1.57428"/>
<circle opacity="0.1" cx="1093.27" cy="346.776" r="345.947" fill="#B482FB" stroke="#78469A" stroke-width="1.57428"/>
<path d="M1093.27 346.777L1337.67 102.37M1093.27 346.777H746.926M1093.27 346.777L1337.67 591.183" stroke="#78469A" stroke-width="1.57428"/>
<path d="M946.925 84.5848L945.3 86.3794C944.564 85.586 943.392 85.057 941.975 85.057C939.255 85.057 937.423 87.1918 937.423 89.8366C937.423 92.5569 939.142 94.6538 942.07 94.6538C943.09 94.6538 944.035 94.446 944.658 94.106V91.0456H941.994V89.0242H947.057V95.674C945.697 96.4296 943.921 96.883 941.938 96.883C937.763 96.883 934.74 94.0115 934.74 89.8366C934.74 85.6427 937.838 82.8279 941.9 82.8279C943.997 82.8279 945.81 83.508 946.925 84.5848ZM958.532 92.6325H951.675C951.845 94.1249 952.902 94.9561 954.3 94.9561C955.547 94.9561 956.378 94.2193 956.794 93.7282L958.419 94.7861C957.663 95.8818 956.02 96.8263 954.13 96.8263C951.561 96.8263 949.37 95.0694 949.37 92.2169C949.37 89.3643 951.467 87.2484 954.206 87.2484C956.964 87.2484 958.57 89.4587 958.57 91.7446C958.57 92.0657 958.551 92.3491 958.532 92.6325ZM954.13 89.0053C952.789 89.0053 951.882 89.9499 951.675 91.1778H956.416C956.416 89.9688 955.415 89.0053 954.13 89.0053ZM969.454 87.494L965.808 96.543H963.163L959.498 87.494H962.181L964.505 93.9737H964.542L966.866 87.494H969.454ZM970.967 96.543V87.494H973.386V96.543H970.967ZM970.741 84.1314C970.741 83.3379 971.383 82.6767 972.176 82.6767C972.989 82.6767 973.631 83.3379 973.631 84.1314C973.631 84.9437 972.989 85.5482 972.176 85.5482C971.383 85.5482 970.741 84.9437 970.741 84.1314ZM985.274 91.4612V96.543H982.856V91.669C982.856 90.3466 982.327 89.2131 980.948 89.2131C979.569 89.2131 978.624 90.3655 978.624 91.9713V96.543H976.206V87.494H978.568V88.8731H978.643C979.078 88.0608 980.23 87.2484 981.704 87.2484C984.33 87.2484 985.274 89.232 985.274 91.4612ZM995.531 88.7409L994.152 90.1577C993.567 89.591 992.358 89.0998 991.432 89.0998C990.62 89.0998 989.732 89.3643 989.732 90.0255C989.732 90.6867 990.657 90.8756 991.961 91.0834C993.963 91.4045 995.701 91.9713 995.701 93.8415C995.701 95.9007 993.718 96.8263 991.64 96.8263C989.392 96.8263 987.767 95.7306 987.087 95.145L988.56 93.6904C989.467 94.5405 990.62 95.0128 991.621 95.0128C992.49 95.0128 993.378 94.7105 993.378 93.9926C993.378 92.198 987.389 93.4637 987.389 90.1766C987.389 88.2308 989.259 87.2484 991.319 87.2484C992.868 87.2484 994.549 87.7774 995.531 88.7409ZM1002.7 94.6538V96.543H1001.61C998.774 96.543 998.056 95.9951 998.056 92.9158V89.3643H996.62V87.494H998.056V85.1137H1000.42V87.494H1002.72V89.3643H1000.42V92.9725C1000.42 94.5594 1001.15 94.6538 1002.02 94.6538H1002.7ZM1013.05 92.6325H1006.19C1006.36 94.1249 1007.42 94.9561 1008.82 94.9561C1010.06 94.9561 1010.89 94.2193 1011.31 93.7282L1012.93 94.7861C1012.18 95.8818 1010.54 96.8263 1008.65 96.8263C1006.08 96.8263 1003.89 95.0694 1003.89 92.2169C1003.89 89.3643 1005.98 87.2484 1008.72 87.2484C1011.48 87.2484 1013.09 89.4587 1013.09 91.7446C1013.09 92.0657 1013.07 92.3491 1013.05 92.6325ZM1008.65 89.0053C1007.3 89.0053 1006.4 89.9499 1006.19 91.1778H1010.93C1010.93 89.9688 1009.93 89.0053 1008.65 89.0053ZM1015.32 96.543V87.494H1017.62V88.9109H1017.68C1018.15 87.9474 1019.15 87.2484 1020.34 87.2484C1020.61 87.2484 1020.83 87.2673 1021.04 87.324V89.4965C1020.8 89.4209 1020.38 89.3832 1020.1 89.3832C1018.53 89.3832 1017.74 90.6111 1017.74 91.9713V96.543H1015.32Z" fill="#78469A"/>
<path d="M1158.95 348.427V335.052H1164.26C1166.32 335.052 1168.7 335.788 1168.7 338.471C1168.7 339.945 1167.79 340.965 1166.45 341.361V341.399C1168.05 341.645 1169.3 342.778 1169.3 344.611C1169.3 347.463 1166.69 348.427 1163.84 348.427H1158.95ZM1161.4 337.111V340.606H1163.99C1165.24 340.606 1166.24 340.058 1166.24 338.811C1166.24 337.602 1165.26 337.111 1163.75 337.111H1161.4ZM1161.4 342.457V346.349H1163.95C1165.33 346.349 1166.75 345.895 1166.75 344.384C1166.75 343.024 1165.71 342.457 1164.05 342.457H1161.4ZM1171.66 348.427V339.378H1173.96V340.795H1174.02C1174.49 339.831 1175.49 339.132 1176.68 339.132C1176.95 339.132 1177.17 339.151 1177.38 339.208V341.38C1177.13 341.305 1176.72 341.267 1176.44 341.267C1174.87 341.267 1174.07 342.495 1174.07 343.855V348.427H1171.66ZM1178.85 344.422V339.378H1181.27V344.214C1181.27 345.574 1181.78 346.67 1183.23 346.67C1184.65 346.67 1185.35 345.404 1185.35 343.95V339.378H1187.79V348.427H1185.42V347.104H1185.37C1184.93 347.803 1183.86 348.635 1182.57 348.635C1179.93 348.635 1178.85 347.029 1178.85 344.422ZM1196.8 348.427L1194.44 344.233L1193.04 345.669V348.427H1190.6V334.145H1193.04V343.062H1193.1L1196.46 339.378H1199.5L1196.23 342.665L1199.77 348.427H1196.8ZM1209.53 344.516H1202.67C1202.84 346.009 1203.9 346.84 1205.3 346.84C1206.55 346.84 1207.38 346.103 1207.79 345.612L1209.42 346.67C1208.66 347.766 1207.02 348.71 1205.13 348.71C1202.56 348.71 1200.37 346.953 1200.37 344.101C1200.37 341.248 1202.47 339.132 1205.2 339.132C1207.96 339.132 1209.57 341.343 1209.57 343.628C1209.57 343.95 1209.55 344.233 1209.53 344.516ZM1205.13 340.889C1203.79 340.889 1202.88 341.834 1202.67 343.062H1207.41C1207.41 341.853 1206.41 340.889 1205.13 340.889ZM1211.8 348.427V339.378H1214.1V340.795H1214.16C1214.63 339.831 1215.64 339.132 1216.83 339.132C1217.09 339.132 1217.32 339.151 1217.52 339.208V341.38C1217.28 341.305 1216.86 341.267 1216.58 341.267C1215.01 341.267 1214.22 342.495 1214.22 343.855V348.427H1211.8ZM1221.37 347.123H1221.34V348.427H1219.05V334.145H1221.47V340.568H1221.53C1222.11 339.756 1223.17 339.132 1224.49 339.132C1227.19 339.132 1228.97 341.286 1228.97 343.874C1228.97 346.462 1226.99 348.88 1224.19 348.635C1223.07 348.597 1221.98 348.068 1221.37 347.123ZM1226.49 343.893C1226.49 342.457 1225.55 341.172 1223.92 341.172C1222.39 341.172 1221.34 342.438 1221.34 343.912C1221.34 345.385 1222.41 346.651 1223.92 346.651C1225.57 346.651 1226.49 345.347 1226.49 343.893ZM1239.9 344.516H1233.04C1233.21 346.009 1234.27 346.84 1235.67 346.84C1236.91 346.84 1237.74 346.103 1238.16 345.612L1239.78 346.67C1239.03 347.766 1237.38 348.71 1235.5 348.71C1232.93 348.71 1230.73 346.953 1230.73 344.101C1230.73 341.248 1232.83 339.132 1235.57 339.132C1238.33 339.132 1239.93 341.343 1239.93 343.628C1239.93 343.95 1239.92 344.233 1239.9 344.516ZM1235.5 340.889C1234.15 340.889 1233.25 341.834 1233.04 343.062H1237.78C1237.78 341.853 1236.78 340.889 1235.5 340.889ZM1244.58 340.757H1244.6C1245.04 339.945 1246.19 339.132 1247.66 339.132C1250.29 339.132 1251.23 341.116 1251.23 343.345V348.427H1248.82V343.553C1248.82 342.23 1248.29 341.097 1246.91 341.097C1245.53 341.097 1244.58 342.249 1244.58 343.855V348.427H1242.17V334.145H1244.58V340.757ZM1263.36 343.893C1263.36 346.764 1261.15 348.71 1258.39 348.71C1255.65 348.71 1253.46 346.764 1253.46 343.893C1253.46 341.04 1255.65 339.132 1258.39 339.132C1261.15 339.132 1263.36 341.04 1263.36 343.893ZM1260.94 343.893C1260.94 342.438 1260.02 341.172 1258.39 341.172C1256.81 341.172 1255.86 342.438 1255.86 343.893C1255.86 345.366 1256.81 346.651 1258.39 346.651C1260.02 346.651 1260.94 345.366 1260.94 343.893ZM1274.27 339.378L1270.62 348.427H1267.98L1264.31 339.378H1266.99L1269.32 345.858H1269.36L1271.68 339.378H1274.27Z" fill="#78469A"/>
<path d="M918.266 585.355V579.575H911.956V585.355H909.425V571.98H911.937V577.402H918.266V571.98H920.797V585.355H918.266ZM923.738 585.355V576.307H926.156V585.355H923.738ZM923.511 572.944C923.511 572.15 924.154 571.489 924.947 571.489C925.76 571.489 926.402 572.15 926.402 572.944C926.402 573.756 925.76 574.361 924.947 574.361C924.154 574.361 923.511 573.756 923.511 572.944ZM938.045 580.274V585.355H935.627V580.482C935.627 579.159 935.098 578.026 933.719 578.026C932.34 578.026 931.395 579.178 931.395 580.784V585.355H928.977V576.307H931.339V577.686H931.414C931.849 576.873 933.001 576.061 934.474 576.061C937.1 576.061 938.045 578.045 938.045 580.274ZM947.868 584.052C947.225 585.034 945.96 585.601 944.713 585.601C941.992 585.601 940.254 583.391 940.254 580.822C940.254 578.215 942.049 576.061 944.732 576.061C946.092 576.061 947.112 576.703 947.716 577.497H947.754V571.074H950.172V585.355H947.905V584.052H947.868ZM942.748 580.84C942.748 582.276 943.674 583.58 945.298 583.58C946.829 583.58 947.886 582.314 947.886 580.84C947.886 579.367 946.829 578.101 945.298 578.101C943.674 578.101 942.748 579.386 942.748 580.84ZM952.979 585.355V576.307H955.283V577.723H955.34C955.812 576.76 956.814 576.061 958.004 576.061C958.268 576.061 958.495 576.08 958.703 576.137V578.309C958.457 578.233 958.042 578.196 957.758 578.196C956.19 578.196 955.397 579.424 955.397 580.784V585.355H952.979ZM960.229 585.355V576.307H962.647V585.355H960.229ZM960.003 572.944C960.003 572.15 960.645 571.489 961.438 571.489C962.251 571.489 962.893 572.15 962.893 572.944C962.893 573.756 962.251 574.361 961.438 574.361C960.645 574.361 960.003 573.756 960.003 572.944ZM974.536 580.274V585.355H972.118V580.482C972.118 579.159 971.589 578.026 970.21 578.026C968.831 578.026 967.886 579.178 967.886 580.784V585.355H965.468V576.307H967.83V577.686H967.905C968.34 576.873 969.492 576.061 970.966 576.061C973.592 576.061 974.536 578.045 974.536 580.274ZM976.878 588.359L978.162 586.602C978.956 587.396 980.165 587.906 981.317 587.906C983.414 587.906 984.264 586.659 984.264 584.959V583.995H984.227C983.641 584.827 982.507 585.355 981.393 585.355C978.654 585.355 976.764 583.504 976.764 580.746C976.764 578.215 978.502 576.061 981.242 576.061C982.47 576.061 983.622 576.59 984.302 577.648H984.34V576.307H986.664V584.77C986.664 587.811 984.963 589.889 981.393 589.889C979.768 589.889 978.068 589.36 976.878 588.359ZM979.239 580.765C979.239 582.163 980.222 583.447 981.79 583.447C983.32 583.447 984.397 582.276 984.397 580.746C984.397 579.291 983.32 578.082 981.79 578.082C980.222 578.082 979.239 579.291 979.239 580.765ZM998.085 581.445H991.227C991.397 582.937 992.455 583.769 993.853 583.769C995.1 583.769 995.931 583.032 996.347 582.541L997.971 583.599C997.216 584.694 995.572 585.639 993.683 585.639C991.114 585.639 988.922 583.882 988.922 581.029C988.922 578.177 991.019 576.061 993.759 576.061C996.517 576.061 998.123 578.271 998.123 580.557C998.123 580.878 998.104 581.162 998.085 581.445ZM993.683 577.818C992.342 577.818 991.435 578.762 991.227 579.99H995.969C995.969 578.781 994.968 577.818 993.683 577.818ZM1000.35 585.355V576.307H1002.66V577.723H1002.72C1003.19 576.76 1004.19 576.061 1005.38 576.061C1005.64 576.061 1005.87 576.08 1006.08 576.137V578.309C1005.83 578.233 1005.42 578.196 1005.13 578.196C1003.57 578.196 1002.77 579.424 1002.77 580.784V585.355H1000.35Z" fill="#78469A"/>
<path d="M1164.37 368.402L1161.27 363.982L1159.53 365.896V368.402H1158.58V359.486H1159.53V364.737L1164.11 359.486H1165.34L1161.93 363.276L1165.57 368.402H1164.37ZM1172.22 365.405C1172.22 367.231 1170.86 368.566 1169.04 368.566C1167.23 368.566 1165.9 367.231 1165.9 365.405C1165.9 363.579 1167.23 362.269 1169.04 362.269C1170.86 362.269 1172.22 363.579 1172.22 365.405ZM1171.26 365.405C1171.26 364.145 1170.45 363.025 1169.04 363.025C1167.65 363.025 1166.83 364.145 1166.83 365.405C1166.83 366.664 1167.65 367.798 1169.04 367.798C1170.45 367.798 1171.26 366.664 1171.26 365.405ZM1174.93 363.579C1175.25 362.848 1176.06 362.269 1177.11 362.269C1178.82 362.269 1179.41 363.478 1179.41 365.04V368.402H1178.49V364.964C1178.49 363.994 1178.09 363.012 1176.91 363.012C1175.74 363.012 1174.92 363.969 1174.92 365.367V368.402H1174V362.433H1174.89V363.579H1174.93ZM1185.52 368.402L1183.53 365.229L1182.51 366.224V368.402H1181.6V358.881H1182.51V365.203H1182.53L1185.19 362.433H1186.42L1184.18 364.649L1186.69 368.402H1185.52ZM1188.8 363.604C1189.13 362.76 1189.86 362.269 1190.69 362.269C1190.83 362.269 1190.96 362.282 1191.08 362.307V363.151C1190.96 363.125 1190.77 363.1 1190.62 363.1C1189.38 363.1 1188.83 364.183 1188.83 365.254V368.402H1187.91V362.433H1188.78V363.604H1188.8ZM1197.41 365.657H1192.53C1192.62 366.891 1193.41 367.798 1194.74 367.798C1195.68 367.798 1196.35 367.294 1196.71 366.828L1197.3 367.319C1196.8 368.012 1195.83 368.566 1194.63 368.566C1192.92 368.566 1191.64 367.307 1191.64 365.531C1191.64 363.73 1192.92 362.269 1194.66 362.269C1196.5 362.269 1197.43 363.793 1197.43 365.14C1197.43 365.317 1197.42 365.493 1197.41 365.657ZM1196.59 364.977C1196.57 363.894 1195.73 363.025 1194.61 363.025C1193.38 363.025 1192.66 364.045 1192.54 364.977H1196.59ZM1201.92 368.402H1201.23C1199.82 368.402 1199.39 367.873 1199.39 366.299V363.188H1198.33V362.433H1199.38V360.783H1200.28V362.433H1201.89V363.188H1200.28V366.488C1200.28 367.559 1200.8 367.647 1201.42 367.647H1201.92V368.402ZM1208.6 365.657H1203.72C1203.81 366.891 1204.61 367.798 1205.93 367.798C1206.87 367.798 1207.54 367.294 1207.91 366.828L1208.5 367.319C1207.99 368.012 1207.02 368.566 1205.83 368.566C1204.11 368.566 1202.83 367.307 1202.83 365.531C1202.83 363.73 1204.11 362.269 1205.85 362.269C1207.69 362.269 1208.62 363.793 1208.62 365.14C1208.62 365.317 1208.61 365.493 1208.6 365.657ZM1207.78 364.977C1207.77 363.894 1206.92 363.025 1205.8 363.025C1204.57 363.025 1203.85 364.045 1203.74 364.977H1207.78ZM1214.46 363.579H1214.5C1214.8 362.861 1215.62 362.269 1216.63 362.269C1218.31 362.269 1218.93 363.541 1218.93 364.989V368.402H1218.02V365.002C1218.02 364.032 1217.65 363.012 1216.44 363.012C1215.29 363.012 1214.46 363.969 1214.46 365.367V368.402H1213.54V358.881H1214.46V363.579ZM1225.69 368.402H1224.82V367.433H1224.78C1224.42 368.176 1223.62 368.566 1222.75 368.566C1221.66 368.566 1220.65 367.999 1220.65 366.765C1220.65 365.657 1221.38 364.826 1223.19 364.8C1223.74 364.8 1224.33 364.889 1224.81 365.002V364.536C1224.81 363.528 1224.3 363.025 1223.19 363.025C1222.45 363.025 1221.86 363.314 1221.46 363.742L1220.91 363.113C1221.49 362.571 1222.19 362.269 1223.22 362.269C1224.84 362.269 1225.69 362.924 1225.69 364.662V368.402ZM1224.81 366.047V365.682C1224.24 365.543 1223.65 365.468 1223.12 365.48C1222.09 365.506 1221.58 365.997 1221.58 366.753C1221.58 367.521 1222.21 367.836 1222.93 367.836C1224.05 367.836 1224.81 367.067 1224.81 366.047ZM1228.84 363.579C1229.15 362.848 1229.97 362.269 1231.02 362.269C1232.73 362.269 1233.32 363.478 1233.32 365.04V368.402H1232.4V364.964C1232.4 363.994 1232 363.012 1230.81 363.012C1229.64 363.012 1228.82 363.969 1228.82 365.367V368.402H1227.91V362.433H1228.8V363.579H1228.84ZM1240.32 363.554V358.881H1241.24V368.402H1240.34V367.256H1240.32C1239.85 368.1 1238.94 368.566 1238.03 368.566C1236.24 368.566 1235.05 367.168 1235.05 365.418C1235.05 363.654 1236.26 362.269 1238.01 362.269C1239.02 362.269 1239.85 362.798 1240.29 363.554H1240.32ZM1236 365.418C1236 366.664 1236.78 367.798 1238.16 367.798C1239.47 367.798 1240.38 366.69 1240.38 365.418C1240.38 364.158 1239.47 363.025 1238.16 363.025C1236.78 363.025 1236 364.171 1236 365.418ZM1244.37 368.402H1243.46V358.881H1244.37V368.402ZM1247.05 360.72C1246.7 360.72 1246.44 360.455 1246.44 360.09C1246.44 359.725 1246.7 359.435 1247.05 359.435C1247.42 359.435 1247.7 359.725 1247.7 360.09C1247.7 360.455 1247.42 360.72 1247.05 360.72ZM1247.51 368.402H1246.6V362.433H1247.51V368.402ZM1250.66 363.579C1250.97 362.848 1251.79 362.269 1252.83 362.269C1254.55 362.269 1255.14 363.478 1255.14 365.04V368.402H1254.22V364.964C1254.22 363.994 1253.82 363.012 1252.63 363.012C1251.46 363.012 1250.64 363.969 1250.64 365.367V368.402H1249.72V362.433H1250.62V363.579H1250.66ZM1262.14 368.15V367.218H1262.11C1261.67 368.025 1260.78 368.491 1259.86 368.491C1258.07 368.491 1256.88 367.118 1256.88 365.405C1256.88 363.68 1258.06 362.269 1259.84 362.269C1260.78 362.269 1261.67 362.735 1262.14 363.604H1262.16V362.433H1263.06V368.087C1263.06 369.863 1262.26 371.463 1259.88 371.463C1258.84 371.463 1257.77 371.06 1257.07 370.38L1257.65 369.674C1258.21 370.304 1259.05 370.669 1259.89 370.669C1261.61 370.669 1262.14 369.511 1262.14 368.15ZM1257.82 365.38C1257.82 366.601 1258.63 367.722 1259.98 367.722C1261.3 367.722 1262.2 366.664 1262.2 365.38C1262.2 364.12 1261.29 363.025 1259.98 363.025C1258.63 363.025 1257.82 364.12 1257.82 365.38ZM1270.58 365.657H1265.71C1265.8 366.891 1266.59 367.798 1267.91 367.798C1268.86 367.798 1269.53 367.294 1269.89 366.828L1270.48 367.319C1269.98 368.012 1269.01 368.566 1267.81 368.566C1266.1 368.566 1264.82 367.307 1264.82 365.531C1264.82 363.73 1266.1 362.269 1267.84 362.269C1269.68 362.269 1270.61 363.793 1270.61 365.14C1270.61 365.317 1270.6 365.493 1270.58 365.657ZM1269.77 364.977C1269.75 363.894 1268.91 363.025 1267.79 363.025C1266.55 363.025 1265.84 364.045 1265.72 364.977H1269.77ZM1273.28 363.604C1273.61 362.76 1274.34 362.269 1275.17 362.269C1275.31 362.269 1275.44 362.282 1275.56 362.307V363.151C1275.44 363.125 1275.25 363.1 1275.1 363.1C1273.86 363.1 1273.31 364.183 1273.31 365.254V368.402H1272.39V362.433H1273.26V363.604H1273.28Z" fill="#78469A"/>
<path d="M916.131 604.544H915.161V600.4H910.01V604.544H909.053V595.627H910.01V599.544H915.161V595.627H916.131V604.544ZM923.198 598.574L920.855 604.544H919.848L917.455 598.574H918.462L920.339 603.574H920.364L922.228 598.574H923.198ZM929.072 604.544H928.203V603.574H928.165C927.8 604.317 927.006 604.708 926.137 604.708C925.041 604.708 924.034 604.141 924.034 602.907C924.034 601.798 924.764 600.967 926.578 600.942C927.119 600.942 927.711 601.03 928.19 601.144V600.678C928.19 599.67 927.686 599.166 926.578 599.166C925.835 599.166 925.243 599.456 924.84 599.884L924.298 599.254C924.878 598.713 925.57 598.411 926.603 598.411C928.228 598.411 929.072 599.065 929.072 600.803V604.544ZM928.19 602.189V601.824C927.623 601.685 927.031 601.609 926.502 601.622C925.47 601.647 924.966 602.138 924.966 602.894C924.966 603.662 925.596 603.977 926.313 603.977C927.434 603.977 928.19 603.209 928.19 602.189ZM935.344 599.72H935.382C935.684 599.002 936.503 598.411 937.51 598.411C939.198 598.411 939.815 599.683 939.815 601.131V604.544H938.908V601.144C938.908 600.174 938.53 599.154 937.321 599.154C936.175 599.154 935.344 600.111 935.344 601.509V604.544H934.425V595.023H935.344V599.72ZM942.442 596.861C942.09 596.861 941.825 596.597 941.825 596.232C941.825 595.867 942.09 595.577 942.442 595.577C942.807 595.577 943.085 595.867 943.085 596.232C943.085 596.597 942.807 596.861 942.442 596.861ZM942.896 604.544H941.989V598.574H942.896V604.544ZM946.045 599.72C946.36 598.99 947.178 598.411 948.224 598.411C949.936 598.411 950.528 599.62 950.528 601.181V604.544H949.609V601.106C949.609 600.136 949.206 599.154 948.022 599.154C946.851 599.154 946.032 600.111 946.032 601.509V604.544H945.113V598.574H946.007V599.72H946.045ZM957.525 599.695V595.023H958.444V604.544H957.55V603.398H957.525C957.059 604.242 956.152 604.708 955.233 604.708C953.444 604.708 952.26 603.31 952.26 601.559C952.26 599.796 953.47 598.411 955.22 598.411C956.228 598.411 957.059 598.94 957.5 599.695H957.525ZM953.205 601.559C953.205 602.806 953.986 603.939 955.371 603.939C956.681 603.939 957.588 602.831 957.588 601.559C957.588 600.3 956.681 599.166 955.371 599.166C953.986 599.166 953.205 600.312 953.205 601.559ZM961.553 599.746C961.88 598.902 962.611 598.411 963.442 598.411C963.581 598.411 963.707 598.423 963.833 598.448V599.292C963.707 599.267 963.518 599.242 963.367 599.242C962.132 599.242 961.578 600.325 961.578 601.395V604.544H960.659V598.574H961.528V599.746H961.553ZM970.156 601.798H965.282C965.37 603.033 966.163 603.939 967.486 603.939C968.43 603.939 969.098 603.436 969.463 602.97L970.055 603.461C969.551 604.154 968.582 604.708 967.385 604.708C965.672 604.708 964.388 603.448 964.388 601.672C964.388 599.871 965.672 598.411 967.41 598.411C969.249 598.411 970.181 599.934 970.181 601.282C970.181 601.458 970.168 601.635 970.156 601.798ZM969.337 601.118C969.325 600.035 968.481 599.166 967.36 599.166C966.126 599.166 965.408 600.186 965.294 601.118H969.337ZM972.856 599.746C973.183 598.902 973.914 598.411 974.745 598.411C974.883 598.411 975.009 598.423 975.135 598.448V599.292C975.009 599.267 974.82 599.242 974.669 599.242C973.435 599.242 972.881 600.325 972.881 601.395V604.544H971.962V598.574H972.831V599.746H972.856ZM980.446 599.695C980.874 598.952 981.705 598.411 982.713 598.411C984.476 598.411 985.672 599.796 985.672 601.572C985.672 603.322 984.488 604.708 982.7 604.708C981.781 604.708 980.874 604.254 980.408 603.41H980.383V604.544H979.501V595.023H980.408V599.695H980.446ZM984.74 601.572C984.74 600.325 983.947 599.166 982.562 599.166C981.252 599.166 980.358 600.312 980.358 601.572C980.358 602.844 981.252 603.939 982.562 603.939C983.947 603.939 984.74 602.806 984.74 601.572ZM988.353 599.746C988.68 598.902 989.41 598.411 990.242 598.411C990.38 598.411 990.506 598.423 990.632 598.448V599.292C990.506 599.267 990.317 599.242 990.166 599.242C988.932 599.242 988.378 600.325 988.378 601.395V604.544H987.458V598.574H988.327V599.746H988.353ZM996.169 603.436C995.854 604.116 995.048 604.708 994.091 604.708C992.391 604.708 991.799 603.423 991.799 601.975V598.574H992.706V601.95C992.706 602.919 993.071 603.939 994.318 603.939C995.502 603.939 996.182 602.919 996.182 601.609V598.574H997.101V604.544H996.22V603.436H996.169ZM1003.24 604.544L1001.25 601.37L1000.23 602.365V604.544H999.327V595.023H1000.23V601.345H1000.26L1002.92 598.574H1004.15L1001.91 600.791L1004.42 604.544H1003.24ZM1010.75 601.798H1005.88C1005.97 603.033 1006.76 603.939 1008.08 603.939C1009.03 603.939 1009.7 603.436 1010.06 602.97L1010.65 603.461C1010.15 604.154 1009.18 604.708 1007.98 604.708C1006.27 604.708 1004.99 603.448 1004.99 601.672C1004.99 599.871 1006.27 598.411 1008.01 598.411C1009.85 598.411 1010.78 599.934 1010.78 601.282C1010.78 601.458 1010.77 601.635 1010.75 601.798ZM1009.94 601.118C1009.92 600.035 1009.08 599.166 1007.96 599.166C1006.72 599.166 1006.01 600.186 1005.89 601.118H1009.94ZM1013.45 599.746C1013.78 598.902 1014.51 598.411 1015.34 598.411C1015.48 598.411 1015.61 598.423 1015.73 598.448V599.292C1015.61 599.267 1015.42 599.242 1015.27 599.242C1014.03 599.242 1013.48 600.325 1013.48 601.395V604.544H1012.56V598.574H1013.43V599.746H1013.45ZM1017.87 599.72C1018.19 598.99 1019 598.411 1020.05 598.411C1021.76 598.411 1022.35 599.62 1022.35 601.181V604.544H1021.44V601.106C1021.44 600.136 1021.03 599.154 1019.85 599.154C1018.68 599.154 1017.86 600.111 1017.86 601.509V604.544H1016.94V598.574H1017.83V599.72H1017.87ZM1029.87 601.798H1024.99C1025.08 603.033 1025.88 603.939 1027.2 603.939C1028.14 603.939 1028.81 603.436 1029.17 602.97L1029.77 603.461C1029.26 604.154 1028.29 604.708 1027.1 604.708C1025.38 604.708 1024.1 603.448 1024.1 601.672C1024.1 599.871 1025.38 598.411 1027.12 598.411C1028.96 598.411 1029.89 599.934 1029.89 601.282C1029.89 601.458 1029.88 601.635 1029.87 601.798ZM1029.05 601.118C1029.04 600.035 1028.19 599.166 1027.07 599.166C1025.84 599.166 1025.12 600.186 1025.01 601.118H1029.05ZM1033.76 603.272C1034.13 603.272 1034.43 603.562 1034.43 603.939C1034.43 604.305 1034.14 604.62 1033.76 604.62C1033.39 604.62 1033.08 604.317 1033.08 603.952C1033.08 603.574 1033.37 603.272 1033.76 603.272ZM1034.17 601.798V602.013H1033.25V601.647C1033.25 600.753 1033.54 600.136 1034.31 599.418C1034.94 598.839 1035.33 598.486 1035.33 597.743C1035.33 596.811 1034.66 596.27 1033.75 596.27C1032.83 596.27 1032.19 596.924 1032.14 597.781H1031.21C1031.27 596.257 1032.39 595.426 1033.8 595.426C1035.16 595.426 1036.28 596.219 1036.28 597.693C1036.28 598.751 1035.78 599.242 1035.1 599.821C1034.37 600.438 1034.17 600.892 1034.17 601.798Z" fill="#78469A"/>
<path d="M942.108 115.731H941.138V111.588H935.987V115.731H935.03V106.815H935.987V110.732H941.138V106.815H942.108V115.731ZM949.174 109.762L946.832 115.731H945.824L943.431 109.762H944.439L946.315 114.762H946.341L948.204 109.762H949.174ZM955.048 115.731H954.179V114.762H954.141C953.776 115.505 952.983 115.895 952.114 115.895C951.018 115.895 950.01 115.328 950.01 114.094C950.01 112.986 950.741 112.155 952.555 112.13C953.096 112.13 953.688 112.218 954.167 112.331V111.865C954.167 110.857 953.663 110.354 952.555 110.354C951.811 110.354 951.22 110.643 950.817 111.072L950.275 110.442C950.854 109.9 951.547 109.598 952.58 109.598C954.204 109.598 955.048 110.253 955.048 111.991V115.731ZM954.167 113.376V113.011C953.6 112.873 953.008 112.797 952.479 112.81C951.446 112.835 950.942 113.326 950.942 114.082C950.942 114.85 951.572 115.165 952.29 115.165C953.411 115.165 954.167 114.396 954.167 113.376ZM965.401 110.53C965.968 111.072 966.308 111.852 966.308 112.759C966.308 114.585 964.948 115.895 963.134 115.895C962.467 115.895 961.875 115.706 961.384 115.391L960.628 116.311L960.086 115.933L960.867 115.001C960.313 114.447 959.986 113.666 959.986 112.759C959.986 110.933 961.321 109.648 963.134 109.648C963.789 109.648 964.381 109.825 964.885 110.14L965.59 109.271L966.119 109.661L965.401 110.53ZM964.86 111.223L961.887 114.737C962.215 114.988 962.643 115.127 963.134 115.127C964.545 115.127 965.351 114.019 965.351 112.759C965.351 112.192 965.187 111.651 964.86 111.223ZM964.381 110.782C964.041 110.543 963.625 110.404 963.134 110.404C961.736 110.404 960.918 111.5 960.918 112.759C960.918 113.339 961.094 113.88 961.409 114.308L964.381 110.782ZM969.02 110.908C969.335 110.177 970.154 109.598 971.199 109.598C972.912 109.598 973.504 110.807 973.504 112.369V115.731H972.585V112.293C972.585 111.323 972.182 110.341 970.998 110.341C969.826 110.341 969.008 111.298 969.008 112.696V115.731H968.088V109.762H968.983V110.908H969.02ZM980.312 114.019C980.312 115.202 979.266 115.895 977.793 115.895C976.37 115.895 975.387 115.165 975.009 114.774L975.689 114.182C976.281 114.762 977.075 115.127 977.856 115.127C978.725 115.127 979.405 114.762 979.405 114.094C979.405 113.376 978.637 113.213 977.579 113.024C977.402 112.999 977.226 112.973 977.037 112.936C975.992 112.734 975.186 112.331 975.186 111.361C975.186 110.253 976.181 109.598 977.566 109.598C978.637 109.598 979.581 109.976 980.123 110.58L979.493 111.147C979.115 110.744 978.347 110.366 977.579 110.366C976.836 110.366 976.093 110.643 976.093 111.286C976.093 111.915 976.861 112.117 977.856 112.268C979.279 112.482 980.312 112.86 980.312 114.019ZM985.916 115.731L983.926 112.558L982.906 113.553V115.731H981.999V106.21H982.906V112.533H982.931L985.588 109.762H986.822L984.581 111.978L987.087 115.731H985.916ZM993.427 112.986H988.553C988.641 114.22 989.434 115.127 990.757 115.127C991.701 115.127 992.369 114.623 992.734 114.157L993.326 114.648C992.822 115.341 991.852 115.895 990.656 115.895C988.943 115.895 987.658 114.636 987.658 112.86C987.658 111.059 988.943 109.598 990.681 109.598C992.52 109.598 993.452 111.122 993.452 112.47C993.452 112.646 993.439 112.822 993.427 112.986ZM992.608 112.306C992.595 111.223 991.752 110.354 990.631 110.354C989.396 110.354 988.679 111.374 988.565 112.306H992.608ZM996.127 110.933C996.454 110.089 997.184 109.598 998.016 109.598C998.154 109.598 998.28 109.611 998.406 109.636V110.48C998.28 110.454 998.091 110.429 997.94 110.429C996.706 110.429 996.152 111.512 996.152 112.583V115.731H995.232V109.762H996.101V110.933H996.127ZM1003.72 110.883C1004.14 110.14 1004.98 109.598 1005.98 109.598C1007.75 109.598 1008.94 110.983 1008.94 112.759C1008.94 114.51 1007.76 115.895 1005.97 115.895C1005.05 115.895 1004.14 115.442 1003.68 114.598H1003.65V115.731H1002.77V106.21H1003.68V110.883H1003.72ZM1008.01 112.759C1008.01 111.512 1007.22 110.354 1005.83 110.354C1004.52 110.354 1003.63 111.5 1003.63 112.759C1003.63 114.031 1004.52 115.127 1005.83 115.127C1007.22 115.127 1008.01 113.993 1008.01 112.759ZM1011.62 110.933C1011.95 110.089 1012.68 109.598 1013.51 109.598C1013.65 109.598 1013.78 109.611 1013.9 109.636V110.48C1013.78 110.454 1013.59 110.429 1013.44 110.429C1012.2 110.429 1011.65 111.512 1011.65 112.583V115.731H1010.73V109.762H1011.6V110.933H1011.62ZM1019.44 114.623C1019.13 115.303 1018.32 115.895 1017.36 115.895C1015.66 115.895 1015.07 114.611 1015.07 113.162V109.762H1015.98V113.137C1015.98 114.107 1016.34 115.127 1017.59 115.127C1018.77 115.127 1019.45 114.107 1019.45 112.797V109.762H1020.37V115.731H1019.49V114.623H1019.44ZM1026.51 115.731L1024.52 112.558L1023.5 113.553V115.731H1022.6V106.21H1023.5V112.533H1023.53L1026.19 109.762H1027.42L1025.18 111.978L1027.69 115.731H1026.51ZM1034.03 112.986H1029.15C1029.24 114.22 1030.03 115.127 1031.36 115.127C1032.3 115.127 1032.97 114.623 1033.33 114.157L1033.92 114.648C1033.42 115.341 1032.45 115.895 1031.25 115.895C1029.54 115.895 1028.26 114.636 1028.26 112.86C1028.26 111.059 1029.54 109.598 1031.28 109.598C1033.12 109.598 1034.05 111.122 1034.05 112.47C1034.05 112.646 1034.04 112.822 1034.03 112.986ZM1033.21 112.306C1033.19 111.223 1032.35 110.354 1031.23 110.354C1030 110.354 1029.28 111.374 1029.16 112.306H1033.21ZM1036.73 110.933C1037.05 110.089 1037.78 109.598 1038.61 109.598C1038.75 109.598 1038.88 109.611 1039.01 109.636V110.48C1038.88 110.454 1038.69 110.429 1038.54 110.429C1037.3 110.429 1036.75 111.512 1036.75 112.583V115.731H1035.83V109.762H1036.7V110.933H1036.73ZM1041.14 110.908C1041.46 110.177 1042.28 109.598 1043.32 109.598C1045.03 109.598 1045.63 110.807 1045.63 112.369V115.731H1044.71V112.293C1044.71 111.323 1044.3 110.341 1043.12 110.341C1041.95 110.341 1041.13 111.298 1041.13 112.696V115.731H1040.21V109.762H1041.1V110.908H1041.14ZM1053.14 112.986H1048.26C1048.35 114.22 1049.15 115.127 1050.47 115.127C1051.41 115.127 1052.08 114.623 1052.45 114.157L1053.04 114.648C1052.53 115.341 1051.56 115.895 1050.37 115.895C1048.65 115.895 1047.37 114.636 1047.37 112.86C1047.37 111.059 1048.65 109.598 1050.39 109.598C1052.23 109.598 1053.16 111.122 1053.16 112.47C1053.16 112.646 1053.15 112.822 1053.14 112.986ZM1052.32 112.306C1052.31 111.223 1051.46 110.354 1050.34 110.354C1049.11 110.354 1048.39 111.374 1048.28 112.306H1052.32ZM1062.68 115.731H1061.81V114.762H1061.77C1061.41 115.505 1060.61 115.895 1059.74 115.895C1058.65 115.895 1057.64 115.328 1057.64 114.094C1057.64 112.986 1058.37 112.155 1060.18 112.13C1060.72 112.13 1061.32 112.218 1061.8 112.331V111.865C1061.8 110.857 1061.29 110.354 1060.18 110.354C1059.44 110.354 1058.85 110.643 1058.45 111.072L1057.9 110.442C1058.48 109.9 1059.18 109.598 1060.21 109.598C1061.83 109.598 1062.68 110.253 1062.68 111.991V115.731ZM1061.8 113.376V113.011C1061.23 112.873 1060.64 112.797 1060.11 112.81C1059.08 112.835 1058.57 113.326 1058.57 114.082C1058.57 114.85 1059.2 115.165 1059.92 115.165C1061.04 115.165 1061.8 114.396 1061.8 113.376ZM1061.63 107.52C1061.63 108.225 1061.06 108.754 1060.37 108.754C1059.69 108.754 1059.14 108.225 1059.14 107.533C1059.14 106.827 1059.69 106.298 1060.37 106.298C1061.06 106.298 1061.63 106.827 1061.63 107.52ZM1061.12 107.52C1061.12 107.117 1060.79 106.815 1060.37 106.815C1059.98 106.815 1059.65 107.117 1059.65 107.52C1059.65 107.923 1059.98 108.238 1060.37 108.238C1060.79 108.238 1061.12 107.923 1061.12 107.52ZM1073.94 112.734C1073.94 114.56 1072.58 115.895 1070.76 115.895C1068.95 115.895 1067.61 114.56 1067.61 112.734C1067.61 110.908 1068.95 109.598 1070.76 109.598C1072.58 109.598 1073.94 110.908 1073.94 112.734ZM1072.98 112.734C1072.98 111.475 1072.17 110.354 1070.76 110.354C1069.37 110.354 1068.55 111.475 1068.55 112.734C1068.55 113.993 1069.37 115.127 1070.76 115.127C1072.17 115.127 1072.98 113.993 1072.98 112.734ZM1076.6 110.92H1076.64C1077.06 110.127 1077.91 109.598 1078.93 109.598C1080.69 109.598 1081.89 110.971 1081.89 112.747C1081.89 114.497 1080.7 115.895 1078.92 115.895C1078 115.895 1077.1 115.429 1076.66 114.623H1076.62V118.754H1075.7V109.762H1076.6V110.92ZM1080.94 112.747C1080.94 111.5 1080.16 110.354 1078.77 110.354C1077.47 110.354 1076.56 111.475 1076.56 112.747C1076.56 114.006 1077.47 115.127 1078.77 115.127C1080.16 115.127 1080.94 113.993 1080.94 112.747ZM1084.56 110.92H1084.59C1085.02 110.127 1085.87 109.598 1086.89 109.598C1088.65 109.598 1089.85 110.971 1089.85 112.747C1089.85 114.497 1088.66 115.895 1086.87 115.895C1085.95 115.895 1085.06 115.429 1084.62 114.623H1084.58V118.754H1083.66V109.762H1084.56V110.92ZM1088.9 112.747C1088.9 111.5 1088.12 110.354 1086.72 110.354C1085.43 110.354 1084.52 111.475 1084.52 112.747C1084.52 114.006 1085.43 115.127 1086.72 115.127C1088.12 115.127 1088.9 113.993 1088.9 112.747ZM1092.56 110.908C1092.88 110.177 1093.7 109.598 1094.74 109.598C1096.46 109.598 1097.05 110.807 1097.05 112.369V115.731H1096.13V112.293C1096.13 111.323 1095.73 110.341 1094.54 110.341C1093.37 110.341 1092.55 111.298 1092.55 112.696V115.731H1091.63V109.762H1092.53V110.908H1092.56ZM1103.8 115.731H1102.94V114.762H1102.9C1102.53 115.505 1101.74 115.895 1100.87 115.895C1099.77 115.895 1098.77 115.328 1098.77 114.094C1098.77 112.986 1099.5 112.155 1101.31 112.13C1101.85 112.13 1102.44 112.218 1102.92 112.331V111.865C1102.92 110.857 1102.42 110.354 1101.31 110.354C1100.57 110.354 1099.98 110.643 1099.57 111.072L1099.03 110.442C1099.61 109.9 1100.3 109.598 1101.34 109.598C1102.96 109.598 1103.8 110.253 1103.8 111.991V115.731ZM1102.92 113.376V113.011C1102.36 112.873 1101.76 112.797 1101.24 112.81C1100.2 112.835 1099.7 113.326 1099.7 114.082C1099.7 114.85 1100.33 115.165 1101.05 115.165C1102.17 115.165 1102.92 114.396 1102.92 113.376ZM1102.76 107.52C1102.76 108.225 1102.19 108.754 1101.5 108.754C1100.82 108.754 1100.27 108.225 1100.27 107.533C1100.27 106.827 1100.82 106.298 1101.5 106.298C1102.19 106.298 1102.76 106.827 1102.76 107.52ZM1102.24 107.52C1102.24 107.117 1101.92 106.815 1101.5 106.815C1101.11 106.815 1100.78 107.117 1100.78 107.52C1100.78 107.923 1101.11 108.238 1101.5 108.238C1101.92 108.238 1102.24 107.923 1102.24 107.52ZM1108.11 114.459C1108.48 114.459 1108.78 114.749 1108.78 115.127C1108.78 115.492 1108.49 115.807 1108.11 115.807C1107.73 115.807 1107.43 115.505 1107.43 115.14C1107.43 114.762 1107.72 114.459 1108.11 114.459ZM1108.52 112.986V113.2H1107.6V112.835C1107.6 111.941 1107.89 111.323 1108.65 110.606C1109.28 110.026 1109.67 109.674 1109.67 108.931C1109.67 107.999 1109.01 107.457 1108.1 107.457C1107.18 107.457 1106.54 108.112 1106.49 108.968H1105.56C1105.62 107.444 1106.74 106.613 1108.15 106.613C1109.51 106.613 1110.63 107.407 1110.63 108.88C1110.63 109.938 1110.13 110.429 1109.45 111.009C1108.72 111.626 1108.52 112.079 1108.52 112.986Z" fill="#78469A"/>
<path d="M721.602 346.746L711.474 352.593L711.474 340.899L721.602 346.746Z" fill="#0082B9"/>
<path d="M721.602 346.746L731.729 340.899L731.729 352.594L721.602 346.746Z" fill="#78469A"/>
<path d="M694.449 346.778H715.668" stroke="#0082B9" stroke-width="1.48386"/>
<path d="M728.43 346.778H749.649" stroke="#78469A" stroke-width="1.48386"/>
</g>
<defs>
<clipPath id="clip0_6214_28333">
<rect width="1440" height="693.511" fill="white"/>
</clipPath>
</defs>
</svg>
