<?xml version="1.0" encoding="utf-8"?>
<!-- Generator: Adobe Illustrator 22.0.1, SVG Export Plug-In . SVG Version: 6.00 Build 0)  -->
<svg version="1.1" id="Layer_1" xmlns="http://www.w3.org/2000/svg" xmlns:xlink="http://www.w3.org/1999/xlink" x="0px" y="0px"
	 viewBox="0 0 16 16" enable-background="new 0 0 16 16" xml:space="preserve">
<title>Icon/Shopping/Deposition</title>
<desc>Created with Sketch.</desc>
<g id="Icon_x2F_Shopping_x2F_Deposition">
	<g id="Mask">
		<path id="path-1_1_" fill="#181C56" d="M15,4.49999v1.75h-1.4l1.05,2.8c0.525,1.3125,0.35,2.8-0.4375,4.025
			c-0.7875,1.225-2.1875,1.925-3.5875,1.925H5.2875c-1.4,0-2.7125-0.7-3.5-1.925s-0.9625-2.7125-0.4375-4.025l1.05-2.8H1v-1.75H15z
			 M5.8125,0.99999c0.7245,0,1.3125,0.588,1.3125,1.3125s-0.588,1.3125-1.3125,1.3125S4.5,3.03699,4.5,2.31249
			S5.088,0.99999,5.8125,0.99999z M10.1875,0.99999c0.7245,0,1.3125,0.588,1.3125,1.3125s-0.588,1.3125-1.3125,1.3125
			s-1.3125-0.588-1.3125-1.3125S9.463,0.99999,10.1875,0.99999z"/>
	</g>
</g>
</svg>
