<?xml version="1.0" encoding="utf-8"?>
<!-- Generator: Adobe Illustrator 22.0.1, SVG Export Plug-In . SVG Version: 6.00 Build 0)  -->
<svg version="1.1" id="Layer_1" xmlns="http://www.w3.org/2000/svg" xmlns:xlink="http://www.w3.org/1999/xlink" x="0px" y="0px"
	 viewBox="0 0 14 14" enable-background="new 0 0 14 14" xml:space="preserve">
<title>Icon Fill</title>
<desc>Created with Sketch.</desc>
<g id="Symbols">
	<g id="Icon_x2F_Shopping_x2F_Euro" transform="translate(-1.000000, -1.000000)">
		<g id="Icon-Fill">
			<path id="path-1_1_" fill="#181C56" d="M14.125,0.99999c0.483,0,0.875,0.392,0.875,0.875v12.25c0,0.483-0.392,0.875-0.875,0.875
				H1.875c-0.483,0-0.875-0.392-0.875-0.875v-12.25c0-0.483,0.392-0.875,0.875-0.875H14.125z M9.1084,11.16019
				c-1.22,0-2.275-0.69-2.8-1.702h2.566v-0.972h-2.887c-0.024-0.16-0.039-0.321-0.039-0.486c0-0.165,0.015-0.326,0.039-0.486h2.887
				v-0.973h-2.566c0.525-1.01,1.585-1.701,2.8-1.701c0.783,0,1.502,0.287,2.057,0.763l0.86-0.86
				c-0.773-0.695-1.799-1.118-2.917-1.118c-1.905,0-3.519,1.22-4.122,2.916h-1.361v0.973h1.137c-0.019,0.16-0.029,0.321-0.029,0.486
				c0,0.165,0.01,0.326,0.029,0.486h-1.137v0.972h1.361c0.603,1.697,2.217,2.917,4.122,2.917c1.123,0,2.144-0.423,2.917-1.118
				l-0.865-0.861C10.6104,10.87319,9.8964,11.16019,9.1084,11.16019z"/>
		</g>
	</g>
</g>
</svg>
