<svg width="147" height="32" viewBox="0 0 147 32" fill="none" xmlns="http://www.w3.org/2000/svg">
<path d="M5.72521 7.73472C5.82272 9.20246 6.09999 10.3609 6.55703 11.2167C7.01407 12.0733 7.999 12.442 9.0342 12.442C9.46306 12.442 9.72052 12.3759 10.2842 12.125C10.8479 11.8742 11.749 11.2904 12.9869 10.373C14.3839 9.30888 15.573 8.58755 16.5533 8.20826C17.5337 7.82897 18.4874 7.63971 19.3573 7.63971C21.9929 7.63971 23.9475 8.40741 25.2767 9.94204C26.6067 11.4767 27.4096 13.969 27.6305 17.1493H22.667C22.5086 15.4375 22.2351 14.3749 21.6798 13.4278C21.2593 12.7103 20.2843 12.442 19.358 12.442C18.8797 12.442 18.5087 12.572 17.8224 12.8958C17.136 13.2196 16.321 13.7668 15.3772 14.5376C14.5438 15.2224 13.5726 15.8495 12.4635 16.418C11.3545 16.9866 10.2111 17.245 9.03496 17.245C6.37574 17.245 4.38989 16.4796 3.07818 14.8956C1.76723 13.3115 0.994826 10.9271 0.761734 7.73548H5.72521V7.73472Z" fill="white"/>
<path d="M32.8636 17.1485H38.0252C38.0252 18.5919 39.4717 19.7078 41.2465 19.7078C42.9231 19.7078 44.2051 18.8549 44.2051 17.3788C44.2051 16.4926 43.7123 15.6724 41.7066 15.0165L39.0108 14.1963C34.0138 12.8517 33.0609 9.80069 33.0609 7.66862C33.0609 3.60135 36.5459 0.747955 41.0493 0.747955C45.5526 0.747955 48.7085 3.33912 48.7085 7.73475H43.547C43.547 6.39014 42.7251 5.24164 40.9502 5.24164C39.3392 5.24164 38.2872 6.32401 38.2872 7.57057C38.2872 8.03043 38.419 9.04667 40.5229 9.63727L42.8896 10.3913C46.111 11.3756 49.3986 13.0159 49.3986 17.1166C49.3986 21.9713 45.1908 24.1361 41.0485 24.1361C36.216 24.1361 32.8629 21.3154 32.8629 17.1485H32.8636Z" fill="white"/>
<path d="M61.7274 8.4234H67.0199L60.5109 23.7424H56.2703L49.7612 8.4234H55.0538L58.407 17.543L61.7274 8.4234Z" fill="white"/>
<path d="M67.8091 3.30643C67.8091 1.69883 69.1901 0.484955 70.8332 0.484955C72.4762 0.484955 73.7918 1.69883 73.7918 3.30643C73.7918 4.91403 72.477 6.12714 70.8332 6.12714C69.1894 6.12714 67.8091 4.8479 67.8091 3.30643ZM68.401 23.7423V8.42339H73.2662V23.7423H68.401Z" fill="white"/>
<path d="M93.747 16.0661C93.747 21.0197 90.131 24.1361 86.285 24.1361C84.7067 24.1361 82.669 23.4801 81.5516 22.0367V31.287H76.6864V8.42339H81.5516V10.0637C82.669 8.65294 84.7074 8.02966 86.285 8.02966C90.131 8.02966 93.747 11.1461 93.747 16.0661ZM88.8155 16.0661C88.8155 14.1309 87.1717 12.5241 85.265 12.5241C83.3584 12.5241 81.7146 14.0983 81.7146 16.0661C81.7146 18.034 83.4239 19.6416 85.265 19.6416C87.1062 19.6416 88.8155 18.034 88.8155 16.0661Z" fill="white"/>
<path d="M113.34 16.0661C113.34 21.0197 109.724 24.1361 105.878 24.1361C104.3 24.1361 102.262 23.4801 101.144 22.0367V31.287H96.279V8.42339H101.144V10.0637C102.262 8.65294 104.3 8.02966 105.878 8.02966C109.724 8.02966 113.34 11.1461 113.34 16.0661ZM108.409 16.0661C108.409 14.1309 106.765 12.5241 104.858 12.5241C102.952 12.5241 101.308 14.0983 101.308 16.0661C101.308 18.034 103.017 19.6416 104.858 19.6416C106.7 19.6416 108.409 18.034 108.409 16.0661Z" fill="white"/>
<path d="M131.29 17.5103H120.047C120.508 18.9864 121.79 19.9046 123.63 19.9046C125.076 19.9046 126.556 19.2487 127.509 18.3305L130.008 21.4788C128.496 23.1191 125.866 24.1361 123.302 24.1361C118.436 24.1361 115.018 20.7901 115.018 16.1323C115.018 11.1461 118.864 8.03043 123.269 8.03043C127.674 8.03043 131.356 11.1141 131.356 15.772C131.356 16.1976 131.323 16.7556 131.291 17.5103H131.29ZM126.523 14.6562C126.457 13.1474 125.109 12.1296 123.367 12.1296C121.921 12.1296 120.507 12.8183 120.014 14.6562H126.523Z" fill="white"/>
<path d="M145.492 8.48876L144.341 13.1139C143.388 12.556 142.631 12.5241 142.139 12.5241C140.232 12.5241 138.654 14.1317 138.654 18.6581V23.7431H133.788V8.42339H138.588V11.6705C139.476 9.14472 141.317 8.02966 143.191 8.02966C143.914 8.02966 144.703 8.09503 145.492 8.48876Z" fill="white"/>
</svg>
