<?xml version="1.0" encoding="utf-8"?>
<!-- Generator: Adobe Illustrator 22.0.1, SVG Export Plug-In . SVG Version: 6.00 Build 0)  -->
<svg version="1.1" id="Layer_1" xmlns="http://www.w3.org/2000/svg" xmlns:xlink="http://www.w3.org/1999/xlink" x="0px" y="0px"
	 viewBox="0 0 16 16" enable-background="new 0 0 16 16" xml:space="preserve">
<title>Icon/Travel/Fine</title>
<desc>Created with Sketch.</desc>
<g id="Icon_x2F_Travel_x2F_Fine">
	<g id="Icon-Fill">
		<path id="path-1_1_" fill="#181C56" d="M14.41667,2.99999C14.73925,2.99999,15,3.24832,15,3.55554v2.77778
			c0,0.30722-0.26075,0.55556-0.58333,0.55556c-0.64342,0-1.16667,0.49833-1.16667,1.11111s0.52325,1.11111,1.16667,1.11111
			C14.73925,9.1111,15,9.35943,15,9.66665v2.77778c0,0.30722-0.26075,0.55556-0.58333,0.55556H1.58333
			C1.26075,12.99999,1,12.75165,1,12.44443V9.66665C1,9.35943,1.26075,9.1111,1.58333,9.1111
			C2.22675,9.1111,2.75,8.61276,2.75,7.99999S2.22675,6.88887,1.58333,6.88887C1.26075,6.88887,1,6.64054,1,6.33332V3.55554
			c0-0.30722,0.26075-0.55556,0.58333-0.55556H14.41667z M9.3125,5.91665L8,7.16665l-1.3125-1.25l-0.875,0.83333l1.3125,1.25
			l-1.3125,1.25l0.875,0.83333L8,8.83332l1.3125,1.25l0.875-0.83333l-1.3125-1.25l1.3125-1.25L9.3125,5.91665z"/>
	</g>
</g>
</svg>
