<?xml version="1.0" encoding="utf-8"?>
<!-- Generator: Adobe Illustrator 22.0.1, SVG Export Plug-In . SVG Version: 6.00 Build 0)  -->
<svg version="1.1" id="Layer_1" xmlns="http://www.w3.org/2000/svg" xmlns:xlink="http://www.w3.org/1999/xlink" x="0px" y="0px"
	 viewBox="0 0 16 16" enable-background="new 0 0 16 16" xml:space="preserve">
<title>Icon/Travel/Interrail</title>
<desc>Created with Sketch.</desc>
<g id="Icon_x2F_Travel_x2F_Interrail">
	<g id="Icon-Fill">
		<path id="path-1_1_" fill="#181C56" d="M10.91667,10.27268c0.65917,0,1.26117-0.23104,1.75-0.60568v4.74202
			c0,0.32618-0.26133,0.59091-0.58333,0.59091H3.91667c-0.322,0-0.58333-0.26473-0.58333-0.59091V9.667
			c0.48883,0.37463,1.09083,0.60568,1.75,0.60568h1.75v0.59091c0,0.32618,0.26133,0.59091,0.58333,0.59091h1.16667
			c0.322,0,0.58333-0.26473,0.58333-0.59091v-0.59091H10.91667z M5.08333,9.09086c-0.96658,0-1.75-0.79359-1.75-1.77272V4.95452
			c0-1.63149,1.30608-2.95453,2.91667-2.95453h3.5c1.61058,0,2.91667,1.32304,2.91667,2.95453v2.36363
			c0,0.97913-0.78342,1.77272-1.75,1.77272h-1.75V8.49996c0-0.32618-0.26133-0.59091-0.58333-0.59091H7.41667
			c-0.322,0-0.58333,0.26473-0.58333,0.59091v0.59091H5.08333z M13.83333,14.99993V6.83596C14.51117,7.08119,15,7.7306,15,8.49996
			v5.90906c0,0.32618-0.26133,0.59091-0.58333,0.59091H13.83333z M2.16667,6.83602v8.16396H1.58333
			C1.26133,14.99999,1,14.73526,1,14.40908V8.50002C1,7.73065,1.48883,7.08125,2.16667,6.83602z"/>
	</g>
</g>
</svg>
