<?xml version="1.0" encoding="utf-8"?>
<!-- Generator: Adobe Illustrator 22.0.1, SVG Export Plug-In . SVG Version: 6.00 Build 0)  -->
<svg version="1.1" id="Layer_1" xmlns="http://www.w3.org/2000/svg" xmlns:xlink="http://www.w3.org/1999/xlink" x="0px" y="0px"
	 viewBox="0 0 14 14" enable-background="new 0 0 14 14" xml:space="preserve">
<title>Icon Fill</title>
<desc>Created with Sketch.</desc>
<g id="Symbols">
	<g id="Icon_x2F_Travel_x2F_International" transform="translate(-1.000000, -1.000000)">
		<path id="Icon-Fill" fill="#181C56" d="M8,14.99999c-3.85,0-7-3.15-7-7s3.15-7,7-7s7,3.15,7,7S11.85,14.99999,8,14.99999
			L8,14.99999z M8,2.74999c-2.8875,0-5.25,2.3625-5.25,5.25s2.3625,5.25,5.25,5.25s5.25-2.3625,5.25-5.25S10.8875,2.74999,8,2.74999
			L8,2.74999z M4.675,7.99999c0.2625-0.7,1.4-0.875,1.925-0.6125c0.525,0.2625,0.9625,0,1.4875,0.6125
			c0.4375,0.6125,0.875,0.4375,0.9625,1.3125c0.0875,0.875-1.1375,2.45-1.4,2.8875c-0.35,0.4375-1.225-0.0875-1.225-1.3125
			s-0.6125-1.3125-0.9625-1.4C5.025,9.31249,4.15,9.22499,4.675,7.99999 M6.8625,4.06249c0,0-0.175,0.4375,0.175,0.525
			C7.9125,4.76249,8,5.02499,8.35,5.46249c0.35,0.4375-0.0875,0.875-0.175,1.4c-0.0875,0.4375,0.2625,0.7,1.05,0.525
			c1.05-0.2625,1.1375,0.875,1.75,0.7875c0.525-0.0875,0.9625,0.7875,1.225,0.875c0.0875-0.35,0.175-0.7,0.175-1.05
			c0-1.6625-0.9625-3.0625-2.275-3.85c-0.35-0.0875-0.7-0.0875-1.05-0.0875C8.35,4.06249,7.7375,3.62499,6.8625,4.06249"/>
	</g>
</g>
</svg>
