<?xml version="1.0" encoding="utf-8"?>
<!-- Generator: Adobe Illustrator 22.0.1, SVG Export Plug-In . SVG Version: 6.00 Build 0)  -->
<svg version="1.1" id="Layer_1" xmlns="http://www.w3.org/2000/svg" xmlns:xlink="http://www.w3.org/1999/xlink" x="0px" y="0px"
	 viewBox="0 0 16 16" enable-background="new 0 0 16 16" xml:space="preserve">
<title>Icon/Travel/Salesplace</title>
<desc>Created with Sketch.</desc>
<g id="Icon_x2F_Travel_x2F_Salesplace">
	<g id="Icon-Fill">
		<path id="path-1_1_" fill="#181C56" d="M8.85714,4.93749h0.85714v3.0625H8.85714c-0.237,0-0.42857,0.19556-0.42857,0.4375v5.6875
			H7.57143v-4.375c0-0.24194-0.19157-0.4375-0.42857-0.4375H6.28571v-4.375h0.85714c0.237,0,0.42857-0.19556,0.42857-0.4375v-0.875
			h0.85714v0.875C8.42857,4.74192,8.62014,4.93749,8.85714,4.93749L8.85714,4.93749z M11,10.62499H9.71429v-0.875H11V10.62499z
			 M11.42857,12.37499h1.28571v0.875h-1.28571V12.37499z M11.42857,11.06249h1.28571v0.875h-1.28571V11.06249z M11.42857,9.74999
			h1.28571v0.875h-1.28571V9.74999z M11,11.93749H9.71429v-0.875H11V11.93749z M11,13.24999H9.71429v-0.875H11V13.24999z
			 M6.28571,11.93749H5v-0.875h1.28571V11.93749z M6.28571,13.24999H5v-0.875h1.28571V13.24999z M4.57143,11.93749H3.28571v-0.875
			h1.28571V11.93749z M4.57143,13.24999H3.28571v-0.875h1.28571V13.24999z M8,0.99999c-0.237,0-0.42857,0.19556-0.42857,0.4375
			v1.3125H7.14286c-0.237,0-0.42857,0.19556-0.42857,0.4375v0.875H5.85714c-0.237,0-0.42857,0.19556-0.42857,0.4375v4.8125h-3
			C2.19157,9.31249,2,9.50805,2,9.74999v4.8125c0,0.24194,0.19157,0.4375,0.42857,0.4375h3.42857h1.28571h1.71429h1.28572h3.42857
			c0.237,0,0.42857-0.19556,0.42857-0.4375v-6.125c0-0.24194-0.19157-0.4375-0.42857-0.4375h-3v-3.5
			c0-0.24194-0.19157-0.4375-0.42857-0.4375H9.28571v-0.875c0-0.24194-0.19157-0.4375-0.42857-0.4375H8.42857v-1.3125
			C8.42857,1.19555,8.237,0.99999,8,0.99999L8,0.99999z"/>
	</g>
</g>
</svg>
