<?xml version="1.0" encoding="utf-8"?>
<!-- Generator: Adobe Illustrator 22.0.1, SVG Export Plug-In . SVG Version: 6.00 Build 0)  -->
<svg version="1.1" id="Layer_1" xmlns="http://www.w3.org/2000/svg" xmlns:xlink="http://www.w3.org/1999/xlink" x="0px" y="0px"
	 viewBox="0 0 16 16" enable-background="new 0 0 16 16" xml:space="preserve">
<title>Icon/Travel/Ticket</title>
<desc>Created with Sketch.</desc>
<g id="Icon_x2F_Travel_x2F_Ticket">
	<g id="Icon-Fill">
		<path id="path-1_1_" fill="#181C56" d="M14.4165,2.58679c0.323,0,0.583,0.248,0.583,0.556v2.777c0,0.308-0.26,0.556-0.583,0.556
			c-0.643,0-1.167,0.498-1.167,1.111s0.524,1.111,1.167,1.111c0.323,0,0.583,0.248,0.583,0.556v2.777
			c0,0.308-0.26,0.556-0.583,0.556H1.5835c-0.323,0-0.584-0.248-0.584-0.556v-2.777c0-0.308,0.261-0.556,0.584-0.556
			c0.643,0,1.166-0.498,1.166-1.111s-0.523-1.111-1.166-1.111c-0.323,0-0.584-0.248-0.584-0.556v-2.777
			c0-0.308,0.261-0.556,0.584-0.556H14.4165z M7.387,7.95449l-1.226-1.226l-0.858,0.859l2.084,2.083l3.31-3.31l-0.858-0.858
			L7.387,7.95449z"/>
	</g>
</g>
</svg>
