<svg width="320" height="320" viewBox="0 0 320 320" fill="none" xmlns="http://www.w3.org/2000/svg">
<path d="M61.5127 133.46C61.5127 133.46 232.624 133.46 246.614 133.46C250.114 133.46 258.323 135.776 261.917 140.348C272.719 154.063 280.712 185.079 280.712 185.079C280.712 185.079 282.725 190.782 283.278 193.997C283.831 197.212 275.069 194.965 275.069 194.965L263.335 199.969L267.716 204.515L43.5195 204.489V133.46H61.5127Z" fill="white"/>
<path d="M43.1992 204.48H269.759" stroke="#FF5959" stroke-width="1.28" stroke-linejoin="round"/>
<path d="M234.744 133.365C235.331 133.365 235.331 133.331 235.91 133.331C236.498 133.331 236.498 133.426 237.085 133.426C237.673 133.426 237.673 133.452 238.252 133.452C238.839 133.452 238.839 133.469 239.427 133.469C240.015 133.469 240.015 133.547 240.602 133.547C241.19 133.547 241.19 133.322 241.778 133.322C242.365 133.322 242.365 133.452 242.953 133.452C243.54 133.452 243.54 133.46 244.128 133.46C244.715 133.46 244.715 133.478 245.303 133.478C245.666 133.478 246.02 133.599 246.383 133.616C246.746 133.633 247.118 133.469 247.481 133.504C247.844 133.538 248.189 133.676 248.552 133.728C248.915 133.78 249.287 133.754 249.641 133.815C249.995 133.884 250.367 133.884 250.721 133.97C251.075 134.057 251.369 134.35 251.715 134.445C252.06 134.541 252.449 134.506 252.795 134.618C253.141 134.731 253.443 134.964 253.78 135.094C254.117 135.223 254.532 135.171 254.86 135.318C255.188 135.465 255.508 135.647 255.837 135.811C256.156 135.975 256.441 136.226 256.761 136.399C257.081 136.571 257.349 136.822 257.66 137.012C257.971 137.202 258.368 137.254 258.662 137.462C258.965 137.669 259.103 138.092 259.388 138.308C259.673 138.525 260.053 138.628 260.33 138.862C260.606 139.095 260.866 139.345 261.134 139.587C261.401 139.829 261.661 140.08 261.92 140.339L262.032 140.227C262.05 140.244 261.955 140.357 261.972 140.374C262.248 140.65 262.473 140.979 262.732 141.264C262.991 141.558 263.328 141.791 263.562 142.094C263.804 142.405 263.994 142.75 264.218 143.07C264.435 143.39 264.685 143.701 264.884 144.038C265.083 144.375 265.273 144.721 265.454 145.066C265.636 145.412 265.705 145.818 265.86 146.173C266.016 146.527 266.284 146.847 266.422 147.21C266.621 147.728 266.569 147.754 266.768 148.273C266.966 148.791 266.837 148.843 267.035 149.37C267.234 149.897 267.407 149.828 267.606 150.355C267.804 150.883 267.796 150.883 267.995 151.401C268.193 151.92 268.193 151.92 268.392 152.447C268.591 152.965 268.565 152.983 268.764 153.501C268.962 154.02 268.997 154.011 269.196 154.529C269.395 155.048 269.455 155.031 269.654 155.549C269.852 156.068 269.809 156.085 270.008 156.604C270.207 157.122 270.112 157.157 270.31 157.684C270.509 158.202 270.535 158.194 270.725 158.721C270.924 159.239 270.881 159.257 271.079 159.784C271.278 160.311 271.347 160.285 271.546 160.803C271.745 161.331 271.598 161.383 271.797 161.91C271.996 162.437 272.039 162.42 272.237 162.938C272.436 163.457 272.402 163.474 272.6 163.992C272.799 164.511 272.886 164.485 273.076 165.004C273.274 165.522 273.378 165.487 273.577 166.006C273.776 166.524 273.741 166.542 273.94 167.069C274.138 167.596 274.199 167.57 274.398 168.089C274.596 168.616 274.614 168.607 274.813 169.126C275.011 169.653 274.985 169.662 275.184 170.18C275.383 170.707 275.245 170.75 275.443 171.278C275.642 171.805 275.677 171.787 275.875 172.315C276.074 172.842 275.936 172.894 276.135 173.412C276.333 173.939 276.368 173.922 276.567 174.449C276.765 174.976 276.739 174.985 276.938 175.504C277.137 176.031 277.18 176.013 277.379 176.532C277.578 177.059 277.604 177.05 277.802 177.569C278.001 178.096 278.105 178.053 278.303 178.58C278.502 179.107 278.407 179.142 278.606 179.669C278.805 180.187 278.831 180.179 279.029 180.697C279.228 181.224 279.124 181.259 279.323 181.786C279.522 182.313 279.729 182.227 279.928 182.754C280.127 183.281 279.919 183.359 280.118 183.878C280.317 184.405 280.524 184.327 280.723 184.854C280.922 185.381 280.835 185.416 281.034 185.934C281.233 186.462 281.129 186.496 281.328 187.023C281.527 187.55 281.673 187.49 281.872 188.017C282.071 188.544 282.011 188.562 282.209 189.089C282.408 189.616 282.322 189.65 282.52 190.178C282.719 190.705 282.806 190.67 283.004 191.197C283.203 191.725 283.194 191.733 283.393 192.26C283.557 192.692 283.549 193.09 283.436 193.487C283.315 193.902 283.143 194.308 282.797 194.568C282.469 194.818 282.045 195.008 281.587 195.008C281.034 195.008 281.034 195.026 280.481 195.026C279.928 195.026 279.928 194.939 279.375 194.939C278.822 194.939 278.822 194.81 278.269 194.81C277.716 194.81 277.716 194.801 277.163 194.801C276.61 194.801 276.61 194.801 276.057 194.801C275.504 194.801 275.504 194.965 274.951 194.965C274.398 194.965 274.398 194.931 273.845 194.931C273.292 194.931 273.292 194.931 272.739 194.931C272.186 194.931 272.186 195.06 271.633 195.06C271.079 195.06 271.079 194.844 270.526 194.844C269.973 194.844 269.973 194.974 269.42 194.974C268.867 194.974 268.867 194.983 268.314 194.983C267.761 194.983 267.761 195.086 267.208 195.086C266.655 195.086 266.655 194.957 266.102 194.957C265.549 194.957 265.549 195.017 264.996 195.017C264.443 195.017 264.443 194.81 263.89 194.81C263.337 194.81 263.337 194.862 262.784 194.862C262.231 194.862 262.231 195.069 261.678 195.069C261.125 195.069 261.125 194.887 260.572 194.887C260.019 194.887 260.019 195.095 259.466 195.095C258.913 195.095 258.913 195.086 258.351 195.086C257.798 195.086 257.798 194.922 257.245 194.922C256.692 194.922 256.692 194.974 256.139 194.974C255.586 194.974 255.586 195.112 255.033 195.112C254.48 195.112 254.48 194.931 253.927 194.931C253.374 194.931 253.374 194.896 252.821 194.896C252.268 194.896 252.268 194.948 251.715 194.948C251.162 194.948 251.162 194.965 250.609 194.965C250.056 194.965 250.056 194.879 249.503 194.879C248.95 194.879 248.95 195.086 248.397 195.086C247.844 195.086 247.843 194.879 247.29 194.879C246.737 194.879 246.738 194.836 246.184 194.836C245.631 194.836 245.631 194.913 245.078 194.913C244.525 194.913 244.525 194.844 243.972 194.844C243.419 194.844 243.419 195.017 242.866 195.017C242.313 195.017 242.313 195.06 241.76 195.06C241.207 195.06 241.207 194.896 240.654 194.896C240.101 194.896 240.101 195.052 239.548 195.052C238.995 195.052 238.995 195.069 238.433 195.069C237.88 195.069 237.88 194.974 237.327 194.974C236.774 194.974 236.774 194.896 236.221 194.896C235.668 194.896 235.668 194.983 235.115 194.983C234.562 194.983 234.562 195.043 234.009 195.043C233.456 195.043 233.456 194.957 232.903 194.957C232.35 194.957 232.35 194.922 231.788 194.922C231.235 194.922 231.235 194.905 230.674 194.905C230.121 194.905 230.121 194.905 229.568 194.905C229.015 194.905 229.015 195.069 228.462 195.069C227.909 195.069 227.908 194.896 227.355 194.896C226.802 194.896 226.802 194.948 226.241 194.948C225.688 194.948 225.688 194.974 225.126 194.974C224.573 194.974 224.573 195 224.011 195C223.458 195 223.458 194.879 222.897 194.879C222.344 194.879 222.344 194.983 221.782 194.983C221.229 194.983 221.229 194.836 220.667 194.836C220.114 194.836 220.114 194.827 219.552 194.827C218.999 194.827 219 194.939 218.438 194.939C217.885 194.939 217.885 195.052 217.323 195.052C216.77 195.052 216.77 195.103 216.217 195.103C215.664 195.103 215.664 194.887 215.111 194.887C214.558 194.887 214.558 194.922 213.996 194.922C213.443 194.922 213.443 195.06 212.882 195.06C212.329 195.06 212.329 195 211.767 195C211.205 195 211.205 194.836 210.652 194.836C210.099 194.836 210.099 194.965 209.537 194.965C208.976 194.965 208.976 194.896 208.423 194.896C207.861 194.896 207.861 194.931 207.308 194.931C206.755 194.931 206.746 194.879 206.193 194.879" stroke="#626493" stroke-width="0.880283" stroke-miterlimit="10" stroke-linecap="round" stroke-linejoin="round"/>
<path d="M269.489 185.935C269.489 186.194 269.412 186.436 269.247 186.669C269.109 186.868 268.936 187.075 268.703 187.248C268.504 187.395 268.262 187.507 268.003 187.637C267.778 187.749 267.528 187.836 267.269 187.931C267.027 188.017 266.785 188.121 266.508 188.181C266.258 188.242 265.998 188.302 265.731 188.346C265.471 188.389 265.212 188.423 264.944 188.458C264.685 188.484 264.417 188.51 264.149 188.527C263.89 188.544 263.622 188.518 263.346 188.518C263.078 188.518 262.81 188.527 262.542 188.51C262.274 188.493 262.006 188.475 261.747 188.441C261.479 188.406 261.211 188.372 260.952 188.328C260.684 188.277 260.416 188.242 260.166 188.181C259.898 188.112 259.656 188 259.414 187.914C259.146 187.818 258.904 187.723 258.679 187.611C258.42 187.481 258.17 187.378 257.971 187.239C257.737 187.067 257.565 186.859 257.426 186.66C257.262 186.427 257.176 186.185 257.176 185.926C257.176 185.667 257.279 185.433 257.444 185.2C257.582 185.001 257.746 184.785 257.979 184.612C258.178 184.465 258.411 184.336 258.671 184.206C258.895 184.094 259.155 184.025 259.414 183.938C259.656 183.852 259.906 183.765 260.174 183.696C260.425 183.636 260.684 183.584 260.952 183.541C261.203 183.498 261.47 183.437 261.738 183.411C261.998 183.385 262.265 183.342 262.533 183.325C262.792 183.307 263.06 183.342 263.337 183.342C263.605 183.342 263.873 183.333 264.14 183.351C264.408 183.368 264.676 183.394 264.935 183.428C265.203 183.463 265.471 183.48 265.731 183.523C265.998 183.575 266.258 183.636 266.508 183.696C266.776 183.765 267.035 183.843 267.269 183.93C267.537 184.025 267.787 184.102 268.012 184.215C268.271 184.344 268.487 184.5 268.686 184.647C268.919 184.82 269.135 184.984 269.273 185.183C269.438 185.416 269.489 185.675 269.489 185.935Z" stroke="#626493" stroke-width="0.518984" stroke-miterlimit="10" stroke-linecap="round"/>
<path d="M218.517 132.587C218.854 132.259 218.88 132.285 219.225 131.957C219.562 131.628 219.528 131.585 219.865 131.257C220.202 130.928 220.184 130.902 220.521 130.574C220.858 130.246 220.867 130.246 221.204 129.917C221.541 129.589 221.602 129.649 221.947 129.321C222.284 128.992 222.258 128.958 222.595 128.629C222.932 128.301 222.915 128.275 223.252 127.947C223.589 127.618 223.58 127.61 223.926 127.281C224.263 126.953 224.272 126.962 224.609 126.625C224.946 126.296 224.963 126.313 225.309 125.985C225.646 125.657 225.646 125.648 225.983 125.32C226.32 124.991 226.294 124.957 226.631 124.628C226.968 124.3 227.02 124.352 227.357 124.023C227.694 123.695 227.659 123.66 227.996 123.332C228.333 123.004 228.316 122.986 228.661 122.658C228.998 122.329 229.007 122.329 229.344 122.001C229.681 121.673 229.733 121.725 230.079 121.396C230.424 121.068 230.381 121.025 230.718 120.696C231.064 120.368 231.115 120.42 231.452 120.091C231.789 119.763 231.72 119.685 232.057 119.357C232.394 119.028 232.412 119.046 232.749 118.708C233.086 118.38 233.12 118.415 233.457 118.078C233.803 117.749 233.777 117.723 234.114 117.386C234.46 117.058 234.494 117.092 234.831 116.755C235.177 116.418 235.125 116.375 235.471 116.038C235.816 115.701 236.412 115.831 236.24 115.381C236.075 114.941 235.721 115.442 235.255 115.442C234.788 115.442 234.788 115.373 234.321 115.373C233.855 115.373 233.855 115.433 233.379 115.433C232.913 115.433 232.913 115.425 232.446 115.425C231.98 115.425 231.98 115.425 231.513 115.425C231.046 115.425 231.046 115.364 230.58 115.364C230.113 115.364 230.113 115.416 229.646 115.416C229.18 115.416 229.18 115.433 228.713 115.433C228.247 115.433 228.247 115.364 227.78 115.364C227.313 115.364 227.313 115.407 226.838 115.407C226.371 115.407 226.371 115.373 225.905 115.373C225.438 115.373 225.438 115.373 224.972 115.373C224.505 115.373 224.505 115.416 224.038 115.416C223.572 115.416 223.572 115.381 223.096 115.381C222.63 115.381 222.63 115.399 222.155 115.399C221.688 115.399 221.688 115.355 221.221 115.355C220.755 115.355 220.755 115.416 220.28 115.416C219.813 115.416 219.813 115.416 219.338 115.416C218.871 115.416 218.871 115.416 218.404 115.416C217.938 115.416 217.938 115.425 217.471 115.425C217.005 115.425 217.004 115.39 216.538 115.39C216.071 115.39 216.071 115.373 215.596 115.373C215.129 115.373 215.129 115.468 214.663 115.468C214.196 115.468 214.196 115.425 213.73 115.425C213.263 115.425 213.263 115.433 212.788 115.433C212.321 115.433 212.321 115.416 211.846 115.416C211.379 115.416 211.379 115.45 210.904 115.45C210.437 115.45 210.437 115.416 209.971 115.416C209.504 115.416 209.504 115.364 209.029 115.364C208.554 115.364 208.553 115.381 208.087 115.381C207.612 115.381 207.612 115.416 207.145 115.416C206.678 115.416 206.67 115.433 206.203 115.433" stroke="#626493" stroke-width="1.91652" stroke-miterlimit="10" stroke-linecap="round" stroke-linejoin="round"/>
<path d="M49.1895 133.4C50.2091 133.4 50.2091 133.374 51.2201 133.374C52.2397 133.374 52.2398 133.435 53.2508 133.435C54.2704 133.435 54.2704 133.374 55.2814 133.374C56.3011 133.374 56.3011 133.357 57.3121 133.357C58.3318 133.357 58.3318 133.426 59.3428 133.426C60.3624 133.426 60.3624 133.417 61.3734 133.417C62.3931 133.417 62.3931 133.469 63.4041 133.469C64.4151 133.469 64.4237 133.409 65.4347 133.409C66.4544 133.409 66.4544 133.417 67.4654 133.417C68.4851 133.417 68.4851 133.435 69.4961 133.435C70.5157 133.435 70.5157 133.357 71.5267 133.357C72.5377 133.357 72.5378 133.504 73.5574 133.504C74.5684 133.504 74.5684 133.426 75.5881 133.426C76.5991 133.426 76.5991 133.4 77.6188 133.4C78.6298 133.4 78.6297 133.435 79.6494 133.435C80.6604 133.435 80.6604 133.365 81.68 133.365C82.6997 133.365 82.6997 133.452 83.7107 133.452C84.7304 133.452 84.7304 133.348 85.7414 133.348C86.761 133.348 86.7611 133.478 87.7721 133.478C88.7917 133.478 88.7917 133.435 89.8114 133.435C90.831 133.435 90.831 133.461 91.842 133.461C92.8616 133.461 92.8617 133.504 93.8727 133.504C94.8923 133.504 94.8923 133.469 95.9033 133.469C96.923 133.469 96.923 133.452 97.934 133.452C98.9536 133.452 98.9537 133.417 99.9647 133.417C100.984 133.417 100.984 133.461 101.995 133.461C103.006 133.461 103.015 133.512 104.026 133.512C105.046 133.512 105.046 133.4 106.057 133.4C107.076 133.4 107.076 133.391 108.087 133.391C109.107 133.391 109.107 133.417 110.118 133.417C111.138 133.417 111.138 133.469 112.149 133.469C113.168 133.469 113.168 133.435 114.179 133.435C115.199 133.435 115.199 133.357 116.219 133.357C117.238 133.357 117.238 133.391 118.258 133.391C119.278 133.391 119.278 133.409 120.289 133.409C121.308 133.409 121.308 133.357 122.319 133.357C123.339 133.357 123.339 133.443 124.35 133.443C125.37 133.443 125.37 133.426 126.381 133.426C127.4 133.426 127.4 133.443 128.411 133.443C129.431 133.443 129.431 133.504 130.442 133.504C131.462 133.504 131.462 133.374 132.473 133.374C133.492 133.374 133.492 133.521 134.503 133.521C135.523 133.521 135.523 133.452 136.543 133.452C137.562 133.452 137.562 133.417 138.582 133.417C139.601 133.417 139.601 133.426 140.612 133.426C141.632 133.426 141.632 133.495 142.643 133.495C143.663 133.495 143.663 133.383 144.674 133.383C145.693 133.383 145.693 133.53 146.704 133.53C147.724 133.53 147.724 133.495 148.735 133.495C149.755 133.495 149.755 133.478 150.774 133.478C151.794 133.478 151.794 133.409 152.814 133.409C153.833 133.409 153.833 133.521 154.853 133.521C155.873 133.521 155.873 133.435 156.884 133.435C157.895 133.435 157.903 133.504 158.914 133.504C159.934 133.504 159.934 133.452 160.954 133.452C161.973 133.452 161.973 133.495 162.993 133.495C164.013 133.495 164.013 133.53 165.032 133.53C166.052 133.53 166.052 133.383 167.072 133.383C168.091 133.383 168.091 133.409 169.111 133.409C170.131 133.409 170.13 133.538 171.15 133.538C172.17 133.538 172.17 133.452 173.189 133.452C174.209 133.452 174.209 133.452 175.229 133.452C176.248 133.452 176.248 133.538 177.268 133.538C178.288 133.538 178.288 133.374 179.307 133.374C180.327 133.374 180.327 133.461 181.347 133.461C182.366 133.461 182.366 133.452 183.386 133.452C184.406 133.452 184.406 133.469 185.425 133.469C186.445 133.469 186.445 133.487 187.465 133.487C188.484 133.487 188.484 133.478 189.495 133.478C190.515 133.478 190.515 133.512 191.526 133.512C192.546 133.512 192.546 133.461 193.557 133.461C194.576 133.461 194.576 133.409 195.596 133.409C196.616 133.409 196.616 133.443 197.635 133.443C198.655 133.443 198.655 133.417 199.666 133.417C200.685 133.417 200.685 133.495 201.705 133.495C202.725 133.495 202.725 133.461 203.745 133.461C204.764 133.461 204.764 133.374 205.784 133.374C206.803 133.374 206.803 133.538 207.823 133.538C208.843 133.538 208.843 133.426 209.862 133.426C210.882 133.426 210.882 133.538 211.902 133.538C212.921 133.538 212.921 133.4 213.941 133.4C214.961 133.4 214.961 133.452 215.98 133.452C217 133.452 217 133.547 218.02 133.547C219.039 133.547 219.039 133.547 220.059 133.547C221.079 133.547 221.079 133.4 222.098 133.4C223.118 133.4 223.118 133.512 224.138 133.512C225.157 133.512 225.157 133.547 226.177 133.547C227.196 133.547 227.196 133.417 228.216 133.417C229.236 133.417 229.236 133.521 230.264 133.521C231.292 133.521 231.284 133.374 232.312 133.374" stroke="#626493" stroke-width="0.771815" stroke-miterlimit="10" stroke-linecap="round" stroke-linejoin="round"/>
<path d="M158.458 194.974C157.438 194.974 157.438 195.008 156.41 195.008C155.39 195.008 155.39 195.017 154.362 195.017C153.343 195.017 153.343 194.974 152.314 194.974C151.295 194.974 151.295 194.991 150.266 194.991C149.247 194.991 149.247 194.991 148.218 194.991C147.199 194.991 147.199 194.957 146.17 194.957C145.142 194.957 145.142 194.922 144.122 194.922C143.094 194.922 143.094 194.957 142.074 194.957C141.046 194.957 141.046 194.939 140.027 194.939C139.007 194.939 139.007 195 137.979 195C136.959 195 136.959 194.965 135.931 194.965C134.911 194.965 134.911 194.948 133.883 194.948C132.863 194.948 132.863 194.965 131.835 194.965C130.806 194.965 130.806 194.913 129.787 194.913C128.759 194.913 128.759 194.991 127.739 194.991C126.711 194.991 126.711 194.905 125.691 194.905C124.663 194.905 124.663 194.913 123.643 194.913C122.623 194.913 122.623 194.974 121.595 194.974C120.567 194.974 120.567 194.896 119.547 194.896C118.519 194.896 118.519 194.939 117.499 194.939C116.471 194.939 116.471 194.913 115.451 194.913C114.423 194.913 114.423 194.913 113.403 194.913C112.375 194.913 112.375 194.957 111.355 194.957C110.327 194.957 110.327 195.008 109.307 195.008C108.279 195.008 108.279 194.965 107.259 194.965C106.231 194.965 106.231 194.991 105.211 194.991C104.183 194.991 104.183 194.896 103.164 194.896C102.135 194.896 102.135 194.983 101.116 194.983C100.087 194.983 100.087 194.931 99.0676 194.931C98.0393 194.931 98.0393 194.922 97.0197 194.922C95.9914 194.922 95.9914 194.913 94.9717 194.913C93.9434 194.913 93.9434 195 92.9238 195C91.8955 195 91.8955 194.896 90.8758 194.896C89.8562 194.896 89.8562 195.008 88.8279 195.008C87.8083 195.008 87.8083 195 86.78 195C85.7603 195 85.7603 194.957 84.732 194.957C83.7037 194.957 83.7037 195 82.6841 195C81.6558 195 81.6558 194.991 80.6361 194.991C79.6078 194.991 79.6079 194.948 78.5882 194.948C77.5599 194.948 77.5599 194.948 76.5403 194.948C75.512 194.948 75.5119 195.008 74.4923 195.008C73.464 195.008 73.464 194.913 72.4443 194.913C71.416 194.913 71.416 194.931 70.3964 194.931C69.3681 194.931 69.3681 194.913 68.3484 194.913C67.3202 194.913 67.3201 194.931 66.2919 194.931C65.2636 194.931 65.2636 194.931 64.2439 194.931C63.2156 194.931 63.2156 194.948 62.1873 194.948C61.159 194.948 61.159 194.965 60.1307 194.965C59.1024 194.965 59.1024 194.991 58.0828 194.991C57.0545 194.991 57.0545 194.991 56.0349 194.991C55.0066 194.991 55.0066 194.931 53.9783 194.931C52.95 194.931 52.95 194.931 51.9217 194.931C50.8934 194.931 50.8934 195 49.8651 195C48.8368 195 48.8368 194.974 47.8085 194.974C46.7803 194.974 46.7802 194.991 45.752 194.991" stroke="#626493" stroke-width="0.680993" stroke-miterlimit="10" stroke-linecap="round" stroke-linejoin="round"/>
<path d="M158.457 144.142C157.429 144.142 157.429 144.116 156.4 144.116C155.372 144.116 155.372 144.124 154.344 144.124C153.315 144.124 153.315 144.099 152.287 144.099C151.259 144.099 151.259 144.159 150.23 144.159C149.202 144.159 149.202 144.15 148.174 144.15C147.146 144.15 147.146 144.116 146.117 144.116C145.089 144.116 145.089 144.116 144.061 144.116C143.032 144.116 143.032 144.133 142.004 144.133C140.976 144.133 140.976 144.116 139.948 144.116C138.919 144.116 138.919 144.168 137.891 144.168C136.863 144.168 136.863 144.09 135.834 144.09C134.806 144.09 134.806 144.15 133.778 144.15C132.75 144.15 132.75 144.099 131.721 144.099C130.693 144.099 130.693 144.073 129.665 144.073C128.636 144.073 128.636 144.073 127.608 144.073C126.58 144.073 126.58 144.159 125.551 144.159C124.523 144.159 124.523 144.116 123.495 144.116C122.467 144.116 122.467 144.099 121.438 144.099C120.41 144.099 120.41 144.064 119.382 144.064C118.353 144.064 118.353 144.107 117.325 144.107C116.297 144.107 116.297 144.159 115.268 144.159C114.24 144.159 114.24 144.133 113.212 144.133C112.184 144.133 112.184 144.15 111.155 144.15C110.127 144.15 110.127 144.15 109.09 144.15C108.062 144.15 108.062 144.081 107.034 144.081C106.005 144.081 106.005 144.133 104.977 144.133C103.949 144.133 103.949 144.099 102.92 144.099C101.892 144.099 101.892 144.142 100.855 144.142C99.8268 144.142 99.8268 144.09 98.7985 144.09C97.7702 144.09 97.7702 144.107 96.7419 144.107C95.7136 144.107 95.7137 144.15 94.6854 144.15C93.6571 144.15 93.6571 144.099 92.6288 144.099C91.6005 144.099 91.6005 144.047 90.5722 144.047C89.5439 144.047 89.5439 144.124 88.5156 144.124C87.4873 144.124 87.4873 144.099 86.459 144.099C85.4307 144.099 85.4307 144.073 84.4024 144.073C83.3741 144.073 83.3741 144.073 82.3459 144.073C81.3176 144.073 81.3176 144.116 80.2893 144.116C79.261 144.116 79.261 144.142 78.224 144.142C77.1957 144.142 77.1957 144.064 76.1674 144.064C75.1391 144.064 75.1392 144.133 74.1022 144.133C73.074 144.133 73.0739 144.133 72.037 144.133C71.0087 144.133 71.0087 144.124 69.9718 144.124C68.9435 144.124 68.9435 144.15 67.9065 144.15C66.8782 144.15 66.8783 144.159 65.8413 144.159C64.813 144.159 64.813 144.15 63.7761 144.15C62.7478 144.15 62.7478 144.124 61.7195 144.124C60.6912 144.124 60.6912 144.081 59.6543 144.081C58.626 144.081 58.626 144.116 57.589 144.116C56.5607 144.116 56.5608 144.124 55.5238 144.124C54.4956 144.124 54.4955 144.09 53.4586 144.09C52.4217 144.09 52.4217 144.107 51.3934 144.107C50.3564 144.107 50.3564 144.116 49.3281 144.116" stroke="#626493" stroke-width="0.680993" stroke-miterlimit="10" stroke-linecap="round" stroke-linejoin="round"/>
<path d="M263.337 144.125C262.334 144.125 262.334 144.107 261.332 144.107C260.329 144.107 260.33 144.125 259.327 144.125C258.325 144.125 258.325 144.125 257.322 144.125C256.32 144.125 256.32 144.081 255.318 144.081C254.315 144.081 254.315 144.081 253.313 144.081C252.311 144.081 252.311 144.116 251.308 144.116C250.306 144.116 250.306 144.09 249.303 144.09C248.301 144.09 248.301 144.116 247.299 144.116C246.296 144.116 246.296 144.125 245.294 144.125C244.292 144.125 244.292 144.09 243.289 144.09C242.287 144.09 242.287 144.116 241.284 144.116C240.282 144.116 240.282 144.116 239.28 144.116C238.277 144.116 238.277 144.09 237.275 144.09C236.273 144.09 236.273 144.081 235.27 144.081C234.268 144.081 234.268 144.125 233.265 144.125C232.263 144.125 232.263 144.107 231.261 144.107C230.258 144.107 230.258 144.107 229.256 144.107C228.254 144.107 228.254 144.081 227.243 144.081C226.24 144.081 226.24 144.099 225.238 144.099C224.236 144.099 224.236 144.116 223.225 144.116C222.222 144.116 222.222 144.116 221.211 144.116C220.209 144.116 220.209 144.133 219.206 144.133C218.204 144.133 218.204 144.099 217.202 144.099C216.199 144.099 216.199 144.09 215.188 144.09C214.186 144.09 214.186 144.125 213.175 144.125C212.173 144.125 212.173 144.125 211.162 144.125C210.151 144.125 210.151 144.133 209.148 144.133C208.146 144.133 208.137 144.107 207.135 144.107" stroke="#626493" stroke-width="0.680993" stroke-miterlimit="10" stroke-linecap="round" stroke-linejoin="round"/>
<path d="M263.382 199.917C263.675 199.71 263.675 199.831 263.744 199.874L263.917 200.038L264.263 200.358C264.496 200.574 264.704 200.807 264.928 201.032L265.568 201.732L265.887 202.086L266.043 202.259C266.095 202.319 266.173 202.354 266.155 202.492C266.147 202.544 266.112 202.579 266.069 202.587C265.939 202.613 265.896 202.536 265.836 202.492L265.646 202.345L265.274 202.052L264.531 201.464C264.289 201.257 264.038 201.066 263.814 200.85L263.468 200.531L263.295 200.366C263.243 200.306 263.131 200.315 263.312 200.003C263.312 199.978 263.347 199.943 263.382 199.917Z" fill="#626493"/>
<path d="M102.066 136.174C102.066 136.727 102.083 136.727 102.083 137.28C102.083 137.833 102.031 137.833 102.031 138.386C102.031 138.939 102.144 138.939 102.144 139.492C102.144 140.045 102.109 140.045 102.109 140.599C102.109 141.152 102.126 141.152 102.126 141.705C102.126 142.258 102.152 142.258 102.152 142.811C102.152 143.364 102.092 143.364 102.092 143.917C102.092 144.47 102.144 144.47 102.144 145.023C102.144 145.576 102.092 145.576 102.092 146.129C102.092 146.682 102.109 146.683 102.109 147.236C102.109 147.789 102.083 147.789 102.083 148.342C102.083 148.895 102.049 148.895 102.049 149.448C102.049 150.001 102.083 150.001 102.083 150.554C102.083 151.107 102.057 151.107 102.057 151.66C102.057 152.213 102.049 152.213 102.049 152.766C102.049 153.32 102.152 153.32 102.152 153.873C102.152 154.426 102.152 154.426 102.152 154.979C102.152 155.532 102.118 155.532 102.118 156.085C102.118 156.638 102.057 156.638 102.057 157.191C102.057 157.744 102.1 157.744 102.1 158.297C102.1 158.85 102.135 158.85 102.135 159.403C102.135 159.957 102.092 159.957 102.092 160.51C102.092 161.063 102.118 161.063 102.118 161.607C102.118 162.16 102.083 162.16 102.083 162.705C102.083 163.258 102.118 163.258 102.118 163.802C102.118 164.355 102.152 164.355 102.152 164.9C102.152 165.453 102.083 165.453 102.083 165.997C102.083 166.55 102.118 166.55 102.118 167.095C102.118 167.648 102.152 167.648 102.152 168.201C102.152 168.754 102.109 168.754 102.109 169.307C102.109 169.86 102.074 169.86 102.074 170.413C102.074 170.966 102.049 170.966 102.049 171.52C102.049 172.073 102.161 172.073 102.161 172.626C102.161 173.179 102.092 173.179 102.092 173.732C102.092 174.285 102.092 174.285 102.092 174.838C102.092 175.391 102.135 175.391 102.135 175.944C102.135 176.497 102.17 176.497 102.17 177.05C102.17 177.604 102.118 177.603 102.118 178.157C102.118 178.71 102.049 178.71 102.049 179.263C102.049 179.816 102.152 179.816 102.152 180.369C102.152 180.922 102.152 180.922 102.152 181.475C102.152 182.028 102.092 182.028 102.092 182.581C102.092 183.134 102.066 183.134 102.066 183.687C102.066 184.241 102.066 184.241 102.066 184.794C102.066 185.347 102.144 185.347 102.144 185.9C102.144 186.453 102.178 186.453 102.178 187.006C102.178 187.559 102.152 187.559 102.152 188.112C102.152 188.665 102.161 188.665 102.161 189.218C102.161 189.771 102.161 189.771 102.161 190.324C102.161 190.878 102.074 190.878 102.074 191.431C102.074 191.984 102.161 191.984 102.161 192.537C102.161 193.09 102.083 193.09 102.083 193.643C102.083 194.196 102.161 194.196 102.161 194.749C102.161 195.302 102.057 195.302 102.057 195.855C102.057 196.408 102.1 196.408 102.1 196.962C102.1 197.515 102.1 197.515 102.1 198.068C102.1 198.621 102.057 198.621 102.057 199.174C102.057 199.727 102.152 199.727 102.152 200.28C102.152 200.833 102.17 200.833 102.17 201.395C102.17 201.957 102.17 201.948 102.17 202.51" fill="white"/>
<path d="M102.066 136.174C102.066 136.727 102.083 136.727 102.083 137.28C102.083 137.833 102.031 137.833 102.031 138.386C102.031 138.939 102.144 138.939 102.144 139.492C102.144 140.045 102.109 140.045 102.109 140.599C102.109 141.152 102.126 141.152 102.126 141.705C102.126 142.258 102.152 142.258 102.152 142.811C102.152 143.364 102.092 143.364 102.092 143.917C102.092 144.47 102.144 144.47 102.144 145.023C102.144 145.576 102.092 145.576 102.092 146.129C102.092 146.682 102.109 146.683 102.109 147.236C102.109 147.789 102.083 147.789 102.083 148.342C102.083 148.895 102.049 148.895 102.049 149.448C102.049 150.001 102.083 150.001 102.083 150.554C102.083 151.107 102.057 151.107 102.057 151.66C102.057 152.213 102.049 152.213 102.049 152.766C102.049 153.32 102.152 153.32 102.152 153.873C102.152 154.426 102.152 154.426 102.152 154.979C102.152 155.532 102.118 155.532 102.118 156.085C102.118 156.638 102.057 156.638 102.057 157.191C102.057 157.744 102.1 157.744 102.1 158.297C102.1 158.85 102.135 158.85 102.135 159.403C102.135 159.957 102.092 159.957 102.092 160.51C102.092 161.063 102.118 161.063 102.118 161.607C102.118 162.16 102.083 162.16 102.083 162.705C102.083 163.258 102.118 163.258 102.118 163.802C102.118 164.355 102.152 164.355 102.152 164.9C102.152 165.453 102.083 165.453 102.083 165.997C102.083 166.55 102.118 166.55 102.118 167.095C102.118 167.648 102.152 167.648 102.152 168.201C102.152 168.754 102.109 168.754 102.109 169.307C102.109 169.86 102.074 169.86 102.074 170.413C102.074 170.966 102.049 170.966 102.049 171.52C102.049 172.073 102.161 172.073 102.161 172.626C102.161 173.179 102.092 173.179 102.092 173.732C102.092 174.285 102.092 174.285 102.092 174.838C102.092 175.391 102.135 175.391 102.135 175.944C102.135 176.497 102.17 176.497 102.17 177.05C102.17 177.604 102.118 177.603 102.118 178.157C102.118 178.71 102.049 178.71 102.049 179.263C102.049 179.816 102.152 179.816 102.152 180.369C102.152 180.922 102.152 180.922 102.152 181.475C102.152 182.028 102.092 182.028 102.092 182.581C102.092 183.134 102.066 183.134 102.066 183.687C102.066 184.241 102.066 184.241 102.066 184.794C102.066 185.347 102.144 185.347 102.144 185.9C102.144 186.453 102.178 186.453 102.178 187.006C102.178 187.559 102.152 187.559 102.152 188.112C102.152 188.665 102.161 188.665 102.161 189.218C102.161 189.771 102.161 189.771 102.161 190.324C102.161 190.878 102.074 190.878 102.074 191.431C102.074 191.984 102.161 191.984 102.161 192.537C102.161 193.09 102.083 193.09 102.083 193.643C102.083 194.196 102.161 194.196 102.161 194.749C102.161 195.302 102.057 195.302 102.057 195.855C102.057 196.408 102.1 196.408 102.1 196.962C102.1 197.515 102.1 197.515 102.1 198.068C102.1 198.621 102.057 198.621 102.057 199.174C102.057 199.727 102.152 199.727 102.152 200.28C102.152 200.833 102.17 200.833 102.17 201.395C102.17 201.957 102.17 201.948 102.17 202.51" stroke="#626493" stroke-width="0.85122" stroke-miterlimit="10" stroke-linecap="round" stroke-linejoin="round"/>
<path d="M164.582 198.439C164.582 196.97 164.651 196.97 164.651 195.509C164.651 194.049 164.763 194.049 164.763 192.58C164.763 191.111 164.617 191.111 164.617 189.65C164.617 188.181 164.781 188.181 164.781 186.721C164.781 185.251 164.651 185.251 164.651 183.791C164.651 182.322 164.746 182.322 164.746 180.853C164.746 179.383 164.755 179.384 164.755 177.923C164.755 176.454 164.738 176.454 164.738 174.985C164.738 173.516 164.66 173.516 164.66 172.055C164.66 170.586 164.703 170.586 164.703 169.117C164.703 167.648 164.755 167.648 164.755 166.179C164.755 164.709 164.625 164.709 164.625 163.24C164.625 161.771 164.686 161.771 164.686 160.311C164.686 158.842 164.729 158.842 164.729 157.372C164.729 155.903 164.772 155.903 164.772 154.434C164.772 152.965 164.712 152.965 164.712 151.496C164.712 150.027 164.729 150.027 164.729 148.558C164.729 147.088 164.66 147.088 164.66 145.619C164.66 144.772 165.386 144.012 166.233 144.012C167.71 144.012 167.71 144.116 169.188 144.116C170.665 144.116 170.665 144.167 172.143 144.167C173.621 144.167 173.621 144.064 175.098 144.064C176.576 144.064 176.576 144.021 178.054 144.021C179.531 144.021 179.531 144.116 181.009 144.116C182.486 144.116 182.486 144.142 183.964 144.142C185.442 144.142 185.442 144.064 186.919 144.064C188.397 144.064 188.397 143.995 189.875 143.995C191.352 143.995 191.352 144.012 192.83 144.012C194.308 144.012 194.307 144.124 195.785 144.124C197.263 144.124 197.263 144.124 198.749 144.124C200.235 144.124 200.227 144.09 201.713 144.09C202.56 144.09 203.139 144.772 203.139 145.619C203.139 147.088 203.242 147.088 203.242 148.549C203.242 150.009 203.329 150.009 203.329 151.479C203.329 152.948 203.208 152.948 203.208 154.408C203.208 155.877 203.337 155.877 203.337 157.338C203.337 158.807 203.208 158.807 203.208 160.267C203.208 161.737 203.337 161.737 203.337 163.206C203.337 164.675 203.312 164.675 203.312 166.135C203.312 167.605 203.277 167.604 203.277 169.074C203.277 170.543 203.225 170.543 203.225 172.003C203.225 173.472 203.191 173.472 203.191 174.942C203.191 176.411 203.251 176.411 203.251 177.88C203.251 179.349 203.242 179.349 203.242 180.818C203.242 182.287 203.191 182.287 203.191 183.748C203.191 185.217 203.225 185.217 203.225 186.686C203.225 188.155 203.225 188.155 203.225 189.624C203.225 191.093 203.173 191.093 203.173 192.562C203.173 194.032 203.216 194.032 203.216 195.501C203.216 196.97 203.165 196.97 203.165 198.439" stroke="#626493" stroke-width="1.00095" stroke-miterlimit="10" stroke-linecap="round" stroke-linejoin="round"/>
<path d="M94.0106 150.943C93.6218 150.943 93.6218 151.081 93.2243 151.081C92.8355 151.081 92.8354 150.796 92.4379 150.796C92.0491 150.796 92.0491 150.934 91.6516 150.934C91.2628 150.934 91.2627 150.943 90.8653 150.943C90.4764 150.943 90.4764 150.753 90.0789 150.753C89.6901 150.753 89.6901 150.779 89.2926 150.779C88.9037 150.779 88.9037 150.839 88.5149 150.839C88.126 150.839 88.126 150.891 87.7372 150.891C87.3483 150.891 87.3484 150.658 86.9595 150.658C86.5707 150.658 86.5706 150.882 86.1818 150.882C85.7929 150.882 85.7929 150.969 85.4041 150.969C85.0152 150.969 85.0152 151.064 84.6264 151.064C84.2375 151.064 84.2375 150.874 83.8487 150.874C83.4598 150.874 83.4599 151.003 83.071 151.003C82.6822 151.003 82.6821 151.073 82.2933 151.073C81.9044 151.073 81.9044 150.813 81.5156 150.813C81.1267 150.813 81.1267 150.71 80.7379 150.71C80.349 150.71 80.349 150.977 79.9515 150.977C79.5627 150.977 79.5627 150.839 79.1652 150.839C78.7764 150.839 78.7763 150.831 78.3788 150.831C77.99 150.831 77.99 151.047 77.5925 151.047C77.2037 151.047 77.2037 151.055 76.8062 151.055C76.4173 151.055 76.4173 151.09 76.0198 151.09C75.631 151.09 75.631 150.891 75.2335 150.891C74.8447 150.891 74.8446 151.055 74.4471 151.055C74.0496 151.055 74.0583 150.926 73.6608 150.926C73.272 150.926 73.2719 150.934 72.8744 150.934C72.4856 150.934 72.4856 151.021 72.0881 151.021C71.6993 151.021 71.6993 150.986 71.3018 150.986C70.913 150.986 70.9129 150.675 70.5154 150.675C70.1179 150.675 70.118 151.003 69.7291 151.003C69.3403 151.003 69.3402 151.029 68.9427 151.029C68.5539 151.029 68.5539 150.727 68.1564 150.727C67.7676 150.727 67.7675 151.073 67.3701 151.073C66.9812 151.073 66.9812 150.917 66.5837 150.917C66.1949 150.917 66.1949 150.701 65.7974 150.701C65.4085 150.701 65.4085 150.692 65.011 150.692C64.6136 150.692 64.6136 151.081 64.2247 151.081C63.8359 151.081 63.8358 150.77 63.4384 150.77C63.0495 150.77 63.0495 151.055 62.652 151.055C62.2632 151.055 62.2632 150.658 61.8657 150.658C61.4682 150.658 61.4682 150.675 61.0793 150.675C60.6819 150.675 60.6818 151.003 60.293 151.003C59.9041 151.003 59.9042 151.021 59.5067 151.021C59.1092 151.021 59.1091 150.857 58.7203 150.857C58.3228 150.857 58.3228 150.882 57.934 150.882C57.5451 150.882 57.5451 150.675 57.1477 150.675C56.7588 150.675 56.7588 150.934 56.3613 150.934C55.9724 150.934 55.9725 150.9 55.575 150.9C55.1775 150.9 55.1774 150.736 54.7886 150.736C54.3911 150.736 54.3911 150.874 54.0023 150.874C53.6048 150.874 53.6048 151.064 53.2159 151.064C52.8184 151.064 52.8184 150.908 52.4296 150.908C52.0321 150.908 52.0321 151.073 51.6433 151.073C51.2458 151.073 51.2457 150.882 50.8569 150.882C50.468 150.882 50.4681 150.701 50.0706 150.701C49.6731 150.701 49.6731 150.805 49.2842 150.805C48.8867 150.805 48.8867 150.736 48.4892 150.736C48.0917 150.736 48.0918 151.055 47.6943 151.055C47.2968 151.055 47.2967 150.839 46.8992 150.839C46.5622 150.839 46.2426 150.995 46.0265 151.219C45.8105 151.436 45.8364 151.764 45.8364 152.092C45.8364 152.481 45.4994 152.481 45.4994 152.879C45.4994 153.276 45.5426 153.276 45.5426 153.665C45.5426 154.063 45.5512 154.063 45.5512 154.452C45.5512 154.849 45.508 154.849 45.508 155.238C45.508 155.627 45.8278 155.627 45.8278 156.024C45.8278 156.413 45.534 156.413 45.534 156.811C45.534 157.2 45.4994 157.2 45.4994 157.597C45.4994 157.995 45.6117 157.995 45.6117 158.384C45.6117 158.781 45.5599 158.781 45.5599 159.17C45.5599 159.568 45.6549 159.568 45.6549 159.956C45.6549 160.354 45.871 160.354 45.871 160.743C45.871 161.14 45.508 161.14 45.508 161.529C45.508 161.927 45.534 161.927 45.534 162.316C45.534 162.713 45.4907 162.713 45.4907 163.102C45.4907 163.5 45.5167 163.5 45.5167 163.889C45.5167 164.286 45.8537 164.286 45.8537 164.675C45.8537 165.073 45.6809 165.073 45.6809 165.461C45.6809 165.859 45.6982 165.859 45.6982 166.248C45.6982 166.637 45.75 166.637 45.75 167.034C45.75 167.423 45.7241 167.423 45.7241 167.821C45.7241 168.21 45.4648 168.21 45.4648 168.607C45.4648 169.005 45.508 169.005 45.508 169.394C45.508 169.791 45.8019 169.791 45.8019 170.18C45.8019 170.577 45.6549 170.577 45.6549 170.966C45.6549 171.364 45.7068 171.364 45.7068 171.761C45.7068 172.159 45.4735 172.159 45.4735 172.548C45.4735 172.945 45.6636 172.945 45.6636 173.334C45.6636 173.732 45.8969 173.732 45.8969 174.121C45.8969 174.518 45.4907 174.518 45.4907 174.916C45.4907 175.313 45.6982 175.313 45.6982 175.711C45.6982 176.108 45.629 176.108 45.629 176.506C45.629 176.903 45.5599 176.903 45.5599 177.301C45.5599 177.638 45.7327 178.027 45.9574 178.252C46.1734 178.468 46.5709 178.329 46.9079 178.329C47.2967 178.329 47.2968 178.692 47.6943 178.692C48.0831 178.692 48.0831 178.623 48.4806 178.623C48.8694 178.623 48.8695 178.666 49.267 178.666C49.6558 178.666 49.6558 178.563 50.0533 178.563C50.4421 178.563 50.4421 178.303 50.8396 178.303C51.2284 178.303 51.2285 178.459 51.626 178.459C52.0148 178.459 52.0148 178.675 52.4036 178.675C52.7925 178.675 52.7925 178.71 53.1814 178.71C53.5702 178.71 53.5702 178.295 53.9591 178.295C54.3479 178.295 54.3479 178.701 54.7367 178.701C55.1256 178.701 55.1256 178.321 55.5145 178.321C55.9033 178.321 55.9033 178.338 56.2921 178.338C56.681 178.338 56.681 178.727 57.0699 178.727C57.4587 178.727 57.4587 178.286 57.8476 178.286C58.2364 178.286 58.2364 178.338 58.6252 178.338C59.0141 178.338 59.0141 178.442 59.403 178.442C59.7918 178.442 59.7918 178.321 60.1806 178.321C60.5695 178.321 60.5695 178.571 60.967 178.571C61.3559 178.571 61.3558 178.519 61.7533 178.519C62.1422 178.519 62.1422 178.701 62.5397 178.701C62.9286 178.701 62.9285 178.321 63.326 178.321C63.7149 178.321 63.7149 178.442 64.1124 178.442C64.5012 178.442 64.5012 178.398 64.8987 178.398C65.2876 178.398 65.2876 178.303 65.6851 178.303C66.0739 178.303 66.0739 178.511 66.4714 178.511C66.8689 178.511 66.8602 178.347 67.2577 178.347C67.6466 178.347 67.6466 178.528 68.0441 178.528C68.4329 178.528 68.4329 178.459 68.8304 178.459C69.2193 178.459 69.2193 178.545 69.6168 178.545C70.0056 178.545 70.0056 178.666 70.4031 178.666C70.8006 178.666 70.8006 178.554 71.1895 178.554C71.5783 178.554 71.5783 178.64 71.9758 178.64C72.3646 178.64 72.3646 178.675 72.7621 178.675C73.151 178.675 73.151 178.321 73.5485 178.321C73.9373 178.321 73.9373 178.338 74.3348 178.338C74.7236 178.338 74.7237 178.45 75.1212 178.45C75.51 178.45 75.51 178.666 75.9075 178.666C76.305 178.666 76.305 178.519 76.6939 178.519C77.0827 178.519 77.0827 178.398 77.4802 178.398C77.869 178.398 77.8691 178.554 78.2665 178.554C78.6554 178.554 78.6554 178.476 79.0529 178.476C79.4504 178.476 79.4503 178.606 79.8392 178.606C80.2367 178.606 80.2367 178.494 80.6256 178.494C81.0144 178.494 81.0144 178.373 81.4119 178.373C81.8094 178.373 81.8094 178.606 82.1982 178.606C82.5957 178.606 82.5957 178.476 82.9846 178.476C83.3734 178.476 83.3734 178.364 83.7709 178.364C84.1598 178.364 84.1598 178.502 84.5573 178.502C84.9461 178.502 84.9461 178.623 85.3436 178.623C85.7411 178.623 85.7411 178.71 86.1299 178.71C86.5274 178.71 86.5274 178.338 86.9163 178.338C87.3138 178.338 87.3138 178.571 87.7026 178.571C88.1001 178.571 88.1001 178.571 88.4889 178.571C88.8864 178.571 88.8865 178.433 89.2753 178.433C89.6728 178.433 89.6728 178.321 90.0616 178.321C90.4505 178.321 90.4505 178.485 90.848 178.485C91.2455 178.485 91.2455 178.727 91.6343 178.727C92.0318 178.727 92.0318 178.381 92.4293 178.381C92.8268 178.381 92.8268 178.381 93.2243 178.381C93.6218 178.381 93.6218 178.58 94.0193 178.58C94.3563 178.58 94.7624 178.494 94.9871 178.277C95.2031 178.061 95.3846 177.647 95.3846 177.31C95.3846 176.921 95.134 176.921 95.134 176.523C95.134 176.126 95.0216 176.126 95.0216 175.737C95.0216 175.339 95.1167 175.339 95.1167 174.95C95.1167 174.553 95.0908 174.553 95.0908 174.164C95.0908 173.775 95.0821 173.775 95.0821 173.378C95.0821 172.989 95.3846 172.989 95.3846 172.591C95.3846 172.202 95.0908 172.202 95.0908 171.805C95.0908 171.407 95.3414 171.407 95.3414 171.018C95.3414 170.621 95.0821 170.621 95.0821 170.232C95.0821 169.834 95.4278 169.834 95.4278 169.445C95.4278 169.048 95.2723 169.048 95.2723 168.659C95.2723 168.261 95.2723 168.261 95.2723 167.873C95.2723 167.475 95.4105 167.475 95.4105 167.086C95.4105 166.689 95.0821 166.689 95.0821 166.3C95.0821 165.902 95.0216 165.902 95.0216 165.513C95.0216 165.116 95.0216 165.116 95.0216 164.727C95.0216 164.329 95.0216 164.329 95.0216 163.94C95.0216 163.543 95.2031 163.543 95.2031 163.154C95.2031 162.765 95.1167 162.765 95.1167 162.368C95.1167 161.979 95.255 161.979 95.255 161.581C95.255 161.192 95.0994 161.192 95.0994 160.795C95.0994 160.397 95.0649 160.397 95.0649 160.008C95.0649 159.611 95.4105 159.611 95.4105 159.222C95.4105 158.824 95.4278 158.824 95.4278 158.435C95.4278 158.038 95.134 158.038 95.134 157.64C95.134 157.243 95.35 157.243 95.35 156.854C95.35 156.457 95.1253 156.456 95.1253 156.068C95.1253 155.67 95.0735 155.67 95.0735 155.281C95.0735 154.884 95.3155 154.884 95.3155 154.486C95.3155 154.089 95.0821 154.089 95.0821 153.691C95.0821 153.294 95.0908 153.294 95.0908 152.896C95.0908 152.498 95.3241 152.498 95.3241 152.101C95.3241 151.764 95.1858 151.349 94.9698 151.124C94.7538 150.9 94.3476 150.943 94.0106 150.943ZM69.9883 159.602C70.092 159.36 70.1439 159.3 70.3513 159.144C70.5932 158.963 71.008 158.989 71.224 158.781C71.4487 158.574 71.5524 158.254 71.7511 158.029C71.9499 157.796 72.2091 157.528 72.3819 157.277C72.3128 157.571 72.0709 157.839 71.9326 158.064C71.7771 158.315 71.6301 158.531 71.4314 158.712C71.2067 158.919 71.0166 159.136 70.8006 159.265C70.3772 159.507 69.8242 159.991 69.9883 159.602ZM91.5133 162.298C91.4961 161.91 91.4097 161.884 91.4443 161.495C91.4788 161.106 91.3405 160.786 91.7294 160.812C92.1182 160.829 91.8158 161.132 91.8331 161.521C91.8503 161.91 91.859 161.91 91.8763 162.307C91.8936 162.696 91.7034 162.705 91.7207 163.102C91.738 163.491 92.2565 163.819 91.8677 163.802C91.4702 163.785 91.8504 163.474 91.7467 163.085C91.6257 162.687 91.5306 162.705 91.5133 162.298Z" fill="#626493"/>
<path d="M267.736 152.118C267.736 151.781 267.675 151.461 267.45 151.245C267.234 151.029 266.941 150.969 266.604 150.969C266.068 150.969 266.068 150.969 265.532 150.969C264.996 150.969 264.996 150.787 264.461 150.787C263.925 150.787 263.925 150.995 263.389 150.995C262.853 150.995 262.853 150.908 262.318 150.908C261.782 150.908 261.782 150.675 261.246 150.675C260.71 150.675 260.71 150.969 260.175 150.969C259.639 150.969 259.639 150.96 259.103 150.96C258.567 150.96 258.567 150.969 258.032 150.969C257.496 150.969 257.496 150.917 256.96 150.917C256.424 150.917 256.424 150.977 255.889 150.977C255.353 150.977 255.353 151.081 254.817 151.081C254.281 151.081 254.281 151.012 253.746 151.012C253.21 151.012 253.21 150.857 252.674 150.857C252.138 150.857 252.138 150.9 251.603 150.9C251.067 150.9 251.067 150.831 250.531 150.831C249.995 150.831 249.995 150.943 249.46 150.943C248.924 150.943 248.924 150.692 248.388 150.692C247.852 150.692 247.852 150.77 247.317 150.77C246.781 150.77 246.781 150.71 246.245 150.71C245.709 150.71 245.709 150.857 245.174 150.857C244.638 150.857 244.638 151.038 244.093 151.038C243.558 151.038 243.558 150.977 243.013 150.977C242.676 150.977 242.512 151.168 242.287 151.384C242.063 151.6 242.02 151.712 242.02 152.049C242.149 152.568 242.141 152.55 242.313 153.052C242.486 153.553 242.261 153.631 242.434 154.132C242.607 154.633 242.668 154.616 242.841 155.117C243.013 155.618 242.78 155.696 242.961 156.206C243.134 156.707 243.186 156.69 243.359 157.191C243.532 157.692 243.489 157.71 243.661 158.211C243.834 158.712 243.903 158.695 244.076 159.196C244.249 159.697 244.292 159.689 244.465 160.19C244.638 160.691 244.802 160.639 244.975 161.14C245.148 161.642 244.983 161.702 245.165 162.203C245.338 162.705 245.39 162.687 245.562 163.197C245.735 163.698 245.562 163.759 245.735 164.269C245.908 164.77 246.254 164.649 246.426 165.15C246.599 165.652 246.254 165.773 246.426 166.274C246.599 166.775 246.936 166.663 247.109 167.173C247.282 167.674 247.135 167.726 247.308 168.236C247.481 168.737 247.317 168.797 247.489 169.298C247.662 169.808 247.904 169.722 248.077 170.223C248.25 170.724 248.146 170.759 248.319 171.269C248.492 171.779 248.345 171.831 248.518 172.332C248.69 172.842 248.837 172.79 249.01 173.291C249.183 173.792 249.157 173.801 249.339 174.311C249.511 174.821 249.494 174.821 249.667 175.331C249.84 175.841 249.978 175.789 250.16 176.299C250.332 176.808 250.436 176.782 250.574 177.301C250.574 177.638 250.713 177.871 250.929 178.096C251.145 178.321 251.361 178.563 251.698 178.563C252.242 178.563 252.242 178.779 252.786 178.779C253.331 178.779 253.331 178.796 253.875 178.796C254.42 178.796 254.42 178.805 254.964 178.805C255.508 178.805 255.508 178.537 256.053 178.537C256.597 178.537 256.597 178.589 257.141 178.589C257.686 178.589 257.686 178.589 258.23 178.589C258.775 178.589 258.775 178.373 259.319 178.373C259.863 178.373 259.863 178.727 260.408 178.727C260.952 178.727 260.952 178.511 261.497 178.511C262.041 178.511 262.041 178.494 262.585 178.494C263.13 178.494 263.13 178.329 263.674 178.329C264.219 178.329 264.219 178.545 264.763 178.545C265.307 178.545 265.307 178.45 265.86 178.45C266.405 178.45 266.405 178.787 266.949 178.787C267.494 178.787 267.494 178.701 268.038 178.701C268.582 178.701 268.582 178.364 269.135 178.364C269.68 178.364 269.68 178.666 270.224 178.666C270.769 178.666 270.769 178.329 271.322 178.329C271.866 178.329 271.866 178.347 272.419 178.347C272.963 178.347 272.963 178.623 273.516 178.623C274.061 178.623 274.061 178.528 274.614 178.528C275.167 178.528 275.167 178.295 275.711 178.295C276.264 178.295 276.264 178.589 276.809 178.589C277.146 178.589 277.526 178.485 277.742 178.26C277.958 178.036 278.053 177.655 278.053 177.318C277.898 176.8 277.82 176.826 277.612 176.324C277.405 175.823 277.543 175.763 277.336 175.261C277.128 174.76 276.809 174.89 276.61 174.38C276.403 173.879 276.731 173.749 276.524 173.239C276.316 172.738 276.377 172.712 276.178 172.211C275.971 171.71 275.858 171.753 275.651 171.252C275.443 170.75 275.556 170.707 275.348 170.197C275.141 169.696 274.882 169.8 274.674 169.298C274.467 168.797 274.398 168.823 274.199 168.322C273.992 167.821 274.242 167.717 274.035 167.216C273.828 166.715 273.594 166.81 273.395 166.3C273.188 165.799 273.162 165.807 272.963 165.306C272.765 164.805 272.912 164.744 272.704 164.243C272.497 163.742 272.618 163.69 272.419 163.189C272.212 162.687 272.082 162.739 271.883 162.229C271.676 161.728 271.589 161.763 271.391 161.253C271.183 160.752 271.322 160.691 271.123 160.19C270.915 159.68 270.976 159.663 270.769 159.153C270.561 158.652 270.596 158.634 270.388 158.133C270.181 157.623 270.181 157.632 269.974 157.122C269.766 156.612 269.524 156.716 269.317 156.206C269.11 155.705 269.369 155.601 269.161 155.091C268.954 154.581 268.885 154.616 268.677 154.106C268.47 153.596 268.479 153.596 268.228 153.103C267.978 152.602 267.891 152.637 267.736 152.118ZM267.77 154.815C268.28 155.195 268.038 155.437 268.349 155.998C268.652 156.56 268.798 156.5 269.032 157.096C269.256 157.675 269.179 157.71 269.325 158.315C269.472 158.92 269.585 158.919 269.438 159.524C269.317 160.008 269.239 159.127 269.066 158.66C268.885 158.194 268.963 158.168 268.781 157.701C268.6 157.234 268.816 157.148 268.634 156.69C268.453 156.223 268.219 156.318 268.003 155.869C267.718 155.29 267.364 154.521 267.77 154.815Z" fill="#626493"/>
<path d="M181.064 154.789C180.554 155.152 180.718 155.333 180.338 155.835C179.958 156.336 179.975 156.353 179.595 156.854C179.215 157.356 178.273 158.185 178.783 157.814C179.517 157.286 179.422 157.174 179.992 156.474C180.303 156.094 180.303 156.094 180.597 155.688C180.96 155.195 181.47 154.495 181.064 154.789Z" fill="white"/>
<path d="M243.617 163.102C243.107 163.465 243.167 163.526 242.787 164.027C242.407 164.528 242.459 164.563 242.07 165.064C241.69 165.565 240.783 166.421 241.292 166.058C242.027 165.531 241.966 165.444 242.537 164.736C242.848 164.355 242.744 164.269 243.047 163.88C243.409 163.413 244.023 162.808 243.617 163.102Z" fill="white"/>
<path d="M157.239 150.658C156.85 150.658 156.85 150.822 156.453 150.822C156.064 150.822 156.064 150.986 155.667 150.986C155.278 150.986 155.278 151.064 154.88 151.064C154.491 151.064 154.491 150.753 154.094 150.753C153.705 150.753 153.705 150.805 153.308 150.805C152.919 150.805 152.919 151.012 152.521 151.012C152.132 151.012 152.132 150.926 151.743 150.926C151.355 150.926 151.355 150.692 150.966 150.692C150.577 150.692 150.577 150.874 150.188 150.874C149.799 150.874 149.799 150.779 149.41 150.779C149.021 150.779 149.021 150.831 148.633 150.831C148.244 150.831 148.244 150.753 147.855 150.753C147.466 150.753 147.466 150.658 147.077 150.658C146.688 150.658 146.688 151.064 146.3 151.064C145.911 151.064 145.911 150.865 145.522 150.865C145.133 150.865 145.133 150.77 144.744 150.77C144.355 150.77 144.355 150.96 143.966 150.96C143.578 150.96 143.578 150.779 143.18 150.779C142.791 150.779 142.791 151.073 142.394 151.073C142.005 151.073 142.005 150.926 141.607 150.926C141.219 150.926 141.219 150.822 140.821 150.822C140.432 150.822 140.432 150.969 140.035 150.969C139.646 150.969 139.646 150.969 139.248 150.969C138.859 150.969 138.86 150.9 138.462 150.9C138.073 150.9 138.073 150.744 137.676 150.744C137.278 150.744 137.287 150.736 136.889 150.736C136.5 150.736 136.501 150.943 136.103 150.943C135.714 150.943 135.714 150.977 135.317 150.977C134.928 150.977 134.928 151.047 134.53 151.047C134.141 151.047 134.141 150.977 133.744 150.977C133.346 150.977 133.346 150.813 132.958 150.813C132.569 150.813 132.569 150.908 132.171 150.908C131.782 150.908 131.782 150.787 131.385 150.787C130.996 150.787 130.996 151.012 130.599 151.012C130.21 151.012 130.21 150.796 129.812 150.796C129.423 150.796 129.423 151.107 129.026 151.107C128.637 151.107 128.637 150.995 128.24 150.995C127.842 150.995 127.842 151.038 127.453 151.038C127.064 151.038 127.064 151.098 126.667 151.098C126.278 151.098 126.278 150.692 125.881 150.692C125.492 150.692 125.492 150.761 125.094 150.761C124.697 150.761 124.697 150.71 124.308 150.71C123.91 150.71 123.91 150.701 123.522 150.701C123.133 150.701 123.133 150.822 122.735 150.822C122.338 150.822 122.338 150.926 121.949 150.926C121.551 150.926 121.551 150.9 121.162 150.9C120.774 150.9 120.774 150.995 120.376 150.995C119.987 150.995 119.987 150.787 119.59 150.787C119.201 150.787 119.201 150.908 118.803 150.908C118.406 150.908 118.406 151.012 118.017 151.012C117.62 151.012 117.62 150.805 117.231 150.805C116.833 150.805 116.833 150.71 116.444 150.71C116.047 150.71 116.047 150.718 115.658 150.718C115.261 150.718 115.261 150.839 114.872 150.839C114.474 150.839 114.474 151.064 114.085 151.064C113.697 151.064 113.697 150.882 113.299 150.882C112.902 150.882 112.902 150.796 112.513 150.796C112.115 150.796 112.115 150.779 111.718 150.779C111.32 150.779 111.32 150.874 110.923 150.874C110.525 150.874 110.525 150.934 110.128 150.934C109.791 150.934 109.618 151.159 109.402 151.384C109.186 151.6 108.996 151.773 108.996 152.11C108.996 152.498 109.117 152.498 109.117 152.896C109.117 153.294 108.944 153.294 108.944 153.682C108.944 154.08 108.832 154.08 108.832 154.469C108.832 154.866 108.814 154.866 108.814 155.255C108.814 155.644 108.737 155.644 108.737 156.042C108.737 156.431 108.892 156.431 108.892 156.828C108.892 157.217 108.935 157.217 108.935 157.615C108.935 158.012 108.858 158.012 108.858 158.401C108.858 158.798 109.117 158.798 109.117 159.187C109.117 159.585 108.745 159.585 108.745 159.974C108.745 160.371 108.711 160.371 108.711 160.76C108.711 161.158 108.944 161.158 108.944 161.547C108.944 161.944 108.84 161.944 108.84 162.333C108.84 162.731 108.918 162.731 108.918 163.119C108.918 163.517 108.935 163.517 108.935 163.906C108.935 164.303 108.979 164.303 108.979 164.692C108.979 165.09 108.875 165.09 108.875 165.479C108.875 165.876 109.1 165.876 109.1 166.265C109.1 166.654 109.091 166.654 109.091 167.052C109.091 167.44 108.875 167.44 108.875 167.838C108.875 168.227 109.056 168.227 109.056 168.624C109.056 169.022 108.754 169.022 108.754 169.411C108.754 169.808 108.996 169.808 108.996 170.197C108.996 170.595 108.84 170.595 108.84 170.984C108.84 171.381 108.693 171.381 108.693 171.779C108.693 172.176 108.901 172.176 108.901 172.565C108.901 172.963 108.814 172.963 108.814 173.352C108.814 173.749 108.927 173.749 108.927 174.138C108.927 174.536 108.883 174.536 108.883 174.933C108.883 175.331 108.935 175.331 108.935 175.728C108.935 176.126 108.84 176.126 108.84 176.523C108.84 176.921 109.013 176.921 109.013 177.318C109.013 177.655 109.16 177.828 109.385 178.053C109.609 178.277 109.782 178.398 110.119 178.398C110.508 178.398 110.508 178.606 110.905 178.606C111.294 178.606 111.294 178.718 111.692 178.718C112.081 178.718 112.081 178.433 112.478 178.433C112.867 178.433 112.867 178.571 113.265 178.571C113.653 178.571 113.653 178.347 114.051 178.347C114.44 178.347 114.44 178.718 114.837 178.718C115.226 178.718 115.226 178.606 115.615 178.606C116.004 178.606 116.004 178.338 116.393 178.338C116.781 178.338 116.781 178.735 117.17 178.735C117.559 178.735 117.559 178.468 117.948 178.468C118.337 178.468 118.337 178.476 118.726 178.476C119.115 178.476 119.115 178.675 119.503 178.675C119.892 178.675 119.892 178.554 120.281 178.554C120.67 178.554 120.67 178.416 121.059 178.416C121.448 178.416 121.448 178.485 121.837 178.485C122.225 178.485 122.225 178.632 122.614 178.632C123.003 178.632 123.003 178.58 123.392 178.58C123.781 178.58 123.781 178.511 124.178 178.511C124.567 178.511 124.567 178.632 124.965 178.632C125.353 178.632 125.353 178.666 125.751 178.666C126.14 178.666 126.14 178.589 126.537 178.589C126.926 178.589 126.926 178.727 127.324 178.727C127.712 178.727 127.712 178.459 128.11 178.459C128.499 178.459 128.499 178.675 128.896 178.675C129.285 178.675 129.285 178.476 129.683 178.476C130.08 178.476 130.071 178.744 130.469 178.744C130.858 178.744 130.858 178.312 131.255 178.312C131.644 178.312 131.644 178.64 132.042 178.64C132.431 178.64 132.431 178.623 132.828 178.623C133.217 178.623 133.217 178.502 133.614 178.502C134.012 178.502 134.012 178.606 134.401 178.606C134.79 178.606 134.79 178.485 135.187 178.485C135.576 178.485 135.576 178.433 135.973 178.433C136.362 178.433 136.362 178.321 136.76 178.321C137.149 178.321 137.149 178.623 137.546 178.623C137.935 178.623 137.935 178.381 138.332 178.381C138.721 178.381 138.721 178.718 139.119 178.718C139.516 178.718 139.516 178.684 139.905 178.684C140.294 178.684 140.294 178.606 140.691 178.606C141.08 178.606 141.08 178.329 141.478 178.329C141.867 178.329 141.867 178.39 142.264 178.39C142.662 178.39 142.662 178.692 143.05 178.692C143.448 178.692 143.448 178.71 143.837 178.71C144.226 178.71 144.226 178.338 144.623 178.338C145.021 178.338 145.021 178.39 145.409 178.39C145.807 178.39 145.807 178.459 146.196 178.459C146.585 178.459 146.585 178.519 146.982 178.519C147.371 178.519 147.371 178.364 147.769 178.364C148.157 178.364 148.157 178.761 148.555 178.761C148.952 178.761 148.952 178.666 149.341 178.666C149.739 178.666 149.739 178.727 150.128 178.727C150.516 178.727 150.525 178.468 150.914 178.468C151.311 178.468 151.311 178.675 151.7 178.675C152.098 178.675 152.098 178.649 152.487 178.649C152.884 178.649 152.884 178.545 153.273 178.545C153.662 178.545 153.662 178.468 154.059 178.468C154.457 178.468 154.457 178.744 154.846 178.744C155.243 178.744 155.243 178.589 155.641 178.589C156.038 178.589 156.038 178.727 156.436 178.727C156.833 178.727 156.833 178.658 157.23 178.658C157.568 178.658 157.801 178.338 158.017 178.122C158.233 177.906 158.622 177.673 158.622 177.335C158.622 176.947 158.371 176.947 158.371 176.549C158.371 176.152 158.276 176.152 158.276 175.763C158.276 175.365 158.57 175.365 158.57 174.976C158.57 174.579 158.458 174.579 158.458 174.19C158.458 173.801 158.38 173.801 158.38 173.403C158.38 173.015 158.337 173.015 158.337 172.617C158.337 172.228 158.605 172.228 158.605 171.831C158.605 171.433 158.665 171.433 158.665 171.044C158.665 170.647 158.57 170.647 158.57 170.258C158.57 169.86 158.63 169.86 158.63 169.471C158.63 169.074 158.475 169.074 158.475 168.685C158.475 168.287 158.328 168.287 158.328 167.898C158.328 167.501 158.345 167.501 158.345 167.112C158.345 166.715 158.423 166.715 158.423 166.326C158.423 165.928 158.553 165.928 158.553 165.539C158.553 165.142 158.38 165.142 158.38 164.753C158.38 164.355 158.276 164.355 158.276 163.966C158.276 163.569 158.596 163.569 158.596 163.18C158.596 162.791 158.475 162.791 158.475 162.394C158.475 162.005 158.397 162.005 158.397 161.607C158.397 161.218 158.406 161.218 158.406 160.821C158.406 160.423 158.544 160.423 158.544 160.034C158.544 159.637 158.449 159.637 158.449 159.248C158.449 158.85 158.579 158.85 158.579 158.461C158.579 158.064 158.414 158.064 158.414 157.666C158.414 157.269 158.293 157.269 158.293 156.88C158.293 156.482 158.682 156.482 158.682 156.094C158.682 155.696 158.501 155.696 158.501 155.307C158.501 154.91 158.388 154.91 158.388 154.512C158.388 154.115 158.492 154.115 158.492 153.717C158.492 153.319 158.337 153.319 158.337 152.922C158.337 152.524 158.293 152.524 158.293 152.127C158.293 151.79 158.276 151.557 158.051 151.34C157.827 151.124 157.576 150.658 157.239 150.658ZM133.398 163.033C133.519 162.739 133.45 162.756 133.683 162.54C133.874 162.402 133.943 162.134 134.107 161.979C134.28 161.832 134.383 161.616 134.556 161.46C134.72 161.313 135.101 161.391 135.282 161.227C135.446 161.08 135.472 160.864 135.662 160.708C135.489 160.968 135.489 161.27 135.317 161.469C135.118 161.711 134.85 161.866 134.66 162.048C134.418 162.281 134.046 162.273 133.848 162.402C133.398 162.713 133.234 163.431 133.398 163.033ZM153.273 159.913C153.048 160.198 153.161 160.276 152.919 160.544C152.677 160.812 152.789 160.924 152.547 161.184C152.305 161.452 152.357 161.503 152.115 161.771C151.864 162.039 151.64 161.823 151.389 162.091C151.139 162.359 151.182 162.394 150.931 162.661C150.681 162.929 150.836 163.068 150.586 163.336C150.335 163.603 149.929 164.148 149.946 163.785C149.963 163.387 150.387 163.595 150.637 163.284C150.888 162.973 150.741 162.86 150.992 162.549C151.242 162.238 151.311 162.298 151.562 161.987C151.813 161.676 151.769 161.642 152.02 161.339C152.27 161.028 152.331 161.08 152.582 160.769C152.832 160.458 152.91 160.518 153.161 160.216C153.411 159.905 153.091 159.645 153.342 159.343C153.593 159.032 153.748 159.161 153.999 158.85C154.249 158.539 154.327 158.6 154.578 158.289C154.828 157.977 154.595 157.571 154.992 157.519C155.347 157.476 154.725 157.856 154.534 158.159C154.344 158.461 154.586 158.617 154.388 158.928C154.189 159.231 154.111 159.196 153.869 159.464C153.618 159.732 153.498 159.619 153.273 159.913Z" fill="#626493"/>
<path d="M218.62 166.507C219.035 166.594 219.009 166.378 219.346 166.066C219.536 165.894 219.692 165.652 219.769 165.349L219.787 165.358C219.657 165.548 219.501 165.721 219.346 165.885C219.19 166.049 219.018 166.205 218.836 166.343C218.689 166.412 218.49 166.481 218.62 166.507Z" fill="white"/>
<path d="M242.348 178.442C241.225 178.442 241.225 178.407 240.093 178.407C238.97 178.407 238.97 178.381 237.846 178.381C236.723 178.381 236.723 178.416 235.591 178.416C234.468 178.416 234.468 178.407 233.336 178.407C232.212 178.407 232.212 178.424 231.08 178.424C229.957 178.424 229.957 178.433 228.825 178.433C227.702 178.433 227.702 178.424 226.57 178.424C225.446 178.424 225.446 178.338 224.314 178.338C223.191 178.338 223.191 178.424 222.068 178.424C220.944 178.424 220.944 178.329 219.812 178.329C218.689 178.329 218.689 178.416 217.557 178.416C216.425 178.416 216.434 178.338 215.302 178.338C214.17 178.338 214.17 178.329 213.046 178.329C211.914 178.329 211.914 178.424 210.791 178.424C209.659 178.424 209.659 178.329 208.536 178.329C207.862 178.329 207.386 177.828 207.386 177.154C207.386 176.005 207.291 176.005 207.291 174.864C207.291 173.714 207.291 173.714 207.291 172.574C207.291 171.424 207.317 171.424 207.317 170.284C207.317 169.134 207.248 169.134 207.248 167.993C207.248 166.853 207.334 166.853 207.334 165.703C207.334 164.554 207.369 164.554 207.369 163.413C207.369 162.264 207.352 162.264 207.352 161.123C207.352 159.974 207.274 159.974 207.274 158.833C207.274 157.684 207.291 157.684 207.291 156.534C207.291 155.385 207.352 155.385 207.352 154.235C207.352 153.086 207.369 153.086 207.369 151.937C207.369 151.263 207.862 150.787 208.536 150.787C209.668 150.787 209.668 150.709 210.808 150.709C211.94 150.709 211.94 150.761 213.072 150.761C214.204 150.761 214.204 150.787 215.336 150.787C216.468 150.787 216.468 150.666 217.609 150.666C218.741 150.666 218.741 150.753 219.873 150.753C221.005 150.753 221.005 150.77 222.137 150.77C223.269 150.77 223.269 150.684 224.409 150.684C225.541 150.684 225.541 150.718 226.682 150.718C227.814 150.718 227.814 150.735 228.955 150.735C230.095 150.735 230.095 150.744 231.227 150.744C232.359 150.744 232.368 150.709 233.5 150.709C234.174 150.709 234.684 151.28 234.684 151.954C235.003 153.129 235.159 153.077 235.556 154.227C235.954 155.376 235.893 155.393 236.291 156.543C236.688 157.692 236.68 157.692 237.086 158.842C237.492 159.991 237.518 159.974 237.924 161.123C238.322 162.264 238.322 162.264 238.728 163.413C239.125 164.563 239.108 164.563 239.514 165.712C239.92 166.861 239.937 166.853 240.335 168.002C240.741 169.151 240.707 169.16 241.104 170.309C241.51 171.459 241.527 171.45 241.925 172.6C242.331 173.749 242.314 173.758 242.72 174.907C243.126 176.056 243.204 176.03 243.523 177.206C243.523 177.845 243.022 178.442 242.348 178.442Z" fill="#626493"/>
<path d="M261.753 199.883H46.2266" stroke="#626493" stroke-width="0.680993" stroke-miterlimit="10" stroke-linecap="round" stroke-linejoin="round"/>
<path d="M184 154.331C184 154.944 183.948 154.944 183.948 155.549C183.948 156.154 183.992 156.154 183.992 156.768C183.992 157.373 184 157.373 184 157.986C184 158.591 183.992 158.591 183.992 159.205C183.992 159.81 184.052 159.81 184.052 160.423C184.052 161.037 184.052 161.037 184.052 161.642C184.052 162.255 183.931 162.255 183.931 162.86C183.931 163.474 183.992 163.474 183.992 164.079C183.992 164.684 183.974 164.684 183.974 165.297C183.974 165.911 183.931 165.911 183.931 166.516C183.931 167.129 183.983 167.129 183.983 167.734C183.983 168.348 184 168.348 184 168.953C184 169.566 184.035 169.566 184.035 170.171C184.035 170.785 183.896 170.785 183.896 171.39C183.896 172.003 183.966 172.003 183.966 172.608C183.966 173.222 184.026 173.222 184.026 173.827C184.026 174.44 184.035 174.44 184.035 175.045C184.035 175.659 183.983 175.659 183.983 176.264C183.983 176.877 184.026 176.878 184.026 177.482C184.026 178.096 183.966 178.096 183.966 178.701C183.966 179.306 183.94 179.315 183.94 179.919C183.94 180.533 183.896 180.533 183.896 181.147C183.896 181.76 184 181.76 184 182.365C184 182.979 184 182.979 184 183.584C184 184.197 184.044 184.197 184.044 184.811C184.044 185.424 183.983 185.424 183.983 186.029C183.983 186.643 183.992 186.643 183.992 187.257C183.992 187.87 183.992 187.87 183.992 188.484C183.992 189.097 183.914 189.097 183.914 189.711" stroke="#626493" stroke-width="0.740417" stroke-miterlimit="10" stroke-linecap="round" stroke-linejoin="round"/>
<path d="M275.061 194.81C274.647 194.992 274.785 195.32 274.37 195.501C273.955 195.683 273.878 195.501 273.463 195.683C273.048 195.864 273.031 195.83 272.616 196.003C272.193 196.184 272.218 196.236 271.795 196.409C271.38 196.59 271.311 196.435 270.888 196.608C270.473 196.789 270.525 196.91 270.101 197.083C269.678 197.264 269.695 197.29 269.272 197.472C268.848 197.653 268.814 197.567 268.399 197.748C267.976 197.93 268.079 198.155 267.656 198.336C267.241 198.517 267.112 198.224 266.697 198.396C266.273 198.578 266.325 198.699 265.91 198.88C265.487 199.062 265.487 199.045 265.064 199.226C264.64 199.408 264.58 199.261 264.156 199.442C263.733 199.624 263.811 199.771 263.361 199.857C262.903 199.952 262.912 199.995 262.445 199.995C261.979 199.995 261.979 199.961 261.503 199.961C261.037 199.961 261.037 199.771 260.562 199.771C260.095 199.771 260.095 200.108 259.62 200.108C259.153 200.108 259.153 200.047 258.678 200.047C258.211 200.047 258.211 200.151 257.736 200.151C257.269 200.151 257.269 199.883 256.794 199.883C256.327 199.883 256.327 200.116 255.852 200.116C255.386 200.116 255.386 200.159 254.91 200.159C254.444 200.159 254.444 199.9 253.968 199.9C253.502 199.9 253.502 199.883 253.026 199.883C252.56 199.883 252.56 199.935 252.085 199.935C251.618 199.935 251.618 200.099 251.143 200.099C250.676 200.099 250.676 199.892 250.201 199.892C249.726 199.892 249.734 200.125 249.259 200.125C248.784 200.125 248.792 199.805 248.326 199.805C247.859 199.805 247.859 199.883 247.384 199.883C246.917 199.883 246.917 199.969 246.442 199.969C245.975 199.969 245.975 199.892 245.5 199.892C245.033 199.892 245.034 200.064 244.558 200.064C244.092 200.064 244.092 199.883 243.616 199.883C243.15 199.883 243.15 199.917 242.674 199.917C242.208 199.917 242.208 199.926 241.733 199.926C241.266 199.926 241.266 200.013 240.791 200.013C240.324 200.013 240.324 200.133 239.849 200.133C239.382 200.133 239.382 200.03 238.907 200.03C238.44 200.03 238.44 199.771 237.965 199.771C237.498 199.771 237.498 199.952 237.023 199.952C236.557 199.952 236.557 200.03 236.081 200.03C235.615 200.03 235.615 199.892 235.139 199.892C234.673 199.892 234.673 199.753 234.198 199.753C233.731 199.753 233.731 200.151 233.256 200.151C232.78 200.151 232.789 199.883 232.314 199.883C231.847 199.883 231.847 200.004 231.372 200.004C230.905 200.004 230.905 199.866 230.43 199.866C229.963 199.866 229.963 200.142 229.488 200.142C229.021 200.142 229.022 200.03 228.546 200.03C228.08 200.03 228.08 199.909 227.604 199.909C227.138 199.909 227.138 199.892 226.662 199.892C226.196 199.892 226.196 199.926 225.721 199.926C225.254 199.926 225.254 200.082 224.779 200.082C224.312 200.082 224.312 200.03 223.837 200.03C223.37 200.03 223.37 200.082 222.895 200.082C222.42 200.082 222.428 199.779 221.953 199.779C221.486 199.779 221.486 200.064 221.011 200.064C220.545 200.064 220.545 199.995 220.069 199.995C219.603 199.995 219.603 200.09 219.127 200.09C218.661 200.09 218.661 200.09 218.186 200.09C217.719 200.09 217.719 200.108 217.244 200.108C216.777 200.108 216.777 200.09 216.302 200.09C215.835 200.09 215.835 200.133 215.369 200.133C214.902 200.133 214.902 199.831 214.435 199.831C213.969 199.831 213.969 199.857 213.493 199.857C213.027 199.857 213.027 200.108 212.552 200.108C212.085 200.108 212.085 200.073 211.61 200.073C211.143 200.073 211.143 199.762 210.668 199.762C210.201 199.762 210.201 199.943 209.726 199.943C209.259 199.943 209.259 200.004 208.784 200.004C208.317 200.004 208.317 199.762 207.842 199.762C207.376 199.762 207.375 200.038 206.909 200.038C206.442 200.038 206.442 199.935 205.976 199.935C205.509 199.935 205.509 199.805 205.034 199.805C204.567 199.805 204.567 199.753 204.092 199.753C203.625 199.753 203.625 200.082 203.15 200.082C202.683 200.082 202.683 199.926 202.208 199.926C201.733 199.926 201.733 199.961 201.266 199.961C200.8 199.961 200.8 199.857 200.324 199.857C199.858 199.857 199.858 200.151 199.382 200.151C198.916 200.151 198.916 200.099 198.441 200.099C197.974 200.099 197.974 199.9 197.499 199.9C197.032 199.9 197.032 199.753 196.557 199.753C196.082 199.753 196.082 199.961 195.615 199.961C195.14 199.961 195.14 200.151 194.673 200.151C194.206 200.151 194.206 200.108 193.731 200.108C193.265 200.108 193.265 199.943 192.789 199.943C192.323 199.943 192.323 199.779 191.847 199.779C191.372 199.779 191.372 199.943 190.905 199.943C190.43 199.943 190.43 199.814 189.964 199.814C189.497 199.814 189.497 199.753 189.022 199.753C188.547 199.753 188.547 199.917 188.08 199.917C187.605 199.917 187.605 199.961 187.138 199.961C186.671 199.961 186.671 200.064 186.196 200.064C185.73 200.064 185.73 199.788 185.254 199.788C184.788 199.788 184.788 199.788 184.312 199.788C183.837 199.788 183.837 199.943 183.37 199.943C182.895 199.943 182.895 199.771 182.429 199.771C181.962 199.771 181.953 199.9 181.487 199.9C181.011 199.9 181.011 199.892 180.545 199.892C180.07 199.892 180.07 199.831 179.603 199.831C179.128 199.831 179.128 199.771 178.661 199.771C178.194 199.771 178.195 199.788 177.719 199.788C177.244 199.788 177.244 199.753 176.777 199.753C176.302 199.753 176.302 199.969 175.827 199.969C175.352 199.969 175.352 199.814 174.876 199.814C174.401 199.814 174.401 200.073 173.926 200.073" stroke="#626493" stroke-width="0.401866" stroke-miterlimit="10" stroke-linecap="round"/>
</svg>
