<?xml version="1.0" encoding="utf-8"?>
<!-- Generator: Adobe Illustrator 24.0.1, SVG Export Plug-In . SVG Version: 6.00 Build 0)  -->
<svg version="1.1" id="Layer_1" xmlns="http://www.w3.org/2000/svg" xmlns:xlink="http://www.w3.org/1999/xlink" x="0px" y="0px"
	 width="16px" height="16px" viewBox="0 0 16 16" enable-background="new 0 0 16 16" xml:space="preserve">
<path id="Icon-Fill" fill-rule="evenodd" clip-rule="evenodd" fill="#181C56" d="M9.9512262,5.1199999
	c0.1583967,0,0.3017836,0.0926971,0.3722668,0.2318416l0.0288982,0.0732284l1.3007402,4.4851427
	c0.1257591-0.0201111,0.2546844-0.0305557,0.386014-0.0305557c1.3595057,0,2.4608545,1.1176491,2.4608545,2.4942303
	c0,1.3784647-1.1013489,2.4961128-2.4608545,2.4961128c-1.3585777,0-2.4599266-1.1176481-2.4599266-2.4961128
	c0-1.0122271,0.5954924-1.88445,1.4508715-2.275259L10.618907,8.6847992l-1.824605,2.8711662
	c0.0852594,0.1423779,0.1343222,0.3094931,0.1343222,0.4881821c0,0.5206909-0.4150944,0.9415741-0.9286242,0.9415741
	s-0.9286246-0.4208832-0.9286246-0.9415741c0-0.1926956,0.0570569-0.371932,0.1550326-0.5212011L5.9469972,9.237504
	l-0.5638051,1.1013756c0.6278849,0.4521217,1.0375891,1.1954031,1.0375891,2.0350075
	c0,1.3784647-1.1013484,2.4961128-2.4599261,2.4961128c-1.3595064,0-2.460855-1.1176481-2.460855-2.4961128
	c0-1.3765812,1.1013486-2.4942303,2.460855-2.4942303c0.2988868,0,0.5853243,0.0540943,0.8503232,0.1531391l0.7550826-1.4760504
	L5.0805902,7.6904974H4.6339221c-0.1922255,0-0.3482342-0.1591263-0.3482342-0.3530903
	c0-0.1705427,0.1194444-0.3129706,0.2780809-0.3459125l0.0701532-0.0071778h1.4848704
	c0.1922255,0,0.3482342,0.1581845,0.3482342,0.3530903c0,0.1697187-0.1194444,0.3127642-0.2780814,0.3458738L6.1187925,7.6904974
	H5.8272042l0.3315191,0.5922499l4.2066693-0.4745531L9.7850018,5.8129988L9.7747869,5.7791018H7.9639692v-0.659102H9.9512262z
	 M12.0391455,10.5858374c-0.0630941,0-0.1254263,0.0033827-0.1868286,0.0099773l0.4501858,1.5520945
	c0.0241442,0.0847416,0.0148582,0.1741915-0.0269299,0.2514c-0.0417881,0.0772095-0.1105061,0.132762-0.1931534,0.158185
	c-0.1527596,0.0469608-0.3076506-0.0264673-0.3775806-0.161622l-0.0245142-0.0615311l-0.4508572-1.5484285
	c-0.5660982,0.2981777-0.9537802,0.8985538-0.9537802,1.5879745c0,0.9867697,0.7911882,1.7899323,1.7634583,1.7899323
	c0.9731979,0,1.7643862-0.8031626,1.7643862-1.7899323C13.8035316,11.3890009,13.0123434,10.5858374,12.0391455,10.5858374z
	 M3.960855,10.5858374c-0.9731987,0-1.7643867,0.8031635-1.7643867,1.7880497c0,0.9867697,0.791188,1.7899323,1.7643867,1.7899323
	c0.9722695,0,1.7634578-0.8031626,1.7634578-1.7899323c0-0.5649157-0.2603006-1.0700455-0.6657691-1.3981161l-0.7477832,1.4630842
	c-0.0817189,0.1610098-0.2767301,0.2240953-0.4355247,0.1412363c-0.1361098-0.0718288-0.2012653-0.2287445-0.1662266-0.3729124
	l0.0260043-0.070569l0.751863-1.46945C4.3206773,10.6143293,4.1439781,10.5858374,3.960855,10.5858374z M8,11.7145967
	c-0.1792245,0-0.3250184,0.1487684-0.3250184,0.3295507c0,0.1817245,0.1457939,0.330493,0.3250184,0.330493
	c0.179225,0,0.3250189-0.1487684,0.3250189-0.330493C8.3250189,11.8633652,8.179225,11.7145967,8,11.7145967z M9.9512262,8.519083
	L6.5078859,8.907011l1.2483916,2.228281C7.8339257,11.1139584,7.9156346,11.1025734,8,11.1025734
	c0.0979376,0,0.1922941,0.0153427,0.2808752,0.0437813L9.9512262,8.519083z M8.1605415,1.141512L8.268404,1.1797557
	l6.666667,3.030303l-0.5517378,1.2138219L7.9925351,2.5190477L1.6017373,5.4238806L1.05,4.2100587l6.666667-3.030303
	C7.8568935,1.1160163,8.0136881,1.1032684,8.1605415,1.141512z"/>
</svg>
