<?xml version="1.0" encoding="utf-8"?>
<!-- Generator: Adobe Illustrator 22.0.1, SVG Export Plug-In . SVG Version: 6.00 Build 0)  -->
<svg version="1.1" id="Layer_1" xmlns="http://www.w3.org/2000/svg" xmlns:xlink="http://www.w3.org/1999/xlink" x="0px" y="0px"
	 viewBox="0 0 16 16" enable-background="new 0 0 16 16" xml:space="preserve">
<title>Icon/Text/Attachment</title>
<desc>Created with Sketch.</desc>
<g id="Icon_x2F_Text_x2F_Attachment">
	<g id="Icon-Fill">
		<path id="path-1_1_" fill="#181C56" d="M5.5,5.37499v3.5c0,1.4875,1.08333,2.625,2.5,2.625s2.5-1.1375,2.5-2.625v-3.9375
			c0-2.1875-1.66667-3.9375-3.75-3.9375S3,2.74999,3,4.93749v4.8125c0,2.8875,2.25,5.25,5,5.25s5-2.3625,5-5.25v-5.25h-1.66667v5.25
			c0,1.925-1.5,3.5-3.33333,3.5s-3.33333-1.575-3.33333-3.5v-4.8125c0-1.225,0.91667-2.1875,2.08333-2.1875
			s2.08333,0.9625,2.08333,2.1875v3.9375c0,0.525-0.33333,0.875-0.83333,0.875s-0.83333-0.35-0.83333-0.875v-3.5H5.5z"/>
	</g>
</g>
</svg>
