<?xml version="1.0" encoding="UTF-8"?>
<svg width="16px" height="16px" viewBox="0 0 16 16" version="1.1" xmlns="http://www.w3.org/2000/svg" xmlns:xlink="http://www.w3.org/1999/xlink">
    <!-- Generator: Sketch 58 (84663) - https://sketch.com -->
    <title>Icon/Text/Source Code</title>
    <desc>Created with Sketch.</desc>
    <g id="Icon/Text/Source-Code" stroke="none" stroke-width="1" fill="none" fill-rule="evenodd">
        <path d="M10.1,2.05345755 C10.5375,2.22412244 10.8,2.65078467 10.625,3.16277935 L7.125,13.4026729 C6.95,13.7440027 6.6,14 6.25,14 C6.1625,14 6.075,14 5.9875,13.9146676 C5.55,13.7440027 5.2875,13.3173404 5.4625,12.8053458 L8.9625,2.56545223 C9.1375,2.13879 9.575,1.88279266 10.1,2.05345755 Z M3.8875,4.86942827 L5.1125,6.06408252 L3.1,8.02672878 L5.1125,9.98937504 L3.8875,11.1840293 L1.2625,8.6240559 C0.9125,8.28272611 0.9125,7.77073144 1.2625,7.42940165 L3.8875,4.86942827 Z M12.1125,4.86942827 L14.7375,7.42940165 C15.0875,7.77073144 15.0875,8.28272611 14.7375,8.6240559 L12.1125,11.1840293 L10.8875,9.98937504 L12.9,8.02672878 L10.8875,6.06408252 L12.1125,4.86942827 Z" id="Icon-Fill" fill="#181C56"></path>
    </g>
</svg>