<?xml version="1.0" encoding="utf-8"?>
<!-- Generator: Adobe Illustrator 22.0.1, SVG Export Plug-In . SVG Version: 6.00 Build 0)  -->
<svg version="1.1" id="Layer_1" xmlns="http://www.w3.org/2000/svg" xmlns:xlink="http://www.w3.org/1999/xlink" x="0px" y="0px"
	 viewBox="0 0 16 16" enable-background="new 0 0 16 16" xml:space="preserve">
<title>Icon/Text/underlIne</title>
<desc>Created with Sketch.</desc>
<g id="Icon_x2F_Text_x2F_underlIne">
	<g id="Icon-Fill">
		<path id="path-1_1_" fill="#181C56" d="M1,12.95832h14v2.04167H1V12.95832z M14.12528,0.99999v0.87504l-1.26618,0.63353
			c-0.29664,0.14788-0.4839,0.45065-0.4839,0.78229v3.83442c0,2.55687-2.2051,4.60796-4.81272,4.35332
			C5.29,11.2572,3.6248,9.21398,3.6248,6.93013V3.29084c0-0.33164-0.18726-0.6344-0.4839-0.78229L1.87472,1.87502V0.99999h5.25024
			v0.87504L5.85878,2.50855c-0.29664,0.14788-0.4839,0.45065-0.4839,0.78229v3.83442c0,1.61882,1.47269,2.89988,3.14839,2.57437
			c1.24606-0.24239,2.10184-1.40794,2.10184-2.67762V3.29084c0-0.33164-0.18726-0.6344-0.4839-0.78229L8.87504,1.87502V0.99999
			H14.12528z"/>
	</g>
</g>
</svg>
