<svg width="101" height="32" viewBox="0 0 101 32" fill="none" xmlns="http://www.w3.org/2000/svg">
<path d="M50.5555 20.1122C50.5555 22.799 48.6228 24.8267 45.0636 24.8267H39.2412V8.32678H45.4165C48.1741 8.32678 49.9187 10.1888 49.9187 12.5228C49.9187 14.1259 49.1172 15.4219 47.5615 15.9171C49.5417 16.5065 50.5546 18.1329 50.5546 20.1131L50.5555 20.1122ZM41.5277 10.3545V15.4219H45.0869C46.7608 15.4219 47.609 14.408 47.609 12.9473C47.609 11.3916 46.6659 10.3545 44.9221 10.3545H41.5277ZM44.8039 22.7758C47.1137 22.7758 48.1983 21.6911 48.1983 20.0182C48.1983 18.3452 47.1379 17.2131 45.1577 17.2131H41.5277V22.7758H44.8039Z" fill="white"/>
<path d="M58.9698 13.3951V15.4693C58.4037 15.069 57.7912 14.9033 57.0845 14.9033C55.6704 14.9033 54.61 16.2234 54.5858 18.5099V24.8267H52.4175V13.0413H54.5858V15.3744C55.1276 13.7247 56.1647 12.829 57.4141 12.829C58.0034 12.829 58.4987 12.9938 58.9698 13.3951Z" fill="white"/>
<path d="M69.3402 17.6609V24.8267H67.1952V23.2478C66.6059 24.4497 65.4273 25.1805 63.8483 25.1805C61.4678 25.1805 59.7473 23.5066 59.7473 21.2918C59.7473 19.0769 61.492 17.4496 64.0373 17.4496C65.5455 17.4496 66.6301 18.0864 67.1962 18.9345V17.8974C67.1962 15.8231 65.9468 14.6445 64.0373 14.6445C62.6231 14.6445 61.3738 15.2105 60.3841 16.2477V14.0319C61.3738 13.2778 62.6473 12.6885 64.3436 12.6885C67.4317 12.6885 69.3402 14.5272 69.3402 17.6618V17.6609ZM67.1952 21.1735C67.1952 19.9474 66.2056 19.0518 64.5792 19.0518C62.9527 19.0518 61.9631 19.8999 61.9631 21.2201C61.9631 22.5402 62.882 23.4358 64.5559 23.4358C66.2298 23.4358 67.1962 22.4695 67.1962 21.1726L67.1952 21.1735Z" fill="white"/>
<path d="M71.5793 8.24112V24.8267H73.7476V19.0043L78.7442 24.8267H81.5968L75.7278 18.3442L81.243 13.0413H78.2964L73.7476 17.8964V8.24112H71.5793Z" fill="white"/>
<path d="M91.2362 17.6609V24.8267H89.0912V23.2478C88.5019 24.4497 87.3233 25.1805 85.7443 25.1805C83.3638 25.1805 81.6433 23.5066 81.6433 21.2918C81.6433 19.0769 83.388 17.4496 85.9333 17.4496C87.4415 17.4496 88.5261 18.0864 89.0922 18.9345V17.8974C89.0922 15.8231 87.8428 14.6445 85.9333 14.6445C84.5191 14.6445 83.2698 15.2105 82.2801 16.2477V14.0319C83.2698 13.2778 84.5433 12.6885 86.2396 12.6885C89.3277 12.6885 91.2362 14.5272 91.2362 17.6618V17.6609ZM89.0922 21.1735C89.0922 19.9474 88.1025 19.0518 86.4761 19.0518C84.8496 19.0518 83.86 19.8999 83.86 21.2201C83.86 22.5402 84.7789 23.4358 86.4528 23.4358C88.1267 23.4358 89.0931 22.4695 89.0931 21.1726L89.0922 21.1735Z" fill="white"/>
<path d="M100.264 13.3951V15.4693C99.6979 15.069 99.0853 14.9033 98.3787 14.9033C96.9645 14.9033 95.9042 16.2234 95.8799 18.5099V24.8267H93.7117V13.0413H95.8799V15.3744C96.4218 13.7247 97.4589 12.829 98.7083 12.829C99.2976 12.829 99.7929 12.9938 100.264 13.3951Z" fill="white"/>
<path d="M0.827696 12.7257C0.607982 13.7833 0.489746 14.8772 0.489746 16C0.489746 16.0819 0.500918 16.1611 0.501849 16.243C2.60775 15.6323 4.76299 15.2012 6.95547 14.9973C5.05067 13.896 2.97735 13.1335 0.826765 12.7257" fill="white"/>
<path d="M0.953369 19.7649C2.11618 24.5763 5.44353 28.5321 9.85643 30.5477C9.2969 25.4477 5.72097 21.2424 0.953369 19.7649Z" fill="white"/>
<path d="M16.4896 0C10.2445 0 4.84853 3.58617 2.21289 8.80438C4.84853 8.29047 7.53444 8.02793 10.2473 8.02793C12.1214 8.02793 14.016 8.15454 15.8789 8.40498C16.3602 7.83615 17.0566 7.51123 17.8014 7.51123C18.8879 7.51123 19.8375 8.19458 20.1866 9.21867C21.3866 9.511 22.5737 9.85733 23.716 10.2474L23.7858 10.2744C23.8286 10.2921 24.012 10.3684 24.283 10.4811L22.9461 11.8515C21.989 11.5312 21.0059 11.2436 20.0218 10.9959C19.7816 10.9363 19.5265 10.8749 19.2658 10.8153C19.0266 10.7595 18.7771 10.7064 18.5276 10.6533C18.6197 10.5137 18.6737 10.3461 18.6737 10.1673C18.6737 9.76795 18.4103 9.43093 18.0481 9.32108C17.9708 9.29315 17.888 9.27918 17.8014 9.27918C17.7669 9.27918 17.7325 9.28104 17.699 9.28756C17.2521 9.33039 16.9011 9.70837 16.9011 10.1673C16.9011 10.2297 16.9086 10.2893 16.9197 10.3498C16.6749 10.3079 16.417 10.267 16.1517 10.2279C15.9022 10.1925 15.6424 10.1571 15.3818 10.1208C13.6827 9.90294 11.9548 9.79309 10.2464 9.79309C7.25142 9.79309 4.27318 10.1394 1.37128 10.7958C1.34614 10.8702 1.31542 10.9419 1.29028 11.0164C4.41841 11.6253 7.39293 12.9342 9.94663 14.8465H10.0397C10.1077 14.8446 10.1766 14.8437 10.2445 14.8437C14.933 14.8437 19.479 15.7551 23.7597 17.5501L25.7241 15.6053C24.2774 14.9052 22.825 14.3084 21.2898 13.7861L21.1176 13.7275L22.5038 12.3403L22.5718 12.3645C24.3118 12.992 25.9653 13.72 27.628 14.5868L28.707 15.1491L27.5507 16.2812L24.1508 19.6476L23.6005 19.4056C19.9436 17.7968 16.0632 16.8742 12.0628 16.6582C12.1345 16.729 12.2034 16.7951 12.2685 16.8612C16.2764 20.87 18.4894 26.1925 18.5127 31.8576C26.3898 30.8595 32.485 24.148 32.485 16C32.4896 7.16304 25.3257 0 16.4896 0Z" fill="white"/>
<path d="M16.7542 31.946C16.7542 25.9495 14.0524 20.3663 9.33978 16.621C6.48443 16.6973 3.66539 17.1367 0.954346 17.9262C3.91583 18.725 6.59242 20.4762 8.52423 22.8884C10.4309 25.2717 11.5285 28.222 11.6747 31.2599C13.195 31.7393 14.8112 32 16.4898 32C16.5792 32 16.6657 31.9879 16.7551 31.987V31.9469L16.7542 31.946Z" fill="white"/>
</svg>
