<svg width="120" height="32" viewBox="0 0 120 32" fill="none" xmlns="http://www.w3.org/2000/svg">
<path d="M42.5934 13.7043L39.9735 5.09515L39.9607 5.04433C39.9607 4.95963 40.0073 4.91708 40.1005 4.91708H41.7028C41.796 4.91708 41.8554 4.95963 41.881 5.04433L43.5723 11.2591C43.5806 11.2847 43.5934 11.2975 43.6103 11.2975C43.6272 11.2975 43.64 11.2847 43.6483 11.2591L45.3144 5.04433C45.34 4.95963 45.399 4.91708 45.4926 4.91708H47.0569C47.1077 4.91708 47.146 4.93403 47.1712 4.96791C47.1968 5.00179 47.2009 5.04433 47.184 5.09515L44.5261 13.7043C44.5005 13.7894 44.4453 13.8315 44.3607 13.8315H42.7584C42.6735 13.8315 42.6186 13.789 42.593 13.7043H42.5934Z" fill="white"/>
<path d="M53.3652 10.9662C53.3566 11.0682 53.3017 11.119 53.1998 11.119H49.2701C49.2194 11.119 49.2021 11.1405 49.2194 11.1827C49.2449 11.3525 49.2912 11.5222 49.3592 11.692C49.5795 12.1675 50.0288 12.4051 50.7073 12.4051C51.2498 12.3968 51.678 12.1758 51.9919 11.7429C52.0257 11.692 52.0637 11.6664 52.1062 11.6664C52.1318 11.6664 52.1611 11.6834 52.1953 11.7173L53.1111 12.6215C53.1536 12.6641 53.1746 12.7025 53.1746 12.736C53.1746 12.7529 53.1577 12.7868 53.1239 12.838C52.8442 13.1862 52.4836 13.4558 52.043 13.6467C51.6021 13.8375 51.119 13.9332 50.5934 13.9332C49.8641 13.9332 49.2472 13.7675 48.743 13.4366C48.2385 13.1053 47.8761 12.643 47.6558 12.0486C47.4776 11.6243 47.3889 11.0678 47.3889 10.38C47.3889 9.91321 47.4524 9.50135 47.5795 9.14484C47.7746 8.54211 48.1156 8.06248 48.6032 7.70559C49.0908 7.34907 49.6694 7.17062 50.3393 7.17062C51.187 7.17062 51.8675 7.41684 52.3806 7.90926C52.8934 8.40168 53.2051 9.05975 53.3152 9.88309C53.366 10.2057 53.3829 10.5668 53.366 10.9654L53.3652 10.9662ZM49.2957 9.47613C49.2618 9.58644 49.2321 9.72234 49.2066 9.88385C49.2066 9.92639 49.2276 9.94747 49.2701 9.94747H51.4701C51.5209 9.94747 51.5378 9.92639 51.5208 9.88385C51.4784 9.63764 51.4573 9.51905 51.4573 9.52733C51.381 9.27246 51.2475 9.07519 51.0566 8.93514C50.8656 8.79509 50.6306 8.72507 50.3509 8.72507C49.8167 8.72507 49.4648 8.97542 49.2953 9.47651L49.2957 9.47613Z" fill="white"/>
<path d="M55.629 13.6787C55.205 13.5175 54.8764 13.2924 54.6433 13.0037C54.4099 12.7153 54.2937 12.3881 54.2937 12.023V11.8957C54.2937 11.8532 54.3084 11.8174 54.3381 11.7873C54.3678 11.7575 54.4035 11.7429 54.4463 11.7429H55.858C55.9005 11.7429 55.9362 11.7579 55.9663 11.7873C55.9959 11.817 56.0106 11.8532 56.0106 11.8957V11.9085C56.0106 12.0952 56.1144 12.2545 56.3223 12.3863C56.5298 12.518 56.7907 12.5835 57.1042 12.5835C57.3922 12.5835 57.6256 12.5263 57.8038 12.4115C57.982 12.297 58.0708 12.1547 58.0708 11.9849C58.0708 11.8321 57.9944 11.7176 57.8418 11.6412C57.6892 11.5648 57.4392 11.4842 57.0914 11.3991C56.6929 11.2971 56.3794 11.1996 56.1505 11.1063C55.6076 10.9195 55.1753 10.6903 54.8531 10.4184C54.5309 10.1466 54.37 9.75623 54.37 9.24686C54.37 8.61853 54.6136 8.11971 55.1012 7.75039C55.5888 7.38108 56.235 7.19623 57.0407 7.19623C57.5832 7.19623 58.058 7.28319 58.4651 7.45712C58.8723 7.63105 59.1877 7.87538 59.4125 8.18936C59.6369 8.50371 59.7493 8.86023 59.7493 9.25929C59.7493 9.30183 59.7343 9.33797 59.705 9.36771C59.6753 9.39745 59.6392 9.41213 59.5967 9.41213H58.2358C58.1933 9.41213 58.1572 9.39745 58.1275 9.36771C58.0978 9.33797 58.0832 9.3022 58.0832 9.25929C58.0832 9.07256 57.9877 8.91557 57.7971 8.78795C57.6065 8.6607 57.3538 8.59708 57.0403 8.59708C56.7606 8.59708 56.5317 8.6479 56.3535 8.74992C56.1753 8.85195 56.0866 8.99199 56.0866 9.17006C56.0866 9.34813 56.1734 9.46748 56.3471 9.55218C56.5208 9.63726 56.8114 9.72611 57.2181 9.81947C57.3114 9.84507 57.4174 9.87256 57.5362 9.9023C57.655 9.93204 57.782 9.96818 57.9177 10.0107C58.5196 10.1892 58.9944 10.4184 59.3422 10.6985C59.6895 10.9786 59.8636 11.3863 59.8636 11.9213C59.8636 12.5496 59.6155 13.0402 59.1196 13.3922C58.6238 13.7446 57.9561 13.9207 57.1166 13.9207C56.5486 13.9207 56.0523 13.8398 55.6287 13.6787H55.629Z" fill="white"/>
<path d="M64.7154 8.67989C64.6857 8.70963 64.6496 8.72432 64.6071 8.72432H63.3861C63.3436 8.72432 63.3225 8.74577 63.3225 8.78794V11.488C63.3225 11.7681 63.3797 11.9763 63.4943 12.1122C63.6086 12.2481 63.7932 12.3158 64.0477 12.3158H64.4673C64.5097 12.3158 64.5454 12.3309 64.5755 12.3603C64.6052 12.39 64.6199 12.4262 64.6199 12.4687V13.6787C64.6199 13.772 64.5691 13.8274 64.4673 13.8443C64.1112 13.8613 63.8567 13.8699 63.7041 13.8699C63.0003 13.8699 62.4748 13.7532 62.127 13.5198C61.7793 13.2864 61.6011 12.847 61.5928 12.2018V8.78869C61.5928 8.74615 61.5714 8.72507 61.5293 8.72507H60.8045C60.762 8.72507 60.7259 8.71039 60.6962 8.68064C60.6665 8.6509 60.6519 8.61514 60.6519 8.57222V7.43867C60.6519 7.39613 60.6665 7.36036 60.6962 7.33025C60.7259 7.3005 60.7616 7.28582 60.8045 7.28582H61.5293C61.5718 7.28582 61.5928 7.26474 61.5928 7.2222V5.70653C61.5928 5.66399 61.6075 5.62822 61.6372 5.5981C61.6669 5.56836 61.7026 5.55368 61.7455 5.55368H63.1699C63.2124 5.55368 63.2481 5.56874 63.2782 5.5981C63.3079 5.62784 63.3225 5.66399 63.3225 5.70653V7.2222C63.3225 7.26474 63.3436 7.28582 63.3861 7.28582H64.6071C64.6496 7.28582 64.6853 7.30088 64.7154 7.33025C64.7451 7.35999 64.7597 7.39613 64.7597 7.43867V8.57222C64.7597 8.61476 64.7447 8.6509 64.7154 8.68064V8.67989Z" fill="white"/>
<path d="M69.8022 7.31745C69.8319 7.34719 69.8466 7.38333 69.8466 7.42588V8.63585C69.8466 8.67839 69.8316 8.71453 69.8022 8.74428C69.7729 8.77402 69.7364 8.7887 69.694 8.7887H68.4605C68.418 8.7887 68.397 8.81016 68.397 8.85232V13.6791C68.397 13.7216 68.3819 13.7577 68.3526 13.7875C68.3229 13.8172 68.2868 13.8319 68.2443 13.8319H66.7564C66.7139 13.8319 66.6778 13.8172 66.6481 13.7875C66.6184 13.7577 66.6037 13.722 66.6037 13.6791V8.85232C66.6037 8.80978 66.5823 8.7887 66.5402 8.7887H65.7898C65.7474 8.7887 65.7113 8.77402 65.6816 8.74428C65.6519 8.71453 65.6372 8.67877 65.6372 8.63585V7.42588C65.6372 7.38333 65.6519 7.34757 65.6816 7.31745C65.7113 7.28771 65.747 7.27303 65.7898 7.27303H66.5402C66.5827 7.27303 66.6037 7.25195 66.6037 7.2094V6.92931C66.6037 6.403 66.6842 5.9934 66.8455 5.70051C67.0064 5.40762 67.2673 5.1998 67.6274 5.07632C67.9876 4.95322 68.4857 4.90013 69.1218 4.91708H69.6049C69.6473 4.91708 69.6831 4.93213 69.7131 4.9615C69.7428 4.99124 69.7575 5.02738 69.7575 5.06992V6.10145C69.7575 6.14399 69.7425 6.18013 69.7131 6.20988C69.6838 6.23962 69.6473 6.2543 69.6049 6.2543H69.1853C68.8883 6.26296 68.6831 6.32432 68.5684 6.43915C68.4541 6.55359 68.3966 6.76404 68.3966 7.06973V7.20978C68.3966 7.25232 68.4176 7.2734 68.4601 7.2734H69.6936C69.7361 7.2734 69.7718 7.28846 69.8019 7.31783L69.8022 7.31745Z" fill="white"/>
<path d="M71.6783 13.373C71.1697 12.9995 70.8219 12.4902 70.6355 11.8449C70.5167 11.4458 70.4573 11.0129 70.4573 10.5457C70.4573 10.045 70.5167 9.59474 70.6355 9.19568C70.8306 8.56735 71.1825 8.07492 71.6911 7.71841C72.1997 7.36189 72.8103 7.18344 73.5223 7.18344C74.2343 7.18344 74.811 7.35963 75.3027 7.71201C75.7945 8.06438 76.1422 8.55455 76.3456 9.18288C76.4809 9.60754 76.549 10.0533 76.549 10.5201C76.549 10.9869 76.4896 11.4074 76.3708 11.8065C76.1843 12.4687 75.8385 12.989 75.3343 13.3666C74.8298 13.7446 74.2215 13.9332 73.5095 13.9332C72.7975 13.9332 72.187 13.7465 71.6783 13.373ZM74.2219 12.1378C74.417 11.968 74.5569 11.7346 74.6415 11.4372C74.7091 11.1654 74.7433 10.8683 74.7433 10.5457C74.7433 10.1892 74.7095 9.88801 74.6415 9.64142C74.5482 9.35304 74.4039 9.12791 74.2091 8.96641C74.014 8.80528 73.7768 8.72434 73.4971 8.72434C73.2174 8.72434 72.9693 8.80528 72.7787 8.96641C72.5881 9.12791 72.4501 9.35304 72.3655 9.64142C72.2975 9.84509 72.2637 10.1466 72.2637 10.5457C72.2637 10.9448 72.2934 11.2252 72.3528 11.4372C72.4373 11.7346 72.5794 11.968 72.7787 12.1378C72.9779 12.3076 73.2215 12.3927 73.5099 12.3927C73.7982 12.3927 74.0268 12.308 74.2219 12.1378Z" fill="white"/>
<path d="M77.8779 13.7871C77.8482 13.7573 77.8335 13.7216 77.8335 13.6787V5.06953C77.8335 5.02699 77.8482 4.99123 77.8779 4.96111C77.9076 4.93137 77.9433 4.91669 77.9861 4.91669H79.4741C79.5166 4.91669 79.5523 4.93175 79.5824 4.96111C79.6121 4.99085 79.6267 5.02699 79.6267 5.06953V13.6787C79.6267 13.7212 79.6117 13.7573 79.5824 13.7871C79.5527 13.8168 79.5166 13.8315 79.4741 13.8315H77.9861C77.9436 13.8315 77.9076 13.8168 77.8779 13.7871Z" fill="white"/>
<path d="M85.1651 4.96111C85.1948 4.93137 85.2305 4.91669 85.2734 4.91669H86.7614C86.8038 4.91669 86.8395 4.93175 86.8696 4.96111C86.8993 4.99085 86.914 5.02699 86.914 5.06953V13.6787C86.914 13.7212 86.8989 13.7573 86.8696 13.7871C86.8399 13.8168 86.8038 13.8315 86.7614 13.8315H85.2734C85.2309 13.8315 85.1948 13.8168 85.1651 13.7871C85.1354 13.7573 85.1208 13.7216 85.1208 13.6787V13.2585C85.1208 13.2329 85.1121 13.2182 85.0952 13.2141C85.0783 13.21 85.0614 13.2164 85.0444 13.2333C84.6884 13.7005 84.2008 13.9339 83.582 13.9339C82.9632 13.9339 82.4775 13.7683 82.0497 13.4373C81.6215 13.1061 81.314 12.652 81.1275 12.0745C80.9832 11.6333 80.9114 11.1194 80.9114 10.5336C80.9114 9.94784 80.9877 9.40459 81.1403 8.95433C81.3354 8.41109 81.6426 7.98003 82.0625 7.66153C82.4821 7.34304 83.0012 7.18379 83.6204 7.18379C84.2396 7.18379 84.7057 7.39612 85.0448 7.8204C85.0617 7.846 85.0787 7.85429 85.0956 7.846C85.1125 7.83772 85.1211 7.8204 85.1211 7.79518V5.06991C85.1211 5.02737 85.1358 4.9916 85.1655 4.96149L85.1651 4.96111ZM85.108 10.5585C85.108 9.98963 85.0147 9.54389 84.8283 9.22125C84.6332 8.88996 84.3493 8.72469 83.976 8.72469C83.5775 8.72469 83.2764 8.89033 83.073 9.22125C82.861 9.55255 82.755 10.0024 82.755 10.5713C82.755 11.0806 82.8441 11.5053 83.0219 11.8449C83.2335 12.2101 83.5475 12.3926 83.9629 12.3926C84.3444 12.3926 84.6411 12.2101 84.8531 11.8449C85.0226 11.5309 85.1076 11.1021 85.1076 10.5585H85.108Z" fill="white"/>
<path d="M40.635 26.1948V17.5349C40.635 17.4502 40.6775 17.4076 40.7621 17.4076H41.4106C41.4952 17.4076 41.5376 17.4502 41.5376 17.5349V22.7437C41.5376 22.7607 41.544 22.7735 41.5568 22.7821C41.5696 22.7908 41.5843 22.7866 41.6012 22.7693L44.2974 19.942C44.3399 19.8995 44.3906 19.8784 44.45 19.8784H45.2132C45.2639 19.8784 45.2978 19.8953 45.3151 19.9292C45.332 19.9631 45.3233 19.9974 45.2895 20.0312L43.6617 21.8398C43.6448 21.8568 43.6403 21.8778 43.6489 21.9034L45.5948 26.17L45.6075 26.2208C45.6075 26.2889 45.5696 26.3228 45.4933 26.3228H44.8064C44.7384 26.3228 44.6921 26.2889 44.6666 26.2208L43.026 22.502C43.0091 22.4681 42.988 22.4636 42.9624 22.4892L41.5636 23.9665C41.5467 23.9834 41.538 24.0045 41.538 24.0301V26.1952C41.538 26.2803 41.4955 26.3224 41.4109 26.3224H40.7625C40.6775 26.3224 40.6354 26.2799 40.6354 26.1952L40.635 26.1948Z" fill="white"/>
<path d="M47.4516 25.9528C47.0107 25.6388 46.7054 25.2058 46.5359 24.6539C46.4171 24.2635 46.3577 23.7414 46.3577 23.0874C46.3577 22.4335 46.4171 21.9159 46.5359 21.5337C46.6968 20.9905 46.9979 20.5617 47.4389 20.2473C47.8795 19.9334 48.4137 19.776 49.0411 19.776C49.6686 19.776 50.1622 19.9334 50.599 20.2473C51.0355 20.5617 51.3343 20.986 51.4956 21.5209C51.6144 21.8861 51.6738 22.4083 51.6738 23.0874C51.6738 23.7666 51.6144 24.2974 51.4956 24.6539C51.3343 25.2058 51.0355 25.6388 50.599 25.9528C50.1622 26.2671 49.6389 26.4241 49.0283 26.4241C48.4178 26.4241 47.8922 26.2671 47.4513 25.9528H47.4516ZM50.0712 25.2969C50.3592 25.0722 50.5543 24.7684 50.6561 24.3863C50.7325 24.0806 50.7704 23.6521 50.7704 23.0999C50.7704 22.5476 50.7366 22.1109 50.6686 21.8135C50.5667 21.4313 50.3697 21.1279 50.0772 20.9028C49.7847 20.678 49.4306 20.5655 49.0152 20.5655C48.5998 20.5655 48.2479 20.678 47.9595 20.9028C47.6712 21.1279 47.4765 21.4313 47.3746 21.8135C47.3065 22.1109 47.2727 22.5393 47.2727 23.0999C47.2727 23.6604 47.3065 24.0892 47.3746 24.3863C47.4678 24.7684 47.6607 25.0718 47.9532 25.2969C48.2456 25.5221 48.6039 25.6343 49.0276 25.6343C49.4513 25.6343 49.7821 25.5217 50.0704 25.2969H50.0712Z" fill="white"/>
<path d="M53.3145 26.1948V17.5349C53.3145 17.4502 53.3569 17.4076 53.4415 17.4076H54.09C54.1746 17.4076 54.2171 17.4502 54.2171 17.5349V26.1948C54.2171 26.2799 54.1746 26.3221 54.09 26.3221H53.4415C53.3566 26.3221 53.3145 26.2795 53.3145 26.1948Z" fill="white"/>
<path d="M56.0486 26.1948V17.5349C56.0486 17.4502 56.0911 17.4076 56.1757 17.4076H56.8241C56.9087 17.4076 56.9512 17.4502 56.9512 17.5349V26.1948C56.9512 26.2799 56.9087 26.3221 56.8241 26.3221H56.1757C56.0907 26.3221 56.0486 26.2795 56.0486 26.1948Z" fill="white"/>
<path d="M63.7678 22.909V23.3167C63.7678 23.4018 63.7254 23.4439 63.6408 23.4439H59.5329C59.4991 23.4439 59.4821 23.4609 59.4821 23.4948C59.4991 23.962 59.5246 24.2631 59.5585 24.399C59.6517 24.7812 59.8509 25.0827 60.1562 25.3033C60.4615 25.5243 60.8513 25.6346 61.3261 25.6346C61.6821 25.6346 61.9957 25.554 62.2671 25.3925C62.5382 25.2314 62.7502 25.0021 62.9028 24.7047C62.9536 24.6283 63.013 24.6114 63.081 24.6539L63.5769 24.9468C63.6445 24.9893 63.6615 25.0488 63.6276 25.1253C63.4156 25.533 63.0975 25.8533 62.6739 26.0868C62.2498 26.3205 61.7622 26.4369 61.2115 26.4369C60.6092 26.4282 60.1051 26.284 59.6979 26.0039C59.2908 25.7238 58.9983 25.3334 58.8205 24.8324C58.6679 24.4246 58.5916 23.8389 58.5916 23.075C58.5916 22.7185 58.5979 22.4278 58.6107 22.2027C58.6235 21.978 58.6551 21.7762 58.7062 21.5977C58.8502 21.0458 59.1404 20.6042 59.5773 20.2733C60.0137 19.942 60.5415 19.7767 61.1607 19.7767C61.9321 19.7767 62.5257 19.9721 62.9412 20.3625C63.3566 20.7533 63.6152 21.3048 63.7171 22.0182C63.7509 22.2562 63.7678 22.5532 63.7678 22.9097V22.909ZM60.1246 20.8903C59.8491 21.1068 59.6686 21.3978 59.584 21.7626C59.5333 21.9411 59.4991 22.2298 59.4821 22.6285C59.4821 22.6624 59.4991 22.6793 59.5329 22.6793H62.8269C62.8607 22.6793 62.8776 22.6624 62.8776 22.6285C62.8607 22.2464 62.8351 21.9749 62.8013 21.8134C62.7081 21.4313 62.5194 21.1279 62.2355 20.9028C61.9513 20.678 61.5934 20.5654 61.1607 20.5654C60.728 20.5654 60.3998 20.6739 60.1243 20.8903H60.1246Z" fill="white"/>
<path d="M65.3699 26.1948V17.5349C65.3699 17.4502 65.4124 17.4076 65.4969 17.4076H66.1454C66.23 17.4076 66.2725 17.4502 66.2725 17.5349V22.7437C66.2725 22.7607 66.2789 22.7735 66.2917 22.7821C66.3045 22.7908 66.3191 22.7866 66.336 22.7693L69.0323 19.942C69.0747 19.8995 69.1255 19.8784 69.1849 19.8784H69.948C69.9988 19.8784 70.0326 19.8953 70.0499 19.9292C70.0668 19.9631 70.0582 19.9974 70.0244 20.0312L68.3966 21.8398C68.3796 21.8568 68.3751 21.8778 68.3838 21.9034L70.3296 26.17L70.3424 26.2208C70.3424 26.2889 70.3044 26.3228 70.2281 26.3228H69.5413C69.4732 26.3228 69.427 26.2889 69.4014 26.2208L67.7608 22.502C67.7439 22.4681 67.7229 22.4636 67.6973 22.4892L66.2984 23.9665C66.2815 23.9834 66.2729 24.0045 66.2729 24.0301V26.1952C66.2729 26.2803 66.2304 26.3224 66.1458 26.3224H65.4973C65.4124 26.3224 65.3702 26.2799 65.3702 26.1952L65.3699 26.1948Z" fill="white"/>
<path d="M74.3105 20.6295H72.8733C72.8395 20.6295 72.8225 20.6464 72.8225 20.6803V24.4371C72.8225 24.8448 72.9135 25.1313 73.0958 25.2966C73.2782 25.4622 73.5643 25.545 73.9541 25.545H74.2722C74.3567 25.545 74.3992 25.5876 74.3992 25.6723V26.1944C74.3992 26.2795 74.3567 26.3217 74.2722 26.3217C74.1703 26.33 74.0135 26.3345 73.8015 26.3345C73.191 26.3345 72.7289 26.2201 72.4154 25.9908C72.1015 25.7615 71.9447 25.3372 71.9447 24.7172V20.6799C71.9447 20.646 71.9278 20.6291 71.894 20.6291H71.118C71.0331 20.6291 70.991 20.5865 70.991 20.5018V20.0053C70.991 19.9206 71.0334 19.878 71.118 19.878H71.894C71.9278 19.878 71.9447 19.8611 71.9447 19.8272V18.3499C71.9447 18.2652 71.9872 18.2227 72.0718 18.2227H72.6951C72.7797 18.2227 72.8222 18.2652 72.8222 18.3499V19.8272C72.8222 19.8611 72.8391 19.878 72.8729 19.878H74.3101C74.3947 19.878 74.4372 19.9206 74.4372 20.0053V20.5018C74.4372 20.5869 74.3947 20.6291 74.3101 20.6291L74.3105 20.6295Z" fill="white"/>
<path d="M76.0911 18.5024C75.9554 18.3669 75.8877 18.1967 75.8877 17.993C75.8877 17.7894 75.9554 17.609 76.0911 17.4773C76.2264 17.3459 76.3963 17.28 76.5997 17.28C76.8031 17.28 76.9727 17.3459 77.1084 17.4773C77.2437 17.609 77.3117 17.7811 77.3117 17.993C77.3117 18.205 77.2437 18.3669 77.1084 18.5024C76.9727 18.6383 76.8031 18.7061 76.5997 18.7061C76.3963 18.7061 76.2264 18.6383 76.0911 18.5024ZM76.1163 26.182V19.9925C76.1163 19.9078 76.1587 19.8652 76.2433 19.8652H76.8918C76.9764 19.8652 77.0189 19.9078 77.0189 19.9925V26.182C77.0189 26.2671 76.9764 26.3093 76.8918 26.3093H76.2433C76.1584 26.3093 76.1163 26.2667 76.1163 26.182Z" fill="white"/>
<path d="M80.5289 26.2204L78.4432 20.0181L78.4304 19.9672C78.4304 19.9078 78.4688 19.878 78.5447 19.878H79.2695C79.3458 19.878 79.3966 19.9119 79.4221 19.98L81.012 24.9724C81.0203 24.9894 81.033 24.998 81.05 24.998C81.0669 24.998 81.0797 24.9897 81.0879 24.9724L82.6778 19.98C82.7033 19.9123 82.7541 19.878 82.8304 19.878L83.5552 19.8908C83.6484 19.8908 83.6823 19.9375 83.6571 20.0309L81.5714 26.2204C81.5458 26.2886 81.4951 26.3224 81.4188 26.3224H80.6812C80.6048 26.3224 80.5541 26.2886 80.5285 26.2204H80.5289Z" fill="white"/>
<path d="M87.6506 20.6295H86.2134C86.1795 20.6295 86.1626 20.6464 86.1626 20.6803V24.4371C86.1626 24.8448 86.2536 25.1313 86.4359 25.2966C86.6183 25.4622 86.9044 25.545 87.2942 25.545H87.6122C87.6968 25.545 87.7393 25.5876 87.7393 25.6723V26.1944C87.7393 26.2795 87.6968 26.3217 87.6122 26.3217C87.5104 26.33 87.3536 26.3345 87.1416 26.3345C86.531 26.3345 86.069 26.2201 85.7555 25.9908C85.4416 25.7615 85.2848 25.3372 85.2848 24.7172V20.6799C85.2848 20.646 85.2675 20.6291 85.2341 20.6291H84.4581C84.3732 20.6291 84.3311 20.5865 84.3311 20.5018V20.0053C84.3311 19.9206 84.3735 19.878 84.4581 19.878H85.2341C85.2679 19.878 85.2848 19.8611 85.2848 19.8272V18.3499C85.2848 18.2652 85.3273 18.2227 85.4119 18.2227H86.0352C86.1198 18.2227 86.1622 18.2652 86.1622 18.3499V19.8272C86.1622 19.8611 86.1792 19.878 86.213 19.878H87.6502C87.7348 19.878 87.7773 19.9206 87.7773 20.0053V20.5018C87.7773 20.5869 87.7348 20.6291 87.6502 20.6291L87.6506 20.6295Z" fill="white"/>
<path d="M92.6489 19.9797C92.7165 20.0136 92.7421 20.0689 92.7252 20.1453L92.5853 20.7695C92.5598 20.8546 92.5045 20.8798 92.4199 20.8459C92.2756 20.7864 92.1101 20.7567 91.9241 20.7567L91.7586 20.7695C91.3177 20.7864 90.953 20.9498 90.665 21.2597C90.3767 21.5695 90.2327 21.9622 90.2327 22.4376V26.1944C90.2327 26.2795 90.1902 26.3217 90.1056 26.3217H89.4572C89.3722 26.3217 89.3301 26.2792 89.3301 26.1944V20.0049C89.3301 19.9202 89.3726 19.8776 89.4572 19.8776H90.1056C90.1902 19.8776 90.2327 19.9202 90.2327 20.0049V20.7819C90.2327 20.8075 90.2391 20.8222 90.2519 20.8264C90.2647 20.8309 90.2752 20.8245 90.2838 20.8072C90.462 20.4932 90.6887 20.2488 90.9643 20.0749C91.2398 19.901 91.5598 19.814 91.9244 19.814C92.2041 19.814 92.4459 19.8694 92.6492 19.9797H92.6489Z" fill="white"/>
<path d="M97.7356 20.3618C98.151 20.7526 98.3589 21.2702 98.3589 21.9155V26.1944C98.3589 26.2795 98.3164 26.3217 98.2318 26.3217H97.5833C97.4984 26.3217 97.4563 26.2791 97.4563 26.1944V25.6723C97.4563 25.6553 97.4499 25.6425 97.4371 25.6339C97.4243 25.6256 97.4097 25.6297 97.3927 25.6467C97.1807 25.9015 96.9052 26.0947 96.5661 26.2261C96.227 26.3574 95.8495 26.4233 95.4341 26.4233C94.8319 26.4233 94.3277 26.2705 93.9206 25.9648C93.5134 25.6591 93.3101 25.1923 93.3101 24.5639C93.3101 23.9356 93.5409 23.424 94.0033 23.0547C94.4653 22.6854 95.1074 22.5005 95.93 22.5005H97.4052C97.439 22.5005 97.4559 22.4836 97.4559 22.4497V21.9659C97.4559 21.533 97.3352 21.1911 97.0935 20.9408C96.8518 20.6904 96.4766 20.5651 95.9679 20.5651C95.5608 20.5651 95.2304 20.6438 94.9758 20.8007C94.7213 20.9581 94.5646 21.1765 94.5052 21.4566C94.4796 21.5416 94.4288 21.5797 94.3525 21.571L93.6657 21.4818C93.5725 21.4648 93.5341 21.431 93.5514 21.3798C93.6191 20.9043 93.8736 20.518 94.3146 20.221C94.7552 19.9239 95.3067 19.7752 95.9679 19.7752C96.7311 19.7752 97.3202 19.9706 97.7356 20.361V20.3618ZM96.9089 25.2713C97.2732 25.021 97.4559 24.6837 97.4559 24.259V23.2655C97.4559 23.2316 97.439 23.2147 97.4052 23.2147H96.0698C95.5104 23.2147 95.0608 23.3291 94.7217 23.5584C94.3826 23.7877 94.2131 24.1062 94.2131 24.5135C94.2131 24.8873 94.3424 25.1693 94.601 25.3606C94.8597 25.5514 95.1965 25.647 95.6119 25.647C96.1119 25.647 96.5446 25.5221 96.9093 25.2713H96.9089Z" fill="white"/>
<path d="M101.64 18.5088C101.47 18.717 101.385 19.0712 101.385 19.5723V19.8272C101.385 19.8611 101.402 19.878 101.436 19.878H102.86C102.945 19.878 102.987 19.9206 102.987 20.0053V20.5783C102.987 20.6633 102.945 20.7055 102.86 20.7055H101.436C101.402 20.7055 101.385 20.7224 101.385 20.7563V26.1944C101.385 26.2795 101.343 26.3217 101.258 26.3217H100.622C100.538 26.3217 100.495 26.2792 100.495 26.1944V20.7563C100.495 20.7224 100.478 20.7055 100.445 20.7055H99.5924C99.5074 20.7055 99.4653 20.663 99.4653 20.5783V20.0053C99.4653 19.9206 99.5078 19.878 99.5924 19.878H100.445C100.478 19.878 100.495 19.8611 100.495 19.8272V19.5215C100.495 18.9952 100.555 18.5811 100.674 18.2799C100.792 17.9787 100.998 17.7577 101.291 17.6177C101.583 17.4776 101.992 17.4076 102.518 17.4076H102.886C102.971 17.4076 103.013 17.4502 103.013 17.5349V18.0698C103.013 18.1549 102.971 18.1971 102.886 18.1971H102.594C102.127 18.1971 101.81 18.301 101.64 18.5092L101.64 18.5088ZM104.679 18.5024C104.544 18.3669 104.476 18.1967 104.476 17.993C104.476 17.7894 104.544 17.609 104.679 17.4773C104.815 17.3459 104.984 17.28 105.188 17.28C105.391 17.28 105.561 17.3459 105.697 17.4773C105.832 17.609 105.9 17.7811 105.9 17.993C105.9 18.205 105.832 18.3669 105.697 18.5024C105.561 18.6383 105.391 18.7061 105.188 18.7061C104.984 18.7061 104.815 18.6383 104.679 18.5024ZM104.705 26.182V19.9925C104.705 19.9078 104.747 19.8652 104.832 19.8652H105.48C105.565 19.8652 105.607 19.9078 105.607 19.9925V26.182C105.607 26.2671 105.565 26.3093 105.48 26.3093H104.832C104.747 26.3093 104.705 26.2667 104.705 26.182Z" fill="white"/>
<path d="M107.642 26.1948V17.5349C107.642 17.4502 107.685 17.4076 107.769 17.4076H108.418C108.502 17.4076 108.545 17.4502 108.545 17.5349V22.7437C108.545 22.7607 108.551 22.7735 108.564 22.7821C108.577 22.7908 108.592 22.7866 108.608 22.7693L111.305 19.942C111.347 19.8995 111.398 19.8784 111.457 19.8784H112.221C112.271 19.8784 112.305 19.8953 112.322 19.9292C112.339 19.9631 112.331 19.9974 112.297 20.0312L110.669 21.8398C110.652 21.8568 110.648 21.8778 110.656 21.9034L112.602 26.17L112.615 26.2208C112.615 26.2889 112.577 26.3228 112.501 26.3228H111.814C111.746 26.3228 111.699 26.2889 111.674 26.2208L110.033 22.502C110.016 22.4681 109.995 22.4636 109.97 22.4892L108.571 23.9665C108.554 23.9834 108.545 24.0045 108.545 24.0301V26.1952C108.545 26.2803 108.503 26.3224 108.418 26.3224H107.77C107.685 26.3224 107.643 26.2799 107.643 26.1952L107.642 26.1948Z" fill="white"/>
<path d="M113.823 26.1948V17.5349C113.823 17.4502 113.866 17.4076 113.95 17.4076H114.599C114.683 17.4076 114.726 17.4502 114.726 17.5349V22.7437C114.726 22.7607 114.732 22.7735 114.745 22.7821C114.758 22.7908 114.772 22.7866 114.789 22.7693L117.486 19.942C117.528 19.8995 117.579 19.8784 117.638 19.8784H118.401C118.452 19.8784 118.486 19.8953 118.503 19.9292C118.52 19.9631 118.512 19.9974 118.478 20.0312L116.85 21.8398C116.833 21.8568 116.828 21.8778 116.837 21.9034L118.783 26.17L118.796 26.2208C118.796 26.2889 118.757 26.3228 118.681 26.3228H117.995C117.927 26.3228 117.88 26.2889 117.855 26.2208L116.214 22.502C116.197 22.4681 116.176 22.4636 116.151 22.4892L114.752 23.9665C114.735 23.9834 114.726 24.0045 114.726 24.0301V26.1952C114.726 26.2803 114.684 26.3224 114.599 26.3224H113.951C113.866 26.3224 113.824 26.2799 113.824 26.1952L113.823 26.1948Z" fill="white"/>
<path d="M26.5962 4.09939C23.812 1.60715 20.1372 0.0918579 16.109 0.0918579H15.9327C7.23874 0.0918579 0.191406 7.14955 0.191406 15.8554V16.032C0.191406 17.1979 0.317721 18.3341 0.55757 19.4278L26.5962 4.09939Z" fill="#00975F"/>
<path d="M1.1377 21.4279C3.33806 27.4767 9.13165 31.7956 15.9327 31.7956H16.1091C22.9102 31.7956 28.7037 27.4763 30.9041 21.4279H1.1377Z" fill="#00975F"/>
<path d="M25.1105 11.7372V11.6484C25.1105 9.18213 26.2361 6.9794 28.0007 5.5266C27.5631 5.02175 27.094 4.54476 26.5962 4.0994L0.557617 19.4278C0.707617 20.1122 0.901977 20.7801 1.13769 21.428H30.9037C31.1304 20.8045 31.3191 20.1626 31.4665 19.5053C27.8421 18.7825 25.1101 15.5795 25.1101 11.7372H25.1105Z" fill="white"/>
<path d="M25.1104 11.6484V11.7372C25.1104 15.5795 27.8419 18.7825 31.4667 19.5053C31.7178 18.3879 31.8502 17.2254 31.8502 16.032V15.8554C31.8502 11.9044 30.3987 8.29326 28.0006 5.52658C26.2359 6.97938 25.1104 9.18211 25.1104 11.6484Z" fill="#00975F"/>
</svg>
