<?xml version="1.0" encoding="utf-8"?>
<!-- Generator: Adobe Illustrator 22.0.1, SVG Export Plug-In . SVG Version: 6.00 Build 0)  -->
<svg version="1.1" id="Layer_1" xmlns="http://www.w3.org/2000/svg" xmlns:xlink="http://www.w3.org/1999/xlink" x="0px" y="0px"
	 viewBox="0 0 16 16" enable-background="new 0 0 16 16" xml:space="preserve">
<title>Icon/Shopping/Banknote</title>
<desc>Created with Sketch.</desc>
<g id="Icon_x2F_Shopping_x2F_Banknote">
	<g id="Icon-Fill">
		<path id="path-1_1_" fill="#181C56" d="M14.125,2.99999H1.875C1.35,2.99999,1,3.33332,1,3.83332v8.33333
			c0,0.5,0.35,0.83333,0.875,0.83333h12.25c0.525,0,0.875-0.33333,0.875-0.83333V3.83332C15,3.33332,14.65,2.99999,14.125,2.99999
			L14.125,2.99999z M10.7125,11.33332h-5.425C4.9375,10.16665,3.975,9.24999,2.75,8.91665V7.08332
			c1.225-0.33333,2.1875-1.25,2.5375-2.41667H10.8c0.35,1.16667,1.3125,2.08333,2.5375,2.41667v1.91667
			C12.025,9.24999,11.0625,10.16665,10.7125,11.33332z M8,6.33332c-0.96688,0-1.75,0.74583-1.75,1.66667
			c0,0.92083,0.78312,1.66667,1.75,1.66667s1.75-0.74583,1.75-1.66667C9.75,7.07915,8.96688,6.33332,8,6.33332z"/>
	</g>
</g>
</svg>
