<?xml version="1.0" encoding="utf-8"?>
<!-- Generator: Adobe Illustrator 22.0.1, SVG Export Plug-In . SVG Version: 6.00 Build 0)  -->
<svg version="1.1" id="Layer_1" xmlns="http://www.w3.org/2000/svg" xmlns:xlink="http://www.w3.org/1999/xlink" x="0px" y="0px"
	 viewBox="0 0 16 16" enable-background="new 0 0 16 16" xml:space="preserve">
<title>Icon/Shopping/Banknote Multi</title>
<desc>Created with Sketch.</desc>
<g id="Icon_x2F_Shopping_x2F_Banknote-Multi">
	<g id="Icon-Fill">
		<path id="path-1_1_" fill="#181C56" d="M14.125,4.49999H1.875C1.35,4.49999,1,4.83332,1,5.33332v8.33333
			c0,0.5,0.35,0.83333,0.875,0.83333h12.25c0.525,0,0.875-0.33333,0.875-0.83333V5.33332C15,4.83332,14.65,4.49999,14.125,4.49999
			L14.125,4.49999z M10.7125,12.99999h-5.425c-0.35-1.225-1.3125-2.1875-2.5375-2.5375v-1.925
			c1.225-0.35,2.1875-1.3125,2.5375-2.5375H10.8c0.35,1.225,1.3125,2.1875,2.5375,2.5375v2.0125
			C12.025,10.81249,11.0625,11.77499,10.7125,12.99999z M8,7.74999c-0.96688,0-1.75,0.78313-1.75,1.75s0.78312,1.75,1.75,1.75
			s1.75-0.78312,1.75-1.75S8.96688,7.74999,8,7.74999z M2.75,0.99999h10.5v1.75H2.75V0.99999z"/>
	</g>
</g>
</svg>
