<?xml version="1.0" encoding="utf-8"?>
<!-- Generator: Adobe Illustrator 22.0.1, SVG Export Plug-In . SVG Version: 6.00 Build 0)  -->
<svg version="1.1" id="Layer_1" xmlns="http://www.w3.org/2000/svg" xmlns:xlink="http://www.w3.org/1999/xlink" x="0px" y="0px"
	 viewBox="0 0 16 16" enable-background="new 0 0 16 16" xml:space="preserve">
<title>Icon/Shopping/Diff</title>
<desc>Created with Sketch.</desc>
<g id="Icon_x2F_Shopping_x2F_Diff">
	<path id="Icon-Fill" fill="#181C56" d="M9.002,15.00039v-2h6v2H9.002z M3.0016,0.99999h2.001v2.001h2v2h-2v1.99h-2.001v-1.99h-2
		l-0.002-2h2.002V0.99999z M4.0024,10.60029l1.589-1.6l1.4,1.411l-1.589,1.589l1.6,1.6l-1.401,1.4l-1.599-1.599l-1.6,1.599
		l-1.402-1.399l1.602-1.601l-1.602-1.593l1.414-1.407L4.0024,10.60029z M9.002,5.00039v-2h6v2H9.002z M9.002,11.00039v-2.001h6
		v2.001H9.002z"/>
</g>
</svg>
