<?xml version="1.0" encoding="utf-8"?>
<!-- Generator: Adobe Illustrator 22.0.1, SVG Export Plug-In . SVG Version: 6.00 Build 0)  -->
<svg version="1.1" id="Layer_1" xmlns="http://www.w3.org/2000/svg" xmlns:xlink="http://www.w3.org/1999/xlink" x="0px" y="0px"
	 viewBox="0 0 16 16" enable-background="new 0 0 16 16" xml:space="preserve">
<title>Icon/Shopping/Money</title>
<desc>Created with Sketch.</desc>
<g id="Icon_x2F_Shopping_x2F_Money">
	<g id="Icon-Fill">
		<path id="path-1_1_" fill="#181C56" d="M12.968,10.70488c0.01222,0.07,0.03167,0.13883,0.03167,0.21175
			c0,0.99809-1.19387,1.75001-2.77773,1.75001c-1.58331,0-2.77773-0.75192-2.77773-1.75001
			c0-0.07292,0.01944-0.14175,0.03222-0.21175c0.68777,0.49934,1.64164,0.79509,2.74551,0.79509
			C11.32636,11.49997,12.28023,11.20422,12.968,10.70488z M12.968,8.37154c0.01222,0.07,0.03167,0.13883,0.03167,0.21175
			c0,0.99809-1.19387,1.75001-2.77773,1.75001c-1.58331,0-2.77773-0.75192-2.77773-1.75001
			c0-0.07292,0.01944-0.14175,0.03222-0.21175c0.68777,0.49934,1.64164,0.79509,2.74551,0.79509
			C11.32636,9.16663,12.28023,8.87088,12.968,8.37154z M10.2221,4.5c1.58386,0,2.77773,0.7525,2.77773,1.75001
			s-1.19387,1.75001-2.77773,1.75001s-2.77773-0.7525-2.77773-1.75001S8.63824,4.5,10.2221,4.5z M5.77773,6.83334
			C4.19387,6.83334,3,6.08084,3,5.08334c0-0.07292,0.01944-0.14175,0.03167-0.21175
			c0.68777,0.49934,1.64219,0.79509,2.74607,0.79509c0.22166,0,0.43222-0.02042,0.64054-0.04317
			c-0.05278,0.20008-0.085,0.40833-0.085,0.6265c0,0.18492,0.02389,0.36458,0.06389,0.54075
			C6.19828,6.81701,5.99273,6.83334,5.77773,6.83334z M5.77773,0.99999c1.58386,0,2.77773,0.7525,2.77773,1.75001
			S7.36159,4.5,5.77773,4.5S3,3.7475,3,2.74999S4.19387,0.99999,5.77773,0.99999z M5.77773,9.16669
			C4.19387,9.16669,3,8.41418,3,7.41668c0-0.07292,0.01944-0.14175,0.03167-0.21175
			c0.68777,0.49934,1.64219,0.79509,2.74607,0.79509c0.22111,0,0.4311-0.02042,0.63888-0.04317
			c-0.05444,0.20242-0.08333,0.41184-0.08333,0.6265c0,0.18492,0.02389,0.36458,0.06389,0.54075
			C6.19828,9.15035,5.99273,9.16669,5.77773,9.16669z M5.77773,11.50003C4.19387,11.50003,3,10.74753,3,9.75002
			C3,9.6771,3.01944,9.60827,3.03167,9.53827c0.68777,0.49934,1.64219,0.79509,2.74607,0.79509
			c0.22111,0,0.4311-0.02042,0.63888-0.04317c-0.05444,0.20242-0.08333,0.41184-0.08333,0.6265
			c0,0.18492,0.02389,0.36458,0.06389,0.54075C6.19828,11.4837,5.99273,11.50003,5.77773,11.50003z M7.4762,13.03823
			c0.68777,0.49934,1.64164,0.79509,2.74607,0.79509c1.10387,0,2.05774-0.29575,2.74551-0.79509
			C12.98056,13.10823,13,13.17706,13,13.24998c0,0.99809-1.19442,1.75001-2.77773,1.75001
			c-1.58386,0-2.77773-0.75192-2.77773-1.75001C7.44454,13.17706,7.46398,13.10823,7.4762,13.03823z"/>
	</g>
</g>
</svg>
