<?xml version="1.0" encoding="utf-8"?>
<!-- Generator: Adobe Illustrator 22.0.1, SVG Export Plug-In . SVG Version: 6.00 Build 0)  -->
<svg version="1.1" id="Layer_1" xmlns="http://www.w3.org/2000/svg" xmlns:xlink="http://www.w3.org/1999/xlink" x="0px" y="0px"
	 viewBox="0 0 16 16" enable-background="new 0 0 16 16" xml:space="preserve">
<title>Icon/Shopping/Reference</title>
<desc>Created with Sketch.</desc>
<g id="Icon_x2F_Shopping_x2F_Reference">
	<g id="Icon-Fill">
		<path id="path-1_1_" fill="#181C56" d="M4.7333,5.66661c-0.51566,0-0.93333-0.41766-0.93333-0.93333
			S4.21764,3.79996,4.7333,3.79996s0.93333,0.41766,0.93333,0.93333S5.24896,5.66661,4.7333,5.66661 M14.86315,8.60332
			l-7.4666-7.4666c-0.08727-0.08773-0.2058-0.13673-0.32993-0.13673h-3.7333c-0.12413,0-0.24266,0.049-0.32993,0.13673
			L1.13673,3.00337C1.049,3.09063,1,3.20963,1,3.3333v3.7333c0,0.12367,0.049,0.24266,0.13673,0.32993l7.4666,7.46661
			c0.091,0.091,0.21047,0.13673,0.32993,0.13673c0.11946,0,0.23893-0.04573,0.32993-0.13673l5.59995-5.59995
			C15.04562,9.08072,15.04562,8.78579,14.86315,8.60332"/>
	</g>
</g>
</svg>
