<?xml version="1.0" encoding="utf-8"?>
<!-- Generator: Adobe Illustrator 22.0.1, SVG Export Plug-In . SVG Version: 6.00 Build 0)  -->
<svg version="1.1" id="Layer_1" xmlns="http://www.w3.org/2000/svg" xmlns:xlink="http://www.w3.org/1999/xlink" x="0px" y="0px"
	 viewBox="0 0 16 16" enable-background="new 0 0 16 16" xml:space="preserve">
<title>Icon/Shopping/Shopping Cart</title>
<desc>Created with Sketch.</desc>
<g id="Icon_x2F_Shopping_x2F_Shopping-Cart">
	<g id="Icon-Fill">
		<path id="path-1_1_" fill="#181C56" d="M14.1579,3.62499c0.70175,0,0.96491,0.7,0.78947,1.1375l-1.75439,5.25
			c-0.08772,0.35-0.4386,0.6125-0.78947,0.6125H5.38596c-0.4386,0-0.78947-0.2625-0.87719-0.7l-1.57895-7.175H1v-1.75h2.63158
			c0.4386,0,0.78947,0.2625,0.87719,0.7l0.4386,1.925H14.1579z M5.38596,11.49999c0.9693,0,1.75439,0.78312,1.75439,1.75
			s-0.78509,1.75-1.75439,1.75s-1.75439-0.78312-1.75439-1.75S4.41667,11.49999,5.38596,11.49999z M12.40351,11.49999
			c0.9693,0,1.75439,0.78312,1.75439,1.75s-0.78509,1.75-1.75439,1.75s-1.75439-0.78312-1.75439-1.75
			S11.43421,11.49999,12.40351,11.49999z"/>
	</g>
</g>
</svg>
