<?xml version="1.0" encoding="utf-8"?>
<!-- Generator: Adobe Illustrator 22.0.1, SVG Export Plug-In . SVG Version: 6.00 Build 0)  -->
<svg version="1.1" id="Layer_1" xmlns="http://www.w3.org/2000/svg" xmlns:xlink="http://www.w3.org/1999/xlink" x="0px" y="0px"
	 viewBox="0 0 16 16" enable-background="new 0 0 16 16" xml:space="preserve">
<title>Icon/UI/Dots/Horizontal</title>
<desc>Created with Sketch.</desc>
<g id="Icon_x2F_UI_x2F_Dots_x2F_Horizontal">
	<g id="Icon-Fill">
		<path id="path-1_1_" fill="#181C56" d="M2.75,9.49999c-0.9665,0-1.75-0.7835-1.75-1.75s0.7835-1.75,1.75-1.75
			s1.75,0.7835,1.75,1.75S3.7165,9.49999,2.75,9.49999z M8,9.49999c-0.9665,0-1.75-0.7835-1.75-1.75s0.7835-1.75,1.75-1.75
			s1.75,0.7835,1.75,1.75S8.9665,9.49999,8,9.49999z M13.25,9.49999c-0.9665,0-1.75-0.7835-1.75-1.75s0.7835-1.75,1.75-1.75
			s1.75,0.7835,1.75,1.75S14.2165,9.49999,13.25,9.49999z"/>
	</g>
</g>
</svg>
