<svg width="241" height="160" viewBox="0 0 241 160" fill="none" xmlns="http://www.w3.org/2000/svg">
<path d="M10.5881 2.87179C13.2782 2.9277 12.0914 2.4948 14.789 2.55072C17.4865 2.60663 17.4865 2.46285 20.1766 2.51078C22.8667 2.5587 22.8667 2.61223 25.5567 2.66814C28.2468 2.72405 28.2543 2.70247 30.9519 2.75839C33.6494 2.8143 33.6494 2.6226 36.3395 2.67851C39.0296 2.73443 39.0296 2.40216 41.7271 2.45807C44.4247 2.51399 44.4097 2.65393 47.1073 2.70984C49.8048 2.76575 49.8198 1.95486 52.5173 2.01078C55.2149 2.06669 55.1999 2.8966 57.89 2.95252C60.5801 3.00843 60.5876 1.86465 63.2777 1.92057C65.9677 1.97648 64.163 2.90976 66.8531 2.97366C69.5432 3.03756 70.5155 2.31587 73.2056 2.37179C75.8957 2.4277 76.743 2.72437 79.4406 2.77229C82.1381 2.82022 82.1306 2.93204 84.8207 2.98795C87.5108 3.04387 87.5183 2.59656 90.2158 2.64449C92.9134 2.69241 92.9134 2.45279 95.6035 2.5087C98.2936 2.56462 98.2861 2.87374 100.984 2.92965C103.681 2.98556 103.681 2.90569 106.371 2.9616C109.061 3.01751 109.069 3.01191 111.759 3.06783C114.449 3.12374 114.441 2.38494 117.139 2.43287C119.837 2.48079 119.837 2.18525 122.534 2.24116C125.232 2.29708 125.239 2.84179 127.929 2.8977C130.619 2.95361 130.619 1.99355 133.317 2.04946C136.014 2.10538 135.992 3.00373 138.682 3.05965C141.372 3.11556 141.395 2.24915 144.092 2.30506C146.79 2.36098 146.775 2.25479 149.465 2.31071C152.155 2.36662 152.17 2.56865 154.867 2.62457C157.565 2.68048 157.565 2.52073 160.263 2.57664C162.96 2.63256 162.438 2.98154 165.135 3.03745C167.833 3.09336 168.348 2.31587 171.045 2.37179C173.743 2.4277 173.728 2.34575 176.418 2.40166C179.108 2.45757 179.108 1.99513 181.806 2.04305C184.503 2.09098 184.496 2.0167 187.193 2.06462C189.891 2.11255 189.891 1.92085 192.581 1.97676C195.271 2.03267 195.286 1.74751 197.983 1.80342C200.681 1.85934 200.688 1.71235 203.386 1.76826C206.084 1.82418 206.069 0.843364 208.766 0.899277C211.464 0.955189 211.464 0.971161 214.154 1.02707C216.844 1.08299 216.851 0.923238 219.541 0.97915C222.232 1.03506 222.239 1.05902 224.937 1.10695C227.634 1.15487 227.627 1.50633 230.324 1.55425C233.022 1.60218 231.295 2.19428 234 2.25019C235.681 2.28214 236.417 4.16287 237.5 5.361C238.584 6.55912 239.955 6.46657 239.925 8.26376C239.873 11.1552 240.298 11.1632 240.246 14.0627C240.194 16.9622 239.402 16.9382 239.349 19.8377C239.297 22.7371 240.179 22.7531 240.127 25.6446C240.074 28.5361 240.231 28.544 240.179 31.4355C240.127 34.327 239.656 34.319 239.604 37.2185C239.551 40.1179 239.962 40.1179 239.91 43.0174C239.858 45.9169 240.875 45.9009 240.823 48.7924C240.771 51.6839 239.469 51.6998 239.417 54.5913C239.364 57.4828 239.82 57.4828 239.767 60.3823C239.715 63.2737 240.8 63.2657 240.748 66.1572C240.696 69.0487 239.994 69.0487 239.941 71.9482C239.889 74.8476 240.554 74.8556 240.502 77.7551C240.449 80.6545 240.195 80.6466 240.143 83.546C240.091 86.4455 239.889 86.4375 239.837 89.337C239.784 92.2364 239.62 92.2284 239.568 95.1279C239.515 98.0274 239.456 98.0274 239.403 100.919C239.351 103.81 240.517 103.834 240.464 106.734C240.412 109.633 240.464 109.633 240.412 112.525C240.36 115.416 240.481 115.392 240.428 118.292C240.376 121.191 239.485 121.199 239.433 124.091C239.381 126.982 239.911 126.998 239.859 129.898C239.807 132.797 240.331 132.781 240.279 135.68C240.226 138.58 240.353 138.58 240.301 141.479C240.249 144.379 240.047 144.371 239.995 147.27C239.942 150.17 238.552 149.483 238.5 152.382C238.47 154.18 236.843 154.627 235.714 155.777C234.586 156.928 234.584 157.838 232.902 157.806C230.212 157.75 230.22 158.262 227.53 158.206C224.839 158.15 224.839 157.799 222.149 157.751C219.459 157.703 219.437 158.629 216.747 158.573C214.057 158.517 214.079 158.469 211.382 158.413C208.684 158.357 208.677 158.227 205.979 158.171C203.281 158.115 203.281 158.394 200.584 158.338C198.79 158.299 196.997 158.267 195.196 158.227C192.499 158.171 192.499 158.092 189.809 158.036C187.118 157.98 187.119 157.94 184.421 157.884C181.723 157.828 181.731 158.405 179.041 158.349C176.351 158.293 176.351 158.093 173.653 158.038C170.956 157.982 170.948 157.875 168.251 157.819C165.553 157.763 165.568 158.077 162.87 158.022C160.173 157.966 160.188 157.574 157.49 157.518C154.793 157.462 154.793 157.934 152.095 157.878C149.398 157.822 149.398 157.958 146.708 157.902C144.017 157.846 144.032 158.419 141.335 158.363C138.637 158.307 138.622 157.862 135.932 157.814C133.242 157.766 133.257 157.911 130.56 157.855C127.862 157.799 127.862 158.275 125.172 158.228C122.482 158.18 122.459 157.638 119.769 157.582C117.079 157.526 117.094 158.794 114.397 158.746C111.699 158.698 111.707 158.328 109.009 158.272C106.311 158.216 106.304 158.89 103.614 158.834C100.924 158.778 100.909 158.789 98.2188 158.733C95.5287 158.677 95.5362 158.776 92.8461 158.72C90.1561 158.664 90.156 158.488 87.4585 158.432C84.7609 158.377 84.7609 158.704 82.0634 158.648C79.3658 158.592 79.3658 158.664 76.6683 158.608C73.9707 158.552 73.9633 158.053 71.2657 157.997C68.5682 157.941 68.5831 158.696 65.8855 158.64C63.188 158.584 63.2029 158.041 60.5054 157.985C57.8078 157.929 57.8004 158.345 55.1103 158.289C52.4202 158.233 52.4127 158.608 49.7152 158.56C47.0176 158.512 47.0251 158.417 44.3275 158.361C41.63 158.305 41.6225 158.744 38.9324 158.688C36.2423 158.632 36.2423 158.52 33.5448 158.464C30.8472 158.409 30.8697 158.12 28.1721 158.064C25.4746 158.008 25.482 158.162 22.7845 158.107C20.0869 158.051 20.0794 158.338 17.3894 158.282C14.6993 158.226 14.6918 158.051 11.9943 158.003C9.29671 157.955 10.1982 157.083 7.5006 157.027C5.8193 156.995 3.86425 153.58 2.78821 152.382C1.71218 151.184 2.75786 149.068 2.78775 147.27C2.84005 144.379 2.57702 145.337 2.62933 142.446C2.68164 139.554 2.09472 139.53 2.14702 136.639C2.19933 133.748 2.3712 133.748 2.42351 130.848C2.47582 127.949 3.40239 127.973 3.4547 125.081C3.50701 122.19 2.07716 121.642 2.12946 118.75C2.18177 115.859 2.07547 116.142 2.12777 113.25C2.18008 110.359 2.37731 110.642 2.42214 107.75C2.46698 104.859 1.9846 104.809 2.02943 101.917C2.07426 99.0258 2.95534 98.6417 3.00017 95.7502C3.04501 92.8587 1.77196 93.2269 1.82426 90.3354C1.87657 87.4439 1.56273 87.4359 1.61504 84.5365C1.66734 81.637 1.45811 81.637 1.51042 78.7375C1.56273 75.8381 1.70471 75.8461 1.75701 72.9466C1.80932 70.0471 1.88998 70.0711 1.94229 67.1716C1.99459 64.2722 1.71992 64.2642 1.77223 61.3727C1.82453 58.4812 2.04844 58.4653 2.09327 55.5738C2.13811 52.6823 1.49241 52.6983 1.53724 49.7988C1.58208 46.8993 1.87657 46.8754 1.92888 43.9839C1.98118 41.0924 2.29066 41.1004 2.34296 38.2089C2.39527 35.3175 2.01855 35.2935 2.07085 32.394C2.12316 29.4946 2.35791 29.5105 2.41021 26.6111C2.46252 23.7116 2.46934 23.7036 2.52164 20.8041C2.57395 17.9047 1.98559 17.9286 2.0379 15.0292C2.0902 12.1297 2.80626 12.1217 2.85856 9.22226C2.91087 6.32279 4.98656 8.26046 5.03887 5.361C5.06876 3.56381 4.95326 6.37904 6.07413 5.22883C7.195 4.07863 7.73497 3.45921 9.41627 3.49116L10.5881 2.87179Z" fill="#AEB7E2"/>
<path d="M232.035 11.6504H10.4199V150.772H232.035V11.6504Z" fill="white"/>
<path d="M2.63188 100.377C2.63188 99.2524 2.84589 99.2524 2.84589 98.1396C2.84589 97.0267 2.79833 97.0267 2.79833 95.9017C2.79833 94.7768 2.91723 94.7889 2.91723 93.6639C2.91723 92.5389 2.82211 92.5389 2.82211 91.426C2.82211 90.3132 2.72699 90.3011 2.72699 89.1882C2.72699 88.0753 2.7389 88.0632 2.7389 86.9504C2.7389 85.8375 2.62 85.8254 2.62 84.7125C2.62 83.5997 2.69133 83.5876 2.69133 82.4747C2.69133 81.3618 2.64378 81.3497 2.64378 80.2368C2.64378 79.124 2.64378 79.1119 2.64378 77.999C2.64378 76.8861 2.65566 76.874 2.65566 75.7611C2.65566 74.6483 2.82211 74.6483 2.82211 73.5233C2.82211 72.3984 2.65566 72.4105 2.65566 71.2855C2.65566 70.1605 2.89344 70.1726 2.89344 69.0476C2.89344 67.9227 2.71511 67.9348 2.71511 66.8098C2.71511 65.6848 2.62 65.6848 2.62 64.5719C2.62 63.4591 2.86968 63.447 2.86968 62.3341C2.86968 61.2213 2.89344 61.2213 2.89344 60.0963C2.89344 58.9713 2.78644 58.9834 2.78644 57.8584C2.78644 56.7335 2.57245 56.7456 2.57245 55.6206C2.57245 54.4956 2.72699 54.4956 2.72699 53.3827C2.72699 52.2699 2.58433 52.2578 2.58433 51.1449C2.58433 50.0321 2.56055 50.02 2.56055 48.9071C2.56055 47.7942 2.57245 47.7821 2.57245 46.6692C2.57245 45.5564 2.81023 45.5443 2.81023 44.4314C2.81023 43.3185 2.83399 43.3064 2.83399 42.1935C2.83399 41.0807 2.77456 41.0686 2.77456 39.9557C2.77456 38.8429 2.67945 38.8308 2.67945 37.7179C2.67945 36.605 2.7389 36.5929 2.7389 35.48C2.7389 34.3672 2.58433 34.3551 2.58433 33.2422C2.58433 32.1293 2.66755 32.1293 2.66755 31.0043C2.66755 29.8794 2.72699 29.8794 2.72699 28.7544C2.72699 27.6295 2.56055 27.6295 2.56055 26.5166C2.56055 25.4037 2.85778 25.3916 2.85778 24.2787C2.85778 23.1659 2.85778 23.1538 2.85778 22.0288C2.85778 20.9038 2.67945 20.9038 2.67945 19.791C2.67945 18.6781 2.71511 18.666 2.71511 17.541C2.71511 16.4161 2.56055 16.4161 2.56055 15.2911C2.56055 14.1661 2.70321 14.1661 2.70321 13.0412C2.70321 12.2791 2.70322 11.5049 2.85778 10.7912C3.01234 10.0775 3.27389 9.31546 3.5949 8.65016C3.91591 7.98486 4.45093 7.41632 4.90272 6.83569C5.35451 6.25507 5.74685 5.56557 6.32942 5.0938C6.91199 4.62204 7.64912 4.40431 8.31492 4.07771C8.98071 3.7511 9.6703 3.60595 10.4074 3.4366C11.1446 3.26725 11.8104 3.0495 12.5594 3.0495C13.6532 3.0495 13.6532 3.08579 14.747 3.08579C15.8408 3.08579 15.8408 3.07368 16.9346 3.07368C18.0284 3.07368 18.0284 2.85596 19.1222 2.85596C20.216 2.85596 20.216 3.06161 21.3098 3.06161C22.4036 3.06161 22.4036 3.06161 23.4974 3.06161C24.5912 3.06161 24.5912 3.06161 25.685 3.06161C26.7788 3.06161 26.7789 3.14626 27.8727 3.14626C28.9665 3.14626 28.9665 2.91642 30.0603 2.91642C31.1541 2.91642 31.1541 2.90435 32.2479 2.90435C33.3417 2.90435 33.3417 3.00111 34.4355 3.00111C35.5293 3.00111 35.5293 3.21884 36.6231 3.21884C37.7169 3.21884 37.7169 2.89224 38.8107 2.89224C39.9045 2.89224 39.9045 2.94064 40.9983 2.94064C42.0921 2.94064 42.0921 3.15837 43.1859 3.15837C44.2798 3.15837 44.2798 2.92853 45.3736 2.92853C46.4674 2.92853 46.4674 2.94064 47.5612 2.94064C48.655 2.94064 48.655 3.17048 49.7488 3.17048C50.8426 3.17048 50.8426 2.92853 51.9364 2.92853C53.0302 2.92853 53.0302 3.14626 54.124 3.14626C55.2178 3.14626 55.2178 2.92853 56.3116 2.92853C57.4054 2.92853 57.4054 3.19466 58.4992 3.19466C59.5931 3.19466 59.5931 3.0374 60.6869 3.0374C61.7807 3.0374 61.7807 2.86807 62.8745 2.86807C63.9683 2.86807 63.9683 3.15837 65.0621 3.15837C66.1559 3.15837 66.1559 3.15837 67.2497 3.15837C68.3435 3.15837 68.3435 3.0979 69.4373 3.0979C70.5311 3.0979 70.5311 2.92853 71.6249 2.92853C72.7187 2.92853 72.7187 2.89224 73.8125 2.89224C74.9063 2.89224 74.9063 2.88014 76.0001 2.88014C77.0939 2.88014 77.094 2.95271 78.1878 2.95271C79.2816 2.95271 79.2816 3.10997 80.3754 3.10997C81.4692 3.10997 81.4692 3.01322 82.563 3.01322C83.6568 3.01322 83.6568 3.08579 84.7506 3.08579C85.8444 3.08579 85.8444 3.17048 86.9382 3.17048C88.032 3.17048 88.032 3.20676 89.1258 3.20676C90.2196 3.20676 90.2196 3.02532 91.3134 3.02532C92.4072 3.02532 92.4072 3.10997 93.501 3.10997C94.5949 3.10997 94.5949 3.18255 95.6887 3.18255C96.7825 3.18255 96.7825 2.94064 97.8763 2.94064C98.9701 2.94064 98.9701 3.07368 100.064 3.07368C101.158 3.07368 101.158 3.0495 102.252 3.0495C103.345 3.0495 103.345 2.90435 104.439 2.90435C105.533 2.90435 105.533 3.14626 106.627 3.14626C107.721 3.14626 107.721 3.17048 108.814 3.17048C109.908 3.17048 109.908 3.17048 111.002 3.17048C112.096 3.17048 112.096 2.96482 113.19 2.96482C114.283 2.96482 114.283 3.0979 115.377 3.0979C116.471 3.0979 116.471 2.92853 117.577 2.92853C118.682 2.92853 118.671 3.07368 119.764 3.07368C120.858 3.07368 120.858 2.92853 121.952 2.92853C123.046 2.92853 123.046 2.85596 124.14 2.85596C125.233 2.85596 125.233 3.13419 126.327 3.13419C127.421 3.13419 127.421 3.07368 128.515 3.07368C129.609 3.07368 129.609 2.88014 130.702 2.88014C131.796 2.88014 131.796 2.96482 132.902 2.96482C134.008 2.96482 133.996 2.94064 135.089 2.94064C136.183 2.94064 136.183 3.18255 137.277 3.18255C138.371 3.18255 138.371 3.20676 139.465 3.20676C140.559 3.20676 140.559 2.91642 141.664 2.91642C142.77 2.91642 142.758 3.19466 143.864 3.19466C144.969 3.19466 144.958 3.19466 146.051 3.19466C147.145 3.19466 147.145 2.91642 148.239 2.91642C149.333 2.91642 149.333 3.10997 150.438 3.10997C151.544 3.10997 151.532 3.07368 152.638 3.07368C153.744 3.07368 153.732 2.91642 154.837 2.91642C155.943 2.91642 155.931 2.92853 157.037 2.92853C158.143 2.92853 158.131 3.0374 159.236 3.0374C160.342 3.0374 160.33 3.14626 161.436 3.14626C162.542 3.14626 162.53 3.07368 163.624 3.07368C164.717 3.07368 164.717 3.19466 165.823 3.19466C166.929 3.19466 166.917 3.01322 168.023 3.01322C169.128 3.01322 169.116 3.0374 170.222 3.0374C171.328 3.0374 171.316 3.07368 172.422 3.07368C173.527 3.07368 173.515 2.89224 174.621 2.89224C175.727 2.89224 175.727 2.95271 176.821 2.95271C177.914 2.95271 177.926 3.15837 179.02 3.15837C180.114 3.15837 180.126 3.12208 181.22 3.12208" stroke="#181C56" stroke-width="1.5" stroke-linecap="round" stroke-linejoin="round"/>
<path d="M2.73897 118.196C2.73897 119.345 2.83407 119.345 2.83407 120.494C2.83407 121.643 2.75086 121.643 2.75086 122.792C2.75086 123.942 2.75086 123.942 2.75086 125.091C2.75086 126.24 2.75086 126.24 2.75086 127.389C2.75086 128.538 2.75086 128.538 2.75086 129.687C2.75086 130.837 2.75086 130.837 2.75086 131.986C2.75086 133.135 2.86976 133.135 2.86976 134.272C2.86976 135.409 2.77464 135.421 2.77464 136.57C2.77464 137.719 2.86976 137.719 2.86976 138.869C2.86976 140.018 2.73897 140.018 2.73897 141.167C2.73897 142.316 2.69141 142.316 2.69141 143.465C2.69141 144.614 2.69141 144.614 2.69141 145.764C2.69141 146.913 2.70329 146.913 2.70329 148.062C2.70329 148.848 2.78653 149.634 2.94109 150.384C3.09565 151.134 3.36909 151.896 3.69009 152.586C4.0111 153.275 4.54612 153.88 5.0098 154.473C5.47348 155.066 5.96094 155.683 6.5554 156.166C7.14986 156.65 7.82755 157.001 8.51713 157.34C9.2067 157.679 9.90815 157.945 10.6572 158.114C11.4062 158.283 12.1314 158.356 12.9161 158.356C14.0099 158.356 14.0099 158.38 15.1037 158.38C16.1975 158.38 16.1976 158.295 17.3032 158.295C18.4089 158.295 18.397 158.368 19.5027 158.368C20.6084 158.368 20.5965 158.368 21.6903 158.368C22.7842 158.368 22.7842 158.368 23.878 158.368C24.9718 158.368 24.9718 158.368 26.0775 158.368C27.1832 158.368 27.1713 158.368 28.277 158.368C29.3827 158.368 29.3708 158.453 30.4765 158.453C31.5822 158.453 31.5703 158.344 32.6641 158.344C33.7579 158.344 33.7579 158.392 34.8517 158.392C35.9455 158.392 35.9455 158.344 37.0393 158.344C38.1331 158.344 38.1331 158.477 39.2269 158.477C40.3207 158.477 40.3207 158.332 41.4145 158.332C42.5084 158.332 42.5083 158.429 43.614 158.429C44.7197 158.429 44.7078 158.429 45.8016 158.429C46.8955 158.429 46.8955 158.356 47.9893 158.356C49.0831 158.356 49.0831 158.453 50.1769 158.453C51.2707 158.453 51.2707 158.429 52.3764 158.429C53.4821 158.429 53.4702 158.392 54.5759 158.392C55.6816 158.392 55.6697 158.356 56.7635 158.356C57.8573 158.356 57.8573 158.477 58.963 158.477C60.0687 158.477 60.0568 158.392 61.1625 158.392C62.2682 158.392 62.2563 158.392 63.362 158.392C64.4677 158.392 64.4558 158.404 65.5615 158.404C66.6672 158.404 66.6553 158.356 67.761 158.356C68.8667 158.356 68.8548 158.392 69.9605 158.392C71.0662 158.392 71.0543 158.429 72.16 158.429C73.2657 158.429 73.2538 158.38 74.3476 158.38C75.4414 158.38 75.4414 158.416 76.5471 158.416C77.6528 158.416 77.641 158.356 78.7467 158.356C79.8524 158.356 79.8404 158.332 80.9461 158.332C82.0518 158.332 82.0518 158.477 83.1456 158.477C84.2394 158.477 84.2395 158.429 85.3451 158.429C86.4508 158.429 86.4509 158.392 87.5447 158.392C88.6385 158.392 88.6503 158.332 89.756 158.332C90.8617 158.332 90.8617 158.429 91.9674 158.429" stroke="#181C56" stroke-width="1.5" stroke-linecap="round" stroke-linejoin="round"/>
<path d="M102.752 158.465C103.489 158.465 104.222 158.465 104.951 158.465C106.057 158.465 106.057 158.404 107.151 158.404C108.245 158.404 108.257 158.356 109.35 158.356C110.444 158.356 110.456 158.501 111.55 158.501C112.644 158.501 112.644 158.501 113.749 158.501C114.855 158.501 114.855 158.428 115.949 158.428C117.043 158.428 117.055 158.38 118.148 158.38C119.242 158.38 119.254 158.513 120.348 158.513C121.442 158.513 121.454 158.368 122.548 158.368C123.641 158.368 123.653 158.416 124.747 158.416C125.841 158.416 125.853 158.235 126.946 158.235C128.04 158.235 128.052 158.452 129.146 158.452C130.24 158.452 130.252 158.452 131.346 158.452C132.439 158.452 132.451 158.513 133.545 158.513C134.639 158.513 134.651 158.404 135.744 158.404C136.838 158.404 136.85 158.331 137.944 158.331C139.038 158.331 139.05 158.44 140.144 158.44C141.237 158.44 141.249 158.501 142.343 158.501C143.437 158.501 143.449 158.368 144.543 158.368C145.636 158.368 145.648 158.392 146.742 158.392C147.836 158.392 147.848 158.537 148.942 158.537C150.035 158.537 150.047 158.271 151.141 158.271C152.235 158.271 152.247 158.368 153.341 158.368C154.434 158.368 154.446 158.489 155.54 158.489C156.634 158.489 156.646 158.344 157.74 158.344C158.833 158.344 158.845 158.477 159.939 158.477C161.033 158.477 161.045 158.489 162.139 158.489C163.232 158.489 163.244 158.513 164.338 158.513C165.432 158.513 165.444 158.368 166.538 158.368C167.631 158.368 167.631 158.344 168.737 158.344C169.843 158.344 169.831 158.38 170.937 158.38C172.042 158.38 172.03 158.307 173.136 158.307C174.242 158.307 174.242 158.331 175.336 158.331C176.429 158.331 176.441 158.489 177.535 158.489C178.629 158.489 178.641 158.344 179.735 158.344C180.828 158.344 180.84 158.368 181.934 158.368C183.028 158.368 183.04 158.465 184.134 158.465C185.227 158.465 185.239 158.489 186.333 158.489C187.427 158.489 187.439 158.44 188.533 158.44C189.626 158.44 189.638 158.368 190.732 158.368C191.826 158.368 191.838 158.573 192.932 158.573C194.025 158.573 194.037 158.38 195.131 158.38C196.225 158.38 196.237 158.549 197.342 158.549C198.448 158.549 198.448 158.392 199.542 158.392C200.636 158.392 200.648 158.368 201.753 158.368C202.859 158.368 202.859 158.271 203.965 158.271C205.07 158.271 205.07 158.307 206.176 158.307C207.282 158.307 207.282 158.307 208.388 158.307C209.493 158.307 209.493 158.356 210.587 158.356C211.681 158.356 211.693 158.404 212.798 158.404C213.904 158.404 213.904 158.368 214.998 158.368C216.092 158.368 216.104 158.416 217.209 158.416C218.315 158.416 218.315 158.525 219.421 158.525C220.526 158.525 220.526 158.416 221.632 158.416C222.738 158.416 222.738 158.404 223.843 158.404C224.949 158.404 224.949 158.452 226.055 158.452C227.161 158.452 227.161 158.537 228.266 158.537C229.039 158.537 229.776 158.247 230.501 158.102C231.227 157.956 232.035 157.932 232.737 157.642C233.438 157.352 234.151 157.001 234.782 156.577C235.412 156.154 235.84 155.453 236.375 154.908C236.91 154.364 237.362 153.771 237.79 153.13C238.218 152.489 238.574 151.848 238.871 151.134C239.169 150.42 239.525 149.743 239.68 148.981C239.834 148.219 239.87 147.457 239.87 146.67C239.87 145.57 239.989 145.57 239.989 144.457C239.989 143.344 239.894 143.356 239.894 142.243C239.894 141.13 239.941 141.142 239.941 140.03C239.941 138.917 239.739 138.917 239.739 137.816C239.739 136.715 239.977 136.703 239.977 135.602C239.977 134.501 239.846 134.501 239.846 133.389C239.846 132.276 239.941 132.288 239.941 131.175C239.941 130.062 239.977 130.074 239.977 128.961C239.977 127.848 239.775 127.861 239.775 126.748C239.775 125.635 239.87 125.647 239.87 124.534C239.87 123.421 239.727 123.433 239.727 122.32C239.727 121.208 239.811 121.22 239.811 120.107C239.811 118.994 239.858 118.994 239.858 117.893C239.858 116.792 239.894 116.78 239.894 115.679C239.894 114.579 239.858 114.567 239.858 113.466C239.858 112.365 239.953 112.365 239.953 111.252C239.953 110.139 239.775 110.151 239.775 109.038C239.775 107.926 239.823 107.938 239.823 106.825C239.823 105.712 239.953 105.724 239.953 104.611C239.953 103.498 239.739 103.498 239.739 102.398C239.739 101.297 239.953 101.285 239.953 100.184C239.953 99.0831 239.823 99.071 239.823 97.9702C239.823 96.8695 240.001 96.8574 240.001 95.7566C240.001 94.6558 239.704 94.6437 239.704 93.5429C239.704 92.4422 239.751 92.4301 239.751 91.3293C239.751 90.2285 239.692 90.2164 239.692 89.1156C239.692 88.0149 239.965 88.0028 239.965 86.902C239.965 85.8012 239.941 85.7891 239.941 84.6883C239.941 83.5876 239.751 83.5755 239.751 82.4747C239.751 81.3739 239.894 81.3618 239.894 80.261C239.894 79.1603 239.751 79.1482 239.751 78.0474C239.751 76.9466 239.906 76.9345 239.906 75.8338C239.906 74.733 239.716 74.7209 239.716 73.6201C239.716 72.5193 239.846 72.5194 239.846 71.4065C239.846 70.2936 239.906 70.3057 239.906 69.1928C239.906 68.0799 239.953 68.0921 239.953 66.9792C239.953 65.8663 239.763 65.8784 239.763 64.7655C239.763 63.6526 239.858 63.6527 239.858 62.5519C239.858 61.4511 239.716 61.439 239.716 60.3382C239.716 59.2374 239.799 59.2254 239.799 58.1246C239.799 57.0238 239.894 57.0238 239.894 55.9109C239.894 54.7981 239.751 54.7981 239.751 53.6973C239.751 52.5965 239.977 52.5844 239.977 51.4837C239.977 50.3829 239.941 50.3708 239.941 49.27C239.941 48.1692 239.858 48.1571 239.858 47.0564C239.858 45.9556 239.882 45.9435 239.882 44.8427C239.882 43.7419 239.93 43.7298 239.93 42.6291C239.93 41.5283 239.775 41.5162 239.775 40.4154C239.775 39.3146 239.906 39.3025 239.906 38.2018C239.906 37.101 239.834 37.0889 239.834 35.9881C239.834 34.8874 239.941 34.8752 239.941 33.7624C239.941 32.6495 239.692 32.6495 239.692 31.5487C239.692 30.4479 239.763 30.448 239.763 29.3351C239.763 28.2222 239.727 28.2222 239.727 27.1093C239.727 25.9964 239.823 25.9965 239.823 24.8957C239.823 23.7949 239.823 23.7828 239.823 22.6699C239.823 21.5571 239.751 21.5571 239.751 20.4442C239.751 19.3313 239.894 19.3313 239.894 18.2305C239.894 17.1298 239.692 17.1177 239.692 16.0048C239.692 14.8919 239.858 14.8919 239.858 13.7791C239.858 12.6662 239.858 12.6662 239.858 11.5533C239.858 10.7912 239.787 10.0292 239.632 9.31547C239.478 8.60178 239.062 7.93648 238.741 7.27117C238.42 6.60587 238.146 5.89219 237.694 5.31156C237.243 4.73093 236.624 4.30755 236.054 3.83579C235.483 3.36403 234.936 2.86807 234.27 2.54146C233.605 2.21486 232.903 2.05761 232.166 1.90035C231.429 1.7431 230.751 1.5133 230.002 1.5133C228.885 1.5133 228.885 1.69474 227.755 1.69474C226.626 1.69474 226.626 1.70681 225.508 1.70681C224.39 1.70681 224.379 1.65845 223.261 1.65845C222.143 1.65845 222.131 1.63423 221.014 1.63423C219.896 1.63423 219.884 1.4649 218.767 1.4649C217.649 1.4649 217.637 1.59794 216.52 1.59794C215.402 1.59794 215.39 1.53748 214.273 1.53748C213.155 1.53748 213.155 1.4165 212.026 1.4165C210.896 1.4165 210.896 1.4649 209.779 1.4649C208.661 1.4649 208.649 1.4165 207.532 1.4165C206.414 1.4165 206.402 1.61005 205.284 1.61005C204.167 1.61005 204.155 1.54958 203.026 1.54958C201.896 1.54958 201.896 1.61005 200.767 1.61005C199.637 1.61005 199.637 1.69474 198.508 1.69474" stroke="#181C56" stroke-width="1.5" stroke-linecap="round" stroke-linejoin="round"/>
<path d="M76.7495 11.5658C77.8433 11.5658 77.8433 11.7835 78.9371 11.7835C80.0309 11.7835 80.0309 11.5053 81.1247 11.5053C82.2185 11.5053 82.2185 11.5053 83.3123 11.5053C84.4062 11.5053 84.4062 11.4932 85.5 11.4932C86.5938 11.4932 86.5938 11.5537 87.6876 11.5537C88.7814 11.5537 88.7814 11.4932 89.8752 11.4932C90.969 11.4932 90.969 11.6867 92.0628 11.6867C93.1566 11.6867 93.1566 11.8682 94.2504 11.8682C95.3442 11.8682 95.3442 11.5295 96.438 11.5295C97.5318 11.5295 97.5318 11.7714 98.6256 11.7714C99.7194 11.7714 99.7194 11.6746 100.813 11.6746C101.907 11.6746 101.907 11.5778 103.001 11.5778C104.095 11.5778 104.095 11.5295 105.188 11.5295C106.282 11.5295 106.282 11.5295 107.376 11.5295C108.47 11.5295 108.47 11.7714 109.564 11.7714C110.657 11.7714 110.657 11.4811 111.751 11.4811C112.845 11.4811 112.845 11.5174 113.939 11.5174C115.033 11.5174 115.033 11.6021 116.127 11.6021C117.22 11.6021 117.22 11.7593 118.314 11.7593C119.408 11.7593 119.408 11.5053 120.502 11.5053C121.596 11.5053 121.596 11.6504 122.689 11.6504C123.783 11.6504 123.783 11.8077 124.877 11.8077C125.971 11.8077 125.971 11.7351 127.065 11.7351C128.158 11.7351 128.158 11.7956 129.252 11.7956C130.346 11.7956 130.346 11.6262 131.44 11.6262C132.534 11.6262 132.534 11.5537 133.627 11.5537C134.721 11.5537 134.721 11.5778 135.815 11.5778C136.909 11.5778 136.909 11.5537 138.003 11.5537C139.096 11.5537 139.096 11.5537 140.19 11.5537C141.284 11.5537 141.284 11.7593 142.378 11.7593C143.472 11.7593 143.472 11.59 144.566 11.59C145.659 11.59 145.659 11.6262 146.753 11.6262C147.847 11.6262 147.847 11.7714 148.941 11.7714C150.035 11.7714 150.035 11.8077 151.128 11.8077C152.222 11.8077 152.222 11.7109 153.316 11.7109C154.41 11.7109 154.41 11.6384 155.504 11.6384C156.597 11.6384 156.597 11.6867 157.691 11.6867C158.785 11.6867 158.785 11.6021 159.879 11.6021C160.973 11.6021 160.973 11.8561 162.066 11.8561C163.16 11.8561 163.16 11.8561 164.254 11.8561C165.348 11.8561 165.348 11.844 166.442 11.844C167.535 11.844 167.535 11.7593 168.629 11.7593C169.723 11.7593 169.723 11.6988 170.817 11.6988C171.911 11.6988 171.911 11.4811 173.004 11.4811C174.098 11.4811 174.098 11.5053 175.192 11.5053C176.286 11.5053 176.286 11.5537 177.38 11.5537C178.474 11.5537 178.474 11.6021 179.567 11.6021C180.661 11.6021 180.661 11.8682 181.755 11.8682C182.849 11.8682 182.849 11.7109 183.943 11.7109C185.036 11.7109 185.036 11.6867 186.13 11.6867C187.224 11.6867 187.224 11.6141 188.318 11.6141C189.412 11.6141 189.412 11.6625 190.505 11.6625C191.599 11.6625 191.599 11.5537 192.693 11.5537C193.787 11.5537 193.787 11.7593 194.881 11.7593C195.974 11.7593 195.974 11.469 197.068 11.469C198.162 11.469 198.162 11.7835 199.256 11.7835C200.35 11.7835 200.35 11.469 201.443 11.469C202.537 11.469 202.537 11.6988 203.631 11.6988C204.725 11.6988 204.725 11.4811 205.819 11.4811C206.912 11.4811 206.912 11.7956 208.006 11.7956C209.1 11.7956 209.1 11.5537 210.194 11.5537C211.288 11.5537 211.288 11.844 212.382 11.844C213.475 11.844 213.475 11.6384 214.569 11.6384C215.663 11.6384 215.663 11.4932 216.757 11.4932C217.851 11.4932 217.851 11.844 218.944 11.844C220.038 11.844 220.038 11.6262 221.132 11.6262C222.226 11.6262 222.226 11.4811 223.331 11.4811C224.437 11.4811 224.425 11.5778 225.519 11.5778C226.613 11.5778 226.613 11.5416 227.719 11.5416C228.824 11.5416 228.824 11.59 229.918 11.59C231.012 11.59 231.476 10.7553 232.248 11.5537C233.021 12.352 232.034 12.8117 232.034 13.9246C232.034 15.0374 231.927 15.0495 231.927 16.1624C231.927 17.2753 231.892 17.2874 231.892 18.4003C231.892 19.5131 232.26 19.5252 232.26 20.6381C232.26 21.751 231.904 21.763 231.904 22.8759C231.904 23.9888 232.236 24.0009 232.236 25.1138C232.236 26.2266 232.011 26.2387 232.011 27.3516C232.011 28.4645 232.201 28.4766 232.201 29.5895C232.201 30.7023 232.272 30.7144 232.272 31.8273C232.272 32.9402 232.153 32.9522 232.153 34.0651C232.153 35.178 232.129 35.1901 232.129 36.303C232.129 37.4158 232.308 37.4279 232.308 38.5408C232.308 39.6537 232.046 39.6658 232.046 40.7787C232.046 41.8915 231.975 41.9036 231.975 43.0165C231.975 44.1294 232.177 44.1415 232.177 45.2664C232.177 46.3914 232.343 46.3914 232.343 47.5043C232.343 48.6171 232.296 48.6292 232.296 49.7421C232.296 50.855 232.118 50.8671 232.118 51.9799C232.118 53.0928 231.963 53.1049 231.963 54.2178C231.963 55.3306 232.236 55.3428 232.236 56.4556C232.236 57.5685 232.236 57.5806 232.236 58.6935C232.236 59.8063 231.915 59.8184 231.915 60.9434C231.915 62.0684 232.153 62.0684 232.153 63.1933C232.153 64.3183 232.034 64.3183 232.034 65.4312C232.034 66.5441 232.022 66.5561 232.022 67.669C232.022 68.7819 231.999 68.794 231.999 69.9069C231.999 71.0197 232.177 71.0318 232.177 72.1447C232.177 73.2576 231.939 73.2697 231.939 74.3947C231.939 75.5196 232.129 75.5196 232.129 76.6446C232.129 77.7695 232.32 77.7696 232.32 78.8824C232.32 79.9953 232.284 80.0074 232.284 81.1203C232.284 82.2331 232.106 82.2452 232.106 83.3702C232.106 84.4952 231.987 84.4952 231.987 85.6201C231.987 86.7451 231.951 86.7451 231.951 87.8701C231.951 88.995 232.248 88.995 232.248 90.1079C232.248 91.2208 231.987 91.2329 231.987 92.3458C231.987 93.4586 232.213 93.4707 232.213 94.5836C232.213 95.6964 232.308 95.7086 232.308 96.8214C232.308 97.9343 232.26 97.9464 232.26 99.0593C232.26 100.172 232.367 100.184 232.367 101.309C232.367 102.434 232.367 102.434 232.367 103.547C232.367 104.66 232.011 104.672 232.011 105.785C232.011 106.898 232.141 106.91 232.141 108.023C232.141 109.136 232.355 109.148 232.355 110.273C232.355 111.398 232.32 111.398 232.32 112.523C232.32 113.648 232.272 113.648 232.272 114.76C232.272 115.873 232.201 115.885 232.201 117.01C232.201 118.135 232.236 118.135 232.236 119.26C232.236 120.385 232.165 120.385 232.165 121.51C232.165 122.635 232.367 122.635 232.367 123.76C232.367 124.885 232.07 124.885 232.07 126.01C232.07 127.135 232.236 127.135 232.236 128.26C232.236 129.385 232.058 129.385 232.058 130.51C232.058 131.635 232.225 131.635 232.225 132.748C232.225 133.861 232.118 133.873 232.118 134.998C232.118 136.123 232.272 136.123 232.272 137.248C232.272 138.373 232.32 138.373 232.32 139.498C232.32 140.623 232.07 140.623 232.07 141.748C232.07 142.873 232.177 142.873 232.177 143.998C232.177 145.122 232.058 145.122 232.058 146.247C232.058 147.372 232.082 147.372 232.082 148.509C232.082 149.647 232.831 149.816 232.046 150.626C231.262 151.437 231.095 150.711 229.989 150.711C228.884 150.711 228.896 150.82 227.802 150.82C226.708 150.82 226.708 150.554 225.614 150.554C224.52 150.554 224.52 150.699 223.427 150.699C222.333 150.699 222.333 150.602 221.239 150.602C220.145 150.602 220.145 150.542 219.051 150.542C217.958 150.542 217.958 150.989 216.864 150.989C215.77 150.989 215.77 150.953 214.676 150.953C213.582 150.953 213.582 150.711 212.489 150.711C211.395 150.711 211.395 150.917 210.301 150.917C209.207 150.917 209.207 150.638 208.113 150.638C207.019 150.638 207.019 150.554 205.926 150.554C204.832 150.554 204.832 150.711 203.726 150.711C202.62 150.711 202.632 150.868 201.527 150.868C200.421 150.868 200.433 150.638 199.339 150.638C198.245 150.638 198.245 150.965 197.151 150.965C196.058 150.965 196.058 150.687 194.964 150.687C193.87 150.687 193.87 150.82 192.776 150.82C191.682 150.82 191.682 150.675 190.589 150.675C189.495 150.675 189.495 150.929 188.401 150.929C187.307 150.929 187.307 150.735 186.213 150.735C185.12 150.735 185.12 150.626 184.026 150.626C182.932 150.626 182.932 150.953 181.838 150.953C180.744 150.953 180.744 150.868 179.651 150.868C178.557 150.868 178.557 150.929 177.463 150.929C176.369 150.929 176.369 150.663 175.275 150.663C174.181 150.663 174.181 150.856 173.088 150.856C171.994 150.856 171.994 150.941 170.9 150.941C169.806 150.941 169.806 150.88 168.712 150.88C167.619 150.88 167.619 150.856 166.513 150.856C165.407 150.856 165.419 150.856 164.313 150.856C163.208 150.856 163.22 150.808 162.114 150.808C161.008 150.808 161.02 150.614 159.914 150.614C158.809 150.614 158.821 150.917 157.727 150.917C156.633 150.917 156.633 150.989 155.539 150.989C154.445 150.989 154.445 150.856 153.352 150.856C152.258 150.856 152.258 150.856 151.164 150.856C150.07 150.856 150.07 150.893 148.976 150.893C147.883 150.893 147.883 150.687 146.789 150.687C145.695 150.687 145.695 150.82 144.601 150.82C143.507 150.82 143.507 150.82 142.414 150.82C141.32 150.82 141.32 150.844 140.226 150.844C139.132 150.844 139.132 150.905 138.026 150.905C136.921 150.905 136.933 150.699 135.827 150.699C134.721 150.699 134.733 150.977 133.627 150.977C132.522 150.977 132.534 150.917 131.428 150.917C130.322 150.917 130.334 150.784 129.24 150.784C128.147 150.784 128.147 150.566 127.053 150.566C125.959 150.566 125.959 150.687 124.865 150.687C123.771 150.687 123.771 150.917 122.677 150.917C121.584 150.917 121.584 150.626 120.49 150.626C119.396 150.626 119.396 150.675 118.29 150.675C117.185 150.675 117.197 150.59 116.091 150.59C114.985 150.59 114.997 150.808 113.891 150.808C112.786 150.808 112.798 150.59 111.692 150.59C110.586 150.59 110.598 150.808 109.492 150.808C108.387 150.808 108.399 150.868 107.293 150.868C106.187 150.868 106.199 150.759 105.093 150.759C103.988 150.759 104 150.735 102.894 150.735C101.788 150.735 101.8 150.554 100.694 150.554C99.5887 150.554 99.6005 150.796 98.4948 150.796C97.3892 150.796 97.401 150.759 96.2953 150.759C95.1896 150.759 95.2015 150.723 94.0958 150.723C92.9901 150.723 93.0021 150.88 91.8964 150.88C90.7907 150.88 90.8025 150.626 89.6968 150.626C88.5911 150.626 88.603 150.735 87.4973 150.735C86.3916 150.735 86.4035 150.784 85.2978 150.784C84.1921 150.784 84.204 150.626 83.0983 150.626C81.9926 150.626 82.0045 150.832 80.8988 150.832C79.7931 150.832 79.805 150.723 78.6993 150.723C77.5936 150.723 77.6055 150.929 76.4998 150.929C75.3941 150.929 75.406 150.796 74.3003 150.796C73.1946 150.796 73.2065 150.651 72.1008 150.651C70.9951 150.651 71.007 150.59 69.9132 150.59C68.8194 150.59 68.8194 150.82 67.7256 150.82C66.6318 150.82 66.6318 150.917 65.538 150.917C64.4442 150.917 64.4442 150.518 63.3504 150.518C62.2566 150.518 62.2566 150.844 61.1509 150.844C60.0452 150.844 60.0571 150.578 58.9514 150.578C57.8457 150.578 57.8576 150.699 56.7519 150.699C55.6462 150.699 55.658 150.687 54.5523 150.687C53.4467 150.687 53.4586 150.687 52.3529 150.687C51.2472 150.687 51.259 150.784 50.1533 150.784C49.0476 150.784 49.0595 150.82 47.9539 150.82C46.8482 150.82 46.86 150.747 45.7543 150.747C44.6486 150.747 44.6605 150.88 43.5548 150.88C42.4491 150.88 42.4491 150.638 41.3553 150.638C40.2615 150.638 40.2615 150.711 39.1558 150.711C38.0501 150.711 38.0501 150.53 36.9563 150.53C35.8625 150.53 35.8625 150.626 34.7568 150.626C33.6511 150.626 33.6511 150.663 32.5573 150.663C31.4635 150.663 31.4516 150.626 30.3578 150.626C29.264 150.626 29.264 150.602 28.1583 150.602C27.0526 150.602 27.0526 150.735 25.9588 150.735C24.865 150.735 24.865 150.711 23.7593 150.711C22.6536 150.711 22.6536 150.554 21.5598 150.554C20.466 150.554 20.4541 150.626 19.3603 150.626C18.2665 150.626 18.2546 150.735 17.1608 150.735C16.067 150.735 16.0551 150.626 14.9613 150.626C13.8675 150.626 13.8556 150.917 12.7499 150.917C11.6442 150.917 11.3113 151.534 10.5385 150.735C9.76573 149.937 10.7287 149.61 10.7287 148.485C10.7287 147.36 10.5504 147.36 10.5504 146.247C10.5504 145.135 10.4077 145.122 10.4077 144.01C10.4077 142.897 10.4077 142.885 10.4077 141.772C10.4077 140.659 10.5623 140.647 10.5623 139.534C10.5623 138.421 10.5266 138.409 10.5266 137.296C10.5266 136.183 10.7644 136.171 10.7644 135.058C10.7644 133.945 10.6931 133.933 10.6931 132.82C10.6931 131.708 10.4791 131.695 10.4791 130.583C10.4791 129.47 10.5385 129.458 10.5385 128.345C10.5385 127.232 10.5623 127.22 10.5623 126.107C10.5623 124.994 10.4077 124.982 10.4077 123.869C10.4077 122.756 10.4077 122.744 10.4077 121.631C10.4077 120.518 10.4672 120.506 10.4672 119.393C10.4672 118.281 10.7287 118.268 10.7287 117.143C10.7287 116.018 10.3602 116.018 10.3602 114.906C10.3602 113.793 10.491 113.781 10.491 112.668C10.491 111.555 10.7525 111.543 10.7525 110.43C10.7525 109.317 10.5266 109.305 10.5266 108.192C10.5266 107.079 10.6217 107.067 10.6217 105.954C10.6217 104.841 10.4196 104.829 10.4196 103.716C10.4196 102.604 10.6099 102.591 10.6099 101.466C10.6099 100.341 10.491 100.341 10.491 99.2165C10.491 98.0916 10.4672 98.0916 10.4672 96.9787C10.4672 95.8658 10.6574 95.8537 10.6574 94.7408C10.6574 93.628 10.4434 93.6159 10.4434 92.503C10.4434 91.3901 10.384 91.378 10.384 90.2652C10.384 89.1523 10.6931 89.1402 10.6931 88.0152C10.6931 86.8903 10.3602 86.8903 10.3602 85.7653C10.3602 84.6403 10.3602 84.6403 10.3602 83.5275C10.3602 82.4146 10.3602 82.4025 10.3602 81.2896C10.3602 80.1767 10.6574 80.1647 10.6574 79.0397C10.6574 77.9147 10.6693 77.9147 10.6693 76.7897C10.6693 75.6648 10.4791 75.6648 10.4791 74.5398C10.4791 73.4148 10.3721 73.4148 10.3721 72.302C10.3721 71.1891 10.4077 71.177 10.4077 70.0641C10.4077 68.9512 10.4077 68.9391 10.4077 67.8263C10.4077 66.7134 10.5029 66.7013 10.5029 65.5884C10.5029 64.4755 10.5504 64.4635 10.5504 63.3506C10.5504 62.2377 10.3483 62.2256 10.3483 61.1007C10.3483 59.9757 10.5029 59.9757 10.5029 58.8628C10.5029 57.7499 10.6336 57.7379 10.6336 56.625C10.6336 55.5121 10.5029 55.5 10.5029 54.3871C10.5029 53.2743 10.6336 53.2622 10.6336 52.1372C10.6336 51.0122 10.384 51.0122 10.384 49.8873C10.384 48.7623 10.6336 48.7623 10.6336 47.6494C10.6336 46.5366 10.6931 46.5245 10.6931 45.3995C10.6931 44.2745 10.5385 44.2745 10.5385 43.1495C10.5385 42.0246 10.4553 42.0246 10.4553 40.8996C10.4553 39.7747 10.6336 39.7746 10.6336 38.6497C10.6336 37.5247 10.6336 37.5247 10.6336 36.3998C10.6336 35.2748 10.5266 35.2748 10.5266 34.1498C10.5266 33.0248 10.5266 33.0248 10.5266 31.8999C10.5266 30.7749 10.7169 30.7749 10.7169 29.662C10.7169 28.5492 10.4434 28.537 10.4434 27.4121C10.4434 26.2871 10.7525 26.2871 10.7525 25.1622C10.7525 24.0372 10.6693 24.0372 10.6693 22.9122C10.6693 21.7872 10.491 21.7872 10.491 20.6623C10.491 19.5373 10.4672 19.5373 10.4672 18.4123C10.4672 17.2874 10.5742 17.2874 10.5742 16.1624C10.5742 15.0374 10.6455 15.0374 10.6455 13.9004C10.6455 12.7633 9.84895 12.5456 10.6217 11.723C11.3945 10.9004 11.5967 11.7835 12.6667 11.7835C13.7367 11.7835 13.7248 11.844 14.7949 11.844C15.8649 11.844 15.8649 11.6988 16.923 11.6988C17.9812 11.6988 17.993 11.723 19.0512 11.723C20.1093 11.723 20.1212 11.5295 21.1794 11.5295C22.2375 11.5295 22.2494 11.6746 23.3075 11.6746C24.3657 11.6746 24.3657 11.5174 25.4357 11.5174C26.5057 11.5174 26.5057 11.5174 27.5639 11.5174C28.622 11.5174 28.622 11.5658 29.692 11.5658C30.7621 11.5658 30.7621 11.5295 31.8202 11.5295C32.8783 11.5295 32.8902 11.7351 33.9484 11.7351C35.0065 11.7351 35.0184 11.7593 36.0765 11.7593C37.1347 11.7593 37.1466 11.7472 38.2166 11.7472C39.2866 11.7472 39.2866 11.469 40.3567 11.469C41.4267 11.469 41.4267 11.6384 42.4967 11.6384" stroke="#181C56" stroke-linecap="round" stroke-linejoin="round"/>
</svg>
