<svg width="320" height="320" viewBox="0 0 320 320" fill="none" xmlns="http://www.w3.org/2000/svg">
<path d="M208.117 124.244C208.117 124.244 155.071 113.125 148.749 112.437C148.749 112.437 127.202 117.472 116.953 119.217C106.704 120.954 101.64 121.338 101.64 121.338C101.64 121.338 105.783 95.5787 111.384 89.4871C116.985 83.3955 124.91 78.2725 124.91 78.2725L126.889 75.6789L127.402 72.8613C127.402 72.8613 146.994 72.453 147.234 73.1174C147.475 73.7818 148.556 76.9597 152.194 78.2164C155.84 79.4732 164.911 86.8215 164.911 86.8215L181.442 100.133C181.442 100.133 185.344 103.279 187.492 103.864C189.639 104.456 195.096 106.633 195.096 106.633L200.217 109.307C200.217 109.307 207.052 113.365 207.444 113.997L208.053 114.662C208.053 114.662 209.8 118.232 209.56 120.777C209.319 123.323 208.694 124.82 208.694 124.82L208.117 124.244Z" fill="white"/>
<path d="M208.806 124.708L212.821 129.03C212.821 129.03 213.943 127.742 215.161 125.652C216.379 123.563 216.33 122.531 215.305 118.808C214.279 115.086 208.277 114.662 208.277 114.662C208.277 114.662 211.218 118.808 208.798 124.7L208.806 124.708Z" fill="white"/>
<path d="M100.598 136.171L114.918 143.975L145.624 153.333L146.665 177.931C146.665 177.931 129.518 180.076 123.235 182.262C123.235 182.262 110.927 182.902 102.425 179.164C93.9236 175.426 94.4044 175.025 94.4044 175.025C94.4044 175.025 98.1865 164.283 98.7955 158.304C99.4045 152.324 100.318 147.153 100.622 142.895C100.927 138.636 100.614 136.171 100.614 136.171H100.598Z" fill="white"/>
<path d="M187.66 100.758L187.644 104.08C187.644 104.08 182.083 101.246 181.594 100.349C181.106 99.4529 187.66 100.766 187.66 100.766V100.758Z" fill="white"/>
<path d="M99.0045 132.032C99.0045 132.032 99.357 135.522 100.607 136.171C101.857 136.819 110.191 140.845 110.191 140.845L144.719 143.311L147.956 203.002C147.956 203.002 148.629 225.127 147.988 231.315C147.347 237.502 146.898 243.938 146.898 243.938L172.676 244.394C172.676 244.394 199.408 242.177 206.187 241.008C212.958 239.84 215.586 239.335 215.586 239.335C215.586 239.335 215.987 211.591 213.439 194.621C213.439 194.621 219.881 194.309 221.155 192.364L217.878 150.299C217.878 150.299 216.996 141.51 216.043 138.228C212.485 126.029 207.87 124.324 207.87 124.324L168.317 116.223C168.317 116.223 151.899 112.997 148.573 112.877C145.248 112.757 131.61 115.646 126.858 117.423L109.117 120.834L101.657 121.354H101.072L100.487 122.442C100.487 122.442 97.4179 126.797 99.0205 132.04L99.0045 132.032Z" fill="white"/>
<path d="M98.7317 131.784L94.9415 129.951L93.7476 128.118C93.7476 128.118 93.8517 126.573 94.4928 123.939C95.1418 121.314 100.198 122.194 100.198 122.194C100.198 122.194 97.9704 129.246 98.7317 131.792V131.784Z" fill="white"/>
<path d="M156.914 244.698L159.126 297.746C159.126 297.746 164.599 299.595 169.863 298.954C175.128 298.314 176.875 297.818 176.875 297.818L177.283 243.986L156.914 244.698Z" fill="white"/>
<path d="M183.221 243.778C183.221 243.778 187.396 282.761 187.957 289.685C188.526 296.609 188.63 297.978 188.63 297.978C188.63 297.978 195.12 299.899 199.255 299.13C203.39 298.362 206.178 297.137 206.178 297.137L204.824 241.376C204.824 241.376 186.346 243.298 183.213 243.786L183.221 243.778Z" fill="white"/>
<path d="M107.137 181.165C107.137 181.165 110.006 216.394 110.327 222.005C110.647 227.616 112.402 229.089 107.137 242.345C101.881 255.601 89.8052 284.234 89.8052 284.234L106.024 294.968L124.566 262.517C124.566 262.517 124.373 282.689 123.724 295.52L144.31 294.544L149.454 244.09L145.961 243.986L145.4 178.091C145.4 178.091 123.067 183.622 117.859 182.47C112.65 181.317 107.137 181.165 107.137 181.165Z" fill="white"/>
<path d="M93.2902 287.428C93.2902 287.428 87.7612 293.167 86.4951 297.898L105.262 309.409L116.223 309.233C116.223 309.233 116.712 304.846 113.05 304.142C109.396 303.437 109.501 303.813 109.501 303.813C109.501 303.813 105.342 300.956 105.294 294.864L93.6828 287.012L93.2902 287.428Z" fill="white"/>
<path d="M129.43 294.864C129.43 294.864 129.293 307.928 129.742 309.232H158.99C158.99 309.232 159.406 302.805 151.53 303.261C151.53 303.261 145.872 302.829 143.741 299.787C141.609 296.745 140.856 294.864 140.856 294.864H129.438H129.43Z" fill="white"/>
<path d="M129.718 68.0985L129.983 72.4211L145.199 72.4451C145.199 72.4451 144.43 68.6989 148.276 67.6823C152.123 66.6657 153.028 67.242 152.852 65.1128C152.676 62.9835 152.091 58.2287 152.091 58.2287L154.43 55.1469C154.43 55.1469 151.482 52.0731 151.177 50.1199C150.873 48.1668 150.408 46.2937 150.408 46.2937C150.408 46.2937 152.788 46.2617 153.164 44.1965C153.541 42.1312 150.368 36.9442 150.368 36.9442L139.686 37.7767L128.46 42.1713C128.46 42.1713 122.963 47.8786 123.716 51.6168C124.47 55.355 128.813 67.0659 128.813 67.0659L129.718 68.1065V68.0985Z" fill="white"/>
<path d="M110.326 222.005C110.342 222.333 110.334 222.685 110.358 223.038C110.382 223.374 110.422 223.718 110.446 224.07C110.47 224.422 110.574 224.751 110.59 225.103C110.606 225.455 110.526 225.799 110.542 226.143C110.558 226.488 110.614 226.832 110.622 227.184C110.63 227.536 110.454 227.88 110.454 228.225C110.454 228.569 110.638 228.921 110.63 229.265C110.622 229.61 110.51 229.962 110.486 230.298C110.462 230.634 110.574 231.018 110.534 231.347C110.486 231.707 110.294 232.027 110.222 232.347C110.158 232.675 110.246 233.036 110.182 233.364C110.118 233.692 110.037 234.02 109.973 234.34C109.909 234.66 109.589 234.933 109.509 235.261C109.429 235.589 109.461 235.933 109.372 236.253C109.284 236.574 109.292 236.926 109.196 237.238C109.1 237.55 108.988 237.87 108.868 238.183C108.747 238.495 108.475 238.743 108.347 239.047C108.219 239.359 108.106 239.679 107.978 239.992C107.85 240.304 107.722 240.616 107.586 240.928C107.449 241.24 107.345 241.561 107.209 241.873C107.073 242.185 107.041 242.537 106.912 242.849C106.784 243.161 106.496 243.41 106.36 243.722C106.223 244.034 106.263 244.41 106.135 244.722C106.007 245.035 105.887 245.355 105.759 245.667C105.63 245.979 105.47 246.275 105.342 246.588C105.214 246.9 104.973 247.164 104.845 247.476C104.717 247.788 104.533 248.076 104.404 248.389C104.276 248.701 104.26 249.061 104.132 249.373C104.004 249.685 103.972 250.038 103.843 250.35C103.715 250.662 103.603 250.982 103.475 251.294C103.347 251.606 103.026 251.847 102.898 252.159C102.77 252.471 102.77 252.839 102.641 253.151C102.513 253.464 102.433 253.8 102.305 254.112C102.177 254.424 101.896 254.68 101.768 254.992C101.64 255.305 101.624 255.665 101.496 255.977C101.367 256.289 101.183 256.577 101.055 256.898C100.927 257.218 100.911 257.57 100.782 257.882C100.654 258.194 100.526 258.507 100.398 258.819C100.27 259.131 100.077 259.419 99.9491 259.731C99.8209 260.043 99.7488 260.38 99.6206 260.692C99.4923 261.004 99.2039 261.252 99.0837 261.572C98.9635 261.893 98.8353 262.205 98.7151 262.517C98.5949 262.829 98.5869 263.197 98.4587 263.509C98.3305 263.822 98.1061 264.094 97.9779 264.414C97.8497 264.734 97.8417 265.086 97.7135 265.399C97.5852 265.711 97.4731 266.031 97.3449 266.343C97.2166 266.655 96.9923 266.927 96.8641 267.248C96.7359 267.568 96.6317 267.888 96.5035 268.2C96.3753 268.512 96.239 268.825 96.1189 269.137C95.9987 269.449 95.9105 269.785 95.7823 270.097C95.6541 270.41 95.6301 270.77 95.5019 271.082C95.3736 271.394 95.2134 271.698 95.0932 272.01C94.973 272.323 94.7326 272.595 94.6044 272.907C94.4762 273.219 94.2839 273.507 94.1557 273.82C94.0275 274.132 93.9233 274.46 93.7951 274.772C93.6669 275.084 93.5226 275.396 93.3944 275.709C93.2662 276.021 93.162 276.341 93.0338 276.653C92.9056 276.965 92.7053 277.254 92.5771 277.566C92.4489 277.878 92.3287 278.198 92.1925 278.51C92.0562 278.822 92.0643 279.191 91.928 279.503C91.7918 279.815 91.6235 280.111 91.4873 280.415C91.3511 280.72 91.1828 281.016 91.0466 281.328C90.9104 281.64 90.8863 281.992 90.7581 282.305C90.6219 282.617 90.5017 282.985 90.3495 283.297C90.093 283.825 89.7805 283.673 89.8767 284.202C89.9648 284.69 90.069 284.522 90.5738 284.826C90.8222 284.978 91.1908 285.018 91.4953 285.21C91.7598 285.378 92.0162 285.61 92.2966 285.787C92.5771 285.963 92.9377 286.019 93.2101 286.195C93.5066 286.379 93.6909 286.715 93.9553 286.883C94.2759 287.091 94.6284 287.187 94.8368 287.331C95.1172 287.532 95.3336 287.82 95.606 288.028C95.8785 288.236 96.207 288.372 96.4794 288.58C96.7519 288.788 97.0083 289.028 97.2727 289.237C97.5372 289.445 97.8256 289.645 98.0901 289.861C98.3545 290.077 98.6269 290.293 98.8914 290.509C99.1558 290.725 99.4443 290.918 99.7087 291.134C99.9731 291.35 100.165 291.654 100.438 291.87C100.71 292.086 100.967 292.31 101.239 292.519C101.512 292.727 101.832 292.863 102.113 293.063C102.393 293.263 102.601 293.559 102.89 293.743C103.178 293.927 103.571 293.935 103.875 294.103C104.18 294.272 104.42 294.52 104.733 294.672C105.045 294.824 105.374 294.912 105.686 295.048C105.999 295.184 106.279 295.376 106.608 295.488C106.784 295.216 106.985 294.952 107.169 294.648C107.345 294.368 107.425 294.023 107.61 293.719C107.778 293.431 108.098 293.223 108.267 292.919C108.435 292.615 108.571 292.318 108.739 292.014C108.908 291.71 109.132 291.454 109.3 291.15C109.469 290.846 109.517 290.493 109.677 290.189C109.837 289.885 109.885 289.533 110.046 289.229C110.206 288.924 110.438 288.668 110.598 288.364C110.759 288.06 110.975 287.788 111.127 287.484C111.28 287.179 111.408 286.859 111.568 286.555C111.728 286.251 111.945 285.979 112.105 285.683C112.265 285.386 112.377 285.05 112.538 284.754C112.698 284.458 112.826 284.13 112.986 283.833C113.147 283.537 113.307 283.217 113.467 282.929C113.627 282.641 113.98 282.425 114.148 282.136C114.324 281.832 114.469 281.52 114.637 281.248C114.821 280.944 114.869 280.568 115.046 280.303C115.23 280.031 115.583 279.863 115.767 279.567C115.951 279.271 116.111 278.999 116.296 278.702C116.48 278.406 116.472 278.03 116.648 277.734C116.825 277.438 117.065 277.206 117.233 276.909C117.401 276.613 117.562 276.325 117.73 276.029C117.898 275.733 118.107 275.468 118.267 275.172C118.427 274.876 118.627 274.604 118.788 274.308C118.948 274.012 118.94 273.635 119.1 273.331C119.261 273.027 119.533 272.803 119.685 272.499C119.837 272.195 119.966 271.89 120.118 271.586C120.27 271.282 120.478 271.018 120.631 270.714C120.783 270.41 120.839 270.065 120.991 269.761C121.144 269.457 121.192 269.105 121.336 268.801C121.48 268.496 121.769 268.256 121.913 267.96C122.057 267.664 122.097 267.296 122.249 267C122.402 266.703 122.522 266.383 122.666 266.079C122.81 265.775 123.123 265.551 123.267 265.254C123.411 264.958 123.515 264.622 123.66 264.318C123.804 264.014 123.932 263.702 124.076 263.405C124.221 263.109 124.333 262.781 124.477 262.485C124.637 262.165 124.814 261.893 124.934 261.612C125.078 261.276 125.35 261.028 125.447 260.756C125.575 260.404 125.519 260.043 125.575 259.763C125.647 259.395 125.743 259.083 125.735 258.787C125.727 258.45 125.639 258.138 125.567 257.81C125.495 257.514 125.27 257.242 125.182 256.898C125.11 256.609 125.19 256.265 125.134 255.905C125.086 255.617 125.086 255.289 125.054 254.928C125.03 254.632 125.006 254.312 124.998 253.952C124.998 253.648 124.886 253.319 124.902 252.967C124.918 252.623 124.982 252.287 124.998 251.951C125.014 251.614 124.998 251.27 125.006 250.926C125.014 250.582 125.158 250.254 125.182 249.917C125.206 249.581 125.206 249.237 125.23 248.901C125.254 248.565 125.11 248.212 125.134 247.876C125.158 247.54 125.158 247.196 125.182 246.852C125.206 246.507 125.39 246.187 125.423 245.843C125.455 245.499 125.294 245.155 125.318 244.81C125.342 244.466 125.382 244.13 125.407 243.794C125.431 243.458 125.639 243.129 125.663 242.793C125.687 242.457 125.591 242.113 125.615 241.769C125.639 241.424 125.807 241.104 125.831 240.76C125.855 240.416 125.783 240.08 125.799 239.743C125.815 239.407 125.799 239.071 125.823 238.727C125.847 238.383 125.767 238.046 125.783 237.71C125.799 237.374 125.991 237.038 125.999 236.702C126.007 236.365 125.967 236.021 125.967 235.685C125.967 235.349 125.975 235.005 125.975 234.668C125.975 234.332 126.007 233.996 125.999 233.652C125.991 233.308 125.783 232.979 125.767 232.635C125.751 232.291 125.695 231.963 125.679 231.619C125.663 231.282 125.863 230.938 125.839 230.594C125.815 230.25 125.767 229.922 125.735 229.585C125.703 229.249 125.671 228.913 125.631 228.577C125.591 228.241 125.615 227.896 125.583 227.56C125.551 227.224 125.511 226.888 125.471 226.552C125.431 226.216 125.182 225.911 125.142 225.575C125.102 225.239 125.046 224.911 125.006 224.575C124.966 224.238 124.87 223.91 124.822 223.574C124.773 223.238 124.886 222.886 124.838 222.549C124.79 222.213 124.629 221.893 124.581 221.565C124.533 221.237 124.629 220.876 124.581 220.54C124.533 220.204 124.509 219.868 124.461 219.532C124.413 219.195 124.14 218.891 124.084 218.555C124.028 218.219 124.084 217.867 124.036 217.53C123.988 217.194 124.02 216.842 123.972 216.506C123.924 216.17 123.868 215.833 123.812 215.497C123.756 215.161 123.58 214.841 123.531 214.513C123.483 214.184 123.539 213.824 123.499 213.496C123.459 213.168 123.427 212.824 123.387 212.487C123.347 212.151 123.323 211.807 123.283 211.479C123.243 211.151 123.195 210.806 123.163 210.478C123.131 210.15 122.906 209.822 122.874 209.494C122.842 209.165 122.914 208.821 122.882 208.485C122.85 208.149 122.914 207.813 122.882 207.484C122.85 207.156 122.762 206.828 122.73 206.492C122.698 206.156 122.754 205.82 122.722 205.491C122.69 205.163 122.442 204.851 122.41 204.515C122.378 204.179 122.562 203.834 122.53 203.498C122.498 203.162 122.329 202.85 122.297 202.514C122.265 202.177 122.37 201.833 122.338 201.505C122.305 201.177 122.137 200.857 122.105 200.52C122.073 200.184 121.985 199.864 121.953 199.528C121.921 199.192 121.849 198.871 121.817 198.535C121.785 198.199 121.817 197.863 121.785 197.535C121.753 197.206 121.68 196.878 121.648 196.542C121.616 196.206 121.648 195.87 121.616 195.541C121.584 195.213 121.528 194.877 121.496 194.549C121.464 194.221 121.56 193.876 121.528 193.54C121.496 193.204 121.392 192.884 121.36 192.556C121.328 192.227 121.328 191.891 121.296 191.555C121.264 191.219 121.112 190.907 121.079 190.571C121.047 190.234 120.975 189.914 120.943 189.578C120.911 189.242 121.087 188.898 121.055 188.561C121.023 188.225 120.799 187.913 120.767 187.585C120.735 187.257 120.759 186.92 120.727 186.584C120.695 186.248 120.791 185.912 120.759 185.576C120.743 185.375 120.743 185.047 120.791 184.687C120.831 184.391 120.903 184.071 120.927 183.783C120.951 183.406 120.815 183.118 120.679 182.95C120.511 182.734 120.278 182.662 119.942 182.718C119.677 182.758 119.405 182.91 119.124 182.982C118.812 183.062 118.491 183.102 118.259 183.054C117.97 182.99 117.666 182.79 117.297 182.694C116.993 182.614 116.656 182.534 116.312 182.438C115.999 182.35 115.647 182.326 115.31 182.23C114.974 182.134 114.653 182.07 114.316 181.973C113.98 181.877 113.627 181.893 113.299 181.805C112.97 181.717 112.642 181.605 112.313 181.525C111.985 181.445 111.68 181.197 111.352 181.125C111.007 181.045 110.679 180.917 110.358 180.861C109.997 180.789 109.645 180.757 109.332 180.725C108.948 180.677 108.579 180.629 108.291 180.645C107.826 180.669 107.537 180.925 107.409 181.157C107.281 181.389 107.201 181.709 107.137 182.102C107.089 182.398 107.017 182.726 107.001 183.094C106.985 183.406 107.097 183.743 107.097 184.095C107.097 184.415 106.848 184.751 106.864 185.095C106.872 185.423 107.073 185.744 107.089 186.088C107.105 186.432 107.137 186.744 107.169 187.088C107.201 187.433 107.129 187.761 107.169 188.097C107.209 188.433 107.393 188.745 107.433 189.082C107.473 189.418 107.473 189.754 107.505 190.082C107.537 190.41 107.545 190.755 107.586 191.083C107.626 191.411 107.65 191.763 107.698 192.083C107.746 192.428 107.762 192.764 107.81 193.084C107.858 193.436 108.002 193.748 108.05 194.069C108.098 194.429 108.066 194.773 108.106 195.077C108.162 195.469 108.275 195.798 108.307 196.062C108.347 196.398 108.435 196.726 108.475 197.054C108.515 197.383 108.531 197.727 108.571 198.055C108.611 198.383 108.659 198.719 108.691 199.048C108.723 199.376 108.651 199.728 108.691 200.056C108.731 200.384 108.627 200.737 108.659 201.065C108.691 201.393 108.771 201.721 108.803 202.057C108.836 202.393 108.868 202.722 108.9 203.058C108.932 203.394 109.02 203.722 109.052 204.05C109.084 204.379 109.228 204.707 109.26 205.035C109.292 205.363 109.284 205.707 109.316 206.036C109.348 206.364 109.316 206.708 109.34 207.036C109.364 207.364 109.445 207.693 109.477 208.029C109.509 208.365 109.525 208.693 109.549 209.021C109.573 209.35 109.613 209.686 109.637 210.014C109.661 210.342 109.549 210.686 109.573 211.015C109.597 211.343 109.733 211.671 109.757 211.999C109.781 212.327 109.893 212.656 109.917 212.984C109.941 213.312 109.805 213.656 109.829 213.992C109.853 214.329 110.037 214.641 110.062 214.977C110.086 215.313 109.973 215.649 109.997 215.977C110.021 216.306 110.19 216.634 110.206 216.962C110.222 217.29 110.094 217.634 110.118 217.971C110.142 218.307 110.198 218.627 110.222 218.963C110.246 219.299 110.342 219.62 110.358 219.956C110.374 220.292 110.302 220.62 110.318 220.956C110.334 221.293 110.326 221.629 110.35 221.965L110.326 222.005Z" fill="#AEB7E2"/>
<path d="M124.533 263.261C124.517 263.597 124.365 263.926 124.349 264.254C124.333 264.582 124.517 264.934 124.501 265.27C124.485 265.607 124.429 265.935 124.413 266.271C124.397 266.607 124.341 266.935 124.325 267.272C124.309 267.608 124.325 267.944 124.317 268.272C124.309 268.6 124.221 268.937 124.205 269.273C124.189 269.609 124.132 269.937 124.116 270.273C124.1 270.61 124.1 270.938 124.084 271.274C124.068 271.61 124.173 271.946 124.165 272.283C124.156 272.619 124.084 272.947 124.068 273.283C124.052 273.619 123.852 273.94 123.844 274.276C123.836 274.612 123.98 274.948 123.972 275.284C123.964 275.621 124.028 275.957 124.012 276.285C123.996 276.613 123.828 276.949 123.82 277.278C123.812 277.606 123.98 277.95 123.972 278.278C123.964 278.606 123.804 278.943 123.796 279.271C123.788 279.599 123.708 279.935 123.7 280.271C123.692 280.608 123.684 280.936 123.684 281.272C123.684 281.608 123.628 281.936 123.62 282.272C123.612 282.609 123.796 282.937 123.796 283.273C123.796 283.609 123.612 283.937 123.612 284.274C123.612 284.61 123.668 284.938 123.668 285.274C123.668 285.61 123.652 285.939 123.652 286.275C123.652 286.611 123.756 286.939 123.756 287.275C123.756 287.612 123.796 287.94 123.804 288.276C123.812 288.612 123.772 288.94 123.78 289.277C123.788 289.613 123.78 289.941 123.788 290.277C123.796 290.613 123.948 290.942 123.964 291.27C123.98 291.598 123.868 291.942 123.884 292.278C123.884 292.462 123.772 292.879 123.7 293.359C123.644 293.711 123.78 294.127 123.748 294.48C123.7 294.984 123.491 295.48 123.62 295.616C124.036 296.073 124.124 295.28 124.733 295.408C125.094 295.48 125.415 295.752 125.751 295.776C126.112 295.8 126.472 295.664 126.817 295.648C127.161 295.632 127.506 295.504 127.859 295.464C128.211 295.424 128.572 295.48 128.924 295.424C129.277 295.368 129.613 295.272 129.966 295.224C130.319 295.176 130.655 295.056 131.016 295.032C131.376 295.008 131.721 295.048 132.089 295.048C132.434 295.048 132.787 295.104 133.155 295.128C133.291 295.136 133.668 295.184 134.205 295.184C134.509 295.184 134.87 295.064 135.263 295.064C135.591 295.064 135.944 295.024 136.312 295.024C136.657 295.024 137.009 295.128 137.37 295.12C137.731 295.112 138.075 295.168 138.428 295.16C138.78 295.152 139.133 295.016 139.485 295C139.838 294.984 140.199 294.904 140.543 294.888C140.912 294.872 141.272 294.888 141.601 294.864C141.994 294.84 142.354 294.864 142.659 294.832C143.195 294.776 143.636 294.84 143.756 294.776C143.909 294.688 144.061 294.248 144.189 293.735C144.261 293.439 144.189 293.063 144.253 292.671C144.309 292.35 144.421 292.014 144.478 291.646C144.526 291.31 144.726 290.982 144.766 290.621C144.806 290.261 144.822 289.925 144.854 289.573C144.886 289.221 144.91 288.868 144.942 288.524C144.974 288.18 144.998 287.82 145.03 287.476C145.063 287.115 145.014 286.755 145.046 286.419C145.079 286.043 145.207 285.699 145.239 285.378C145.279 284.97 145.231 284.61 145.263 284.33C145.303 284.002 145.479 283.681 145.519 283.345C145.559 283.009 145.583 282.681 145.623 282.337C145.663 281.992 145.591 281.656 145.623 281.32C145.655 280.984 145.696 280.656 145.736 280.319C145.776 279.983 145.896 279.663 145.936 279.327C145.976 278.991 145.792 278.638 145.824 278.302C145.856 277.966 146.008 277.646 146.04 277.31C146.072 276.973 146.12 276.645 146.152 276.309C146.184 275.973 146.112 275.637 146.144 275.3C146.176 274.964 146.305 274.644 146.337 274.308C146.369 273.972 146.441 273.643 146.473 273.307C146.505 272.971 146.609 272.643 146.641 272.307C146.673 271.97 146.497 271.618 146.529 271.282C146.561 270.946 146.817 270.634 146.841 270.297C146.865 269.961 146.801 269.617 146.833 269.281C146.865 268.945 146.978 268.616 147.002 268.28C147.026 267.944 146.97 267.6 147.002 267.264C147.034 266.927 147.026 266.591 147.05 266.255C147.074 265.919 147.122 265.583 147.154 265.246C147.186 264.91 147.362 264.59 147.394 264.254C147.426 263.918 147.346 263.573 147.378 263.237C147.41 262.901 147.458 262.565 147.49 262.229C147.523 261.892 147.482 261.548 147.514 261.212C147.547 260.876 147.763 260.556 147.787 260.22C147.811 259.883 147.859 259.547 147.891 259.211C147.923 258.875 147.899 258.531 147.931 258.194C147.963 257.858 147.987 257.522 148.019 257.186C148.051 256.85 148.131 256.513 148.164 256.177C148.196 255.841 148.027 255.481 148.059 255.145C148.091 254.808 148.075 254.464 148.107 254.128C148.14 253.792 148.324 253.472 148.356 253.135C148.388 252.799 148.38 252.455 148.42 252.127C148.46 251.799 148.532 251.462 148.572 251.126C148.612 250.79 148.636 250.454 148.668 250.126C148.7 249.797 148.636 249.437 148.676 249.109C148.716 248.781 148.933 248.461 148.973 248.124C149.013 247.788 149.085 247.46 149.125 247.132C149.165 246.804 148.981 246.427 149.029 246.099C149.077 245.771 149.141 245.427 149.181 245.107C149.221 244.786 149.414 244.362 149.462 244.042C149.077 243.858 148.989 244.194 148.564 244.17C148.14 244.146 148.14 244.106 147.715 244.082C147.29 244.058 147.298 244.042 146.914 243.874C146.938 243.562 146.785 243.314 146.817 242.953C146.841 242.633 146.897 242.297 146.93 241.937C146.954 241.609 147.21 241.288 147.242 240.936C147.266 240.608 147.266 240.264 147.29 239.92C147.314 239.575 147.378 239.255 147.402 238.903C147.426 238.551 147.282 238.223 147.314 237.878C147.346 237.534 147.514 237.214 147.539 236.87C147.563 236.526 147.386 236.181 147.418 235.837C147.45 235.493 147.474 235.165 147.498 234.829C147.523 234.492 147.587 234.156 147.611 233.812C147.635 233.468 147.683 233.132 147.707 232.795C147.731 232.459 147.787 232.115 147.803 231.779C147.819 231.443 147.819 231.098 147.843 230.754C147.867 230.41 147.795 230.066 147.811 229.73C147.827 229.393 147.947 229.049 147.971 228.721C147.995 228.393 147.963 228.033 147.971 227.696C147.979 227.36 148.188 227.016 148.204 226.688C148.22 226.336 148.035 225.991 148.051 225.663C148.067 225.311 148.172 224.975 148.188 224.647C148.204 224.286 148.059 223.942 148.067 223.622C148.075 223.262 148.236 222.926 148.244 222.613C148.244 222.277 148.083 221.941 148.091 221.605C148.099 221.269 148.107 220.932 148.107 220.596C148.107 220.26 148.364 219.924 148.372 219.588C148.38 219.251 148.26 218.915 148.26 218.579C148.26 218.243 148.156 217.907 148.156 217.57C148.156 217.234 148.156 216.898 148.156 216.562C148.156 216.226 148.324 215.889 148.324 215.553C148.324 215.217 148.292 214.881 148.284 214.545C148.276 214.208 148.268 213.872 148.268 213.536C148.268 213.2 148.236 212.864 148.228 212.527C148.22 212.191 148.107 211.855 148.107 211.519C148.107 211.183 148.276 210.846 148.268 210.51C148.26 210.174 148.075 209.846 148.067 209.51C148.059 209.173 148.035 208.837 148.027 208.501C148.019 208.165 148.043 207.829 148.035 207.492C148.027 207.156 148.14 206.82 148.132 206.484C148.123 206.148 148.18 205.811 148.164 205.475C148.148 205.139 148.011 204.811 148.003 204.475C147.995 204.138 147.867 203.81 147.859 203.474C147.851 203.138 147.819 202.802 147.803 202.474C147.787 202.145 147.987 201.793 147.979 201.457C147.971 201.121 147.811 200.793 147.803 200.456C147.795 200.12 147.723 199.784 147.707 199.448C147.691 199.112 147.851 198.767 147.835 198.431C147.819 198.095 147.683 197.767 147.667 197.431C147.651 197.094 147.707 196.758 147.691 196.422C147.675 196.086 147.539 195.758 147.523 195.421C147.506 195.085 147.498 194.749 147.482 194.413C147.466 194.077 147.523 193.74 147.506 193.404C147.49 193.068 147.41 192.74 147.394 192.404C147.378 192.067 147.539 191.723 147.523 191.387C147.506 191.051 147.482 190.715 147.458 190.386C147.434 190.058 147.282 189.722 147.266 189.394C147.25 189.066 147.338 188.721 147.322 188.385C147.306 188.049 147.154 187.721 147.138 187.385C147.122 187.048 147.09 186.712 147.066 186.384C147.042 186.056 147.138 185.712 147.122 185.375C147.106 185.039 147.058 184.711 147.042 184.375C147.026 184.039 147.01 183.71 146.994 183.374C146.978 183.038 146.914 182.71 146.889 182.374C146.865 182.037 146.737 181.709 146.721 181.381C146.705 181.053 146.721 180.709 146.705 180.381C146.689 180.052 146.793 179.708 146.777 179.38C146.761 179.052 146.809 178.708 146.793 178.379C146.777 178.051 146.697 177.659 146.681 177.331C146.369 177.435 145.984 177.515 145.671 177.619C145.359 177.723 145.054 177.851 144.734 177.947C144.413 178.043 144.085 178.075 143.764 178.171C143.444 178.267 143.139 178.371 142.819 178.467C142.498 178.563 142.226 178.796 141.913 178.892C141.601 178.988 141.264 179.028 140.944 179.116C140.623 179.204 140.295 179.244 139.974 179.332C139.654 179.42 139.365 179.62 139.053 179.708C138.74 179.796 138.428 179.916 138.107 180.004C137.787 180.092 137.466 180.172 137.146 180.252C136.825 180.332 136.457 180.212 136.136 180.292C135.815 180.373 135.535 180.605 135.206 180.685C134.878 180.765 134.549 180.765 134.221 180.845C133.892 180.925 133.604 181.133 133.283 181.205C132.963 181.277 132.602 181.165 132.274 181.237C131.945 181.309 131.649 181.493 131.328 181.557C131.008 181.621 130.655 181.573 130.335 181.637C130.014 181.701 129.702 181.853 129.381 181.917C129.06 181.981 128.724 182.013 128.403 182.078C128.083 182.142 127.762 182.23 127.434 182.286C127.105 182.342 126.785 182.414 126.456 182.462C126.128 182.51 125.767 182.582 125.399 182.582C125.062 182.582 124.709 182.454 124.349 182.438C123.988 182.422 123.652 182.374 123.299 182.358C122.947 182.342 122.586 182.398 122.241 182.398C121.897 182.398 121.52 182.27 121.184 182.302C120.815 182.334 120.519 182.606 120.198 182.71C119.853 182.822 119.525 182.886 119.269 183.118C119.012 183.35 118.892 183.638 118.748 183.991C118.636 184.271 118.507 184.567 118.467 184.927C118.443 185.231 118.411 185.568 118.427 185.92C118.443 186.24 118.579 186.56 118.619 186.904C118.66 187.225 118.531 187.585 118.587 187.921C118.644 188.257 118.732 188.569 118.796 188.898C118.86 189.226 118.852 189.57 118.924 189.89C118.996 190.21 119.188 190.522 119.261 190.843C119.333 191.163 119.533 191.475 119.605 191.787C119.685 192.123 119.669 192.468 119.741 192.78C119.813 193.124 119.821 193.468 119.878 193.772C119.942 194.141 120.038 194.461 120.062 194.749C120.094 195.085 120.054 195.421 120.078 195.758C120.102 196.094 120.198 196.422 120.222 196.758C120.246 197.094 120.326 197.423 120.358 197.759C120.39 198.095 120.43 198.431 120.462 198.759C120.495 199.088 120.318 199.448 120.35 199.784C120.382 200.12 120.446 200.448 120.47 200.785C120.495 201.121 120.695 201.441 120.727 201.777C120.759 202.113 120.567 202.466 120.599 202.802C120.631 203.138 120.663 203.474 120.687 203.81C120.711 204.147 120.935 204.467 120.967 204.803C120.999 205.139 120.919 205.483 120.951 205.819C120.983 206.156 120.999 206.492 121.031 206.828C121.063 207.164 121.015 207.5 121.047 207.837C121.079 208.173 121.047 208.509 121.071 208.845C121.096 209.181 121.304 209.502 121.328 209.838C121.352 210.174 121.232 210.518 121.256 210.854C121.28 211.191 121.328 211.527 121.352 211.855C121.376 212.183 121.336 212.527 121.352 212.864C121.368 213.2 121.512 213.528 121.528 213.864C121.544 214.2 121.696 214.529 121.721 214.865C121.745 215.201 121.616 215.545 121.64 215.881C121.664 216.218 121.809 216.546 121.833 216.882C121.857 217.218 121.905 217.554 121.929 217.891C121.953 218.227 121.785 218.571 121.809 218.907C121.833 219.243 121.913 219.572 121.929 219.908C121.945 220.244 122.001 220.58 122.017 220.916C122.033 221.253 122.105 221.589 122.121 221.917C122.137 222.245 122.121 222.589 122.129 222.926C122.137 223.262 122.001 223.606 122.025 223.942C122.049 224.278 122.209 224.607 122.233 224.943C122.257 225.279 122.193 225.615 122.209 225.951C122.225 226.288 122.273 226.624 122.281 226.96C122.289 227.296 122.458 227.624 122.474 227.961C122.49 228.297 122.338 228.641 122.354 228.977C122.37 229.313 122.338 229.65 122.354 229.986C122.37 230.322 122.386 230.658 122.394 230.994C122.402 231.331 122.53 231.659 122.546 231.995C122.562 232.331 122.514 232.667 122.522 233.003C122.53 233.34 122.586 233.676 122.594 234.012C122.602 234.348 122.498 234.684 122.506 235.021C122.514 235.357 122.546 235.693 122.554 236.029C122.562 236.365 122.738 236.694 122.746 237.03C122.754 237.366 122.794 237.702 122.802 238.038C122.81 238.375 122.65 238.711 122.658 239.047C122.666 239.383 122.858 239.719 122.874 240.056C122.89 240.392 122.89 240.728 122.906 241.064C122.922 241.4 122.754 241.753 122.778 242.089C122.802 242.425 122.947 242.753 122.979 243.089C123.011 243.426 122.882 243.778 122.906 244.114C122.931 244.45 123.059 244.778 123.091 245.115C123.123 245.451 123.187 245.787 123.219 246.123C123.251 246.459 123.371 246.788 123.411 247.124C123.451 247.46 123.291 247.82 123.331 248.156C123.371 248.493 123.451 248.821 123.491 249.157C123.531 249.493 123.564 249.829 123.596 250.166C123.628 250.502 123.628 250.838 123.668 251.174C123.708 251.51 123.948 251.823 123.98 252.159C124.012 252.495 124.1 252.823 124.132 253.159C124.165 253.496 123.972 253.856 124.004 254.192C124.036 254.528 124.092 254.864 124.116 255.201C124.14 255.537 124.181 255.873 124.205 256.209C124.229 256.545 124.205 256.89 124.221 257.226C124.237 257.562 124.261 257.898 124.277 258.234C124.293 258.571 124.525 258.899 124.533 259.235C124.541 259.571 124.565 259.915 124.565 260.252C124.565 260.588 124.621 260.932 124.621 261.268C124.621 261.604 124.445 261.941 124.437 262.277C124.429 262.613 124.501 262.957 124.485 263.293L124.533 263.261Z" fill="#AEB7E2"/>
<path d="M101.552 120.81L101.888 119.665L102.097 118.504L102.169 117.32L102.473 116.175L102.626 114.998L102.914 113.854L103.17 112.701L103.243 111.5L103.595 110.371L103.916 109.227L104.108 108.058L104.517 106.945L104.845 105.809L105.094 104.648L105.318 103.479L105.638 102.343L106.087 101.238L106.44 100.109L106.888 99.0048L107.177 97.8441L107.778 96.8115L108.066 95.6428L108.499 94.5382L109.108 93.5136L109.597 92.4329L110.278 91.4563L110.807 90.3997L111.52 89.4552L112.153 88.4626L112.922 87.566L113.579 86.5655L114.397 85.709L115.302 84.9325L116.087 84.052L117.113 83.4196L118.051 82.7152L118.972 81.9708L119.99 81.3704L120.951 80.5539L122.049 79.9616L123.179 79.4253L124.173 78.6648L125.238 77.8323L126.096 76.7997L126.873 75.663L126.897 74.2862L127.177 72.9735L128.307 72.8614L129.509 72.8214L130.711 72.8534L131.913 72.8054L133.115 72.8934L134.309 72.7653L135.511 72.8774L136.713 72.8374H137.915L139.117 72.7814L140.327 72.8214L141.529 72.8134L142.739 72.7253L143.941 72.9254L145.151 72.8614L146.337 73.1336L147.491 73.2376L147.418 73.7899L147.843 74.9026L148.692 75.7271L149.558 76.5275L150.471 77.304L151.505 77.9044L152.595 78.4007L153.701 78.8089L154.742 79.3372L155.784 79.8895L156.689 80.634L157.731 81.1783L158.701 81.8427L159.502 82.7232L160.56 83.2675L161.425 84.068L162.419 84.6924L163.244 85.5409L164.158 86.2693L165.055 87.0217L165.945 87.7742L166.978 88.3505L167.868 89.111L168.677 89.9755L169.598 90.6959L170.616 91.3043L171.514 92.0647L172.419 92.8091L173.325 93.5536L174.126 94.4341L175.152 95.0345L176.033 95.8109L176.97 96.5153L177.82 97.3318L178.829 97.9402L179.655 98.7887L180.584 99.5171L181.602 100.117L182.459 100.918L183.477 101.526L184.423 102.223L185.472 102.743L186.45 103.375L187.516 103.792L188.653 104.128L189.751 104.592L190.897 104.88L192.027 105.24L193.077 105.809L194.166 106.265L195.312 106.625L196.33 107.242L197.348 107.85L198.405 108.378L199.471 108.915L200.489 109.523L201.554 110.051L202.588 110.636L203.574 111.284L204.583 111.916L205.553 112.605L206.515 113.285L207.492 113.966L208.181 114.99L208.558 116.167L208.975 117.312L209.415 118.456L209.431 119.689L209.463 120.906L209.383 122.114L209.391 123.355L208.951 124.5" stroke="#181C56" stroke-width="1.5" stroke-linecap="round" stroke-linejoin="round"/>
<path d="M107.097 180.669L107.217 181.693L107.297 182.718V183.751L107.506 184.767L107.353 185.808L107.441 186.84L107.594 187.857L107.61 188.89L107.802 189.906L107.994 190.923L107.882 191.963L108.123 192.98L108.083 194.013L108.171 195.045L108.179 196.078L108.459 197.086L108.475 198.111L108.459 199.144L108.7 200.16L108.804 201.185L108.7 202.225L108.788 203.25L108.812 204.283L109.036 205.299L109.004 206.332L109.124 207.364L109.172 208.397L109.22 209.43L109.389 210.454L109.605 211.471L109.701 212.503L109.765 213.536L109.829 214.569V215.609L109.909 216.634L109.861 217.675L109.942 218.699L110.198 219.716L110.166 220.748L110.262 221.773L110.478 222.798L110.454 223.83L110.663 224.839L110.599 225.887L110.735 226.92L110.623 227.961L110.695 229.001L110.454 230.026L110.502 231.074L110.254 232.083L110.022 233.092L110.03 234.156L109.717 235.149L109.333 236.117L109.196 237.158L108.836 238.135L108.459 239.103L108.115 240.08L107.642 241.008L107.337 242.009L106.824 242.921L106.576 243.938L106.127 244.875L105.655 245.803L105.326 246.788L105.046 247.788L104.533 248.701L104.212 249.693L103.763 250.63L103.555 251.663L102.962 252.551L102.738 253.568L102.265 254.496L101.816 255.433L101.44 256.401L101.239 257.442L100.791 258.378L100.278 259.299L99.9653 260.3L99.6368 261.292L99.3243 262.285L98.9236 263.245L98.4268 264.174L97.922 265.094L97.7216 266.135L97.305 267.088L96.736 267.984L96.4396 268.993L96.079 269.969L95.5742 270.882L95.2536 271.882L94.8049 272.819L94.3962 273.772L94.0437 274.756L93.635 275.709L93.1783 276.645L92.7776 277.606L92.5052 278.622L91.8801 279.487L91.5516 280.471L91.0869 281.408L90.6862 282.361L90.3416 283.345L89.6846 284.274L90.6381 284.794L91.4955 285.338L92.2407 286.035L93.0581 286.635L93.9475 287.123L94.8049 287.66L95.6302 288.244L96.3915 288.924L97.321 289.365L98.0422 290.101L98.9076 290.629L99.789 291.15L100.63 291.718L101.48 292.278L102.361 292.791L103.259 293.287L104.076 293.879L104.877 294.512L105.727 295.064L106.672 295.568L107.041 294.584L107.57 293.719L108.139 292.871L108.691 292.006L109.204 291.126L109.605 290.173L110.03 289.237L110.647 288.412L111.047 287.468L111.616 286.611L112.049 285.683L112.514 284.77L113.051 283.897L113.523 282.993L114.084 282.128L114.565 281.224L115.102 280.351L115.599 279.455L116.055 278.542L116.608 277.678L116.945 276.693L117.586 275.869L118.035 274.948L118.532 274.06L119.068 273.187L119.429 272.211L120.03 271.378L120.431 270.426L120.975 269.553L121.392 268.608L122.001 267.776L122.522 266.887L122.923 265.935L123.516 265.086L124.061 264.206L124.405 263.221" stroke="#181C56" stroke-width="1.5" stroke-miterlimit="10" stroke-linecap="round"/>
<path d="M120.134 183.27L120.19 184.287L120.343 185.296L120.487 186.304L120.583 187.321L120.695 188.337L120.655 189.37L120.952 190.363L120.976 191.387L121.16 192.388L121.248 193.404L121.312 194.429L121.392 195.446L121.513 196.462L121.793 197.455L121.753 198.487L121.953 199.496L122.081 200.505L122.113 201.529L122.306 202.53L122.378 203.546L122.562 204.555L122.69 205.564L122.706 206.588L122.915 207.597L122.875 208.629L123.059 209.638L123.091 210.671L123.251 211.679L123.315 212.704L123.54 213.712L123.508 214.753L123.78 215.754L123.828 216.778L124.013 217.787L124.165 218.803L124.269 219.82L124.309 220.845L124.541 221.845L124.429 222.886L124.541 223.902L124.726 224.911L124.766 225.928L124.99 226.928L125.199 227.953L125.11 229.009L125.351 230.034L125.295 231.075L125.367 232.115L125.351 233.156L125.583 234.188L125.551 235.229L125.471 236.27L125.631 237.31L125.647 238.351L125.455 239.391L125.431 240.424L125.343 241.465L125.447 242.489L125.287 243.498L125.279 244.522L125.215 245.539L125.134 246.556L125.174 247.572L125.271 248.597L125.247 249.621L125.191 250.638L125.134 251.655L125.014 252.671L124.966 253.688L124.806 254.696L124.766 255.713L124.902 256.738L124.75 257.754L124.726 258.771L124.822 259.795L124.678 260.812L124.766 261.837L124.606 262.845L124.67 263.87L124.525 264.886L124.59 265.919L124.389 266.936L124.501 267.96L124.349 268.985L124.253 270.009L124.421 271.042L124.309 272.067L124.157 273.083L124.285 274.116L124.221 275.132L124.173 276.149V277.174L124.037 278.19L124.085 279.215L123.908 280.231L124.021 281.256L123.908 282.281L123.788 283.297L123.804 284.322L123.884 285.346L123.716 286.363L123.756 287.38L123.652 288.404L123.82 289.429L123.58 290.453L123.716 291.478L123.604 292.495L123.532 293.511L123.54 294.528L123.724 295.44L124.75 295.48L125.775 295.569L126.801 295.456L127.835 295.36L128.86 295.248L129.894 295.224L130.928 295.296L131.962 295.384L132.987 295.136L134.013 295.128L135.055 295.264L136.08 295.112L137.114 295.024L138.156 295.096L139.173 294.952H140.207L141.241 294.896L142.266 294.768L143.292 294.68L144.358 294.584L144.454 293.535L144.398 292.495L144.71 291.494L144.718 290.462L144.855 289.445L144.911 288.412V287.38L145.215 286.379L145.159 285.338L145.215 284.314L145.447 283.305L145.576 282.281V281.248L145.624 280.223L145.736 279.199L145.96 278.19L145.904 277.15L146.201 276.141L146.265 275.116L146.305 274.092L146.417 273.067L146.513 272.051L146.561 271.018L146.593 269.993L146.746 268.969L146.962 267.96L147.082 266.936L147.17 265.903L147.122 264.854L147.266 263.838L147.459 262.821L147.627 261.797L147.755 260.78V259.739L147.779 258.707L148.02 257.698L148.028 256.666L148.22 255.649L148.26 254.616L148.34 253.584L148.492 252.567L148.581 251.535L148.765 250.526L148.869 249.493L149.029 248.477L149.149 247.46L149.23 246.428L149.422 245.419L149.366 244.378" stroke="#181C56" stroke-width="1.5" stroke-miterlimit="10" stroke-linecap="round"/>
<path d="M105.375 295.528L105.431 296.497L105.583 297.449L105.831 298.378L106.104 299.307L106.464 300.211L106.953 301.044L107.466 301.868L108.107 302.588L108.796 303.277L109.581 303.813L110.607 303.781L111.625 303.869L112.626 304.053L113.612 304.317L114.501 304.822L115.263 305.494L115.848 306.319L116.288 307.231L116.521 308.224L116.569 309.224H115.607L114.638 309.2L113.668 309.256L112.698 309.24L111.729 309.232H110.759L109.79 309.256L108.812 309.232H107.843H106.873L105.895 309.256H104.918L104.084 308.72L103.259 308.184L102.41 307.695L101.584 307.159L100.751 306.639L99.9096 306.135L99.0763 305.614L98.2429 305.094L97.4096 304.574L96.5522 304.101L95.7188 303.597L94.8694 303.085L94.0601 302.532L93.2027 302.052L92.3694 301.532L91.544 300.988L90.7107 300.451L89.8533 299.979L89.0199 299.459L88.1785 298.938L87.3452 298.402L86.4878 297.906L86.8564 296.993L87.1769 296.081L87.5696 295.184L88.0263 294.328L88.435 293.447L88.9638 292.623L89.4206 291.766L89.9895 290.974L90.5744 290.197L91.1754 289.429L91.8165 288.7L92.5456 288.052L93.3069 287.444" stroke="#181C56" stroke-width="1.5" stroke-linecap="round" stroke-linejoin="round"/>
<path d="M129.493 295.528L129.469 296.505L129.445 297.482L129.421 298.458L129.469 299.435L129.461 300.419L129.445 301.396V302.372L129.453 303.357L129.437 304.342L129.477 305.318L129.541 306.303L129.565 307.279L129.637 308.256L129.741 309.208L130.711 309.233H131.681L132.658 309.192L133.636 309.225L134.613 309.249L135.583 309.225L136.561 309.265L137.53 309.233L138.508 309.249L139.485 309.208L140.463 309.217L141.432 309.249L142.41 309.257L143.388 309.201L144.365 309.225L145.335 309.241L146.312 309.265L147.29 309.241L148.268 309.233H149.245L150.223 309.241L151.192 309.265L152.17 309.201L153.148 309.225L154.125 309.233H155.103L156.08 309.201L157.058 309.233L158.043 309.225H159.021L159.999 309.201H160.984L161.962 309.225L162.018 308.264L161.826 307.311L161.489 306.407L160.952 305.598L160.239 304.934L159.438 304.382L158.548 303.973L157.627 303.661L156.665 303.509L155.704 303.381L154.734 303.317L153.757 303.253L152.779 303.317L151.801 303.301L150.824 303.181L149.87 302.989L148.901 302.805L147.971 302.493L147.066 302.116L146.192 301.652L145.351 301.156L144.59 300.531L143.82 299.907L143.147 299.195L142.578 298.386L142.017 297.578L141.609 296.681L141.16 295.801L140.872 294.856" stroke="#181C56" stroke-width="1.5" stroke-miterlimit="10" stroke-linecap="round"/>
<path d="M156.882 244.706L156.97 245.715L157.042 246.74L157.082 247.756L157.13 248.773L157.146 249.797L157.17 250.814L157.162 251.839L157.307 252.855L157.266 253.872L157.379 254.888L157.347 255.913L157.427 256.93L157.483 257.946L157.459 258.971L157.579 259.987L157.571 261.004L157.667 262.013L157.691 263.029L157.763 264.046L157.803 265.062L157.819 266.079L157.891 267.104L157.908 268.12L157.964 269.145L158.02 270.161L158.052 271.178L158.092 272.195L158.06 273.219L158.188 274.236V275.26L158.26 276.277L158.292 277.302L158.308 278.318L158.332 279.343L158.38 280.367L158.5 281.384L158.468 282.409L158.549 283.425L158.597 284.45V285.474L158.685 286.491L158.701 287.508L158.781 288.532L158.829 289.549L158.821 290.573L158.909 291.598L158.877 292.623L158.949 293.647V294.672L159.021 295.696L159.037 296.721L159.133 297.746L160.063 298.098L161.049 298.274L162.018 298.522L163.012 298.666L163.997 298.794L164.983 298.914L165.977 299.042L166.978 299.034L167.98 299.171L168.982 299.163L169.983 299.082L170.985 299.042L171.978 298.882L172.964 298.69L173.966 298.602L174.927 298.314L175.913 298.122L176.882 297.826L176.914 296.801L176.81 295.777L176.834 294.752L176.882 293.727L176.802 292.703L176.786 291.678L176.874 290.654L176.866 289.637L176.89 288.612L176.818 287.588L176.874 286.563L176.858 285.539L176.874 284.506L176.89 283.481L176.85 282.457L176.786 281.432V280.407L176.794 279.383L176.802 278.358L176.85 277.334V276.309L176.914 275.292L176.922 274.268L176.842 273.251L176.906 272.227V271.202L176.842 270.177L176.906 269.153L176.85 268.128L176.922 267.104L176.882 266.079L176.938 265.062L176.898 264.038L176.995 263.013L176.93 261.989L177.003 260.964L177.043 259.939L176.955 258.915L177.003 257.89L177.083 256.866L177.011 255.841L177.043 254.808L177.067 253.784V252.759L177.139 251.727L177.115 250.702L177.211 249.669L177.163 248.637L177.219 247.612L177.291 246.58L177.283 245.547L177.259 244.522" stroke="#181C56" stroke-width="1.5" stroke-linecap="round" stroke-linejoin="round"/>
<path d="M183.053 243.61L183.221 244.626L183.405 245.635L183.509 246.668L183.71 247.676L183.79 248.709L183.926 249.725L184.046 250.75L184.199 251.767L184.247 252.791L184.415 253.808L184.487 254.832L184.655 255.849L184.751 256.874L184.944 257.89L185 258.923L185.088 259.947L185.264 260.964L185.369 261.989L185.417 263.021L185.545 264.046L185.665 265.07L185.817 266.087L185.897 267.112L185.953 268.144L186.106 269.161L186.242 270.185L186.338 271.21L186.434 272.235L186.514 273.259L186.586 274.292L186.635 275.316L186.835 276.333L186.851 277.374L187.019 278.39L187.027 279.431L187.163 280.455L187.268 281.488L187.292 282.521L187.46 283.537L187.5 284.57L187.644 285.586L187.716 286.619L187.828 287.644L187.925 288.676L187.981 289.709L188.093 290.733L188.149 291.766L188.253 292.791L188.349 293.823L188.429 294.856L188.502 295.888V296.929L188.67 297.938L189.575 298.306L190.553 298.554L191.523 298.81L192.5 299.034L193.486 299.21L194.487 299.331L195.489 299.323L196.491 299.443L197.5 299.387L198.502 299.331L199.504 299.266L200.497 299.074L201.483 298.898L202.444 298.61L203.406 298.298L204.359 297.994L205.265 297.545L206.21 297.137L206.154 296.097L206.17 295.064L206.114 294.031L206.122 292.999L206.034 291.966L206.082 290.934L205.978 289.909L205.986 288.876L205.922 287.844L205.874 286.819L205.85 285.787L205.866 284.754L205.778 283.729L205.874 282.689L205.85 281.656L205.786 280.632L205.794 279.599L205.714 278.566L205.633 277.534L205.706 276.501L205.601 275.468L205.641 274.436L205.609 273.403L205.625 272.371L205.505 271.346L205.513 270.313L205.537 269.289L205.433 268.256L205.401 267.224L205.473 266.191L205.449 265.158V264.126L205.353 263.093L205.393 262.061L205.353 261.028L205.345 259.995L205.337 258.955L205.273 257.922L205.185 256.898L205.153 255.865L205.137 254.832L205.129 253.8L205.145 252.767L205.129 251.726L205.169 250.694L205.145 249.653L205.041 248.629L205.073 247.588L205.041 246.555L204.952 245.523L204.984 244.482L204.904 243.45L204.944 242.409L204.872 241.36" stroke="#181C56" stroke-width="1.5" stroke-linecap="round" stroke-linejoin="round"/>
<path d="M213.43 194.661L214.808 194.693L216.162 194.445L217.468 194.005L218.815 193.756L220.065 193.196L221.082 192.34L221.074 191.075L221.002 189.786L220.994 188.489L220.786 187.209L220.81 185.912L220.553 184.631L220.529 183.334L220.473 182.046L220.553 180.741L220.177 179.476L220.161 178.179L220.169 176.883L220.057 175.602L219.928 174.313L219.888 173.024L219.664 171.743L219.656 170.447L219.592 169.15L219.528 167.853L219.247 166.58L219.199 165.284L219.063 163.995L218.975 162.706L218.943 161.409L218.622 160.137L218.51 158.848L218.366 157.559L218.478 156.246L218.182 154.974L218.302 153.661L218.005 152.388L218.021 151.091L217.805 149.811L217.645 148.522L217.484 147.241L217.34 145.96L217.38 144.656L217.172 143.439L217.02 142.206L216.539 141.053L216.451 139.789L216.082 138.612L215.69 137.435L215.265 136.275L214.816 135.098L214.247 133.969L213.75 132.817L213.366 131.616L212.677 130.535L212.42 129.27L211.931 128.102L211.098 127.109L210.185 126.221L209.255 125.364L208.301 124.508L207.14 123.907L205.809 123.875L204.591 123.403L203.285 123.275L202.035 122.915L200.769 122.643L199.543 122.162L198.229 122.074L196.987 121.658L195.713 121.386L194.439 121.146L193.197 120.721L191.907 120.521L190.649 120.193L189.367 119.977L188.109 119.657L186.811 119.513L185.496 119.417L184.246 119.008L182.964 118.784L181.682 118.536L180.408 118.264L179.126 118.04L177.828 117.848L176.522 117.824L175.24 117.624L173.958 117.464L172.716 117.119L171.49 116.735L170.224 116.503L168.949 116.343L167.675 116.159L166.433 115.831L165.143 115.71L163.893 115.398L162.659 115.03L161.361 114.966L160.119 114.598L158.845 114.39L157.595 114.078L156.321 113.893L155.031 113.781L153.789 113.461L152.507 113.301L151.265 112.957L149.991 112.781L148.701 112.845L147.338 112.917L146 113.141L144.662 113.365L143.324 113.549L141.962 113.637L140.599 113.677L139.293 114.126L137.931 114.254L136.601 114.518L135.279 114.814L133.965 115.166L132.706 115.646L131.464 116.015L130.214 116.367L128.988 116.815L127.674 116.903L126.456 117.399L125.19 117.68L123.924 117.96L122.618 118.056L121.392 118.544H120.078L118.804 118.808L117.57 119.177L116.32 119.409L115.086 119.705L113.876 120.113L112.578 120.121L111.32 120.289L110.078 120.553L108.836 120.866L107.562 120.97L106.295 121.114L105.013 121.042L103.755 121.266L102.473 121.282L101.263 121.522L100.334 122.458L99.7408 123.699L99.228 124.964L99.0677 126.325L98.6911 127.646L98.6831 129.014L98.8033 130.375L98.9315 131.736L99.1238 133.073L99.3402 134.345L100.158 135.346L100.927 136.339L101.976 137.035L103.026 137.723L104.1 138.396L105.254 139.004L106.424 139.581L107.65 140.053L108.828 140.621L110.134 140.789L111.408 141.077L112.714 140.949L114.012 141.173L115.318 140.981L116.584 141.013L117.858 141.157L119.132 141.149L120.406 141.101L121.681 140.917L122.963 141.061L124.237 141.005L125.511 141.029L126.793 140.893L128.067 141.085L129.341 141.053L130.615 141.117L131.889 141.077L133.163 141.101L134.421 141.093L135.727 141.045L137.034 141.117L138.332 141.222L139.598 141.566L140.92 141.582L142.21 141.838L143.468 142.19L144.798 142.606L144.846 143.959L144.918 145.248V146.545L145.087 147.833L144.99 149.138L145.071 150.435L145.263 151.724L145.375 153.012L145.463 154.309L145.423 155.614L145.591 156.903L145.519 158.208L145.632 159.504L145.664 160.801L145.792 162.09L145.8 163.395L145.768 164.691L145.952 165.988L146.12 167.277L146.056 168.582V169.878L146.273 171.159L146.377 172.456L146.529 173.745L146.321 175.049L146.569 176.338L146.505 177.643L146.537 178.94L146.665 180.228L146.817 181.517L146.777 182.822L147.034 184.103L147.146 185.4L147.082 186.712L147.058 188.009L147.162 189.314L147.25 190.611L147.274 191.907L147.37 193.204L147.442 194.509L147.466 195.806L147.691 197.094L147.675 198.399L147.683 199.704L147.851 201.001V202.297V203.594L147.915 204.899L148.156 206.18L148.236 207.477L148.172 208.781L148.324 210.086L148.476 211.383L148.436 212.688L148.484 213.992L148.412 215.297L148.38 216.602L148.356 217.899L148.324 219.203L148.332 220.5L148.14 221.797L148.124 223.094L148.276 224.406L148.027 225.695L147.955 226.992L148.043 228.305L147.851 229.602L147.675 230.898L147.571 232.195L147.499 233.5L147.418 234.805L147.322 236.101L147.306 237.406L147.37 238.727L147.242 240.024L147.162 241.328L146.954 242.625L146.841 243.986L148.204 243.89L149.494 244.218L150.808 244.058L152.106 244.29L153.42 244.138L154.726 244.314L156.024 244.434L157.339 244.498L158.645 244.378L159.951 244.426L161.257 244.434L162.571 244.394L163.877 244.418L165.183 244.41H166.489H167.804L169.11 244.386L170.416 244.29L171.722 244.21L173.028 244.202L174.334 244.002L175.648 244.106L176.954 244.09L178.253 243.866L179.551 243.762L180.857 243.706L182.163 243.674L183.469 243.706L184.775 243.554L186.065 243.29L187.371 243.202L188.678 243.162L189.984 243.049L191.274 242.825L192.588 242.801L193.878 242.617L195.184 242.497L196.482 242.361L197.772 242.145L199.078 242.049L200.369 241.793L201.659 241.585L202.981 241.537L204.271 241.368L205.577 241.2L206.875 241.016L208.149 240.712L209.439 240.464L210.713 240.128L212.02 239.96L213.334 239.816L214.608 239.487L215.978 239.287L215.786 237.926L215.826 236.582L216.066 235.245L215.914 233.94L215.994 232.635L215.81 231.339L215.994 230.026L215.762 228.729L215.906 227.416L215.593 226.119L215.649 224.815L215.609 223.51L215.641 222.205L215.281 220.916L215.465 219.596L215.201 218.307L215.273 216.994L214.968 215.713L215.097 214.393L215.008 213.088L214.736 211.807L214.56 210.51L214.48 209.206L214.335 207.909L214.375 206.596L214.311 205.291L214.223 203.986L213.967 202.706L213.999 201.393L213.855 200.104L213.622 198.815L213.606 197.503L213.254 196.23L213.213 194.925L213.133 193.62L213.037 192.324L212.925 191.019L212.877 189.714L212.693 188.417L212.42 187.129L212.508 185.808L212.276 184.511L211.963 183.23L212.084 181.901L211.691 180.629L211.571 179.324L211.515 178.019L211.467 176.706L211.17 175.418L211.162 174.105L211.058 172.8L210.85 171.503V170.191L210.673 168.894L210.337 167.613L210.201 166.316L210.056 165.012L209.896 163.715L209.912 162.402L209.72 161.105L209.648 159.8L209.431 158.512L209.375 157.199L209.055 155.926L209.007 154.613L208.814 153.325L208.678 152.02L208.486 150.731L208.261 149.442L208.366 148.114L207.965 146.841L208.005 145.52L207.805 144.231L207.492 142.959L207.356 141.654L207.276 140.357L207.132 139.052L206.947 137.763L206.939 136.451L206.675 135.17L206.547 133.881" stroke="#181C56" stroke-width="1.5" stroke-linecap="round" stroke-linejoin="round"/>
<path d="M181.073 71.9567C184.627 71.9567 187.508 69.0789 187.508 65.5289C187.508 61.979 184.627 59.1011 181.073 59.1011C177.519 59.1011 174.639 61.979 174.639 65.5289C174.639 69.0789 177.519 71.9567 181.073 71.9567Z" fill="#181C56" stroke="#181C56" stroke-width="1.5" stroke-miterlimit="10" stroke-linecap="round"/>
<path d="M146.161 178.107L144.983 178.219L143.805 178.299L142.643 178.468L141.457 178.532L140.295 178.732L139.141 179.004L137.963 179.156L136.801 179.348L135.631 179.548L134.486 179.852L133.316 180.028L132.162 180.309L131.024 180.621L129.878 180.909L128.708 181.101L127.594 181.485L126.44 181.725L125.319 181.99L124.173 182.11L123.035 182.262L121.897 182.43L120.743 182.39L119.597 182.438L118.443 182.486L117.29 182.454L116.144 182.358L115.006 182.206L113.86 182.078L112.73 181.878L111.592 181.701L110.462 181.501L109.349 181.221L108.203 181.045L107.105 180.693L106.007 180.365L104.917 179.988L103.804 179.692L102.722 179.3L101.672 178.836L100.574 178.476L99.5006 178.051L98.4509 177.571L97.4172 177.083L96.4156 176.522L95.4059 175.978L94.4043 175.442L94.7889 174.369L95.1175 173.28L95.3739 172.168L95.6463 171.063L95.9348 169.967L96.3034 168.886L96.4877 167.765L96.8242 166.677L97.0326 165.548L97.3531 164.459L97.6015 163.347L97.7457 162.21L98.0022 161.097L98.2746 159.993L98.4268 158.864L98.6672 157.743L98.8355 156.623L99.0118 155.494L99.1961 154.365L99.4124 153.245L99.4846 152.1L99.6448 150.971L99.7971 149.843L99.9493 148.714L100.013 147.577L100.166 146.441L100.238 145.304L100.342 144.167L100.406 143.031L100.502 141.894V140.749L100.622 139.605L100.614 138.46L100.582 137.315L100.646 136.171" stroke="#181C56" stroke-width="1.5" stroke-linecap="round" stroke-linejoin="round"/>
<path d="M129.855 72.7253C129.855 72.7253 130.384 70.2999 129.59 68.4027" stroke="#181C56" stroke-width="1.5" stroke-miterlimit="10" stroke-linecap="round"/>
<path d="M98.5713 132.032L94.7891 129.455C94.0519 128.95 93.6513 128.062 93.8035 127.181C93.9878 126.117 94.2683 125.036 94.5167 124.18C94.8051 123.203 95.6786 122.523 96.6962 122.499L100.158 122.427" stroke="#181C56" stroke-width="1.5" stroke-linecap="round" stroke-linejoin="round"/>
<path d="M208.062 114.67C208.062 114.67 212.949 115.31 214.68 117.704C214.68 117.704 216.291 121.45 215.658 124.236C215.658 124.236 213.631 128.686 212.909 129.127" stroke="#181C56" stroke-width="1.5" stroke-linecap="round" stroke-linejoin="round"/>
<path d="M121.48 192.932C121.087 193.228 121.087 193.228 120.703 193.516C120.318 193.804 120.294 193.78 119.901 194.077C119.509 194.373 119.525 194.381 119.132 194.677C118.74 194.973 118.74 194.965 118.355 195.261C117.97 195.557 117.978 195.573 117.594 195.87C117.209 196.166 117.209 196.166 116.816 196.462C116.424 196.758 116.408 196.726 116.015 197.022C115.622 197.318 115.631 197.318 115.238 197.615C114.845 197.911 114.845 197.903 114.453 198.199C114.06 198.495 114.052 198.487 113.667 198.783C113.283 199.08 113.299 199.112 112.906 199.408C112.513 199.704 112.513 199.704 112.129 199.992C111.744 200.28 111.728 200.272 111.336 200.568C110.943 200.865 110.951 200.873 110.558 201.169C110.166 201.465 110.15 201.449 109.757 201.745C109.364 202.041 109.428 202.562 108.988 202.345C108.547 202.129 108.932 201.849 108.9 201.345C108.868 200.841 108.884 200.841 108.851 200.336C108.819 199.832 108.819 199.832 108.787 199.328C108.755 198.823 108.731 198.823 108.691 198.319C108.651 197.815 108.651 197.815 108.619 197.311C108.587 196.806 108.587 196.806 108.547 196.302C108.507 195.798 108.523 195.798 108.483 195.293C108.443 194.789 108.435 194.789 108.395 194.285C108.355 193.78 108.347 193.78 108.307 193.276C108.267 192.772 108.315 192.772 108.283 192.268C108.25 191.763 108.21 191.763 108.17 191.259C108.13 190.755 108.154 190.755 108.122 190.25C108.09 189.746 108.066 189.746 108.034 189.242C108.002 188.737 108.034 188.737 107.986 188.225C107.938 187.713 107.922 187.721 107.89 187.217C107.858 186.712 107.85 186.712 107.818 186.208C107.786 185.704 107.818 185.704 107.778 185.191C107.738 184.679 107.738 184.687 107.698 184.183C107.658 183.678 107.642 183.678 107.609 183.174C107.577 182.67 107.593 182.662 107.553 182.158C107.513 181.653 107.329 181.637 107.473 181.149C107.617 180.661 107.818 181.213 108.411 181.333C108.683 181.381 109.004 181.437 109.364 181.501C109.661 181.557 109.981 181.605 110.326 181.661C110.63 181.717 110.951 181.789 111.279 181.845C111.592 181.901 111.912 181.933 112.241 181.989C112.57 182.046 112.874 182.118 113.195 182.166C113.515 182.214 113.836 182.254 114.164 182.302C114.493 182.35 114.813 182.382 115.134 182.422C115.454 182.462 115.791 182.502 116.103 182.542C116.44 182.582 116.76 182.654 117.073 182.686C117.409 182.718 117.738 182.726 118.042 182.75C118.395 182.774 118.724 182.798 119.012 182.798C119.397 182.798 119.717 182.75 119.974 182.718" fill="#181C56"/>
<path d="M139.277 142.214C139.774 142.166 139.637 142.206 140.27 142.166C140.551 142.15 140.879 142.134 141.264 142.126C141.569 142.118 141.897 142.078 142.258 142.07C142.57 142.07 142.899 142.07 143.251 142.086C143.564 142.086 143.9 142.134 144.237 142.15C144.557 142.166 144.886 142.15 145.231 142.166C145.551 142.19 145.88 142.214 146.224 142.238C146.569 142.262 146.873 142.318 147.21 142.35C147.546 142.382 147.867 142.406 148.195 142.454C148.524 142.502 148.844 142.55 149.181 142.606C149.518 142.662 149.822 142.75 150.151 142.814C150.479 142.878 150.8 142.934 151.128 143.006C151.457 143.078 151.769 143.159 152.098 143.239C152.426 143.319 152.747 143.391 153.067 143.479C153.388 143.567 153.7 143.663 154.021 143.775C154.341 143.887 154.638 144.023 154.95 144.135C155.263 144.247 155.567 144.367 155.88 144.503C156.192 144.639 156.489 144.775 156.785 144.92C157.082 145.064 157.378 145.224 157.667 145.376C157.955 145.528 158.268 145.664 158.548 145.84" stroke="#181C56" stroke-width="1.5" stroke-miterlimit="10" stroke-linecap="round"/>
<path d="M148.357 142.086C147.916 142.022 147.9 142.094 147.459 142.102C147.018 142.11 147.01 142.15 146.57 142.15C146.129 142.15 146.121 142.174 145.672 142.174C145.223 142.174 145.223 142.158 144.775 142.174C144.775 142.174 144.791 142.118 144.783 142.118C144.542 142.062 144.262 142.094 144.102 142.07C143.765 142.022 143.437 141.926 143.1 141.886C142.763 141.846 142.419 141.854 142.082 141.814C141.746 141.774 141.409 141.694 141.073 141.662C140.736 141.63 140.4 141.566 140.063 141.542C139.726 141.518 139.374 141.598 139.037 141.574C138.701 141.55 138.356 141.462 138.02 141.446C137.683 141.43 137.339 141.35 137.002 141.334C136.665 141.318 136.313 141.398 135.976 141.382C135.64 141.366 135.295 141.334 134.959 141.318C134.622 141.302 134.278 141.318 133.941 141.318C133.605 141.318 133.26 141.294 132.923 141.294C132.587 141.294 132.242 141.294 131.906 141.294C131.569 141.294 131.225 141.278 130.88 141.286C130.536 141.294 130.199 141.334 129.862 141.334C129.526 141.334 129.181 141.302 128.837 141.31C128.492 141.318 128.156 141.35 127.819 141.358C127.483 141.366 127.138 141.374 126.801 141.382C126.465 141.39 126.12 141.406 125.784 141.406C125.447 141.406 125.103 141.35 124.766 141.358C124.43 141.366 124.085 141.342 123.748 141.35C123.412 141.358 123.067 141.438 122.731 141.438C122.394 141.438 122.05 141.35 121.713 141.35C121.377 141.35 121.032 141.374 120.695 141.374C120.359 141.374 120.014 141.47 119.678 141.462C119.341 141.454 119.005 141.358 118.66 141.358C118.316 141.358 117.979 141.406 117.643 141.398C117.306 141.39 116.969 141.358 116.625 141.35C116.28 141.342 115.952 141.286 115.607 141.27C115.263 141.254 114.934 141.238 114.59 141.222C114.245 141.206 113.916 141.166 113.58 141.134C113.243 141.102 112.907 141.102 112.562 141.078C112.218 141.053 111.881 141.062 111.537 141.029C111.04 140.861 111.072 140.765 110.591 140.557C110.11 140.349 110.118 140.333 109.629 140.125C109.141 139.917 109.125 139.957 108.644 139.749C108.163 139.541 108.139 139.597 107.65 139.389C107.161 139.18 107.178 139.156 106.689 138.948C106.2 138.74 106.2 138.748 105.711 138.54C105.222 138.332 105.214 138.356 104.734 138.148C104.253 137.94 104.269 137.884 103.788 137.676C103.307 137.467 103.283 137.507 102.794 137.299C102.306 137.091 102.354 136.979 101.841 136.827C102.049 137.019 102.314 137.243 102.61 137.491C102.85 137.684 103.131 137.884 103.411 138.1C103.668 138.292 103.916 138.524 104.197 138.732C104.453 138.924 104.766 139.076 105.046 139.284C105.31 139.477 105.527 139.757 105.807 139.957C106.088 140.157 106.408 140.269 106.689 140.469C106.969 140.669 107.218 140.885 107.49 141.078C107.762 141.27 108.067 141.43 108.339 141.622C108.612 141.814 108.892 142.014 109.165 142.206C109.437 142.398 109.702 142.622 109.982 142.807C110.263 142.991 110.543 143.199 110.815 143.383C111.088 143.567 111.416 143.711 111.697 143.895C111.985 144.087 112.25 144.303 112.522 144.48C112.819 144.672 113.123 144.824 113.396 144.992C113.708 145.184 113.981 145.384 114.245 145.544C114.574 145.744 114.87 145.896 115.118 146.032C115.415 146.193 115.719 146.345 116.008 146.505C116.296 146.665 116.553 146.921 116.833 147.081C117.114 147.241 117.418 147.409 117.707 147.577C117.995 147.745 118.34 147.825 118.62 147.994C118.901 148.162 119.189 148.354 119.47 148.522C119.75 148.69 120.038 148.882 120.319 149.058C120.599 149.234 120.92 149.362 121.2 149.538C121.481 149.715 121.729 149.955 122.01 150.131C122.29 150.307 122.563 150.515 122.835 150.691C123.107 150.867 123.388 151.075 123.66 151.252C123.933 151.428 124.269 151.556 124.542 151.74C124.814 151.924 125.087 152.132 125.359 152.316C125.632 152.5 125.896 152.724 126.16 152.916C126.425 153.109 126.737 153.269 127.002 153.461C127.266 153.653 127.539 153.869 127.803 154.061C128.068 154.253 128.276 154.549 128.54 154.75C128.805 154.95 129.093 155.134 129.35 155.334C129.606 155.534 129.87 155.75 130.135 155.95C130.399 156.15 130.656 156.367 130.92 156.567C131.185 156.767 131.465 156.943 131.729 157.143C131.994 157.343 132.25 157.551 132.515 157.759C132.779 157.967 133.052 158.152 133.316 158.352C133.58 158.552 133.861 158.728 134.133 158.928C134.406 159.128 134.662 159.32 134.943 159.512C135.223 159.704 135.431 159.969 135.704 160.161C135.976 160.353 136.289 160.473 136.569 160.665C136.85 160.857 137.122 161.025 137.403 161.217C137.683 161.409 137.94 161.602 138.22 161.786C138.5 161.97 138.757 162.17 139.045 162.354C139.334 162.538 139.638 162.65 139.927 162.834C140.215 163.018 140.464 163.219 140.752 163.395C141.041 163.571 141.329 163.707 141.626 163.883C141.922 164.059 142.194 164.219 142.483 164.395C142.771 164.571 143.068 164.707 143.364 164.876C143.661 165.044 143.901 165.268 144.198 165.436C144.494 165.604 144.775 165.756 145.071 165.924C145.368 166.092 145.656 166.204 145.953 166.372C145.937 166.044 145.929 165.732 145.913 165.412C145.897 165.092 145.816 164.763 145.808 164.443C145.8 164.123 145.88 163.787 145.864 163.467C145.848 163.147 145.768 162.818 145.752 162.498C145.736 162.178 145.736 161.85 145.728 161.522C145.72 161.193 145.8 160.873 145.792 160.545C145.784 160.217 145.696 159.897 145.688 159.568C145.68 159.24 145.648 158.92 145.64 158.592C145.632 158.264 145.704 157.943 145.704 157.615C145.704 157.287 145.624 156.967 145.624 156.639C145.624 156.31 145.6 155.99 145.592 155.662C145.584 155.334 145.632 155.014 145.624 154.686C145.616 154.357 145.592 154.037 145.584 153.709C145.576 153.381 145.632 153.061 145.624 152.732C145.616 152.404 145.608 152.108 145.592 151.78C145.921 151.548 146.193 151.252 146.433 150.915C146.674 150.579 146.826 150.195 147.026 149.851C147.179 149.579 147.291 149.282 147.459 149.018C147.627 148.754 147.876 148.538 148.052 148.282C148.228 148.026 148.357 147.737 148.549 147.489C148.741 147.241 148.933 146.993 149.142 146.761C149.35 146.529 149.607 146.345 149.839 146.128C150.071 145.92 150.232 145.616 150.48 145.416C150.728 145.216 151.009 145.048 151.273 144.872C151.538 144.696 151.818 144.536 152.107 144.391C152.395 144.247 152.708 144.175 153.012 144.087C153.317 143.999 153.589 143.935 153.91 143.919C153.469 143.703 153.461 143.743 152.996 143.599C152.531 143.455 152.539 143.431 152.067 143.287C151.594 143.143 151.602 143.143 151.137 142.999C150.672 142.855 150.68 142.823 150.216 142.678C149.751 142.534 149.735 142.582 149.278 142.398C148.821 142.214 148.821 142.166 148.332 142.094L148.357 142.086Z" fill="#181C56"/>
<path d="M199.744 109.155C200.001 109.595 199.944 109.475 200.209 110.059C200.329 110.323 200.465 110.636 200.61 110.996C200.73 111.284 200.85 111.604 200.97 111.956C201.074 112.261 201.17 112.589 201.283 112.933C201.379 113.245 201.475 113.573 201.563 113.918C201.643 114.238 201.715 114.574 201.779 114.918C201.844 115.262 201.916 115.575 201.972 115.919C202.028 116.263 202.076 116.583 202.116 116.927C202.156 117.272 202.188 117.6 202.212 117.944C202.236 118.288 202.228 118.624 202.228 118.969C202.228 119.313 202.228 119.649 202.212 119.993C202.196 120.337 202.156 120.674 202.116 121.018C202.076 121.362 201.988 121.682 201.924 122.026" stroke="#181C56" stroke-width="1.5" stroke-linecap="round" stroke-linejoin="round"/>
<path d="M206.387 116.215C206.387 115.662 206.042 115.206 205.625 115.206C205.209 115.206 204.864 115.654 204.864 116.215C204.864 116.775 205.209 117.223 205.625 117.223C206.042 117.223 206.387 116.767 206.387 116.215Z" fill="#181C56"/>
<path d="M147.21 183.622C147.675 183.43 147.546 183.55 148.164 183.326C148.428 183.23 148.716 183.046 149.077 182.926C149.365 182.83 149.678 182.726 150.031 182.614C150.327 182.518 150.688 182.55 151.024 182.454C151.329 182.366 151.625 182.206 151.962 182.11C152.266 182.022 152.595 181.941 152.931 181.853C153.244 181.765 153.572 181.709 153.901 181.621C154.213 181.541 154.534 181.437 154.862 181.357C155.175 181.277 155.511 181.229 155.84 181.149C156.169 181.069 156.473 180.949 156.802 180.869C157.13 180.789 157.451 180.757 157.787 180.685C158.124 180.613 158.436 180.549 158.765 180.485C159.093 180.421 159.39 180.261 159.726 180.196C160.063 180.132 160.391 180.164 160.728 180.1C161.065 180.036 161.377 179.956 161.706 179.892C162.034 179.828 162.347 179.732 162.683 179.676C163.02 179.62 163.332 179.524 163.661 179.468C163.989 179.412 164.318 179.364 164.646 179.308C164.975 179.252 165.303 179.228 165.64 179.18C165.976 179.132 166.305 179.148 166.642 179.1C166.978 179.052 167.307 179.06 167.643 179.012C167.98 178.964 168.3 178.916 168.637 178.876C168.973 178.836 169.278 178.66 169.614 178.628C169.951 178.596 170.279 178.628 170.616 178.596C170.953 178.564 171.273 178.531 171.61 178.491C171.946 178.451 172.267 178.387 172.603 178.355C172.94 178.323 173.268 178.355 173.605 178.315C173.941 178.275 174.262 178.171 174.599 178.139C174.935 178.107 175.264 178.067 175.592 178.043C175.921 178.019 176.257 178.067 176.594 178.043C176.93 178.019 177.251 177.931 177.587 177.907C177.924 177.883 178.252 177.987 178.589 177.971C178.926 177.955 179.246 177.931 179.583 177.915C179.919 177.899 180.24 177.827 180.576 177.811C180.913 177.795 181.241 177.859 181.578 177.851C181.914 177.843 182.235 177.699 182.571 177.691C182.908 177.683 183.237 177.675 183.573 177.667C183.91 177.659 184.238 177.691 184.575 177.683C184.911 177.675 185.24 177.747 185.576 177.747C185.913 177.747 186.241 177.747 186.578 177.747C186.915 177.747 187.243 177.651 187.58 177.651C187.916 177.651 188.245 177.763 188.581 177.763C188.918 177.763 189.246 177.619 189.583 177.627C189.919 177.635 190.248 177.747 190.585 177.755C190.921 177.763 191.25 177.675 191.586 177.683C191.923 177.691 192.251 177.699 192.588 177.707C192.924 177.715 193.245 177.787 193.581 177.803C193.918 177.819 194.238 177.883 194.575 177.899C194.912 177.915 195.24 177.915 195.577 177.931C195.913 177.947 196.242 177.939 196.578 177.963C196.915 177.987 197.243 177.963 197.58 177.979C197.916 177.995 198.237 178.115 198.574 178.139C198.91 178.163 199.247 178.131 199.575 178.155C199.904 178.179 200.24 178.195 200.577 178.219C200.913 178.243 201.234 178.331 201.57 178.355C201.907 178.379 202.235 178.363 202.572 178.395C202.909 178.427 203.229 178.483 203.566 178.515C203.902 178.547 204.231 178.547 204.567 178.588C204.904 178.628 205.224 178.748 205.553 178.78C205.881 178.812 206.218 178.828 206.555 178.868C206.891 178.908 207.228 178.884 207.556 178.924C207.885 178.964 208.221 179.028 208.55 179.068C208.878 179.108 209.207 179.196 209.543 179.236C209.88 179.276 210.216 179.276 210.545 179.324C210.874 179.372 211.202 179.5 211.539 179.548" stroke="#181C56" stroke-linecap="round" stroke-linejoin="round"/>
<path d="M96.3203 169.366C96.753 169.614 96.6008 169.606 97.1617 169.902C97.4101 170.03 97.7386 170.135 98.0752 170.303C98.3476 170.439 98.6281 170.631 98.9486 170.783C99.2291 170.919 99.5175 171.087 99.838 171.231C100.127 171.367 100.439 171.479 100.76 171.615C101.056 171.743 101.361 171.872 101.681 172.008C101.978 172.136 102.29 172.256 102.611 172.384C102.931 172.512 103.244 172.568 103.564 172.688C103.885 172.808 104.157 172.992 104.478 173.104C104.798 173.216 105.119 173.288 105.439 173.392C105.76 173.497 106.072 173.593 106.393 173.697C106.713 173.801 107.026 173.905 107.346 174.001C107.667 174.097 107.979 174.217 108.3 174.305C108.62 174.393 108.941 174.481 109.269 174.569C109.598 174.657 109.91 174.753 110.239 174.825C110.567 174.897 110.888 174.969 111.217 175.033C111.545 175.097 111.874 175.161 112.202 175.226C112.531 175.29 112.859 175.37 113.188 175.426C113.516 175.482 113.845 175.538 114.181 175.578C114.518 175.618 114.846 175.682 115.175 175.714C115.504 175.746 115.816 175.746 116.129 175.77C116.441 175.794 116.77 175.802 117.082 175.802C117.395 175.802 117.723 175.818 118.044 175.81C118.364 175.802 118.677 175.706 118.997 175.69C119.318 175.674 119.638 175.706 119.959 175.674C120.279 175.642 120.592 175.578 120.904 175.53C121.217 175.482 121.537 175.426 121.85 175.378C122.162 175.33 122.475 175.258 122.819 175.202C123.124 175.153 123.468 175.161 123.805 175.105C124.118 175.057 124.43 174.929 124.767 174.873C125.087 174.817 125.424 174.849 125.752 174.801C126.081 174.753 126.385 174.617 126.714 174.561C127.042 174.505 127.363 174.489 127.691 174.433C128.02 174.377 128.332 174.321 128.661 174.265C128.989 174.209 129.318 174.209 129.647 174.153C129.975 174.097 130.296 174.049 130.624 174.001C130.953 173.953 131.273 173.849 131.594 173.793C131.914 173.737 132.243 173.649 132.563 173.593C132.884 173.537 133.22 173.497 133.541 173.44C133.861 173.384 134.198 173.344 134.518 173.296C134.855 173.24 135.192 173.232 135.504 173.184C135.841 173.128 136.169 173.064 136.482 173.016C136.826 172.96 137.155 172.96 137.467 172.912C137.82 172.856 138.148 172.792 138.437 172.752C138.813 172.696 139.142 172.632 139.406 172.6" stroke="#181C56" stroke-linecap="round" stroke-linejoin="round"/>
<path d="M153.028 78.8648C152.523 78.8407 152.652 78.8407 152.019 78.8327C151.73 78.8327 151.394 78.8327 151.017 78.8327C150.704 78.8327 150.368 78.8327 150.007 78.8327C149.687 78.8327 149.35 78.8327 148.998 78.8487C148.669 78.8567 148.333 78.8728 147.988 78.8888C147.643 78.9048 147.323 78.9289 146.978 78.9529C146.634 78.9769 146.305 79.009 145.969 79.041C145.632 79.0731 145.296 79.1051 144.959 79.1452C144.623 79.1853 144.286 79.2494 143.957 79.2975C143.629 79.3455 143.284 79.4096 142.964 79.4737" stroke="#181C56" stroke-linecap="round" stroke-linejoin="round"/>
<path d="M155.272 113.789C154.775 113.709 154.775 113.693 154.278 113.613C153.781 113.533 153.781 113.517 153.284 113.445C152.787 113.373 152.779 113.397 152.283 113.317C151.786 113.237 151.786 113.221 151.289 113.141C150.792 113.061 150.792 113.069 150.287 112.989C149.783 112.909 149.791 112.901 149.294 112.821C148.797 112.741 148.789 112.757 148.292 112.685C147.795 112.613 147.795 112.605 147.299 112.533C146.802 112.461 146.802 112.429 146.305 112.349C145.808 112.268 145.8 112.292 145.303 112.22C144.806 112.148 144.806 112.148 144.31 112.068C143.813 111.988 143.813 111.996 143.308 111.916C142.803 111.836 142.811 111.812 142.314 111.732C141.818 111.652 141.818 111.66 141.313 111.58C140.808 111.5 140.816 111.484 140.319 111.404C139.822 111.324 139.814 111.34 139.318 111.26C138.821 111.18 138.813 111.18 138.316 111.1" stroke="#181C56" stroke-linecap="round" stroke-linejoin="round"/>
<path d="M177.339 246.812C176.866 246.972 176.874 246.98 176.401 247.14C175.928 247.3 175.928 247.3 175.463 247.46C174.999 247.62 174.991 247.628 174.526 247.78C174.061 247.932 174.045 247.916 173.572 248.077C173.1 248.237 173.1 248.237 172.627 248.389C172.154 248.541 172.162 248.565 171.689 248.725C171.217 248.885 171.225 248.893 170.752 249.053C170.279 249.213 170.271 249.189 169.798 249.349C169.325 249.509 169.342 249.533 168.869 249.694C168.396 249.854 168.396 249.846 167.923 250.006C167.45 250.166 167.442 250.142 166.97 250.294C166.497 250.446 166.505 250.478 166.032 250.63C165.559 250.782 165.567 250.798 165.095 250.958C164.622 251.118 164.622 251.118 164.149 251.278C163.676 251.439 163.668 251.423 163.196 251.583C162.723 251.743 162.731 251.759 162.258 251.919C161.785 252.079 161.777 252.047 161.296 252.199C160.816 252.351 160.84 252.391 160.367 252.551C159.894 252.711 159.894 252.703 159.413 252.855C158.933 253.007 158.941 253.015 158.468 253.176C157.995 253.336 157.931 253.752 157.514 253.488C157.098 253.224 157.466 252.999 157.434 252.519C157.402 252.039 157.394 252.031 157.362 251.543C157.33 251.054 157.346 251.054 157.314 250.566C157.282 250.078 157.266 250.078 157.234 249.589C157.202 249.101 157.194 249.101 157.162 248.613C157.13 248.125 157.162 248.125 157.122 247.636C157.082 247.148 157.066 247.148 157.025 246.66C156.985 246.171 157.009 246.171 156.977 245.683C156.945 245.195 156.553 245.043 156.881 244.691C157.21 244.338 157.394 244.707 157.891 244.707C158.388 244.707 158.388 244.683 158.884 244.683C159.381 244.683 159.381 244.683 159.878 244.675C160.375 244.667 160.375 244.659 160.872 244.651C161.369 244.643 161.369 244.667 161.865 244.659C162.362 244.651 162.362 244.659 162.859 244.659C163.356 244.659 163.356 244.635 163.853 244.635C164.349 244.635 164.349 244.659 164.846 244.651C165.343 244.643 165.343 244.651 165.84 244.651C166.337 244.651 166.337 244.619 166.833 244.611C167.33 244.603 167.33 244.635 167.827 244.627C168.324 244.619 168.324 244.603 168.821 244.603C169.317 244.603 169.317 244.603 169.822 244.603C170.327 244.603 170.319 244.619 170.816 244.611C171.313 244.603 171.313 244.578 171.818 244.57C172.322 244.562 172.314 244.587 172.819 244.57C173.324 244.554 173.316 244.546 173.813 244.546C174.31 244.546 174.31 244.546 174.814 244.546C175.319 244.546 175.319 244.53 175.816 244.522C176.313 244.514 176.321 244.554 176.818 244.554" fill="#181C56"/>
<path d="M204.984 244.73C204.543 244.962 204.543 244.97 204.102 245.195C203.662 245.419 203.654 245.403 203.213 245.635C202.772 245.867 202.764 245.843 202.315 246.067C201.867 246.291 201.891 246.331 201.45 246.555C201.009 246.78 200.993 246.756 200.545 246.98C200.096 247.204 200.12 247.252 199.679 247.476C199.238 247.7 199.23 247.692 198.79 247.916C198.349 248.14 198.349 248.148 197.908 248.372C197.468 248.597 197.459 248.589 197.019 248.821C196.578 249.053 196.578 249.053 196.137 249.285C195.697 249.517 195.697 249.509 195.256 249.741C194.815 249.973 194.823 249.981 194.382 250.214C193.942 250.446 193.918 250.406 193.477 250.63C193.036 250.854 193.044 250.87 192.596 251.102C192.147 251.334 192.155 251.334 191.714 251.566C191.273 251.799 191.265 251.791 190.825 252.015C190.384 252.239 190.376 252.239 189.935 252.463C189.495 252.687 189.487 252.687 189.046 252.919C188.605 253.151 188.621 253.191 188.18 253.415C187.74 253.64 187.724 253.616 187.275 253.848C186.826 254.08 186.826 254.064 186.377 254.296C185.929 254.528 185.929 254.528 185.488 254.76C185.047 254.992 185.063 255.441 184.615 255.225C184.166 255.008 184.542 254.76 184.486 254.272C184.43 253.784 184.422 253.784 184.358 253.303C184.294 252.823 184.286 252.823 184.222 252.335C184.158 251.847 184.182 251.847 184.126 251.366C184.07 250.886 184.062 250.878 183.998 250.398C183.933 249.917 183.917 249.917 183.853 249.429C183.789 248.941 183.773 248.949 183.717 248.461C183.661 247.972 183.677 247.972 183.613 247.484C183.549 246.996 183.517 247.004 183.453 246.515C183.389 246.027 183.397 246.027 183.333 245.547C183.268 245.067 183.3 245.059 183.236 244.57C183.172 244.082 182.78 243.97 183.084 243.594C183.389 243.217 183.589 243.53 184.078 243.474C184.567 243.418 184.575 243.426 185.063 243.37C185.552 243.314 185.56 243.338 186.057 243.29C186.554 243.241 186.554 243.217 187.051 243.169C187.547 243.121 187.547 243.153 188.044 243.105C188.541 243.057 188.533 243.017 189.03 242.961C189.527 242.905 189.527 242.921 190.023 242.873C190.52 242.825 190.52 242.825 191.017 242.769C191.514 242.713 191.514 242.729 192.011 242.681C192.507 242.633 192.507 242.617 193.004 242.561C193.501 242.505 193.501 242.505 193.99 242.457C194.479 242.409 194.487 242.425 194.983 242.377C195.48 242.329 195.48 242.313 195.969 242.265C196.458 242.217 196.466 242.209 196.963 242.161C197.46 242.113 197.459 242.145 197.956 242.089C198.453 242.033 198.453 242.009 198.942 241.961C199.431 241.913 199.439 241.929 199.936 241.881C200.432 241.833 200.432 241.793 200.929 241.745C201.426 241.697 201.426 241.729 201.923 241.673C202.42 241.617 202.42 241.609 202.916 241.552C203.413 241.496 203.413 241.504 203.91 241.448C204.407 241.392 204.407 241.384 204.904 241.328" fill="#181C56"/>
<path d="M148.461 43.0918C148.461 43.0918 147.635 45.9414 143.316 45.1009C140.92 44.6367 140.448 45.4451 140.448 45.4451C140.279 46.7259 142.138 48.0947 142.667 48.4709C144.326 49.6476 145.849 51.3366 145.913 53.3618C145.929 53.786 145.808 54.3064 145.4 54.4424C144.991 54.5785 144.59 54.2263 144.302 53.9061C143.485 53.0256 142.515 52.089 141.305 52.073C139.871 52.049 138.877 53.3378 139.053 55.0028C139.053 55.0028 140.087 62.9354 145.288 60.6301" stroke="#181C56" stroke-width="1.5" stroke-linecap="round" stroke-linejoin="round"/>
<path d="M142.242 61.0623L139.542 67.9624C131.192 67.9944 128.26 67.9784 128.26 67.9784C128.428 63.6879 126.24 61.1744 124.998 57.7644C123.756 54.3544 122.33 49.3435 123.668 45.9655C124.469 43.9483 125.784 42.0672 127.811 41.2987C127.811 41.2987 128.78 41.0266 131.048 40.9465C131.112 40.6744 131.585 38.7372 133.508 37.7526C135.648 36.656 137.707 37.6806 137.899 37.7846C137.899 37.7846 141.313 34.1425 146.778 37.2643C146.778 37.2643 150.488 35.1751 152.804 39.2015C152.804 39.2015 154.55 42.4434 153.1 44.8528C152.531 45.7974 151.69 46.2777 151.161 46.5338" stroke="#181C56" stroke-width="1.5" stroke-linecap="round" stroke-linejoin="round"/>
<path d="M148.46 43.0918C148.46 43.0918 150.391 42.7557 151.329 50.4162C151.481 51.6649 152.098 52.7856 153.02 53.6421C153.396 53.9863 153.941 54.5786 154.414 55.0429C154.63 55.251 154.638 55.5952 154.43 55.8193C153.773 56.5398 152.451 58.0206 152.234 58.5249C152.234 58.5249 152.739 62.2311 152.996 65.0248C153.116 66.3135 152.186 67.4582 150.896 67.6183C150.031 67.7304 149.157 67.8584 148.773 67.9785C148.773 67.9785 144.157 68.867 145.343 72.7413" stroke="#181C56" stroke-width="1.5" stroke-miterlimit="10" stroke-linecap="round"/>
<path d="M146.393 179.764C146.073 179.884 145.768 180.012 145.464 180.132C145.159 180.253 144.847 180.405 144.542 180.533C144.238 180.661 143.933 180.805 143.629 180.949C143.324 181.093 143.004 181.197 142.707 181.341C142.411 181.485 142.122 181.677 141.834 181.829C141.545 181.982 141.225 182.118 140.936 182.278C140.648 182.438 140.343 182.59 140.055 182.75C139.766 182.91 139.478 183.094 139.189 183.262C138.901 183.43 138.628 183.631 138.348 183.807C138.067 183.983 137.787 184.175 137.507 184.351C137.226 184.527 136.922 184.687 136.641 184.863C136.361 185.039 136.096 185.255 135.816 185.44C135.535 185.624 135.239 185.776 134.966 185.968C134.694 186.16 134.414 186.344 134.133 186.528C133.853 186.712 133.588 186.912 133.308 187.097C133.027 187.281 132.747 187.457 132.466 187.641C132.186 187.825 131.905 187.993 131.625 188.177C131.345 188.361 131.08 188.561 130.8 188.738C130.519 188.914 130.207 189.05 129.918 189.218C129.63 189.386 129.365 189.586 129.069 189.754C128.772 189.922 128.476 190.058 128.179 190.218C127.883 190.379 127.618 190.571 127.322 190.731C127.026 190.891 126.729 191.027 126.425 191.179C126.12 191.331 125.824 191.467 125.519 191.611C125.215 191.755 124.902 191.859 124.59 191.995C124.277 192.132 123.981 192.26 123.668 192.388C123.356 192.516 123.051 192.652 122.731 192.772C122.723 192.5 122.682 192.164 122.626 191.795C122.586 191.499 122.57 191.171 122.514 190.827C122.466 190.523 122.354 190.21 122.298 189.874C122.242 189.562 122.218 189.234 122.154 188.906C122.089 188.577 122.041 188.265 121.985 187.945C121.929 187.625 121.841 187.305 121.785 186.985C121.729 186.664 121.657 186.336 121.601 186.024C121.537 185.688 121.505 185.368 121.456 185.055C121.4 184.711 121.304 184.391 121.264 184.095C121.216 183.727 121.184 183.398 121.168 183.126C121.16 182.934 121.2 182.734 121.304 182.574C121.44 182.374 121.673 182.302 121.905 182.254C122.234 182.19 122.554 182.094 122.867 182.03C123.179 181.966 123.524 181.902 123.836 181.837C124.149 181.773 124.501 181.765 124.822 181.701C125.142 181.637 125.471 181.573 125.791 181.509C126.112 181.445 126.441 181.389 126.761 181.325C127.082 181.261 127.41 181.173 127.731 181.117C128.051 181.061 128.388 181.029 128.708 180.973C129.029 180.917 129.357 180.821 129.678 180.765C129.998 180.709 130.335 180.677 130.655 180.621C130.976 180.565 131.304 180.493 131.633 180.437C131.962 180.381 132.282 180.317 132.611 180.261C132.939 180.205 133.26 180.14 133.58 180.084C133.901 180.028 134.229 179.98 134.558 179.924C134.886 179.868 135.207 179.804 135.527 179.748C135.848 179.692 136.176 179.628 136.497 179.572C136.817 179.516 137.146 179.46 137.467 179.396C137.787 179.332 138.108 179.276 138.436 179.22C138.765 179.164 139.085 179.124 139.414 179.06C139.742 178.996 140.047 178.9 140.375 178.836C140.704 178.772 141.016 178.708 141.345 178.652C141.673 178.596 141.994 178.564 142.322 178.508C142.651 178.451 142.963 178.355 143.284 178.291C143.604 178.227 143.933 178.195 144.262 178.123C144.59 178.051 144.911 178.011 145.239 177.947C145.568 177.883 145.864 177.827 146.193 177.755C146.401 178.035 146.465 178.355 146.465 178.724C146.465 179.092 146.417 179.436 146.369 179.764H146.393Z" fill="#181C56"/>
<path d="M72 309.008C72.6491 309.008 72.6491 309.489 73.2981 309.489C73.9472 309.489 73.9472 309.145 74.5962 309.145C75.2453 309.145 75.2453 309.305 75.8943 309.305C76.5434 309.305 76.5434 309.193 77.1925 309.193C77.8415 309.193 77.8415 309.056 78.4906 309.056C79.1396 309.056 79.1396 309.193 79.7887 309.193C80.4377 309.193 80.4377 309.553 81.0868 309.553C81.7358 309.553 81.7358 309.457 82.3849 309.457C83.034 309.457 83.034 309.113 83.683 309.113C84.3321 309.113 84.3321 309.305 84.9811 309.305C85.6302 309.305 85.6302 309.385 86.2792 309.385C86.9283 309.385 86.9283 309.409 87.5773 309.409C88.2264 309.409 88.2264 309.265 88.8755 309.265C89.5245 309.265 89.5245 309.097 90.1736 309.097C90.8226 309.097 90.8226 309.561 91.4717 309.561C92.1207 309.561 92.1207 309.121 92.7698 309.121C93.4189 309.121 93.4189 309.185 94.0679 309.185C94.717 309.185 94.717 309.545 95.366 309.545C96.0151 309.545 96.0151 309.465 96.6641 309.465C97.3132 309.465 97.3132 309.305 97.9622 309.305C98.6113 309.305 98.6113 309.385 99.2604 309.385C99.9094 309.385 99.9094 309.537 100.558 309.537C101.208 309.537 101.208 309.537 101.857 309.537C102.506 309.537 102.506 309.489 103.155 309.489C103.804 309.489 103.804 309.465 104.453 309.465C105.102 309.465 105.102 309.513 105.751 309.513C106.4 309.513 106.4 309.617 107.049 309.617C107.698 309.617 107.698 309.401 108.347 309.401C108.996 309.401 108.996 309.289 109.645 309.289C110.294 309.289 110.294 309.193 110.943 309.193C111.592 309.193 111.592 309.425 112.241 309.425C112.891 309.425 112.891 309.593 113.54 309.593C114.189 309.593 114.189 309.097 114.838 309.097C115.487 309.097 115.487 309.032 116.136 309.032C116.785 309.032 116.785 309.465 117.434 309.465C118.083 309.465 118.083 309.297 118.732 309.297C119.381 309.297 119.381 309.569 120.03 309.569C120.679 309.569 120.679 309.369 121.328 309.369C121.977 309.369 121.977 309.433 122.626 309.433C123.275 309.433 123.275 309.048 123.924 309.048C124.574 309.048 124.574 309.409 125.223 309.409C125.872 309.409 125.872 309.297 126.521 309.297C127.17 309.297 127.17 309.545 127.819 309.545C128.468 309.545 128.468 309.665 129.117 309.665C129.766 309.665 129.766 309.281 130.415 309.281C131.064 309.281 131.064 309.665 131.713 309.665C132.362 309.665 132.362 309.609 133.011 309.609C133.66 309.609 133.66 309.225 134.317 309.225C134.974 309.225 134.966 309.529 135.616 309.529C136.265 309.529 136.265 309.505 136.914 309.505C137.563 309.505 137.563 309.201 138.212 309.201C138.861 309.201 138.861 309.065 139.51 309.065C140.159 309.065 140.159 309.353 140.808 309.353C141.457 309.353 141.457 309.657 142.106 309.657C142.755 309.657 142.755 309.433 143.404 309.433C144.053 309.433 144.053 309.016 144.702 309.016C145.351 309.016 145.351 309.657 146 309.657C146.649 309.657 146.649 309.233 147.299 309.233C147.948 309.233 147.948 309.153 148.597 309.153C149.246 309.153 149.246 309.337 149.895 309.337C150.544 309.337 150.544 309.433 151.193 309.433C151.842 309.433 151.842 309.345 152.491 309.345C153.14 309.345 153.14 309.297 153.789 309.297C154.438 309.297 154.438 309.385 155.087 309.385C155.736 309.385 155.736 309.369 156.393 309.369C157.05 309.369 157.042 309.137 157.699 309.137C158.357 309.137 158.348 309.193 159.006 309.193C159.663 309.193 159.655 309.321 160.312 309.321C160.969 309.321 160.961 309.665 161.61 309.665C162.259 309.665 162.259 309.233 162.908 309.233C163.557 309.233 163.557 309.233 164.206 309.233C164.855 309.233 164.855 308.984 165.504 308.984C166.153 308.984 166.153 309.345 166.802 309.345C167.451 309.345 167.451 309.008 168.1 309.008C168.749 309.008 168.749 309.273 169.398 309.273C170.048 309.273 170.048 309.513 170.697 309.513C171.346 309.513 171.346 309.601 171.995 309.601C172.644 309.601 172.644 309.265 173.301 309.265C173.958 309.265 173.95 309.561 174.607 309.561C175.264 309.561 175.256 309.225 175.913 309.225C176.57 309.225 176.562 309.457 177.219 309.457C177.876 309.457 177.868 309.625 178.517 309.625C179.166 309.625 179.166 309.048 179.815 309.048C180.464 309.048 180.465 309.024 181.114 309.024C181.763 309.024 181.763 308.976 182.412 308.976C183.061 308.976 183.061 309.329 183.71 309.329C184.359 309.329 184.359 309.369 185.016 309.369C185.673 309.369 185.665 308.992 186.322 308.992C186.979 308.992 186.971 309.601 187.628 309.601C188.285 309.601 188.277 309.225 188.934 309.225C189.591 309.225 189.583 309.505 190.24 309.505C190.897 309.505 190.889 309.369 191.547 309.369C192.204 309.369 192.196 309.313 192.853 309.313C193.51 309.313 193.502 309.497 194.159 309.497C194.816 309.497 194.808 309.153 195.465 309.153C196.122 309.153 196.114 309.561 196.771 309.561C197.428 309.561 197.42 309.04 198.077 309.04C198.734 309.04 198.726 309.457 199.383 309.457C200.04 309.457 200.032 309.537 200.689 309.537C201.346 309.537 201.338 309.193 201.996 309.193C202.653 309.193 202.645 309.601 203.302 309.601C203.959 309.601 203.951 309.625 204.608 309.625C205.265 309.625 205.257 309.081 205.914 309.081C206.571 309.081 206.563 309.113 207.22 309.113C207.877 309.113 207.869 309.185 208.526 309.185C209.183 309.185 209.175 309.521 209.832 309.521C210.489 309.521 210.481 309.489 211.138 309.489C211.795 309.489 211.787 309.217 212.445 309.217C213.102 309.217 213.094 309.065 213.743 309.065C214.392 309.065 214.392 309.385 215.041 309.385C215.69 309.385 215.69 309.329 216.339 309.329C216.988 309.329 216.988 309.585 217.637 309.585C218.286 309.585 218.286 309.185 218.943 309.185C219.6 309.185 219.592 309.113 220.249 309.113C220.906 309.113 220.898 309.665 221.555 309.665C222.212 309.665 222.204 309.641 222.861 309.641C223.519 309.641 223.511 309.089 224.168 309.089C224.825 309.089 224.817 309.153 225.474 309.153C226.131 309.153 226.123 309.633 226.78 309.633C227.437 309.633 227.429 309.633 228.086 309.633C228.743 309.633 228.735 309.289 229.392 309.289C230.049 309.289 230.041 309.481 230.698 309.481C231.355 309.481 231.347 309.481 232.004 309.481C232.661 309.481 232.653 309.289 233.31 309.289C233.968 309.289 233.96 309.457 234.617 309.457C235.274 309.457 235.274 309.153 235.923 309.153C236.572 309.153 236.572 309.449 237.229 309.449C237.886 309.449 237.878 309.201 238.535 309.201C239.192 309.201 239.192 309.113 239.841 309.113C240.49 309.113 240.49 309.145 241.147 309.145C241.804 309.145 241.804 309.369 242.453 309.369C243.102 309.369 243.11 309.209 243.759 309.209C244.409 309.209 244.417 309.369 245.066 309.369C245.715 309.369 245.723 309.465 246.372 309.465C247.021 309.465 247.029 309.409 247.686 309.409C248.343 309.409 248.343 309.321 249 309.321" stroke="#181C56" stroke-width="1.5" stroke-miterlimit="10" stroke-linecap="round"/>
<path d="M193.999 89.3991L194.2 84.3001C192.108 70.54 180.433 72.0049 180.433 72.0049C170.152 71.7808 168.51 82.2749 168.51 82.2749C168.51 82.2749 168.245 86.1492 168.558 89.7674L181.451 100.133L187.517 101.278C187.517 101.278 193.847 93.5696 194.007 89.3911L193.999 89.3991Z" fill="#181C56"/>
<path d="M187.508 99.3329L187.66 103.231" stroke="#181C56" stroke-width="1.5" stroke-linecap="round" stroke-linejoin="round"/>
<path d="M204.319 298.002C204.319 298.002 206.611 303.533 206.026 309.408" stroke="#181C56" stroke-width="1.5" stroke-linecap="round" stroke-linejoin="round"/>
<path d="M174.278 298.45C174.278 298.45 175.4 304.726 175.007 309.408" stroke="#181C56" stroke-width="1.5" stroke-linecap="round" stroke-linejoin="round"/>
<path d="M186.658 309.064C186.626 308.704 186.634 308.368 186.658 308.04C186.674 307.679 186.706 307.343 186.778 307.023C186.85 306.671 186.954 306.343 187.075 306.047C187.211 305.718 187.379 305.414 187.547 305.142C187.74 304.838 187.932 304.558 188.148 304.317C188.389 304.045 188.637 303.805 188.885 303.605C189.182 303.365 189.47 303.165 189.727 303.013C190.256 302.701 190.2 302.821 190.632 302.572C191.113 302.292 190.993 302.268 191.466 301.844C191.722 301.62 192.011 301.372 192.291 301.1C192.571 300.827 192.812 300.531 193.028 300.267C193.333 299.891 193.541 299.555 193.541 299.315" stroke="#181C56" stroke-width="1.5" stroke-linecap="round" stroke-linejoin="round"/>
<path d="M205.698 308.248C205.698 308.384 205.698 308.528 205.617 308.648C205.537 308.76 205.441 309.144 205.305 309.192C204.968 309.32 204.624 309.384 204.279 309.424C203.935 309.464 203.582 309.488 203.221 309.488C202.861 309.488 202.516 309.505 202.164 309.497C201.811 309.488 201.459 309.472 201.106 309.497C200.77 309.513 200.433 309.513 200.096 309.529C199.76 309.545 199.423 309.529 199.087 309.545C198.75 309.561 198.414 309.577 198.077 309.577C197.741 309.577 197.404 309.585 197.067 309.593C196.731 309.601 196.394 309.617 196.058 309.617C195.721 309.617 195.385 309.593 195.048 309.585C194.712 309.577 194.351 309.593 194.007 309.585C193.662 309.577 193.317 309.529 192.965 309.505C192.612 309.48 192.268 309.456 191.923 309.432C191.579 309.408 191.226 309.416 190.881 309.392C190.577 309.368 190.28 309.312 189.984 309.288C189.687 309.264 189.383 309.272 189.078 309.256C188.774 309.24 188.478 309.208 188.173 309.184C187.869 309.16 187.572 309.136 187.268 309.112C187.075 309.096 186.867 309.072 186.755 308.912C186.667 308.776 186.659 308.608 186.683 308.448C186.731 308.152 186.787 307.856 186.843 307.559C186.899 307.263 186.955 306.967 187.035 306.679C187.115 306.391 187.195 306.095 187.316 305.822C187.436 305.55 187.588 305.286 187.756 305.038C187.981 304.702 188.269 304.422 188.558 304.141C188.846 303.861 189.135 303.581 189.447 303.333C189.744 303.093 190.056 302.877 190.345 302.636C190.633 302.396 190.905 302.124 191.194 301.884C191.482 301.644 191.787 301.42 192.083 301.18C192.324 300.979 192.572 300.779 192.805 300.555C193.037 300.331 193.253 300.099 193.43 299.835C193.606 299.571 193.726 299.274 193.782 298.962C193.766 299.034 194.119 299.138 194.704 299.226C194.976 299.266 195.305 299.29 195.673 299.323C195.97 299.347 196.298 299.403 196.651 299.411C196.963 299.411 197.292 299.411 197.628 299.395C197.941 299.395 198.269 299.371 198.606 299.347C198.927 299.323 199.255 299.307 199.584 299.266C199.912 299.226 200.233 299.186 200.561 299.13C200.89 299.074 201.202 299.018 201.531 298.946C201.859 298.874 202.156 298.754 202.476 298.666C202.797 298.578 203.109 298.498 203.422 298.386C203.734 298.274 204.039 298.162 204.343 298.034C204.648 297.906 204.848 298.082 205.008 298.474C205.105 298.714 205.185 299.018 205.249 299.371C205.297 299.659 205.353 299.963 205.393 300.291C205.425 300.595 205.457 300.907 205.481 301.22C205.505 301.532 205.537 301.844 205.561 302.148C205.585 302.476 205.585 302.789 205.617 303.085C205.649 303.429 205.673 303.773 205.698 304.117C205.722 304.462 205.754 304.806 205.762 305.15C205.77 305.494 205.794 305.838 205.794 306.183C205.794 306.527 205.77 306.871 205.762 307.215C205.754 307.559 205.73 307.904 205.714 308.248H205.698Z" fill="#181C56"/>
<path d="M160.816 299.571C160.888 299.275 160.928 298.922 161.169 298.73C161.433 298.514 161.834 298.57 162.17 298.61C162.515 298.65 162.867 298.666 163.212 298.706C163.556 298.746 163.901 298.818 164.246 298.85C164.59 298.882 164.943 298.922 165.287 298.946C165.632 298.97 165.984 298.986 166.329 299.01C166.673 299.034 167.026 299.042 167.371 299.05C167.715 299.058 168.068 299.05 168.412 299.034C168.757 299.018 169.109 299.018 169.454 298.994C169.799 298.97 170.143 298.922 170.496 298.874C170.848 298.826 171.185 298.778 171.529 298.706C171.85 298.634 172.162 298.554 172.467 298.538C172.803 298.514 173.108 298.57 173.388 298.706C173.645 298.826 173.877 299.018 174.061 299.347C174.222 299.643 174.342 299.979 174.43 300.331C174.51 300.667 174.558 301.02 174.606 301.38C174.654 301.74 174.67 302.092 174.695 302.436C174.719 302.805 174.759 303.165 174.791 303.493C174.823 303.853 174.839 304.213 174.863 304.566C174.887 304.918 174.927 305.278 174.943 305.638C174.959 305.998 174.991 306.351 175.007 306.711C175.023 307.071 175.031 307.431 175.039 307.784C175.047 308.136 175.039 308.504 175.039 308.864C175.039 308.952 175.023 309.056 174.967 309.128C174.887 309.232 174.727 309.256 174.59 309.256C174.294 309.264 173.989 309.256 173.701 309.296C173.412 309.336 173.116 309.4 172.819 309.457C172.523 309.513 172.235 309.553 171.938 309.617C171.642 309.681 171.361 309.753 171.065 309.801C170.72 309.857 170.375 309.897 170.039 309.929C169.702 309.961 169.35 309.969 169.005 309.977C168.661 309.985 168.316 309.993 167.972 309.993C167.627 309.993 167.282 310.009 166.938 309.993C166.593 309.977 166.249 309.945 165.904 309.921C165.56 309.897 165.215 309.849 164.871 309.817C164.526 309.785 164.181 309.729 163.845 309.689C163.508 309.649 163.156 309.625 162.811 309.585C162.467 309.545 162.122 309.505 161.778 309.473C161.433 309.441 161.088 309.433 160.744 309.401C160.423 309.376 160.103 309.328 159.774 309.312C159.446 309.296 159.125 309.312 158.805 309.296C158.484 309.28 158.156 309.248 157.835 309.24C157.515 309.232 157.186 309.224 156.866 309.224C156.545 309.224 156.216 309.272 155.896 309.28C155.575 309.288 155.247 309.248 154.926 309.264C154.606 309.28 154.285 309.328 153.957 309.352C153.628 309.376 153.308 309.392 152.987 309.417C152.859 309.425 152.707 309.425 152.627 309.32C152.587 309.272 152.587 309.208 152.579 309.144C152.538 308.848 152.506 308.544 152.538 308.248C152.571 307.952 152.651 307.663 152.747 307.375C152.843 307.087 152.947 306.815 153.091 306.543C153.236 306.271 153.38 306.015 153.556 305.774C153.732 305.534 153.941 305.31 154.141 305.094C154.341 304.878 154.574 304.678 154.79 304.478C155.006 304.277 155.207 304.045 155.431 303.853C155.656 303.661 155.912 303.501 156.144 303.309C156.377 303.117 156.593 302.885 156.833 302.693C157.074 302.5 157.346 302.34 157.611 302.188C157.875 302.036 158.156 301.9 158.452 301.812C158.797 301.7 159.165 301.652 159.486 301.492C159.854 301.308 160.127 301.02 160.343 300.667C160.56 300.315 160.704 299.947 160.8 299.555" fill="#181C56"/>
<path d="M139.542 67.9624L142.243 61.0624C142.243 61.0624 139.11 58.1407 139.198 55.7633C139.198 55.7633 138.46 51.5608 141.706 52.0651C141.706 52.0651 143.517 53.0337 144.302 53.8982C145.087 54.7627 146.177 54.6986 145.921 53.3538C145.664 52.0091 145.167 50.0159 142.787 48.543C140.408 47.0701 140.335 45.9895 140.504 45.3731C140.672 44.7568 143.749 44.9649 143.749 44.9649L146.265 45.045C146.265 45.045 148.381 43.9563 148.613 43.2519C148.845 42.5475 150.656 46.6379 150.656 46.6379C150.656 46.6379 154.927 44.7168 153.445 40.8265C151.962 36.9362 150.512 36.4479 148.461 36.7441C146.409 37.0402 146.722 37.2083 146.722 37.2083C146.722 37.2083 141.529 34.2466 137.972 37.7206C137.972 37.7206 132.515 35.7835 131.056 40.9385C131.056 40.9385 125.359 40.4983 123.853 45.5412C122.346 50.5762 123.644 53.4179 123.644 53.4179C123.644 53.4179 125.159 58.9171 125.688 59.7096C126.217 60.5021 128.436 64.4004 128.436 66.6897C128.436 68.979 128.412 67.9785 128.412 67.9785L139.542 67.9544V67.9624Z" fill="#181C56"/>
<path d="M150.977 113.269C150.977 113.269 172.524 119.689 178.301 120.321C196.114 122.274 205.625 123.355 205.625 123.355C196.523 121.674 187.412 119.993 178.309 118.312C169.198 116.631 160.087 114.95 150.977 113.269Z" fill="#181C56"/>
</svg>
