<?xml version="1.0" encoding="utf-8"?>
<!-- Generator: Adobe Illustrator 23.0.1, SVG Export Plug-In . SVG Version: 6.00 Build 0)  -->
<svg version="1.1" id="Layer_1" xmlns="http://www.w3.org/2000/svg" xmlns:xlink="http://www.w3.org/1999/xlink" x="0px" y="0px"
	 width="16px" height="16px" viewBox="0 0 16 16" enable-background="new 0 0 16 16" xml:space="preserve">
<path fill-rule="evenodd" clip-rule="evenodd" fill="#181E53" d="M14.1999998,5.5H13.5V4c0-0.5522847-0.4477148-1-1-1H2
	C1.4477153,3,1,3.4477153,1,4v8c0,0.5522852,0.4477153,1,1,1h10.5c0.5522852,0,1-0.4477148,1-1v-1.5h0.6999998
	C14.6418276,10.5,15,10.1418276,15,9.6999998V6.3000002C15,5.8581724,14.6418276,5.5,14.1999998,5.5z M4.75,10.5h-2v-5h2V10.5z
	 M8.2000122,10.5h-2v-5h2V10.5z M11.6500244,10.5h-2v-5h2V10.5z"/>
</svg>
