<?xml version="1.0" encoding="utf-8"?>
<!-- Generator: Adobe Illustrator 23.0.1, SVG Export Plug-In . SVG Version: 6.00 Build 0)  -->
<svg version="1.1" id="image" xmlns="http://www.w3.org/2000/svg" xmlns:xlink="http://www.w3.org/1999/xlink" x="0px" y="0px"
	 width="16px" height="16px" viewBox="0 0 16 16" enable-background="new 0 0 16 16" xml:space="preserve">
<path fill-rule="evenodd" clip-rule="evenodd" fill="#181E53" d="M14,1H2C1.4476929,1,1,1.4476929,1,2v12
	c0,0.5522461,0.4476929,1,1,1h12c0.5523071,0,1-0.4477539,1-1V2C15,1.4476929,14.5523071,1,14,1z M6,4c0.5523071,0,1,0.4476929,1,1
	c0,0.5522461-0.4476929,1-1,1S5,5.5522461,5,5C5,4.4476929,5.4476929,4,6,4z M3,12l2-4l2,2l3-4l3,6H3z"/>
</svg>
