<?xml version="1.0" encoding="utf-8"?>
<!-- Generator: Adobe Illustrator 23.0.1, SVG Export Plug-In . SVG Version: 6.00 Build 0)  -->
<svg version="1.1" id="mobile" xmlns="http://www.w3.org/2000/svg" xmlns:xlink="http://www.w3.org/1999/xlink" x="0px" y="0px"
	 width="16px" height="16px" viewBox="0 0 16 16" enable-background="new 0 0 16 16" xml:space="preserve">
<path fill-rule="evenodd" clip-rule="evenodd" fill="#181E53" d="M3.6000366,1.8v12.3999996
	C3.6000366,14.6418276,3.9582088,15,4.4000368,15h7.1999264c0.4418278,0,0.8000002-0.3581724,0.8000002-0.8000002V1.8
	c0-0.4418278-0.3581724-0.8-0.8000002-0.8H4.4000368C3.9582088,1,3.6000366,1.3581722,3.6000366,1.8z M8,14
	c-0.5523071,0-1-0.4477539-1-1c0-0.5523071,0.4476929-1,1-1s1,0.4476929,1,1C9,13.5522461,8.5523071,14,8,14z M5,11V2.3999634h6V11
	H5z"/>
</svg>
