<?xml version="1.0" encoding="utf-8"?>
<!-- Generator: Adobe Illustrator 23.0.1, SVG Export Plug-In . SVG Version: 6.00 Build 0)  -->
<svg version="1.1" id="qr" xmlns="http://www.w3.org/2000/svg" xmlns:xlink="http://www.w3.org/1999/xlink" x="0px" y="0px"
	 width="16px" height="16px" viewBox="0 0 16 16" enable-background="new 0 0 16 16" xml:space="preserve">
<g>
	<path fill-rule="evenodd" clip-rule="evenodd" fill="#181E53" d="M14.2000122,1H9.7999878C9.3581543,1,9,1.3581543,9,1.7999878
		v4.4000244C9,6.6417847,9.3581543,7,9.7999878,7h4.4000244C14.6418457,7,15,6.6417847,15,6.2000122V1.7999878
		C15,1.3581543,14.6418457,1,14.2000122,1z M13.5,5.5h-3v-3h3V5.5z"/>
	<path fill-rule="evenodd" clip-rule="evenodd" fill="#181E53" d="M6.2000122,9H1.7999878C1.3581543,9,1,9.3581543,1,9.7999878
		v4.4000244C1,14.6417847,1.3581543,15,1.7999878,15h4.4000244C6.6418457,15,7,14.6417847,7,14.2000122V9.7999878
		C7,9.3581543,6.6418457,9,6.2000122,9z M5.5,13.5h-3v-3h3V13.5z"/>
	<path fill-rule="evenodd" clip-rule="evenodd" fill="#181E53" d="M6.2000122,1H1.7999878C1.3581543,1,1,1.3581543,1,1.7999878
		v4.4000244C1,6.6417847,1.3581543,7,1.7999878,7h4.4000244C6.6418457,7,7,6.6417847,7,6.2000122V1.7999878
		C7,1.3581543,6.6418457,1,6.2000122,1z"/>
	<rect x="9" y="13.4998779" fill-rule="evenodd" clip-rule="evenodd" fill="#181E53" width="1.5" height="1.5"/>
	<rect x="13.5" y="9" fill-rule="evenodd" clip-rule="evenodd" fill="#181E53" width="1.5" height="1.5"/>
	<polygon fill-rule="evenodd" clip-rule="evenodd" fill="#181E53" points="12,11.999939 10.5,11.999939 10.5,10.499939 
		12,10.499939 12,9 9,9 9,12 10.5,12 10.5,13.4998779 13.5,13.4998779 13.5,14.9998779 15,14.9998779 15,12 13.5,12 13.5,10.5 
		12,10.5 	"/>
</g>
</svg>
