<?xml version="1.0" encoding="utf-8"?>
<!-- Generator: Adobe Illustrator 23.0.1, SVG Export Plug-In . SVG Version: 6.00 Build 0)  -->
<svg version="1.1" id="save" xmlns="http://www.w3.org/2000/svg" xmlns:xlink="http://www.w3.org/1999/xlink" x="0px" y="0px"
	 width="16px" height="16px" viewBox="0 0 16 16" enable-background="new 0 0 16 16" xml:space="preserve">
<g>
	<path fill-rule="evenodd" clip-rule="evenodd" fill="#181E53" d="M14.7374878,4.7625122l-3.5-3.5
		C11.0624876,1.0874634,10.8875122,1,10.625,1H9.75v2.625C9.75,4.1499634,9.4000244,4.5,8.875,4.5H4.5
		c-0.5250244,0-0.875-0.3500366-0.875-0.875V1h-1.75C1.3499756,1,1,1.3499756,1,1.875v12.25C1,14.6499634,1.3499756,15,1.875,15
		h12.25C14.6500244,15,15,14.6499634,15,14.125v-8.75C15,5.1124878,14.9124756,4.9375,14.7374878,4.7625122z M12.375,13.25h-8.75
		v-2.625c0-0.5250244,0.3499756-0.875,0.875-0.875h7c0.5250244,0,0.875,0.3499756,0.875,0.875V13.25z"/>
	<rect x="7.5" y="1" fill-rule="evenodd" clip-rule="evenodd" fill="#181E53" width="1.5" height="2.7999878"/>
</g>
</svg>
