<?xml version="1.0" encoding="utf-8"?>
<!-- Generator: Adobe Illustrator 22.0.1, SVG Export Plug-In . SVG Version: 6.00 Build 0)  -->
<svg version="1.1" id="Layer_1" xmlns="http://www.w3.org/2000/svg" xmlns:xlink="http://www.w3.org/1999/xlink" x="0px" y="0px"
	 viewBox="0 0 16 16" enable-background="new 0 0 16 16" xml:space="preserve">
<title>Icon/Travel/Company</title>
<desc>Created with Sketch.</desc>
<g id="Icon_x2F_Travel_x2F_Company">
	<g id="Icon-Fill">
		<path id="path-1_1_" fill="#181C56" d="M14.125,8.87499h-1.75v-5.25c0-0.525-0.35-0.875-0.875-0.875H8.875v-1.75h-1.75v1.75H4.5
			c-0.525,0-0.875,0.35-0.875,0.875v5.25h-1.75c-0.525,0-0.875,0.35-0.875,0.875v4.375c0,0.525,0.35,0.875,0.875,0.875h12.25
			c0.525,0,0.875-0.35,0.875-0.875v-4.375C15,9.22499,14.65,8.87499,14.125,8.87499L14.125,8.87499z M5.375,9.74999v-5.25h5.25v8.75
			h-1.75v-2.625h-1.75v2.625h-1.75V9.74999z"/>
	</g>
</g>
</svg>
