<?xml version="1.0" encoding="utf-8"?>
<!-- Generator: Adobe Illustrator 22.0.1, SVG Export Plug-In . SVG Version: 6.00 Build 0)  -->
<svg version="1.1" id="Layer_1" xmlns="http://www.w3.org/2000/svg" xmlns:xlink="http://www.w3.org/1999/xlink" x="0px" y="0px"
	 viewBox="0 0 16 16" enable-background="new 0 0 16 16" xml:space="preserve">
<title>Icon/Travel/Home</title>
<desc>Created with Sketch.</desc>
<g id="Icon_x2F_Travel_x2F_Home">
	<g id="Icon-Fill">
		<path id="path-1_1_" fill="#181C56" d="M10.57975,14.99999h1.74899c0.5247,0,0.87449-0.35165,0.87449-0.87912V7.96702h0.87449
			c0.26235,0,0.5247-0.08791,0.69959-0.26374c0.3498-0.35165,0.26235-0.87912-0.08745-1.23077L8.56842,1.19779
			c-0.3498-0.26374-0.78704-0.26374-1.13684,0L1.31013,6.47251c-0.3498,0.35165-0.43725,0.87912-0.08745,1.23077
			c0.08745,0.17582,0.3498,0.26374,0.61214,0.26374h0.87449v6.15385c0,0.52747,0.3498,0.87912,0.87449,0.87912H5.3328
			c0.5247,0,0.87449-0.35165,0.87449-0.87912V11.4835h3.49797v2.63736C9.70526,14.64834,10.05506,14.99999,10.57975,14.99999"/>
	</g>
</g>
</svg>
