<?xml version="1.0" encoding="utf-8"?>
<!-- Generator: Adobe Illustrator 24.0.1, SVG Export Plug-In . SVG Version: 6.00 Build 0)  -->
<svg version="1.1" id="Layer_1" xmlns="http://www.w3.org/2000/svg" xmlns:xlink="http://www.w3.org/1999/xlink" x="0px" y="0px"
	 width="16px" height="16px" viewBox="0 0 16 16" enable-background="new 0 0 16 16" xml:space="preserve">
<g>
	<path fill="#181C56" d="M14.974515,1.8615689l-0.0179443,0.055603l0.0056763-0.015564
		C14.9667635,1.8883634,14.9708529,1.8749967,14.974515,1.8615689z"/>
	<path fill="#181C56" d="M14.9930696,1.7743497c0.03125-0.2155151-0.0452271-0.418457-0.1829834-0.562439L14.799222,1.2008023
		c-0.0037231-0.0037842-0.0075073-0.0074463-0.0111084-0.0108643c-0.144043-0.1378174-0.3469849-0.2142334-0.562439-0.1829834
		l-0.0117798,0.0025024c-0.003418,0.0004883-0.0067749,0.0010376-0.0101929,0.0010376
		c-0.0215454,0.0038452-0.0432129,0.0087891-0.0652466,0.0149536c-0.0134277,0.0036621-0.0267944,0.0077515-0.0396118,0.0122681
		c-0.0053711,0.0018311-0.0106812,0.0037231-0.0160522,0.0057373L1.4452791,5.6993375L1.3464632,5.7443814
		c-0.463623,0.2558594-0.4700928,0.9522705,0.0297241,1.2021484l5.1172485,2.5590215l2.5600586,5.1182861
		c0.2665405,0.5330811,1.0410767,0.4901733,1.2471313-0.0690918L14.9565706,1.917172
		c0.0148926-0.0404663,0.0258179-0.0808716,0.0323486-0.1209106C14.99014,1.7889371,14.9912996,1.7816129,14.9930696,1.7743497z
		 M9.5672884,12.6076021L7.4882479,8.4813204L3.3914461,6.4316983l9.7765503-3.5997925L9.5672884,12.6076021z"/>
</g>
</svg>
