<?xml version="1.0" encoding="utf-8"?>
<!-- Generator: Adobe Illustrator 22.0.1, SVG Export Plug-In . SVG Version: 6.00 Build 0)  -->
<svg version="1.1" id="Layer_1" xmlns="http://www.w3.org/2000/svg" xmlns:xlink="http://www.w3.org/1999/xlink" x="0px" y="0px"
	 viewBox="0 0 16 16" enable-background="new 0 0 16 16" xml:space="preserve">
<title>Icon/Travel/Luggage</title>
<desc>Created with Sketch.</desc>
<g id="Icon_x2F_Travel_x2F_Luggage">
	<path id="Fill-37" fill="#181C56" d="M13,6.24999v-1.75c0-0.525-0.33333-0.875-0.83333-0.875H10.5v-1.75
		c0-0.525-0.33333-0.875-0.83333-0.875H6.33333c-0.5,0-0.83333,0.35-0.83333,0.875v1.75H3.83333c-0.5,0-0.83333,0.35-0.83333,0.875
		v1.75H13L13,6.24999z M7.16667,2.74999h1.66667v0.875H7.16667V2.74999z M3,7.99999h10v4.375c0,0.525-0.33333,0.875-0.83333,0.875
		h-0.83333v1.75h-2.5v-1.75H7.16667v1.75h-2.5v-1.75H3.83333c-0.5,0-0.83333-0.35-0.83333-0.875V7.99999z"/>
</g>
</svg>
