<?xml version="1.0" encoding="utf-8"?>
<!-- Generator: Adobe Illustrator 22.0.1, SVG Export Plug-In . SVG Version: 6.00 Build 0)  -->
<svg version="1.1" id="Layer_1" xmlns="http://www.w3.org/2000/svg" xmlns:xlink="http://www.w3.org/1999/xlink" x="0px" y="0px"
	 viewBox="0 0 16 16" enable-background="new 0 0 16 16" xml:space="preserve">
<title>Icon/Travel/Map</title>
<desc>Created with Sketch.</desc>
<g id="Icon_x2F_Travel_x2F_Map">
	<g id="Icon-Fill">
		<path id="path-1_1_" fill="#181C56" d="M13.775,1.07781L9.75,2.65501L6.6,1.07781c-0.175-0.08762-0.4375-0.08762-0.7,0
			L1.525,2.83026C1.175,2.91788,1,3.26837,1,3.61886v10.5147c0,0.61336,0.6125,1.05147,1.225,0.7886l4.025-1.5772l3.15,1.5772
			c0.2625,0.08762,0.4375,0.08762,0.7,0l4.375-1.66483c0.35-0.08762,0.525-0.43811,0.525-0.7886V1.86641
			C15,1.25305,14.3875,0.81494,13.775,1.07781L13.775,1.07781z M7.125,3.26837l1.75,0.87622v8.587l-1.75-0.87623V3.26837
			L7.125,3.26837z M2.75,4.23222l2.625-1.05147v8.587L2.75,12.81922V4.23222L2.75,4.23222z M13.25,11.85537l-2.625,0.96385v-8.587
			l2.625-1.05147V11.85537L13.25,11.85537z"/>
	</g>
</g>
</svg>
