<svg width="320" height="320" viewBox="0 0 320 320" fill="none" xmlns="http://www.w3.org/2000/svg">
<path d="M173.495 222.87C174.3 224.298 174.719 225.472 174.934 226.263L178.091 224.835L185.903 219.68C185.903 219.68 189.576 216.134 191.766 215.083C193.957 214.032 195.895 212.041 198.005 211.462C200.115 210.884 202.521 209.519 202.521 209.519L207.288 209.174C207.288 209.174 213.13 207.773 207.659 206.743L201.017 206.578C201.017 206.578 202.461 206.127 202.145 204.938C201.828 203.749 201.688 203.743 200.061 204.12C198.435 204.497 194.95 206.753 194.198 207.141C193.447 207.528 191.256 209.636 188.131 211.329C185.006 213.023 177.329 217.864 174.714 218.045L171.976 219.43C171.976 219.43 172.77 221.575 173.5 222.876L173.495 222.87Z" fill="#F2F2F5"/>
<path d="M174.601 226.326L174.998 226.146C174.778 225.355 174.359 224.182 173.559 222.754C172.829 221.453 172.024 219.595 171.385 218.024L171.186 217.631C171.186 217.631 163.675 219.558 162.982 219.765C162.289 219.972 163.444 223.338 163.444 223.338C163.444 223.338 159.621 219.43 155.079 219.144C150.536 218.857 148.62 222.727 148.62 222.727C148.62 222.727 143.261 237.798 142.59 239.821C141.919 241.843 140.399 247.237 140.399 247.237C140.399 247.237 142.692 249.467 145.484 250.56C148.276 251.654 154.982 254.382 157.994 254.419C161.006 254.457 161.597 254.658 161.597 254.658L163.202 250.879L164.904 245.39C164.904 245.39 166.633 239.619 166.391 234.119C166.391 234.119 174.703 228.513 175.503 228.131L174.606 226.332L174.601 226.326Z" fill="#B3B4BD"/>
<path d="M157.613 233.259C157.613 233.259 154.048 231.736 151.605 231.916C149.162 232.097 148.244 232.941 148.244 232.941C148.244 232.941 146.07 236.381 146.392 240.145C146.714 243.909 146.107 245.713 149.914 247.041C153.721 248.368 166.365 252.599 166.365 252.599C166.365 252.599 168.228 256.559 168.964 257.514C169.699 258.47 169.34 259.59 171.187 258.629C173.034 257.668 173.334 255.269 172.83 253.772C172.325 252.275 170.596 250.109 168.454 248.283C166.311 246.457 155.783 239.646 155.783 239.646L157.608 233.27L157.613 233.259Z" fill="#F2F2F5"/>
<path d="M161.688 254.929C162.08 255.481 161.548 255.503 161.344 256.341C161.253 256.713 161.129 257.148 161.006 257.647C160.904 258.045 160.555 258.428 160.437 258.9C160.335 259.314 160.329 259.776 160.211 260.238C160.104 260.657 160.093 261.119 159.975 261.57C159.868 261.995 159.798 262.441 159.685 262.887C159.572 263.333 159.229 263.688 159.116 264.134C159.003 264.58 158.944 265.016 158.832 265.456C158.719 265.897 158.552 266.311 158.44 266.752C158.327 267.192 158.423 267.675 158.305 268.116C158.187 268.556 157.887 268.933 157.768 269.374C157.65 269.815 157.779 270.308 157.661 270.744C157.543 271.179 157.21 271.556 157.087 271.991C156.963 272.426 156.947 272.888 156.823 273.324C156.7 273.759 156.657 274.221 156.534 274.651C156.41 275.081 156.093 275.468 155.97 275.898C155.846 276.328 155.696 276.764 155.572 277.188C155.449 277.613 155.53 278.128 155.395 278.547C155.261 278.988 154.901 279.354 154.767 279.768C154.627 280.214 154.568 280.671 154.429 281.079C154.278 281.531 154.246 281.998 154.101 282.401C153.94 282.858 153.688 283.251 153.538 283.638C153.355 284.111 153.076 284.482 152.909 284.833C152.721 285.236 152.507 285.661 152.34 286.117C152.185 286.542 152.179 287.03 152.04 287.492C151.9 287.954 151.621 288.336 151.503 288.798C151.385 289.26 151.385 289.727 151.288 290.184C151.191 290.635 151.175 291.107 151.089 291.569C151.003 292.031 150.982 292.498 150.907 292.955C150.832 293.411 150.756 293.879 150.692 294.335C150.627 294.792 150.525 295.259 150.466 295.715C150.407 296.188 150.445 296.66 150.397 297.112C150.343 297.595 150.246 298.051 150.203 298.497C150.155 298.991 149.924 299.442 149.892 299.872C149.849 300.398 149.795 300.865 149.774 301.263C149.72 302.133 150.236 302.091 149.827 302.659C149.441 303.19 149.376 302.829 148.555 303.004C148.19 303.084 147.734 303.057 147.234 303.137C146.837 303.2 146.407 303.317 145.93 303.37C145.516 303.418 145.087 303.636 144.625 303.668C144.201 303.694 143.755 303.731 143.293 303.742C142.864 303.753 142.418 303.715 141.956 303.705C141.527 303.694 141.097 303.392 140.646 303.36C140.195 303.328 139.75 303.572 139.299 303.519C138.848 303.466 138.456 303.2 138.01 303.126C137.564 303.052 137.146 302.993 136.705 302.898C136.265 302.802 135.696 302.855 135.261 302.739C134.907 302.144 135.411 302.149 135.519 301.284C135.567 300.897 135.734 300.445 135.793 299.925C135.841 299.506 135.809 299.033 135.862 298.545C135.911 298.11 135.879 297.642 135.932 297.165C135.981 296.724 136.083 296.273 136.131 295.8C136.179 295.354 136.313 294.903 136.362 294.436C136.41 293.969 136.507 293.533 136.55 293.066C136.593 292.599 136.593 292.148 136.636 291.686C136.679 291.224 136.652 290.762 136.695 290.306C136.738 289.849 136.738 289.382 136.775 288.926C136.813 288.469 136.818 288.002 136.85 287.545C136.883 287.089 137.189 286.638 137.221 286.186C137.253 285.735 137.301 285.257 137.328 284.806C137.355 284.355 137.065 283.856 137.087 283.41C137.108 282.932 137.382 282.481 137.398 282.04C137.414 281.552 137.425 281.09 137.425 280.655C137.425 280.15 137.382 279.683 137.366 279.269C137.339 278.722 137.285 278.25 137.215 277.889C137.146 277.528 137.054 277.082 136.968 276.557C136.904 276.153 136.662 275.728 136.593 275.24C136.534 274.821 136.614 274.353 136.555 273.876C136.501 273.446 136.464 272.994 136.415 272.527C136.372 272.092 136.217 271.651 136.174 271.19C136.136 270.749 136.136 270.298 136.104 269.836C136.072 269.374 136.007 268.944 135.986 268.482C135.964 268.02 135.873 267.585 135.857 267.128C135.841 266.672 135.852 266.226 135.846 265.769C135.841 265.313 135.986 264.867 135.997 264.41C136.007 263.954 135.884 263.503 135.9 263.051C135.916 262.6 135.97 262.149 136.002 261.698C136.034 261.246 136.308 260.816 136.346 260.365C136.383 259.914 136.109 259.431 136.168 258.98C136.228 258.528 136.33 258.083 136.399 257.637C136.469 257.191 136.77 256.782 136.861 256.336C136.947 255.89 137.07 255.455 137.178 255.019C137.285 254.584 137.221 254.09 137.35 253.66C137.479 253.23 137.699 252.816 137.854 252.392C138.01 251.967 138.139 251.526 138.321 251.118C138.504 250.709 138.74 250.311 138.95 249.913C139.159 249.514 139.32 249.074 139.562 248.697C139.803 248.32 140.099 247.879 140.378 247.529C141.044 247.471 140.748 247.938 141.457 248.41C141.768 248.617 142.219 248.75 142.654 249.015C143.003 249.228 143.336 249.536 143.755 249.775C144.12 249.982 144.523 250.183 144.936 250.406C145.312 250.608 145.699 250.842 146.112 251.043C146.499 251.234 146.96 251.314 147.379 251.505C147.776 251.686 148.174 251.882 148.593 252.063C149.011 252.243 149.376 252.471 149.806 252.636C150.236 252.8 150.59 253.082 151.014 253.23C151.438 253.379 151.857 253.517 152.292 253.655C152.727 253.793 153.178 253.798 153.618 253.915C154.058 254.032 154.504 254.032 154.944 254.133C155.385 254.234 155.803 254.356 156.249 254.441C156.695 254.526 157.097 254.791 157.543 254.855C157.989 254.919 158.434 254.982 158.88 255.025C159.325 255.067 159.782 255.019 160.233 255.041C160.684 255.062 161.237 254.961 161.688 254.961V254.929Z" fill="#FFBF9E"/>
<path d="M161.688 254.929C162.08 255.481 161.548 255.503 161.344 256.341C161.253 256.713 161.129 257.148 161.006 257.647C160.904 258.045 160.555 258.428 160.437 258.9C160.335 259.314 160.329 259.776 160.211 260.238C160.104 260.657 160.093 261.119 159.975 261.57C159.868 261.995 159.798 262.441 159.685 262.887C159.572 263.333 159.229 263.688 159.116 264.134C159.003 264.58 158.944 265.016 158.832 265.456C158.719 265.897 158.552 266.311 158.44 266.752C158.327 267.192 158.423 267.675 158.305 268.116C158.187 268.556 157.887 268.933 157.768 269.374C157.65 269.815 157.779 270.308 157.661 270.744C157.543 271.179 157.21 271.556 157.087 271.991C156.963 272.426 156.947 272.888 156.823 273.324C156.7 273.759 156.657 274.221 156.534 274.651C156.41 275.081 156.093 275.468 155.97 275.898C155.846 276.328 155.696 276.764 155.572 277.188C155.449 277.613 155.53 278.128 155.395 278.547C155.261 278.988 154.901 279.354 154.767 279.768C154.627 280.214 154.568 280.671 154.429 281.079C154.278 281.531 154.246 281.998 154.101 282.401C153.94 282.858 153.688 283.251 153.538 283.638C153.355 284.111 153.076 284.482 152.909 284.833C152.721 285.236 152.507 285.661 152.34 286.117C152.185 286.542 152.179 287.03 152.04 287.492C151.9 287.954 151.621 288.336 151.503 288.798C151.385 289.26 151.385 289.727 151.288 290.184C151.191 290.635 151.175 291.107 151.089 291.569C151.003 292.031 150.982 292.498 150.907 292.955C150.832 293.411 150.756 293.879 150.692 294.335C150.627 294.792 150.525 295.259 150.466 295.715C150.407 296.188 150.445 296.66 150.397 297.112C150.343 297.595 150.246 298.051 150.203 298.497C150.155 298.991 149.924 299.442 149.892 299.872C149.849 300.398 149.795 300.865 149.774 301.263C149.72 302.133 150.236 302.091 149.827 302.659C149.441 303.19 149.376 302.829 148.555 303.004C148.19 303.084 147.734 303.057 147.234 303.137C146.837 303.2 146.407 303.317 145.93 303.37C145.516 303.418 145.087 303.636 144.625 303.668C144.201 303.694 143.755 303.731 143.293 303.742C142.864 303.753 142.418 303.715 141.956 303.705C141.527 303.694 141.097 303.392 140.646 303.36C140.195 303.328 139.75 303.572 139.299 303.519C138.848 303.466 138.456 303.2 138.01 303.126C137.564 303.052 137.146 302.993 136.705 302.898C136.265 302.802 135.696 302.855 135.261 302.739C134.907 302.144 135.411 302.149 135.519 301.284C135.567 300.897 135.734 300.445 135.793 299.925C135.841 299.506 135.809 299.033 135.862 298.545C135.911 298.11 135.879 297.642 135.932 297.165C135.981 296.724 136.083 296.273 136.131 295.8C136.179 295.354 136.313 294.903 136.362 294.436C136.41 293.969 136.507 293.533 136.55 293.066C136.593 292.599 136.593 292.148 136.636 291.686C136.679 291.224 136.652 290.762 136.695 290.306C136.738 289.849 136.738 289.382 136.775 288.926C136.813 288.469 136.818 288.002 136.85 287.545C136.883 287.089 137.189 286.638 137.221 286.186C137.253 285.735 137.301 285.257 137.328 284.806C137.355 284.355 137.065 283.856 137.087 283.41C137.108 282.932 137.382 282.481 137.398 282.04C137.414 281.552 137.425 281.09 137.425 280.655C137.425 280.15 137.382 279.683 137.366 279.269C137.339 278.722 137.285 278.25 137.215 277.889C137.146 277.528 137.054 277.082 136.968 276.557C136.904 276.153 136.662 275.728 136.593 275.24C136.534 274.821 136.614 274.353 136.555 273.876C136.501 273.446 136.464 272.994 136.415 272.527C136.372 272.092 136.217 271.651 136.174 271.19C136.136 270.749 136.136 270.298 136.104 269.836C136.072 269.374 136.007 268.944 135.986 268.482C135.964 268.02 135.873 267.585 135.857 267.128C135.841 266.672 135.852 266.226 135.846 265.769C135.841 265.313 135.986 264.867 135.997 264.41C136.007 263.954 135.884 263.503 135.9 263.051C135.916 262.6 135.97 262.149 136.002 261.698C136.034 261.246 136.308 260.816 136.346 260.365C136.383 259.914 136.109 259.431 136.168 258.98C136.228 258.528 136.33 258.083 136.399 257.637C136.469 257.191 136.77 256.782 136.861 256.336C136.947 255.89 137.07 255.455 137.178 255.019C137.285 254.584 137.221 254.09 137.35 253.66C137.479 253.23 137.699 252.816 137.854 252.392C138.01 251.967 138.139 251.526 138.321 251.118C138.504 250.709 138.74 250.311 138.95 249.913C139.159 249.514 139.32 249.074 139.562 248.697C139.803 248.32 140.099 247.879 140.378 247.529C141.044 247.471 140.748 247.938 141.457 248.41C141.768 248.617 142.219 248.75 142.654 249.015C143.003 249.228 143.336 249.536 143.755 249.775C144.12 249.982 144.523 250.183 144.936 250.406C145.312 250.608 145.699 250.842 146.112 251.043C146.499 251.234 146.96 251.314 147.379 251.505C147.776 251.686 148.174 251.882 148.593 252.063C149.011 252.243 149.376 252.471 149.806 252.636C150.236 252.8 150.59 253.082 151.014 253.23C151.438 253.379 151.857 253.517 152.292 253.655C152.727 253.793 153.178 253.798 153.618 253.915C154.058 254.032 154.504 254.032 154.944 254.133C155.385 254.234 155.803 254.356 156.249 254.441C156.695 254.526 157.097 254.791 157.543 254.855C157.989 254.919 158.434 254.982 158.88 255.025C159.325 255.067 159.782 255.019 160.233 255.041C160.684 255.062 161.237 254.961 161.688 254.961V254.929Z" fill="#262729" fill-opacity="0.2"/>
<path d="M167.868 204.657C167.653 204.147 166.858 202.83 167.272 202.289C167.578 201.891 167.97 201.482 168.302 200.914C168.587 200.431 168.555 199.529 167.862 199.46C166.982 199.369 166.219 199.449 165.333 198.738C164.152 197.787 163.379 195.94 162.45 194.607C162.617 193.105 162.305 191.475 161.451 189.994C159.9 187.292 157.215 186.135 154.643 186.613C153.87 186.289 152.99 186.076 151.991 186.018C144.818 185.604 136.098 192.351 135.717 201.068L133.548 201.259C133.548 201.259 129.264 195.945 122.627 201.615C122.627 201.615 118.047 207.545 122.627 211.908C127.207 216.272 127.685 216.431 127.293 219.669C126.896 222.908 125.441 225.95 125.441 225.95C125.441 225.95 131.476 222.207 132.716 218.889C133.962 215.571 134.536 210.857 134.536 208.5L136.882 207.683V207.651C137.602 209.679 139.368 213.076 143.272 214.265C148.974 215.996 150.477 215.083 151.438 216.113C152.399 217.137 152.329 219.669 152.329 219.669C152.329 219.669 155.196 218.836 158.413 220.498C161.629 222.159 163.417 223.699 163.417 223.699C163.417 223.699 161.183 214.435 163.771 213.182C165.441 213.278 167.18 212.423 167.18 212.423C170.021 211.091 168.845 207.008 167.862 204.667L167.868 204.657Z" fill="#F2F2F5"/>
<path d="M148.238 303.997C148.238 303.997 154.042 303.742 154.95 303.567L155.852 303.392C155.825 304.995 155.798 306.603 155.777 308.207C157.624 309.369 159.229 309.99 160.367 310.341C162.037 310.861 163.116 310.93 164.34 311.827C165.436 312.634 166.053 313.664 166.397 314.412H146.381C146.381 314.412 146.322 313.345 146.359 312.098C146.391 311.11 146.569 310.234 146.939 308.684C147.229 307.463 147.648 305.865 148.249 303.997H148.238Z" fill="#B3B4BD"/>
<path d="M140.958 303.997C140.958 303.997 146.762 303.742 147.67 303.567L148.572 303.392L148.555 307.437C148.555 307.437 158.139 312.353 159.117 314.418H139.1C139.1 314.418 138.853 310.155 139.653 308.69C140.453 307.219 140.964 304.002 140.964 304.002L140.958 303.997Z" fill="#B3B4BD"/>
<path d="M161.575 256.623C161.575 256.623 158.708 285.629 158.338 287.588C157.967 289.547 157.796 301.804 157.796 301.804V302.473C155.025 303.997 149.908 302.988 149.908 302.988L147.643 302.351" fill="#5E5F6C"/>
<path d="M161.575 256.623C161.575 256.623 158.708 285.629 158.338 287.588C157.967 289.547 157.796 301.804 157.796 301.804V302.473C155.025 303.997 149.908 302.988 149.908 302.988L147.643 302.351" stroke="#5E5F6C" stroke-width="0.995293" stroke-miterlimit="10" stroke-linecap="round"/>
<path d="M161.581 255.439C161.42 256.097 161.528 255.933 161.318 256.766C161.227 257.138 160.899 257.52 160.776 258.024C160.674 258.422 160.626 258.879 160.502 259.351C160.4 259.765 160.502 260.254 160.389 260.716C160.282 261.135 159.976 261.523 159.863 261.974C159.756 262.399 159.858 262.887 159.74 263.338C159.622 263.789 159.503 264.198 159.385 264.644C159.267 265.09 158.983 265.462 158.865 265.908C158.746 266.353 158.693 266.789 158.58 267.229C158.467 267.67 158.499 268.137 158.381 268.578C158.263 269.018 157.957 269.395 157.839 269.831C157.721 270.266 157.56 270.691 157.442 271.126C157.324 271.561 157.254 272.012 157.13 272.448C157.007 272.883 156.905 273.324 156.787 273.759C156.669 274.194 156.448 274.603 156.325 275.033C156.201 275.463 156.293 275.967 156.169 276.397C156.046 276.827 155.691 277.204 155.563 277.629C155.434 278.054 155.256 278.489 155.128 278.908C154.993 279.349 154.934 279.805 154.805 280.225C154.666 280.671 154.451 281.074 154.317 281.488C154.167 281.94 154.204 282.428 154.059 282.831C153.898 283.288 153.785 283.734 153.635 284.121C153.452 284.594 153.114 284.944 152.948 285.295C152.76 285.698 152.738 286.192 152.572 286.648C152.416 287.073 152.293 287.514 152.153 287.975C152.014 288.437 151.793 288.83 151.681 289.292C151.568 289.754 151.38 290.173 151.278 290.63C151.176 291.086 151.176 291.559 151.09 292.015C151.004 292.472 150.988 292.944 150.913 293.401C150.838 293.857 150.671 294.314 150.601 294.765C150.532 295.216 150.435 295.694 150.376 296.145C150.317 296.597 150.242 297.08 150.193 297.531C150.14 298.014 150.097 298.481 150.054 298.922C150.005 299.415 150.145 299.899 150.113 300.329C150.07 300.854 149.855 301.311 149.828 301.704C149.775 302.574 150.22 302.516 149.812 303.084C149.426 303.615 149.377 303.248 148.556 303.424C148.191 303.503 147.756 303.609 147.256 303.689C146.859 303.753 146.403 303.689 145.925 303.742C145.512 303.79 145.082 303.944 144.62 303.976C144.196 304.002 143.75 303.864 143.289 303.875C142.859 303.885 142.424 303.875 141.968 303.864C141.538 303.854 141.093 303.96 140.642 303.928C140.191 303.896 139.756 303.976 139.305 303.928C138.854 303.88 138.419 303.875 137.973 303.8C137.528 303.726 137.152 303.418 136.712 303.323C136.271 303.227 135.879 303.19 135.444 303.078C135.09 302.484 135.364 302.59 135.466 301.725C135.514 301.337 135.632 300.886 135.697 300.36C135.745 299.941 135.976 299.5 136.03 299.007C136.078 298.571 135.992 298.099 136.046 297.621C136.094 297.181 136.218 296.729 136.266 296.257C136.314 295.811 136.32 295.349 136.368 294.882C136.416 294.415 136.524 293.979 136.567 293.512C136.61 293.045 136.733 292.605 136.776 292.143C136.819 291.681 136.556 291.198 136.593 290.741C136.631 290.285 136.824 289.833 136.867 289.377C136.91 288.92 137.018 288.459 137.05 288.002C137.082 287.545 136.975 287.068 137.007 286.611C137.039 286.155 137.205 285.693 137.232 285.241C137.259 284.79 137.066 284.297 137.082 283.851C137.103 283.373 137.232 282.916 137.248 282.476C137.265 281.987 137.35 281.525 137.35 281.095C137.35 280.591 137.227 280.129 137.205 279.715C137.179 279.168 137.13 278.717 137.061 278.356C136.991 277.995 136.959 277.544 136.867 277.024C136.797 276.626 136.84 276.164 136.765 275.681C136.701 275.267 136.642 274.821 136.577 274.348C136.518 273.924 136.309 273.499 136.25 273.037C136.196 272.607 136.121 272.161 136.078 271.705C136.035 271.269 135.938 270.823 135.901 270.367C135.863 269.91 135.885 269.475 135.852 269.018C135.82 268.562 135.922 268.121 135.901 267.67C135.879 267.219 135.788 266.783 135.777 266.327C135.767 265.881 135.852 265.435 135.852 264.984C135.852 264.533 135.681 264.087 135.691 263.635C135.702 263.184 135.879 262.744 135.901 262.298C135.922 261.852 135.713 261.385 135.75 260.939C135.788 260.493 135.912 260.047 135.965 259.601C136.019 259.155 136.035 258.698 136.099 258.258C136.164 257.817 136.191 257.355 136.271 256.915C136.352 256.474 136.749 256.092 136.851 255.657C136.953 255.216 137.018 254.775 137.141 254.345C137.265 253.915 137.442 253.501 137.587 253.082C137.737 252.652 137.903 252.243 138.075 251.834C138.247 251.426 138.36 250.98 138.564 250.582C138.768 250.183 138.929 249.753 139.171 249.376C139.412 249 139.691 248.639 139.971 248.288" stroke="#5E5F6C" stroke-width="1.5" stroke-miterlimit="10" stroke-linecap="round"/>
<path d="M148.556 304.586C148.556 305.297 148.55 305.297 148.55 306.014C148.55 306.731 148.346 306.757 148.545 307.442C148.743 308.127 149.033 307.686 149.79 308.084C150.15 308.27 150.558 308.504 151.015 308.753C151.401 308.96 151.825 309.167 152.249 309.401C152.647 309.619 153.066 309.831 153.479 310.064C153.892 310.298 154.279 310.548 154.676 310.786C155.074 311.025 155.487 311.269 155.874 311.514C156.287 311.774 156.658 312.06 157.017 312.315C157.436 312.607 157.823 312.878 158.139 313.143C158.601 313.531 158.966 313.865 159.106 314.147C159.262 314.46 158.854 314.678 158.123 314.847C157.764 314.932 157.323 315.049 156.802 315.102C156.394 315.145 155.943 315.129 155.46 315.155C155.036 315.177 154.59 315.256 154.118 315.267C153.683 315.277 153.232 315.262 152.77 315.262C152.309 315.262 151.884 315.214 151.428 315.208C150.972 315.203 150.537 315.193 150.08 315.182C149.624 315.171 149.178 315.219 148.733 315.198C148.287 315.177 147.831 315.108 147.39 315.086C146.95 315.065 146.488 315.023 146.048 314.991C145.608 314.959 145.135 314.986 144.7 314.948C144.233 314.911 143.788 314.832 143.364 314.789C142.886 314.741 142.429 314.757 142.016 314.709C141.517 314.651 141.071 314.54 140.69 314.476C140.051 314.37 139.611 314.242 139.407 314.131C139.063 313.956 138.886 313.563 138.854 313C138.832 312.613 138.843 312.156 138.918 311.662C138.982 311.248 139.074 310.802 139.181 310.346C139.283 309.916 139.455 309.491 139.573 309.061C139.691 308.631 139.798 308.175 139.922 307.766C140.062 307.299 140.174 306.858 140.282 306.476C140.454 305.871 140.566 305.414 140.566 305.18" stroke="#5E5F6C" stroke-width="1.5" stroke-miterlimit="10" stroke-linecap="round"/>
<path d="M155.788 304.586C155.788 305.191 155.756 305.191 155.756 305.791C155.756 306.391 155.766 306.396 155.766 307.001C155.766 307.607 155.589 307.633 155.766 308.212C155.97 308.859 156.249 308.482 156.974 308.865C157.329 309.05 157.737 309.289 158.188 309.507C158.585 309.698 159.015 309.873 159.449 310.054C159.884 310.234 160.309 310.415 160.733 310.553C161.2 310.707 161.656 310.813 162.064 310.877C162.547 310.951 162.972 311.084 163.342 311.248C163.788 311.439 164.147 311.689 164.453 311.96C164.802 312.273 165.098 312.607 165.296 312.974C165.522 313.388 165.651 313.823 165.721 314.221C165.785 314.577 165.49 314.879 165.125 314.879C164.394 314.879 164.394 314.901 163.659 314.901C162.923 314.901 162.929 314.901 162.193 314.901C161.458 314.901 161.463 314.879 160.727 314.879C159.992 314.879 159.992 314.917 159.262 314.917C158.531 314.917 158.526 314.901 157.796 314.901" stroke="#5E5F6C" stroke-width="1.5" stroke-miterlimit="10" stroke-linecap="round"/>
<path d="M137.253 301.295C137.253 301.295 142.112 302.287 146.327 301.544" stroke="#5E5F6C" stroke-miterlimit="10" stroke-linecap="round"/>
<path d="M165.157 245.777C165.27 245.342 165.173 244.859 165.275 244.424C165.377 243.988 165.721 243.601 165.806 243.16C165.892 242.719 165.694 242.231 165.764 241.785C165.833 241.339 165.925 240.904 165.978 240.463C166.032 240.023 166.177 239.582 166.215 239.136C166.252 238.69 166.182 238.239 166.204 237.788C166.225 237.337 166.257 236.896 166.263 236.45C166.268 236.004 166.381 235.553 166.376 235.107C166.37 234.661 166.349 234.21 166.322 233.764C166.295 233.318 166.107 232.883 166.064 232.437C166.021 231.991 166.204 231.518 166.145 231.072C166.086 230.626 165.984 230.186 165.903 229.745C165.817 229.257 165.774 228.784 165.678 228.349C165.565 227.85 165.409 227.393 165.28 226.985C165.108 226.449 164.921 225.992 164.717 225.679C164.513 225.366 164.19 225.015 163.852 224.617C163.578 224.299 163.24 223.985 162.896 223.646C162.585 223.338 162.198 223.088 161.839 222.78C161.5 222.494 161.146 222.212 160.765 221.947C160.384 221.681 160.099 221.305 159.702 221.076C159.304 220.848 158.896 220.63 158.478 220.445C158.059 220.259 157.57 220.269 157.13 220.142C156.69 220.015 156.271 219.845 155.815 219.786C155.358 219.728 154.913 219.744 154.456 219.765C154 219.786 153.549 219.754 153.092 219.866C152.636 219.977 152.266 220.206 151.836 220.402C151.439 220.588 151.068 220.821 150.671 221.092C150.3 221.347 149.898 221.554 149.581 221.873C149.264 222.191 148.996 222.547 148.738 222.913C148.48 223.279 148.185 223.624 147.986 224.028C147.788 224.431 147.702 224.877 147.557 225.302C147.347 225.928 147.342 225.928 147.133 226.555C146.923 227.181 146.896 227.176 146.687 227.802C146.478 228.429 146.585 228.466 146.381 229.092C146.177 229.719 145.957 229.65 145.747 230.276C145.538 230.902 145.656 230.94 145.447 231.571C145.237 232.203 145.27 232.208 145.06 232.84C144.851 233.472 144.792 233.451 144.582 234.077C144.373 234.703 144.48 234.741 144.271 235.367C144.062 235.993 143.933 235.951 143.723 236.583C143.514 237.214 143.664 237.262 143.455 237.889C143.245 238.515 143.052 238.451 142.843 239.083C142.633 239.715 142.703 239.731 142.494 240.362C142.284 240.994 142.247 240.978 142.037 241.605C141.828 242.231 141.758 242.21 141.549 242.842C141.339 243.473 141.388 243.489 141.178 244.116C140.969 244.747 141.001 244.753 140.792 245.384C140.582 246.016 140.636 246.032 140.427 246.664C140.217 247.295 139.949 247.253 139.943 247.917C139.938 248.58 140.33 248.288 141.06 248.724C141.382 248.915 141.866 248.989 142.311 249.238C142.666 249.44 143.068 249.637 143.498 249.86C143.874 250.056 144.249 250.295 144.674 250.502C145.06 250.693 145.425 250.958 145.844 251.155C146.236 251.341 146.666 251.473 147.09 251.659C147.487 251.834 147.943 251.898 148.368 252.073C148.792 252.248 149.168 252.445 149.597 252.604C150.027 252.763 150.424 252.928 150.848 253.077C151.272 253.225 151.713 253.284 152.147 253.416C152.582 253.549 152.958 253.804 153.393 253.926C153.828 254.048 154.263 254.133 154.698 254.239C155.133 254.345 155.562 254.462 156.002 254.552C156.443 254.643 156.867 254.812 157.313 254.887C157.758 254.961 158.225 254.823 158.671 254.876C159.117 254.929 159.541 255.2 159.992 255.232C160.443 255.264 160.91 255.168 161.361 255.173C161.79 254.674 161.597 254.552 161.882 253.958C162.166 253.363 162.182 253.369 162.467 252.774C162.708 252.264 163.041 251.787 163.262 251.272" stroke="#5E5F6C" stroke-width="1.5" stroke-miterlimit="10"/>
<path d="M158.815 228.169L157.613 233.26C157.613 233.26 150.885 230.425 146.987 232.952" stroke="#5E5F6C" stroke-linecap="round" stroke-linejoin="round"/>
<path d="M147.966 234.173C147.816 234.772 147.724 234.751 147.579 235.346C147.434 235.94 147.332 235.919 147.182 236.519C147.032 237.119 147.182 237.156 147.037 237.751C146.892 238.345 146.844 238.34 146.699 238.94C146.554 239.54 146.5 239.529 146.35 240.124C146.248 240.543 146.194 240.978 146.183 241.398C146.173 241.817 146.291 242.247 146.371 242.661C146.452 243.075 146.618 243.463 146.785 243.85C146.951 244.238 147.032 244.684 147.284 245.029C147.536 245.374 147.923 245.602 148.24 245.889C148.556 246.175 148.884 246.42 149.265 246.632C149.646 246.844 150.006 247.025 150.425 247.157C151.048 247.354 151.064 247.317 151.687 247.513C152.309 247.71 152.315 247.704 152.938 247.901C153.56 248.097 153.555 248.113 154.183 248.309C154.811 248.506 154.79 248.559 155.418 248.755C156.046 248.952 156.014 249.037 156.642 249.233C157.271 249.43 157.287 249.366 157.909 249.562C158.532 249.759 158.543 249.737 159.166 249.939C159.789 250.141 159.773 250.199 160.395 250.396C161.018 250.592 161.029 250.566 161.657 250.762C162.285 250.958 162.285 250.948 162.913 251.144C163.542 251.341 163.536 251.346 164.164 251.548C164.793 251.749 164.809 251.686 165.437 251.882C166.038 252.073 166.575 252.546 166.806 253.124C166.94 253.454 167.037 253.884 167.23 254.319C167.397 254.685 167.611 255.062 167.81 255.45C168.009 255.837 168.202 256.203 168.417 256.564C168.648 256.947 168.83 257.345 169.077 257.658C169.373 258.04 169.652 258.406 169.958 258.603C170.366 258.868 170.833 258.879 171.214 258.629C171.735 258.29 172.154 257.918 172.444 257.531C172.836 257.016 172.948 256.442 173.067 256.023C173.099 255.922 173.088 255.423 172.916 254.717C172.825 254.329 172.723 253.878 172.567 253.411C172.428 252.997 172.224 252.588 172.025 252.169C171.826 251.749 171.697 251.298 171.445 250.937C171.177 250.544 170.763 250.295 170.43 250.029C169.909 249.589 170.017 249.467 169.496 249.026C168.975 248.586 168.964 248.596 168.449 248.156C167.934 247.715 167.853 247.8 167.338 247.354C166.822 246.908 166.93 246.775 166.393 246.356C166.119 246.213 165.641 246.048 165.12 245.751C164.76 245.549 164.379 245.273 163.939 245.018C163.563 244.8 163.16 244.562 162.736 244.317C162.35 244.089 161.909 243.925 161.496 243.686C161.083 243.447 160.653 243.298 160.25 243.059C159.848 242.82 159.493 242.518 159.096 242.284C158.699 242.051 158.264 241.849 157.872 241.621C157.458 241.376 157.147 240.989 156.766 240.761C156.342 240.511 155.858 240.41 155.488 240.187C155.042 239.922 154.688 239.598 154.344 239.396C153.603 238.956 153.754 239.03 153.158 238.674" stroke="#5E5F6C" stroke-width="1.5" stroke-miterlimit="10" stroke-linecap="round"/>
<path d="M148.249 256.888C148.249 256.888 146.816 259.585 144.754 260.679C143.39 261.401 139.632 262.324 139.632 262.324" stroke="#5E5F6C" stroke-miterlimit="10" stroke-linecap="round"/>
<path d="M158.812 192.287C159.23 192.441 159.617 192.675 160.003 192.887C160.39 193.1 160.777 193.333 161.12 193.609C161.464 193.885 161.759 194.22 162.054 194.549C162.35 194.878 162.726 195.239 162.999 195.68C163.252 196.083 163.483 196.524 163.73 196.954C163.977 197.384 164.186 197.835 164.465 198.223C164.766 198.642 165.088 199.013 165.453 199.305C165.872 199.64 166.269 199.767 166.656 199.852C167.091 199.948 167.52 199.974 167.982 200.022C168.675 200.091 168.782 201.036 168.497 201.524C168.165 202.092 167.66 202.432 167.354 202.83C167.144 203.106 167.338 203.584 167.515 204.051C167.692 204.519 167.848 204.986 167.95 205.241C168.116 205.644 168.25 206.106 168.412 206.589C168.556 207.03 168.685 207.491 168.787 207.964C168.889 208.436 169.115 208.893 169.142 209.36C169.169 209.854 169.067 210.342 168.975 210.788C168.873 211.271 168.675 211.696 168.39 212.078C168.122 212.439 167.74 212.683 167.263 212.911C166.736 213.166 166.854 213.188 166.199 213.395C165.867 213.501 165.491 213.692 165.072 213.761C164.691 213.819 164.293 213.814 163.901 213.787C163.3 213.968 163.542 214.053 163.15 214.722C162.973 215.019 162.806 215.375 162.677 215.842C162.581 216.197 162.398 216.58 162.366 217.042C162.339 217.418 162.436 217.827 162.473 218.278C162.505 218.661 162.505 219.075 162.591 219.515C162.736 220.243 162.812 220.227 162.956 220.954C163.101 221.681 163.01 221.697 163.155 222.424C163.3 223.152 163.327 223.146 163.472 223.874" stroke="#5E5F6C" stroke-width="1.5" stroke-miterlimit="10" stroke-linecap="round"/>
<path d="M133.328 200.144C132.984 199.916 132.539 199.863 132.163 199.688C131.787 199.513 131.417 199.375 131.014 199.258C130.611 199.141 130.241 198.966 129.827 198.907C129.414 198.849 129.006 198.785 128.587 198.791C128.168 198.796 127.76 198.838 127.341 198.907C126.923 198.976 126.558 199.194 126.171 199.327C125.784 199.459 125.43 199.661 125.065 199.852C124.7 200.043 124.329 200.208 123.996 200.452C123.664 200.696 123.363 200.962 123.068 201.248C122.772 201.535 122.515 201.843 122.268 202.167C122.021 202.491 121.672 202.761 121.478 203.122C121.285 203.483 121.258 203.919 121.124 204.306C120.99 204.694 120.764 205.055 120.694 205.458C120.625 205.862 120.716 206.244 120.7 206.621C120.684 206.998 120.528 207.406 120.571 207.789C120.614 208.171 120.759 208.553 120.856 208.925C120.952 209.296 121.081 209.673 121.231 210.029C121.382 210.385 121.505 210.772 121.709 211.101C121.913 211.43 122.273 211.659 122.52 211.956C122.767 212.253 123.046 212.503 123.336 212.763C123.647 212.981 123.959 213.198 124.265 213.421C124.571 213.644 124.877 213.888 125.167 214.132C125.457 214.377 125.666 214.711 125.919 214.998C126.171 215.284 126.434 215.561 126.627 215.89C126.821 216.219 126.907 216.58 127.03 216.951C127.143 217.291 127.304 217.647 127.347 218.04C127.39 218.39 127.422 218.778 127.406 219.181C127.395 219.526 127.191 219.866 127.143 220.221C127.094 220.577 127.035 220.912 126.966 221.257C126.896 221.602 126.966 221.979 126.88 222.318C126.794 222.658 126.595 222.966 126.493 223.3C126.268 223.757 126.337 223.794 126.085 224.235C125.833 224.675 125.854 224.691 125.596 225.132C125.339 225.573 125.204 225.504 124.979 225.96C124.856 226.374 125.344 226.677 125.688 226.411C125.962 226.204 126.278 225.955 126.622 225.658C126.901 225.413 127.282 225.233 127.594 224.936C127.873 224.675 128.174 224.405 128.469 224.102C128.737 223.826 128.893 223.417 129.167 223.109C129.425 222.817 129.752 222.563 130.01 222.244C130.268 221.926 130.515 221.628 130.756 221.304C130.998 220.981 131.298 220.705 131.524 220.37C131.749 220.036 131.905 219.664 132.109 219.314C132.313 218.963 132.437 218.581 132.619 218.22C132.802 217.859 132.963 217.498 133.124 217.132C133.285 216.766 133.376 216.378 133.505 215.996C133.634 215.614 133.897 215.279 133.994 214.886C134.09 214.493 134.198 214.106 134.268 213.708C134.337 213.31 134.235 212.901 134.268 212.497C134.3 212.094 134.3 211.706 134.294 211.303C134.289 210.9 134.235 210.517 134.192 210.114C134.149 209.71 134.198 209.312 134.117 208.914" stroke="#5E5F6C" stroke-miterlimit="10" stroke-linecap="round"/>
<path d="M166.859 233.843C167.471 233.456 167.492 233.493 168.104 233.106C168.716 232.718 168.759 232.782 169.371 232.394C169.983 232.007 169.957 231.964 170.569 231.577C171.181 231.189 171.159 231.152 171.771 230.764C172.383 230.377 172.416 230.425 173.028 230.037C173.64 229.65 173.629 229.623 174.241 229.236C174.853 228.848 175.272 229.167 175.503 228.482C175.734 227.797 175.208 227.823 174.95 227.165C174.692 226.507 174.655 226.528 174.397 225.87C174.139 225.217 174.22 225.185 173.962 224.527C173.704 223.869 173.661 223.885 173.404 223.232C173.146 222.579 173.108 222.589 172.851 221.936C172.593 221.283 172.636 221.262 172.378 220.604C172.12 219.946 172.158 219.93 171.9 219.271C171.642 218.613 172.008 218.247 171.379 217.912C170.751 217.578 170.708 218.204 170.053 218.374C169.398 218.544 169.377 218.464 168.716 218.634C168.056 218.804 168.061 218.804 167.401 218.974C166.74 219.144 166.757 219.192 166.096 219.362C165.436 219.531 165.447 219.569 164.792 219.738C164.136 219.908 164.12 219.855 163.46 220.025" stroke="#5E5F6C" stroke-linecap="round" stroke-linejoin="round"/>
<path d="M155.788 239.635L156.749 235.261" stroke="#5E5F6C" stroke-width="1.5" stroke-miterlimit="10" stroke-linecap="round"/>
<path d="M149.92 215.778C149.92 215.778 152.336 215.778 152.336 219.913" stroke="#5E5F6C" stroke-width="1.5" stroke-miterlimit="10"/>
<path d="M140.395 308.026C140.395 308.026 142.531 310.908 147.165 308.148" stroke="#5E5F6C" stroke-width="0.995293" stroke-miterlimit="10" stroke-linecap="round"/>
<path d="M136.883 207.56L134.575 208.293C132.798 205.745 132.653 203.446 132.738 202.236C132.776 201.705 133.179 201.286 133.716 201.211C134.279 201.132 135.058 201.041 135.836 200.994" stroke="#5E5F6C" stroke-width="1.5" stroke-miterlimit="10" stroke-linecap="round"/>
<path d="M148.497 208.266C148.293 208.691 148.185 209.11 148.105 209.535C148.013 209.986 147.885 210.422 147.906 210.862C147.927 211.324 147.96 211.781 148.062 212.205C148.174 212.662 148.427 213.055 148.593 213.448C148.787 213.904 148.948 214.334 149.152 214.674C149.56 215.364 150.14 215.146 149.909 215.773C149.678 216.399 149.404 215.858 148.577 215.773C148.196 215.736 147.745 215.677 147.246 215.587C146.838 215.513 146.392 215.428 145.93 215.306C145.517 215.199 145.109 214.992 144.674 214.833C144.266 214.69 143.825 214.584 143.407 214.393C143.009 214.212 142.634 213.963 142.242 213.734C141.85 213.506 141.485 213.278 141.114 213.018C140.744 212.757 140.389 212.508 140.051 212.205C139.713 211.903 139.417 211.59 139.117 211.25C138.816 210.91 138.65 210.507 138.387 210.14C138.123 209.774 137.785 209.487 137.565 209.089C137.356 208.712 137.146 208.319 136.964 207.9C136.792 207.507 136.749 207.051 136.604 206.615C136.464 206.185 136.207 205.793 136.11 205.368C136.013 204.943 135.992 204.476 135.933 204.041C135.874 203.605 135.922 203.149 135.906 202.708C135.89 202.268 135.901 201.822 135.927 201.381C135.954 200.935 135.852 200.473 135.927 200.038C136.003 199.603 136.212 199.183 136.319 198.759C136.427 198.334 136.454 197.867 136.609 197.453C136.765 197.039 137.076 196.683 137.264 196.28C137.452 195.876 137.651 195.483 137.871 195.096C138.091 194.708 138.22 194.268 138.472 193.896C138.725 193.524 138.993 193.163 139.272 192.818C139.552 192.473 139.901 192.176 140.207 191.852C140.513 191.528 140.824 191.204 141.157 190.907C141.49 190.61 141.882 190.382 142.231 190.106C142.58 189.83 142.886 189.485 143.256 189.235C143.627 188.985 144.019 188.763 144.411 188.54C144.803 188.317 145.232 188.168 145.635 187.982C146.038 187.796 146.435 187.568 146.854 187.414C147.272 187.26 147.686 187.048 148.115 186.931C148.545 186.814 149.012 186.772 149.447 186.697C149.882 186.623 150.338 186.501 150.784 186.475C151.229 186.448 151.691 186.522 152.137 186.549C152.615 186.575 153.05 186.708 153.474 186.804C153.936 186.905 154.381 187.005 154.784 187.175C155.235 187.09 155.686 187.085 156.137 187.101C156.588 187.117 157.06 187.064 157.495 187.175C157.93 187.287 158.327 187.536 158.73 187.743C159.133 187.95 159.503 188.189 159.858 188.481C160.212 188.773 160.566 189.033 160.867 189.389C161.146 189.723 161.291 190.169 161.522 190.573C161.726 190.928 161.909 191.274 162.054 191.64C162.199 192.006 162.317 192.394 162.403 192.781C162.489 193.179 162.526 193.567 162.548 193.96C162.569 194.353 162.66 194.809 162.617 195.197C162.429 194.952 162.188 194.57 161.855 194.262C161.603 194.029 161.297 193.769 160.948 193.54C160.303 193.121 159.632 192.919 159.17 192.776C159.213 193.317 159.246 193.7 159.251 194.082C159.256 194.437 159.251 194.804 159.09 195.345C158.993 195.674 158.929 196.099 158.73 196.587C158.558 197.017 158.247 197.341 158.07 197.686C157.844 198.116 157.635 198.477 157.431 198.775C156.98 199.438 157.06 199.279 156.631 199.751C156.352 200.102 156.072 200.441 155.804 200.749C155.503 201.094 155.321 201.503 155.058 201.816C154.741 202.193 154.419 202.443 154.134 202.714C153.85 202.984 153.544 203.25 153.168 203.558" stroke="#5E5F6C" stroke-width="1.5" stroke-miterlimit="10" stroke-linecap="round"/>
<path d="M152.83 209.095C152.314 209.185 151.81 209.249 151.332 209.206C150.806 209.164 150.301 209.047 149.861 208.872C149.367 208.675 148.975 208.351 148.647 208.012C148.293 207.645 148.051 207.226 147.96 206.732C147.89 206.318 147.874 205.851 147.96 205.363C148.04 204.922 148.169 204.471 148.384 204.051C148.599 203.632 148.921 203.308 149.259 202.995C149.597 202.682 149.941 202.385 150.403 202.236C150.977 202.098 150.956 202.119 151.568 202.385C151.874 202.517 152.234 202.73 152.524 203.091C152.733 203.351 152.873 203.728 153.023 204.158" stroke="#5E5F6C" stroke-miterlimit="10" stroke-linecap="round"/>
<path d="M174.563 218.247L175.358 218.04L176.147 217.817L176.931 217.588L177.694 217.281L178.386 216.92L179.041 216.495L179.712 216.091L180.437 215.789L181.141 215.454L181.785 215.003L182.445 214.594L183.165 214.286L183.863 213.931L184.518 213.495L185.173 213.076L185.865 212.715L186.596 212.418L187.283 212.041L187.959 211.637L188.684 211.33L189.452 210.815L190.225 210.316L190.864 209.976L191.396 209.477L192.051 209.137L192.459 208.431L192.958 207.789L193.511 207.189L194.155 206.69L194.891 206.393L195.648 206.233L196.41 206.09L197.167 205.931L197.887 205.649L198.585 205.315L199.245 204.917L199.863 204.497L200.566 204.232H201.253L201.941 204.524L202.139 205.156L201.608 205.724L201.023 206.281L200.421 206.823L199.766 207.263L200.518 207.332L201.269 207.311L202.021 207.263L202.773 207.173L203.53 207.184L204.282 207.162L205.033 207.083L205.79 207.168L206.547 207.099L207.304 207.178L208.061 207.115L208.818 207.067L209.608 207.486L210 208.282L209.484 208.946L208.641 209.291L207.916 209.371L207.192 209.472L206.461 209.498L205.747 209.652L205.006 209.631L204.287 209.737L203.562 209.817L202.821 209.795L202.107 210.018L201.457 210.029L200.899 210.358L200.11 210.581L199.439 211.032L198.719 211.409L197.978 211.722L197.259 212.089L196.529 212.434L195.831 212.848L195.111 213.219L194.343 213.495L193.667 213.947L192.985 214.318L192.378 214.807L191.782 215.306L191.17 215.778L190.526 216.219L189.957 216.739L189.388 217.265L188.781 217.753L188.158 218.22L187.535 218.682L186.923 219.16L186.327 219.659L185.678 220.094L185.135 220.662L184.437 221.039L183.906 221.618L183.224 222.021L182.612 222.504L181.957 222.966L181.221 223.29L180.572 223.757L179.852 224.113L179.197 224.58L178.521 225.015L177.758 225.297L177.076 225.721L176.357 226.088" stroke="#5E5F6C" stroke-linecap="round" stroke-linejoin="round"/>
<path d="M140.243 303.949C140.131 304.278 140.27 304.289 140.303 304.639C140.335 304.99 140.174 305.032 140.329 305.345C140.517 305.717 140.657 305.356 141.183 305.393C141.419 305.409 141.698 305.42 142.015 305.435C142.273 305.446 142.547 305.489 142.847 305.489C143.111 305.489 143.39 305.451 143.685 305.446C143.954 305.446 144.233 305.446 144.523 305.435C144.796 305.425 145.076 305.435 145.36 305.409C145.645 305.382 145.924 305.356 146.171 305.319C146.466 305.276 146.724 305.181 146.96 305.122C147.266 305.048 147.535 305.005 147.749 304.931C148.243 304.761 148.351 304.979 148.469 304.597C148.566 304.278 148.651 304.23 148.512 303.923C148.351 303.562 148.184 303.912 147.696 303.907C147.465 303.907 147.196 303.944 146.901 303.938C146.654 303.938 146.386 303.938 146.107 303.938C145.849 303.938 145.58 303.923 145.312 303.923C145.043 303.923 144.78 303.923 144.512 303.923C144.243 303.923 143.975 303.901 143.712 303.901C143.4 303.901 143.111 303.933 142.842 303.933C142.525 303.933 142.235 303.933 141.972 303.933C141.634 303.933 141.344 303.912 141.103 303.912C140.539 303.912 140.394 303.519 140.249 303.928L140.243 303.949Z" fill="#5E5F6C"/>
<path d="M147.642 245.602C147.712 245.936 147.712 245.315 148.013 245.83C148.388 246.473 148.85 246.881 149.151 247.115C149.715 247.412 150.294 247.709 150.896 247.991C154.89 249.891 158.928 252.121 162.477 252.769C162.708 252.254 162.944 251.739 163.175 251.224L149.913 247.035L147.637 245.602H147.642Z" fill="#5E5F6C"/>
<path d="M137.232 207.29L136.169 208.155C134.972 205.729 134.617 203.457 134.515 202.252C134.472 201.721 134.617 201.28 134.875 201.174C135.149 201.063 135.525 200.925 135.901 200.829C135.901 200.829 136.561 205.936 137.227 207.284L137.232 207.29Z" fill="#5E5F6C"/>
<path d="M134.558 201.148C133.919 201.195 133.345 201.556 133.023 202.103C132.588 202.846 132.48 203.69 132.722 205.023C133.066 206.897 134.574 208.293 134.574 208.293L136.878 207.64C136.878 207.64 135.224 204.216 135.487 202.544L135.723 201.052L134.558 201.142V201.148Z" fill="#FFBF9E"/>
<path d="M134.558 201.148C133.919 201.195 133.345 201.556 133.023 202.103C132.588 202.846 132.48 203.69 132.722 205.023C133.066 206.897 134.574 208.293 134.574 208.293L136.878 207.64C136.878 207.64 135.224 204.216 135.487 202.544L135.723 201.052L134.558 201.142V201.148Z" fill="#262729" fill-opacity="0.2"/>
<path d="M141.248 304.708L140.395 307.622C140.395 307.622 140.69 308.689 143.267 308.907C145.844 309.125 148.062 307.713 148.062 307.713L148.233 304.002C148.233 304.002 146.569 304.692 144.389 304.708C142.209 304.724 141.248 304.708 141.248 304.708Z" fill="#F2F2F5"/>
<path d="M148.984 303.965V307.474C148.984 307.474 150.949 308.844 152.716 308.69C154.482 308.536 155.191 308.69 155.191 308.69L155.443 303.938C155.443 303.938 152.829 304.246 151.857 303.827C149.902 302.988 148.984 303.965 148.984 303.965Z" fill="#F2F2F5"/>
<path d="M110.096 315.244C110.519 315.23 110.956 315.29 111.367 315.363C112.214 315.506 113.02 315.313 113.873 315.217C115.141 315.175 116.383 315.46 117.664 315.285C119.352 315.221 121.037 315.079 122.729 315.125C124.42 315.295 126.089 315.189 127.787 315.198C129.064 315.308 130.31 314.89 131.6 315.051C132.865 315.391 134.104 314.941 135.359 314.973C136.228 314.978 138.321 314.996 139.152 314.996C140.439 315.07 141.643 315.143 142.937 314.969C143.774 314.904 144.625 315.138 145.466 315.111C147.144 314.913 148.842 314.918 150.531 314.964C153.053 314.964 155.586 315.079 158.112 315.125C162.345 315.074 166.546 315.125 170.758 315.189C171.497 315.194 173.812 315.212 174.548 315.221C175.357 315.18 176.259 315.047 177.071 315.083C178.332 314.932 179.6 315.189 180.865 315.217C182.515 315.175 184.273 315.148 185.929 315.221C186.774 315.272 187.602 315.239 188.452 315.203C189.293 315.138 190.14 315.409 190.978 315.419C191.032 315.419 191.074 315.483 191.074 315.556C191.074 315.63 191.032 315.694 190.981 315.694C190.558 315.713 190.118 315.657 189.707 315.589C188.455 315.455 187.184 315.735 185.923 315.671C184.267 315.648 182.531 315.758 180.868 315.827C179.603 315.827 178.355 315.589 177.084 315.768C176.204 315.749 175.434 315.896 174.554 315.956C173.79 315.956 171.56 315.988 170.758 315.997C165.68 315.915 160.634 316.043 155.579 315.983C152.235 315.896 148.804 315.671 145.469 315.979C144.188 315.928 142.981 315.708 141.688 315.928C140.844 315.988 139.987 315.832 139.149 315.832C137.936 315.814 136.563 315.818 135.352 315.781C134.078 315.745 132.801 316.163 131.546 315.795C130.708 315.648 129.915 315.846 129.055 315.901C127.781 315.905 126.529 315.846 125.255 315.878C124.423 315.924 123.544 315.781 122.722 315.735L120.196 315.699C118.511 315.731 116.81 315.933 115.125 315.667C114.714 315.593 114.297 315.584 113.883 315.598C113.058 315.667 112.185 315.841 111.344 315.671C110.921 315.579 110.519 315.515 110.096 315.515C110.041 315.515 110 315.455 110 315.377C110 315.299 110.045 315.239 110.096 315.239V315.244Z" fill="#5E5F6C"/>
<g filter="url(#filter0_dddddd_3761_5851)">
<ellipse cx="207.432" cy="195.348" rx="0.651618" ry="0.977427" transform="rotate(-24.6005 207.432 195.348)" fill="#FFF4CD" fill-opacity="0.3"/>
<ellipse cx="208.432" cy="204.868" rx="0.594289" ry="1.09743" transform="rotate(-42.0415 208.432 204.868)" fill="#FFF4CD" fill-opacity="0.3"/>
<ellipse cx="0.71277" cy="1.04176" rx="0.71277" ry="1.04176" transform="matrix(0.928084 0.372372 -0.396511 0.91803 199.568 185.213)" fill="#FFF4CD" fill-opacity="0.3"/>
<ellipse cx="0.443686" cy="0.648475" rx="0.443686" ry="0.648475" transform="matrix(0.978231 -0.20752 0.181871 0.983322 210.742 164.168)" fill="#FFF4CD" fill-opacity="0.3"/>
<path d="M209.915 206.119C209.635 205.851 209.418 205.355 209.469 205.301C209.52 205.248 210.009 205.459 210.289 205.726C210.57 205.993 210.588 206.16 210.485 206.269C210.382 206.377 210.196 206.386 209.915 206.119Z" fill="#FFF4CD" fill-opacity="0.3"/>
<path d="M198.774 184.999C199.084 185.373 199.214 186.064 199.119 186.137C199.023 186.211 198.385 185.912 198.075 185.538C197.764 185.164 197.801 184.932 197.994 184.783C198.188 184.634 198.463 184.625 198.774 184.999Z" fill="#FFF4CD" fill-opacity="0.3"/>
<path d="M210.256 164.333C210.546 164.419 210.853 164.731 210.829 164.802C210.805 164.873 210.372 164.94 210.082 164.854C209.792 164.768 209.73 164.636 209.779 164.492C209.827 164.348 209.966 164.247 210.256 164.333Z" fill="#FFF4CD" fill-opacity="0.3"/>
<path d="M210.857 204.078C210.122 203.897 209.048 204.009 208.925 204.364C208.802 204.718 209.772 205.128 210.507 205.309C211.242 205.49 211.464 205.375 211.587 205.02C211.71 204.665 211.592 204.259 210.857 204.078Z" fill="#FFF4CD" fill-opacity="0.3"/>
<path d="M201.773 186.173C201.319 186.145 200.704 186.336 200.677 186.568C200.651 186.8 201.272 186.94 201.726 186.968C202.18 186.995 202.296 186.899 202.322 186.667C202.349 186.436 202.228 186.2 201.773 186.173Z" fill="#FFF4CD" fill-opacity="0.3"/>
<path d="M212.214 163.9C211.97 164.043 211.718 164.355 211.785 164.484C211.851 164.613 212.221 164.471 212.465 164.327C212.71 164.184 212.736 164.094 212.67 163.965C212.603 163.836 212.459 163.757 212.214 163.9Z" fill="#FFF4CD" fill-opacity="0.3"/>
<path d="M208.628 202.751C208.634 203.175 208.519 203.792 208.465 203.793C208.358 203.795 208.234 203.254 208.229 202.831C208.223 202.407 208.337 202.26 208.444 202.259C208.551 202.257 208.623 202.327 208.628 202.751Z" fill="#FFF4CD" fill-opacity="0.3"/>
<path d="M197.744 185.487C198.322 185.58 199.11 186.022 199.087 186.157C199.041 186.423 198.251 186.593 197.673 186.5C197.095 186.407 196.946 186.088 196.992 185.821C197.038 185.555 197.166 185.394 197.744 185.487Z" fill="#FFF4CD" fill-opacity="0.3"/>
<path d="M209.894 164.942C210.225 164.79 210.785 164.745 210.82 164.823C210.889 164.977 210.539 165.338 210.208 165.491C209.877 165.643 209.689 165.529 209.621 165.376C209.552 165.222 209.563 165.095 209.894 164.942Z" fill="#FFF4CD" fill-opacity="0.3"/>
<path d="M209.377 202.526C208.903 203.242 208.677 204.398 208.901 204.503C209.308 204.694 210.274 203.997 210.748 203.28C211.223 202.564 211.026 202.1 210.619 201.909C210.213 201.718 209.852 201.81 209.377 202.526Z" fill="#FFF4CD" fill-opacity="0.3"/>
<path d="M201.796 187.215C201.437 186.82 200.761 186.481 200.656 186.584C200.465 186.772 200.725 187.434 201.085 187.829C201.444 188.223 201.766 188.201 201.957 188.013C202.148 187.825 202.156 187.609 201.796 187.215Z" fill="#FFF4CD" fill-opacity="0.3"/>
<path d="M212.588 164.43C212.265 164.351 211.798 164.41 211.78 164.5C211.746 164.663 212.11 164.915 212.433 164.995C212.755 165.074 212.914 164.951 212.948 164.788C212.981 164.624 212.911 164.51 212.588 164.43Z" fill="#FFF4CD" fill-opacity="0.3"/>
<ellipse cx="214.207" cy="171.414" rx="0.86252" ry="1.19749" transform="rotate(-19.1132 214.207 171.414)" fill="#FFF4CD" fill-opacity="0.3"/>
<ellipse cx="202.495" cy="150.951" rx="0.487455" ry="0.676764" transform="rotate(-19.1132 202.495 150.951)" fill="#FFF4CD" fill-opacity="0.3"/>
<ellipse cx="192.645" cy="162.676" rx="0.717818" ry="0.908249" transform="rotate(11.6013 192.645 162.676)" fill="#FFF4CD" fill-opacity="0.3"/>
</g>
<defs>
<filter id="filter0_dddddd_3761_5851" x="181.247" y="139.621" width="44.535" height="77.3895" filterUnits="userSpaceOnUse" color-interpolation-filters="sRGB">
<feFlood flood-opacity="0" result="BackgroundImageFix"/>
<feColorMatrix in="SourceAlpha" type="matrix" values="0 0 0 0 0 0 0 0 0 0 0 0 0 0 0 0 0 0 127 0" result="hardAlpha"/>
<feOffset/>
<feGaussianBlur stdDeviation="0.127034"/>
<feColorMatrix type="matrix" values="0 0 0 0 1 0 0 0 0 1 0 0 0 0 1 0 0 0 1 0"/>
<feBlend mode="normal" in2="BackgroundImageFix" result="effect1_dropShadow_3761_5851"/>
<feColorMatrix in="SourceAlpha" type="matrix" values="0 0 0 0 0 0 0 0 0 0 0 0 0 0 0 0 0 0 127 0" result="hardAlpha"/>
<feOffset/>
<feGaussianBlur stdDeviation="0.254067"/>
<feColorMatrix type="matrix" values="0 0 0 0 1 0 0 0 0 1 0 0 0 0 1 0 0 0 1 0"/>
<feBlend mode="normal" in2="effect1_dropShadow_3761_5851" result="effect2_dropShadow_3761_5851"/>
<feColorMatrix in="SourceAlpha" type="matrix" values="0 0 0 0 0 0 0 0 0 0 0 0 0 0 0 0 0 0 127 0" result="hardAlpha"/>
<feOffset/>
<feGaussianBlur stdDeviation="0.889235"/>
<feColorMatrix type="matrix" values="0 0 0 0 1 0 0 0 0 1 0 0 0 0 1 0 0 0 1 0"/>
<feBlend mode="normal" in2="effect2_dropShadow_3761_5851" result="effect3_dropShadow_3761_5851"/>
<feColorMatrix in="SourceAlpha" type="matrix" values="0 0 0 0 0 0 0 0 0 0 0 0 0 0 0 0 0 0 127 0" result="hardAlpha"/>
<feOffset/>
<feGaussianBlur stdDeviation="1.77847"/>
<feColorMatrix type="matrix" values="0 0 0 0 1 0 0 0 0 1 0 0 0 0 1 0 0 0 1 0"/>
<feBlend mode="normal" in2="effect3_dropShadow_3761_5851" result="effect4_dropShadow_3761_5851"/>
<feColorMatrix in="SourceAlpha" type="matrix" values="0 0 0 0 0 0 0 0 0 0 0 0 0 0 0 0 0 0 127 0" result="hardAlpha"/>
<feOffset/>
<feGaussianBlur stdDeviation="3.04881"/>
<feColorMatrix type="matrix" values="0 0 0 0 1 0 0 0 0 1 0 0 0 0 1 0 0 0 1 0"/>
<feBlend mode="normal" in2="effect4_dropShadow_3761_5851" result="effect5_dropShadow_3761_5851"/>
<feColorMatrix in="SourceAlpha" type="matrix" values="0 0 0 0 0 0 0 0 0 0 0 0 0 0 0 0 0 0 127 0" result="hardAlpha"/>
<feOffset/>
<feGaussianBlur stdDeviation="5.33541"/>
<feColorMatrix type="matrix" values="0 0 0 0 1 0 0 0 0 1 0 0 0 0 1 0 0 0 1 0"/>
<feBlend mode="normal" in2="effect5_dropShadow_3761_5851" result="effect6_dropShadow_3761_5851"/>
<feBlend mode="normal" in="SourceGraphic" in2="effect6_dropShadow_3761_5851" result="shape"/>
</filter>
</defs>
</svg>
