<svg width="2879" height="2347" viewBox="0 0 2879 2347" fill="none" xmlns="http://www.w3.org/2000/svg">
<path opacity="0.6" d="M1362.73 801.342H1177.25C1159.58 801.342 1145.25 787.015 1145.25 769.342V586.545C1145.25 568.872 1130.92 554.545 1113.25 554.545H897.844" stroke="#AEB7E2" stroke-width="8" stroke-linecap="round"/>
<path opacity="0.6" d="M1513.37 356.709H1876.49" stroke="#AEB7E2" stroke-width="8" stroke-linecap="round" stroke-dasharray="12 16"/>
<path opacity="0.6" d="M1417.59 801.342H2012.16" stroke="#AEB7E2" stroke-width="8" stroke-linecap="round" stroke-dasharray="1 16"/>
<path opacity="0.6" d="M2071.77 801.834H2830.77" stroke="#AEB7E2" stroke-width="8" stroke-linecap="round"/>
<path opacity="0.6" d="M1466.27 341.721L1398.51 273.859C1389.51 264.841 1377.29 259.773 1364.54 259.773H615.531" stroke="#AEB7E2" stroke-width="8" stroke-linecap="round" stroke-linejoin="round"/>
<path opacity="0.6" d="M866.422 1772.04L635.395 1538.25C629.384 1532.17 621.187 1528.74 612.634 1528.74L508.782 1528.74" stroke="#AEB7E2" stroke-width="8" stroke-linecap="round" stroke-linejoin="round"/>
<path opacity="0.6" d="M1386.67 829.318V979.943C1386.67 988.422 1383.3 996.553 1377.31 1002.55L1163.2 1217" stroke="#AEB7E2" stroke-width="8" stroke-linecap="round"/>
<ellipse opacity="0.7" cx="1899.44" cy="355.71" rx="11.9712" ry="11.9901" stroke="#AEB7E2" stroke-width="8"/>
<ellipse opacity="0.7" cx="1899.44" cy="126.898" rx="11.9712" ry="11.9901" stroke="#AEB7E2" stroke-width="8"/>
<ellipse opacity="0.7" cx="1490.42" cy="355.71" rx="11.9712" ry="11.9901" stroke="#AEB7E2" stroke-width="8"/>
<ellipse opacity="0.7" cx="592.588" cy="261.787" rx="11.9712" ry="11.9901" stroke="#AEB7E2" stroke-width="8"/>
<ellipse opacity="0.7" cx="15.9712" cy="15.9901" rx="11.9712" ry="11.9901" stroke="#AEB7E2" stroke-width="8"/>
<ellipse opacity="0.7" cx="870.909" cy="553.547" rx="11.9712" ry="11.9901" stroke="#AEB7E2" stroke-width="8"/>
<ellipse opacity="0.7" cx="1385.67" cy="801.342" rx="11.9712" ry="11.9901" stroke="#AEB7E2" stroke-width="8"/>
<path opacity="0.6" d="M1921.38 355.709H2007.1C2024.77 355.709 2039.1 370.036 2039.1 387.709V774.364" stroke="#AEB7E2" stroke-width="8" stroke-linecap="round"/>
<path opacity="0.6" d="M1899.44 330.73L1899.44 153.876" stroke="#AEB7E2" stroke-width="8" stroke-linecap="round"/>
<path opacity="0.6" d="M845.977 553.547H624.586C606.913 553.547 592.586 539.22 592.586 521.547V287.766" stroke="#AEB7E2" stroke-width="8" stroke-linecap="round" stroke-dasharray="1 16"/>
<path opacity="0.6" d="M567.647 261.788H399.129C381.456 261.788 367.129 247.461 367.129 229.788V47.9902C367.129 30.3171 352.802 15.9902 335.129 15.9902H40.9141" stroke="#AEB7E2" stroke-width="8" stroke-linecap="round"/>
<path opacity="0.6" d="M483.847 1215V765.398C483.847 747.725 469.521 733.398 451.847 733.398H303.281" stroke="#AEB7E2" stroke-width="8" stroke-linecap="round" stroke-dasharray="12 16"/>
<ellipse opacity="0.7" cx="2039.1" cy="801.342" rx="11.9712" ry="11.9901" stroke="#AEB7E2" stroke-width="8"/>
<ellipse opacity="0.7" cx="2862.74" cy="801.342" rx="11.9712" ry="11.9901" stroke="#AEB7E2" stroke-width="8"/>
<ellipse opacity="0.7" cx="2039.1" cy="1406.84" rx="11.9712" ry="11.9901" stroke="#AEB7E2" stroke-width="8"/>
<ellipse opacity="0.7" cx="2039.1" cy="1120.08" rx="11.9712" ry="11.9901" stroke="#AEB7E2" stroke-width="8"/>
<ellipse opacity="0.7" cx="482.846" cy="1235.98" rx="11.9712" ry="11.9901" stroke="#AEB7E2" stroke-width="8"/>
<ellipse opacity="0.7" cx="279.338" cy="733.398" rx="11.9712" ry="11.9901" stroke="#AEB7E2" stroke-width="8"/>
<path opacity="0.6" d="M2039.1 829.318V1092.1" stroke="#AEB7E2" stroke-width="8" stroke-linecap="round"/>
<path opacity="0.6" d="M506.789 1236.98L1116.32 1236.98" stroke="#AEB7E2" stroke-width="8" stroke-linecap="round"/>
<path opacity="0.6" d="M1165.2 1899.44H1502.39" stroke="#AEB7E2" stroke-width="8" stroke-linecap="round"/>
<path opacity="0.6" d="M1643.05 1406.84H2013.16" stroke="#AEB7E2" stroke-width="8" stroke-linecap="round"/>
<path opacity="0.6" d="M1616.12 1436.82V1803.27C1616.12 1811.74 1612.76 1819.88 1606.77 1825.88L1546.29 1886.45" stroke="#AEB7E2" stroke-width="8" stroke-linecap="round"/>
<path opacity="0.6" d="M1176.17 1236.98H1481.36C1499.03 1236.98 1513.36 1251.31 1513.36 1268.98V1374.84C1513.36 1392.52 1527.69 1406.84 1545.36 1406.84H1590.18" stroke="#AEB7E2" stroke-width="8" stroke-linecap="round" stroke-dasharray="12 16"/>
<path opacity="0.6" d="M1143.26 2264.14V2298.08C1143.26 2315.76 1157.58 2330.08 1175.26 2330.08H1354.75" stroke="#AEB7E2" stroke-width="8" stroke-linecap="round" stroke-dasharray="12 16"/>
<ellipse opacity="0.7" cx="482.846" cy="1527.74" rx="11.9712" ry="11.9901" stroke="#AEB7E2" stroke-width="8"/>
<ellipse opacity="0.7" cx="883.878" cy="1791.53" rx="11.9712" ry="11.9901" stroke="#AEB7E2" stroke-width="8"/>
<ellipse opacity="0.7" cx="1142.26" cy="1235.98" rx="11.9712" ry="11.9901" stroke="#AEB7E2" stroke-width="8"/>
<ellipse opacity="0.7" cx="1615.12" cy="1406.84" rx="11.9712" ry="11.9901" stroke="#AEB7E2" stroke-width="8"/>
<ellipse opacity="0.7" cx="1142.26" cy="1567.71" rx="11.9712" ry="11.9901" stroke="#AEB7E2" stroke-width="8"/>
<ellipse opacity="0.7" cx="1523.34" cy="1899.44" rx="11.9712" ry="11.9901" stroke="#AEB7E2" stroke-width="8"/>
<path opacity="0.6" d="M1142.26 1263.96V1539.73" stroke="#AEB7E2" stroke-width="8" stroke-linecap="round"/>
<ellipse opacity="0.7" cx="1142.26" cy="1899.44" rx="11.9712" ry="11.9901" stroke="#AEB7E2" stroke-width="8"/>
<ellipse opacity="0.7" cx="1142.26" cy="2231.17" rx="11.9712" ry="11.9901" stroke="#AEB7E2" stroke-width="8"/>
<ellipse opacity="0.7" cx="1385.67" cy="2330.08" rx="11.9712" ry="11.9901" stroke="#AEB7E2" stroke-width="8"/>
<path opacity="0.6" d="M1142.26 1595.69V1871.46" stroke="#AEB7E2" stroke-width="8" stroke-linecap="round"/>
<path opacity="0.6" d="M1142.26 1927.42V2203.19" stroke="#AEB7E2" stroke-width="8" stroke-linecap="round"/>
<path opacity="0.6" d="M2038.6 1144.81C2031.68 1152.01 2031.68 1159.21 2038.6 1166.41C2045.52 1173.61 2045.52 1180.81 2038.6 1188.01C2031.68 1195.21 2031.68 1202.4 2038.6 1209.6C2045.52 1216.8 2045.52 1224 2038.6 1231.2C2031.68 1238.4 2031.68 1245.6 2038.6 1252.8C2045.52 1260 2045.52 1267.2 2038.6 1274.4C2031.68 1281.6 2031.68 1288.8 2038.6 1296C2045.52 1303.2 2045.52 1310.4 2038.6 1317.6C2031.68 1324.8 2031.68 1332 2038.6 1339.2C2045.52 1346.4 2045.52 1353.59 2038.6 1360.79C2031.68 1367.99 2031.68 1375.19 2038.6 1382.39" stroke="#AEB7E2" stroke-width="8" stroke-linecap="round"/>
<path opacity="0.6" d="M480.555 1263.96C473.638 1271.16 473.638 1278.36 480.555 1285.56C487.471 1292.76 487.471 1299.96 480.555 1307.16C473.638 1314.36 473.638 1321.56 480.555 1328.76C487.471 1335.96 487.471 1343.16 480.555 1350.36C473.638 1357.55 473.638 1364.75 480.555 1371.95C487.471 1379.15 487.471 1386.35 480.555 1393.55C473.638 1400.75 473.638 1407.95 480.555 1415.15C487.471 1422.35 487.471 1429.55 480.555 1436.75C473.638 1443.95 473.638 1451.15 480.555 1458.35C487.471 1465.55 487.471 1472.75 480.555 1479.95C473.638 1487.15 473.638 1494.35 480.555 1501.54" stroke="#AEB7E2" stroke-width="8" stroke-linecap="round"/>
<path opacity="0.6" d="M884.875 1815.51V1867.94C884.875 1885.61 899.202 1899.94 916.875 1899.94H1114.32" stroke="#AEB7E2" stroke-width="8" stroke-linecap="round"/>
</svg>
