<?xml version="1.0" encoding="UTF-8"?>
<svg xmlns="http://www.w3.org/2000/svg" viewBox="0 0 2667 3424">
  <g style="isolation: isolate;">
    <g id="topographic-bottom">
      <g>
        <g style="mix-blend-mode: multiply;">
          <path d="M2042.18,2338.09h50.46l420.72,5.44c12.98.17,25.48-4.93,34.64-14.13l66.73-67.03c8.95-9,13.98-21.17,13.98-33.87v-178.09c0-12.7-5.03-24.87-13.98-33.87l-13.75-13.81c-8.95-8.99-13.98-21.17-13.98-33.86v-186.34c0-12.69,5.03-24.87,13.98-33.86l52.04-52.27c8.95-8.99,13.98-21.17,13.98-33.86v-456.28c0-12.69-5.03-24.87-13.98-33.86l-76.65-77c-8.96-9-13.99-21.17-13.99-33.87v-57.21c0-12.69-5.02-24.87-13.98-33.86l-32.21-32.35c-8.95-9-13.98-21.17-13.98-33.86v-501.82c0-12.57-4.93-24.63-13.73-33.61L2140.94,14.39c-9.03-9.21-21.38-14.39-34.27-14.39h-513.75c-12.76,0-25.01,5.09-34.01,14.14l-97.76,98.2c-8.96,9-13.99,21.17-13.99,33.87v55.13c0,26.51-21.49,48-48,48h-81.79c-12.77,0-25.01,5.09-34.02,14.14l-66.99,67.29c-8.96,9-13.98,21.17-13.98,33.86v48.25c0,14.61,6.66,28.43,18.08,37.54l205.26,163.59c21.4,17.06,24.23,48.52,6.23,69.12l-215.23,246.27c-9.11,10.43-22.29,16.41-36.14,16.41h-574.95c-13.61,0-26.58,5.78-35.68,15.89L93.32,1491.31c-7.93,8.81-12.32,20.25-12.32,32.11v301.58c0,26.51,21.49,48,48,48h94.09c26.51,0,48,21.49,48,48v336c0,26.51,21.49,48,48,48h1130.91c26.51,0,48,21.49,48,48v11c0,26.51-21.49,48-48,48H430.5c-26.51,0-48,21.49-48,48v93.5c0,26.51,21.49,48,48,48h15.3c12.87,0,25.2,5.17,34.22,14.34l227.47,231.29c8.83,8.98,13.78,21.07,13.78,33.66v293.59c0,13.75,5.9,26.84,16.2,35.95l227.91,201.62c8.78,7.76,20.09,12.05,31.8,12.05h377.37c26.51,0,48-21.49,48-48v-211.03c0-12.78,5.1-25.04,14.16-34.05l165.87-164.84c9.06-9.01,14.16-21.27,14.16-34.05v-70.08c0-11.58,4.18-22.76,11.77-31.49l211.83-243.7c9.11-10.49,22.33-16.51,36.23-16.51h23.43c26.51,0,48-21.49,48-48v-63.59c0-25.77-20.89-46.66-46.66-46.66s-46.65-20.89-46.65-46.66v-148.34c0-26.51,21.49-48,48-48h43.49c26.51,0,48,21.49,48,48v73.09c0,26.51,21.49,48,48,48Z" style="fill: #bcbdd2;"/>
        </g>
        <g style="mix-blend-mode: multiply;">
          <path d="M113.37,1358.63l56.63-56.63,140.47-138.6c6.09-6.01,9.53-14.22,9.53-22.78v-198.62c0-17.67-14.33-32-32-32h-148.75c-8.49,0-16.63,3.37-22.63,9.37l-107.25,107.25c-6,6-9.37,14.14-9.37,22.63v286.74c0,17.67,14.33,32,32,32h58.75c8.49,0,16.63-3.37,22.63-9.37Z" style="fill: #bcbdd2;"/>
        </g>
      </g>
    </g>
    <g id="topographic-top">
      <g>
        <g style="mix-blend-mode: multiply;">
          <path d="M316,1789v-212c0-26.51-21.49-48-48-48h-44.12c-12.73,0-24.94,5.06-33.94,14.06l-25.88,25.88c-9,9-14.06,21.21-14.06,33.94v186.12c0,26.51,21.49,48,48,48h70c26.51,0,48-21.49,48-48Z" style="fill: #8794d4;"/>
        </g>
        <g style="mix-blend-mode: multiply;">
          <path d="M1232,1359.23v-92.23c0-26.51,21.49-48,48-48h252.12c12.73,0,24.94-5.06,33.94-14.06l142.88-142.88c9-9,21.21-14.06,33.94-14.06h133.24c12.73,0,24.94-5.06,33.94-14.06l88.88-88.88c9-9,21.21-14.06,33.94-14.06h376.12c26.51,0,48,21.49,48,48v147.12c0,12.73,5.06,24.94,14.06,33.94l80.38,80.38c9,9,14.06,21.21,14.06,33.94v289.24c0,12.73-5.06,24.94-14.06,33.94l-83.48,83.48c-7.02,7.02-16.54,10.96-26.46,10.96s-19.44,3.94-26.46,10.96l-311.98,311.98c-9,9-21.21,14.06-33.94,14.06h-332.12c-26.51,0-48-21.49-48-48v-244.22c0-13.26-5.48-25.93-15.15-35l-199-186.78c-8.9-8.35-20.64-13-32.85-13h-68c-12.8,0-25.07-5.11-34.08-14.2l-94-94.77c-8.92-8.99-13.92-21.14-13.92-33.8Z" style="fill: #8794d4;"/>
        </g>
        <g style="mix-blend-mode: multiply;">
          <path d="M400,1630.62v-178.79c0-12.1,4.57-23.76,12.8-32.64l252.95-272.83c9.08-9.8,21.84-15.36,35.2-15.36h289.16c12.73,0,24.94,5.06,33.94,14.06l35.38,35.38c9,9,14.06,21.21,14.06,33.94v198.67c0,12.77,5.09,25.01,14.14,34.02l190.31,189.45c9,8.95,21.18,13.98,33.87,13.98h67.95c11.74,0,23.08,4.3,31.86,12.1l94.73,84.08c10.27,9.11,16.14,22.18,16.14,35.9v205.79c0,12.28-4.71,24.1-13.16,33.02l-207.14,218.62c-9.07,9.57-21.67,14.99-34.84,14.99h-342.48c-12.73,0-24.94-5.06-33.94-14.06l-219.38-219.38c-9-9-14.06-21.21-14.06-33.94v-59.74c0-12.73-5.06-24.94-14.06-33.94l-229.38-229.38c-9-9-14.06-21.21-14.06-33.94Z" style="fill: #8794d4;"/>
        </g>
      </g>
    </g>
    <g id="lines">
      <g>
        <path d="M1258,1869h-186c-17.67,0-32-14.33-32-32v-183c0-17.67-14.33-32-32-32h-216" style="fill: none; isolation: isolate; opacity: .45; stroke: #8794d4; stroke-linecap: round; stroke-width: 8px;"/>
        <path d="M1409,1424h364" style="fill: none; isolation: isolate; opacity: .45; stroke: #8794d4; stroke-dasharray: 12 16; stroke-linecap: round; stroke-width: 8px;"/>
        <path d="M1313,1869h596" style="fill: none; isolation: isolate; opacity: .45; stroke: #8794d4; stroke-dasharray: 1 16; stroke-linecap: round; stroke-width: 8px;"/>
        <path d="M1969,1869h596" style="fill: none; isolation: isolate; opacity: .45; stroke: #8794d4; stroke-linecap: round; stroke-width: 8px;"/>
        <path d="M1361.78,1409l-67.95-67.96c-9.01-9-21.21-14.06-33.95-14.06H509" style="fill: none; isolation: isolate; opacity: .45; stroke: #8794d4; stroke-linecap: round; stroke-linejoin: round; stroke-width: 8px;"/>
        <path d="M1282,1897v150.75c0,8.48-3.37,16.62-9.37,22.62l-214.63,214.63" style="fill: none; isolation: isolate; opacity: .45; stroke: #8794d4; stroke-linecap: round; stroke-width: 8px;"/>
        <circle cx="1796" cy="1423" r="12" style="fill: #292b6a; isolation: isolate; opacity: .45; stroke: #8794d4; stroke-width: 8px;"/>
        <circle cx="1796" cy="1194" r="12" style="fill: #292b6a; isolation: isolate; opacity: .45; stroke: #8794d4; stroke-width: 8px;"/>
        <circle cx="1386" cy="1423" r="12" style="fill: #292b6a; isolation: isolate; opacity: .45; stroke: #8794d4; stroke-width: 8px;"/>
        <circle cx="486" cy="1329" r="12" style="fill: #292b6a; isolation: isolate; opacity: .45; stroke: #8794d4; stroke-width: 8px;"/>
        <circle cx="765" cy="1621" r="12" style="fill: #292b6a; isolation: isolate; opacity: .45; stroke: #8794d4; stroke-width: 8px;"/>
        <circle cx="1281" cy="1869" r="12" style="fill: #292b6a; isolation: isolate; opacity: .45; stroke: #8794d4; stroke-width: 8px;"/>
        <path d="M1818,1423h86c17.67,0,32,14.33,32,32v387" style="fill: none; isolation: isolate; opacity: .45; stroke: #8794d4; stroke-linecap: round; stroke-width: 8px;"/>
        <path d="M1796,1398v-177" style="fill: none; isolation: isolate; opacity: .45; stroke: #8794d4; stroke-linecap: round; stroke-width: 8px;"/>
        <path d="M740,1621h-222c-17.67,0-32-14.33-32-32v-234" style="fill: none; isolation: isolate; opacity: .45; stroke: #8794d4; stroke-dasharray: 1 16; stroke-linecap: round; stroke-width: 8px;"/>
        <path d="M461,1329h-169c-17.67,0-32-14.33-32-32v-182c0-17.67-14.33-32-32-32h-126" style="fill: none; isolation: isolate; opacity: .45; stroke: #8794d4; stroke-linecap: round; stroke-width: 8px;"/>
        <path d="M377,2283v-450c0-17.67-14.33-32-32-32h-149" style="fill: none; isolation: isolate; opacity: .45; stroke: #8794d4; stroke-dasharray: 12 16; stroke-linecap: round; stroke-width: 8px;"/>
        <circle cx="1936" cy="1869" r="12" style="fill: #292b6a; isolation: isolate; opacity: .45; stroke: #8794d4; stroke-width: 8px;"/>
        <path d="M1936,1897v263" style="fill: none; isolation: isolate; opacity: .45; stroke: #8794d4; stroke-linecap: round; stroke-width: 8px;"/>
      </g>
    </g>
  </g>
</svg>