<svg width="1920" height="1096" viewBox="0 0 1920 1096" fill="none" xmlns="http://www.w3.org/2000/svg">
<g style="mix-blend-mode:multiply">
<path d="M1826.18 1488.09L1876.64 1488.09L2297.36 1493.53C2310.34 1493.7 2322.84 1488.6 2332 1479.4L2398.73 1412.37C2407.68 1403.37 2412.71 1391.2 2412.71 1378.5L2412.71 1200.41C2412.71 1187.71 2407.68 1175.54 2398.73 1166.54L2384.98 1152.73C2376.03 1143.74 2371 1131.56 2371 1118.87L2371 932.528C2371 919.835 2376.03 907.659 2384.98 898.663L2437.02 846.391C2445.97 837.396 2451 825.22 2451 812.527L2451 356.249C2451 343.556 2445.97 331.38 2437.02 322.385L2360.37 245.386C2351.41 236.39 2346.38 224.214 2346.38 211.521L2346.38 154.311C2346.38 141.618 2341.36 129.442 2332.4 120.447L2300.19 88.0937C2291.24 79.0983 2286.21 66.9221 2286.21 54.2293L2286.21 -447.593C2286.21 -460.161 2281.28 -472.227 2272.48 -481.2L1924.94 -835.608C1915.91 -844.813 1903.56 -850 1890.67 -850L1376.92 -850C1364.16 -850 1351.91 -844.913 1342.91 -835.864L1245.15 -737.663C1236.19 -728.667 1231.16 -716.491 1231.16 -703.798L1231.16 -648.668C1231.16 -622.159 1209.67 -600.668 1183.16 -600.668L1101.37 -600.668C1088.6 -600.668 1076.36 -595.581 1067.35 -586.533L1000.36 -519.24C991.404 -510.244 986.376 -498.068 986.376 -485.376L986.376 -437.124C986.376 -422.512 993.033 -408.695 1004.46 -399.588L1209.72 -235.996C1231.12 -218.941 1233.95 -187.476 1215.95 -166.872L1000.72 79.3983C991.606 89.828 978.43 95.8116 964.578 95.8116L389.63 95.8116C376.022 95.8116 363.054 101.587 353.951 111.702L-122.678 641.309C-130.611 650.123 -135 661.561 -135 673.419L-135 975C-135 1001.51 -113.51 1023 -87 1023L7.08694 1023C33.5967 1023 55.0869 1044.49 55.0869 1071L55.0872 1407C55.0872 1433.51 76.5774 1455 103.087 1455L138 1455L289.271 1455L1234 1455C1260.51 1455 1282 1476.49 1282 1503L1282 1514C1282 1540.51 1260.51 1562 1234 1562L214.5 1562C187.99 1562 166.5 1583.49 166.5 1610L166.5 1703.5C166.5 1730.01 187.99 1751.5 214.5 1751.5L229.805 1751.5C242.674 1751.5 255.004 1756.67 264.028 1765.84L491.494 1997.13C500.323 2006.11 505.271 2018.2 505.271 2030.79L505.271 2324.38C505.271 2338.13 511.168 2351.22 521.467 2360.33L749.38 2561.95C758.156 2569.71 769.468 2574 781.184 2574L1158.55 2574C1185.06 2574 1206.55 2552.51 1206.55 2526L1206.55 2314.97C1206.55 2302.19 1211.65 2289.93 1220.71 2280.92L1386.58 2116.08C1395.64 2107.07 1400.74 2094.81 1400.74 2082.03L1400.74 2011.95C1400.74 2000.37 1404.92 1989.19 1412.51 1980.46L1624.34 1736.76C1633.45 1726.27 1646.67 1720.25 1660.57 1720.25L1684 1720.25C1710.51 1720.25 1732 1698.76 1732 1672.25L1732 1608.66C1732 1582.89 1711.11 1562 1685.34 1562C1659.58 1562 1638.69 1541.11 1638.69 1515.34L1638.69 1367C1638.69 1340.49 1660.18 1319 1686.69 1319L1730.18 1319C1756.69 1319 1778.18 1340.49 1778.18 1367L1778.18 1440.09C1778.18 1466.6 1799.67 1488.09 1826.18 1488.09Z" fill="#BCBDD2"/>
</g>
<g style="mix-blend-mode:multiply">
<path d="M100 939V727C100 700.49 78.5097 679 52 679H7.88226C-4.84814 679 -17.0571 684.057 -26.0589 693.059L-51.9411 718.941C-60.9429 727.943 -66 740.152 -66 752.882V939C-66 965.51 -44.5097 987 -18 987H52C78.5097 987 100 965.51 100 939Z" fill="#8794D4"/>
</g>
<g style="mix-blend-mode:multiply">
<path d="M-102.627 508.627L-46 452L94.475 313.398C100.569 307.385 104 299.181 104 290.619V92C104 74.3269 89.6731 60 72 60H-76.7452C-85.2321 60 -93.3714 63.3714 -99.3726 69.3726L-206.627 176.627C-212.629 182.629 -216 190.768 -216 199.255V486C-216 503.673 -201.673 518 -184 518H-125.255C-116.768 518 -108.629 514.629 -102.627 508.627Z" fill="#BCBDD2"/>
</g>
<g style="mix-blend-mode:multiply">
<path d="M1016 509.232V417C1016 390.49 1037.49 369 1064 369H1316.12C1328.85 369 1341.06 363.943 1350.06 354.941L1492.94 212.059C1501.94 203.057 1514.15 198 1526.88 198H1660.12C1672.85 198 1685.06 192.943 1694.06 183.941L1782.94 95.0589C1791.94 86.0571 1804.15 81 1816.88 81H2193C2219.51 81 2241 102.49 2241 129V276.118C2241 288.848 2246.06 301.057 2255.06 310.059L2335.44 390.441C2344.44 399.443 2349.5 411.652 2349.5 424.382V713.618C2349.5 726.348 2344.44 738.557 2335.44 747.559L2251.96 831.04C2244.94 838.057 2235.42 842 2225.5 842C2215.58 842 2206.06 845.943 2199.04 852.96L1887.06 1164.94C1878.06 1173.94 1865.85 1179 1853.12 1179H1521C1494.49 1179 1473 1157.51 1473 1131V1077V886.779C1473 873.521 1467.52 860.853 1457.85 851.78L1258.85 665.001C1249.95 656.649 1238.21 652 1226 652H1158C1145.2 652 1132.93 646.889 1123.92 637.802L1029.92 543.035C1021 534.044 1016 521.895 1016 509.232Z" fill="#8794D4"/>
</g>
<g style="mix-blend-mode:multiply">
<path d="M184 780.618V601.828C184 589.725 188.572 578.069 196.801 569.193L449.754 296.365C458.838 286.568 471.593 281 484.953 281H774.118C786.848 281 799.057 286.057 808.059 295.059L843.441 330.441C852.443 339.443 857.5 351.652 857.5 364.382V563.053C857.5 575.822 862.587 588.064 871.637 597.072L1061.95 786.519C1070.95 795.473 1083.13 800.5 1095.82 800.5H1163.77C1175.51 800.5 1186.85 804.805 1195.63 812.6L1290.36 896.677C1300.63 905.787 1306.5 918.854 1306.5 932.577V1138.37C1306.5 1150.65 1301.79 1162.47 1293.34 1171.39L1086.2 1390.01C1077.13 1399.58 1064.53 1405 1051.36 1405H708.882C696.152 1405 683.943 1399.94 674.941 1390.94L455.559 1171.56C446.557 1162.56 441.5 1150.35 441.5 1137.62V1077.88C441.5 1065.15 436.443 1052.94 427.441 1043.94L198.059 814.559C189.057 805.557 184 793.348 184 780.618Z" fill="#8794D4"/>
</g>
<path opacity="0.45" d="M1042 1019H856C838.327 1019 824 1004.67 824 987V804C824 786.327 809.673 772 792 772H576" stroke="#8794D4" stroke-width="8" stroke-linecap="round"/>
<path opacity="0.45" d="M1193 574H1557" stroke="#8794D4" stroke-width="8" stroke-linecap="round" stroke-dasharray="12 16"/>
<path opacity="0.45" d="M1097 1019H1693" stroke="#8794D4" stroke-width="8" stroke-linecap="round" stroke-dasharray="1 16"/>
<path opacity="0.45" d="M1753 1019H2349" stroke="#8794D4" stroke-width="8" stroke-linecap="round"/>
<path opacity="0.45" d="M1145.78 558.999L1077.83 491.043C1068.82 482.041 1056.62 476.984 1043.88 476.984H293" stroke="#8794D4" stroke-width="8" stroke-linecap="round" stroke-linejoin="round"/>
<path opacity="0.45" d="M1066 1047V1197.75C1066 1206.23 1062.63 1214.37 1056.63 1220.37L842 1435" stroke="#8794D4" stroke-width="8" stroke-linecap="round"/>
<circle opacity="0.45" cx="1580" cy="573" r="12" fill="#292B6A" stroke="#8794D4" stroke-width="8"/>
<circle opacity="0.45" cx="1580" cy="344" r="12" fill="#292B6A" stroke="#8794D4" stroke-width="8"/>
<circle opacity="0.45" cx="1170" cy="573" r="12" fill="#292B6A" stroke="#8794D4" stroke-width="8"/>
<circle opacity="0.45" cx="270" cy="479" r="12" fill="#292B6A" stroke="#8794D4" stroke-width="8"/>
<circle opacity="0.45" cx="549" cy="771" r="12" fill="#292B6A" stroke="#8794D4" stroke-width="8"/>
<circle opacity="0.45" cx="1065" cy="1019" r="12" fill="#292B6A" stroke="#8794D4" stroke-width="8"/>
<path opacity="0.45" d="M1602 573H1688C1705.67 573 1720 587.327 1720 605V992" stroke="#8794D4" stroke-width="8" stroke-linecap="round"/>
<path opacity="0.45" d="M1580 548L1580 371" stroke="#8794D4" stroke-width="8" stroke-linecap="round"/>
<path opacity="0.45" d="M524 771H302C284.327 771 270 756.673 270 739V505" stroke="#8794D4" stroke-width="8" stroke-linecap="round" stroke-dasharray="1 16"/>
<path opacity="0.45" d="M245 479H76C58.3269 479 44 464.673 44 447V265C44 247.327 29.6731 233 12 233H-114" stroke="#8794D4" stroke-width="8" stroke-linecap="round"/>
<path opacity="0.45" d="M161 1433V983C161 965.327 146.673 951 129 951H-20" stroke="#8794D4" stroke-width="8" stroke-linecap="round" stroke-dasharray="12 16"/>
<circle opacity="0.45" cx="1720" cy="1019" r="12" fill="#292B6A" stroke="#8794D4" stroke-width="8"/>
<path opacity="0.45" d="M1720 1047V1310" stroke="#8794D4" stroke-width="8" stroke-linecap="round"/>
</svg>
