<svg xmlns="http://www.w3.org/2000/svg" viewBox="0 0 62.43 63.27"><defs><linearGradient id="New_Gradient_Swatch_1" x1="64.01" y1="30.27" x2="32.99" y2="54.48" gradientUnits="userSpaceOnUse"><stop offset=".18" stop-color="#0052cc"/><stop offset="1" stop-color="#2684ff"/></linearGradient><style></style></defs><g id="Layer_2" data-name="Layer 2"><g id="Blue"><path fill="none" d="M24.7 43.51h13.05l3.15-18.39H21.23l3.47 18.39z"/><path d="M2 6.26a2 2 0 00-2 2.32l8.49 51.54a2.72 2.72 0 002.66 2.27h40.73a2 2 0 002-1.68l8.49-52.12a2 2 0 00-2-2.32zm35.75 37.25h-13l-3.52-18.39H40.9z" fill="#2684ff"/><path d="M59.67 25.12H40.9l-3.15 18.39h-13L9.4 61.73a2.71 2.71 0 001.75.66h40.74a2 2 0 002-1.68z" fill="url(#New_Gradient_Swatch_1)"/></g></g></svg>