<?xml version="1.0" encoding="utf-8"?>
<!-- Generator: Adobe Illustrator 23.0.1, SVG Export Plug-In . SVG Version: 6.00 Build 0)  -->
<svg version="1.1" id="camera" xmlns="http://www.w3.org/2000/svg" xmlns:xlink="http://www.w3.org/1999/xlink" x="0px" y="0px"
	 width="16px" height="16px" viewBox="0 0 16 16" enable-background="new 0 0 16 16" xml:space="preserve">
<path fill-rule="evenodd" clip-rule="evenodd" fill="#181E53" d="M14,4.5h-2l-1.6997681-2.1246948
	C10.1104736,2.1380615,9.8231812,2,9.5193481,2H6.4806519c-0.303833,0-0.5911255,0.1380615-0.7808838,0.3753052L4,4.5H2
	c-0.5523071,0-1,0.4476929-1,1v7c0,0.5522461,0.4476929,1,1,1h12c0.5523071,0,1-0.4477539,1-1v-7
	C15,4.9476929,14.5523071,4.5,14,4.5z M8,11.1963501c-1.416687,0-2.5-1.083374-2.5-2.5c0-1.416687,1.083313-2.5,2.5-2.5
	s2.5,1.083313,2.5,2.5C10.5,10.1129761,9.416687,11.1963501,8,11.1963501z"/>
</svg>
