<?xml version="1.0" encoding="utf-8"?>
<!-- Generator: Adobe Illustrator 23.0.1, SVG Export Plug-In . SVG Version: 6.00 Build 0)  -->
<svg version="1.1" id="print" xmlns="http://www.w3.org/2000/svg" xmlns:xlink="http://www.w3.org/1999/xlink" x="0px" y="0px"
	 width="16px" height="16px" viewBox="0 0 16 16" enable-background="new 0 0 16 16" xml:space="preserve">
<path fill-rule="evenodd" clip-rule="evenodd" fill="#181E53" d="M14.2000122,5.6000366H1.7999878
	C1.3581543,5.6000366,1,5.9581909,1,6.4000244v5.1999512c0,0.4417725,0.3581543,0.7999878,0.7999878,0.7999878H4v1.8000488
	C4,14.6417847,4.3581543,15,4.7999878,15h6.4000244C11.6418457,15,12,14.6417847,12,14.2000122v-1.8000488h2.2000122
	C14.6418457,12.3999634,15,12.041748,15,11.5999756V6.4000244C15,5.9581909,14.6418457,5.6000366,14.2000122,5.6000366z
	 M10.6000366,13.6000366H5.3999634V8.3999634h5.2000732V13.6000366z"/>
<path fill-rule="evenodd" clip-rule="evenodd" fill="#181E53" d="M11.1999998,1H4.8000002C4.3581724,1,4,1.3581722,4,1.8v2.4000366
	h8V1.8C12,1.3581722,11.6418276,1,11.1999998,1z"/>
</svg>
