<svg width="73" height="145" viewBox="0 0 73 145" fill="none" xmlns="http://www.w3.org/2000/svg">
<path d="M23.3217 6.30176C23.3217 6.82904 23.3845 6.82904 23.3845 7.35632C23.3845 7.88359 23.3496 7.88358 23.3496 8.41789C23.3496 8.9522 23.3147 8.94517 23.3147 9.47948C23.3147 10.0138 23.4474 10.0138 23.4474 10.5411C23.4474 11.0684 23.3776 11.0683 23.3776 11.6027C23.3776 12.137 23.3845 12.1299 23.3845 12.6642C23.3845 13.1986 23.4264 13.1915 23.4264 13.7258C23.4264 14.2601 23.3985 14.2531 23.3985 14.7874C23.3985 15.3217 23.4404 15.3147 23.4404 15.849C23.4404 16.3833 23.3636 16.3763 23.3636 16.9106C23.3636 17.4449 23.3636 17.4449 23.3636 17.9722C23.3636 18.4995 23.4264 18.4995 23.4264 19.0338C23.4264 19.5681 23.4125 19.5611 23.4125 20.0954C23.4125 20.6297 23.3357 20.6226 23.3357 21.1569C23.3357 21.6912 23.3078 21.6913 23.3078 22.2185C23.3078 22.7458 23.3008 22.7528 23.3008 23.2801C23.3008 23.8074 23.3008 23.8074 23.3008 24.3417C23.3008 24.876 23.3427 24.876 23.3427 25.4033C23.3427 25.9306 23.3985 25.9376 23.3985 26.4649C23.3985 26.9922 23.3706 26.9992 23.3706 27.5265C23.3706 28.0537 23.4264 28.0608 23.4264 28.5881C23.4264 29.1153 23.3636 29.1224 23.3636 29.6497C23.3636 30.1769 23.3078 30.184 23.3078 30.7112C23.3078 31.2385 23.3566 31.2385 23.3566 31.7728C23.3566 32.3071 23.4264 32.3001 23.4264 32.8344C23.4264 33.3687 23.4404 33.3687 23.4404 33.896C23.4404 34.4233 23.3287 34.4303 23.3287 34.9576C23.3287 35.4849 23.3985 35.4919 23.3985 36.0192C23.3985 36.5465 23.3915 36.5535 23.3915 37.0878C23.3915 37.6221 23.4055 37.6221 23.4055 38.1494C23.4055 38.6767 23.4264 38.6837 23.4264 39.218C23.4264 39.7523 23.3217 39.7523 23.3217 40.2866C23.3217 40.8209 23.3496 40.8209 23.3496 41.3552" stroke="#181C56" stroke-width="2" stroke-linecap="round" stroke-linejoin="round"/>
<path d="M48.5221 6.30176C48.5221 6.82904 48.4593 6.82904 48.4593 7.35632C48.4593 7.88359 48.4593 7.88358 48.4593 8.41789C48.4593 8.9522 48.55 8.94517 48.55 9.47948C48.55 10.0138 48.4802 10.0138 48.4802 10.5411C48.4802 11.0684 48.4453 11.0683 48.4453 11.6027C48.4453 12.137 48.4453 12.1299 48.4453 12.6642C48.4453 13.1986 48.5291 13.1915 48.5291 13.7258C48.5291 14.2601 48.4663 14.2531 48.4663 14.7874C48.4663 15.3217 48.4453 15.3147 48.4453 15.849C48.4453 16.3833 48.4942 16.3763 48.4942 16.9106C48.4942 17.4449 48.4453 17.4449 48.4453 17.9722C48.4453 18.4995 48.4942 18.4995 48.4942 19.0338C48.4942 19.5681 48.4663 19.5611 48.4663 20.0954C48.4663 20.6297 48.4523 20.6226 48.4523 21.1569C48.4523 21.6912 48.557 21.6913 48.557 22.2185C48.557 22.7458 48.55 22.7528 48.55 23.2801C48.55 23.8074 48.5291 23.8074 48.5291 24.3417C48.5291 24.876 48.557 24.876 48.557 25.4033C48.557 25.9306 48.4942 25.9376 48.4942 26.4649C48.4942 26.9922 48.5151 26.9992 48.5151 27.5265C48.5151 28.0537 48.4453 28.0608 48.4453 28.5881C48.4453 29.1153 48.5081 29.1224 48.5081 29.6497C48.5081 30.1769 48.5081 30.184 48.5081 30.7112C48.5081 31.2385 48.4593 31.2385 48.4593 31.7728C48.4593 32.3071 48.564 32.3001 48.564 32.8344C48.564 33.3687 48.4942 33.3687 48.4942 33.896C48.4942 34.4233 48.5291 34.4303 48.5291 34.9576C48.5291 35.4849 48.5291 35.4919 48.5291 36.0192C48.5291 36.5465 48.4732 36.5535 48.4732 37.0878C48.4732 37.6221 48.4802 37.6221 48.4802 38.1494C48.4802 38.6767 48.571 38.6837 48.571 39.218C48.571 39.7523 48.4593 39.7523 48.4593 40.2866C48.4593 40.8209 48.4663 40.8209 48.4663 41.3552" stroke="#181C56" stroke-width="2" stroke-linecap="round" stroke-linejoin="round"/>
<path d="M28.125 1.05711C27.762 1.05711 27.406 1.19773 27.0499 1.23991C26.6939 1.28209 26.3169 1.25397 25.9609 1.34536C25.6049 1.43676 25.2768 1.61955 24.9417 1.73906C24.6067 1.85858 24.2227 1.94295 23.9086 2.09762C23.5665 2.26635 23.2733 2.49132 22.9871 2.68817C22.666 2.91314 22.3588 3.11701 22.1285 3.36308C21.8492 3.65835 21.6468 3.98176 21.5491 4.29109C21.4513 4.60043 21.3606 4.95195 21.3676 5.27534C21.3745 5.59874 21.5142 5.92917 21.6398 6.22445C21.7655 6.51972 21.933 6.82203 22.1913 7.03294C22.4286 7.22979 22.7358 7.3493 23.0848 7.42664C23.3711 7.48991 23.6922 7.48289 24.0552 7.43368C24.4182 7.38446 24.7114 7.34229 24.9766 7.28604C25.3536 7.20871 25.6398 7.1173 25.8632 7.03294C26.31 6.86421 26.5613 6.75875 26.673 6.59002C26.8684 6.29474 26.7847 6.05573 27.2245 5.92918C27.4967 5.85185 27.8318 5.7745 28.1669 5.73231C28.5019 5.69013 28.858 5.57766 29.1442 5.6339C29.5211 5.7042 29.7934 5.94324 29.7934 6.30179C29.7934 6.62519 29.94 6.90639 30.1983 7.12434C30.4286 7.32119 30.7428 7.41259 31.0569 7.48289C31.371 7.5532 31.6782 7.56022 31.9714 7.47586C32.2855 7.38446 32.495 7.18761 32.7044 6.92749C32.9138 6.66736 33.1581 6.46349 33.3745 6.23149C33.5909 5.99948 33.8283 5.83075 34.1773 5.78857C34.5054 5.74639 34.8196 5.66904 35.1267 5.64795C35.4618 5.61983 35.7759 5.64796 36.0621 5.73935C36.3484 5.83075 36.6276 5.97137 36.837 6.2807C37.0325 6.56895 37.2279 6.80094 37.4234 6.99779C37.6677 7.24386 37.8911 7.42665 38.1564 7.54616C38.4356 7.66568 38.7218 7.74301 39.0499 7.72192C39.3291 7.70786 39.6363 7.6727 39.9644 7.56022C40.2157 7.47585 40.4321 7.15246 40.6346 6.80095C40.7951 6.5127 40.9347 6.17525 41.1651 5.95027C41.3955 5.7253 41.6817 5.57062 42.0796 5.60577C42.5543 5.65498 42.7707 5.94323 42.9173 6.28772C43.0639 6.63221 43.1546 6.99779 43.4199 7.27901C43.6293 7.49695 43.9155 7.70083 44.4251 7.71489C44.9696 7.72895 45.3047 7.74301 45.549 7.71489C45.926 7.65864 46.0656 7.46882 46.4496 7.07512C46.638 6.87827 46.9103 6.66033 47.2803 6.33694C47.6921 5.97839 47.9783 5.89403 48.1947 6.07682C48.4112 6.25961 48.5229 6.63222 48.6694 6.99779C48.8021 7.32822 48.9417 7.66569 49.1092 7.92581C49.3117 8.24218 49.563 8.46012 49.9539 8.3406C50.275 8.24218 50.5752 7.97501 50.7707 7.60943C50.9312 7.31416 51.0499 6.94154 51.1127 6.54784C51.1686 6.19632 51.1895 5.81669 51.1546 5.43705C51.1197 5.05741 50.9592 4.72697 50.8335 4.37545C50.7078 4.02394 50.6031 3.66539 50.3797 3.37012C50.1564 3.07484 49.8492 2.878 49.5351 2.67411C49.2628 2.49835 48.9696 2.27338 48.5927 2.1398C48.2785 2.02731 47.9295 1.90779 47.5525 1.82342C47.2174 1.74609 46.8475 1.7461 46.4775 1.68283C46.1284 1.62659 45.7654 1.62659 45.4024 1.57738C45.0394 1.52816 44.7044 1.4016 44.3344 1.36645C43.9644 1.3313 43.6154 1.36645 43.2524 1.34536C42.8894 1.32427 42.5333 1.28913 42.1703 1.26804C41.8073 1.24695 41.4443 1.26802 41.0883 1.25396C40.7323 1.2399 40.3553 1.21883 40.0063 1.20477C39.6293 1.19071 39.2733 1.0993 38.9312 1.08524C38.5473 1.06415 38.1913 1.04305 37.8562 1.01493C37.5211 0.986812 37.1581 1.02899 36.7742 1.01493C36.4321 1.00087 36.0691 0.972753 35.6991 0.972753C35.3431 0.972753 34.9871 0.944625 34.6171 0.944625C34.2471 0.944625 33.8981 0.902452 33.5351 0.909482C33.1721 0.916512 32.8091 0.951669 32.4531 0.9587C32.097 0.96573 31.7201 0.930579 31.371 0.937609C30.9871 0.95167 30.6241 0.958685 30.289 0.965716C29.8841 0.979776 29.5211 1.10632 29.214 1.12038C28.5438 1.14851 28.6695 1.04305 28.132 1.05711H28.125Z" fill="#181C56"/>
<path d="M22.6243 36.3002C22.2822 36.251 21.8703 36.6166 21.5283 36.5674C21.1862 36.5182 20.8162 36.6096 20.4672 36.5533C20.1182 36.4971 19.825 36.1315 19.4759 36.0752C19.1269 36.019 18.7848 35.9628 18.4358 35.9136C18.0868 35.8644 17.7028 36.0753 17.3607 36.019C17.0187 35.9628 16.7464 35.3371 16.3974 35.2949C16.0484 35.2527 15.6295 35.8503 15.2805 35.8151C14.9314 35.78 14.5894 35.7448 14.2473 35.7237C13.9053 35.7026 13.5772 35.0277 13.2281 35.0207C12.8791 35.0137 12.5091 35.2105 12.167 35.2175C11.825 35.2246 11.5039 35.7167 11.1618 35.7589C10.8197 35.8011 10.4428 35.5972 10.1077 35.6605C9.77262 35.7237 9.3817 35.6675 9.05361 35.78C8.72551 35.8925 8.4742 36.2159 8.16704 36.3705C7.85989 36.5252 7.68537 36.8556 7.39916 37.0595C7.11295 37.2634 6.81975 37.3759 6.56845 37.629C6.30318 37.8891 5.69585 37.8399 5.50038 38.1211C5.30492 38.4023 5.39567 38.9015 5.23511 39.2249C5.07455 39.5483 4.57193 39.71 4.44628 40.0544C4.32062 40.3919 4.60684 40.877 4.49515 41.2215C4.38346 41.566 4.27874 41.9034 4.17403 42.2409C4.06932 42.5784 4.04838 42.9439 3.95762 43.2884C3.86687 43.6329 3.80405 43.9774 3.72028 44.3289C3.63651 44.6805 3.65047 45.039 3.58067 45.3905C3.51086 45.742 3.30841 46.0584 3.24558 46.417C3.18275 46.7755 3.32238 47.1481 3.26653 47.4996C3.21069 47.8511 2.5126 48.1253 2.47071 48.4769C2.42883 48.8284 2.366 49.194 2.3311 49.5525C2.29619 49.911 2.51959 50.2907 2.49166 50.6492C2.46374 51.0078 2.79183 51.3804 2.77787 51.7389C2.76391 52.0975 2.68712 52.449 2.68014 52.8076C2.67316 53.1661 2.79184 53.5176 2.78486 53.8762C2.77788 54.2347 2.67316 54.5862 2.67316 54.9448C2.67316 55.3033 2.66618 55.6549 2.67316 56.0134C2.68014 56.372 2.11469 56.7375 2.12167 57.1031C2.12865 57.4687 2.24734 57.8202 2.2613 58.1788C2.27526 58.5373 2.70807 58.8748 2.72901 59.2333C2.74995 59.5919 2.77089 59.9434 2.79183 60.309C2.81278 60.6746 3.04314 61.005 3.06408 61.3635C3.08503 61.7221 2.94541 62.0877 2.97333 62.4462C3.00125 62.8048 2.65222 63.1914 2.68014 63.55C2.70806 63.9085 2.64523 64.2671 2.68014 64.6327C2.71504 64.9983 2.89655 65.3357 2.92447 65.6943C2.95239 66.0528 2.8756 66.4184 2.91051 66.784C2.94541 67.1355 3.55274 67.4307 3.57368 67.7752C3.59462 68.1197 3.00824 68.5064 3.0222 68.8509C3.03616 69.1954 3.4969 69.5328 3.50388 69.8773C3.51086 70.2218 2.94541 70.5804 2.94541 70.9249C2.94541 71.2693 2.92447 71.6209 2.92447 71.9583C2.92447 72.2958 3.45501 72.6614 3.44105 73.0058C3.42709 73.3503 3.00126 73.6878 2.98729 74.0323C2.97333 74.3768 3.24559 74.7424 3.23163 75.0798C3.21767 75.4173 2.9105 75.7688 2.89654 76.1062C2.88258 76.4437 3.36426 76.8233 3.35728 77.1608C3.3503 77.4983 3.14785 77.8498 3.14087 78.1943C3.13389 78.5388 3.2386 78.8903 3.24558 79.2277C3.25256 79.5652 3.07805 79.9237 3.09201 80.2682C3.10597 80.5916 2.99428 80.9502 3.00126 81.3439C3.00824 81.6813 3.3852 82.0329 3.39218 82.4125C3.39218 82.757 3.31539 83.1155 3.32237 83.4952C3.32237 83.8397 3.42011 84.1982 3.42709 84.5708C3.42709 84.9223 3.38521 85.2809 3.38521 85.6465C3.38521 86.0121 3.18276 86.3565 3.18276 86.7221C3.18276 87.0877 2.84768 87.4322 2.84768 87.7978C2.84768 88.1633 3.03617 88.5078 3.03617 88.8734C3.03617 89.239 3.00824 89.5905 3.00126 89.9491C2.99428 90.3076 3.18276 90.6662 3.18276 91.0247C3.18276 91.3833 2.85466 91.7418 2.85466 92.1004C2.85466 92.4589 3.57368 92.8245 3.57368 93.183C3.57368 93.5416 2.83372 93.8931 2.82674 94.2517C2.81976 94.6102 3.32935 94.9828 3.32237 95.3414C3.31539 95.6999 3.19672 96.0655 3.18974 96.424C3.18276 96.7826 2.86863 97.1412 2.86165 97.4997C2.85466 97.8583 2.88956 98.2238 2.8756 98.5824C2.86164 98.9409 2.8756 99.3065 2.86862 99.6651C2.86164 100.024 2.8756 100.389 2.86862 100.741C2.86164 101.092 3.0222 101.472 3.00824 101.823C2.99427 102.182 3.10597 102.54 3.09201 102.885C3.07107 103.244 2.77787 103.581 2.75693 103.918C2.73599 104.277 2.60335 104.614 2.58241 104.959C2.55448 105.317 2.89655 105.69 2.86862 106.035C2.8407 106.379 2.91051 106.745 2.88259 107.089C2.85466 107.434 2.79881 107.785 2.77787 108.13C2.75693 108.474 2.19149 108.791 2.17054 109.142C2.1496 109.494 2.79882 109.873 2.78486 110.225C2.7709 110.576 2.07281 110.886 2.05885 111.244C2.04489 111.603 2.61033 111.947 2.60335 112.313C2.59637 112.65 2.32413 112.995 2.31714 113.353C2.31714 113.691 2.28223 114.042 2.28922 114.401C2.28922 114.738 2.44978 115.083 2.45676 115.441C2.45676 115.779 2.33808 116.13 2.35204 116.489C2.35902 116.826 2.56147 117.171 2.57543 117.529C2.58939 117.867 2.8407 118.204 2.86165 118.563C2.87561 118.9 2.19148 119.287 2.21243 119.645C2.23337 120.004 2.9105 120.299 2.93145 120.658C2.95239 121.002 2.76391 121.361 2.79183 121.719C2.81278 122.05 2.99428 122.331 3.09899 122.69C3.18974 123.006 3.32935 123.294 3.47595 123.625C3.61556 123.934 3.47596 124.384 3.65746 124.693C3.82499 124.988 3.82499 125.417 4.02045 125.713C4.21591 126.008 4.92098 125.916 5.13738 126.198C5.35379 126.479 5.03266 127.175 5.26303 127.442C5.4934 127.709 6.14261 127.597 6.37996 127.85C6.61731 128.103 6.74994 128.454 7.00125 128.701C7.25256 128.947 7.6365 129.031 7.89479 129.256C8.181 129.509 8.10422 130.24 8.41137 130.437C8.71853 130.634 9.17228 130.676 9.50735 130.824C9.84243 130.971 10.1845 131.224 10.5405 131.33C10.8965 131.435 11.3363 131.26 11.6993 131.323C12.0623 131.386 12.4323 131.499 12.7953 131.534C13.1583 131.569 13.5353 131.801 13.9053 131.815C14.2752 131.829 14.6592 131.808 15.0222 131.801C15.3852 131.794 15.7761 131.773 16.1321 131.759C16.4882 131.745 16.8232 131.316 17.1653 131.302C17.5073 131.288 17.8634 131.105 18.2054 131.098C18.5475 131.091 18.9245 131.717 19.2665 131.71C19.6086 131.702 19.9576 131.105 20.2997 131.098C20.6417 131.091 20.9977 130.936 21.3468 130.929C21.6958 130.922 22.0518 130.999 22.3939 130.992C22.736 130.985 23.099 131.239 23.441 131.239C23.7831 131.239 24.1461 131.33 24.4881 131.33C24.8302 131.33 25.1932 131.611 25.5353 131.604C25.8773 131.597 26.2333 131.231 26.5824 131.231C26.9314 131.231 27.2805 131.168 27.6295 131.168C27.9785 131.168 28.3276 131.4 28.6766 131.4C29.0257 131.4 29.3747 130.971 29.7237 130.971C30.0728 130.971 30.4218 131.126 30.7709 131.126C31.1199 131.126 31.4689 131.569 31.818 131.569C32.167 131.569 32.5161 131.217 32.8651 131.217C33.2141 131.217 33.5632 131.217 33.9122 131.217C34.2613 131.217 34.6103 131.471 34.9593 131.471C35.3084 131.471 35.6504 130.88 35.9995 130.88C36.3485 130.88 36.6976 131.028 37.0466 131.021C37.3956 131.014 37.7447 131.119 38.0867 131.112C38.4288 131.105 38.7848 131.456 39.1338 131.449C39.4829 131.442 39.8249 131.337 40.174 131.323C40.523 131.309 40.8511 130.803 41.2002 130.789C41.5492 130.774 41.9122 131.168 42.2612 131.147C42.6312 131.126 42.9872 130.915 43.3433 130.901C43.7202 130.887 44.0902 131.112 44.4393 131.105C44.8162 131.098 45.1653 130.655 45.5213 130.648C45.8982 130.648 46.2612 130.613 46.6173 130.613C46.9942 130.613 47.3572 131.014 47.7132 131.021C48.0902 131.021 48.4532 131.091 48.8022 131.098C49.1792 131.105 49.5422 131.028 49.8912 131.042C50.2682 131.056 50.6172 131.302 50.9663 131.323C51.3432 131.344 51.6923 131.499 52.0413 131.527C52.4183 131.555 52.8232 131.063 53.1722 131.098C53.5492 131.133 53.8773 131.478 54.2263 131.52C54.5963 131.562 55.0012 131.231 55.3502 131.274C55.7202 131.316 56.0274 131.773 56.3834 131.815C56.7464 131.857 57.1094 131.794 57.4514 131.822C57.8145 131.85 58.1844 131.569 58.5265 131.583C58.8895 131.597 59.2455 132.11 59.5876 132.11C59.9506 132.11 60.3136 131.998 60.6556 131.977C61.0186 131.949 61.3537 131.688 61.6888 131.639C62.0448 131.59 62.324 131.182 62.6591 131.112C63.0151 131.042 63.3432 131.006 63.6783 130.908C64.0134 130.81 64.4951 131.14 64.8232 131.021C65.1513 130.901 65.3956 130.542 65.7167 130.395C66.0378 130.247 66.2193 129.854 66.5335 129.685C66.8476 129.516 67.3293 129.671 67.6294 129.488C67.9366 129.298 68.0692 128.918 68.3275 128.694C68.5858 128.469 68.893 128.293 69.1163 128.026C69.3397 127.758 69.5911 127.512 69.7795 127.217C69.968 126.922 70.2682 126.676 70.4148 126.359C70.5614 126.043 70.331 125.565 70.4497 125.235C70.5684 124.904 71.2874 124.749 71.3781 124.419C71.4759 124.06 71.3013 123.639 71.3712 123.315C71.4479 122.943 71.441 122.577 71.4968 122.268C71.5596 121.923 71.6085 121.572 71.6574 121.227C71.7062 120.883 71.79 120.538 71.8389 120.187C71.8877 119.835 72.1181 119.512 72.16 119.16C72.2019 118.809 72.2228 118.457 72.2577 118.106C72.2926 117.754 72.3485 117.403 72.3764 117.058C72.4043 116.714 71.9296 116.32 71.9575 115.969C71.9855 115.617 72.2368 115.287 72.2577 114.935C72.2786 114.584 72.1321 114.225 72.153 113.873C72.1739 113.522 72.3694 113.184 72.3834 112.826C72.3973 112.467 72.1041 112.116 72.1181 111.764C72.1321 111.413 72.8301 111.075 72.8301 110.724C72.8301 110.372 72.502 110.014 72.502 109.662C72.502 109.311 72.4532 108.959 72.4462 108.608C72.4392 108.256 72.5858 107.905 72.5788 107.553C72.5718 107.202 72.7534 106.85 72.7464 106.499C72.7394 106.147 72.4392 105.803 72.4253 105.451C72.4113 105.1 72.5579 104.741 72.5439 104.389C72.53 104.038 71.9994 103.708 71.9855 103.356C71.9715 103.004 72.6068 102.625 72.5928 102.273C72.5788 101.922 72.0623 101.598 72.0483 101.247C72.0343 100.895 72.0972 100.544 72.0762 100.192C72.0553 99.8408 72.1251 99.4893 72.1041 99.1378C72.0832 98.7863 71.7202 98.4629 71.6993 98.1113C71.6783 97.7598 72.3275 97.3661 72.3066 97.0146C72.2856 96.6631 71.804 96.3467 71.776 95.9952C71.7481 95.6437 71.7062 95.2992 71.6783 94.9477C71.6504 94.5962 71.9645 94.2235 71.9436 93.872C71.9226 93.5205 71.6225 93.1901 71.5945 92.8456C71.5666 92.5011 71.9226 92.1144 71.8947 91.7629C71.8668 91.4114 71.7132 91.0739 71.6853 90.7224C71.6574 90.3709 71.4061 90.0405 71.3781 89.6889C71.3502 89.3374 71.2874 88.9929 71.2664 88.6414C71.2455 88.2899 71.42 87.9243 71.3921 87.5728C71.3642 87.2213 71.4549 86.8627 71.427 86.5112C71.3991 86.1597 71.2525 85.8222 71.2315 85.4707C71.2106 85.1192 70.9802 84.7817 70.9593 84.4302C70.9383 84.0787 71.2106 83.7061 71.1896 83.3546C71.1687 83.003 71.0081 82.6586 70.9872 82.307C70.9663 81.9555 70.9104 81.604 70.8895 81.2525C70.8685 80.901 70.4497 80.5705 70.4357 80.219C70.4218 79.8675 70.9174 79.4879 70.9034 79.1363C70.8895 78.7848 71.078 78.4263 71.064 78.0748C71.05 77.7232 70.7917 77.3858 70.7778 77.0272C70.7638 76.6687 70.4497 76.3312 70.4357 75.9797C70.4218 75.6282 70.6172 75.2696 70.6102 74.9181C70.6033 74.5666 70.2891 74.2221 70.2822 73.8706C70.2752 73.5191 70.5684 73.1605 70.5614 72.809C70.5544 72.4575 70.7778 72.106 70.7778 71.7544C70.7778 71.4029 70.8057 71.0514 70.8127 70.6999C70.8197 70.3484 70.9244 69.9968 70.9314 69.6453C70.9383 69.2938 70.4218 68.9353 70.4287 68.5767C70.4357 68.2111 70.4567 67.8526 70.4567 67.487C70.4567 67.1214 70.5474 66.7558 70.5404 66.3973C70.5335 66.0387 70.8755 65.6521 70.8546 65.2935C70.8336 64.935 70.2821 64.5905 70.2682 64.2249C70.2542 63.8593 70.0588 63.5148 70.0378 63.1493C70.0169 62.7837 70.6731 62.3759 70.6451 62.0103C70.6172 61.6448 70.4985 61.2862 70.4706 60.9277C70.4427 60.5691 70.0378 60.2316 70.0029 59.8731C69.968 59.5145 70.1076 59.1349 70.0727 58.7693C70.0378 58.4037 70.2333 58.0241 70.2054 57.6585C70.1774 57.293 69.961 56.9485 69.9261 56.5899C69.8912 56.2314 70.0029 55.8517 69.975 55.4861C69.9471 55.1206 69.7586 54.7761 69.7307 54.4105C69.7027 54.0449 69.6539 53.6864 69.6329 53.3208C69.612 52.9552 69.2281 52.6107 69.2141 52.2451C69.2001 51.8795 69.6469 51.4929 69.6329 51.1343C69.619 50.7758 69.619 50.4102 69.619 50.0446C69.619 49.6791 69.4654 49.3205 69.4654 48.9549C69.4654 48.6104 69.249 48.2659 69.249 47.9285C69.249 47.591 69.4026 47.2465 69.4026 46.9091C69.4026 46.5716 69.4026 46.2271 69.4026 45.8897C69.4026 45.5522 69.1932 45.2147 69.1722 44.8843C69.1513 44.5539 69.1233 44.2164 69.0815 43.886C69.0396 43.5556 69.1862 43.19 69.1233 42.8596C69.0605 42.5292 69.2909 42.1003 69.1862 41.7839C69.0815 41.4676 69.0535 41.0598 68.9069 40.7575C68.7603 40.4552 68.2926 40.3005 68.1041 40.0123C67.9157 39.724 67.7342 39.4428 67.5038 39.1897C67.2525 38.9155 66.9174 38.7468 66.6382 38.5218C66.3589 38.2969 65.9052 38.3601 65.598 38.1844C65.2909 38.0086 65.1862 37.4321 64.8511 37.2915C64.516 37.1509 64.0972 37.2915 63.7412 37.1931C63.3851 37.0947 63.0431 37.1017 62.687 37.0314C62.331 36.9611 62.0658 36.3987 61.7028 36.3565C61.3397 36.3143 60.9488 36.6939 60.5789 36.6588C60.2089 36.6236 59.8877 36.2088 59.5247 36.1877C59.1617 36.1666 58.7987 36.244 58.4357 36.237C58.0727 36.2299 57.7167 36.012 57.3537 36.005C56.9907 35.9979 56.6277 36.6799 56.2647 36.6799C55.9087 36.6799 55.5597 36.5674 55.2106 36.5674C54.8616 36.5674 54.5056 35.9628 54.1635 35.9628C53.8214 35.9628 53.4584 36.483 53.1094 36.476C52.7604 36.469 52.4043 35.9768 52.0553 35.9768C51.7063 35.9768 51.3502 36.4268 51.0012 36.4268C50.6522 36.4268 50.2961 36.6869 49.9471 36.6869C49.5981 36.6869 49.242 36.6236 48.893 36.6236C48.544 36.6236 48.1879 36.4479 47.8389 36.4479C47.4899 36.4479 47.1338 36.019 46.7848 36.019C46.4358 36.019 46.0797 36.258 45.7307 36.258C45.3817 36.258 45.0256 36.1666 44.6766 36.1666C44.3276 36.1666 43.9715 36.7221 43.6295 36.7221C43.2874 36.7221 42.9244 35.9768 42.5754 35.9768C42.2263 35.9768 41.8703 36.6307 41.5283 36.6307C41.1862 36.6307 40.8162 36.3424 40.4742 36.3494C40.1321 36.3565 39.7691 36.6728 39.4201 36.6728C39.071 36.6728 38.708 36.0471 38.366 36.0542C38.003 36.0542 37.6539 36.0893 37.3119 36.0893C36.9489 36.0893 36.5998 36.2229 36.2578 36.2299C35.8948 36.2299 35.5457 36.5041 35.2106 36.5112C34.8476 36.5112 34.4986 36.6447 34.1635 36.6517C33.8005 36.6517 33.4445 36.1737 33.1094 36.1737C32.7464 36.1737 32.3974 36.4268 32.0623 36.4338C31.6993 36.4338 31.3433 36.1948 31.0082 36.1948C30.6382 36.1948 30.2892 36.0963 29.9541 36.1034C29.5841 36.1034 29.2351 36.2088 28.907 36.2159C28.53 36.2159 28.1949 36.715 27.8668 36.7221C27.4829 36.7291 27.1339 36.7713 26.8197 36.7783C26.4288 36.7853 26.0728 36.4057 25.7586 36.4127C25.3468 36.4268 24.9977 36.4057 24.7115 36.4127C24.2298 36.4268 23.8948 36.2299 23.6574 36.244C23.1129 36.2651 23.092 36.3705 22.6662 36.3073L22.6243 36.3002Z" fill="#FFBF9E"/>
<path d="M4.80958 139.049C4.80958 138.698 4.64902 138.339 4.71185 138.002C4.77467 137.664 4.8375 137.292 4.97013 136.975C5.10277 136.659 5.29126 136.335 5.47974 136.047C5.66822 135.759 6.11499 135.682 6.35234 135.443C6.58968 135.204 6.63156 134.69 6.91079 134.501C7.19002 134.311 7.6717 134.472 7.99282 134.346C8.31393 134.219 8.53732 133.812 8.87938 133.748C9.22144 133.685 9.57746 133.798 9.9265 133.798C10.2755 133.798 10.6106 133.847 10.9387 133.917C11.2668 133.987 11.6298 134.008 11.9439 134.135C12.2581 134.262 12.5303 134.501 12.8165 134.69C13.1028 134.88 13.4378 135.028 13.6822 135.267C13.9265 135.506 14.2616 135.717 14.4501 136.005C14.6385 136.293 14.464 136.778 14.5967 137.102C14.7293 137.425 15.1691 137.643 15.2389 137.988C15.3087 138.332 15.2249 138.698 15.2249 139.049C15.2249 139.401 15.2528 139.773 15.19 140.104C15.1272 140.434 15.0295 140.807 14.8968 141.123C14.7642 141.44 14.4431 141.679 14.2546 141.96C14.0661 142.241 13.759 142.424 13.5216 142.663C13.2843 142.902 13.2284 143.394 12.9422 143.584C12.656 143.774 12.1813 143.612 11.8602 143.745C11.5391 143.879 11.3157 144.273 10.9736 144.336C10.6316 144.399 10.2755 144.357 9.9265 144.357C9.57746 144.357 9.20748 144.427 8.8724 144.357C8.53733 144.287 8.30695 143.858 7.99282 143.724C7.67868 143.591 7.35757 143.521 7.07136 143.331C6.78514 143.141 6.5827 142.881 6.34535 142.642C6.108 142.403 5.78689 142.234 5.59841 141.953C5.40993 141.672 5.28427 141.355 5.15164 141.032C5.019 140.708 5.03995 140.378 4.97712 140.033C4.91429 139.689 4.80958 139.394 4.80958 139.042V139.049Z" fill="#181C56"/>
<path d="M9.69467 131.555C9.33167 131.893 9.63185 131.97 9.63185 132.462C9.63185 132.954 9.68769 132.961 9.68769 133.453C9.68769 133.946 9.59694 133.953 9.59694 134.445C9.59694 134.937 9.61788 134.937 9.54109 135.429C9.45034 135.991 9.48525 135.893 9.15017 136.477C8.98961 136.765 8.75925 137.081 8.56379 137.447C8.38927 137.77 8.24965 138.129 8.06814 138.466C7.88664 138.804 7.78193 139.057 7.74005 139.338C7.69816 139.675 7.6493 139.985 7.79589 140.28C7.92853 140.54 8.04023 140.92 8.32644 141.145C8.57077 141.334 9.01055 141.335 9.34563 141.306C9.64581 141.278 9.99484 141.18 10.2811 141.039C10.5812 140.892 10.8186 140.61 11.014 140.414C11.1606 140.266 11.5167 140.104 11.7959 139.781C11.9983 139.549 11.9355 139.05 12.1519 138.782C12.3683 138.515 12.8709 138.494 13.0664 138.255C13.3177 137.946 13.3387 137.51 13.4852 137.327C13.6179 137.158 13.7296 137.004 13.7296 136.786C13.7296 136.252 13.8831 136.252 13.8831 135.71C13.8831 135.169 13.8622 135.176 13.8622 134.635C13.8622 134.093 13.8482 134.072 13.8482 133.517C13.8482 132.961 13.8273 132.954 13.8273 132.399C13.8273 131.886 13.3386 131.485 12.8221 131.485C12.2845 131.485 12.2845 131.555 11.747 131.555C11.2095 131.555 11.2095 131.506 10.679 131.415C10.1484 131.323 10.0647 131.183 9.66675 131.548L9.69467 131.555Z" fill="white"/>
<path d="M9.69467 131.555C9.33167 131.893 9.63185 131.97 9.63185 132.462C9.63185 132.954 9.68769 132.961 9.68769 133.453C9.68769 133.946 9.59694 133.953 9.59694 134.445C9.59694 134.937 9.61788 134.937 9.54109 135.429C9.45034 135.991 9.48525 135.893 9.15017 136.477C8.98961 136.765 8.75925 137.081 8.56379 137.447C8.38927 137.77 8.24965 138.129 8.06814 138.466C7.88664 138.804 7.78193 139.057 7.74005 139.338C7.69816 139.675 7.6493 139.985 7.79589 140.28C7.92853 140.54 8.04023 140.92 8.32644 141.145C8.57077 141.334 9.01055 141.335 9.34563 141.306C9.64581 141.278 9.99484 141.18 10.2811 141.039C10.5812 140.892 10.8186 140.61 11.014 140.414C11.1606 140.266 11.5167 140.104 11.7959 139.781C11.9983 139.549 11.9355 139.05 12.1519 138.782C12.3683 138.515 12.8709 138.494 13.0664 138.255C13.3177 137.946 13.3387 137.51 13.4852 137.327C13.6179 137.158 13.7296 137.004 13.7296 136.786C13.7296 136.252 13.8831 136.252 13.8831 135.71C13.8831 135.169 13.8622 135.176 13.8622 134.635C13.8622 134.093 13.8482 134.072 13.8482 133.517C13.8482 132.961 13.8273 132.954 13.8273 132.399C13.8273 131.886 13.3386 131.485 12.8221 131.485C12.2845 131.485 12.2845 131.555 11.747 131.555C11.2095 131.555 11.2095 131.506 10.679 131.415C10.1484 131.323 10.0647 131.183 9.66675 131.548L9.69467 131.555Z" stroke="#181C56" stroke-miterlimit="10"/>
<path d="M14.0797 139.344C14.0797 138.979 13.9122 138.606 13.975 138.262C14.0379 137.917 14.1077 137.523 14.2403 137.2C14.3729 136.877 14.5754 136.539 14.7708 136.237C14.9663 135.935 15.427 135.857 15.6784 135.604C15.9297 135.351 15.9646 134.824 16.2577 134.627C16.5509 134.43 17.0466 134.599 17.3817 134.465C17.7167 134.332 17.9471 133.91 18.3031 133.84C18.6591 133.769 19.0291 133.889 19.3921 133.889C19.7551 133.889 20.1042 133.945 20.4462 134.008C20.7883 134.072 21.1652 134.1 21.4933 134.24C21.8214 134.381 22.1077 134.62 22.4008 134.817C22.694 135.014 23.0431 135.168 23.2944 135.421C23.5457 135.674 23.8947 135.892 24.0902 136.188C24.2857 136.483 24.1042 136.996 24.2438 137.327C24.3834 137.657 24.8372 137.889 24.907 138.248C24.9768 138.606 24.893 138.986 24.893 139.351C24.893 139.717 24.9279 140.104 24.8581 140.448C24.7883 140.793 24.6906 141.179 24.5579 141.51C24.4253 141.84 24.0832 142.086 23.8878 142.381C23.6923 142.677 23.3712 142.86 23.1269 143.113C22.8825 143.366 22.8197 143.872 22.5265 144.069C22.2333 144.266 21.7377 144.097 21.4026 144.237C21.0675 144.378 20.8371 144.786 20.4811 144.856C20.1251 144.926 19.7551 144.877 19.3921 144.877C19.0291 144.877 18.6452 144.948 18.3031 144.877C17.9611 144.807 17.7167 144.357 17.3886 144.223C17.0605 144.09 16.7255 144.012 16.4323 143.816C16.1391 143.619 15.9297 143.352 15.6784 143.099C15.427 142.845 15.0989 142.677 14.9035 142.381C14.708 142.086 14.5754 141.756 14.4427 141.425C14.3101 141.095 14.3311 140.743 14.2612 140.385C14.1914 140.026 14.0937 139.717 14.0937 139.351L14.0797 139.344Z" fill="#181C56"/>
<path d="M19.1556 131.555C18.7786 131.899 19.0928 131.984 19.0928 132.497C19.0928 133.01 19.1486 133.01 19.1486 133.53C19.1486 134.051 19.0579 134.044 19.0579 134.564C19.0579 135.084 19.0788 135.077 18.995 135.583C18.8973 136.167 18.9322 136.061 18.5902 136.673C18.4226 136.975 18.1853 137.306 17.9828 137.678C17.8013 138.009 17.6547 138.388 17.4662 138.74C17.2778 139.091 17.1661 139.352 17.1242 139.647C17.0753 139.998 17.0265 140.322 17.18 140.624C17.3197 140.891 17.4313 141.292 17.7315 141.524C17.9828 141.721 18.4436 141.721 18.7926 141.693C19.0998 141.665 19.4697 141.559 19.7629 141.411C20.0771 141.257 20.3214 140.969 20.5238 140.758C20.6704 140.61 21.0474 140.441 21.3336 140.104C21.543 139.865 21.4802 139.345 21.7036 139.07C21.927 138.796 22.4505 138.775 22.66 138.522C22.9183 138.206 22.9392 137.749 23.0997 137.559C23.2394 137.383 23.358 137.221 23.358 136.996C23.358 136.441 23.5186 136.441 23.5186 135.879C23.5186 135.316 23.4977 135.323 23.4977 134.761C23.4977 134.198 23.4837 134.177 23.4837 133.594C23.4837 133.01 23.4627 133.01 23.4627 132.427C23.4627 131.892 22.9531 131.471 22.4226 131.471C21.8641 131.471 21.8641 131.541 21.3057 131.541C20.7472 131.541 20.7472 131.492 20.2027 131.393C19.6582 131.295 19.5675 131.154 19.1556 131.534V131.555Z" fill="white"/>
<path d="M19.1556 131.555C18.7786 131.899 19.0928 131.984 19.0928 132.497C19.0928 133.01 19.1486 133.01 19.1486 133.53C19.1486 134.051 19.0579 134.044 19.0579 134.564C19.0579 135.084 19.0788 135.077 18.995 135.583C18.8973 136.167 18.9322 136.061 18.5902 136.673C18.4226 136.975 18.1853 137.306 17.9828 137.678C17.8013 138.009 17.6547 138.388 17.4662 138.74C17.2778 139.091 17.1661 139.352 17.1242 139.647C17.0753 139.998 17.0265 140.322 17.18 140.624C17.3197 140.891 17.4313 141.292 17.7315 141.524C17.9828 141.721 18.4436 141.721 18.7926 141.693C19.0998 141.665 19.4697 141.559 19.7629 141.411C20.0771 141.257 20.3214 140.969 20.5238 140.758C20.6704 140.61 21.0474 140.441 21.3336 140.104C21.543 139.865 21.4802 139.345 21.7036 139.07C21.927 138.796 22.4505 138.775 22.66 138.522C22.9183 138.206 22.9392 137.749 23.0997 137.559C23.2394 137.383 23.358 137.221 23.358 136.996C23.358 136.441 23.5186 136.441 23.5186 135.879C23.5186 135.316 23.4977 135.323 23.4977 134.761C23.4977 134.198 23.4837 134.177 23.4837 133.594C23.4837 133.01 23.4627 133.01 23.4627 132.427C23.4627 131.892 22.9531 131.471 22.4226 131.471C21.8641 131.471 21.8641 131.541 21.3057 131.541C20.7472 131.541 20.7472 131.492 20.2027 131.393C19.6582 131.295 19.5675 131.154 19.1556 131.534V131.555Z" stroke="#181C56" stroke-miterlimit="10"/>
<path d="M44.7315 139.049C44.7315 138.698 44.5709 138.339 44.6337 138.002C44.6965 137.664 44.7594 137.292 44.892 136.975C45.0246 136.659 45.2131 136.335 45.4016 136.047C45.5901 135.759 46.0369 135.682 46.2742 135.443C46.5115 135.204 46.5534 134.69 46.8327 134.501C47.1119 134.311 47.5936 134.472 47.9147 134.346C48.2358 134.219 48.4592 133.812 48.8013 133.748C49.1433 133.685 49.4993 133.798 49.8484 133.798C50.1974 133.798 50.5325 133.847 50.8606 133.917C51.1887 133.987 51.5517 134.008 51.8658 134.135C52.18 134.262 52.4522 134.501 52.7384 134.69C53.0246 134.88 53.3597 135.028 53.604 135.267C53.8484 135.506 54.1834 135.717 54.3719 136.005C54.5604 136.293 54.3859 136.778 54.5185 137.102C54.6512 137.425 55.091 137.643 55.1608 137.988C55.2306 138.332 55.1468 138.698 55.1468 139.049C55.1468 139.401 55.1747 139.773 55.1119 140.104C55.0491 140.434 54.9513 140.807 54.8187 141.123C54.6861 141.44 54.3649 141.679 54.1765 141.96C53.988 142.241 53.6808 142.424 53.4435 142.663C53.2061 142.902 53.1503 143.394 52.8641 143.584C52.5779 143.774 52.1032 143.612 51.7821 143.745C51.4609 143.879 51.2376 144.273 50.8955 144.336C50.5534 144.399 50.1974 144.357 49.8484 144.357C49.4993 144.357 49.1293 144.427 48.7943 144.357C48.4592 144.287 48.2288 143.858 47.9147 143.724C47.6006 143.591 47.2794 143.521 46.9932 143.331C46.707 143.141 46.5046 142.881 46.2672 142.642C46.0299 142.403 45.7088 142.234 45.5203 141.953C45.3318 141.672 45.2061 141.355 45.0735 141.032C44.9409 140.708 44.9618 140.378 44.899 140.033C44.8362 139.689 44.7315 139.394 44.7315 139.042V139.049Z" fill="#181C56"/>
<path d="M49.6126 131.555C49.2496 131.893 49.5498 131.97 49.5498 132.462C49.5498 132.954 49.6057 132.961 49.6057 133.453C49.6057 133.946 49.5149 133.953 49.5149 134.445C49.5149 134.937 49.5359 134.937 49.4591 135.429C49.3683 135.991 49.4032 135.893 49.0681 136.477C48.9076 136.765 48.6772 137.081 48.4817 137.447C48.3072 137.77 48.1676 138.129 47.9861 138.466C47.8046 138.804 47.6999 139.057 47.658 139.338C47.6161 139.675 47.5673 139.985 47.7139 140.28C47.8465 140.54 47.9582 140.92 48.2444 141.145C48.4887 141.334 48.9285 141.335 49.2636 141.306C49.5638 141.278 49.9128 141.18 50.199 141.039C50.4992 140.892 50.7365 140.61 50.932 140.414C51.0786 140.266 51.4346 140.104 51.7139 139.781C51.9163 139.549 51.8535 139.05 52.0699 138.782C52.2863 138.515 52.7889 138.494 52.9844 138.255C53.2357 137.946 53.2566 137.51 53.4032 137.327C53.5358 137.158 53.6475 137.004 53.6475 136.786C53.6475 136.252 53.8011 136.252 53.8011 135.71C53.8011 135.169 53.7802 135.176 53.7802 134.635C53.7802 134.093 53.7662 134.072 53.7662 133.517C53.7662 132.961 53.7453 132.954 53.7453 132.399C53.7453 131.886 53.2566 131.485 52.74 131.485C52.2025 131.485 52.2025 131.555 51.665 131.555C51.1275 131.555 51.1275 131.506 50.5969 131.415C50.0664 131.323 49.9826 131.183 49.5847 131.548L49.6126 131.555Z" fill="white"/>
<path d="M49.6126 131.555C49.2496 131.893 49.5498 131.97 49.5498 132.462C49.5498 132.954 49.6057 132.961 49.6057 133.453C49.6057 133.946 49.5149 133.953 49.5149 134.445C49.5149 134.937 49.5359 134.937 49.4591 135.429C49.3683 135.991 49.4032 135.893 49.0681 136.477C48.9076 136.765 48.6772 137.081 48.4817 137.447C48.3072 137.77 48.1676 138.129 47.9861 138.466C47.8046 138.804 47.6999 139.057 47.658 139.338C47.6161 139.675 47.5673 139.985 47.7139 140.28C47.8465 140.54 47.9582 140.92 48.2444 141.145C48.4887 141.334 48.9285 141.335 49.2636 141.306C49.5638 141.278 49.9128 141.18 50.199 141.039C50.4992 140.892 50.7365 140.61 50.932 140.414C51.0786 140.266 51.4346 140.104 51.7139 139.781C51.9163 139.549 51.8535 139.05 52.0699 138.782C52.2863 138.515 52.7889 138.494 52.9844 138.255C53.2357 137.946 53.2566 137.51 53.4032 137.327C53.5358 137.158 53.6475 137.004 53.6475 136.786C53.6475 136.252 53.8011 136.252 53.8011 135.71C53.8011 135.169 53.7802 135.176 53.7802 134.635C53.7802 134.093 53.7662 134.072 53.7662 133.517C53.7662 132.961 53.7453 132.954 53.7453 132.399C53.7453 131.886 53.2566 131.485 52.74 131.485C52.2025 131.485 52.2025 131.555 51.665 131.555C51.1275 131.555 51.1275 131.506 50.5969 131.415C50.0664 131.323 49.9826 131.183 49.5847 131.548L49.6126 131.555Z" stroke="#181C56" stroke-miterlimit="10"/>
<path d="M53.9958 139.344C53.9958 138.979 53.8282 138.606 53.891 138.262C53.9539 137.917 54.0237 137.523 54.1563 137.2C54.289 136.877 54.4914 136.539 54.6869 136.237C54.8823 135.935 55.3431 135.857 55.5944 135.604C55.8457 135.351 55.8806 134.824 56.1738 134.627C56.467 134.43 56.9626 134.599 57.2977 134.465C57.6328 134.332 57.8631 133.91 58.2191 133.84C58.5752 133.769 58.9452 133.889 59.3082 133.889C59.6712 133.889 60.0202 133.945 60.3622 134.008C60.7043 134.072 61.0813 134.1 61.4094 134.24C61.7375 134.381 62.0237 134.62 62.3169 134.817C62.6101 135.014 62.9591 135.168 63.2104 135.421C63.4617 135.674 63.8108 135.892 64.0062 136.188C64.2017 136.483 64.0202 136.996 64.1598 137.327C64.2994 137.657 64.7532 137.889 64.823 138.248C64.8928 138.606 64.809 138.986 64.809 139.351C64.809 139.717 64.8439 140.104 64.7741 140.448C64.7043 140.793 64.6066 141.179 64.4739 141.51C64.3413 141.84 63.9992 142.086 63.8038 142.381C63.6083 142.677 63.2872 142.86 63.0429 143.113C62.7986 143.366 62.7357 143.872 62.4425 144.069C62.1493 144.266 61.6537 144.097 61.3186 144.237C60.9835 144.378 60.7532 144.786 60.3972 144.856C60.0411 144.926 59.6712 144.877 59.3082 144.877C58.9452 144.877 58.5612 144.948 58.2191 144.877C57.8771 144.807 57.6328 144.357 57.3047 144.223C56.9766 144.09 56.6415 144.012 56.3483 143.816C56.0551 143.619 55.8457 143.352 55.5944 143.099C55.3431 142.845 55.015 142.677 54.8195 142.381C54.624 142.086 54.4914 141.756 54.3588 141.425C54.2261 141.095 54.2471 140.743 54.1773 140.385C54.1075 140.026 54.0097 139.717 54.0097 139.351L53.9958 139.344Z" fill="#181C56"/>
<path d="M59.0716 131.555C58.6947 131.899 59.0088 131.984 59.0088 132.497C59.0088 133.01 59.0646 133.01 59.0646 133.53C59.0646 134.051 58.9739 134.044 58.9739 134.564C58.9739 135.084 58.9948 135.077 58.9111 135.583C58.8133 136.167 58.8482 136.061 58.5062 136.673C58.3386 136.975 58.1013 137.306 57.8988 137.678C57.7173 138.009 57.5707 138.388 57.3823 138.74C57.1938 139.091 57.0821 139.352 57.0402 139.647C56.9913 139.998 56.9425 140.322 57.096 140.624C57.2357 140.891 57.3474 141.292 57.6475 141.524C57.8988 141.721 58.3596 141.721 58.7086 141.693C59.0158 141.665 59.3858 141.559 59.6789 141.411C59.9931 141.257 60.2374 140.969 60.4399 140.758C60.5864 140.61 60.9634 140.441 61.2496 140.104C61.459 139.865 61.3962 139.345 61.6196 139.07C61.843 138.796 62.3665 138.775 62.576 138.522C62.8343 138.206 62.8552 137.749 63.0158 137.559C63.1554 137.383 63.2741 137.221 63.2741 136.996C63.2741 136.441 63.4346 136.441 63.4346 135.879C63.4346 135.316 63.4137 135.323 63.4137 134.761C63.4137 134.198 63.3997 134.177 63.3997 133.594C63.3997 133.01 63.3788 133.01 63.3788 132.427C63.3788 131.892 62.8692 131.471 62.3386 131.471C61.7802 131.471 61.7802 131.541 61.2217 131.541C60.6632 131.541 60.6632 131.492 60.1187 131.393C59.5742 131.295 59.4835 131.154 59.0716 131.534V131.555Z" fill="white"/>
<path d="M59.0716 131.555C58.6947 131.899 59.0088 131.984 59.0088 132.497C59.0088 133.01 59.0646 133.01 59.0646 133.53C59.0646 134.051 58.9739 134.044 58.9739 134.564C58.9739 135.084 58.9948 135.077 58.9111 135.583C58.8133 136.167 58.8482 136.061 58.5062 136.673C58.3386 136.975 58.1013 137.306 57.8988 137.678C57.7173 138.009 57.5707 138.388 57.3823 138.74C57.1938 139.091 57.0821 139.352 57.0402 139.647C56.9913 139.998 56.9425 140.322 57.096 140.624C57.2357 140.891 57.3474 141.292 57.6475 141.524C57.8988 141.721 58.3596 141.721 58.7086 141.693C59.0158 141.665 59.3858 141.559 59.6789 141.411C59.9931 141.257 60.2374 140.969 60.4399 140.758C60.5864 140.61 60.9634 140.441 61.2496 140.104C61.459 139.865 61.3962 139.345 61.6196 139.07C61.843 138.796 62.3665 138.775 62.576 138.522C62.8343 138.206 62.8552 137.749 63.0158 137.559C63.1554 137.383 63.2741 137.221 63.2741 136.996C63.2741 136.441 63.4346 136.441 63.4346 135.879C63.4346 135.316 63.4137 135.323 63.4137 134.761C63.4137 134.198 63.3997 134.177 63.3997 133.594C63.3997 133.01 63.3788 133.01 63.3788 132.427C63.3788 131.892 62.8692 131.471 62.3386 131.471C61.7802 131.471 61.7802 131.541 61.2217 131.541C60.6632 131.541 60.6632 131.492 60.1187 131.393C59.5742 131.295 59.4835 131.154 59.0716 131.534V131.555Z" stroke="#181C56" stroke-miterlimit="10"/>
<path d="M61.5688 131.387C61.0383 131.387 61.0383 131.506 60.5147 131.506C59.9912 131.506 59.9842 131.464 59.4606 131.464C58.9371 131.464 58.9301 131.464 58.4065 131.464C57.883 131.464 57.876 131.52 57.3524 131.52C56.8289 131.52 56.8219 131.387 56.2984 131.387C55.7748 131.387 55.7678 131.295 55.2442 131.295C54.7207 131.295 54.7137 131.619 54.1901 131.619C53.6666 131.619 53.6596 131.647 53.136 131.647C52.6125 131.647 52.6055 131.302 52.0819 131.302C51.5584 131.302 51.5514 131.45 51.0279 131.45C50.5043 131.45 50.4973 131.38 49.9737 131.38C49.4502 131.38 49.4432 131.337 48.9196 131.337C48.3961 131.337 48.3891 131.492 47.8656 131.492C47.342 131.492 47.335 131.429 46.8045 131.429C46.2739 131.429 46.2739 131.358 45.7504 131.358C45.2268 131.358 45.2268 131.506 44.6963 131.506C44.1657 131.506 44.1657 131.619 43.6422 131.619C43.1186 131.619 43.1116 131.302 42.5881 131.302C42.0645 131.302 42.0575 131.351 41.527 131.351C40.9964 131.351 40.9964 131.527 40.4729 131.527C39.9493 131.527 39.9423 131.365 39.4188 131.365C38.8952 131.365 38.8883 131.52 38.3647 131.52C37.8411 131.52 37.8341 131.548 37.3106 131.548C36.787 131.548 36.78 131.598 36.2565 131.598C35.7329 131.598 35.726 131.555 35.2024 131.555C34.6788 131.555 34.6718 131.415 34.1413 131.415C33.6108 131.415 33.6108 131.415 33.0872 131.415C32.5636 131.415 32.5567 131.387 32.0331 131.387C31.5095 131.387 31.5026 131.344 30.979 131.344C30.4555 131.344 30.4485 131.415 29.9179 131.415C29.3874 131.415 29.3874 131.499 28.8568 131.499C28.3263 131.499 28.3263 131.52 27.8027 131.52C27.2792 131.52 27.2722 131.351 26.7417 131.351C26.2111 131.351 26.2111 131.323 25.6806 131.323C25.15 131.323 25.15 131.394 24.6195 131.394C24.089 131.394 24.089 131.647 23.5584 131.647C23.0279 131.647 23.0279 131.626 22.4973 131.626C21.9668 131.626 21.9668 131.302 21.4363 131.302C20.9057 131.302 20.9057 131.436 20.3822 131.436C19.8586 131.436 19.8516 131.323 19.3281 131.323C18.8045 131.323 18.7975 131.619 18.267 131.619C17.7364 131.619 17.7364 131.415 17.2059 131.415C16.6754 131.415 16.6754 131.344 16.1448 131.344C15.6143 131.344 15.6143 131.59 15.0837 131.59C14.5532 131.59 14.5532 131.626 14.0227 131.626C13.4921 131.626 13.4921 131.605 12.9616 131.605C12.431 131.605 12.431 131.457 11.9005 131.457C11.37 131.457 11.37 131.647 10.8394 131.647C10.4974 131.647 10.1553 131.499 9.8272 131.457C9.49911 131.415 9.15007 131.373 8.82197 131.295C8.49387 131.218 8.23559 130.923 7.92145 130.796C7.60731 130.669 7.23035 130.691 6.93716 130.536C6.64396 130.381 6.34379 130.198 6.06456 130.009C5.78532 129.819 5.61081 129.495 5.3595 129.27C5.10819 129.045 4.89876 128.792 4.67538 128.539C4.45199 128.286 4.08201 128.146 3.89353 127.864C3.70505 127.583 3.4677 127.316 3.31412 127.014C3.16054 126.711 3.23733 126.304 3.11866 125.98C2.99999 125.657 2.62302 125.425 2.54623 125.087C2.46944 124.75 2.51133 124.391 2.46944 124.054C2.42756 123.716 2.5602 123.372 2.5602 123.027C2.5602 122.676 2.5602 122.324 2.5602 121.973C2.5602 121.446 2.4136 121.446 2.4136 120.918C2.4136 120.391 2.53925 120.391 2.53925 119.864C2.53925 119.337 2.63698 119.337 2.63698 118.809C2.63698 118.282 2.65095 118.282 2.65095 117.755C2.65095 117.227 2.46944 117.227 2.46944 116.7C2.46944 116.173 2.50435 116.173 2.50435 115.646C2.50435 115.118 2.32285 115.118 2.32285 114.591C2.32285 114.064 2.56718 114.064 2.56718 113.536C2.56718 113.009 2.51134 113.009 2.51134 112.482C2.51134 111.955 2.43455 111.955 2.43455 111.427C2.43455 110.9 2.53228 110.9 2.53228 110.373C2.53228 109.846 2.54623 109.846 2.54623 109.318C2.54623 108.791 2.46246 108.791 2.46246 108.264C2.46246 107.736 2.47643 107.736 2.47643 107.209C2.47643 106.682 2.4485 106.682 2.4485 106.155C2.4485 105.627 2.52529 105.627 2.52529 105.1C2.52529 104.573 2.61604 104.573 2.61604 104.045C2.61604 103.518 2.5951 103.518 2.5951 102.991C2.5951 102.464 2.5951 102.464 2.5951 101.936C2.5951 101.409 2.5951 101.409 2.5951 100.882C2.5951 100.354 2.42756 100.354 2.42756 99.8272C2.42756 99.2999 2.42756 99.2999 2.42756 98.7727C2.42756 98.2454 2.44152 98.2454 2.44152 97.7181C2.44152 97.1908 2.39964 97.1908 2.39964 96.6635C2.39964 96.1363 2.39964 96.1363 2.39964 95.609C2.39964 95.0817 2.5951 95.0817 2.5951 94.5474C2.5951 94.0131 2.56718 94.0201 2.56718 93.4928C2.56718 92.9656 2.29492 92.9656 2.29492 92.4383C2.29492 91.911 2.62302 91.911 2.62302 91.3837C2.62302 90.8564 2.65793 90.8564 2.65793 90.3292C2.65793 89.8019 2.29492 89.8019 2.29492 89.2746C2.29492 88.7473 2.32983 88.7473 2.32983 88.22C2.32983 87.6928 2.58114 87.6928 2.58114 87.1655C2.58114 86.6382 2.51831 86.6382 2.51831 86.1039C2.51831 85.5696 2.46944 85.5766 2.46944 85.0493C2.46944 84.5221 2.49039 84.5221 2.49039 83.9948C2.49039 83.4675 2.53925 83.4675 2.53925 82.9402C2.53925 82.4129 2.49039 82.4129 2.49039 81.8857C2.49039 81.3584 2.67189 81.3584 2.67189 80.8241C2.67189 80.2898 2.45549 80.2968 2.45549 79.7695C2.45549 79.2423 2.60208 79.2423 2.60208 78.715C2.60208 78.1877 2.61604 78.1877 2.61604 77.6604C2.61604 77.1331 2.62302 77.1331 2.62302 76.6059C2.62302 76.0786 2.55322 76.0786 2.55322 75.5443C2.55322 75.01 2.38568 75.017 2.38568 74.4897C2.38568 73.9624 2.31587 73.9624 2.31587 73.4352C2.31587 72.9079 2.39266 72.9079 2.39266 72.3806C2.39266 71.8533 2.5951 71.8533 2.5951 71.326C2.5951 70.7988 2.3787 70.7988 2.3787 70.2715C2.3787 69.7442 2.36473 69.7442 2.36473 69.2169C2.36473 68.6896 2.38568 68.6896 2.38568 68.1553C2.38568 67.621 2.53228 67.6281 2.53228 67.1008C2.53228 66.5735 2.53228 66.5735 2.53228 66.0462C2.53228 65.5189 2.32285 65.5189 2.32285 64.9917C2.32285 64.4644 2.66491 64.4644 2.66491 63.9301C2.66491 63.3958 2.38568 63.4028 2.38568 62.8685C2.38568 62.3342 2.51831 62.3412 2.51831 61.8139C2.51831 61.2867 2.31587 61.2866 2.31587 60.7523C2.31587 60.218 2.66491 60.2251 2.66491 59.6907C2.66491 59.1564 2.40662 59.1635 2.40662 58.6292C2.40662 58.0949 2.56718 58.1019 2.56718 57.5676C2.56718 57.0333 2.53228 57.0403 2.53228 56.506C2.53228 55.9717 2.58812 55.9787 2.58812 55.4444C2.58812 54.9101 2.32983 54.9171 2.32983 54.3899C2.32983 53.8626 2.58812 53.8626 2.58812 53.3353C2.58812 52.808 2.30191 52.808 2.30191 52.2737C2.30191 51.7394 2.3787 51.7464 2.3787 51.2121C2.3787 50.6778 2.30889 50.6848 2.30889 50.1505C2.30889 49.6162 2.58114 49.6162 2.58114 49.0889C2.58114 48.5617 2.60208 48.5617 2.60208 48.0273C2.60208 47.493 2.5602 47.493 2.5602 46.9658C2.5602 46.4385 2.39266 46.4315 2.39266 45.9042C2.39266 45.3769 2.40662 45.3699 2.40662 44.8426C2.40662 44.4981 2.49737 44.1606 2.53925 43.8232C2.58114 43.4857 2.53925 43.1201 2.61604 42.7967C2.69283 42.4733 2.88829 42.164 3.00697 41.8477C3.12564 41.5313 3.30715 41.236 3.46072 40.9407C3.6143 40.6455 3.78184 40.3432 3.97032 40.069C4.1588 39.7948 4.49387 39.6331 4.71726 39.38C4.94064 39.1269 5.0663 38.7965 5.32459 38.5715C5.58288 38.3465 5.78533 38.0583 6.05758 37.8685C6.32983 37.6786 6.65095 37.538 6.95112 37.3834C7.25129 37.2287 7.54448 37.0529 7.85862 36.9334C8.17275 36.8139 8.50784 36.7436 8.83593 36.6662C9.16403 36.5889 9.49212 36.5467 9.83418 36.5046C10.1762 36.4624 10.4974 36.4835 10.8394 36.4835C11.37 36.4835 11.37 36.5186 11.8935 36.5186C12.4171 36.5186 12.4241 36.5819 12.9476 36.5819C13.4712 36.5819 13.4782 36.5819 14.0017 36.5819C14.5253 36.5819 14.5323 36.3077 15.0558 36.3077C15.5794 36.3077 15.5864 36.5397 16.1099 36.5397C16.6335 36.5397 16.6405 36.3007 17.164 36.3007C17.6876 36.3007 17.6946 36.5608 18.2181 36.5608C18.7417 36.5608 18.7487 36.5116 19.2722 36.5116C19.7958 36.5116 19.8028 36.5046 20.3263 36.5046C20.8499 36.5046 20.8569 36.3288 21.3804 36.3288C21.904 36.3288 21.911 36.5327 22.4345 36.5327C22.9581 36.5327 22.9651 36.5327 23.4886 36.5327C24.0122 36.5327 24.0192 36.2444 24.5427 36.2444C25.0663 36.2444 25.0733 36.4764 25.6038 36.4764C26.1343 36.4764 26.1343 36.3077 26.6579 36.3077C27.1815 36.3077 27.1815 36.5538 27.712 36.5538C28.2425 36.5538 28.2425 36.4553 28.7661 36.4553C29.2897 36.4553 29.2966 36.4764 29.8202 36.4764C30.3438 36.4764 30.3507 36.3569 30.8813 36.3569C31.4118 36.3569 31.4118 36.3921 31.9354 36.3921C32.4589 36.3921 32.4659 36.2444 32.9895 36.2444C33.513 36.2444 33.52 36.3499 34.0436 36.3499C34.5671 36.3499 34.5741 36.4413 35.0977 36.4413C35.6212 36.4413 35.6282 36.2163 36.1518 36.2163C36.6753 36.2163 36.6823 36.3921 37.2059 36.3921C37.7294 36.3921 37.7364 36.2444 38.267 36.2444C38.7975 36.2444 38.7975 36.2866 39.3211 36.2866C39.8446 36.2866 39.8516 36.5608 40.3752 36.5608C40.8987 36.5608 40.9057 36.2515 41.4293 36.2515C41.9528 36.2515 41.9598 36.5327 42.4903 36.5327C43.0209 36.5327 43.0209 36.5467 43.5514 36.5467C44.082 36.5467 44.082 36.4694 44.6055 36.4694C45.1291 36.4694 45.1361 36.5327 45.6666 36.5327C46.1971 36.5327 46.1971 36.4975 46.7277 36.4975C47.2582 36.4975 47.2582 36.4553 47.7888 36.4553C48.3193 36.4553 48.3193 36.3218 48.8498 36.3218C49.3804 36.3218 49.3804 36.2585 49.9109 36.2585C50.4415 36.2585 50.4415 36.5467 50.972 36.5467C51.5025 36.5467 51.5025 36.3288 52.0261 36.3288C52.5497 36.3288 52.5566 36.596 53.0802 36.596C53.6038 36.596 53.6107 36.5608 54.1413 36.5608C54.6718 36.5608 54.6718 36.2725 55.2024 36.2725C55.7329 36.2725 55.7329 36.3358 56.2634 36.3358C56.794 36.3358 56.794 36.3921 57.3245 36.3921C57.8551 36.3921 57.8551 36.4483 58.3856 36.4483C58.9161 36.4483 58.9161 36.603 59.4467 36.603C59.9772 36.603 59.9772 36.2304 60.5078 36.2304C61.0383 36.2304 61.0383 36.3429 61.5688 36.3429C61.9109 36.3429 62.246 36.4483 62.5811 36.4905C62.9161 36.5327 63.2931 36.4343 63.6142 36.5116C63.9353 36.5889 64.2425 36.8139 64.5566 36.9334C64.8708 37.0529 65.143 37.2779 65.4432 37.4326C65.7434 37.5872 65.9947 37.8122 66.2739 38.009C66.5531 38.2059 66.9371 38.2622 67.1884 38.4871C67.4397 38.7121 67.7259 38.923 67.9493 39.1761C68.1727 39.4292 68.1797 39.858 68.3751 40.1393C68.5706 40.4205 68.6753 40.7298 68.8359 41.0251C68.9964 41.3204 69.3734 41.5172 69.492 41.8336C69.6107 42.1499 69.52 42.5366 69.6037 42.867C69.6875 43.1975 69.8969 43.4928 69.9388 43.8372C69.9807 44.1817 69.7922 44.5192 69.7922 44.8567C69.7922 45.3839 69.9528 45.3839 69.9528 45.9112C69.9528 46.4385 69.8201 46.4385 69.8201 46.9658C69.8201 47.493 69.8341 47.493 69.8341 48.0203C69.8341 48.5476 69.89 48.5476 69.89 49.0749C69.89 49.6022 70.0854 49.6022 70.0854 50.1294C70.0854 50.6567 70.0645 50.6567 70.0645 51.184C70.0645 51.7113 70.1273 51.7113 70.1273 52.2386C70.1273 52.7658 69.9039 52.7658 69.9039 53.2931C69.9039 53.8204 69.7643 53.8204 69.7643 54.3477C69.7643 54.8749 69.8969 54.8749 69.8969 55.4022C69.8969 55.9295 70.0017 55.9295 70.0017 56.4568C70.0017 56.9841 69.8411 56.9841 69.8411 57.5113C69.8411 58.0386 70.0226 58.0386 70.0226 58.5659C70.0226 59.0932 69.7643 59.0932 69.7643 59.6205C69.7643 60.1477 70.0086 60.1477 70.0086 60.675C70.0086 61.2023 69.9318 61.2023 69.9318 61.7296C69.9318 62.2569 70.0296 62.2569 70.0296 62.7841C70.0296 63.3114 69.8132 63.3114 69.8132 63.8387C69.8132 64.366 70.1064 64.366 70.1064 64.8932C70.1064 65.4205 69.883 65.4205 69.883 65.9478C69.883 66.4751 69.7573 66.4751 69.7573 67.0024C69.7573 67.5296 70.1064 67.5296 70.1064 68.0569C70.1064 68.5842 69.855 68.5842 69.855 69.1115C69.855 69.6388 69.9039 69.6388 69.9039 70.166C69.9039 70.6933 69.862 70.6933 69.862 71.2206C69.862 71.7479 69.876 71.7479 69.876 72.2751C69.876 72.8024 69.8969 72.8024 69.8969 73.3367C69.8969 73.871 70.0226 73.864 70.0226 74.3913C70.0226 74.9186 69.9877 74.9186 69.9877 75.4458C69.9877 75.9731 69.9039 75.9731 69.9039 76.5004C69.9039 77.0277 69.8201 77.0277 69.8201 77.5549C69.8201 78.0822 69.869 78.0822 69.869 78.6095C69.869 79.1368 70.0784 79.1368 70.0784 79.6641C70.0784 80.1913 69.869 80.1913 69.869 80.7186C69.869 81.2459 70.0017 81.2459 70.0017 81.7802C70.0017 82.3145 70.0017 82.3075 70.0017 82.8348C70.0017 83.362 69.8411 83.362 69.8411 83.8893C69.8411 84.4166 69.9528 84.4166 69.9528 84.9439C69.9528 85.4712 70.0645 85.4712 70.0645 85.9984C70.0645 86.5257 70.0784 86.5257 70.0784 87.06C70.0784 87.5943 69.8062 87.5873 69.8062 88.1146C69.8062 88.6419 70.0226 88.6419 70.0226 89.1692C70.0226 89.6964 70.0505 89.6964 70.0505 90.2237C70.0505 90.751 69.9807 90.751 69.9807 91.2783C69.9807 91.8055 69.9388 91.8055 69.9388 92.3398C69.9388 92.8741 69.8132 92.8671 69.8132 93.3944C69.8132 93.9217 69.8411 93.9217 69.8411 94.449C69.8411 94.9762 69.9318 94.9762 69.9318 95.5035C69.9318 96.0308 70.0086 96.0308 70.0086 96.5581C70.0086 97.0853 70.0575 97.0853 70.0575 97.6126C70.0575 98.1399 69.9318 98.1399 69.9318 98.6672C69.9318 99.1945 69.8271 99.1945 69.8271 99.7288C69.8271 100.263 70.1064 100.256 70.1064 100.783C70.1064 101.311 70.0226 101.311 70.0226 101.838C70.0226 102.365 69.9807 102.365 69.9807 102.892C69.9807 103.42 69.8062 103.42 69.8062 103.954C69.8062 104.488 69.8132 104.481 69.8132 105.016C69.8132 105.55 69.9179 105.543 69.9179 106.07C69.9179 106.597 69.9179 106.597 69.9179 107.132C69.9179 107.666 69.876 107.659 69.876 108.193C69.876 108.728 69.855 108.721 69.855 109.255C69.855 109.789 70.0714 109.782 70.0714 110.317C70.0714 110.851 69.7992 110.844 69.7992 111.378C69.7992 111.912 69.7713 111.905 69.7713 112.44C69.7713 112.974 69.8132 112.967 69.8132 113.494C69.8132 114.022 70.0575 114.022 70.0575 114.549C70.0575 115.076 69.8481 115.076 69.8481 115.61C69.8481 116.145 69.9947 116.138 69.9947 116.672C69.9947 117.206 70.0086 117.199 70.0086 117.734C70.0086 118.268 69.9388 118.268 69.9388 118.795C69.9388 119.322 70.0156 119.322 70.0156 119.857C70.0156 120.391 69.9388 120.391 69.9388 120.918C69.9388 121.446 69.9528 121.453 69.9528 121.98C69.9528 122.507 69.9597 122.514 69.9597 123.042C69.9597 123.386 69.9737 123.738 69.9388 124.068C69.9039 124.398 69.869 124.764 69.7922 125.087C69.7154 125.411 69.4781 125.706 69.3594 126.022C69.2407 126.339 69.2756 126.747 69.1221 127.042C68.9685 127.337 68.5287 127.478 68.3402 127.759C68.1517 128.04 68.1238 128.455 67.9004 128.708C67.677 128.961 67.328 129.102 67.0767 129.327C66.8254 129.552 66.6439 129.882 66.3716 130.072C66.0994 130.262 65.7713 130.402 65.4711 130.564C65.1709 130.726 64.8847 130.937 64.5706 131.056C64.2565 131.176 63.8446 130.972 63.5165 131.056C63.1884 131.141 62.9231 131.52 62.5811 131.562C62.239 131.605 61.8969 131.394 61.5549 131.394L61.5688 131.387Z" stroke="#181C56" stroke-width="1.5" stroke-linecap="round" stroke-linejoin="round"/>
<path d="M22.1704 44.9479L21.6189 44.6245L21.1791 44.1745L20.6765 43.8019L20.2367 43.359L19.748 42.9583L19.2733 42.5505L18.7777 42.1638L18.289 41.7631L17.8842 41.278L17.3466 40.9335L16.9208 40.4695L16.4601 40.0336L15.9365 39.6821L15.5107 39.2111L14.9941 38.8385L14.4985 38.7119L14.0517 38.9228L13.591 39.3798L13.1861 39.886L12.7812 40.3922L12.4042 40.9195L11.8946 41.3272L11.5386 41.8756L11.1267 42.3677L10.6939 42.8458L10.2262 43.3028L9.81436 43.7949L9.46532 44.3503L8.97666 44.7791L8.59272 45.2924L8.22971 45.8267L7.76899 46.2766L7.35711 46.7758L6.96619 47.296L6.51244 47.753L6.12152 48.2662L5.70966 48.7724L5.28383 49.2575L4.78819 49.6864L4.39028 50.1996L4.01332 50.7268L3.5107 51.1557L3.16166 51.7041L2.69395 52.161L2.29604 52.6743L1.90512 53.1945L1.40949 53.6304L1.05346 54.1858L0.830078 54.6779L1.10931 55.1419L1.60495 55.5286L2.00983 56.0207L2.49151 56.4144L2.95922 56.8292L3.42693 57.251L3.92955 57.6307L4.39726 58.0455L4.86498 58.4743L5.36062 58.854L5.87021 59.2266L6.36584 59.6132L6.75678 60.1194L7.23844 60.5272L7.76899 60.8857L8.27858 61.2654L8.73932 61.4693L9.15118 61.188L9.61889 60.7311L10.0727 60.2741L10.4636 59.7539L10.9034 59.2828L11.2664 58.7415L11.762 58.3267L12.1459 57.8064L12.5508 57.3002L12.9417 56.78L13.4025 56.323L13.8353 55.852L14.1913 55.3036L14.6311 54.8396L15.1128 54.4037L15.4479 53.8483L15.8807 53.3632L16.2925 52.8641L16.7044 52.3649L17.1093 51.8658L17.6049 51.4369L18.0308 50.9518L18.3589 50.3753L18.7917 49.8902L19.2035 49.3911L19.6224 48.899L20.0691 48.4279L20.488 47.9358L20.9906 47.5069L21.3606 46.9656L21.8074 46.4875L22.2192 45.9813L22.3239 45.4681L22.1704 44.9479Z" fill="white"/>
<path d="M22.1704 44.9479L21.6189 44.6245L21.1791 44.1745L20.6765 43.8019L20.2367 43.359L19.748 42.9583L19.2733 42.5505L18.7777 42.1638L18.289 41.7631L17.8842 41.278L17.3466 40.9335L16.9208 40.4695L16.4601 40.0336L15.9365 39.6821L15.5107 39.2111L14.9941 38.8385L14.4985 38.7119L14.0517 38.9228L13.591 39.3798L13.1861 39.886L12.7812 40.3922L12.4042 40.9195L11.8946 41.3272L11.5386 41.8756L11.1267 42.3677L10.6939 42.8458L10.2262 43.3028L9.81436 43.7949L9.46532 44.3503L8.97666 44.7791L8.59272 45.2924L8.22971 45.8267L7.76899 46.2766L7.35711 46.7758L6.96619 47.296L6.51244 47.753L6.12152 48.2662L5.70966 48.7724L5.28383 49.2575L4.78819 49.6864L4.39028 50.1996L4.01332 50.7268L3.5107 51.1557L3.16166 51.7041L2.69395 52.161L2.29604 52.6743L1.90512 53.1945L1.40949 53.6304L1.05346 54.1858L0.830078 54.6779L1.10931 55.1419L1.60495 55.5286L2.00983 56.0207L2.49151 56.4144L2.95922 56.8292L3.42693 57.251L3.92955 57.6307L4.39726 58.0455L4.86498 58.4743L5.36062 58.854L5.87021 59.2266L6.36584 59.6132L6.75678 60.1194L7.23844 60.5272L7.76899 60.8857L8.27858 61.2654L8.73932 61.4693L9.15118 61.188L9.61889 60.7311L10.0727 60.2741L10.4636 59.7539L10.9034 59.2828L11.2664 58.7415L11.762 58.3267L12.1459 57.8064L12.5508 57.3002L12.9417 56.78L13.4025 56.323L13.8353 55.852L14.1913 55.3036L14.6311 54.8396L15.1128 54.4037L15.4479 53.8483L15.8807 53.3632L16.2925 52.8641L16.7044 52.3649L17.1093 51.8658L17.6049 51.4369L18.0308 50.9518L18.3589 50.3753L18.7917 49.8902L19.2035 49.3911L19.6224 48.899L20.0691 48.4279L20.488 47.9358L20.9906 47.5069L21.3606 46.9656L21.8074 46.4875L22.2192 45.9813L22.3239 45.4681L22.1704 44.9479Z" stroke="#181C56" stroke-miterlimit="10"/>
<path d="M22.0315 32.6023L21.2357 32.9609L21.2636 32.9468L20.6284 33.5866L20.0211 34.2475C20.1397 34.0717 19.5673 35.0419 19.5883 35.0067C19.6022 34.9786 18.9879 35.9207 19.1066 35.7309C18.6738 36.8487 18.1293 37.8189 17.6616 38.8383C17.5987 39.1336 17.2916 39.9632 17.0054 40.378L16.9355 40.3568C17.0333 39.4851 17.0193 38.6555 17.3544 37.8048C17.7104 36.9823 18.2549 36.2722 18.6389 35.4707C18.6389 35.4637 19.2043 34.7677 19.2113 34.7537L19.7279 34.0154C20.1746 33.5796 20.6773 33.1929 21.1659 32.8062C21.1729 32.8062 21.9966 32.5461 22.0036 32.5391L22.0315 32.6023Z" fill="#FF5959"/>
<path d="M16.8584 45.0745C17.3789 45.0745 17.8008 44.6495 17.8008 44.1254C17.8008 43.6012 17.3789 43.1763 16.8584 43.1763C16.3379 43.1763 15.916 43.6012 15.916 44.1254C15.916 44.6495 16.3379 45.0745 16.8584 45.0745Z" fill="#181C56"/>
<path d="M16.6836 43.3586C16.7883 43.6117 16.886 43.8648 16.9838 44.1179L16.8581 44.0546L17.612 43.6469C17.4864 43.7242 18.352 43.0985 18.3241 43.1126C19.0431 42.4236 19.9855 41.2565 20.8092 40.448C20.6068 40.7293 21.2979 39.6817 21.263 39.7239C21.263 39.7239 21.277 39.7028 21.2839 39.6958C21.256 39.738 21.996 38.8029 21.8354 39.0279L22.2962 38.2194C22.5824 37.8398 23.1408 37.0946 23.4061 36.7009C23.6853 36.258 23.9715 35.6323 24.1461 35.0347C24.1251 35.351 24.0902 35.6604 24.0483 35.9697C23.9366 36.279 23.8529 36.5954 23.7272 36.8977C23.5178 37.3195 23.0571 38.1351 22.7988 38.5288C22.8825 38.3882 22.3869 39.3654 22.4079 39.3373C22.4079 39.3513 22.3799 39.3794 22.3729 39.3865L21.8145 40.1247L21.8354 40.0965L21.3468 40.8839L21.3258 40.9191L21.2979 40.9472L20.6417 41.587C20.2857 41.9947 19.7272 42.5361 19.3293 42.9087L18.6103 43.4992L18.5824 43.5203H18.5754L17.7656 43.9562L17.7447 43.9703L16.9279 44.2234L16.8162 44.2585C16.7604 43.9562 16.7185 43.6539 16.6836 43.3516V43.3586Z" fill="#FF5959"/>
<path d="M16.3892 48.5614C16.3473 48.9481 16.089 49.1238 15.8936 49.3558L15.9354 49.3066C15.9075 49.3488 15.4398 50.1784 15.4049 50.1784L14.7278 50.8111C14.3857 51.2822 13.6527 52.3578 13.1431 53.0116C13.1361 53.0257 13.1082 53.0538 13.0943 53.0679C13.1292 53.0327 12.2077 53.8553 12.3962 53.6795C12.3822 53.6936 11.7609 54.4248 11.74 54.4388L11.726 54.4529L11.007 55.1207L11.0489 55.0786L10.4416 55.8589L10.4206 55.8871L10.4067 55.9011L10.0506 56.2386C9.90403 56.4003 9.76442 56.4495 9.49915 56.3792C9.35255 56.2808 9.35953 56.0207 9.40839 55.9293C9.47122 55.7816 9.79932 55.5074 9.90403 55.3809L9.86913 55.4231L10.4485 54.6216L10.4625 54.6005L10.4904 54.5724L11.1885 53.8764C11.0698 54.01 11.8307 53.1312 11.8028 53.1593L11.8238 53.1382L11.8447 53.1171L12.5847 52.4703C12.9267 52.0414 13.7505 50.9377 14.281 50.2979C14.2391 50.3471 15.2094 49.4683 14.9232 49.7636L15.4189 48.9832L15.4398 48.9481L15.4538 48.934C15.6771 48.7231 15.8447 48.463 16.2286 48.4067L16.3892 48.5614Z" fill="#181C56"/>
<path d="M14.9933 47.2679C15.0073 47.6545 14.8188 47.9146 14.6582 48.2029L14.6233 48.2381L13.9532 48.8919C14.1067 48.7091 13.2341 49.7988 13.4366 49.5316C13.3877 49.6019 12.9828 50.4526 12.913 50.4667L12.201 51.0853L12.2848 50.9799L11.845 51.8236L11.817 51.8727L11.7682 51.922L11.0841 52.5617C11.2795 52.3297 10.5047 53.314 10.5396 53.2718C10.0928 53.7358 9.653 54.2139 9.22019 54.699C9.34584 54.5232 8.6687 55.4864 8.68964 55.4512L8.66172 55.4864L8.64078 55.5075L7.92874 56.1683L7.97761 56.1121L7.69837 56.5058C7.62856 56.6393 7.30046 56.8573 7.08406 56.6675C6.97935 56.3933 7.0352 56.2386 7.12595 56.1051L7.3982 55.6973C7.3982 55.6832 7.4331 55.6551 7.44706 55.641L8.13816 54.9591L8.08929 55.0153C8.08929 55.0153 8.62681 54.2068 8.6338 54.1998C9.26905 53.4194 9.96714 52.7937 10.5186 52.0134C10.5256 51.9993 10.5535 51.9712 10.5675 51.9641L11.2725 51.3385C10.9933 51.7462 11.6914 50.5792 11.6635 50.6143L11.6984 50.551L11.7472 50.5089L12.4802 49.9113L12.3964 50.0097L12.8642 49.1872L12.8851 49.152L12.906 49.1309L13.5064 48.4349L13.5204 48.4138C13.5204 48.4138 14.2115 47.7881 14.2254 47.774L14.1696 47.8373C14.3371 47.5702 14.4767 47.296 14.8118 47.1343L15.0073 47.2538L14.9933 47.2679Z" fill="#181C56"/>
<path d="M12.9692 45.9178C13.032 46.1991 12.8785 46.2694 12.7877 46.4029L12.4736 46.7615L12.4875 46.7404C11.9779 47.4997 11.2868 48.2238 10.6516 48.8706C10.2886 49.194 9.88368 49.5174 9.54163 49.8689C9.50672 49.9533 9.21353 49.89 9.09485 49.7283C8.9692 49.5034 8.99015 49.426 9.04599 49.3698C9.34617 49.0323 9.83482 48.5402 10.1001 48.3082C10.7423 47.6192 11.4264 47.0427 11.9849 46.3326L11.9989 46.3115L12.3339 45.9741C12.4526 45.8686 12.5154 45.7069 12.8017 45.7562L12.9622 45.9108L12.9692 45.9178Z" fill="#181C56"/>
<path d="M12.3691 57.8622C13.0114 57.8622 13.0114 57.6794 13.6606 57.6794C14.3098 57.6794 14.3028 57.7075 14.952 57.7075C15.6012 57.7075 15.5943 57.6231 16.2435 57.6231C16.8927 57.6231 16.8857 57.6934 17.5349 57.6934C18.1841 57.6934 18.1772 57.7708 18.8264 57.7708C19.4756 57.7708 19.4686 57.6302 20.1178 57.6302C20.767 57.6302 20.7601 57.6513 21.4093 57.6513C22.0585 57.6513 22.0585 57.8059 22.7007 57.8059C23.343 57.8059 23.3429 57.8059 23.9922 57.8059C24.6414 57.8059 24.6344 57.8692 25.2766 57.8692C25.9189 57.8692 25.9189 57.7286 26.5611 57.7286C27.2033 57.7286 27.2033 57.595 27.8456 57.595C28.4878 57.595 28.4878 57.6864 29.137 57.6864C29.7862 57.6864 29.7792 57.8551 30.4284 57.8551C31.0777 57.8551 31.0777 57.8622 31.7199 57.8622C32.3621 57.8622 32.3621 57.7427 33.0113 57.7427C33.6606 57.7427 33.6536 57.6091 34.3028 57.6091C34.952 57.6091 34.945 57.7567 35.5942 57.7567C36.2435 57.7567 36.2435 57.8551 36.8857 57.8551C37.5279 57.8551 37.5349 57.7356 38.1771 57.7356C38.8194 57.7356 38.8194 57.7075 39.4686 57.7075C40.1178 57.7075 40.1108 57.8059 40.76 57.8059C41.4092 57.8059 41.4092 57.5809 42.0515 57.5809C42.6937 57.5809 42.6937 57.7216 43.3429 57.7216C43.9921 57.7216 43.9921 57.588 44.6344 57.588C45.2766 57.588 45.2836 57.7216 45.9258 57.7216C46.568 57.7216 46.575 57.8341 47.2173 57.8341C47.8595 57.8341 47.8665 57.8551 48.5087 57.8551C49.1509 57.8551 49.1509 57.7637 49.8002 57.7637C50.4494 57.7637 50.4494 57.588 51.0916 57.588C51.7338 57.588 51.7408 57.7075 52.383 57.7075C53.0253 57.7075 53.0323 57.8411 53.6745 57.8411C54.3167 57.8411 54.3237 57.7919 54.9659 57.7919C55.6082 57.7919 55.6152 57.6723 56.2574 57.6723C56.8996 57.6723 56.9066 57.7356 57.5558 57.7356C58.205 57.7356 58.205 57.5669 58.8543 57.5669C59.5035 57.5669 59.5035 57.6723 60.1527 57.6723" stroke="#181C56" stroke-linecap="round" stroke-linejoin="round"/>
<path d="M12.3691 69.3642C13.0114 69.3642 13.0114 69.2658 13.6606 69.2658C14.3098 69.2658 14.3028 69.1955 14.952 69.1955C15.6012 69.1955 15.5943 69.3924 16.2435 69.3924C16.8927 69.3924 16.8857 69.1744 17.5349 69.1744C18.1841 69.1744 18.1772 69.2728 18.8264 69.2728C19.4756 69.2728 19.4686 69.3502 20.1178 69.3502C20.767 69.3502 20.7601 69.1252 21.4093 69.1252C22.0585 69.1252 22.0585 69.3502 22.7007 69.3502C23.343 69.3502 23.3429 69.1814 23.9922 69.1814C24.6414 69.1814 24.6344 69.3291 25.2766 69.3291C25.9189 69.3291 25.9189 69.3994 26.5611 69.3994C27.2033 69.3994 27.2033 69.2166 27.8456 69.2166C28.4878 69.2166 28.4878 69.2447 29.137 69.2447C29.7862 69.2447 29.7792 69.1603 30.4284 69.1603C31.0777 69.1603 31.0777 69.2307 31.7199 69.2307C32.3621 69.2307 32.3621 69.308 33.0113 69.308C33.6606 69.308 33.6536 69.1674 34.3028 69.1674C34.952 69.1674 34.945 69.1885 35.5942 69.1885C36.2435 69.1885 36.2435 69.3431 36.8857 69.3431C37.5279 69.3431 37.5349 69.3431 38.1771 69.3431C38.8194 69.3431 38.8194 69.4064 39.4686 69.4064C40.1178 69.4064 40.1108 69.2658 40.76 69.2658C41.4092 69.2658 41.4092 69.1322 42.0515 69.1322C42.6937 69.1322 42.6937 69.2236 43.3429 69.2236C43.9921 69.2236 43.9921 69.3924 44.6344 69.3924C45.2766 69.3924 45.2836 69.3994 45.9258 69.3994C46.568 69.3994 46.575 69.2799 47.2173 69.2799C47.8595 69.2799 47.8665 69.1463 48.5087 69.1463C49.1509 69.1463 49.1509 69.2939 49.8002 69.2939C50.4494 69.2939 50.4494 69.3924 51.0916 69.3924C51.7338 69.3924 51.7408 69.2728 52.383 69.2728C53.0253 69.2728 53.0323 69.2447 53.6745 69.2447C54.3167 69.2447 54.3237 69.3431 54.9659 69.3431C55.6082 69.3431 55.6152 69.1182 56.2574 69.1182C56.8996 69.1182 56.9066 69.2588 57.5558 69.2588C58.205 69.2588 58.205 69.1252 58.8543 69.1252C59.5035 69.1252 59.5035 69.2588 60.1527 69.2588" stroke="#181C56" stroke-linecap="round" stroke-linejoin="round"/>
<path d="M12.3691 80.8943C13.0114 80.8943 13.0114 80.6764 13.6606 80.6764C14.3098 80.6764 14.3028 80.8521 14.952 80.8521C15.6012 80.8521 15.5943 80.8521 16.2435 80.8521C16.8927 80.8521 16.8857 80.824 17.5349 80.824C18.1841 80.824 18.1772 80.7045 18.8264 80.7045C19.4756 80.7045 19.4686 80.7396 20.1178 80.7396C20.767 80.7396 20.7601 80.6693 21.4093 80.6693C22.0585 80.6693 22.0585 80.6623 22.7007 80.6623C23.343 80.6623 23.3429 80.8803 23.9922 80.8803C24.6414 80.8803 24.6344 80.7115 25.2766 80.7115C25.9189 80.7115 25.9189 80.8943 26.5611 80.8943C27.2033 80.8943 27.2033 80.7959 27.8456 80.7959C28.4878 80.7959 28.4878 80.7256 29.137 80.7256C29.7862 80.7256 29.7792 80.9224 30.4284 80.9224C31.0777 80.9224 31.0777 80.7045 31.7199 80.7045C32.3621 80.7045 32.3621 80.8029 33.0113 80.8029C33.6606 80.8029 33.6536 80.8803 34.3028 80.8803C34.952 80.8803 34.945 80.6553 35.5942 80.6553C36.2435 80.6553 36.2435 80.8803 36.8857 80.8803C37.5279 80.8803 37.5349 80.7115 38.1771 80.7115C38.8194 80.7115 38.8194 80.8592 39.4686 80.8592C40.1178 80.8592 40.1108 80.9295 40.76 80.9295C41.4092 80.9295 41.4092 80.7467 42.0515 80.7467C42.6937 80.7467 42.6937 80.7748 43.3429 80.7748C43.9921 80.7748 43.9921 80.6904 44.6344 80.6904C45.2766 80.6904 45.2836 80.7607 45.9258 80.7607C46.568 80.7607 46.575 80.8381 47.2173 80.8381C47.8595 80.8381 47.8665 80.6975 48.5087 80.6975C49.1509 80.6975 49.1509 80.7185 49.8002 80.7185C50.4494 80.7185 50.4494 80.8732 51.0916 80.8732C51.7338 80.8732 51.7408 80.8732 52.383 80.8732C53.0253 80.8732 53.0323 80.9365 53.6745 80.9365C54.3167 80.9365 54.3237 80.7959 54.9659 80.7959C55.6082 80.7959 55.6152 80.6623 56.2574 80.6623C56.8996 80.6623 56.9066 80.7537 57.5558 80.7537C58.205 80.7537 58.205 80.9224 58.8543 80.9224C59.5035 80.9224 59.5035 80.9295 60.1527 80.9295" stroke="#181C56" stroke-linecap="round" stroke-linejoin="round"/>
<path d="M12.3691 92.2622C13.0114 92.2622 13.0114 92.4591 13.6606 92.4591C14.3098 92.4591 14.3028 92.3466 14.952 92.3466C15.6012 92.3466 15.5943 92.4731 16.2435 92.4731C16.8927 92.4731 16.8857 92.1919 17.5349 92.1919C18.1841 92.1919 18.1772 92.3395 18.8264 92.3395C19.4756 92.3395 19.4686 92.2341 20.1178 92.2341C20.767 92.2341 20.7601 92.2833 21.4093 92.2833C22.0585 92.2833 22.0585 92.452 22.7007 92.452C23.343 92.452 23.3429 92.4169 23.9922 92.4169C24.6414 92.4169 24.6344 92.2622 25.2766 92.2622C25.9189 92.2622 25.9189 92.4309 26.5611 92.4309C27.2033 92.4309 27.2033 92.213 27.8456 92.213C28.4878 92.213 28.4878 92.3887 29.137 92.3887C29.7862 92.3887 29.7792 92.3887 30.4284 92.3887C31.0777 92.3887 31.0777 92.3606 31.7199 92.3606C32.3621 92.3606 32.3621 92.2411 33.0113 92.2411C33.6606 92.2411 33.6536 92.2763 34.3028 92.2763C34.952 92.2763 34.945 92.2059 35.5942 92.2059C36.2435 92.2059 36.2435 92.1989 36.8857 92.1989C37.5279 92.1989 37.5349 92.4169 38.1771 92.4169C38.8194 92.4169 38.8194 92.2481 39.4686 92.2481C40.1178 92.2481 40.1108 92.4309 40.76 92.4309C41.4092 92.4309 41.4092 92.3325 42.0515 92.3325C42.6937 92.3325 42.6937 92.2622 43.3429 92.2622C43.9921 92.2622 43.9921 92.4591 44.6344 92.4591C45.2766 92.4591 45.2836 92.2411 45.9258 92.2411C46.568 92.2411 46.575 92.3395 47.2173 92.3395C47.8595 92.3395 47.8665 92.4169 48.5087 92.4169C49.1509 92.4169 49.1509 92.1919 49.8002 92.1919C50.4494 92.1919 50.4494 92.4169 51.0916 92.4169C51.7338 92.4169 51.7408 92.2481 52.383 92.2481C53.0253 92.2481 53.0323 92.3958 53.6745 92.3958C54.3167 92.3958 54.3237 92.4661 54.9659 92.4661C55.6082 92.4661 55.6152 92.2833 56.2574 92.2833C56.8996 92.2833 56.9066 92.3114 57.5558 92.3114C58.205 92.3114 58.205 92.2271 58.8543 92.2271C59.5035 92.2271 59.5035 92.2973 60.1527 92.2973" stroke="#181C56" stroke-linecap="round" stroke-linejoin="round"/>
<path d="M12.3691 103.981C12.7973 103.981 13.2278 103.981 13.6606 103.981C14.3028 103.981 14.3028 103.778 14.952 103.778C15.6012 103.778 15.5943 103.981 16.2435 103.981C16.8927 103.981 16.8857 103.813 17.5349 103.813C18.1841 103.813 18.1772 103.827 18.8264 103.827C19.4756 103.827 19.4686 103.89 20.1178 103.89C20.767 103.89 20.7601 103.862 21.4093 103.862C22.0585 103.862 22.0585 103.939 22.7007 103.939C23.343 103.939 23.3429 103.735 23.9922 103.735C24.6414 103.735 24.6344 103.785 25.2766 103.785C25.9189 103.785 25.9189 103.806 26.5611 103.806C27.2033 103.806 27.2033 104.003 27.8456 104.003C28.4878 104.003 28.4878 103.89 29.137 103.89C29.7862 103.89 29.7792 104.017 30.4284 104.017C31.0777 104.017 31.0777 103.735 31.7199 103.735C32.3621 103.735 32.3621 103.883 33.0113 103.883C33.6606 103.883 33.6536 103.778 34.3028 103.778C34.952 103.778 34.945 103.827 35.5942 103.827C36.2435 103.827 36.2435 103.995 36.8857 103.995C37.5279 103.995 37.5349 103.96 38.1771 103.96C38.8194 103.96 38.8194 103.806 39.4686 103.806C40.1178 103.806 40.1108 103.974 40.76 103.974C41.4092 103.974 41.4092 103.756 42.0515 103.756C42.6937 103.756 42.6937 103.932 43.3429 103.932C43.9921 103.932 43.9921 103.932 44.6344 103.932C45.2766 103.932 45.2836 103.904 45.9258 103.904C46.568 103.904 46.575 103.785 47.2173 103.785C47.8595 103.785 47.8665 103.82 48.5087 103.82C49.1509 103.82 49.1509 103.749 49.8002 103.749C50.4494 103.749 50.4494 103.742 51.0916 103.742C51.7338 103.742 51.7408 103.96 52.383 103.96C53.0253 103.96 53.0323 103.792 53.6745 103.792C54.3167 103.792 54.3237 103.974 54.9659 103.974C55.6082 103.974 55.6152 103.876 56.2574 103.876C56.8996 103.876 56.9066 103.806 57.5558 103.806C58.205 103.806 58.205 104.003 58.8543 104.003C59.5035 104.003 59.5035 103.785 60.1527 103.785" stroke="#181C56" stroke-linecap="round" stroke-linejoin="round"/>
<path d="M12.3691 115.392C13.0114 115.392 13.0114 115.532 13.6606 115.532C14.3098 115.532 14.3028 115.293 14.952 115.293C15.6012 115.293 15.5943 115.385 16.2435 115.385C16.8927 115.385 16.8857 115.272 17.5349 115.272C18.1841 115.272 18.1772 115.258 18.8264 115.258C19.4756 115.258 19.4686 115.35 20.1178 115.35C20.767 115.35 20.7601 115.483 21.4093 115.483C22.0585 115.483 22.0585 115.371 22.7007 115.371C23.343 115.371 23.3429 115.399 23.9922 115.399C24.6414 115.399 24.6344 115.343 25.2766 115.343C25.9189 115.343 25.9189 115.525 26.5611 115.525C27.2033 115.525 27.2033 115.525 27.8456 115.525C28.4878 115.525 28.4878 115.322 29.137 115.322C29.7862 115.322 29.7792 115.525 30.4284 115.525C31.0777 115.525 31.0777 115.357 31.7199 115.357C32.3621 115.357 32.3621 115.371 33.0113 115.371C33.6606 115.371 33.6536 115.434 34.3028 115.434C34.952 115.434 34.945 115.406 35.5942 115.406C36.2435 115.406 36.2435 115.483 36.8857 115.483C37.5279 115.483 37.5349 115.279 38.1771 115.279C38.8194 115.279 38.8194 115.329 39.4686 115.329C40.1178 115.329 40.1108 115.35 40.76 115.35C41.4092 115.35 41.4092 115.547 42.0515 115.547C42.6937 115.547 42.6937 115.434 43.3429 115.434C43.9921 115.434 43.9921 115.561 44.6344 115.561C45.2766 115.561 45.2836 115.279 45.9258 115.279C46.568 115.279 46.575 115.427 47.2173 115.427C47.8595 115.427 47.8665 115.322 48.5087 115.322C49.1509 115.322 49.1509 115.371 49.8002 115.371C50.4494 115.371 50.4494 115.54 51.0916 115.54C51.7338 115.54 51.7408 115.504 52.383 115.504C53.0253 115.504 53.0323 115.35 53.6745 115.35C54.3167 115.35 54.3237 115.518 54.9659 115.518C55.6082 115.518 55.6152 115.3 56.2574 115.3C56.8996 115.3 56.9066 115.476 57.5558 115.476C58.205 115.476 58.205 115.476 58.8543 115.476C59.5035 115.476 59.5035 115.448 60.1527 115.448" stroke="#181C56" stroke-linecap="round" stroke-linejoin="round"/>
</svg>
