<?xml version="1.0" encoding="UTF-8"?>
<svg id="Layer_1" data-name="Layer 1" xmlns="http://www.w3.org/2000/svg" version="1.1" viewBox="0 0 712.17 571.1">
  <defs>
    <style>
      .cls-1 {
        stroke-width: 2.53px;
      }

      .cls-1, .cls-2, .cls-3, .cls-4, .cls-5 {
        fill: none;
        stroke-miterlimit: 10;
      }

      .cls-1, .cls-2, .cls-4, .cls-5 {
        stroke: #524b73;
      }

      .cls-6 {
        fill: #dfe3f3;
      }

      .cls-6, .cls-7, .cls-8 {
        stroke-width: 0px;
      }

      .cls-7 {
        fill: #524b73;
      }

      .cls-3 {
        stroke: #222055;
      }

      .cls-4 {
        stroke-width: 1.5px;
      }

      .cls-5 {
        stroke-width: 2px;
      }

      .cls-8 {
        fill: #fff;
      }
    </style>
  </defs>
  <g>
    <path class="cls-8" d="M176.48,451.52c-.25.58-.46.42-1.05.64s-.54.34-1.13.56-.76-.25-1.34-.03-.55.32-1.14.53-.47.53-1.06.75-.64.08-1.23.29-.57.27-1.16.49-.74-.17-1.32.05-.6.19-1.19.4-.41.7-1,.92-.76-.24-1.35-.02-.6.2-1.18.42-.42.68-1.01.9-.71-.11-1.3.11-.51.78-1.09.51-.44-.45-.66-1.05-.19-.61-.42-1.21-.05-.66-.27-1.26-.04-.67-.26-1.27-.35-.55-.57-1.15-.02-.68-.24-1.28-.52-.49-.74-1.09-.18-.62-.41-1.22-.16-.62-.39-1.22-.52-.49-.75-1.09-.12-.64-.35-1.24.12-.73-.1-1.33-.29-.58-.52-1.18-.21-.61-.44-1.21-.67-.44-.89-1.04-.1-.65-.32-1.25-.03-.67-.25-1.28-.07-.66-.29-1.26-.72-.42-.94-1.02.26-.78.04-1.38-.38-.54-.61-1.14,0-.68-.23-1.28-.46-.51-.69-1.11-.4-.54-.62-1.14-.4-.53-.62-1.13.16-.74-.06-1.34-.28-.58-.51-1.18-.22-.6-.44-1.2-.17-.62-.39-1.22-.1-.65-.32-1.25-.66-.44-.89-1.04.08-.71-.14-1.31-.19-.61-.41-1.21-.5-.5-.73-1.1.17-.75-.05-1.35-.73-.41-.95-1.01-.12-.64-.34-1.24.02-.69-.21-1.29-.41-.53-.64-1.13.11-.73-.12-1.33-.28-.58-.51-1.18-.23-.6-.46-1.2-.49-.5-.71-1.1-.25-.59-.48-1.19-.05-.67-.27-1.27-.41-.53-.64-1.13-.07-.66-.29-1.26-.35-.55-.58-1.15,0-.69-.22-1.29-.06-.66-.29-1.26-.23-.6-.46-1.2-.27-.59-.49-1.19-.22-.6-.44-1.21-.22-.6-.45-1.2-.16-.63-.39-1.23-.48-.51-.71-1.11-.45-.52-.67-1.12.04-.7-.19-1.3-.45-.52-.68-1.12-.08-.66-.3-1.26-.37-.55-.59-1.15-.03-.67-.26-1.27,0-.68-.23-1.28-.45-.52-.67-1.12-.42-.53-.64-1.13.04-.7-.18-1.3-.24-.6-.46-1.2-.33-.56-.56-1.16-.21-.61-.44-1.21-.25-.59-.48-1.2-.28-.58-.5-1.19.1-.72-.12-1.33-.32-.57-.55-1.17-.4-.54-.62-1.14.01-.69-.21-1.29-.16-.63-.39-1.23-.28-.58-.5-1.18-.56-.48-.79-1.08.18-.75-.04-1.36-.44-.52-.66-1.13-.47-.51-.69-1.12-.12-.64-.34-1.25.11-.73-.12-1.33-.69-.43-.92-1.03,0-.68-.23-1.29-.36-.55-.58-1.16-.01-.68-.24-1.28-.51-.5-.74-1.1-.23-.6-.45-1.21-.28-.58-.5-1.18.07-.71-.15-1.31-.41-.53-.63-1.13-.36-.55-.59-1.15,0-.68-.23-1.28-.39-.54-.62-1.14-.25-.59-.47-1.19.1-.72-.12-1.33-.13-.64-.35-1.24-.13-.64-.36-1.24-.42-.53-.65-1.13-.17-.62-.4-1.22-.1-.65-.32-1.25-.61-.46-.83-1.06,0-.69-.22-1.29-.48-.51-.71-1.11-.25-.6-.47-1.2,0-.68-.23-1.29-.48-.51-.7-1.11.08-.72-.14-1.32-.3-.58-.52-1.18-.24-.6-.47-1.2-.36-.55-.59-1.16-.12-.64-.35-1.25-.11-.65-.33-1.25-.02-.68-.24-1.29-.6-.47-.82-1.07.14-.74-.08-1.34-.39-.54-.62-1.15-.18-.62-.4-1.22-.09-.65-.31-1.26-.51-.5-.73-1.11-.12-.64-.35-1.25-.37-.55-.59-1.16-.09-.66-.31-1.26-.26-.59-.48-1.2-.37-.55-.59-1.16-.02-.69-.24-1.29-.83-.55-.57-1.14.54-.26,1.13-.48.52-.41,1.11-.62.64-.08,1.22-.3.52-.39,1.11-.6.64-.07,1.23-.29.59-.22,1.18-.43.66-.02,1.25-.24.59-.21,1.18-.43.56-.3,1.15-.52.51-.42,1.1-.64.65-.05,1.24-.27.49-.49,1.08-.71.59-.21,1.18-.43.65-.06,1.24-.29.77-.86,1.34-.6-.12.94.11,1.54.59.46.81,1.06.14.63.36,1.23.24.59.46,1.19.39.54.61,1.14-.2.76.03,1.36.54.48.76,1.08.14.63.36,1.23.25.59.47,1.19.18.62.41,1.22.26.59.49,1.19.33.56.56,1.16.03.68.25,1.28.05.67.27,1.27.48.51.7,1.11-.02.69.21,1.29.17.62.39,1.22.17.62.39,1.22.43.52.65,1.12.02.68.24,1.28.46.51.68,1.11.51.49.73,1.09-.25.78-.03,1.38.68.43.9,1.03.18.61.41,1.21-.16.74.07,1.34.63.45.85,1.05.17.62.39,1.22.35.55.57,1.15-.06.71.16,1.31.56.47.79,1.07-.16.74.06,1.34.23.6.46,1.2.4.53.63,1.13-.05.7.18,1.3.14.63.36,1.24.69.43.91,1.03-.2.76.03,1.36.64.45.86,1.05-.1.72.12,1.33.45.52.67,1.12-.12.73.11,1.33.49.5.72,1.1.14.63.36,1.24.17.62.39,1.22.28.58.51,1.18.53.49.75,1.09.14.63.36,1.23,0,.69.22,1.29.44.52.66,1.12.03.67.25,1.27.35.55.58,1.15-.14.74.08,1.34.79.39,1.02.99-.17.75.06,1.35.44.52.66,1.12.39.54.61,1.14-.31.8-.08,1.4.74.41.97,1.01-.29.79-.06,1.39.37.55.6,1.15.2.61.42,1.21.28.58.51,1.18.5.5.72,1.1.11.64.34,1.24-.17.75.06,1.35.71.42.94,1.02-.21.76.02,1.36.56.48.78,1.08.34.56.56,1.16.15.63.37,1.23,0,.69.23,1.29.38.55.6,1.15.16.63.38,1.23.22.6.45,1.2,0,.69.22,1.29.68.43.9,1.03.22.6.45,1.2-.25.78-.03,1.38.25.59.48,1.19.31.57.53,1.17.12.64.35,1.24.49.5.71,1.11.24.59.47,1.2.47.51.7,1.11.17.62.4,1.22.05.67.27,1.27.1.65.32,1.25.31.57.54,1.17.36.55.58,1.15.3.57.52,1.17-.22.77,0,1.37.55.48.78,1.08.22.6.44,1.2.36.55.59,1.15-.02.69.21,1.29.28.58.51,1.18.27.58.5,1.19.19.62.42,1.22.44.52.66,1.13-.12.73.1,1.33.01.68.24,1.28.57.47.79,1.08.3.57.53,1.18-.07.71.16,1.32.27.59.5,1.19.3.57.53,1.18.06.66.29,1.27.13.64.35,1.24.26.59.49,1.19.58.47.8,1.08,0,.68.23,1.29.62.46.85,1.06-.01.69.21,1.3.3.58.52,1.18-.03.7.2,1.3.18.62.4,1.22.23.6.45,1.21.19.62.42,1.22.38.55.61,1.15.29.58.51,1.19.47.51.7,1.12.26.59.48,1.2.17.63.39,1.23-.12.73.11,1.34.35.56.58,1.17.24.58.57,1.14.51.67.25,1.27Z"/>
    <path class="cls-4" d="M176.48,451.52c-.25.58-.46.42-1.05.64s-.54.34-1.13.56-.76-.25-1.34-.03-.55.32-1.14.53-.47.53-1.06.75-.64.08-1.23.29-.57.27-1.16.49-.74-.17-1.32.05-.6.19-1.19.4-.41.7-1,.92-.76-.24-1.35-.02-.6.2-1.18.42-.42.68-1.01.9-.71-.11-1.3.11-.51.78-1.09.51-.44-.45-.66-1.05-.19-.61-.42-1.21-.05-.66-.27-1.26-.04-.67-.26-1.27-.35-.55-.57-1.15-.02-.68-.24-1.28-.52-.49-.74-1.09-.18-.62-.41-1.22-.16-.62-.39-1.22-.52-.49-.75-1.09-.12-.64-.35-1.24.12-.73-.1-1.33-.29-.58-.52-1.18-.21-.61-.44-1.21-.67-.44-.89-1.04-.1-.65-.32-1.25-.03-.67-.25-1.28-.07-.66-.29-1.26-.72-.42-.94-1.02.26-.78.04-1.38-.38-.54-.61-1.14,0-.68-.23-1.28-.46-.51-.69-1.11-.4-.54-.62-1.14-.4-.53-.62-1.13.16-.74-.06-1.34-.28-.58-.51-1.18-.22-.6-.44-1.2-.17-.62-.39-1.22-.1-.65-.32-1.25-.66-.44-.89-1.04.08-.71-.14-1.31-.19-.61-.41-1.21-.5-.5-.73-1.1.17-.75-.05-1.35-.73-.41-.95-1.01-.12-.64-.34-1.24.02-.69-.21-1.29-.41-.53-.64-1.13.11-.73-.12-1.33-.28-.58-.51-1.18-.23-.6-.46-1.2-.49-.5-.71-1.1-.25-.59-.48-1.19-.05-.67-.27-1.27-.41-.53-.64-1.13-.07-.66-.29-1.26-.35-.55-.58-1.15,0-.69-.22-1.29-.06-.66-.29-1.26-.23-.6-.46-1.2-.27-.59-.49-1.19-.22-.6-.44-1.21-.22-.6-.45-1.2-.16-.63-.39-1.23-.48-.51-.71-1.11-.45-.52-.67-1.12.04-.7-.19-1.3-.45-.52-.68-1.12-.08-.66-.3-1.26-.37-.55-.59-1.15-.03-.67-.26-1.27,0-.68-.23-1.28-.45-.52-.67-1.12-.42-.53-.64-1.13.04-.7-.18-1.3-.24-.6-.46-1.2-.33-.56-.56-1.16-.21-.61-.44-1.21-.25-.59-.48-1.2-.28-.58-.5-1.19.1-.72-.12-1.33-.32-.57-.55-1.17-.4-.54-.62-1.14.01-.69-.21-1.29-.16-.63-.39-1.23-.28-.58-.5-1.18-.56-.48-.79-1.08.18-.75-.04-1.36-.44-.52-.66-1.13-.47-.51-.69-1.12-.12-.64-.34-1.25.11-.73-.12-1.33-.69-.43-.92-1.03,0-.68-.23-1.29-.36-.55-.58-1.16-.01-.68-.24-1.28-.51-.5-.74-1.1-.23-.6-.45-1.21-.28-.58-.5-1.18.07-.71-.15-1.31-.41-.53-.63-1.13-.36-.55-.59-1.15,0-.68-.23-1.28-.39-.54-.62-1.14-.25-.59-.47-1.19.1-.72-.12-1.33-.13-.64-.35-1.24-.13-.64-.36-1.24-.42-.53-.65-1.13-.17-.62-.4-1.22-.1-.65-.32-1.25-.61-.46-.83-1.06,0-.69-.22-1.29-.48-.51-.71-1.11-.25-.6-.47-1.2,0-.68-.23-1.29-.48-.51-.7-1.11.08-.72-.14-1.32-.3-.58-.52-1.18-.24-.6-.47-1.2-.36-.55-.59-1.16-.12-.64-.35-1.25-.11-.65-.33-1.25-.02-.68-.24-1.29-.6-.47-.82-1.07.14-.74-.08-1.34-.39-.54-.62-1.15-.18-.62-.4-1.22-.09-.65-.31-1.26-.51-.5-.73-1.11-.12-.64-.35-1.25-.37-.55-.59-1.16-.09-.66-.31-1.26-.26-.59-.48-1.2-.37-.55-.59-1.16-.02-.69-.24-1.29-.83-.55-.57-1.14.54-.26,1.13-.48.52-.41,1.11-.62.64-.08,1.22-.3.52-.39,1.11-.6.64-.07,1.23-.29.59-.22,1.18-.43.66-.02,1.25-.24.59-.21,1.18-.43.56-.3,1.15-.52.51-.42,1.1-.64.65-.05,1.24-.27.49-.49,1.08-.71.59-.21,1.18-.43.65-.06,1.24-.29.77-.86,1.34-.6-.12.94.11,1.54.59.46.81,1.06.14.63.36,1.23.24.59.46,1.19.39.54.61,1.14-.2.76.03,1.36.54.48.76,1.08.14.63.36,1.23.25.59.47,1.19.18.62.41,1.22.26.59.49,1.19.33.56.56,1.16.03.68.25,1.28.05.67.27,1.27.48.51.7,1.11-.02.69.21,1.29.17.62.39,1.22.17.62.39,1.22.43.52.65,1.12.02.68.24,1.28.46.51.68,1.11.51.49.73,1.09-.25.78-.03,1.38.68.43.9,1.03.18.61.41,1.21-.16.74.07,1.34.63.45.85,1.05.17.62.39,1.22.35.55.57,1.15-.06.71.16,1.31.56.47.79,1.07-.16.74.06,1.34.23.6.46,1.2.4.53.63,1.13-.05.7.18,1.3.14.63.36,1.24.69.43.91,1.03-.2.76.03,1.36.64.45.86,1.05-.1.72.12,1.33.45.52.67,1.12-.12.73.11,1.33.49.5.72,1.1.14.63.36,1.24.17.62.39,1.22.28.58.51,1.18.53.49.75,1.09.14.63.36,1.23,0,.69.22,1.29.44.52.66,1.12.03.67.25,1.27.35.55.58,1.15-.14.74.08,1.34.79.39,1.02.99-.17.75.06,1.35.44.52.66,1.12.39.54.61,1.14-.31.8-.08,1.4.74.41.97,1.01-.29.79-.06,1.39.37.55.6,1.15.2.61.42,1.21.28.58.51,1.18.5.5.72,1.1.11.64.34,1.24-.17.75.06,1.35.71.42.94,1.02-.21.76.02,1.36.56.48.78,1.08.34.56.56,1.16.15.63.37,1.23,0,.69.23,1.29.38.55.6,1.15.16.63.38,1.23.22.6.45,1.2,0,.69.22,1.29.68.43.9,1.03.22.6.45,1.2-.25.78-.03,1.38.25.59.48,1.19.31.57.53,1.17.12.64.35,1.24.49.5.71,1.11.24.59.47,1.2.47.51.7,1.11.17.62.4,1.22.05.67.27,1.27.1.65.32,1.25.31.57.54,1.17.36.55.58,1.15.3.57.52,1.17-.22.77,0,1.37.55.48.78,1.08.22.6.44,1.2.36.55.59,1.15-.02.69.21,1.29.28.58.51,1.18.27.58.5,1.19.19.62.42,1.22.44.52.66,1.13-.12.73.1,1.33.01.68.24,1.28.57.47.79,1.08.3.57.53,1.18-.07.71.16,1.32.27.59.5,1.19.3.57.53,1.18.06.66.29,1.27.13.64.35,1.24.26.59.49,1.19.58.47.8,1.08,0,.68.23,1.29.62.46.85,1.06-.01.69.21,1.3.3.58.52,1.18-.03.7.2,1.3.18.62.4,1.22.23.6.45,1.21.19.62.42,1.22.38.55.61,1.15.29.58.51,1.19.47.51.7,1.12.26.59.48,1.2.17.63.39,1.23-.12.73.11,1.34.35.56.58,1.17.24.58.57,1.14.51.67.25,1.27Z"/>
  </g>
  <g>
    <path class="cls-8" d="M183.5,468.01c-.39.51-.68-.08-1.32-.08s-.64,0-1.29,0-.64.04-1.29.04-.65.08-1.29.08-.65-.06-1.29-.06-.65.06-1.29.06-.64,0-1.29,0-.64,0-1.29,0-.65-.09-1.29-.09-.65,0-1.29,0-.65.02-1.29.02-.65.04-1.29.04-.65-.02-1.29-.02-.65.06-1.29.06-.65-.03-1.29-.03-.65-.03-1.29-.03-.65.06-1.29.06-.65-.11-1.29-.11-.65,0-1.29,0-.65.07-1.29.07-.65-.01-1.29-.01-.65.06-1.29.06-.65-.06-1.3-.06-.65.04-1.29.04-.65,0-1.3,0-.65-.06-1.3-.06-.92.55-1.34.06.19-.65.3-1.26.15-.61.27-1.22.06-.62.18-1.23.13-.61.25-1.22.11-.61.23-1.23.04-.63.15-1.24.2-.6.32-1.21.12-.61.24-1.23.12-.61.24-1.23.15-.61.27-1.22.03-.63.15-1.24.11-.62.23-1.23.15-.61.27-1.23.23-.6.32-1.22c0-.48-.02-.96.15-1.38s.47-.82.79-1.15.76-.52,1.19-.7.85-.35,1.33-.35c.63,0,.63,0,1.25,0s.63.09,1.25.09.63-.09,1.25-.09.63.09,1.25.09.62-.09,1.25-.09.63.1,1.25.1.63-.06,1.25-.06.63-.07,1.25-.07.63.11,1.25.11.63,0,1.25,0,.63-.02,1.25-.02.63-.07,1.26-.07.63-.01,1.25-.01.63,0,1.26,0,.63.03,1.26.03.63.06,1.26.06c.44,0,.86.03,1.26.16s.78.35,1.12.6.62.57.87.91.43.71.56,1.12.27.8.27,1.24c.11.65.12.65.27,1.29s.13.65.28,1.28.24.62.39,1.26.1.65.25,1.29.16.64.31,1.27.2.63.36,1.27.06.66.21,1.3.14.64.29,1.28.15.64.3,1.28.23.62.38,1.26.1.65.25,1.29.07.67.36,1.26c.33.65.71.8.3,1.33Z"/>
    <path class="cls-4" d="M183.5,468.01c-.39.51-.68-.08-1.32-.08s-.64,0-1.29,0-.64.04-1.29.04-.65.08-1.29.08-.65-.06-1.29-.06-.65.06-1.29.06-.64,0-1.29,0-.64,0-1.29,0-.65-.09-1.29-.09-.65,0-1.29,0-.65.02-1.29.02-.65.04-1.29.04-.65-.02-1.29-.02-.65.06-1.29.06-.65-.03-1.29-.03-.65-.03-1.29-.03-.65.06-1.29.06-.65-.11-1.29-.11-.65,0-1.29,0-.65.07-1.29.07-.65-.01-1.29-.01-.65.06-1.29.06-.65-.06-1.3-.06-.65.04-1.29.04-.65,0-1.3,0-.65-.06-1.3-.06-.92.55-1.34.06.19-.65.3-1.26.15-.61.27-1.22.06-.62.18-1.23.13-.61.25-1.22.11-.61.23-1.23.04-.63.15-1.24.2-.6.32-1.21.12-.61.24-1.23.12-.61.24-1.23.15-.61.27-1.22.03-.63.15-1.24.11-.62.23-1.23.15-.61.27-1.23.23-.6.32-1.22c0-.48-.02-.96.15-1.38s.47-.82.79-1.15.76-.52,1.19-.7.85-.35,1.33-.35c.63,0,.63,0,1.25,0s.63.09,1.25.09.63-.09,1.25-.09.63.09,1.25.09.62-.09,1.25-.09.63.1,1.25.1.63-.06,1.25-.06.63-.07,1.25-.07.63.11,1.25.11.63,0,1.25,0,.63-.02,1.25-.02.63-.07,1.26-.07.63-.01,1.25-.01.63,0,1.26,0,.63.03,1.26.03.63.06,1.26.06c.44,0,.86.03,1.26.16s.78.35,1.12.6.62.57.87.91.43.71.56,1.12.27.8.27,1.24c.11.65.12.65.27,1.29s.13.65.28,1.28.24.62.39,1.26.1.65.25,1.29.16.64.31,1.27.2.63.36,1.27.06.66.21,1.3.14.64.29,1.28.15.64.3,1.28.23.62.38,1.26.1.65.25,1.29.07.67.36,1.26c.33.65.71.8.3,1.33Z"/>
  </g>
  <g>
    <path class="cls-8" d="M185.79,471.5c-.47.43-.62,0-1.25,0s-.64.1-1.27.1-.64-.09-1.27-.09-.63.08-1.27.08-.63-.11-1.27-.11-.63-.04-1.27-.04-.63,0-1.27,0-.64.01-1.27.01-.64,0-1.27,0-.64,0-1.27,0-.63.11-1.27.11-.64-.08-1.27-.08-.64.07-1.27.07-.64-.01-1.27-.01-.64,0-1.27,0-.64-.02-1.27-.02-.64.08-1.27.08-.64-.06-1.27-.06-.64,0-1.27,0-.63,0-1.27,0-.64,0-1.27,0-.64,0-1.27,0-.64-.08-1.27-.08-.64.09-1.28.09-.64-.05-1.27-.05-.64.04-1.27.04-.64-.11-1.28-.11-.64.12-1.27.12-.64-.08-1.28-.08-.64.01-1.28.01-.84.48-1.31.05c-.43-.4.06-.62.06-1.21s-.02-.59-.02-1.18-.46-.79-.03-1.19c.47-.43.65-.03,1.28-.03s.64.1,1.27.1.64-.07,1.27-.07.63,0,1.27,0,.63.01,1.27.01.63-.04,1.27-.04.63.03,1.27.03.64.04,1.27.04.64-.04,1.27-.04.64.03,1.27.03.63-.05,1.27-.05.64-.02,1.27-.02.64.13,1.27.13.64-.04,1.27-.04.64-.03,1.27-.03.64-.05,1.27-.05.64.09,1.27.09.64-.09,1.27-.09.64.09,1.27.09.63-.02,1.27-.02.64.05,1.27.05.64-.04,1.27-.04.64-.04,1.27-.04.64,0,1.28,0,.64-.05,1.27-.05.64.03,1.27.03.64-.02,1.28-.02.64,0,1.27,0,.64,0,1.28,0,.64.07,1.28.07.83-.5,1.3-.06c.43.4-.1.61-.1,1.2s-.05.6.08,1.18c.13.61.41.76-.02,1.16Z"/>
    <path class="cls-4" d="M185.79,471.5c-.47.43-.62,0-1.25,0s-.64.1-1.27.1-.64-.09-1.27-.09-.63.08-1.27.08-.63-.11-1.27-.11-.63-.04-1.27-.04-.63,0-1.27,0-.64.01-1.27.01-.64,0-1.27,0-.64,0-1.27,0-.63.11-1.27.11-.64-.08-1.27-.08-.64.07-1.27.07-.64-.01-1.27-.01-.64,0-1.27,0-.64-.02-1.27-.02-.64.08-1.27.08-.64-.06-1.27-.06-.64,0-1.27,0-.63,0-1.27,0-.64,0-1.27,0-.64,0-1.27,0-.64-.08-1.27-.08-.64.09-1.28.09-.64-.05-1.27-.05-.64.04-1.27.04-.64-.11-1.28-.11-.64.12-1.27.12-.64-.08-1.28-.08-.64.01-1.28.01-.84.48-1.31.05c-.43-.4.06-.62.06-1.21s-.02-.59-.02-1.18-.46-.79-.03-1.19c.47-.43.65-.03,1.28-.03s.64.1,1.27.1.64-.07,1.27-.07.63,0,1.27,0,.63.01,1.27.01.63-.04,1.27-.04.63.03,1.27.03.64.04,1.27.04.64-.04,1.27-.04.64.03,1.27.03.63-.05,1.27-.05.64-.02,1.27-.02.64.13,1.27.13.64-.04,1.27-.04.64-.03,1.27-.03.64-.05,1.27-.05.64.09,1.27.09.64-.09,1.27-.09.64.09,1.27.09.63-.02,1.27-.02.64.05,1.27.05.64-.04,1.27-.04.64-.04,1.27-.04.64,0,1.28,0,.64-.05,1.27-.05.64.03,1.27.03.64-.02,1.28-.02.64,0,1.27,0,.64,0,1.28,0,.64.07,1.28.07.83-.5,1.3-.06c.43.4-.1.61-.1,1.2s-.05.6.08,1.18c.13.61.41.76-.02,1.16Z"/>
  </g>
  <g>
    <path class="cls-8" d="M65.69,458.58c-.55.3-.41-.17-1.01-.37s-.68.07-1.28-.13-.6-.18-1.2-.38-.68.08-1.28-.11-.49-.54-1.08-.73-.61-.14-1.21-.33-.49-.51-1.09-.7-.72.2-1.32,0-.42-.74-1.02-.93-.69.09-1.29-.1-.59-.21-1.19-.4-.55-.34-1.15-.54-.58-.24-1.18-.43-.72.19-1.32,0-.47-.07-.76-.63,0-.32.19-.93-.16-.73.04-1.34.02-.67.22-1.28.07-.65.27-1.26.46-.53.65-1.14.07-.65.27-1.26,1.01-.35,1.21-.96-.18-.73.02-1.34.56-.49.75-1.11-.27-.76-.07-1.37.17-.62.37-1.23.57-.49.77-1.1.17-.62.36-1.23-.51-.84-.31-1.45.36-.56.55-1.17.47-.52.67-1.14.65-.47.84-1.08,0-.68.2-1.29.29-.58.49-1.19-.36-.79-.16-1.4.71-.45.9-1.06-.57-.86-.38-1.47.86-.4,1.06-1.01.33-.57.53-1.18-.7-.9-.5-1.51,1.25-.27,1.45-.89-.51-.84-.32-1.46.39-.55.59-1.16.38-.55.58-1.17.36-.56.56-1.17-.52-.84-.32-1.46.58-.49.77-1.1,0-.68.2-1.29-.05-.69.15-1.3.62-.47.82-1.09.73-.44.93-1.05-.7-.9-.5-1.51,1.02-.34,1.22-.96-.87-.96-.67-1.57.53-.5.73-1.11.19-.61.39-1.23.46-.53.66-1.14.01-.67.21-1.28.21-.61.41-1.22-.13-.72.07-1.33,1.21-.29,1.41-.9-.13-.72.07-1.33.07-.65.27-1.26.42-.54.62-1.15.37-.56.56-1.17.27-.59.47-1.2-.84-.95-.64-1.56.86-.4,1.06-1.01.47-.52.67-1.13.15-.63.35-1.24.21-.61.4-1.22-.15-.72.05-1.34.13-.64.32-1.25.03-.67.23-1.28.8-.42,1-1.03.24-.6.44-1.21-.21-.75-.02-1.36-.1-.71.1-1.32.77-.43.96-1.04-.55-.85-.35-1.47.29-.58.49-1.19.84-.41,1.04-1.02-.37-.8-.18-1.41-.06-.69.14-1.31.21-.61.41-1.22.61-.48.81-1.09-.21-.74-.01-1.36,1.05-.34,1.25-.95-.71-.9-.51-1.52.45-.53.65-1.14.2-.61.39-1.22.44-.53.64-1.15-.19-.74,0-1.35.11-.64.31-1.25.7-.45.9-1.06-.12-.72.07-1.33.12-.64.32-1.25.92-.38,1.12-.99-.41-.81-.21-1.42.67-.46.87-1.07-.56-.86-.36-1.47.92-.38,1.12-.99-.18-.74.02-1.35.21-.61.41-1.22-.16-.73.04-1.34.68-.46.88-1.07.23-.6.43-1.21-.2-.74,0-1.36.85-.4,1.04-1.02.3-.58.5-1.19-.52-.85-.33-1.46.82-.41,1.02-1.03-.19-.74,0-1.35.28-.59.48-1.2.65-.47.84-1.08-.51-.84-.31-1.45.61-.48.8-1.09-.19-.74,0-1.35.3-.58.5-1.19-.11-.71.09-1.32,1.13-.31,1.33-.92.39-.55.59-1.16,0-.68.19-1.29-.26-.76-.06-1.37.08-.65.28-1.26.08-.65.27-1.26.05-.66.25-1.27.7-.45.89-1.06.65-.46.85-1.07-.76-.92-.56-1.53.73-.44.93-1.05,0-.67.2-1.28.55-.5.75-1.11-.31-.77-.11-1.38.16-.62.36-1.23,1.07-.33,1.26-.94-.57-.86-.37-1.47.13-.63.32-1.24,0-.67.2-1.28.88-.39,1.07-1,.08-.65.28-1.26.66-.46.86-1.07-.17-.73.02-1.34.21-.61.41-1.22-.05-.69.15-1.3.49-.52.69-1.13-.5-.84-.3-1.45.53-.51.73-1.12.56-.5.76-1.11.15-.63.34-1.24.18-.62.38-1.23.14-.63.34-1.24.35-.56.55-1.18-.51-.84-.31-1.45.41-.54.6-1.16-.03-.68.17-1.3,1.01-.35,1.21-.96-.48-.83-.28-1.44.73-.44.93-1.05.56-.5.76-1.11-.08-.7.12-1.31.14-.63.33-1.24.14-.63.33-1.24-.57-.86-.37-1.47,1.05-.34,1.25-.95-.34-.78-.14-1.4.02-.67.22-1.28.27-.59.47-1.2.47-.52.67-1.14.17-.62.37-1.23.4-.55.6-1.16.1-.65.29-1.26.11-.64.31-1.25.49-.52.69-1.13.33-.57.53-1.18.44-.54.64-1.15-.04-.69.16-1.31.2-.61.4-1.23.38-.56.57-1.17-.72-.91-.52-1.52.95-.37,1.15-.98-.16-.73.04-1.34.05-.66.24-1.27.04-.66.23-1.28.97-.36,1.17-.98-.66-.89-.46-1.5,1.19-.29,1.39-.9-.7-.9-.5-1.51.55-.5.75-1.11.11-.64.31-1.25.73-.44.93-1.05.26-.59.45-1.21-.38-.8-.19-1.42-.28-.77-.08-1.38.29-.59.49-1.2.3-.58.5-1.2.71-.45.9-1.06.02-.67.22-1.29.69-.45.89-1.07,0-.68.2-1.29-.07-.7.13-1.31-.2-.74,0-1.36.66-.46.86-1.08-.43-.82-.24-1.43.16-.62.36-1.24,1.26-.27,1.45-.89-.34-.79-.14-1.4.29-.58.49-1.2.39-.55.59-1.17.07-.66.26-1.27.46-.53.66-1.14-.19-.74.01-1.35.45-.53.64-1.15.24-.6.44-1.21-.5-.84-.3-1.45.92-.38,1.12-.99.03-.67.23-1.28-.13-.72.07-1.33-.12-.72.08-1.33.22-.61.42-1.22.36-.56.56-1.18.7-.45.9-1.06.58-.49.78-1.1.14-.63.34-1.25-.82-.94-.62-1.56.8-.42,1-1.03.24-.6.43-1.22-.07-.7.12-1.31.63-.47.82-1.09-.5-.84-.3-1.45.05-.66.25-1.27.79-.42.98-1.03-.33-.78-.14-1.4,1.12-.32,1.31-.93.17-.63.36-1.24-.23-.76-.03-1.37.78-.43.98-1.04-.79-.93-.6-1.55.19-.62.39-1.23.48-.52.68-1.14.78-.43.98-1.04.29-.59.49-1.2-.52-.85-.32-1.46,1.02-.35,1.22-.96-.97-.99-.77-1.61,1.06-.34,1.26-.95-.53-.85-.33-1.47.15-.63.35-1.25.66-.47.85-1.08.61-.48.8-1.1.09-.65.29-1.27.01-.68.21-1.29-.13-.72.07-1.34.9-.39,1.1-1-.25-.76-.05-1.38.11-.64.31-1.26.61-.48.81-1.1-.19-.74.01-1.36.37-.56.57-1.18-.06-.7.14-1.32.88-.4,1.08-1.02-.02-.69.18-1.3-.28-.77-.08-1.39.34-.57.54-1.19,0-.66.58-.97.49-.15,1.09.05.39.83.99,1.02.81-.46,1.41-.27.57.27,1.16.46.77-.35,1.37-.16.38.87.97,1.07.63.09,1.22.29.79-.4,1.39-.2.45.64,1.05.83.38.87.98,1.06.62.13,1.22.33.91-.79,1.51-.59.55.35,1.15.55.33,1.04.93,1.23,1.4-.84,1.68-.28-.17.89-.36,1.5-.59.48-.79,1.09.34.79.15,1.4-.26.59-.46,1.2-1.05.34-1.25.95.15.72-.05,1.33-.25.59-.45,1.21.37.79.17,1.41-.07.65-.27,1.26-1.04.34-1.24.95-.05.66-.25,1.27-.34.56-.54,1.18-.48.52-.68,1.13.71.9.51,1.51-.23.6-.43,1.21-.69.45-.89,1.06.12.71-.08,1.33-.74.44-.94,1.05.02.68-.18,1.29.33.78.13,1.39-.69.45-.89,1.07-.35.56-.55,1.18.35.79.15,1.4-.16.62-.36,1.24-.27.59-.47,1.2-.44.54-.64,1.15.1.71-.1,1.32.08.7-.12,1.31-1.3.26-1.5.87.66.89.46,1.5-.68.46-.87,1.07.25.76.06,1.37-.86.4-1.06,1.01.36.79.17,1.41-.12.64-.32,1.25-.94.37-1.14.98-.06.66-.26,1.27.17.73-.03,1.34-.67.46-.87,1.07-.08.65-.28,1.26.15.72-.04,1.34-.02.67-.21,1.28.04.69-.15,1.3-.68.46-.88,1.07.19.74,0,1.35-.8.42-1,1.03.07.7-.12,1.31.17.73-.03,1.34-.09.65-.28,1.26-1.04.34-1.23.95.19.74,0,1.35-.48.52-.68,1.13.55.85.35,1.46-.96.37-1.15.98.67.89.48,1.51-1.24.27-1.44.89.82.94.63,1.55-.93.38-1.13.99-.3.58-.5,1.19-.29.58-.49,1.19.22.75.02,1.36.05.69-.14,1.31-.94.37-1.14.98.29.77.09,1.38-.32.57-.51,1.19-.66.46-.86,1.08.39.8.19,1.42-.37.56-.57,1.17-.35.56-.55,1.18-.28.59-.48,1.2.25.76.05,1.37-.04.66-.24,1.27.01.68-.19,1.29-.15.63-.34,1.24-.93.38-1.13.99-.06.66-.26,1.27-.55.5-.75,1.11-.28.59-.48,1.2.34.79.14,1.4-.1.64-.3,1.26-.02.67-.22,1.28-1.03.34-1.23.95.88.96.69,1.57-.67.46-.87,1.07-.08.65-.28,1.26-.7.45-.9,1.06.69.9.49,1.51-1.09.32-1.29.93-.01.67-.21,1.29-.55.5-.74,1.11,0,.67-.21,1.29.46.83.27,1.44.01.68-.19,1.29-1.28.26-1.48.88.2.74,0,1.35.45.82.25,1.43-1.08.33-1.28.94-.19.61-.39,1.23.05.69-.15,1.3,0,.68-.2,1.29-.75.43-.95,1.04-.21.61-.4,1.22.06.69-.14,1.31,0,.67-.2,1.29-.69.45-.89,1.06.37.79.17,1.4-.38.55-.58,1.16.48.83.29,1.44-1,.35-1.2.96-.17.62-.37,1.23-.44.53-.63,1.14.21.74.02,1.35.09.7-.11,1.31-.61.48-.81,1.09-.41.54-.6,1.15.32.78.12,1.39-.31.57-.51,1.18-.75.43-.94,1.04.83.94.63,1.55-.58.49-.78,1.1-.66.46-.86,1.07.36.79.16,1.4-.68.45-.88,1.06-.25.59-.44,1.21-.28.58-.48,1.19.36.79.16,1.4-.11.64-.31,1.25-.33.57-.53,1.18.09.71-.1,1.32-.27.59-.47,1.2-.78.43-.97,1.04.37.8.17,1.41-.27.59-.47,1.2-.55.5-.74,1.11-.28.59-.48,1.2-.01.67-.21,1.29.08.7-.12,1.32-.99.36-1.19.97.54.85.34,1.46-.83.41-1.03,1.02.42.81.22,1.42-.12.64-.32,1.25.16.73-.04,1.34-.32.57-.52,1.18-.15.63-.35,1.24-.39.55-.59,1.16-.4.55-.6,1.16-.07.65-.27,1.26-.38.55-.58,1.16-.61.48-.81,1.09.21.74.02,1.36-.13.63-.33,1.25-.37.56-.57,1.17-.51.51-.71,1.12.63.88.43,1.49-1.01.35-1.21.96-.36.56-.56,1.17.8.94.61,1.55-.13.64-.33,1.25-.28.59-.48,1.2-.81.42-1,1.03-.1.65-.3,1.26-.64.47-.84,1.08.18.74-.02,1.35-.4.55-.6,1.16.59.87.4,1.48-1.14.31-1.33.92.31.78.12,1.39-.54.5-.74,1.11-.35.56-.54,1.18.56.86.36,1.47-.58.49-.78,1.1.36.79.16,1.41-.51.51-.7,1.13-.37.56-.57,1.17-.32.57-.52,1.19-.08.65-.28,1.26-.55.5-.75,1.11.48.83.28,1.45-.39.55-.59,1.17-.7.45-.9,1.07.63.88.43,1.49-1.02.35-1.21.96.28.77.08,1.38-.89.39-1.09,1,.95.98.75,1.6-.4.55-.6,1.16.03.69-.17,1.3-1.26.27-1.46.88-.09.65-.29,1.26.55.86.36,1.47-.75.44-.95,1.05.37.8.17,1.41-.81.42-1.01,1.03.54.85.34,1.47-.68.46-.88,1.07-.45.53-.65,1.15-.4.55-.6,1.16.53.85.33,1.46-.56.5-.75,1.11.36.79.16,1.41-.51.51-.71,1.13-.56.5-.76,1.11.34.79.14,1.4-1.08.33-1.28.94-.06.66-.26,1.27.1.71-.09,1.33-.3.58-.5,1.19-.38.56-.57,1.17.38.8.19,1.42-.72.44-.92,1.06.08.7-.12,1.32-.62.48-.82,1.09.77.93.57,1.54-.48.52-.68,1.13-.06.66-.26,1.27-.55.5-.75,1.11-.23.6-.43,1.21.07.7-.13,1.31-.76.43-.96,1.05.6.87.4,1.49-.86.4-1.06,1.02-.18.62-.38,1.23-.27.59-.47,1.2.48.83.28,1.45-.72.44-.92,1.06.34.79.14,1.4-.68.46-.88,1.08.17.73-.03,1.35-.74.44-.94,1.05.49.84.29,1.45-.15.63-.35,1.25-.39.56-.58,1.17-.27.59-.47,1.21-.84.41-1.04,1.02.31.78.11,1.4-.41.55-.6,1.16-.66.47-.86,1.08-.02.67-.22,1.28-.36.56-.56,1.18.51.84.31,1.46-.44.54-.64,1.15.02.69-.18,1.3.1.71-.1,1.33-.85.41-1.05,1.02.45.83.25,1.44-.71.45-.91,1.07-.26.6-.46,1.22-.32.61-.43,1.25c-.11.59.18.73-.39,1.04Z"/>
    <path class="cls-4" d="M65.69,458.58c-.55.3-.41-.17-1.01-.37s-.68.07-1.28-.13-.6-.18-1.2-.38-.68.08-1.28-.11-.49-.54-1.08-.73-.61-.14-1.21-.33-.49-.51-1.09-.7-.72.2-1.32,0-.42-.74-1.02-.93-.69.09-1.29-.1-.59-.21-1.19-.4-.55-.34-1.15-.54-.58-.24-1.18-.43-.72.19-1.32,0-.47-.07-.76-.63,0-.32.19-.93-.16-.73.04-1.34.02-.67.22-1.28.07-.65.27-1.26.46-.53.65-1.14.07-.65.27-1.26,1.01-.35,1.21-.96-.18-.73.02-1.34.56-.49.75-1.11-.27-.76-.07-1.37.17-.62.37-1.23.57-.49.77-1.1.17-.62.36-1.23-.51-.84-.31-1.45.36-.56.55-1.17.47-.52.67-1.14.65-.47.84-1.08,0-.68.2-1.29.29-.58.49-1.19-.36-.79-.16-1.4.71-.45.9-1.06-.57-.86-.38-1.47.86-.4,1.06-1.01.33-.57.53-1.18-.7-.9-.5-1.51,1.25-.27,1.45-.89-.51-.84-.32-1.46.39-.55.59-1.16.38-.55.58-1.17.36-.56.56-1.17-.52-.84-.32-1.46.58-.49.77-1.1,0-.68.2-1.29-.05-.69.15-1.3.62-.47.82-1.09.73-.44.93-1.05-.7-.9-.5-1.51,1.02-.34,1.22-.96-.87-.96-.67-1.57.53-.5.73-1.11.19-.61.39-1.23.46-.53.66-1.14.01-.67.21-1.28.21-.61.41-1.22-.13-.72.07-1.33,1.21-.29,1.41-.9-.13-.72.07-1.33.07-.65.27-1.26.42-.54.62-1.15.37-.56.56-1.17.27-.59.47-1.2-.84-.95-.64-1.56.86-.4,1.06-1.01.47-.52.67-1.13.15-.63.35-1.24.21-.61.4-1.22-.15-.72.05-1.34.13-.64.32-1.25.03-.67.23-1.28.8-.42,1-1.03.24-.6.44-1.21-.21-.75-.02-1.36-.1-.71.1-1.32.77-.43.96-1.04-.55-.85-.35-1.47.29-.58.49-1.19.84-.41,1.04-1.02-.37-.8-.18-1.41-.06-.69.14-1.31.21-.61.41-1.22.61-.48.81-1.09-.21-.74-.01-1.36,1.05-.34,1.25-.95-.71-.9-.51-1.52.45-.53.65-1.14.2-.61.39-1.22.44-.53.64-1.15-.19-.74,0-1.35.11-.64.31-1.25.7-.45.9-1.06-.12-.72.07-1.33.12-.64.32-1.25.92-.38,1.12-.99-.41-.81-.21-1.42.67-.46.87-1.07-.56-.86-.36-1.47.92-.38,1.12-.99-.18-.74.02-1.35.21-.61.41-1.22-.16-.73.04-1.34.68-.46.88-1.07.23-.6.43-1.21-.2-.74,0-1.36.85-.4,1.04-1.02.3-.58.5-1.19-.52-.85-.33-1.46.82-.41,1.02-1.03-.19-.74,0-1.35.28-.59.48-1.2.65-.47.84-1.08-.51-.84-.31-1.45.61-.48.8-1.09-.19-.74,0-1.35.3-.58.5-1.19-.11-.71.09-1.32,1.13-.31,1.33-.92.39-.55.59-1.16,0-.68.19-1.29-.26-.76-.06-1.37.08-.65.28-1.26.08-.65.27-1.26.05-.66.25-1.27.7-.45.89-1.06.65-.46.85-1.07-.76-.92-.56-1.53.73-.44.93-1.05,0-.67.2-1.28.55-.5.75-1.11-.31-.77-.11-1.38.16-.62.36-1.23,1.07-.33,1.26-.94-.57-.86-.37-1.47.13-.63.32-1.24,0-.67.2-1.28.88-.39,1.07-1,.08-.65.28-1.26.66-.46.86-1.07-.17-.73.02-1.34.21-.61.41-1.22-.05-.69.15-1.3.49-.52.69-1.13-.5-.84-.3-1.45.53-.51.73-1.12.56-.5.76-1.11.15-.63.34-1.24.18-.62.38-1.23.14-.63.34-1.24.35-.56.55-1.18-.51-.84-.31-1.45.41-.54.6-1.16-.03-.68.17-1.3,1.01-.35,1.21-.96-.48-.83-.28-1.44.73-.44.93-1.05.56-.5.76-1.11-.08-.7.12-1.31.14-.63.33-1.24.14-.63.33-1.24-.57-.86-.37-1.47,1.05-.34,1.25-.95-.34-.78-.14-1.4.02-.67.22-1.28.27-.59.47-1.2.47-.52.67-1.14.17-.62.37-1.23.4-.55.6-1.16.1-.65.29-1.26.11-.64.31-1.25.49-.52.69-1.13.33-.57.53-1.18.44-.54.64-1.15-.04-.69.16-1.31.2-.61.4-1.23.38-.56.57-1.17-.72-.91-.52-1.52.95-.37,1.15-.98-.16-.73.04-1.34.05-.66.24-1.27.04-.66.23-1.28.97-.36,1.17-.98-.66-.89-.46-1.5,1.19-.29,1.39-.9-.7-.9-.5-1.51.55-.5.75-1.11.11-.64.31-1.25.73-.44.93-1.05.26-.59.45-1.21-.38-.8-.19-1.42-.28-.77-.08-1.38.29-.59.49-1.2.3-.58.5-1.2.71-.45.9-1.06.02-.67.22-1.29.69-.45.89-1.07,0-.68.2-1.29-.07-.7.13-1.31-.2-.74,0-1.36.66-.46.86-1.08-.43-.82-.24-1.43.16-.62.36-1.24,1.26-.27,1.45-.89-.34-.79-.14-1.4.29-.58.49-1.2.39-.55.59-1.17.07-.66.26-1.27.46-.53.66-1.14-.19-.74.01-1.35.45-.53.64-1.15.24-.6.44-1.21-.5-.84-.3-1.45.92-.38,1.12-.99.03-.67.23-1.28-.13-.72.07-1.33-.12-.72.08-1.33.22-.61.42-1.22.36-.56.56-1.18.7-.45.9-1.06.58-.49.78-1.1.14-.63.34-1.25-.82-.94-.62-1.56.8-.42,1-1.03.24-.6.43-1.22-.07-.7.12-1.31.63-.47.82-1.09-.5-.84-.3-1.45.05-.66.25-1.27.79-.42.98-1.03-.33-.78-.14-1.4,1.12-.32,1.31-.93.17-.63.36-1.24-.23-.76-.03-1.37.78-.43.98-1.04-.79-.93-.6-1.55.19-.62.39-1.23.48-.52.68-1.14.78-.43.98-1.04.29-.59.49-1.2-.52-.85-.32-1.46,1.02-.35,1.22-.96-.97-.99-.77-1.61,1.06-.34,1.26-.95-.53-.85-.33-1.47.15-.63.35-1.25.66-.47.85-1.08.61-.48.8-1.1.09-.65.29-1.27.01-.68.21-1.29-.13-.72.07-1.34.9-.39,1.1-1-.25-.76-.05-1.38.11-.64.31-1.26.61-.48.81-1.1-.19-.74.01-1.36.37-.56.57-1.18-.06-.7.14-1.32.88-.4,1.08-1.02-.02-.69.18-1.3-.28-.77-.08-1.39.34-.57.54-1.19,0-.66.58-.97.49-.15,1.09.05.39.83.99,1.02.81-.46,1.41-.27.57.27,1.16.46.77-.35,1.37-.16.38.87.97,1.07.63.09,1.22.29.79-.4,1.39-.2.45.64,1.05.83.38.87.98,1.06.62.13,1.22.33.91-.79,1.51-.59.55.35,1.15.55.33,1.04.93,1.23,1.4-.84,1.68-.28-.17.89-.36,1.5-.59.48-.79,1.09.34.79.15,1.4-.26.59-.46,1.2-1.05.34-1.25.95.15.72-.05,1.33-.25.59-.45,1.21.37.79.17,1.41-.07.65-.27,1.26-1.04.34-1.24.95-.05.66-.25,1.27-.34.56-.54,1.18-.48.52-.68,1.13.71.9.51,1.51-.23.6-.43,1.21-.69.45-.89,1.06.12.71-.08,1.33-.74.44-.94,1.05.02.68-.18,1.29.33.78.13,1.39-.69.45-.89,1.07-.35.56-.55,1.18.35.79.15,1.4-.16.62-.36,1.24-.27.59-.47,1.2-.44.54-.64,1.15.1.71-.1,1.32.08.7-.12,1.31-1.3.26-1.5.87.66.89.46,1.5-.68.46-.87,1.07.25.76.06,1.37-.86.4-1.06,1.01.36.79.17,1.41-.12.64-.32,1.25-.94.37-1.14.98-.06.66-.26,1.27.17.73-.03,1.34-.67.46-.87,1.07-.08.65-.28,1.26.15.72-.04,1.34-.02.67-.21,1.28.04.69-.15,1.3-.68.46-.88,1.07.19.74,0,1.35-.8.42-1,1.03.07.7-.12,1.31.17.73-.03,1.34-.09.65-.28,1.26-1.04.34-1.23.95.19.74,0,1.35-.48.52-.68,1.13.55.85.35,1.46-.96.37-1.15.98.67.89.48,1.51-1.24.27-1.44.89.82.94.63,1.55-.93.38-1.13.99-.3.58-.5,1.19-.29.58-.49,1.19.22.75.02,1.36.05.69-.14,1.31-.94.37-1.14.98.29.77.09,1.38-.32.57-.51,1.19-.66.46-.86,1.08.39.8.19,1.42-.37.56-.57,1.17-.35.56-.55,1.18-.28.59-.48,1.2.25.76.05,1.37-.04.66-.24,1.27.01.68-.19,1.29-.15.63-.34,1.24-.93.38-1.13.99-.06.66-.26,1.27-.55.5-.75,1.11-.28.59-.48,1.2.34.79.14,1.4-.1.64-.3,1.26-.02.67-.22,1.28-1.03.34-1.23.95.88.96.69,1.57-.67.46-.87,1.07-.08.65-.28,1.26-.7.45-.9,1.06.69.9.49,1.51-1.09.32-1.29.93-.01.67-.21,1.29-.55.5-.74,1.11,0,.67-.21,1.29.46.83.27,1.44.01.68-.19,1.29-1.28.26-1.48.88.2.74,0,1.35.45.82.25,1.43-1.08.33-1.28.94-.19.61-.39,1.23.05.69-.15,1.3,0,.68-.2,1.29-.75.43-.95,1.04-.21.61-.4,1.22.06.69-.14,1.31,0,.67-.2,1.29-.69.45-.89,1.06.37.79.17,1.4-.38.55-.58,1.16.48.83.29,1.44-1,.35-1.2.96-.17.62-.37,1.23-.44.53-.63,1.14.21.74.02,1.35.09.7-.11,1.31-.61.48-.81,1.09-.41.54-.6,1.15.32.78.12,1.39-.31.57-.51,1.18-.75.43-.94,1.04.83.94.63,1.55-.58.49-.78,1.1-.66.46-.86,1.07.36.79.16,1.4-.68.45-.88,1.06-.25.59-.44,1.21-.28.58-.48,1.19.36.79.16,1.4-.11.64-.31,1.25-.33.57-.53,1.18.09.71-.1,1.32-.27.59-.47,1.2-.78.43-.97,1.04.37.8.17,1.41-.27.59-.47,1.2-.55.5-.74,1.11-.28.59-.48,1.2-.01.67-.21,1.29.08.7-.12,1.32-.99.36-1.19.97.54.85.34,1.46-.83.41-1.03,1.02.42.81.22,1.42-.12.64-.32,1.25.16.73-.04,1.34-.32.57-.52,1.18-.15.63-.35,1.24-.39.55-.59,1.16-.4.55-.6,1.16-.07.65-.27,1.26-.38.55-.58,1.16-.61.48-.81,1.09.21.74.02,1.36-.13.63-.33,1.25-.37.56-.57,1.17-.51.51-.71,1.12.63.88.43,1.49-1.01.35-1.21.96-.36.56-.56,1.17.8.94.61,1.55-.13.64-.33,1.25-.28.59-.48,1.2-.81.42-1,1.03-.1.65-.3,1.26-.64.47-.84,1.08.18.74-.02,1.35-.4.55-.6,1.16.59.87.4,1.48-1.14.31-1.33.92.31.78.12,1.39-.54.5-.74,1.11-.35.56-.54,1.18.56.86.36,1.47-.58.49-.78,1.1.36.79.16,1.41-.51.51-.7,1.13-.37.56-.57,1.17-.32.57-.52,1.19-.08.65-.28,1.26-.55.5-.75,1.11.48.83.28,1.45-.39.55-.59,1.17-.7.45-.9,1.07.63.88.43,1.49-1.02.35-1.21.96.28.77.08,1.38-.89.39-1.09,1,.95.98.75,1.6-.4.55-.6,1.16.03.69-.17,1.3-1.26.27-1.46.88-.09.65-.29,1.26.55.86.36,1.47-.75.44-.95,1.05.37.8.17,1.41-.81.42-1.01,1.03.54.85.34,1.47-.68.46-.88,1.07-.45.53-.65,1.15-.4.55-.6,1.16.53.85.33,1.46-.56.5-.75,1.11.36.79.16,1.41-.51.51-.71,1.13-.56.5-.76,1.11.34.79.14,1.4-1.08.33-1.28.94-.06.66-.26,1.27.1.71-.09,1.33-.3.58-.5,1.19-.38.56-.57,1.17.38.8.19,1.42-.72.44-.92,1.06.08.7-.12,1.32-.62.48-.82,1.09.77.93.57,1.54-.48.52-.68,1.13-.06.66-.26,1.27-.55.5-.75,1.11-.23.6-.43,1.21.07.7-.13,1.31-.76.43-.96,1.05.6.87.4,1.49-.86.4-1.06,1.02-.18.62-.38,1.23-.27.59-.47,1.2.48.83.28,1.45-.72.44-.92,1.06.34.79.14,1.4-.68.46-.88,1.08.17.73-.03,1.35-.74.44-.94,1.05.49.84.29,1.45-.15.63-.35,1.25-.39.56-.58,1.17-.27.59-.47,1.21-.84.41-1.04,1.02.31.78.11,1.4-.41.55-.6,1.16-.66.47-.86,1.08-.02.67-.22,1.28-.36.56-.56,1.18.51.84.31,1.46-.44.54-.64,1.15.02.69-.18,1.3.1.71-.1,1.33-.85.41-1.05,1.02.45.83.25,1.44-.71.45-.91,1.07-.26.6-.46,1.22-.32.61-.43,1.25c-.11.59.18.73-.39,1.04Z"/>
  </g>
  <g>
    <path class="cls-8" d="M76.34,467.97c-.39.51-.62,0-1.26,0s-.64.06-1.29.06-.64,0-1.29,0-.65-.08-1.29-.08-.65.11-1.29.11-.65-.08-1.29-.08-.64-.03-1.29-.03-.64.04-1.29.04-.65.01-1.29.01-.65-.06-1.29-.06-.65.1-1.29.1-.65,0-1.29,0-.65-.11-1.29-.11-.65.05-1.29.05-.65.07-1.29.07-.65,0-1.29,0-.65-.13-1.29-.13-.65.01-1.29.01-.65,0-1.29,0-.65.07-1.29.07-.65-.07-1.29-.07-.65.07-1.29.07-.65-.07-1.3-.07-.65.02-1.29.02-.65,0-1.3,0-.65,0-1.3,0-.84.49-1.26,0,.11-.57.23-1.19.1-.62.22-1.23.12-.61.23-1.22.11-.61.23-1.23.16-.6.28-1.22.02-.63.13-1.24.11-.62.22-1.23.2-.6.32-1.21.05-.63.17-1.24.17-.6.29-1.22.16-.61.28-1.22.13-.61.25-1.23.07-.63.19-1.24.09-.62.17-1.24c0-.48.13-.93.3-1.35s.43-.83.76-1.16.73-.57,1.16-.75.87-.23,1.35-.23c.63,0,.63-.02,1.25-.02s.63-.08,1.25-.08.63.09,1.25.09.63,0,1.25,0,.62,0,1.25,0,.63,0,1.25,0,.63-.04,1.25-.04.63.05,1.25.05.63-.02,1.25-.02.63-.05,1.25-.05.63.1,1.25.1.63-.1,1.26-.1.63.03,1.25.03.63.09,1.26.09.63-.07,1.26-.07.63-.02,1.26-.02c.44,0,.85.12,1.25.25s.8.3,1.14.55.67.54.92.88.45.72.59,1.14.24.81.24,1.25c.11.65.05.66.2,1.3s.25.62.41,1.25.09.65.24,1.29.19.63.34,1.27.15.64.3,1.28.1.65.25,1.29.13.64.28,1.28.22.62.37,1.26.1.65.26,1.29.23.62.38,1.26.07.66.22,1.3.08.67.37,1.26c.31.63.64.76.24,1.28Z"/>
    <path class="cls-4" d="M76.34,467.97c-.39.51-.62,0-1.26,0s-.64.06-1.29.06-.64,0-1.29,0-.65-.08-1.29-.08-.65.11-1.29.11-.65-.08-1.29-.08-.64-.03-1.29-.03-.64.04-1.29.04-.65.01-1.29.01-.65-.06-1.29-.06-.65.1-1.29.1-.65,0-1.29,0-.65-.11-1.29-.11-.65.05-1.29.05-.65.07-1.29.07-.65,0-1.29,0-.65-.13-1.29-.13-.65.01-1.29.01-.65,0-1.29,0-.65.07-1.29.07-.65-.07-1.29-.07-.65.07-1.29.07-.65-.07-1.3-.07-.65.02-1.29.02-.65,0-1.3,0-.65,0-1.3,0-.84.49-1.26,0,.11-.57.23-1.19.1-.62.22-1.23.12-.61.23-1.22.11-.61.23-1.23.16-.6.28-1.22.02-.63.13-1.24.11-.62.22-1.23.2-.6.32-1.21.05-.63.17-1.24.17-.6.29-1.22.16-.61.28-1.22.13-.61.25-1.23.07-.63.19-1.24.09-.62.17-1.24c0-.48.13-.93.3-1.35s.43-.83.76-1.16.73-.57,1.16-.75.87-.23,1.35-.23c.63,0,.63-.02,1.25-.02s.63-.08,1.25-.08.63.09,1.25.09.63,0,1.25,0,.62,0,1.25,0,.63,0,1.25,0,.63-.04,1.25-.04.63.05,1.25.05.63-.02,1.25-.02.63-.05,1.25-.05.63.1,1.25.1.63-.1,1.26-.1.63.03,1.25.03.63.09,1.26.09.63-.07,1.26-.07.63-.02,1.26-.02c.44,0,.85.12,1.25.25s.8.3,1.14.55.67.54.92.88.45.72.59,1.14.24.81.24,1.25c.11.65.05.66.2,1.3s.25.62.41,1.25.09.65.24,1.29.19.63.34,1.27.15.64.3,1.28.1.65.25,1.29.13.64.28,1.28.22.62.37,1.26.1.65.26,1.29.23.62.38,1.26.07.66.22,1.3.08.67.37,1.26c.31.63.64.76.24,1.28Z"/>
  </g>
  <g>
    <path class="cls-8" d="M78.71,471.51c-.47.43-.63-.04-1.27-.04s-.64.01-1.27.01-.64-.04-1.27-.04-.63.09-1.27.09-.63-.07-1.27-.07-.63.1-1.27.1-.63,0-1.27,0-.64-.02-1.27-.02-.64.04-1.27.04-.64-.03-1.27-.03-.63,0-1.27,0-.64-.1-1.27-.1-.64,0-1.27,0-.64.03-1.27.03-.64-.04-1.27-.04-.64.04-1.27.04-.64.09-1.27.09-.64-.06-1.27-.06-.64-.06-1.27-.06-.63.07-1.27.07-.64-.02-1.27-.02-.64.04-1.27.04-.64-.12-1.27-.12-.64,0-1.28,0-.64.06-1.27.06-.64-.07-1.27-.07-.64.14-1.28.14-.64,0-1.27,0-.64-.13-1.28-.13-.64,0-1.28,0-.83.53-1.31.1c-.43-.4-.03-.61-.03-1.2s.02-.59.02-1.18-.35-.72.08-1.12c.47-.43.58-.06,1.22-.06s.64-.05,1.27-.05.64.14,1.27.14.63,0,1.27,0,.63,0,1.27,0,.63-.1,1.27-.1.63,0,1.27,0,.64-.04,1.27-.04.64.08,1.27.08.64-.02,1.27-.02.63-.04,1.27-.04.64-.02,1.27-.02.64.12,1.27.12.64-.11,1.27-.11.64.08,1.27.08.64.05,1.27.05.64-.01,1.27-.01.64-.08,1.27-.08.64-.03,1.27-.03.63.09,1.27.09.64-.08,1.27-.08.64.09,1.27.09.64,0,1.27,0,.64-.04,1.28-.04.64.02,1.27.02.64.02,1.27.02.64-.09,1.28-.09.64.12,1.27.12.64-.08,1.28-.08.64.08,1.28.08.85-.53,1.32-.1c.43.4,0,.63,0,1.22s-.13.59,0,1.17c.14.61.39.78-.04,1.18Z"/>
    <path class="cls-4" d="M78.71,471.51c-.47.43-.63-.04-1.27-.04s-.64.01-1.27.01-.64-.04-1.27-.04-.63.09-1.27.09-.63-.07-1.27-.07-.63.1-1.27.1-.63,0-1.27,0-.64-.02-1.27-.02-.64.04-1.27.04-.64-.03-1.27-.03-.63,0-1.27,0-.64-.1-1.27-.1-.64,0-1.27,0-.64.03-1.27.03-.64-.04-1.27-.04-.64.04-1.27.04-.64.09-1.27.09-.64-.06-1.27-.06-.64-.06-1.27-.06-.63.07-1.27.07-.64-.02-1.27-.02-.64.04-1.27.04-.64-.12-1.27-.12-.64,0-1.28,0-.64.06-1.27.06-.64-.07-1.27-.07-.64.14-1.28.14-.64,0-1.27,0-.64-.13-1.28-.13-.64,0-1.28,0-.83.53-1.31.1c-.43-.4-.03-.61-.03-1.2s.02-.59.02-1.18-.35-.72.08-1.12c.47-.43.58-.06,1.22-.06s.64-.05,1.27-.05.64.14,1.27.14.63,0,1.27,0,.63,0,1.27,0,.63-.1,1.27-.1.63,0,1.27,0,.64-.04,1.27-.04.64.08,1.27.08.64-.02,1.27-.02.63-.04,1.27-.04.64-.02,1.27-.02.64.12,1.27.12.64-.11,1.27-.11.64.08,1.27.08.64.05,1.27.05.64-.01,1.27-.01.64-.08,1.27-.08.64-.03,1.27-.03.63.09,1.27.09.64-.08,1.27-.08.64.09,1.27.09.64,0,1.27,0,.64-.04,1.28-.04.64.02,1.27.02.64.02,1.27.02.64-.09,1.28-.09.64.12,1.27.12.64-.08,1.28-.08.64.08,1.28.08.85-.53,1.32-.1c.43.4,0,.63,0,1.22s-.13.59,0,1.17c.14.61.39.78-.04,1.18Z"/>
  </g>
  <circle class="cls-6" cx="82.03" cy="377.96" r="51.89"/>
  <path class="cls-1" d="M45.41,414.58c-.31-.31-.64-.58-.94-.89s-.49-.72-.78-1.04-.67-.55-.95-.88-.64-.59-.91-.93-.67-.58-.93-.92-.4-.78-.66-1.13-.32-.83-.57-1.18-.57-.65-.81-1.01-.48-.72-.71-1.08-.7-.59-.92-.96-.38-.78-.59-1.16-.21-.87-.41-1.25-.36-.78-.55-1.17-.44-.74-.63-1.13-.29-.81-.46-1.21-.58-.69-.74-1.09-.02-.92-.18-1.32-.5-.73-.64-1.14-.39-.78-.52-1.19-.16-.86-.28-1.27-.37-.79-.48-1.21-.19-.84-.29-1.26-.06-.87-.15-1.29-.06-.87-.14-1.29-.33-.82-.4-1.24-.06-.86-.12-1.29,0-.87-.05-1.3-.24-.84-.27-1.27-.02-.86-.04-1.29-.2-.86-.21-1.29.06-.87.05-1.3.2-.86.21-1.29-.04-.86-.02-1.29-.17-.87-.15-1.3.29-.84.33-1.27,0-.86.05-1.29.17-.85.23-1.27.01-.87.08-1.29.27-.83.35-1.25-.05-.89.04-1.31.4-.79.5-1.21-.13-.92-.02-1.34.54-.74.67-1.16.02-.9.15-1.31.29-.81.43-1.22.35-.79.5-1.19.4-.77.56-1.17.15-.87.32-1.27.6-.67.78-1.07.27-.82.46-1.21.21-.86.41-1.24.62-.64.83-1.02.29-.83.51-1.2.41-.76.64-1.13.42-.76.66-1.12.55-.67.8-1.03.5-.71.76-1.05.64-.6.9-.94.56-.66.83-.99.64-.58.93-.91.52-.68.81-1,.6-.61.9-.92.59-.63.89-.93c.31-.31.52-.7.84-.99s.52-.71.84-1,.67-.55,1-.83.8-.39,1.13-.66.51-.75.85-1.01.71-.5,1.06-.75.83-.32,1.19-.57.6-.64.96-.88.77-.41,1.13-.63.81-.33,1.18-.55.65-.6,1.03-.81.8-.34,1.18-.54.71-.5,1.1-.7.85-.23,1.24-.41.77-.39,1.16-.57.71-.54,1.11-.71.86-.17,1.26-.32.76-.44,1.17-.58.86-.14,1.27-.28.77-.43,1.18-.55.87-.11,1.28-.23.82-.3,1.24-.4.83-.25,1.25-.34.9.08,1.32,0,.82-.31,1.25-.38.84-.24,1.27-.3.89.17,1.32.12.84-.24,1.27-.28.85-.24,1.28-.27.88.29,1.31.28.86-.23,1.29-.24.87-.12,1.3-.12.86.27,1.29.28.87-.11,1.3-.08.87-.04,1.3,0,.86.11,1.29.16.84.21,1.27.27.82.34,1.24.41.88-.05,1.31.03.81.34,1.23.43.89-.03,1.31.07.79.39,1.21.5.9,0,1.31.12.76.46,1.17.59.84.21,1.24.35.79.35,1.19.51.88.12,1.28.28.77.38,1.17.56.88.16,1.27.34.77.39,1.16.58.67.58,1.06.78.84.27,1.21.48.67.56,1.04.78.7.51,1.06.74.66.55,1.02.79.93.16,1.29.41.67.55,1.01.81.55.7.89.97.78.41,1.11.68.56.67.89.95.66.55.98.84.68.53,1,.83.64.57.95.88c.31.31.59.63.89.94s.64.58.93.9.52.69.8,1.02.48.73.75,1.06.8.47,1.06.81.36.82.61,1.16.43.76.67,1.11.69.57.93.93.22.88.45,1.25.48.72.7,1.09.66.62.87.99.49.72.69,1.1.24.85.43,1.24.25.83.44,1.22.35.79.52,1.18.52.72.68,1.12.25.83.4,1.23.48.74.63,1.15-.07.93.07,1.34.43.77.55,1.18.23.83.34,1.25.29.82.39,1.24.07.87.16,1.29.43.8.51,1.22.04.87.11,1.3-.07.88,0,1.31.16.85.2,1.28.2.85.23,1.28-.05.87-.02,1.3.06.86.07,1.29.29.86.3,1.29-.18.86-.19,1.3-.1.86-.12,1.29-.09.86-.11,1.29-.05.86-.08,1.29.13.88.08,1.31-.38.82-.43,1.25.2.9.13,1.33-.39.81-.47,1.23-.21.83-.3,1.25-.1.86-.2,1.28.06.91-.05,1.32-.37.79-.49,1.21-.2.84-.33,1.25-.38.78-.52,1.19-.22.84-.38,1.24-.41.77-.57,1.17-.19.85-.37,1.25-.41.76-.59,1.15-.47.73-.66,1.12-.3.82-.5,1.2-.4.76-.62,1.14-.36.79-.58,1.16-.39.77-.62,1.14-.6.64-.84,1-.38.79-.63,1.14-.49.72-.74,1.06-.66.58-.92.92-.44.75-.72,1.08-.5.71-.78,1.04-.58.64-.87.96-.7.53-1,.84-.46.76-.76,1.07c-.31.31-.72.5-1.03.8s-.64.58-.96.87-.73.48-1.05.76-.52.73-.85,1-.79.39-1.13.65-.61.62-.96.88-.61.64-.96.88-.85.28-1.21.52-.65.58-1.02.81-.66.58-1.03.8-.86.24-1.24.45-.79.34-1.17.54-.75.42-1.14.61-.78.37-1.17.55-.8.31-1.2.48-.75.42-1.15.59-.75.44-1.16.59-.84.22-1.25.36-.77.42-1.18.55-.81.3-1.23.42-.87.11-1.29.22-.8.38-1.22.48-.91-.1-1.33-.01-.78.48-1.21.56-.91-.17-1.33-.11-.82.37-1.24.43-.85.14-1.28.19-.89-.2-1.32-.16-.85.19-1.28.21-.86.08-1.29.09-.86.02-1.29.02-.86,0-1.29-.01-.86-.02-1.29-.04-.86-.04-1.29-.07-.85-.21-1.28-.25-.87.03-1.29-.02-.89.17-1.32.11-.84-.25-1.26-.32-.84-.19-1.27-.27-.85-.13-1.28-.22-.82-.3-1.24-.4-.84-.19-1.26-.3-.88-.07-1.29-.19-.78-.4-1.19-.53-.76-.43-1.17-.57-.91,0-1.32-.16-.79-.35-1.19-.51-.78-.37-1.18-.55-.86-.19-1.25-.37-.76-.42-1.14-.62-.64-.64-1.02-.84-.92-.11-1.3-.32-.69-.53-1.06-.76-.6-.67-.96-.9-.74-.44-1.1-.68-.88-.24-1.23-.49-.6-.65-.95-.9-.79-.39-1.13-.65-.66-.56-1-.83-.63-.59-.96-.87-.54-.69-.86-.98-.68-.53-.99-.83-.61-.61-.91-.92Z"/>
  <circle class="cls-6" cx="116.11" cy="271.66" r="40.98"/>
  <path class="cls-5" d="M75.13,271.66c0-.43-.01-.86,0-1.29s.05-.86.07-1.29-.04-.87,0-1.29.35-.83.4-1.25.04-.86.11-1.28,0-.87.08-1.29.36-.8.45-1.22-.09-.91.02-1.32.52-.75.64-1.16.07-.88.2-1.28.21-.84.36-1.24.43-.76.58-1.16.41-.76.58-1.15.19-.86.37-1.24.52-.7.71-1.08.26-.83.47-1.21.57-.66.79-1.03.3-.82.53-1.18.39-.77.63-1.13.56-.65.82-1,.54-.67.8-1.01.52-.68.79-1.01.52-.69.8-1.01.62-.59.92-.91.61-.6.91-.91.56-.65.87-.95.56-.66.89-.94.62-.6.96-.87.71-.49,1.05-.76.79-.37,1.14-.62.73-.44,1.09-.68.69-.5,1.05-.73.66-.57,1.03-.79.67-.55,1.05-.76.83-.27,1.21-.47.76-.4,1.15-.59.84-.21,1.24-.39.69-.58,1.09-.74.84-.21,1.24-.36.77-.41,1.18-.54.82-.28,1.23-.4.86-.13,1.27-.24.87-.06,1.29-.16.81-.31,1.23-.39.85-.13,1.27-.19.84-.19,1.27-.24.87.1,1.3.06.85-.07,1.28-.1.84-.28,1.28-.29.86.21,1.29.21.86-.19,1.29-.18.86.05,1.29.07.85.13,1.28.17.86.05,1.28.11.84.2,1.26.27.89-.09,1.31,0,.84.22,1.25.32.83.22,1.25.33.77.43,1.18.55.86.12,1.27.25.77.41,1.17.55.92,0,1.32.16.73.48,1.13.65.84.24,1.22.42.75.42,1.13.62.67.57,1.05.77.76.39,1.13.6.83.29,1.19.52.62.62.97.86.85.28,1.2.54.57.67.91.94.67.54,1,.81.68.53,1,.81.73.48,1.04.77.59.62.9.93.66.56.95.87.59.63.88.95.38.81.65,1.14.69.55.95.89.36.8.61,1.15.59.63.83.99.54.67.77,1.03.26.84.48,1.21.65.62.86.99.31.81.51,1.19.3.8.49,1.19.59.67.76,1.07.1.89.26,1.29.49.73.63,1.14.13.86.26,1.27.18.84.3,1.25.43.77.54,1.18.17.84.27,1.26.27.82.35,1.24.08.86.14,1.28.04.86.09,1.29.26.84.3,1.26.05.86.07,1.29-.13.86-.11,1.29.02.85.02,1.29-.08.86-.09,1.28.13.86.1,1.29.09.87.05,1.3-.19.85-.24,1.27-.31.82-.37,1.25-.15.84-.23,1.26-.04.87-.13,1.29-.05.87-.15,1.29-.38.79-.5,1.2-.35.79-.48,1.2-.14.86-.29,1.26-.27.82-.43,1.22-.42.75-.59,1.15-.12.89-.3,1.28-.52.7-.71,1.09-.26.84-.47,1.21-.55.68-.77,1.04-.55.66-.78,1.03-.48.71-.72,1.06-.4.76-.66,1.11-.35.81-.62,1.15-.64.59-.91.92-.67.56-.95.88-.53.67-.82.99-.5.71-.8,1.02-.66.55-.98.84-.5.72-.83,1.01-.73.47-1.06.75-.68.52-1.02.78-.72.47-1.07.72-.63.6-.98.84-.76.41-1.12.64-.77.39-1.14.6-.72.47-1.09.68-.72.47-1.11.66-.72.49-1.11.67-.83.24-1.23.41-.73.48-1.13.64-.83.24-1.24.38-.88.07-1.29.21-.81.27-1.22.39-.8.32-1.21.43-.79.38-1.21.47-.87.02-1.3.1-.82.29-1.25.35-.88-.13-1.31-.08-.83.31-1.26.35-.85.17-1.28.19-.86-.03-1.29-.01-.86-.23-1.29-.23-.86.06-1.28.04-.87.22-1.3.19-.85-.15-1.28-.19-.85-.17-1.27-.23-.85-.13-1.27-.19-.86-.09-1.28-.17-.85-.14-1.27-.24-.81-.29-1.23-.4-.85-.13-1.26-.25-.86-.14-1.27-.27-.82-.27-1.22-.42-.79-.35-1.19-.51-.79-.34-1.18-.51-.77-.38-1.16-.56-.77-.39-1.15-.58-.71-.49-1.08-.7-.8-.33-1.17-.55-.7-.5-1.06-.74-.85-.28-1.2-.52-.69-.53-1.03-.78-.67-.54-1.01-.8-.66-.55-.99-.82-.64-.58-.96-.86-.59-.62-.91-.92-.61-.6-.92-.9-.55-.65-.85-.97-.74-.48-1.03-.81-.5-.71-.77-1.04-.42-.76-.68-1.1-.6-.62-.85-.97-.54-.67-.78-1.02-.51-.69-.74-1.06-.44-.74-.66-1.11-.52-.69-.73-1.07-.15-.89-.35-1.27-.48-.72-.67-1.1-.27-.82-.44-1.21-.53-.71-.68-1.11-.39-.77-.53-1.18-.03-.9-.17-1.3-.44-.76-.56-1.18-.24-.83-.35-1.24-.21-.83-.31-1.25-.06-.86-.14-1.29-.06-.86-.13-1.28-.29-.82-.34-1.25-.2-.84-.24-1.27-.05-.86-.08-1.29,0-.86-.02-1.29.06-.86.06-1.29Z"/>
  <path class="cls-7" d="M145.04,256.91c.81,1.18,1.65,2.22,2.13,3.64,0,0,.35,1.3.35,1.3.18,1,.72,1.78.77,2.77.03.97.47,1.47.53,2.63.1.85.33,2.03.15,2.87-.04.41.21,1.43.1,1.98-.23,4.64-.94,9.39-3.11,13.55-.23.43-.22.94-.49,1.44-.16.25-.47.78-.63,1.05-.21.4-.63.81-.84,1.13-.22.35-.27.81-.59,1.26-.31.45-.67.66-.94,1.03,0,0-.42.56-.42.56-.28.32-.5.67-.75,1.05-.33.6-1.04,1.06-1.47,1.54-.51.71-1.16,1.3-1.74,1.83-.2.22-.68.46-.92.64-1,.81-2.29,1.68-3.32,2.45-.81.42-1.55.93-2.41,1.43,0,0-1.27.6-1.27.6-.71.38-1.5.69-2.26.93-.22.09-.64.31-.84.42-.44.25-1.05.32-1.53.42-2.16.82-4.49,1.09-6.78,1.27-.63.1-1.59.25-2.21.1-.4-.05-.88-.05-1.28-.05-1.14-.04-2.5.02-3.61-.29-.54-.18-1.39-.3-1.92-.37-.7-.05-1.23-.06-2.08-.34-.47-.08-1.2-.44-1.63-.63-1.45-.43-3.12-.85-4.35-1.73-.39-.3-.54-.32-1.01-.49-1.41-.61-2.59-1.27-3.53-2.45-.29-.32-.63-.69-.86-1.12l.18-.23c1.45.12,2.47,1.12,3.66,1.78.72.37,1.08.53,1.79.78.43.18.84.56,1.16.73,1.12.48,2.28.88,3.46,1.17.33.1.75.33.99.44.22.07.91.26,1.2.32.47.13.76.03,1.31.13,0,0,1.36.2,1.36.2.89.27,1.67.37,2.58.38.47.02,1.55,0,1.99,0,.66-.03,1.26.19,1.89.03,2.17-.34,4.45-.29,6.52-1.11.55-.27,1.34-.25,1.9-.51.26-.13.73-.41.99-.48.19-.07.74-.25.94-.32.71-.27,1.69-.82,2.4-1.12.5-.29,1.65-1.05,2.28-1.36.61-.49,1.54-1.09,2.16-1.55.36-.28,1.31-1.01,1.7-1.23.44-.33,1.01-.89,1.32-1.22.38-.56,1-1.13,1.49-1.53.29-.28.44-.62.72-1,.41-.51.93-1.26,1.4-1.68.58-.45.51-.94.93-1.58.29-.43.58-.65.81-1.04.14-.24.48-.75.62-.99.18-.37.24-1.05.51-1.45,0,0,.35-.6.35-.6,1.72-3.8,2.51-8.04,2.71-12.21.12-.79-.16-1.15-.08-2.1.06-.53.11-.7.03-1.23-.06-.32-.17-1.65-.23-1.99-.12-.62-.47-1.38-.43-2.05.03-.62-.42-1.2-.53-1.82-.14-.61-.35-1.36-.49-1.99-.29-.83-.53-1.56-.94-2.43-.15-.46-.26-.88-.37-1.34l.45-.23h0Z"/>
  <path class="cls-7" d="M83.64,271.66c-.59-1.55-.34-3.24-.16-4.84,0,0,.23-1.6.23-1.6.2-1.02.6-2.04.83-3.05.88-3.69,2.93-7.07,4.96-10.24.25-.44.75-.86,1.04-1.24.53-.61,1-1.21,1.51-1.87.4-.47.85-.71,1.24-1.1.37-.37,1.41-1.28,1.8-1.65,1.75-1.27,3.46-2.65,5.38-3.66,2.44-1.2,4.98-2.12,7.59-2.9,1.14-.16,2.08-.45,3.26-.58.54-.04,1.05-.05,1.55-.11,1.14-.08,2.23-.39,3.24.46,0,0,0,.3,0,.3-1.04.85-2.05.66-3.08.83-.47.05-1.18.13-1.61.14-1.42.28-3.05.52-4.42,1.07-1.88.65-3.3,1.22-5.08,2.06-2.09.92-3.86,2.44-5.71,3.75-.85.8-1.98,1.81-2.85,2.54-.61.77-1.39,1.72-2.09,2.43-2.03,2.61-3.61,5.6-4.88,8.65-.31.67-.39,1.5-.64,2.23-.41,1.15-.76,2.54-.9,3.76-.26,1.55-.18,3.13-.7,4.64,0,0-.51,0-.51,0h0Z"/>
  <path class="cls-2" d="M110.94,271.66c0-.46.07-.91.18-1.34s.29-.86.52-1.24.5-.75.82-1.07.68-.59,1.07-.81.8-.41,1.24-.53.87-.17,1.34-.17.91.04,1.34.16.86.31,1.24.53.76.49,1.08.81.6.68.82,1.07.4.81.51,1.25.18.88.18,1.34-.08.91-.19,1.34-.29.86-.52,1.24-.5.75-.82,1.07-.66.62-1.05.84-.81.39-1.25.5-.87.19-1.34.19-.92-.06-1.34-.17-.85-.32-1.24-.54-.75-.5-1.07-.82-.62-.66-.84-1.05-.4-.81-.52-1.25-.16-.88-.16-1.34Z"/>
  <path class="cls-7" d="M93.19,281.36c1.09-.39,1.91-.22,2.93-.26.69-.15,1.58-.06,2.3-.06,1.17-.18,1.9,0,2.96-.04.47-.06,1.8-.06,2.31-.07.65.03.98.1,1.42.06.84-.1,2.34-.22,3.19-.03.63.1,1.48-.21,2.1-.13.47,0,1.78-.01,2.26-.02.63,0,.87.15,1.48.11,2.55-.08,5-.23,7.5-.09.88,0,1.33.07,2.18-.05.85-.04,1.55.06,2.38.08.71.09,1.47-.06,2.2-.02.87.1,1.34.04,2.2-.04,1.26.08,2.48.23,3.73.1,1.26-.07,2.45.06,3.77.07,1.04.03,2.08-.24,3,.58,0,0,0,.29,0,.29-.49.42-1.01.56-1.49.61-1.46.16-2.94-.03-4.48.03-.93.03-2.13.13-3.04.08-.46.03-.99-.12-1.48-.1-.74.1-1.53.16-2.28.07-1.21.06-2.56.06-3.78-.06-2.4.15-5.03-.05-7.38.01-1.53.06-3.08.19-4.56-.06-.78,0-2.15-.04-2.9-.02-.21.03-.54.12-.78.12-.48.06-1.08-.12-1.54-.14-.43,0-1.03.01-1.47.01-.59.1-1.8.07-2.29,0-.92-.03-2.03.04-3.01.03-.57-.05-.89-.12-1.39-.07-.69.13-1.58.01-2.3,0-.65.08-1.67.13-2.28-.09-.44-.05-1.03-.21-1.47-.4,0,0,0-.49,0-.49h0Z"/>
  <path class="cls-7" d="M89.78,259.99c.98-.25,1.5-.33,2.45-.46,1.07-.01,2.26.12,3.33.1,1.32.06,2.96-.4,4.19,0,.5.08.89-.16,1.5-.15.64-.02,1,.17,1.61.11,2.53-.09,4.91-.16,7.43-.14.54-.01,1.14-.12,1.75-.05.4.06.47.08.72.08.66-.03,1.7-.07,2.48.03.82-.03,1.66-.07,2.44-.07,1.62.05,3.38-.02,4.96-.02.43-.02,1.22.06,1.64.08,1.35-.03,2.7-.12,4.06-.03.56-.08,1.2-.18,1.78-.08.5.07,1.2.05,1.61.14.65.03,1.48-.07,2.31-.1,1.25-.07,2.15.02,3.36.07.53.01,1.06-.06,1.78.06.99.17,2.09-.18,3.15.57,0,0,0,.3,0,.3-.29.23-.43.38-.74.53-.93.31-1.63.31-2.67.18-.89-.05-2.15.01-3.15-.07-1.48-.05-2.72.2-4.18.17-.65-.1-1.07-.04-1.66-.12-.51-.08-.97.08-1.49.12-1.19-.02-2.05-.03-3.29.02-1.38.08-2.7-.17-4.09-.02-1.09.05-2.31-.02-3.35-.01-1.04-.02-1.98.11-2.99.01-.66-.11-1.15-.02-1.96-.03-.66-.01-.98-.17-1.58-.12-3.03.02-6.19.06-9.22,0-.87-.26-1.54.19-2.45,0-.74-.2-.78-.16-1.45-.13-.91,0-1.66.17-2.54.09-1.1-.02-2.17-.12-3.25-.18-.74.08-1.82-.04-2.47-.37,0,0,0-.51,0-.51h0Z"/>
  <circle class="cls-6" cx="146.61" cy="176.31" r="32.49"/>
  <path class="cls-7" d="M123.46,153.17c.5-.61,1.13-1.17,1.64-1.74.18-.2.31-.42.64-.66.31-.19.58-.27.7-.37l.57-.52c.49-.41.68-.8,1.31-1.13.3-.14.54-.23.62-.3.07-.04.2-.25.46-.53.12-.14.37-.3.57-.36.39-.13.62-.07.9-.31.21-.18.5-.43.76-.55,0,0,.72-.4.72-.4.56-.27,1.08-.36,1.61-.57.7-.16.69-.35,1.41-.66.38-.13.69-.14.88-.18.43-.11,1.03-.56,1.58-.54.32-.02.5-.03.62-.08.18-.12.81-.33,1.15-.42.69-.25,1.37-.29,2.07-.36,1.59-.19,3.31-.42,4.9-.33,1.36-.06,2.79-.16,4.09.12.24,0,.67.16.92.25.47.13.99.24,1.47.33.6.16,1.28.15,1.95.3.43.03.99.11,1.38.34.33.21,1.03.39,1.42.53.36.12.65.33.82.42.23.11.19.1.47.12.27,0,.85.16,1.06.32.59.37.7.38,1.37.61.61.27,1.07.51,1.57.85,0,0,.31.23.31.23l.12.08c.63.48.78.67,1.46.96.7.39,1.11.82,1.76,1.21.29.13.83.79.93.91,0,0,.56.48.56.48.27.27.56.38.93.61.35.13.73.92.86,1.04,1.13.7,1.92,1.98,2.79,2.97.36.42.46.84.85,1.15.16.09.44.41.56.59.15.25.91,1.52,1.05,1.77.25.43.23.85.52,1.21.29.25.69,1.24.77,1.6-.06.02.46.45.55.66.24.35.28.82.38,1.17.12.35.32.57.49,1.04.05.15.25.85.29.99.09.24.1.57.13.78-.02.22.28,1.02.37,1.34.05.15.2.39.33.8.15.56.04.86.1,1.19.08.2.22.43.31.73.19.38,0,1.11.05,1.34.03.41.14,1.23.17,1.64.03.34.09.79.17,1.13.09.37,0,.97.02,1.32.02.87.13,1.8-.09,2.65-.28.78-.15.48-.12,1.32,0,.6-.24.92-.32,1.28-.01.62-.15,1.42-.23,2.05-.1.46-.32.76-.38.91-.11.32,0,.57-.08.97-.19.75-.53,1.33-.78,2-.07.18-.06.13-.07.21-.06.34,0,.62-.18,1-.13.37-.39.57-.54.81-.12.27-.1.46-.29.99-.19.43-.42.67-.53.83-.07.1-.05.09-.15.24,0,0-.21.35-.21.35,0,0-.21.35-.21.35,0,0-.05.09-.05.09-.1.23-.16.56-.27.79-.16.38-.6.89-.77,1.25-.29.64-.76,1.21-1.21,1.74-.36.42-.6.65-.89,1.24-.44.61-1.08,1.31-1.59,1.66-.09.08-.08.06-.2.19l-.57.59c-.38.38-.9.72-1.07,1.02-.11.19-.55.62-.58.65-.13.14-.32.42-.65.69-.6.41-.98.71-1.55.96-.2.08-.37.23-.54.33-.53.32-.84.67-1.42,1.08-.31.23-.56.53-.94.7-.54.21-.59.21-1.16.48-.67.24-.62.25-1.31.7-.42.23-.78.37-1.19.57-.25.14-.91.24-1.01.33-.12.06-.32.3-.81.51-.58.21-.8.14-1.16.26-.36.18-.91.46-1.34.49-.2.03-.54.03-.73.1-.79.1-1.27.17-1.98.31-.32.08-.72.21-1.08.28-.16.04-.44.2-.92.28-.62.06-.85-.03-1.32.02-.42,0-.76-.09-1.15-.02-.56.03-.93.1-1.59.18-.94-.07-1.27-.09-2,.03-.45.05-.99-.17-1.31-.19-.93-.08-1.83-.36-2.77-.37-1.24-.22-2.43-.7-3.66-.95-.53-.15-.94-.23-1.56-.38-.67-.21-.83-.48-1.41-.6-.53-.03-1.18-.48-1.65-.71-.61-.34-.62-.52-1.01-.69-.91-.48-1.56-.78-2.56-1.21-.52-.31-.64-.56-.96-.78-.38-.21-.91-.42-1.21-.81-.24-.3-.36-.48-.38-.48-.49-.24-1.11-.62-1.72-1.12-.13-.16-.45-.43-.59-.59-.09-.1-.18-.17-.36-.38-.26-.35-.36-.6-.42-.66-.29-.24-.65-.68-.99-.88-.22-.13-.65-.43-.79-.7-.95-1.33-1.96-2.66-2.89-4-.52-1.07-1.1-1.81-1.69-2.82-.76-1.52-1.35-3.17-1.87-4.79-.14-.46-.14-.89-.32-1.31-.24-.48-.34-1.17-.43-1.68,0-.14-.27-.58-.35-.88,0,0-.04-.17-.04-.17,0,0-.01-.1-.01-.1l-.06-.41c-.33-2.23-.45-4.52-.29-6.77.02-.28-.14-.58-.12-.97.04-.61.22-1.63.38-2.12.07-1.39.32-2.98.7-4.34.08-.7.22-1.21.66-1.75.12-.28.11-.55.25-.98.21-.63.46-.8.55-1.37.14-.66.33-1.15.6-1.78.26-.43.51-.6.57-.71.03-.02.09-.19.17-.49.04-.15.1-.33.21-.53.29-.57.72-1.23,1.04-1.78.43-.59.65-.78,1.1-1.33,0,0,.25-.26.25-.26.07-.08.1-.11.16-.21.8-1.46,2.19-2.61,3.61-3.44,0,0-.07-.07-.07-.07h0ZM123.75,153.45c-.93,1.32-1.91,2.43-2.54,3.89-.35.67-1.02,1.37-1.45,1.99-.32.52-.69,1.16-.98,1.69-.17.36-.13.7-.5,1.22-.26.32-.45.48-.45.53-.12.37-.38.89-.42,1.25-.1.87-.68,1.45-.77,2.35-.03.27-.34.75-.49.95-.12.01-.13.69-.3,1.28-.37,1.33-.48,2.51-.59,3.92-.22.63-.2.94-.3,1.48,0,0-.05.34-.05.34,0,.04,0,.12.03.24.07.25.11.69.08.97-.15,2.21,0,4.44.34,6.63.01.35.32.55.4,1.1,0,0,.14.77.14.77.09.54.45,1.05.48,1.59.02.19.1.48.16.66.48,1.48,1.02,2.98,1.72,4.36.52.85,1.2,1.78,1.62,2.67.93,1.32,1.99,2.73,2.92,4.01.28.16.76.5,1.02.79.17.19.46.39.62.6.28.36.38.62.45.69.16.18.57.57.73.75.09.11.47.32.6.43.33.3.48.24,1.04.62.41.33.55.64.66.74.23.2.52.27.81.46.27.18.75.64.89.74.71.28,1.79.8,2.52,1.18.28.08.89.64.97.67.38.18.84.52,1.28.57.44.03,1.18.49,1.53.63,1.6.32,3.29.86,4.89,1.25,1.23.05,2.68.4,3.86.55.24-.05.49-.07.8-.1.4,0,.85.06,1.19.07.44-.09,1.48-.17,2.01-.21.48,0,.81.07,1.24.03.76.01.55.08,1.3-.2.53-.12,1.1-.31,1.65-.4.37-.09,1.31-.22,1.58-.24.24-.06.61-.1.86-.12.3-.02.55-.24.89-.37.88-.35.92,0,1.71-.65.45-.27.74-.29.98-.37.3-.06.94-.43,1.26-.57.24-.23,1.19-.72,1.51-.8.23-.12.58-.28.79-.34.39-.08.61-.4.92-.62.29-.18.37-.29.76-.62.61-.44,1.24-.9,1.88-1.18.23-.2.69-.42.81-.55.09-.06.21-.23.43-.49.33-.35.3-.28.49-.54.08-.11.18-.24.32-.39.35-.31.59-.51.92-.81.27-.24.63-.7.93-.92.38-.21.89-.83,1.2-1.2.1-.14.2-.43.46-.77.41-.45.88-1.02,1.25-1.5.12-.13.25-.46.35-.62.17-.29.48-.78.67-1.05.12-.12.21-.74.38-1,.24-.4.48-.79.74-1.2.48-.62.32-.41.53-1.19.07-.31.37-.75.56-.96.14-.21.08-.06.12-.28,0-.26.09-.81.2-.99.18-.4.48-1.19.64-1.52.17-.33.02-.54.1-.96.03-.37.4-1.02.46-1.19.12-.71.16-1.21.22-1.94.07-.34.29-.85.31-1.03,0-.13-.06-.41-.05-.83.02-.66.28-.81.29-1.18.06-.98-.02-2.06,0-3.04-.11-.6-.2-1.4-.25-2.03,0,0-.08-.78-.08-.78-.07-.52.06-.78.01-1.06-.16-.33-.44-.96-.4-1.36.03-.77-.03-.55-.31-1.28-.2-.61-.48-1.47-.48-2.09-.06-.26-.23-.77-.29-1.02-.11-.26-.41-.76-.52-1.14-.11-.31-.07-.57-.23-.81,0,0-.27-.29-.27-.29-.06-.07-.13-.15-.2-.25-.22-.32-.34-.88-.42-1.08-.12-.22-.43-.63-.61-.95-.17-.34-.2-.62-.31-.9-.14-.24-.85-1.45-.99-1.69-.23-.29-.72-.58-.95-1.07-.23-.46-.6-.82-.9-1.19-.4-.55-.98-1.27-1.43-1.7-.13-.11-.41-.24-.73-.55-.32-.34-.42-.63-.52-.75-.2-.23-.53-.28-.83-.53-.15-.13-.48-.41-.63-.54-.24-.13-.77-.82-.85-.9-.94-.64-1.52-1.15-2.58-1.67-.32-.22-.51-.43-.66-.53-.17-.11-.49-.33-.65-.46-.35-.27-.91-.5-1.25-.68-.36-.08-1.24-.48-1.54-.7-.31-.22-.57-.09-.98-.21-.43-.12-.85-.44-1.14-.55,0,0-.75-.24-.75-.24-.44-.06-.87-.5-1.35-.51-1.13-.16-2.44-.32-3.59-.63-.39-.03-.74-.27-1.13-.32-1.31-.27-2.63-.18-3.91-.13-1.52-.09-3.18.1-4.7.3-.61.09-1.3.06-1.87.3-.43.11-.57.17-1.11.4-.39.14-.76.13-.96.15-.51.03-.82.43-1.43.51-.72.12-.66.07-1.29.46-.64.31-1.07.37-1.66.59-.31.09-.45.1-.65.23-.37.21-.93.48-1.23.76-.2.19-.75.44-1.03.44-.21.06-.29,0-.4.1-.12.09-.27.36-.64.63-.36.22-.65.27-.84.35-.62.4-1.19.96-1.84,1.4-.33.19-.6.22-.75.31-.3.22-.83.74-1.16.98-.42.32-.81.68-1.21,1.04l-.07-.07h0Z"/>
  <path class="cls-7" d="M171.09,184.26c-.22,1.12-.29,2.17-.84,3.25-.27.52-.86,1.31-1.04,1.8-.1.33-.37.87-.63,1.11-.43.41-.47.85-.82,1.32-.56.67-1.13,1.65-1.89,2.13-1.31,1.63-3.17,3.07-4.94,4.25-1.64,1.18-3.5,2.19-5.45,2.76-.15.05-.16.05-.31.15-.14.12-.64.41-.89.44,0,0-.27.06-.27.06-.36.07-.87.24-1.21.23-.62-.03-.81.31-1.46.44-.69.07-.93-.05-1.65.1-.34.02-.63.1-.99.18-.51.17-1.19,0-1.69.03-.83.14-1.62.13-2.38.02-.32-.11-1.2-.22-1.55-.26-.64-.1-1.54-.29-2.19-.36,0,0-1.06-.31-1.06-.31-.24-.07-.66-.09-1.09-.24-.8-.33-1.83-.58-2.59-1.01-.25-.15-.67-.27-.95-.34-.4-.1-.78-.42-1.1-.65-.27-.19-.54-.24-.89-.41-.55-.31-1.02-.59-1.5-.97-.61-.53-1.46-1.09-2.1-1.7-.41-.28-1.06-.75-1.31-1.19-.19-.25-.46-.51-.68-.73-.62-.66-1.44-1.38-1.87-2.19-.18-.41-.6-.94-.85-1.27-.39-.42-.65-.67-.99-1.34-.21-.29-.42-.93-.54-1.27-.53-.84-.99-1.81-1.35-2.74-.16-.41-.08-.73-.2-1.04-.52-1.06-.88-2.13-.87-3.29.05-.58.04-1.04.18-1.63,0,0,.23-.03.23-.03.77.88.74,2.01,1.04,3.05.21.63.31.88.58,1.43.15.35.14.8.22,1.08.21.48.4.98.65,1.44.29.62.81,1.3.95,1.97.08.15.36.66.48.84.19.34.42.41.68.79,0,0,.66.88.66.88.34.67.7,1.15,1.21,1.67.46.49,1.15,1.07,1.54,1.6.32.5.65.59,1.1.96.78.69,1.61,1.3,2.49,1.96,0,0,.45.28.45.28.45.34.99.41,1.47.75.19.14.52.41.74.47,0,0,.52.14.52.14.32.1.73.33,1.03.48.55.25,1.41.48,1.98.71.45.11,1.47.31,2.04.51.82.09,1.79.31,2.6.4.33.02.94.18,1.3.25.62.03,1.22.07,1.76-.05.55-.09,1.02.14,1.54,0,.45-.13,1.17-.2,1.66-.26.36-.06.78.02,1.06,0,.27-.08.59-.31.99-.39.42-.08.7-.02,1.04-.11.11-.04.65-.14.77-.17.29-.05.26-.1.56-.28.66-.44,1.41-.38,2.11-.83,2.91-1.19,5.5-3.16,7.81-5.25.18-.3.76-.98,1.2-1.22.34-.37.94-1.18,1.28-1.58.27-.41.49-1.07.91-1.4.37-.31.41-.91.7-1.31.14-.26.43-.65.58-.94.48-.73.78-1.44,1.1-2.33.18-.35.35-.64.55-.96,0,0,.38.12.38.12h0Z"/>
  <path class="cls-7" d="M128.43,158.13c.48-1.14,1.65-2.08,2.6-2.82.41-.31,1.17-.95,1.63-1.14.51-.28,1.08-.52,1.56-.84.65-.55,1.57-.88,2.36-1.2,2.35-.78,5.01-1.84,7.46-1.89.65-.04,1.21-.12,1.88-.23.51-.05.89.11,1.32.11.41,0,1.51.06,1.94.07,1.48.29,3.65.47,5.07.95.35.07.88.38,1.18.5.33.11.92.23,1.23.42,1.2.63,2.32,1.1,3.47,1.71.4.21.67.54,1.04.76.37.25.72.38,1.12.77.32.31.58.56.9.81.61.52,1.54,1.09,1.57,2.07,0,0-.17.17-.17.17-1.05-.12-1.53-.77-2.2-1.26-.31-.22-.75-.62-.98-.85-.36-.34-1.12-.63-1.53-1.02-.23-.24-.7-.42-.98-.58-1.3-.53-2.4-1.19-3.27-1.49-.62-.09-1.21-.47-1.78-.66-1.34-.45-3.4-.62-4.8-.9-.41,0-1.44-.05-1.83-.07-.39.02-.85-.15-1.17-.13-.33.04-.87.15-1.25.15-3.13.07-5.99,1.06-8.88,2.16-.61.2-.99.64-1.59.91-.99.45-1.82.94-2.62,1.58-1.01.72-1.86,1.67-2.97,2.23,0,0-.28-.28-.28-.28h0Z"/>
  <path class="cls-7" d="M128.31,168.92c.94.44,1.5,1.26,2.29,1.89.55.59,1.15,1.11,1.73,1.67.39.47.77.8,1.24,1.24.5.45,1.22,1.26,1.65,1.67.56.48,1.32,1.14,1.77,1.74.25.31.42.41.79.7.57.53,1.2,1.17,1.74,1.7.5.58,1.06,1.18,1.61,1.67,1.51,1.3,2.85,2.8,4.24,4.2.6.48,1.18,1.16,1.72,1.73.5.56,1.16,1.08,1.64,1.68.87.75,1.65,1.72,2.46,2.52,1.19,1.05,2.18,2.27,3.36,3.38.26.32.46.67.51,1.19,0,0-.16.16-.16.16-1.03-.12-1.43-.75-2.05-1.31-.67-.65-1.37-1.44-2.09-2.09-.64-.56-1.2-1.12-1.75-1.74-.71-.65-7.07-7.05-7.89-7.9-.75-.72-1.5-1.38-2.18-2.17-.54-.69-1.38-1.47-1.96-2.07-.43-.27-.94-.89-1.28-1.3-.21-.2-.63-.62-.83-.83-.73-.6-1.43-1.49-2.1-2.12-.52-.45-1.11-1.17-1.63-1.67-.45-.35-.88-.87-1.28-1.28-.41-.35-.96-.85-1.23-1.32-.23-.29-.46-.69-.61-1.04,0,0,.27-.27.27-.27h0Z"/>
  <path class="cls-7" d="M138.38,155.03c1.58.81,2.63,2.25,3.89,3.46.58.49,1.5,1.24,1.91,1.89.25.33.6.48.93.81.86,1,1.85,1.85,2.76,2.77,3.29,3.14,6.51,6.46,9.75,9.65.82.94,1.89,1.8,2.7,2.72.83.6,1.56,1.66,2.26,2.31,1.36,1.2,2.51,2.45,3.75,3.79.5.62,1.36,1.21,1.45,2.12,0,0-.17.17-.17.17-1.05-.05-1.62-.75-2.29-1.5-.35-.43-.94-.89-1.35-1.38-1.16-1.28-2.63-2.37-3.7-3.67-.26-.33-.58-.54-.9-.81-.71-.73-1.6-1.6-2.35-2.31-.55-.66-3.89-3.91-4.57-4.59-2.54-2.69-5.21-5.34-7.82-7.98-.3-.4-.4-.52-.82-.82-.36-.24-.69-.76-.91-1.04-.73-.74-1.63-1.48-2.33-2.27-.55-.61-1.16-1.3-1.75-1.88-.33-.36-.55-.75-.73-1.15,0,0,.29-.29.29-.29h0Z"/>
  <path class="cls-6" d="M52.5,406.98c-.3-.3-.53-.69-.82-1s-.72-.51-1-.83-.52-.69-.79-1.02-.59-.64-.85-.98-.48-.72-.73-1.07-.39-.77-.64-1.13-.58-.65-.81-1.01-.52-.69-.74-1.06-.36-.79-.57-1.16-.45-.73-.65-1.12-.41-.76-.59-1.15-.29-.82-.46-1.21-.25-.83-.4-1.23-.33-.79-.47-1.2-.17-.84-.31-1.25-.52-.74-.64-1.15.04-.9-.07-1.32-.47-.77-.56-1.19-.21-.84-.29-1.26.04-.88-.03-1.3-.07-.85-.12-1.28-.21-.84-.25-1.27-.2-.85-.23-1.28.05-.86.04-1.29-.1-.86-.1-1.29.05-.86.06-1.29.19-.85.22-1.28-.14-.87-.1-1.3.08-.86.13-1.28.11-.86.17-1.28.19-.84.27-1.26.12-.85.21-1.27.33-.8.44-1.22.34-.79.46-1.21.01-.89.14-1.3.44-.76.58-1.16.23-.83.39-1.23.26-.82.43-1.22.32-.8.5-1.19.37-.78.57-1.16.55-.68.76-1.06.24-.85.46-1.22.47-.72.7-1.09.52-.69.76-1.04.58-.64.83-.99.36-.8.63-1.14.61-.61.89-.94.64-.58.92-.9.53-.67.83-.99.62-.59.92-.9.53-.69.84-.98.59-.63.92-.91.66-.55.99-.82.66-.56.99-.82.68-.52,1.03-.78.79-.38,1.14-.62.65-.58,1.01-.81.74-.44,1.11-.66.8-.34,1.17-.55.77-.39,1.15-.58.74-.45,1.12-.63.76-.41,1.15-.58.81-.3,1.2-.46.78-.37,1.18-.52.87-.11,1.28-.24.81-.26,1.23-.38.82-.24,1.24-.35.82-.26,1.24-.36.83-.22,1.25-.3.82-.31,1.24-.37.86-.11,1.28-.16.86-.06,1.29-.1.86-.04,1.29-.07.87.15,1.29.14.85-.14,1.28-.14.86-.01,1.29,0,.86-.02,1.29,0,.85.1,1.28.14.86.01,1.29.06.83.27,1.25.33.88-.06,1.31.02.8.39,1.22.49.89-.03,1.31.08.79.38,1.2.5.87.1,1.28.23.74.49,1.15.63.87.13,1.27.29.72.51,1.11.69.84.21,1.23.4.82.28,1.21.47.64.62,1.02.83.82.28,1.19.5.79.36,1.15.59.68.53,1.04.77.72.47,1.07.72.67.54,1.01.8.72.48,1.05.76.53.7.85.99.58.63.9.92.6.61.9.91.8.43,1.09.74.39.81.67,1.13.75.49,1.02.82.42.77.68,1.11.63.6.88.95.54.67.78,1.03.4.77.63,1.13.44.74.66,1.11.55.68.75,1.05.24.85.43,1.23.33.79.52,1.18.5.72.67,1.11.45.75.61,1.15.28.82.42,1.22.16.86.29,1.26.15.85.27,1.26.42.77.53,1.19.21.83.31,1.25-.05.89.03,1.31.32.81.39,1.24.04.86.09,1.29.09.85.13,1.28.05.85.08,1.28.18.85.19,1.28-.15.86-.15,1.29.13.86.12,1.29.11.87.08,1.29-.09.86-.13,1.28-.22.84-.27,1.27-.2.84-.26,1.26-.17.84-.25,1.26.05.89-.04,1.3-.38.79-.49,1.21-.06.87-.18,1.28-.18.84-.31,1.25-.31.81-.45,1.21-.23.84-.38,1.24-.33.8-.5,1.19-.59.68-.77,1.06-.28.82-.48,1.2-.26.84-.46,1.21-.45.74-.67,1.11-.47.72-.7,1.08-.51.69-.75,1.05-.47.72-.72,1.07-.56.65-.82.99-.42.77-.69,1.1-.72.51-1.01.84-.48.72-.77,1.04-.69.53-.99.83-.53.69-.84.98-.69.52-1.01.81-.57.65-.9.93-.64.58-.98.84-.8.37-1.14.62-.65.56-1.01.8-.76.4-1.13.63-.72.47-1.09.68-.77.37-1.15.58-.7.5-1.09.69-.73.46-1.12.64-.86.18-1.25.35-.75.43-1.15.59-.82.24-1.23.39-.82.24-1.23.37-.72.57-1.14.69-.84.21-1.25.31-.88.04-1.29.13-.81.33-1.23.41-.88-.05-1.3.02-.85.07-1.28.12-.84.21-1.26.25-.85.19-1.27.22-.86-.12-1.29-.1-.86.26-1.28.26-.86-.21-1.29-.22-.86.07-1.29.04-.85-.17-1.28-.21-.88.1-1.3.05-.83-.25-1.26-.32-.83-.22-1.25-.3-.89.06-1.31-.03-.82-.26-1.24-.36-.84-.18-1.26-.3-.76-.43-1.17-.57-.86-.13-1.26-.28-.83-.24-1.23-.4-.78-.37-1.17-.54-.78-.37-1.17-.55-.77-.38-1.15-.57-.75-.43-1.12-.63-.67-.54-1.04-.76-.85-.25-1.21-.49-.75-.42-1.11-.66-.65-.57-1-.82-.69-.51-1.03-.77-.69-.51-1.02-.79-.56-.67-.88-.95-.7-.5-1.02-.79-.65-.57-.95-.87Z"/>
  <path class="cls-5" d="M52.45,407.04c-.3-.3-.46-.76-.75-1.07s-.72-.51-1-.83-.43-.77-.7-1.1-.65-.58-.92-.92-.49-.71-.74-1.05-.36-.79-.6-1.15-.52-.68-.75-1.04-.38-.77-.6-1.14-.56-.67-.77-1.04-.38-.77-.57-1.15-.47-.73-.65-1.12-.46-.74-.63-1.13-.13-.88-.29-1.28-.44-.75-.58-1.16-.24-.83-.37-1.24-.22-.83-.34-1.24-.33-.8-.43-1.22-.12-.85-.22-1.27-.31-.81-.39-1.24.12-.89.05-1.32-.29-.82-.34-1.25-.24-.84-.28-1.27.09-.87.06-1.3.04-.86.02-1.29-.16-.86-.16-1.28.08-.86.1-1.29.09-.85.12-1.28,0-.86.04-1.29-.03-.87.02-1.29.1-.86.16-1.28.27-.83.35-1.25.22-.83.31-1.25,0-.88.11-1.3.34-.8.46-1.21.08-.87.21-1.28.5-.74.64-1.14.29-.8.45-1.2.33-.79.5-1.19.13-.88.32-1.27.42-.75.62-1.14.57-.67.78-1.04.25-.85.47-1.22.52-.69.75-1.05.6-.63.84-.99.41-.76.66-1.1.4-.77.66-1.11.62-.6.9-.93.57-.64.85-.96.61-.6.9-.92.63-.58.93-.88.45-.77.76-1.06.6-.63.92-.91.69-.52,1.02-.79.65-.56.99-.83.71-.48,1.06-.74.77-.4,1.12-.64.69-.52,1.05-.74.75-.43,1.11-.64.77-.37,1.15-.58.71-.49,1.09-.69.81-.28,1.2-.47.72-.5,1.11-.67.74-.45,1.14-.61.81-.31,1.21-.45.81-.29,1.22-.42.82-.28,1.23-.4.88-.04,1.3-.15.85-.11,1.27-.21.81-.33,1.23-.41.85-.15,1.27-.21.83-.28,1.26-.33.87.05,1.3,0,.86.04,1.29.01.86-.02,1.28-.03.85-.04,1.28-.04.86-.21,1.29-.19.86.03,1.29.05.84.32,1.26.36.86-.04,1.29.02.87-.04,1.3.03.85.15,1.27.23.81.32,1.23.41.85.14,1.26.25.8.31,1.22.43.85.14,1.26.27.81.3,1.21.44.81.29,1.21.45.85.19,1.25.36.72.5,1.11.68.8.32,1.18.51.66.58,1.04.79.82.28,1.19.5.8.34,1.16.57.61.63.97.87.67.53,1.02.78.66.54,1,.8.84.32,1.18.59.54.69.86.97.65.55.97.85.73.48,1.03.79.61.61.9.93.46.75.74,1.07.66.57.94.89.51.69.78,1.03.62.61.88.96.23.89.47,1.24.72.55.95.91.4.77.62,1.13.36.79.57,1.16.37.77.57,1.15.45.74.63,1.12.46.74.63,1.13.25.83.41,1.23.19.85.33,1.25.36.78.49,1.19.32.8.43,1.21.16.85.27,1.26.26.82.35,1.24,0,.88.07,1.3.43.8.5,1.22,0,.87.05,1.3.09.85.13,1.28-.05.86-.02,1.29.19.85.2,1.28-.1.86-.1,1.29.04.86.03,1.29.16.87.13,1.3-.05.86-.09,1.29-.07.86-.12,1.29-.19.84-.26,1.27-.34.81-.42,1.23.02.88-.07,1.3-.11.86-.22,1.27-.26.82-.38,1.23-.45.76-.58,1.17-.22.83-.36,1.23-.13.87-.29,1.27-.5.72-.67,1.12-.39.76-.57,1.15-.26.82-.46,1.21-.52.69-.73,1.07-.17.89-.39,1.26-.66.6-.89.97-.27.85-.51,1.21-.72.54-.98.89-.45.73-.72,1.07-.47.72-.75,1.05-.48.72-.76,1.05-.65.57-.94.89-.51.7-.81,1.01-.76.45-1.08.74-.64.57-.96.86-.58.64-.91.92-.67.54-1.01.8-.75.43-1.1.68-.64.57-1,.82-.62.62-.98.85-.84.28-1.21.5-.72.47-1.1.67-.71.5-1.09.69-.83.26-1.22.44-.74.44-1.14.61-.78.36-1.18.51-.86.16-1.26.3-.74.5-1.14.63-.84.21-1.25.33-.83.24-1.24.34-.82.27-1.24.36-.84.19-1.26.27-.85.17-1.27.24-.88-.07-1.3-.01-.85.14-1.28.18-.85.23-1.27.25-.87-.26-1.3-.25-.85.14-1.28.14-.86.07-1.29.06-.86-.05-1.29-.07-.85-.12-1.28-.16-.86,0-1.29-.05-.86-.04-1.29-.11-.82-.29-1.24-.37-.87-.03-1.29-.12-.83-.22-1.25-.33-.85-.17-1.26-.29-.78-.4-1.19-.53-.85-.17-1.25-.32-.72-.51-1.12-.67-.85-.18-1.25-.35-.77-.38-1.16-.56-.78-.35-1.16-.55-.73-.45-1.11-.66-.75-.41-1.12-.63-.76-.4-1.13-.63-.67-.54-1.02-.78-.85-.29-1.19-.54-.5-.76-.84-1.02-.83-.34-1.16-.61-.57-.66-.89-.94-.64-.57-.96-.86-.75-.46-1.05-.77Z"/>
  <path class="cls-7" d="M91.51,347.24c1.75.46,3.4,1.35,5.06,2.03.9.17,1.56.98,2.39,1.27.61.17,1.27.74,1.8,1.09.8.82,1.62,1.52,2.64,2.11.45.26.73.76.97,1.06.55.6,2.21,2.37,2.79,3.01.25.32.61.59.94,1.02l.83,1.13c.29.51.33.97.53,1.22,1.06,1.09,1.67,2.84,2.37,4.23.12.21.22.49.27.71,0,0,.14.67.14.67.1.42.35.73.53,1.17.29.66.23,1.38.52,1.99.4.81.37,1.9.6,2.76.48,1.58.42,3.88.43,5.52.09,4.09-.51,8.49-2.23,12.18-.23.92-.63,1.86-1.07,2.69-.23.36-.88,1.44-1.15,1.76-.27.39-.24.63-.47,1.14-.16.33-.35.55-.52.74-.64.59-.95,1.38-1.74,2.16-1.27,1.34-2.46,2.73-3.91,3.88-.38.26-.55.55-.9.93-.48.46-.92.63-1.25.85-1.53.96-2.99,1.71-4.48,2.62-1.13.36-2,1.04-2.9,1.24-1.7.45-3.54,1.1-5.33,1.24-.45.02-.81.24-1.31.34-.49.08-.94-.01-1.39.02,0,0-.02-.16-.02-.16.46-.09.93-.05,1.33-.18.38-.11.82-.41,1.29-.48,1.83-.35,3.39-1.08,5.18-1.67.8-.25,1.57-.94,2.34-1.22.32-.11.8-.51,1.07-.72,1.18-.68,2.37-1.47,3.46-2.18.42-.29.83-.51.99-.7.23-.3.6-.79.96-1.06,1.35-1.17,2.51-2.62,3.73-3.91.53-.49.97-1.43,1.66-2.11.47-.46.46-1.22.9-1.72.39-.48.78-1.14,1.12-1.65.36-.66.78-1.6.99-2.36,1.79-3.63,2.48-7.67,2.47-11.7.01-1.57.14-3.83-.3-5.34-.23-.87-.11-1.73-.48-2.57-.39-.92-.2-1.7-.75-2.56-.34-.56-.29-1.41-.6-1.99-.47-1.01-.9-2.07-1.41-3.06-.15-.37-.46-.6-.78-1.06-.33-.5-.36-1.01-.54-1.28-.81-1.29-2.42-2.94-3.43-4.14,0,0-.92-1.05-.92-1.05-.3-.41-.47-.76-.82-.97-.79-.51-1.51-1.06-2.17-1.74-.25-.38-.65-.6-.98-.87-.24-.17-.77-.6-1.12-.68-.9-.32-1.4-1.12-2.36-1.34-1.69-.75-3.24-1.65-5-2.18,0,0,.05-.15.05-.15h0Z"/>
  <path class="cls-7" d="M58.68,400.81c-2-1.69-3.78-3.86-5.05-6.12-2.13-3.06-3.34-6.75-4.22-10.31-.42-1.48-.59-2.91-.75-4.42-.03-.66.07-1.38.02-2.02-.1-1.53,0-3.32.24-4.8-.02-.76.16-1.72.31-2.47.42-1.32.66-2.58,1.14-3.92.29-.67.58-.99.65-1.35.12-.77.68-1.64,1.07-2.28.11-.2.45-.88.56-1.08.37-.61.83-.9,1.07-1.57.92-1.59,2.36-3.12,3.74-4.34.4-.36.77-.74,1.16-1.1,0,0,.11.11.11.11-1.29,1.79-2.69,3.52-3.78,5.44-.15.38-.22.76-.48,1.17-.23.38-.46.61-.63.95-.09.22-.37.85-.46,1.07-.36.78-.71,1.12-.84,2.04-.16.69-.57,1.21-.67,1.53-.35,1.01-.49,1.96-.87,3.04-.28.66-.4,1.46-.53,2.11-.03.78-.21,1.65-.33,2.36-.16.9-.17,2.18-.18,3.1.03.76-.15,1.61-.07,2.33.44,4.95,1.73,9.87,4.24,14.13,1.19,2.36,2.77,4.48,4.69,6.29,0,0-.11.11-.11.11h0Z"/>
  <circle class="cls-2" cx="81.53" cy="377.96" r="5.17"/>
  <path class="cls-7" d="M72.39,401.23c1.4-1.41,2.72-2.96,4.12-4.36,1.02-.99,2.04-2.28,3.05-3.29,3.21-3.13,6.24-6.49,9.34-9.72.99-1.04,2.04-2.27,3.13-3.22.63-.77,1.41-1.43,2.09-2.12.99-1.01,1.87-2.16,2.99-3.03,1.14-.98,2.91-2.73,3.98-3.78,1.78-1.33,3.36-3.09,5.2-4.34,0,0,.11.11.11.11-.32.41-.7.72-1,1.11l-.96,1.15c-.8,1-1.6,1.89-2.51,2.77-.28.35-1.17,1.36-1.48,1.71-.68.71-1.37,1.51-2.08,2.23-.57.42-1.1.99-1.58,1.52-.82.91-1.73,1.9-2.68,2.65-.7.71-1.41,1.37-2.18,2.02-4.31,4.17-8.52,8.45-12.96,12.47-.96,1.13-2.19,2.04-3.2,3.12-.32.4-.73.75-1.12,1.04-.72.65-1.38,1.45-2.14,2.08,0,0-.11-.11-.11-.11h0Z"/>
  <path class="cls-7" d="M54.84,388.5c1.04-1.27,2.34-2.28,3.39-3.57,0,0,1.13-1.2,1.13-1.2,1.81-1.76,3.88-4.14,5.64-5.98.68-.73,1.6-1.64,2.31-2.32.93-.96,1.91-2.09,2.86-3.02,1.29-1.09,2.23-2.34,3.4-3.54.38-.34.8-.65,1.09-1.07.68-.89,1.54-1.61,2.36-2.4.88-.91,1.93-2.06,2.86-2.97,1.23-1.16,1.51-1.66,2.88-2.86.95-.94,2-2.05,3.1-2.85,2.07-1.69,3.91-3.8,6.13-5.38,0,0,.11.11.11.11-1.88,2.06-3.45,4.28-5.45,6.27-1.23,1.08-2.2,2.36-3.35,3.55-.32.3-.82.73-1.05,1.07-.69.9-1.64,1.66-2.38,2.42-.5.52-1.2,1.22-1.75,1.74-1.05.86-2.06,1.84-3,2.84-.66.48-1.22,1.07-1.79,1.65-.91,1.02-1.99,1.91-2.98,2.81-.67.7-1.65,1.63-2.34,2.33-1.92,1.71-4.05,3.9-5.9,5.7-1.54,1.49-3.21,2.98-4.76,4.56-.81.73-1.65,1.42-2.39,2.24,0,0-.11-.11-.11-.11h0Z"/>
  <path class="cls-7" d="M143.8,172.77c2.2-3.26,7.74-1.87,9.01,1.62,2.38,5.74-4.92,10.55-9.31,6.19-1.59-1.57-2.06-4.16-1.2-6.23.29-.65.65-1.44,1.54-1.54l-.05-.05h0ZM143.98,172.95c-.08.85-.52,1.18-.73,1.79-.24.58-.33,1.14-.31,1.79-.06,4.06,5.03,6.12,7.89,3.28,2.96-2.83.84-7.99-3.25-7.98-1.34-.1-2.41.71-3.59,1.12h0Z"/>
  <g>
    <path class="cls-8" d="M280.11,441.16c0-.83.39-.83.39-1.65s-.05-.83-.05-1.65c0-.49.15-.87.33-1.3s.2-.97.54-1.3.85-.38,1.29-.57.82-.59,1.31-.59c.73,0,.73.01,1.46.01s.73.06,1.46.06.73.05,1.46.05.73.05,1.46.05.73-.04,1.46-.04.73-.16,1.46-.16.73.17,1.46.17.73-.08,1.46-.08.73.31,1.46.31.73-.34,1.46-.34.73.16,1.46.16.73-.26,1.46-.26.73.25,1.46.25.73-.28,1.46-.28.73.01,1.46.01.73.43,1.46.43.73-.2,1.46-.2.73-.18,1.46-.18.73.01,1.46.01.73.29,1.46.29.73-.05,1.46-.05.73,0,1.46,0,.73-.04,1.46-.04.73-.18,1.46-.18.73.3,1.46.3.73-.3,1.46-.3.73-.03,1.46-.03.73.06,1.46.06.73.21,1.46.21.73.11,1.46.11.73-.22,1.46-.22.73-.18,1.46-.18.73-.02,1.46-.02.73.36,1.46.36.73-.23,1.46-.23.73-.08,1.46-.08.73.29,1.46.29.73-.2,1.46-.2.73.12,1.46.12.73-.2,1.46-.2.73.01,1.46.01.73.13,1.46.13.73-.1,1.46-.1.73.3,1.45.3.73-.01,1.46-.01.73-.23,1.46-.23.73.19,1.46.19.73-.21,1.46-.21.73-.02,1.46-.02.73.19,1.46.19.73-.04,1.46-.04.73.01,1.46.01.73-.08,1.46-.08.73-.2,1.46-.2.73.06,1.46.06.73.2,1.46.2.73.11,1.46.11.73-.05,1.46-.05.73.02,1.46.02.73-.05,1.46-.05.73.13,1.46.13.73-.02,1.46-.02.73-.24,1.46-.24.73.08,1.46.08.73.08,1.46.08.73-.2,1.46-.2.73-.07,1.46-.07.73,0,1.46,0,.73.34,1.46.34.73-.28,1.46-.28.73.12,1.46.12.73-.25,1.46-.25.73.31,1.47.31.73-.2,1.46-.2.73.2,1.47.2.73-.16,1.47-.16.73.04,1.47.04c.49,0,1,.04,1.43.22s.89.46,1.22.79.7.74.88,1.19.09.97.09,1.46c0,.83-.04.83-.04,1.65s.13.83.13,1.65c0,.49-.31.91-.49,1.33s-.17,1.04-.51,1.38-.86.49-1.31.68-.91.39-1.4.39c-.73,0-.73-.12-1.46-.12s-.73-.04-1.46-.04-.73.18-1.46.18-.73-.3-1.46-.3-.73.05-1.46.05-.73-.14-1.46-.14-.73.2-1.46.2-.73.21-1.46.21-.73-.15-1.46-.15-.73-.11-1.46-.11-.73.08-1.46.08-.73-.12-1.46-.12-.73.1-1.46.1-.73.08-1.46.08-.73.03-1.46.03-.73-.34-1.46-.34-.73.07-1.46.07-.73.29-1.46.29-.73-.36-1.46-.36-.73.01-1.46.01-.73.33-1.46.33-.73-.16-1.46-.16-.73,0-1.46,0-.73-.11-1.46-.11-.73-.09-1.46-.09-.73.31-1.46.31-.73-.24-1.46-.24-.73.05-1.46.05-.73-.11-1.46-.11-.73.19-1.46.19-.73.2-1.46.2-.73-.25-1.46-.25-.73.22-1.46.22-.73.05-1.46.05-.73-.31-1.46-.31-.73.1-1.46.1-.73.05-1.46.05-.73.08-1.46.08-.73-.07-1.46-.07-.73-.27-1.46-.27-.73.26-1.46.26-.73-.12-1.46-.12-.73.05-1.46.05-.73.25-1.45.25-.73-.28-1.46-.28-.73-.08-1.46-.08-.73,0-1.46,0-.73.19-1.46.19-.73-.1-1.46-.1-.73.07-1.46.07-.73-.2-1.46-.2-.73.04-1.46.04-.73.29-1.46.29-.73.05-1.46.05-.73-.28-1.46-.28-.73.32-1.46.32-.73-.02-1.46-.02-.73-.32-1.46-.32-.73.2-1.46.2-.73-.26-1.46-.26-.73.15-1.46.15-.73.04-1.46.04-.73.14-1.46.14-.73-.34-1.46-.34-.73.08-1.46.08-.73-.02-1.46-.02-.73-.08-1.46-.08-.73.34-1.46.34-.73.08-1.46.08-.73-.4-1.46-.4-.73.04-1.46.04-.73.01-1.46.01-.73-.1-1.47-.1-.73,0-1.46,0-.73.36-1.47.36-.73.01-1.47.01-.73.08-1.47.08c-.49,0-.94-.37-1.37-.55s-.97-.31-1.3-.64-.4-.88-.58-1.33-.55-.86-.55-1.35Z"/>
    <path class="cls-3" d="M280.11,441.16c0-.83.39-.83.39-1.65s-.05-.83-.05-1.65c0-.49.15-.87.33-1.3s.2-.97.54-1.3.85-.38,1.29-.57.82-.59,1.31-.59c.73,0,.73.01,1.46.01s.73.06,1.46.06.73.05,1.46.05.73.05,1.46.05.73-.04,1.46-.04.73-.16,1.46-.16.73.17,1.46.17.73-.08,1.46-.08.73.31,1.46.31.73-.34,1.46-.34.73.16,1.46.16.73-.26,1.46-.26.73.25,1.46.25.73-.28,1.46-.28.73.01,1.46.01.73.43,1.46.43.73-.2,1.46-.2.73-.18,1.46-.18.73.01,1.46.01.73.29,1.46.29.73-.05,1.46-.05.73,0,1.46,0,.73-.04,1.46-.04.73-.18,1.46-.18.73.3,1.46.3.73-.3,1.46-.3.73-.03,1.46-.03.73.06,1.46.06.73.21,1.46.21.73.11,1.46.11.73-.22,1.46-.22.73-.18,1.46-.18.73-.02,1.46-.02.73.36,1.46.36.73-.23,1.46-.23.73-.08,1.46-.08.73.29,1.46.29.73-.2,1.46-.2.73.12,1.46.12.73-.2,1.46-.2.73.01,1.46.01.73.13,1.46.13.73-.1,1.46-.1.73.3,1.45.3.73-.01,1.46-.01.73-.23,1.46-.23.73.19,1.46.19.73-.21,1.46-.21.73-.02,1.46-.02.73.19,1.46.19.73-.04,1.46-.04.73.01,1.46.01.73-.08,1.46-.08.73-.2,1.46-.2.73.06,1.46.06.73.2,1.46.2.73.11,1.46.11.73-.05,1.46-.05.73.02,1.46.02.73-.05,1.46-.05.73.13,1.46.13.73-.02,1.46-.02.73-.24,1.46-.24.73.08,1.46.08.73.08,1.46.08.73-.2,1.46-.2.73-.07,1.46-.07.73,0,1.46,0,.73.34,1.46.34.73-.28,1.46-.28.73.12,1.46.12.73-.25,1.46-.25.73.31,1.47.31.73-.2,1.46-.2.73.2,1.47.2.73-.16,1.47-.16.73.04,1.47.04c.49,0,1,.04,1.43.22s.89.46,1.22.79.7.74.88,1.19.09.97.09,1.46c0,.83-.04.83-.04,1.65s.13.83.13,1.65c0,.49-.31.91-.49,1.33s-.17,1.04-.51,1.38-.86.49-1.31.68-.91.39-1.4.39c-.73,0-.73-.12-1.46-.12s-.73-.04-1.46-.04-.73.18-1.46.18-.73-.3-1.46-.3-.73.05-1.46.05-.73-.14-1.46-.14-.73.2-1.46.2-.73.21-1.46.21-.73-.15-1.46-.15-.73-.11-1.46-.11-.73.08-1.46.08-.73-.12-1.46-.12-.73.1-1.46.1-.73.08-1.46.08-.73.03-1.46.03-.73-.34-1.46-.34-.73.07-1.46.07-.73.29-1.46.29-.73-.36-1.46-.36-.73.01-1.46.01-.73.33-1.46.33-.73-.16-1.46-.16-.73,0-1.46,0-.73-.11-1.46-.11-.73-.09-1.46-.09-.73.31-1.46.31-.73-.24-1.46-.24-.73.05-1.46.05-.73-.11-1.46-.11-.73.19-1.46.19-.73.2-1.46.2-.73-.25-1.46-.25-.73.22-1.46.22-.73.05-1.46.05-.73-.31-1.46-.31-.73.1-1.46.1-.73.05-1.46.05-.73.08-1.46.08-.73-.07-1.46-.07-.73-.27-1.46-.27-.73.26-1.46.26-.73-.12-1.46-.12-.73.05-1.46.05-.73.25-1.45.25-.73-.28-1.46-.28-.73-.08-1.46-.08-.73,0-1.46,0-.73.19-1.46.19-.73-.1-1.46-.1-.73.07-1.46.07-.73-.2-1.46-.2-.73.04-1.46.04-.73.29-1.46.29-.73.05-1.46.05-.73-.28-1.46-.28-.73.32-1.46.32-.73-.02-1.46-.02-.73-.32-1.46-.32-.73.2-1.46.2-.73-.26-1.46-.26-.73.15-1.46.15-.73.04-1.46.04-.73.14-1.46.14-.73-.34-1.46-.34-.73.08-1.46.08-.73-.02-1.46-.02-.73-.08-1.46-.08-.73.34-1.46.34-.73.08-1.46.08-.73-.4-1.46-.4-.73.04-1.46.04-.73.01-1.46.01-.73-.1-1.47-.1-.73,0-1.46,0-.73.36-1.47.36-.73.01-1.47.01-.73.08-1.47.08c-.49,0-.94-.37-1.37-.55s-.97-.31-1.3-.64-.4-.88-.58-1.33-.55-.86-.55-1.35Z"/>
  </g>
  <g>
    <path class="cls-6" d="M291.85,460.12s0,0,0,0c-.49,0-.98.02-1.43-.1s-.89-.38-1.29-.61-.77-.55-1.1-.89-.72-.65-.96-1.06-.29-.91-.41-1.37-.32-.91-.32-1.39c0-.74.14-.74.14-1.48s-.08-.74-.08-1.48-.06-.74-.06-1.48.07-.74.07-1.48-.03-.74-.03-1.48-.05-.74-.05-1.48.04-.74.04-1.48.03-.74.03-1.49.03-.74.03-1.48-.07-.74-.07-1.49-.02-.74-.02-1.48.07-.74.07-1.49.04-.74.04-1.48-.07-.74-.07-1.48-.04-.74-.04-1.49.02-.74.02-1.48.03-.74.03-1.49.09-.74.09-1.49-.04-.74-.04-1.49-.09-.74-.09-1.49.04-.75.04-1.49.1-.75.1-1.49c0-.49.05-.94.17-1.39s.29-.9.53-1.3.52-.79.85-1.12.68-.66,1.09-.9.86-.37,1.33-.49.91-.24,1.4-.24c0,0,0,.08,0,.08.49,0,.94.05,1.4.17s.92.24,1.33.48.79.53,1.13.87.58.74.82,1.16.54.8.67,1.27.12.94.12,1.43c0,.74,0,.74,0,1.48s.07.74.07,1.48-.06.74-.06,1.48-.02.74-.02,1.48-.05.74-.05,1.48.13.74.13,1.48-.14.74-.14,1.48.06.74.06,1.49-.05.74-.05,1.48.06.74.06,1.49.03.74.03,1.48,0,.74,0,1.49-.09.74-.09,1.48.07.74.07,1.48-.01.74-.01,1.49.04.74.04,1.48-.11.74-.11,1.49,0,.74,0,1.49.03.74.03,1.49,0,.74,0,1.49-.03.75-.03,1.49.13.75.13,1.49c0,.49-.04.98-.16,1.43s-.4.88-.63,1.29-.51.81-.85,1.15-.73.61-1.15.85-.85.43-1.31.55-.92.17-1.41.17Z"/>
    <path class="cls-3" d="M291.85,460.12s0,0,0,0c-.49,0-.98.02-1.43-.1s-.89-.38-1.29-.61-.77-.55-1.1-.89-.72-.65-.96-1.06-.29-.91-.41-1.37-.32-.91-.32-1.39c0-.74.14-.74.14-1.48s-.08-.74-.08-1.48-.06-.74-.06-1.48.07-.74.07-1.48-.03-.74-.03-1.48-.05-.74-.05-1.48.04-.74.04-1.48.03-.74.03-1.49.03-.74.03-1.48-.07-.74-.07-1.49-.02-.74-.02-1.48.07-.74.07-1.49.04-.74.04-1.48-.07-.74-.07-1.48-.04-.74-.04-1.49.02-.74.02-1.48.03-.74.03-1.49.09-.74.09-1.49-.04-.74-.04-1.49-.09-.74-.09-1.49.04-.75.04-1.49.1-.75.1-1.49c0-.49.05-.94.17-1.39s.29-.9.53-1.3.52-.79.85-1.12.68-.66,1.09-.9.86-.37,1.33-.49.91-.24,1.4-.24c0,0,0,.08,0,.08.49,0,.94.05,1.4.17s.92.24,1.33.48.79.53,1.13.87.58.74.82,1.16.54.8.67,1.27.12.94.12,1.43c0,.74,0,.74,0,1.48s.07.74.07,1.48-.06.74-.06,1.48-.02.74-.02,1.48-.05.74-.05,1.48.13.74.13,1.48-.14.74-.14,1.48.06.74.06,1.49-.05.74-.05,1.48.06.74.06,1.49.03.74.03,1.48,0,.74,0,1.49-.09.74-.09,1.48.07.74.07,1.48-.01.74-.01,1.49.04.74.04,1.48-.11.74-.11,1.49,0,.74,0,1.49.03.74.03,1.49,0,.74,0,1.49-.03.75-.03,1.49.13.75.13,1.49c0,.49-.04.98-.16,1.43s-.4.88-.63,1.29-.51.81-.85,1.15-.73.61-1.15.85-.85.43-1.31.55-.92.17-1.41.17Z"/>
  </g>
  <g>
    <path class="cls-6" d="M389.86,460.1s0-.02,0-.02c-.49,0-.97,0-1.42-.11s-.93-.28-1.34-.51-.71-.63-1.05-.97-.62-.7-.86-1.11-.41-.83-.54-1.3-.27-.91-.27-1.39c0-.74-.07-.74-.07-1.48s.02-.74.02-1.48.08-.74.08-1.48.05-.74.05-1.48-.11-.74-.11-1.48.11-.74.11-1.48-.11-.74-.11-1.48.05-.74.05-1.49.05-.74.05-1.48-.08-.74-.08-1.49.02-.74.02-1.48.02-.74.02-1.49-.03-.74-.03-1.48-.02-.74-.02-1.48.11-.74.11-1.49-.08-.74-.08-1.48-.07-.74-.07-1.49.12-.74.12-1.49.02-.74.02-1.49-.15-.74-.15-1.49.01-.75.01-1.49,0-.75,0-1.49c0-.49.15-.95.27-1.41s.29-.91.53-1.32.52-.8.85-1.14.71-.64,1.13-.88.85-.42,1.32-.55.93-.18,1.42-.18c0,0,0,.03,0,.03.49,0,.98-.01,1.43.11s.88.39,1.28.63.8.51,1.14.84.58.74.81,1.16.52.8.64,1.27.22.93.22,1.42c0,.74-.01.74-.01,1.48s-.1.74-.1,1.48.09.74.09,1.48-.07.74-.07,1.48.07.74.07,1.48.02.74.02,1.48-.1.74-.1,1.48.03.74.03,1.49,0,.74,0,1.48-.05.74-.05,1.49-.02.74-.02,1.48.1.74.1,1.49-.08.74-.08,1.48.13.74.13,1.48-.02.74-.02,1.49-.02.74-.02,1.48.02.74.02,1.49-.04.74-.04,1.49-.03.74-.03,1.49,0,.74,0,1.49.07.75.07,1.49-.03.75-.03,1.49c0,.49-.18.94-.3,1.39s-.22.94-.45,1.35-.5.83-.84,1.17-.78.55-1.19.79-.81.52-1.28.65-.94.07-1.43.07Z"/>
    <path class="cls-3" d="M389.86,460.1s0-.02,0-.02c-.49,0-.97,0-1.42-.11s-.93-.28-1.34-.51-.71-.63-1.05-.97-.62-.7-.86-1.11-.41-.83-.54-1.3-.27-.91-.27-1.39c0-.74-.07-.74-.07-1.48s.02-.74.02-1.48.08-.74.08-1.48.05-.74.05-1.48-.11-.74-.11-1.48.11-.74.11-1.48-.11-.74-.11-1.48.05-.74.05-1.49.05-.74.05-1.48-.08-.74-.08-1.49.02-.74.02-1.48.02-.74.02-1.49-.03-.74-.03-1.48-.02-.74-.02-1.48.11-.74.11-1.49-.08-.74-.08-1.48-.07-.74-.07-1.49.12-.74.12-1.49.02-.74.02-1.49-.15-.74-.15-1.49.01-.75.01-1.49,0-.75,0-1.49c0-.49.15-.95.27-1.41s.29-.91.53-1.32.52-.8.85-1.14.71-.64,1.13-.88.85-.42,1.32-.55.93-.18,1.42-.18c0,0,0,.03,0,.03.49,0,.98-.01,1.43.11s.88.39,1.28.63.8.51,1.14.84.58.74.81,1.16.52.8.64,1.27.22.93.22,1.42c0,.74-.01.74-.01,1.48s-.1.74-.1,1.48.09.74.09,1.48-.07.74-.07,1.48.07.74.07,1.48.02.74.02,1.48-.1.74-.1,1.48.03.74.03,1.49,0,.74,0,1.48-.05.74-.05,1.49-.02.74-.02,1.48.1.74.1,1.49-.08.74-.08,1.48.13.74.13,1.48-.02.74-.02,1.49-.02.74-.02,1.48.02.74.02,1.49-.04.74-.04,1.49-.03.74-.03,1.49,0,.74,0,1.49.07.75.07,1.49-.03.75-.03,1.49c0,.49-.18.94-.3,1.39s-.22.94-.45,1.35-.5.83-.84,1.17-.78.55-1.19.79-.81.52-1.28.65-.94.07-1.43.07Z"/>
  </g>
  <g>
    <path class="cls-6" d="M302.76,469.71s0-.08,0-.08c-.49,0-.96.03-1.41-.09s-.91-.29-1.32-.53-.8-.52-1.14-.85-.59-.74-.83-1.16-.51-.81-.64-1.28-.24-.94-.24-1.43c0-.73.2-.73.2-1.47s-.12-.73-.12-1.47-.05-.73-.05-1.46.17-.73.17-1.46-.08-.73-.08-1.46.12-.73.12-1.47-.06-.73-.06-1.47-.03-.73-.03-1.47,0-.73,0-1.47.09-.73.09-1.46-.08-.73-.08-1.47.06-.73.06-1.47-.15-.73-.15-1.47-.05-.74-.05-1.47.13-.73.13-1.47-.15-.73-.15-1.47.12-.73.12-1.47.12-.74.12-1.47.01-.73.01-1.47-.17-.73-.17-1.47.15-.73.15-1.47-.19-.74-.19-1.47.1-.73.1-1.47-.13-.74-.13-1.47.04-.74.04-1.47.21-.74.21-1.47-.02-.73-.02-1.47.02-.73.02-1.47-.23-.74-.23-1.47.2-.74.2-1.47.02-.74.02-1.47,0-.74,0-1.47-.13-.74-.13-1.47.01-.74.01-1.48-.08-.74-.08-1.48.12-.74.12-1.48c0-.49.15-.93.27-1.38s.21-.93.44-1.34.57-.75.91-1.08.64-.71,1.06-.95.89-.29,1.36-.41.9-.28,1.38-.28c0,0,0,.04,0,.04.49,0,.99-.09,1.44.03s.82.52,1.23.75.84.45,1.17.78.54.76.78,1.18.5.8.62,1.26.2.92.2,1.4c0,.73-.03.73-.03,1.47s.03.73.03,1.47-.09.73-.09,1.46.21.73.21,1.46-.05.73-.05,1.46.05.73.05,1.47-.12.73-.12,1.47,0,.73,0,1.47-.07.73-.07,1.47,0,.73,0,1.46.13.73.13,1.47-.08.73-.08,1.47-.01.73-.01,1.47-.1.74-.1,1.47.14.73.14,1.47-.14.73-.14,1.47.15.73.15,1.47.07.74.07,1.47-.04.73-.04,1.47,0,.73,0,1.47-.06.73-.06,1.47.09.74.09,1.47.01.73.01,1.47-.06.74-.06,1.47-.09.74-.09,1.47-.06.74-.06,1.47,0,.73,0,1.47,0,.73,0,1.47.18.74.18,1.47-.12.74-.12,1.47.13.74.13,1.47-.06.74-.06,1.47.02.74.02,1.47.01.74.01,1.48-.12.74-.12,1.48-.04.74-.04,1.48c0,.49-.03.94-.15,1.39s-.3.89-.54,1.29-.48.82-.81,1.15-.65.73-1.06.97-.87.45-1.33.58-.95.03-1.44.03Z"/>
    <path class="cls-3" d="M302.76,469.71s0-.08,0-.08c-.49,0-.96.03-1.41-.09s-.91-.29-1.32-.53-.8-.52-1.14-.85-.59-.74-.83-1.16-.51-.81-.64-1.28-.24-.94-.24-1.43c0-.73.2-.73.2-1.47s-.12-.73-.12-1.47-.05-.73-.05-1.46.17-.73.17-1.46-.08-.73-.08-1.46.12-.73.12-1.47-.06-.73-.06-1.47-.03-.73-.03-1.47,0-.73,0-1.47.09-.73.09-1.46-.08-.73-.08-1.47.06-.73.06-1.47-.15-.73-.15-1.47-.05-.74-.05-1.47.13-.73.13-1.47-.15-.73-.15-1.47.12-.73.12-1.47.12-.74.12-1.47.01-.73.01-1.47-.17-.73-.17-1.47.15-.73.15-1.47-.19-.74-.19-1.47.1-.73.1-1.47-.13-.74-.13-1.47.04-.74.04-1.47.21-.74.21-1.47-.02-.73-.02-1.47.02-.73.02-1.47-.23-.74-.23-1.47.2-.74.2-1.47.02-.74.02-1.47,0-.74,0-1.47-.13-.74-.13-1.47.01-.74.01-1.48-.08-.74-.08-1.48.12-.74.12-1.48c0-.49.15-.93.27-1.38s.21-.93.44-1.34.57-.75.91-1.08.64-.71,1.06-.95.89-.29,1.36-.41.9-.28,1.38-.28c0,0,0,.04,0,.04.49,0,.99-.09,1.44.03s.82.52,1.23.75.84.45,1.17.78.54.76.78,1.18.5.8.62,1.26.2.92.2,1.4c0,.73-.03.73-.03,1.47s.03.73.03,1.47-.09.73-.09,1.46.21.73.21,1.46-.05.73-.05,1.46.05.73.05,1.47-.12.73-.12,1.47,0,.73,0,1.47-.07.73-.07,1.47,0,.73,0,1.46.13.73.13,1.47-.08.73-.08,1.47-.01.73-.01,1.47-.1.74-.1,1.47.14.73.14,1.47-.14.73-.14,1.47.15.73.15,1.47.07.74.07,1.47-.04.73-.04,1.47,0,.73,0,1.47-.06.73-.06,1.47.09.74.09,1.47.01.73.01,1.47-.06.74-.06,1.47-.09.74-.09,1.47-.06.74-.06,1.47,0,.73,0,1.47,0,.73,0,1.47.18.74.18,1.47-.12.74-.12,1.47.13.74.13,1.47-.06.74-.06,1.47.02.74.02,1.47.01.74.01,1.48-.12.74-.12,1.48-.04.74-.04,1.48c0,.49-.03.94-.15,1.39s-.3.89-.54,1.29-.48.82-.81,1.15-.65.73-1.06.97-.87.45-1.33.58-.95.03-1.44.03Z"/>
  </g>
  <g>
    <path class="cls-6" d="M380.1,469.74s0-.06,0-.06c-.49,0-.99.11-1.44-.01s-.89-.4-1.29-.63-.79-.54-1.13-.87-.53-.77-.77-1.19-.46-.81-.59-1.27-.34-.91-.34-1.4c0-.73.1-.73.1-1.47s-.1-.73-.1-1.47.08-.73.08-1.46.1-.73.1-1.46-.08-.73-.08-1.46-.05-.73-.05-1.47.05-.73.05-1.47-.03-.73-.03-1.47,0-.73,0-1.47.06-.73.06-1.46.05-.73.05-1.47-.15-.73-.15-1.47-.05-.73-.05-1.47.05-.74.05-1.47.08-.73.08-1.47-.03-.73-.03-1.47.04-.73.04-1.47-.01-.74-.01-1.47-.07-.73-.07-1.47.1-.73.1-1.47-.17-.73-.17-1.47.1-.74.1-1.47-.02-.73-.02-1.47.07-.74.07-1.47-.16-.74-.16-1.47,0-.74,0-1.47.2-.73.2-1.47.01-.73.01-1.47.02-.74.02-1.47-.12-.74-.12-1.47-.09-.74-.09-1.47.19-.74.19-1.47-.14-.74-.14-1.47.14-.74.14-1.48-.05-.74-.05-1.48-.15-.74-.15-1.48c0-.49.23-.95.35-1.4s.26-.92.49-1.32.6-.72.94-1.06.62-.73,1.03-.97.83-.51,1.3-.63.95-.02,1.44-.02c0,0,0-.11,0-.11.49,0,.98.04,1.43.16s.94.29,1.35.53.68.68,1.02,1.02.69.66.93,1.07.33.88.45,1.34.31.9.31,1.39c0,.73.06.73.06,1.47s-.17.73-.17,1.47.04.73.04,1.46,0,.73,0,1.46.03.73.03,1.46-.03.73-.03,1.47-.08.73-.08,1.47-.01.73-.01,1.47.13.73.13,1.47-.09.73-.09,1.46.08.73.08,1.47-.05.73-.05,1.47.03.73.03,1.47.09.74.09,1.47.02.73.02,1.47-.16.73-.16,1.47.18.73.18,1.47-.23.74-.23,1.47.15.73.15,1.47-.06.73-.06,1.47-.09.73-.09,1.47.2.74.2,1.47-.21.73-.21,1.47.2.74.2,1.47-.06.74-.06,1.47.09.74.09,1.47-.19.73-.19,1.47.11.73.11,1.47-.02.74-.02,1.47.05.74.05,1.47-.19.74-.19,1.47.01.74.01,1.47.1.74.1,1.47-.03.74-.03,1.48.09.74.09,1.48.03.74.03,1.48c0,.49-.19.95-.31,1.4s-.32.89-.56,1.3-.42.88-.75,1.22-.82.48-1.24.72-.81.48-1.27.6-.92.2-1.4.2Z"/>
    <path class="cls-3" d="M380.1,469.74s0-.06,0-.06c-.49,0-.99.11-1.44-.01s-.89-.4-1.29-.63-.79-.54-1.13-.87-.53-.77-.77-1.19-.46-.81-.59-1.27-.34-.91-.34-1.4c0-.73.1-.73.1-1.47s-.1-.73-.1-1.47.08-.73.08-1.46.1-.73.1-1.46-.08-.73-.08-1.46-.05-.73-.05-1.47.05-.73.05-1.47-.03-.73-.03-1.47,0-.73,0-1.47.06-.73.06-1.46.05-.73.05-1.47-.15-.73-.15-1.47-.05-.73-.05-1.47.05-.74.05-1.47.08-.73.08-1.47-.03-.73-.03-1.47.04-.73.04-1.47-.01-.74-.01-1.47-.07-.73-.07-1.47.1-.73.1-1.47-.17-.73-.17-1.47.1-.74.1-1.47-.02-.73-.02-1.47.07-.74.07-1.47-.16-.74-.16-1.47,0-.74,0-1.47.2-.73.2-1.47.01-.73.01-1.47.02-.74.02-1.47-.12-.74-.12-1.47-.09-.74-.09-1.47.19-.74.19-1.47-.14-.74-.14-1.47.14-.74.14-1.48-.05-.74-.05-1.48-.15-.74-.15-1.48c0-.49.23-.95.35-1.4s.26-.92.49-1.32.6-.72.94-1.06.62-.73,1.03-.97.83-.51,1.3-.63.95-.02,1.44-.02c0,0,0-.11,0-.11.49,0,.98.04,1.43.16s.94.29,1.35.53.68.68,1.02,1.02.69.66.93,1.07.33.88.45,1.34.31.9.31,1.39c0,.73.06.73.06,1.47s-.17.73-.17,1.47.04.73.04,1.46,0,.73,0,1.46.03.73.03,1.46-.03.73-.03,1.47-.08.73-.08,1.47-.01.73-.01,1.47.13.73.13,1.47-.09.73-.09,1.46.08.73.08,1.47-.05.73-.05,1.47.03.73.03,1.47.09.74.09,1.47.02.73.02,1.47-.16.73-.16,1.47.18.73.18,1.47-.23.74-.23,1.47.15.73.15,1.47-.06.73-.06,1.47-.09.73-.09,1.47.2.74.2,1.47-.21.73-.21,1.47.2.74.2,1.47-.06.74-.06,1.47.09.74.09,1.47-.19.73-.19,1.47.11.73.11,1.47-.02.74-.02,1.47.05.74.05,1.47-.19.74-.19,1.47.01.74.01,1.47.1.74.1,1.47-.03.74-.03,1.48.09.74.09,1.48.03.74.03,1.48c0,.49-.19.95-.31,1.4s-.32.89-.56,1.3-.42.88-.75,1.22-.82.48-1.24.72-.81.48-1.27.6-.92.2-1.4.2Z"/>
  </g>
</svg>