<svg width="320" height="320" viewBox="0 0 320 320" fill="none" xmlns="http://www.w3.org/2000/svg">
<path d="M183.883 89.453V56.3628H134.013V90.883C117.519 97.2438 103.804 109.232 95.2952 124.727C86.786 140.223 84.0296 158.228 87.5134 175.559C90.9972 192.891 100.497 208.433 114.333 219.437C128.169 230.441 145.45 236.198 163.121 235.691C180.792 235.185 197.714 228.446 210.897 216.668C224.08 204.889 232.673 188.828 235.158 171.326C237.643 153.823 233.859 136.006 224.476 121.023C215.093 106.041 200.714 94.8582 183.883 89.453Z" fill="#181C56"/>
<path d="M161.79 238.915C160.762 238.897 159.738 238.771 158.736 238.541C158.402 238.474 157.986 238.39 157.812 238.381L157.352 238.357C156.238 238.303 155.088 238.246 153.892 238.126C153.757 238.13 153.445 238.167 153.213 238.196C152.079 238.371 150.926 238.385 149.788 238.236C148.638 238.033 147.525 237.663 146.482 237.136C146.33 237.066 146.139 236.977 146.001 236.918C145.864 236.922 145.679 236.934 145.531 236.942C144.313 237.061 143.084 236.978 141.893 236.696C140.987 236.445 140.099 236.131 139.235 235.758C138.815 235.586 138.418 235.423 138.106 235.324C137.216 235.027 136.348 234.669 135.508 234.253C135.099 234.06 134.713 233.878 134.406 233.763C133.548 233.427 132.711 233.038 131.9 232.599C131.496 232.39 131.114 232.192 130.791 232.05C130.445 231.899 130.039 231.747 129.61 231.586C128.754 231.279 127.915 230.926 127.096 230.53C126.805 230.384 126.408 230.226 125.989 230.059C125.11 229.729 124.257 229.336 123.434 228.886C123.11 228.702 122.783 228.523 122.455 228.344C121.647 227.901 120.811 227.444 119.949 226.894C119.023 226.276 118.182 225.541 117.447 224.705C117.276 224.522 117.044 224.274 116.937 224.181C116.806 224.1 116.47 223.942 116.221 223.825C115.233 223.394 114.3 222.846 113.443 222.193C113.15 221.961 112.793 221.708 112.415 221.44C111.659 220.922 110.931 220.363 110.236 219.766C109.519 219.111 108.857 218.398 108.256 217.635C107.979 217.298 107.717 216.98 107.521 216.788C107.251 216.523 106.926 216.235 106.581 215.93C105.887 215.334 105.224 214.701 104.596 214.035C103.909 213.26 103.307 212.414 102.799 211.512C102.645 211.241 102.478 210.978 102.298 210.724C102.072 210.451 101.775 210.138 101.461 209.806C100.816 209.148 100.211 208.45 99.6511 207.717C99.4275 207.416 99.1509 207.081 98.8579 206.727C98.2626 206.03 97.7052 205.301 97.1882 204.544C97.0093 204.274 96.7431 203.938 96.4615 203.583C95.8603 202.854 95.3114 202.083 94.8188 201.277C94.3566 200.468 93.9459 199.631 93.5892 198.771C93.4054 198.349 93.2317 197.95 93.0699 197.64C92.8775 197.271 92.671 196.906 92.4651 196.541C92.0555 195.816 91.5913 194.993 91.177 194.084C90.7716 193.148 90.461 192.175 90.2496 191.178C90.1799 190.854 90.0938 190.534 89.9917 190.219C89.9375 190.085 89.7215 189.725 89.5641 189.462C88.9905 188.565 88.5218 187.605 88.1673 186.6C87.8072 185.424 87.646 184.196 87.6902 182.966C87.6898 182.782 87.6894 182.54 87.6823 182.407C87.6041 182.124 87.5234 181.841 87.4431 181.559C87.184 180.649 86.9159 179.708 86.6925 178.673C86.6281 178.375 86.5033 177.977 86.3714 177.555C86.0688 176.651 85.8337 175.725 85.668 174.786C85.4423 173.381 85.2668 172.079 85.132 170.807C85.0463 169.849 85.0381 168.886 85.1073 167.926C85.1296 167.488 85.1506 167.076 85.1354 166.789C85.126 166.648 85.0359 166.243 84.9701 165.947C84.711 164.916 84.5694 163.859 84.5479 162.796C84.5641 161.82 84.6615 160.847 84.8392 159.887C84.9085 159.462 84.9738 159.061 84.9877 158.795C85.0021 158.526 84.9779 158.117 84.9525 157.684C84.8741 156.713 84.878 155.737 84.9642 154.766C85.0728 153.851 85.2293 152.942 85.433 152.043C85.5272 151.597 85.6162 151.176 85.6755 150.806C85.7346 150.437 85.7797 150.004 85.8275 149.545C85.9084 148.629 86.0404 147.718 86.2227 146.817C86.4762 145.753 86.8599 144.724 87.3652 143.753C87.4872 143.501 87.6545 143.156 87.695 143.029C87.7327 142.89 87.7782 142.475 87.8148 142.141C87.9001 141.099 88.0999 140.069 88.4105 139.071C88.7124 138.198 89.0642 137.343 89.464 136.51C89.6554 136.095 89.8361 135.703 89.9692 135.363C90.3562 134.377 90.7743 133.482 91.1789 132.618C91.3214 132.313 91.4641 132.008 91.6036 131.702C91.9941 130.872 92.4301 130.064 92.9095 129.283C93.1271 128.915 93.3334 128.567 93.4998 128.253C93.5433 128.125 93.6156 127.841 93.6697 127.629C93.9198 126.487 94.3377 125.387 94.9099 124.367C95.51 123.4 96.2404 122.521 97.0804 121.754C97.2541 121.585 97.4887 121.356 97.5756 121.253C97.7886 120.931 97.9939 120.606 98.1994 120.281C98.6509 119.568 99.1626 118.76 99.7613 117.954C100.355 117.155 100.973 116.456 101.519 115.838C101.794 115.527 102.07 115.216 102.336 114.894C103.195 113.857 104.06 112.905 104.876 112.017C104.942 111.902 105.048 111.695 105.129 111.537C105.653 110.414 106.362 109.387 107.224 108.497C107.905 107.85 108.63 107.25 109.394 106.703C109.76 106.43 110.105 106.172 110.352 105.954C110.667 105.676 110.973 105.386 111.28 105.095C111.881 104.527 112.562 103.882 113.341 103.265C114.137 102.656 114.988 102.123 115.885 101.674C116.192 101.52 116.49 101.351 116.78 101.166C117.532 100.645 118.314 100.167 119.122 99.7365C119.523 99.5139 119.903 99.3035 120.212 99.1067C120.335 99.0277 120.652 98.7432 120.884 98.5356C121.649 97.8108 122.492 97.1744 123.399 96.6384C123.665 96.4878 123.931 96.3343 124.199 96.18C125.056 95.6859 125.943 95.1748 126.913 94.6904C127.829 94.2529 128.786 93.9079 129.771 93.6605C130.091 93.579 130.407 93.4813 130.718 93.3677C131.556 93.0138 132.413 92.7056 133.285 92.4442C133.722 92.3061 134.135 92.1751 134.488 92.0424C134.727 91.9526 135.084 91.7691 135.462 91.5749C136.322 91.1081 137.221 90.7164 138.149 90.4043C138.441 90.3116 138.829 90.1477 139.24 89.9738C140.109 89.5864 141.005 89.2636 141.922 89.0079C142.954 88.7605 144.012 88.6321 145.074 88.6253C145.378 88.6149 145.795 88.6007 145.937 88.5733C147.189 88.3141 148.405 88.1278 149.582 87.9471L149.872 87.9026C150.145 87.8606 150.542 87.7562 150.962 87.6459C151.89 87.3809 152.838 87.1909 153.797 87.0778C154.166 87.0399 154.597 86.9725 155.052 86.901C155.955 86.745 156.865 86.6378 157.779 86.5798C158.2 86.5585 158.623 86.5202 159.047 86.4829C159.867 86.4109 160.797 86.3296 161.79 86.3296C162.813 86.348 163.831 86.4696 164.83 86.6923C165.146 86.7617 165.465 86.8152 165.787 86.8525C166.199 86.8733 166.61 86.8837 167.02 86.8945C167.857 86.9165 168.805 86.9419 169.787 87.0417C170.778 87.1428 171.696 87.3154 172.506 87.4681C172.919 87.5455 173.33 87.6237 173.743 87.6873C174.091 87.741 174.526 87.7767 174.986 87.8146C175.907 87.8738 176.823 87.9911 177.729 88.1657C178.783 88.4068 179.805 88.7734 180.772 89.2576C180.975 89.3524 181.238 89.4748 181.405 89.5421C181.54 89.5429 181.739 89.5404 181.895 89.5371C183.136 89.4704 184.379 89.6126 185.573 89.9576C186.534 90.2824 187.462 90.7 188.342 91.2047C188.633 91.3709 188.932 91.5221 189.238 91.6577C190.214 92.0245 191.099 92.4239 191.956 92.8099C192.277 92.9547 192.598 93.0996 192.92 93.2401C193.294 93.4036 193.673 93.5575 194.052 93.7118C194.829 94.028 195.709 94.3865 196.599 94.8312C197.474 95.2876 198.307 95.8208 199.087 96.4247C199.427 96.6751 199.748 96.9118 199.961 97.0329C200.238 97.1892 200.623 97.3651 201.031 97.5512C201.894 97.9257 202.73 98.3612 203.531 98.8546C203.78 99.0131 204.031 99.1709 204.282 99.3279C205.127 99.8591 206.001 100.409 206.89 101.042C207.628 101.582 208.336 102.162 209.01 102.78C209.354 103.085 209.679 103.373 209.972 103.606C210.073 103.68 210.421 103.865 210.675 104C211.647 104.482 212.558 105.08 213.387 105.781C214.258 106.585 215.001 107.519 215.59 108.548C215.698 108.724 215.843 108.956 215.922 109.067C216.143 109.275 216.442 109.521 216.757 109.778C217.498 110.363 218.196 111 218.845 111.684C219.769 112.689 220.609 113.703 221.42 114.683L221.454 114.724C222.059 115.48 222.601 116.285 223.073 117.13C223.292 117.502 223.499 117.854 223.663 118.074C223.913 118.41 224.175 118.736 224.437 119.063C224.949 119.701 225.529 120.425 226.08 121.255C226.245 121.503 226.508 121.826 226.786 122.168C227.405 122.898 227.966 123.674 228.466 124.489C229.023 125.432 229.496 126.353 229.953 127.243C230.087 127.506 230.223 127.768 230.359 128.03C230.811 128.936 231.172 129.885 231.437 130.862C231.532 131.18 231.63 131.507 231.71 131.713C231.791 131.824 231.943 132.012 232.06 132.156C232.857 133.07 233.502 134.106 233.971 135.224C234.336 136.155 234.615 137.073 234.861 137.883C234.98 138.275 235.098 138.666 235.226 139.053C235.34 139.395 235.502 139.798 235.673 140.225C236.034 141.081 236.343 141.957 236.6 142.85C236.871 143.935 236.998 145.052 236.977 146.17C236.98 146.438 236.985 146.804 237.004 146.931C237.029 147.025 237.181 147.399 237.292 147.672C237.726 148.658 238.043 149.693 238.235 150.753C238.291 151.1 238.352 151.448 238.412 151.798C238.574 152.733 238.742 153.699 238.852 154.741C238.945 155.84 238.897 156.947 238.71 158.034C238.671 158.309 238.618 158.685 238.618 158.817C238.635 159.126 238.69 159.55 238.748 159.998C238.885 160.924 238.96 161.859 238.973 162.796C238.973 163.219 238.989 163.644 239.004 164.068C239.032 164.894 239.065 165.831 239.013 166.819C238.924 167.999 238.657 169.159 238.221 170.26C238.151 170.456 238.058 170.718 238.021 170.847C237.985 171.21 237.961 171.61 237.936 172.031C237.894 172.941 237.806 173.848 237.673 174.749C237.477 175.969 237.238 177.218 236.922 178.682C236.859 178.974 236.798 179.267 236.737 179.559C236.534 180.53 236.323 181.534 236.036 182.587C235.783 183.471 235.478 184.341 235.125 185.191C234.957 185.613 234.798 186.011 234.684 186.358C234.581 186.667 234.482 187.079 234.376 187.515C234.174 188.432 233.907 189.334 233.576 190.214C233.167 191.258 232.725 192.215 232.298 193.141L231.958 193.881C231.917 193.985 231.828 194.356 231.762 194.627C231.535 195.704 231.173 196.747 230.685 197.733C229.938 199.167 229.339 200.256 228.741 201.267C228.097 202.302 227.289 203.225 226.348 204C226.205 204.127 226.018 204.293 225.923 204.387C225.278 205.35 224.62 206.232 223.983 207.087L223.661 207.519C222.897 208.546 222.108 209.608 221.222 210.678C220.535 211.508 219.617 212.601 218.611 213.696C218.56 213.762 218.374 214.071 218.239 214.297C217.692 215.273 217.019 216.173 216.237 216.972C215.523 217.649 214.75 218.261 213.928 218.802C213.577 219.045 213.245 219.274 213.057 219.441C212.253 220.149 211.462 220.768 210.696 221.365C210.446 221.561 210.195 221.757 209.945 221.955C209.658 222.183 209.335 222.473 208.993 222.779C208.319 223.401 207.611 223.985 206.871 224.527C206.669 224.671 206.37 224.943 206.054 225.23C205.338 225.91 204.565 226.526 203.742 227.071C202.735 227.713 201.637 228.368 200.286 229.134C199.225 229.703 198.08 230.101 196.894 230.311C196.701 230.352 196.445 230.407 196.315 230.443C196.091 230.556 195.867 230.669 195.642 230.784C194.754 231.235 193.836 231.701 192.828 232.141C192.491 232.288 192.106 232.484 191.698 232.692C190.888 233.12 190.055 233.502 189.201 233.836C188.84 233.972 188.445 234.139 188.027 234.316C187.273 234.636 186.419 234.998 185.468 235.301C185.071 235.427 184.676 235.567 184.281 235.707C183.499 235.984 182.612 236.298 181.649 236.55C180.552 236.812 179.426 236.924 178.3 236.881C178.054 236.88 177.722 236.878 177.585 236.891C177.368 236.941 177.005 237.068 176.653 237.191C175.714 237.544 174.743 237.808 173.754 237.978C172.759 238.131 171.829 238.209 170.929 238.285C170.544 238.318 170.158 238.35 169.771 238.389C169.387 238.428 169.004 238.475 168.619 238.521C167.725 238.628 166.801 238.739 165.79 238.79C164.593 238.85 163.198 238.915 161.79 238.915ZM153.917 227.477C154.25 227.476 154.583 227.493 154.914 227.526C155.855 227.622 156.838 227.671 157.879 227.722L158.349 227.745C159.19 227.801 160.024 227.92 160.846 228.104C161.159 228.175 161.475 228.229 161.793 228.266C162.95 228.266 164.137 228.211 165.253 228.155C165.896 228.122 166.603 228.037 167.351 227.948C167.799 227.894 168.247 227.841 168.694 227.795C169.141 227.75 169.588 227.712 170.033 227.674C170.788 227.61 171.501 227.55 172.136 227.453C172.477 227.367 172.814 227.262 173.143 227.138C173.898 226.859 174.672 226.631 175.458 226.457C176.413 226.278 177.385 226.203 178.356 226.233C178.587 226.235 178.893 226.235 179.039 226.225C179.549 226.086 180.123 225.883 180.728 225.669C181.232 225.491 181.735 225.314 182.241 225.153C182.719 225.001 183.279 224.763 183.872 224.512C184.371 224.301 184.887 224.082 185.452 223.87C185.934 223.671 186.407 223.448 186.868 223.202C187.371 222.945 187.943 222.655 188.567 222.382C189.291 222.066 190.035 221.688 190.823 221.288C191.099 221.148 191.376 221.008 191.653 220.869C192.608 220.416 193.618 220.09 194.658 219.9C194.834 219.862 195.063 219.813 195.199 219.777C196.309 219.145 197.209 218.607 198.019 218.091C198.325 217.861 198.617 217.614 198.893 217.349C199.461 216.815 200.062 216.316 200.691 215.855C201.107 215.539 201.507 215.202 201.89 214.845C202.312 214.468 202.79 214.04 203.324 213.616C203.596 213.4 203.868 213.186 204.141 212.974C204.813 212.449 205.447 211.954 206.011 211.456C206.602 210.948 207.223 210.477 207.871 210.044C208.194 209.821 208.555 209.571 208.738 209.409C208.827 209.286 208.99 209.015 209.112 208.812C209.583 207.981 210.141 207.201 210.774 206.486C211.614 205.574 212.415 204.619 213.02 203.888C213.729 203.032 214.402 202.126 215.114 201.168L215.447 200.721C216.049 199.914 216.618 199.151 217.125 198.387C217.734 197.511 218.458 196.721 219.278 196.038C219.407 195.923 219.575 195.774 219.675 195.677C220.136 194.889 220.618 194.009 221.218 192.859C221.268 192.718 221.351 192.375 221.413 192.12C221.61 191.21 221.896 190.322 222.267 189.468C222.387 189.206 222.507 188.943 222.629 188.681C223.009 187.858 223.367 187.08 223.663 186.326C223.809 185.897 223.93 185.461 224.025 185.018C224.17 184.418 224.334 183.738 224.577 183.006C224.789 182.368 225.022 181.779 225.229 181.26C225.432 180.777 225.611 180.284 225.764 179.782C225.967 179.041 226.135 178.234 226.314 177.379C226.38 177.064 226.446 176.749 226.514 176.433C226.789 175.159 226.994 174.088 227.159 173.061C227.234 172.594 227.269 172.008 227.307 171.389C227.339 170.861 227.375 170.263 227.441 169.638C227.569 168.626 227.821 167.633 228.192 166.682C228.258 166.497 228.344 166.255 228.385 166.116C228.403 165.622 228.383 165.045 228.362 164.436C228.343 163.889 228.325 163.342 228.325 162.796C228.306 162.316 228.26 161.838 228.187 161.364C228.11 160.767 228.023 160.091 227.984 159.354C227.95 158.414 228.011 157.473 228.166 156.546C228.202 156.293 228.25 155.952 228.257 155.803C228.182 155.127 228.055 154.393 227.92 153.617C227.852 153.224 227.784 152.831 227.722 152.441C227.696 152.342 227.542 151.963 227.429 151.687C227.073 150.866 226.791 150.015 226.588 149.144C226.404 148.208 226.318 147.255 226.329 146.301C226.326 146.059 226.322 145.734 226.308 145.584C226.195 145.197 225.999 144.709 225.793 144.195C225.579 143.662 225.336 143.059 225.119 142.405C224.963 141.934 224.818 141.456 224.672 140.978C224.487 140.368 224.31 139.787 224.123 139.284C224.039 139.172 223.896 138.995 223.786 138.858C223.096 138.059 222.515 137.171 222.058 136.22C221.729 135.469 221.454 134.697 221.234 133.908C221.146 133.584 221.04 133.265 220.917 132.953C220.771 132.672 220.625 132.389 220.48 132.107C220.076 131.32 219.695 130.577 219.298 129.906C219.062 129.551 218.804 129.212 218.527 128.889C218.121 128.389 217.66 127.824 217.211 127.148C216.923 126.714 216.537 126.232 216.128 125.722C215.801 125.314 215.463 124.892 215.116 124.425C214.674 123.815 214.266 123.181 213.894 122.526C213.701 122.176 213.487 121.839 213.252 121.515L213.217 121.473C212.459 120.557 211.744 119.692 211.008 118.892C210.691 118.58 210.357 118.286 210.006 118.013C209.52 117.615 208.97 117.164 208.409 116.615C207.686 115.877 207.058 115.051 206.539 114.157C206.454 114.02 206.346 113.847 206.266 113.725C206.11 113.632 205.866 113.502 205.674 113.401C204.855 112.99 204.077 112.502 203.351 111.945C202.831 111.532 202.36 111.115 201.944 110.746C201.494 110.347 201.069 109.97 200.709 109.713C200.073 109.26 199.366 108.815 198.616 108.344C198.347 108.175 198.078 108.005 197.81 107.835C197.422 107.613 197.022 107.414 196.611 107.239C196.041 106.979 195.395 106.684 194.713 106.298C194.038 105.903 193.388 105.468 192.766 104.994C192.47 104.763 192.16 104.55 191.838 104.356C191.315 104.094 190.694 103.842 190.036 103.574C189.576 103.386 189.116 103.198 188.66 102.999C188.299 102.842 187.94 102.68 187.58 102.518C186.844 102.186 186.148 101.872 185.491 101.625C184.729 101.326 183.989 100.973 183.276 100.571C183.037 100.441 182.732 100.277 182.523 100.179C182.391 100.178 182.224 100.181 182.088 100.184C180.987 100.24 179.884 100.138 178.813 99.8823C177.939 99.6381 177.09 99.3128 176.277 98.9106C176.024 98.7929 175.681 98.6327 175.537 98.5861C175.171 98.5142 174.657 98.4718 174.114 98.4273C173.519 98.3782 172.844 98.3229 172.123 98.2118C171.594 98.1303 171.067 98.0321 170.538 97.9327C169.876 97.8083 169.251 97.6906 168.709 97.6353C168.125 97.5756 167.453 97.5583 166.74 97.5392C166.244 97.5264 165.747 97.5125 165.25 97.4876C164.419 97.433 163.594 97.3173 162.78 97.1415C162.453 97.0688 162.123 97.0142 161.79 96.978C161.265 96.978 160.64 97.0329 159.979 97.0908C159.449 97.1373 158.902 97.1856 158.317 97.2151C157.87 97.2376 157.304 97.3266 156.705 97.4206C156.155 97.5067 155.532 97.6049 154.875 97.6715C154.469 97.738 154.067 97.8291 153.672 97.9443C152.954 98.1446 152.226 98.3059 151.492 98.4277L151.195 98.473C150.106 98.6398 149.077 98.7975 148.096 99.0008C147.219 99.168 146.328 99.2572 145.436 99.2675C145.135 99.2775 144.723 99.2916 144.583 99.3178C144.176 99.4508 143.776 99.6059 143.386 99.7825C142.799 100.03 142.135 100.311 141.376 100.552C141.018 100.695 140.668 100.86 140.33 101.046C139.652 101.408 138.953 101.729 138.237 102.01C137.619 102.242 137.024 102.43 136.499 102.596C135.927 102.777 135.387 102.948 134.98 103.126C134.216 103.447 133.429 103.711 132.627 103.919C132.304 104 131.986 104.099 131.674 104.215C130.987 104.558 130.272 104.97 129.516 105.406C129.227 105.573 128.938 105.738 128.649 105.903C128.541 105.973 128.222 106.258 127.99 106.467C127.352 107.064 126.664 107.606 125.935 108.087C125.352 108.459 124.786 108.772 124.286 109.049C123.832 109.29 123.389 109.553 122.961 109.838C122.296 110.298 121.601 110.712 120.881 111.078C120.565 111.236 120.259 111.411 119.963 111.604C119.545 111.936 119.084 112.372 118.597 112.832C118.201 113.207 117.804 113.58 117.398 113.939C116.824 114.445 116.261 114.866 115.764 115.237C115.411 115.5 115.075 115.75 114.83 115.963C114.765 116.082 114.678 116.253 114.608 116.389C114.142 117.377 113.539 118.294 112.817 119.114C112.065 119.931 111.271 120.802 110.539 121.686C110.2 122.095 109.849 122.493 109.498 122.89C109.054 123.393 108.633 123.869 108.309 124.306C107.948 124.791 107.583 125.367 107.198 125.976C106.943 126.379 106.687 126.782 106.422 127.181C105.867 127.982 105.227 128.72 104.511 129.382C104.386 129.504 104.228 129.657 104.117 129.772C104.077 129.914 104.028 130.105 103.989 130.258C103.766 131.247 103.426 132.206 102.975 133.114C102.671 133.698 102.354 134.235 102.073 134.708C101.768 135.224 101.479 135.711 101.295 136.114C101.141 136.453 100.983 136.791 100.825 137.129C100.476 137.876 100.146 138.581 99.8831 139.252C99.6374 139.878 99.3714 140.455 99.1368 140.965C98.9062 141.44 98.6997 141.927 98.5179 142.423C98.4823 142.552 98.4349 142.985 98.4001 143.301C98.324 144.161 98.1779 145.012 97.9634 145.848C97.7076 146.727 97.368 147.58 96.9493 148.394C96.8315 148.637 96.6724 148.965 96.6225 149.106C96.5362 149.524 96.4793 150.071 96.4189 150.649C96.3611 151.204 96.2954 151.833 96.1897 152.492C96.0891 153.119 95.9634 153.715 95.8526 154.24C95.7243 154.849 95.603 155.424 95.5535 155.889C95.5397 156.279 95.5496 156.67 95.5831 157.059C95.6402 157.823 95.6532 158.589 95.6219 159.354C95.5733 160.107 95.4824 160.856 95.3497 161.598C95.2741 161.993 95.223 162.393 95.1966 162.795C95.2049 162.916 95.2969 163.329 95.364 163.631C95.5738 164.483 95.7095 165.352 95.7696 166.228C95.8004 166.974 95.7912 167.722 95.7421 168.467C95.7109 168.871 95.704 169.278 95.7214 169.683C95.8362 170.764 95.9867 171.881 96.1822 173.098C96.2738 173.53 96.3912 173.955 96.5339 174.373C96.7217 174.973 96.9349 175.654 97.1013 176.425C97.2519 177.122 97.4622 177.86 97.6849 178.641C97.7882 179.005 97.8918 179.368 97.9915 179.734C98.2542 180.783 98.3712 181.863 98.3391 182.944C98.3393 183.081 98.3397 183.249 98.3426 183.381C98.4312 183.542 98.5803 183.791 98.6974 183.986C99.1665 184.731 99.5705 185.515 99.905 186.329C100.196 187.103 100.431 187.896 100.607 188.704C100.677 189.031 100.764 189.354 100.869 189.671C101.092 190.16 101.406 190.718 101.739 191.307C102.003 191.776 102.266 192.243 102.513 192.717C102.847 193.357 103.115 193.974 103.353 194.519C103.54 194.977 103.752 195.424 103.987 195.859C104.24 196.245 104.514 196.616 104.809 196.971C105.195 197.458 105.633 198.01 106.057 198.649C106.307 199.025 106.674 199.469 107.063 199.938C107.413 200.361 107.809 200.84 108.199 201.365C108.511 201.755 108.843 202.129 109.195 202.485C109.595 202.908 110.049 203.387 110.502 203.934C111.035 204.598 111.515 205.304 111.937 206.043C112.091 206.315 112.259 206.578 112.44 206.832C112.745 207.164 113.18 207.549 113.641 207.957C114.049 208.318 114.511 208.728 114.972 209.179C115.506 209.715 116.01 210.279 116.481 210.871C116.729 211.19 116.997 211.494 117.282 211.78C117.611 212.071 118.077 212.401 118.571 212.75C119.019 213.068 119.525 213.426 120.037 213.831C120.163 213.91 120.503 214.07 120.754 214.188C121.586 214.556 122.381 215 123.13 215.516C123.891 216.08 124.593 216.722 125.223 217.43C125.392 217.61 125.619 217.852 125.729 217.95C126.279 218.297 126.907 218.64 127.569 219.003C127.942 219.208 128.315 219.412 128.684 219.621C129.089 219.826 129.506 220.009 129.932 220.167C130.51 220.397 131.165 220.658 131.858 221.004C132.258 221.204 132.791 221.404 133.355 221.617C133.868 221.81 134.45 222.028 135.052 222.291C135.705 222.576 136.291 222.88 136.808 223.149C137.245 223.388 137.695 223.604 138.156 223.796C138.865 224.063 139.494 224.36 140.05 224.621C140.466 224.83 140.895 225.015 141.332 225.175C142.056 225.405 142.703 225.67 143.273 225.904C143.688 226.074 144.085 226.237 144.399 226.338C144.536 226.334 144.737 226.322 144.895 226.313C145.973 226.214 147.059 226.264 148.123 226.461C149.105 226.685 150.058 227.025 150.96 227.474C151.104 227.541 151.282 227.623 151.419 227.682C151.569 227.668 151.769 227.644 151.929 227.625C152.588 227.534 153.252 227.485 153.917 227.477Z" fill="#54568C"/>
<circle cx="160" cy="162.56" r="64.7581" fill="#181C56"/>
<circle cx="160.118" cy="162.679" r="64.7581" fill="#181C56"/>
<path d="M133.278 92.7859C132.436 80.6627 132.596 68.49 133.278 56.3631C133.293 56.1791 133.378 56.0076 133.514 55.8827C133.65 55.7578 133.828 55.6885 134.012 55.6885C134.197 55.6885 134.375 55.7578 134.511 55.8827C134.647 56.0076 134.731 56.1791 134.747 56.3631C135.32 65.4587 135.392 74.5718 135.204 83.6801C135.118 86.7154 134.999 89.7506 134.747 92.7859C134.729 92.9682 134.644 93.1373 134.508 93.2603C134.372 93.3833 134.195 93.4514 134.012 93.4514C133.829 93.4514 133.652 93.3833 133.517 93.2603C133.381 93.1373 133.296 92.9682 133.278 92.7859L133.278 92.7859Z" fill="#D9DDF2"/>
<path d="M183.147 91.3556C182.456 82.6214 182.528 73.8611 182.737 65.1111C182.822 62.195 182.935 59.279 183.147 56.363C183.16 56.1774 183.244 56.0039 183.38 55.8772C183.516 55.7506 183.695 55.6802 183.881 55.6802C184.067 55.6802 184.246 55.7506 184.383 55.8772C184.519 56.0039 184.602 56.1774 184.616 56.363C185.189 65.1008 185.261 73.8565 185.073 82.6075C184.987 85.5236 184.868 88.4396 184.616 91.3556C184.597 91.5374 184.512 91.7058 184.376 91.8282C184.24 91.9506 184.064 92.0184 183.881 92.0184C183.699 92.0184 183.522 91.9506 183.387 91.8282C183.251 91.7058 183.166 91.5374 183.147 91.3556Z" fill="#D9DDF2"/>
<path d="M160.973 239.18C160.235 239.163 159.5 239.089 158.773 238.958C158.265 238.871 157.752 238.809 157.237 238.773C156.439 238.735 155.66 238.632 154.906 238.532C154.445 238.472 153.984 238.411 153.523 238.366C153.029 238.317 152.525 238.305 151.992 238.292C151.254 238.288 150.517 238.239 149.785 238.145C149.054 238.016 148.339 237.81 147.652 237.53C147.175 237.34 146.684 237.185 146.183 237.07C145.671 236.982 145.154 236.928 144.634 236.908C143.902 236.884 143.173 236.792 142.458 236.633C141.367 236.361 140.289 236.034 139.247 235.717L138.863 235.601C137.892 235.306 136.938 234.961 136.016 234.628L135.33 234.381C134.205 233.978 133.033 233.524 131.846 233.032C131.165 232.735 130.502 232.398 129.86 232.023C129.402 231.767 128.969 231.525 128.527 231.316C128.054 231.116 127.564 230.964 127.062 230.859C126.325 230.709 125.611 230.465 124.936 230.134C124.29 229.771 123.667 229.368 123.072 228.926C122.635 228.615 122.223 228.322 121.801 228.069C121.172 227.661 120.597 227.177 120.088 226.627C119.74 226.254 119.358 225.915 118.946 225.613C118.512 225.356 118.05 225.148 117.569 224.993C116.843 224.761 116.154 224.425 115.523 223.996C114.943 223.545 114.397 223.051 113.89 222.519C113.506 222.136 113.144 221.773 112.762 221.459C111.959 220.799 111.191 220.099 110.448 219.422L109.97 218.988C109.576 218.65 109.16 218.339 108.724 218.057C108.104 217.661 107.522 217.206 106.987 216.7C106.478 216.157 106.033 215.557 105.66 214.913C105.4 214.468 105.103 214.046 104.771 213.652C104.439 213.286 104.066 212.941 103.671 212.576C103.121 212.09 102.605 211.566 102.127 211.008C101.676 210.43 101.279 209.811 100.941 209.161C100.699 208.703 100.428 208.261 100.13 207.838C99.6004 207.125 99.1198 206.388 98.6548 205.676C98.4548 205.37 98.2546 205.063 98.0498 204.757C97.3508 203.714 96.6996 202.688 96.0591 201.622C95.7729 201.222 95.4321 200.864 95.0467 200.559C94.4254 200.066 93.8975 199.466 93.4881 198.786C93.1579 198.121 92.9018 197.421 92.7244 196.699C92.5982 196.196 92.4316 195.705 92.226 195.229C92.0152 194.784 91.7586 194.346 91.4869 193.882C91.0997 193.253 90.7564 192.599 90.4596 191.923C90.1969 191.232 90.0075 190.515 89.8946 189.785C89.8126 189.274 89.6917 188.769 89.5329 188.277C89.265 187.528 89.0636 186.773 88.8686 186.042C88.7491 185.595 88.6296 185.147 88.4948 184.701C88.3332 184.213 88.1407 183.735 87.9186 183.27C87.5971 182.608 87.3365 181.919 87.1398 181.21C87.0012 180.711 86.8302 180.222 86.6278 179.746C86.3344 179.067 86.1047 178.362 85.9415 177.64C85.828 176.859 85.8542 176.065 86.0189 175.293C86.1227 174.809 86.1584 174.313 86.1251 173.818C86.0409 173.313 85.9312 172.813 85.7966 172.319C85.5988 171.612 85.4558 170.891 85.3687 170.162C85.3083 169.419 85.2868 168.673 85.3043 167.928C85.3078 167.411 85.3111 166.922 85.2872 166.434C85.2527 165.922 85.1926 165.412 85.107 164.906C84.9798 164.182 84.9078 163.45 84.8916 162.715C84.9078 161.981 84.9806 161.249 85.1092 160.525C85.1958 160.019 85.2566 159.509 85.2913 158.997C85.3024 158.477 85.2782 157.956 85.219 157.439C85.1314 156.712 85.1131 155.979 85.1642 155.249C85.2513 154.518 85.3927 153.794 85.5873 153.084C85.7175 152.561 85.8404 152.067 85.9119 151.581C86.0327 150.842 86.1931 150.11 86.3923 149.388C86.5203 148.89 86.6413 148.421 86.7348 147.948C86.8226 147.437 86.8773 146.92 86.8986 146.402C86.924 145.671 87.0165 144.944 87.175 144.229C87.364 143.473 87.6198 142.755 87.8673 142.061C88.0369 141.585 88.1971 141.136 88.335 140.68C88.4749 140.181 88.5871 139.673 88.6713 139.161C88.7851 138.438 88.958 137.725 89.1881 137.029C89.4508 136.296 89.7769 135.603 90.0927 134.934C90.3085 134.476 90.5125 134.044 90.6948 133.604C91.0031 132.861 91.3647 132.155 91.7139 131.473C91.9225 131.066 92.1308 130.659 92.3262 130.247C92.8169 129.211 93.3735 128.036 93.9793 126.905C94.205 126.484 94.4108 126.053 94.6287 125.597C94.9466 124.931 95.2756 124.242 95.6754 123.576C96.0668 122.955 96.5023 122.362 96.9787 121.803C97.3185 121.385 97.6396 120.99 97.9142 120.58C98.1731 120.193 98.4183 119.798 98.6635 119.404C99.0633 118.761 99.4769 118.096 99.951 117.457C100.418 116.829 100.929 116.258 101.424 115.705C101.756 115.334 102.069 114.984 102.369 114.619C102.681 114.239 102.97 113.834 103.276 113.406C103.695 112.796 104.149 112.21 104.636 111.653C105.141 111.123 105.689 110.636 106.274 110.197C106.685 109.884 107.078 109.548 107.451 109.191C108.274 108.368 109.155 107.532 110.145 106.634C110.52 106.279 110.875 105.904 111.209 105.51C111.678 104.948 112.192 104.426 112.746 103.948C113.139 103.61 113.513 103.251 113.865 102.87C114.362 102.328 114.902 101.828 115.482 101.375C116.081 100.951 116.712 100.573 117.369 100.245C117.831 100.01 118.281 99.7522 118.717 99.4724C119.138 99.1711 119.537 98.8392 119.91 98.4793C120.44 97.9615 121.021 97.4992 121.645 97.0993C122.313 96.7343 123.03 96.4649 123.773 96.2988C124.268 96.1874 124.751 96.0222 125.211 95.8061C125.913 95.4299 126.631 95.118 127.326 94.8163C127.749 94.6325 128.173 94.4488 128.592 94.25C129.643 93.7525 130.78 93.2235 131.983 92.7248C132.391 92.5556 132.793 92.3763 133.196 92.1969C133.906 91.8802 134.641 91.5529 135.412 91.2769C135.888 91.0856 136.345 90.8529 136.779 90.5814C137.412 90.1813 138.09 89.8576 138.8 89.6171C139.542 89.3923 140.295 89.2407 141.022 89.0942C141.52 88.994 141.99 88.8992 142.454 88.7834C143.179 88.6269 143.919 88.5535 144.66 88.5646C145.175 88.5699 145.691 88.5313 146.2 88.4494C146.685 88.3237 147.153 88.1421 147.595 87.9082C148.276 87.5476 149.007 87.2908 149.764 87.1463C150.526 87.0342 151.287 86.9982 152.023 86.9636C152.536 86.9393 153.022 86.9164 153.503 86.8698C154.247 86.8226 154.993 86.8681 155.725 87.0052C156.232 87.0967 156.746 87.1412 157.26 87.1383C157.758 87.0851 158.247 86.9747 158.72 86.8093C159.446 86.5544 160.205 86.4084 160.974 86.376C161.744 86.409 162.505 86.5579 163.231 86.8178C163.701 86.9859 164.19 87.0981 164.686 87.152C165.156 87.1747 165.623 87.181 166.089 87.1872C166.84 87.1977 167.617 87.2083 168.403 87.2849C168.899 87.3331 169.408 87.3372 169.948 87.3416C170.679 87.3312 171.41 87.3718 172.136 87.4633C173.417 87.6516 174.66 87.8885 175.812 88.1166C176.639 88.2799 177.442 88.4976 178.218 88.7083C178.623 88.8176 179.026 88.9272 179.432 89.0285C179.94 89.1413 180.454 89.2211 180.972 89.2674C181.704 89.3285 182.429 89.4569 183.138 89.651C183.845 89.88 184.537 90.1528 185.21 90.4678C185.695 90.6835 186.154 90.8872 186.616 91.0524C187.306 91.3147 187.98 91.6216 188.631 91.9709C189.104 92.2124 189.551 92.4405 190.005 92.6289C190.489 92.815 190.985 92.9691 191.49 93.0903C192.205 93.2576 192.903 93.4909 193.575 93.7874C194.231 94.1197 194.856 94.5109 195.442 94.9561C195.856 95.2666 196.288 95.5505 196.738 95.8061C197.201 96.0318 197.683 96.2167 198.178 96.3587C198.896 96.5604 199.587 96.8456 200.238 97.2082C200.864 97.6012 201.462 98.036 202.028 98.5096C202.448 98.8454 202.845 99.1627 203.255 99.4373C203.694 99.7171 204.147 99.9721 204.614 100.201C205.276 100.52 205.91 100.894 206.511 101.317L206.839 101.561C207.718 102.213 208.628 102.887 209.492 103.597C210.052 104.078 210.577 104.596 211.065 105.15C211.432 105.548 211.779 105.925 212.146 106.257C212.502 106.581 212.879 106.889 213.277 107.214C213.87 107.683 214.439 108.182 214.982 108.708C215.494 109.24 215.97 109.806 216.408 110.4C216.736 110.826 217.045 111.229 217.378 111.595C217.71 111.961 218.087 112.308 218.487 112.674C219.041 113.159 219.56 113.683 220.039 114.242C220.499 114.852 220.869 115.524 221.138 116.238C221.317 116.712 221.548 117.163 221.827 117.585C222.149 117.983 222.507 118.35 222.897 118.681C223.47 119.164 223.981 119.716 224.419 120.324C224.825 120.953 225.197 121.605 225.534 122.274C225.776 122.735 226.005 123.171 226.255 123.588C226.455 123.92 226.659 124.25 226.864 124.58C227.306 125.292 227.763 126.029 228.174 126.797C228.699 127.778 229.179 128.792 229.642 129.772L229.822 130.153C230.118 130.832 230.338 131.541 230.477 132.268C230.576 132.774 230.716 133.27 230.897 133.753C231.079 134.192 231.281 134.621 231.495 135.075C231.809 135.739 232.132 136.426 232.395 137.161C232.579 137.642 232.79 138.112 233.026 138.57C233.368 139.222 233.655 139.9 233.885 140.598C234.084 141.307 234.237 142.027 234.342 142.756C234.43 143.284 234.513 143.783 234.633 144.265C234.776 144.758 234.959 145.238 235.182 145.701C235.51 146.372 235.76 147.078 235.929 147.806C236.056 148.53 236.132 149.262 236.156 149.996C236.187 150.539 236.216 151.051 236.288 151.544C236.415 152.406 236.488 153.275 236.559 154.116C236.591 154.497 236.623 154.879 236.66 155.261C236.724 155.774 236.821 156.282 236.95 156.782C237.14 157.497 237.263 158.228 237.318 158.965C237.321 159.731 237.21 160.492 236.987 161.224C236.84 161.709 236.751 162.21 236.721 162.716C236.746 163.227 236.824 163.735 236.954 164.23C237.148 164.958 237.242 165.709 237.233 166.462C237.17 167.215 237.009 167.957 236.753 168.669C236.584 169.147 236.462 169.641 236.39 170.144C236.341 170.638 236.33 171.14 236.317 171.671C236.314 172.406 236.266 173.141 236.172 173.87C236.1 174.363 236.073 174.875 236.044 175.417C236.023 176.15 235.948 176.881 235.822 177.604C235.65 178.338 235.384 179.047 235.032 179.713C234.796 180.164 234.605 180.636 234.46 181.123C234.355 181.627 234.295 182.139 234.282 182.654C234.266 183.399 234.161 184.139 233.969 184.859C233.825 185.332 233.715 185.826 233.598 186.349C233.451 187.076 233.259 187.793 233.023 188.496C232.737 189.203 232.355 189.868 231.887 190.47C231.577 190.871 231.311 191.303 231.093 191.76C230.784 192.504 230.424 193.206 230.076 193.885C229.868 194.291 229.66 194.697 229.465 195.11C228.849 196.409 228.32 197.466 227.801 198.436C227.406 199.172 226.969 199.867 226.546 200.539C226.321 200.896 226.096 201.254 225.877 201.618C225.659 202.059 225.504 202.529 225.417 203.014C225.276 203.794 224.996 204.543 224.589 205.224C224.146 205.836 223.624 206.388 223.037 206.864C222.642 207.187 222.28 207.549 221.956 207.944C221.658 208.369 221.387 208.812 221.146 209.272C220.809 209.925 220.412 210.546 219.96 211.126C219.481 211.683 218.96 212.201 218.4 212.677C218.008 213.014 217.634 213.372 217.279 213.749C217.009 214.046 216.744 214.348 216.479 214.65C215.936 215.269 215.375 215.908 214.769 216.513C214.495 216.788 214.224 217.066 213.952 217.345C213.369 217.946 212.765 218.567 212.121 219.15C211.554 219.632 210.931 220.045 210.265 220.38C209.809 220.613 209.373 220.886 208.965 221.195C208.64 221.462 208.322 221.735 208.004 222.007C207.398 222.525 206.771 223.062 206.098 223.562C205.691 223.879 205.302 224.22 204.934 224.582C204.414 225.099 203.852 225.572 203.253 225.994C202.829 226.291 202.42 226.611 202.03 226.952C201.479 227.439 200.889 227.881 200.268 228.275C199.387 228.804 198.221 229.494 197.012 230.141C196.355 230.476 195.676 230.766 194.979 231.008C194.473 231.197 193.995 231.375 193.547 231.587C193.13 231.785 192.717 231.998 192.305 232.21C191.624 232.561 190.92 232.923 190.181 233.23C189.497 233.494 188.791 233.698 188.071 233.841C187.562 233.946 187.059 234.08 186.566 234.244C186.126 234.401 185.694 234.576 185.236 234.762C184.542 235.043 183.825 235.333 183.071 235.561C182.6 235.704 182.128 235.895 181.629 236.097C180.95 236.39 180.251 236.634 179.538 236.828C178.807 236.984 178.059 237.05 177.312 237.024C176.798 237.008 176.283 237.04 175.774 237.119C175.272 237.234 174.779 237.384 174.298 237.569C173.609 237.838 172.894 238.038 172.165 238.166C171.437 238.258 170.703 238.3 169.969 238.293C169.429 238.299 168.919 238.305 168.423 238.353C167.913 238.42 167.409 238.528 166.916 238.674C166.202 238.89 165.468 239.029 164.725 239.087C163.458 239.148 162.196 239.18 160.973 239.18ZM154.043 89.1635C153.935 89.1635 153.83 89.168 153.728 89.1779C153.189 89.2303 152.652 89.2555 152.133 89.2803C151.422 89.3138 150.75 89.3455 150.102 89.4409C149.573 89.5578 149.063 89.7477 148.587 90.0051C147.974 90.3251 147.324 90.5669 146.651 90.7249C146.009 90.835 145.359 90.888 144.708 90.8834C144.141 90.8724 143.573 90.9228 143.016 91.0336C142.501 91.1624 141.982 91.2667 141.481 91.3678C140.775 91.5098 140.109 91.644 139.472 91.8367C138.937 92.0292 138.424 92.2808 137.944 92.5869C137.389 92.9317 136.803 93.2242 136.194 93.4607C135.505 93.7071 134.842 94.0026 134.139 94.3157C133.719 94.503 133.298 94.6905 132.871 94.8674C131.715 95.3467 130.609 95.8615 129.586 96.3463C129.144 96.5557 128.697 96.7501 128.25 96.9437C127.568 97.2397 126.924 97.5197 126.306 97.8505C125.691 98.1544 125.043 98.3853 124.375 98.5386C123.842 98.6535 123.325 98.838 122.84 99.0874C122.351 99.4099 121.894 99.7791 121.476 100.19C121.018 100.63 120.527 101.035 120.008 101.4C119.506 101.724 118.989 102.022 118.457 102.293C117.904 102.568 117.372 102.884 116.865 103.237C116.389 103.616 115.944 104.032 115.534 104.481C115.12 104.926 114.681 105.347 114.219 105.741C113.762 106.14 113.338 106.576 112.95 107.042C112.56 107.502 112.144 107.939 111.704 108.352C110.742 109.224 109.887 110.036 109.091 110.832C108.656 111.252 108.196 111.647 107.715 112.014C107.23 112.376 106.775 112.777 106.355 113.212C105.928 113.702 105.531 114.217 105.164 114.754C104.849 115.195 104.523 115.651 104.161 116.092C103.83 116.494 103.486 116.879 103.152 117.252C102.671 117.79 102.217 118.297 101.813 118.841C101.396 119.402 101.026 119.998 100.633 120.628C100.375 121.045 100.115 121.462 99.8418 121.87C99.5072 122.37 99.1368 122.826 98.7785 123.266C98.3724 123.741 97.9999 124.244 97.6639 124.77C97.321 125.341 97.0299 125.951 96.722 126.596C96.5022 127.056 96.2751 127.532 96.0241 128.001C95.4453 129.081 94.9019 130.228 94.4226 131.24C94.2168 131.674 93.9978 132.102 93.7783 132.53C93.4346 133.201 93.11 133.835 92.8373 134.493C92.634 134.983 92.4086 135.461 92.1907 135.924C91.8854 136.571 91.5969 137.183 91.3721 137.811C91.1858 138.39 91.0454 138.982 90.9523 139.582C90.8534 140.179 90.7208 140.77 90.555 141.353C90.4009 141.862 90.2238 142.359 90.0523 142.84C89.8129 143.511 89.5869 144.145 89.4257 144.791C89.3033 145.37 89.2323 145.959 89.2134 146.55C89.1868 147.17 89.119 147.787 89.0104 148.398C88.9038 148.936 88.7692 149.459 88.6386 149.966C88.4603 150.609 88.3162 151.26 88.2067 151.918C88.1188 152.516 87.9763 153.09 87.8384 153.644C87.6727 154.244 87.5505 154.856 87.4727 155.474C87.4384 156.06 87.4573 156.648 87.5292 157.231C87.5994 157.854 87.6257 158.482 87.6081 159.109C87.5702 159.701 87.5015 160.291 87.4021 160.875C87.2928 161.483 87.2289 162.098 87.2111 162.715C87.2287 163.334 87.292 163.95 87.4004 164.56C87.4983 165.143 87.5662 165.731 87.604 166.322C87.6307 166.874 87.6271 167.418 87.6236 167.944C87.6071 168.609 87.6249 169.274 87.6769 169.937C87.7542 170.55 87.8771 171.155 88.0446 171.749C88.1994 172.32 88.3246 172.898 88.4196 173.481C88.4938 174.207 88.4569 174.939 88.31 175.654C88.1971 176.157 88.1657 176.676 88.2169 177.19C88.3548 177.772 88.5443 178.341 88.7834 178.89C89.025 179.462 89.2277 180.049 89.3903 180.648C89.5554 181.222 89.7706 181.781 90.0332 182.317C90.2974 182.872 90.5249 183.444 90.7144 184.029C90.8571 184.499 90.9836 184.972 91.1096 185.444C91.3007 186.161 91.4813 186.837 91.7167 187.495C91.9181 188.102 92.0709 188.724 92.1736 189.354C92.2602 189.927 92.4037 190.49 92.6021 191.034C92.8594 191.612 93.1555 192.172 93.4882 192.71C93.7731 193.197 94.068 193.7 94.3221 194.236C94.5848 194.828 94.7969 195.44 94.9563 196.068C95.0916 196.627 95.2848 197.171 95.5325 197.691C95.8203 198.123 96.1759 198.505 96.5856 198.824C97.1521 199.28 97.645 199.821 98.0473 200.428C98.6679 201.461 99.2992 202.455 99.9771 203.467C100.187 203.78 100.392 204.095 100.597 204.408C101.063 205.123 101.504 205.798 101.992 206.455C102.351 206.958 102.677 207.485 102.966 208.032C103.239 208.56 103.558 209.063 103.918 209.536C104.33 210.011 104.773 210.458 105.245 210.873C105.659 211.256 106.088 211.652 106.489 212.094C106.914 212.588 107.294 213.118 107.624 213.68C107.908 214.175 108.244 214.638 108.627 215.06C109.061 215.462 109.531 215.824 110.031 216.141C110.555 216.482 111.055 216.859 111.527 217.27L112.009 217.708C112.764 218.396 113.476 219.045 114.234 219.668C114.704 220.053 115.123 220.473 115.53 220.879C115.958 221.33 116.418 221.75 116.906 222.135C117.362 222.427 117.855 222.657 118.372 222.818C119.026 223.031 119.652 223.323 120.236 223.686C120.775 224.069 121.275 224.505 121.728 224.987C122.106 225.4 122.531 225.767 122.995 226.081C123.495 226.381 123.963 226.714 124.416 227.036C124.932 227.421 125.472 227.773 126.031 228.09C126.537 228.325 127.069 228.498 127.616 228.607C128.27 228.746 128.908 228.951 129.52 229.22C130.033 229.463 130.521 229.736 130.993 230C131.556 230.33 132.138 230.627 132.735 230.89C133.886 231.368 135.023 231.807 136.112 232.197L136.805 232.447C137.699 232.77 138.623 233.105 139.536 233.381L139.922 233.498C140.936 233.806 141.985 234.125 143.02 234.383C143.599 234.505 144.188 234.575 144.779 234.593C145.401 234.619 146.021 234.686 146.633 234.794C147.254 234.932 147.862 235.12 148.453 235.354C148.992 235.575 149.551 235.742 150.123 235.851C150.762 235.93 151.405 235.971 152.05 235.974C152.6 235.987 153.17 236.001 153.748 236.058C154.235 236.105 154.722 236.169 155.21 236.233C155.949 236.331 156.647 236.423 157.35 236.457C157.945 236.496 158.538 236.565 159.127 236.666C159.737 236.777 160.354 236.842 160.974 236.861C162.159 236.861 163.384 236.83 164.613 236.771C165.192 236.717 165.764 236.604 166.32 236.433C166.935 236.252 167.563 236.123 168.199 236.045C168.794 235.987 169.378 235.98 169.943 235.974C170.573 235.982 171.203 235.947 171.828 235.872C172.407 235.763 172.975 235.599 173.523 235.383C174.109 235.159 174.711 234.979 175.324 234.844C175.978 234.733 176.641 234.687 177.304 234.705C177.864 234.727 178.425 234.684 178.976 234.578C179.584 234.409 180.18 234.198 180.76 233.947C181.285 233.735 181.828 233.515 182.399 233.342C183.053 233.144 183.691 232.886 184.366 232.612C184.826 232.426 185.301 232.234 185.785 232.06C186.366 231.864 186.958 231.704 187.557 231.58C188.149 231.464 188.729 231.299 189.293 231.087C189.944 230.817 190.575 230.492 191.244 230.148C191.679 229.924 192.114 229.7 192.555 229.491C193.092 229.237 193.64 229.033 194.17 228.835C194.768 228.628 195.352 228.381 195.918 228.097C197.082 227.474 198.216 226.802 199.074 226.287C199.591 225.955 200.08 225.583 200.539 225.176C200.994 224.78 201.469 224.41 201.964 224.067C202.455 223.715 202.915 223.323 203.342 222.896C203.776 222.47 204.235 222.071 204.716 221.7C205.324 221.248 205.894 220.76 206.497 220.245C206.827 219.963 207.156 219.68 207.493 219.404C208.01 219.001 208.564 218.648 209.146 218.349C209.652 218.097 210.127 217.79 210.564 217.432C211.154 216.897 211.706 216.33 212.291 215.729C212.569 215.442 212.848 215.155 213.13 214.873C213.682 214.321 214.194 213.738 214.736 213.12C215.009 212.809 215.283 212.497 215.561 212.191C215.97 211.754 216.402 211.339 216.856 210.947C217.325 210.55 217.765 210.117 218.169 209.654C218.529 209.181 218.847 208.677 219.119 208.148C219.408 207.598 219.735 207.068 220.095 206.561C220.512 206.034 220.984 205.552 221.503 205.125C221.937 204.777 222.327 204.377 222.663 203.933C222.907 203.479 223.075 202.987 223.161 202.478C223.296 201.76 223.542 201.066 223.89 200.423C224.117 200.046 224.351 199.674 224.584 199.303C225.004 198.636 225.401 198.005 225.757 197.341C226.259 196.405 226.771 195.381 227.37 194.117C227.576 193.682 227.794 193.255 228.013 192.828C228.356 192.16 228.679 191.529 228.951 190.872C229.232 190.252 229.583 189.666 229.998 189.126C230.338 188.694 230.622 188.22 230.84 187.715C231.043 187.102 231.209 186.477 231.336 185.844C231.457 185.302 231.582 184.742 231.75 184.186C231.885 183.64 231.958 183.079 231.968 182.516C231.987 181.859 232.068 181.204 232.211 180.562C232.39 179.922 232.635 179.303 232.94 178.713C233.204 178.219 233.408 177.696 233.547 177.153C233.651 176.539 233.712 175.918 233.729 175.295C233.76 174.723 233.791 174.132 233.879 173.533C233.958 172.897 233.998 172.257 234 171.616C234.013 171.066 234.026 170.498 234.082 169.919C234.167 169.257 234.321 168.606 234.541 167.976C234.732 167.451 234.859 166.905 234.918 166.35C234.91 165.802 234.834 165.258 234.69 164.73C234.52 164.071 234.424 163.395 234.403 162.715C234.427 162.016 234.541 161.322 234.741 160.652C234.9 160.141 234.988 159.612 235.002 159.077C234.951 158.48 234.848 157.889 234.693 157.31C234.539 156.71 234.426 156.1 234.353 155.485C234.315 155.094 234.282 154.702 234.249 154.311C234.178 153.468 234.111 152.672 233.995 151.881C233.907 151.285 233.874 150.696 233.842 150.126C233.822 149.499 233.759 148.874 233.654 148.256C233.516 147.698 233.318 147.158 233.064 146.642C232.784 146.058 232.557 145.45 232.384 144.826C232.241 144.255 232.147 143.686 232.055 143.136C231.966 142.506 231.836 141.883 231.666 141.271C231.471 140.693 231.23 140.132 230.946 139.593C230.67 139.057 230.425 138.506 230.213 137.942C229.988 137.313 229.701 136.706 229.398 136.063C229.182 135.605 228.959 135.131 228.756 134.641C228.523 134.038 228.343 133.417 228.216 132.783C228.111 132.222 227.947 131.673 227.727 131.146L227.546 130.763C227.095 129.809 226.628 128.822 226.13 127.892C225.754 127.189 225.336 126.515 224.894 125.802C224.683 125.463 224.473 125.123 224.268 124.782C223.983 124.307 223.728 123.821 223.482 123.352C223.183 122.755 222.852 122.175 222.492 121.614C222.155 121.164 221.767 120.755 221.335 120.395C220.833 119.966 220.375 119.487 219.966 118.968C219.574 118.402 219.252 117.792 219.006 117.149C218.819 116.639 218.564 116.157 218.248 115.715C217.837 115.241 217.393 114.796 216.92 114.383C216.499 113.998 216.064 113.599 215.66 113.153C215.265 112.717 214.912 112.258 214.57 111.814C214.193 111.3 213.783 110.81 213.343 110.348C212.879 109.884 212.359 109.459 211.809 109.009C211.406 108.68 210.989 108.339 210.588 107.975C210.144 107.573 209.745 107.14 209.36 106.721C208.944 106.247 208.496 105.802 208.02 105.389C207.201 104.716 206.315 104.059 205.458 103.424L205.128 103.179C204.628 102.832 204.101 102.526 203.552 102.262C203.006 101.994 202.477 101.694 201.966 101.364C201.474 101.035 201.02 100.672 200.581 100.321C200.094 99.9127 199.581 99.537 199.045 99.1963C198.544 98.929 198.015 98.7177 197.468 98.5663C196.839 98.3841 196.228 98.1445 195.643 97.8505C195.105 97.5486 194.587 97.2118 194.093 96.8422C193.618 96.4792 193.113 96.1583 192.582 95.8832C192.038 95.6496 191.473 95.4651 190.896 95.3319C190.291 95.1853 189.697 94.998 189.117 94.7711C188.579 94.5478 188.07 94.288 187.577 94.0367C187.014 93.7332 186.432 93.4657 185.835 93.2359C185.292 93.0417 184.772 92.8107 184.269 92.5874C183.683 92.3118 183.081 92.0723 182.466 91.8702C181.891 91.7192 181.304 91.6193 180.712 91.5716C180.092 91.5148 179.477 91.4168 178.87 91.278C178.45 91.173 178.031 91.0595 177.612 90.946C176.839 90.7366 176.11 90.5389 175.362 90.3913C174.239 90.1688 173.03 89.9382 171.799 89.7571C171.178 89.6825 170.554 89.65 169.929 89.66C169.363 89.6555 168.777 89.6509 168.179 89.5925C167.489 89.5255 166.794 89.5157 166.057 89.5057C165.565 89.499 165.071 89.4919 164.574 89.4679C163.884 89.41 163.204 89.2643 162.55 89.0342C162.043 88.8479 161.512 88.7336 160.974 88.6944C160.433 88.7327 159.9 88.8453 159.389 89.0292C158.737 89.2543 158.06 89.3972 157.373 89.4544C156.708 89.4672 156.044 89.4153 155.39 89.2994C154.945 89.2226 154.494 89.1772 154.043 89.1635Z" fill="#D9DDF2"/>
<path d="M138.911 153.501L159.216 170.832C163.135 174.452 158.194 180.257 153.993 176.952C153.815 176.798 153.65 176.63 153.499 176.449L136.532 155.838C136.271 155.514 136.14 155.105 136.164 154.689C136.188 154.274 136.366 153.883 136.662 153.592C136.959 153.3 137.354 153.129 137.769 153.113C138.184 153.096 138.591 153.234 138.911 153.501Z" fill="#D9DDF2"/>
<path d="M189.539 137.691L160.322 176.806C156.978 180.938 150.874 176.404 153.892 172.004C154.222 171.526 186.852 136.175 187.197 135.748C187.463 135.466 187.826 135.295 188.213 135.271C188.6 135.248 188.982 135.372 189.28 135.62C189.579 135.867 189.772 136.219 189.82 136.604C189.868 136.989 189.767 137.378 189.539 137.691V137.691Z" fill="#D9DDF2"/>
<path d="M201.853 121.514C200.352 123.707 198.557 125.684 196.517 127.389C195.845 127.974 195.13 128.508 194.379 128.987C194.314 129.028 194.238 129.045 194.162 129.036C194.086 129.027 194.015 128.993 193.961 128.939C193.907 128.885 193.873 128.815 193.865 128.739C193.856 128.663 193.873 128.586 193.913 128.522C194.894 127.043 196.032 125.675 197.307 124.442C198.547 123.174 199.914 122.036 201.387 121.048C201.452 121.009 201.528 120.993 201.603 121.002C201.678 121.011 201.748 121.045 201.802 121.099C201.855 121.152 201.889 121.222 201.899 121.297C201.908 121.373 201.892 121.449 201.853 121.514Z" fill="#FFBF9E"/>
<path d="M128.034 195.333C126.534 197.526 124.739 199.503 122.699 201.208C122.027 201.793 121.312 202.327 120.561 202.806C120.496 202.846 120.419 202.863 120.343 202.855C120.268 202.846 120.197 202.812 120.143 202.758C120.089 202.704 120.055 202.633 120.046 202.558C120.037 202.482 120.055 202.405 120.095 202.34C121.076 200.862 122.214 199.494 123.489 198.261C124.729 196.993 126.096 195.855 127.569 194.867C127.634 194.828 127.71 194.812 127.785 194.821C127.86 194.83 127.93 194.864 127.984 194.918C128.037 194.971 128.071 195.041 128.08 195.116C128.09 195.191 128.073 195.267 128.034 195.332V195.333Z" fill="#FFBF9E"/>
<path d="M201.387 202.807C199.193 201.306 197.216 199.511 195.512 197.471C194.927 196.799 194.393 196.084 193.913 195.333C193.873 195.268 193.856 195.191 193.864 195.115C193.873 195.04 193.907 194.969 193.961 194.915C194.015 194.861 194.086 194.827 194.162 194.818C194.238 194.809 194.314 194.827 194.379 194.867C195.857 195.848 197.225 196.986 198.459 198.261C199.727 199.501 200.865 200.868 201.853 202.341C201.892 202.406 201.908 202.482 201.899 202.557C201.89 202.632 201.856 202.702 201.802 202.756C201.749 202.809 201.679 202.843 201.604 202.852C201.528 202.862 201.452 202.846 201.388 202.807H201.387Z" fill="#FFBF9E"/>
<path d="M127.568 128.987C125.374 127.487 123.397 125.692 121.692 123.652C121.107 122.98 120.573 122.265 120.094 121.514C120.054 121.449 120.036 121.372 120.045 121.297C120.054 121.221 120.088 121.15 120.142 121.096C120.196 121.042 120.267 121.008 120.342 120.999C120.418 120.991 120.495 121.008 120.56 121.048C122.038 122.029 123.406 123.167 124.64 124.442C125.908 125.682 127.045 127.049 128.033 128.522C128.072 128.587 128.088 128.663 128.079 128.738C128.07 128.813 128.036 128.883 127.982 128.936C127.929 128.99 127.859 129.024 127.784 129.033C127.709 129.043 127.633 129.026 127.568 128.987H127.568Z" fill="#FFBF9E"/>
<path d="M218.456 162.257C215.844 162.747 213.176 162.876 210.529 162.639C209.64 162.577 208.757 162.449 207.887 162.257C207.812 162.239 207.746 162.198 207.698 162.138C207.651 162.078 207.625 162.004 207.625 161.928C207.625 161.851 207.651 161.777 207.698 161.717C207.746 161.658 207.812 161.616 207.887 161.598C209.626 161.247 211.397 161.084 213.171 161.113C214.945 161.094 216.716 161.256 218.456 161.598C218.529 161.617 218.595 161.659 218.641 161.719C218.688 161.778 218.713 161.852 218.713 161.928C218.713 162.003 218.688 162.077 218.641 162.136C218.595 162.196 218.529 162.238 218.456 162.257Z" fill="#FFBF9E"/>
<path d="M114.06 162.257C111.448 162.747 108.781 162.876 106.133 162.638C105.244 162.577 104.361 162.449 103.491 162.257C103.417 162.239 103.35 162.197 103.303 162.138C103.255 162.078 103.229 162.004 103.229 161.928C103.229 161.851 103.255 161.777 103.303 161.717C103.35 161.658 103.417 161.616 103.491 161.598C105.23 161.247 107.002 161.084 108.776 161.113C110.549 161.094 112.32 161.256 114.06 161.598C114.134 161.617 114.199 161.659 114.246 161.719C114.292 161.778 114.318 161.852 114.318 161.928C114.318 162.003 114.292 162.077 114.246 162.136C114.199 162.196 114.134 162.238 114.06 162.257Z" fill="#FFBF9E"/>
<path d="M161.302 104.444C161.793 107.057 161.921 109.724 161.684 112.372C161.622 113.261 161.495 114.144 161.302 115.014C161.285 115.088 161.243 115.155 161.183 115.202C161.123 115.25 161.049 115.276 160.973 115.276C160.897 115.276 160.823 115.25 160.763 115.202C160.703 115.155 160.661 115.088 160.644 115.014C160.292 113.275 160.129 111.503 160.159 109.729C160.139 107.956 160.301 106.185 160.644 104.444C160.662 104.371 160.705 104.306 160.764 104.259C160.824 104.213 160.897 104.188 160.973 104.188C161.049 104.188 161.122 104.213 161.182 104.259C161.241 104.306 161.284 104.371 161.302 104.444Z" fill="#FFBF9E"/>
<path d="M161.302 208.841C161.793 211.453 161.921 214.12 161.684 216.768C161.622 217.657 161.495 218.54 161.302 219.41C161.285 219.484 161.243 219.551 161.183 219.598C161.123 219.646 161.049 219.671 160.973 219.671C160.897 219.671 160.823 219.646 160.763 219.598C160.703 219.551 160.661 219.484 160.644 219.41C160.292 217.671 160.129 215.899 160.159 214.125C160.139 212.352 160.301 210.581 160.644 208.841C160.662 208.767 160.704 208.702 160.764 208.655C160.824 208.609 160.897 208.583 160.973 208.583C161.049 208.583 161.122 208.609 161.182 208.655C161.241 208.702 161.284 208.767 161.302 208.841Z" fill="#FFBF9E"/>
<path d="M160.974 227.376C159.479 227.376 157.927 227.321 156.361 227.21C155.769 227.168 155.168 227.17 154.532 227.173C153.595 227.199 152.657 227.156 151.725 227.045C150.265 226.837 148.729 226.56 147.16 226.22C146.237 225.999 145.331 225.711 144.45 225.358C143.864 225.139 143.31 224.933 142.753 224.769C141.851 224.484 140.971 224.134 140.12 223.723C139.556 223.467 139.023 223.225 138.48 223.022C137.876 222.824 137.254 222.682 136.623 222.598C135.703 222.484 134.803 222.248 133.946 221.896C133.117 221.485 132.332 220.991 131.603 220.421C131.104 220.038 130.581 219.688 130.037 219.372C128.766 218.676 127.553 217.895 126.381 217.139L126.11 216.964C125.151 216.347 124.259 215.66 123.395 214.996C123.066 214.743 122.737 214.489 122.403 214.239C121.983 213.924 121.554 213.623 121.126 213.322C120.289 212.754 119.482 212.143 118.707 211.493C117.529 210.471 116.394 209.415 115.333 208.355C114.876 207.92 114.391 207.515 113.881 207.142C113.131 206.604 112.438 205.992 111.812 205.313C111.23 204.598 110.725 203.823 110.305 203.003C110.012 202.442 109.681 201.902 109.315 201.385C108.674 200.531 108.123 199.632 107.59 198.762C107.335 198.347 107.081 197.931 106.816 197.519C106.613 197.204 106.408 196.892 106.203 196.58C105.582 195.635 104.94 194.658 104.373 193.621C103.59 192.191 102.913 190.846 102.302 189.509C101.84 188.5 101.471 187.463 101.115 186.46C100.966 186.044 100.818 185.627 100.663 185.21C100.456 184.657 100.197 184.114 99.9227 183.539C99.4994 182.707 99.1439 181.842 98.8598 180.954C98.6973 180.399 98.494 179.848 98.2788 179.264C97.9287 178.377 97.6417 177.467 97.4198 176.54C97.2524 175.636 97.1761 174.717 97.1919 173.798C97.1963 173.164 97.1613 172.53 97.0869 171.901C97.0036 171.316 96.8579 170.722 96.704 170.094C96.4568 169.195 96.2875 168.276 96.1982 167.347C96.1169 166.196 96.1286 165.03 96.1398 163.903C96.1438 163.507 96.1477 163.111 96.1477 162.715C96.1477 162.376 96.1456 162.037 96.1435 161.699C96.1359 160.515 96.1285 159.29 96.2133 158.084C96.3027 157.156 96.472 156.237 96.7193 155.338C96.8735 154.71 97.0191 154.117 97.1024 153.532C97.2874 152.235 97.5653 150.97 97.8341 149.748L97.9945 149.015C98.1107 148.389 98.1806 147.756 98.2036 147.12C98.2282 146.201 98.3563 145.287 98.5855 144.396C98.8724 143.494 99.2254 142.614 99.6417 141.764C99.905 141.192 100.154 140.652 100.358 140.106C100.717 139.195 101.129 138.306 101.593 137.444C101.859 136.927 102.11 136.438 102.339 135.937C102.584 135.401 102.79 134.842 103.009 134.25C103.313 133.363 103.682 132.499 104.114 131.667C104.642 130.702 105.249 129.795 105.836 128.917C106.092 128.535 106.347 128.154 106.596 127.768L106.679 127.639C107.468 126.413 108.284 125.146 109.184 123.945C109.537 123.474 109.859 122.97 110.201 122.437C110.689 121.632 111.236 120.863 111.837 120.138C112.923 118.886 113.984 117.74 114.992 116.733C115.663 116.099 116.395 115.534 117.178 115.044C117.708 114.705 118.218 114.333 118.704 113.932C119.99 112.816 121.088 111.892 122.267 111.008C122.725 110.665 123.164 110.294 123.63 109.902C124.349 109.268 125.109 108.682 125.905 108.147C126.754 107.621 127.63 107.141 128.531 106.71C129.036 106.457 129.513 106.218 129.984 105.961C130.939 105.438 131.931 105.006 132.89 104.589C133.317 104.403 133.745 104.217 134.17 104.023C134.732 103.75 135.278 103.445 135.804 103.11C136.581 102.604 137.404 102.174 138.263 101.826C139.22 101.487 140.194 101.198 141.18 100.96C141.695 100.827 142.21 100.693 142.719 100.544C144.041 100.157 145.607 99.7137 147.194 99.3702C147.521 99.2991 147.85 99.2265 148.178 99.1526C149.331 98.8951 150.522 98.6291 151.735 98.4561C152.771 98.3084 153.817 98.2613 154.829 98.2159C155.338 98.193 155.847 98.1703 156.355 98.1345C156.857 98.0991 157.361 98.0501 157.866 98.0009C158.873 97.903 159.914 97.8018 160.974 97.8018C161.899 97.8315 162.818 97.965 163.713 98.1999C164.321 98.3534 164.94 98.4619 165.565 98.5247C166.203 98.5493 166.842 98.5229 167.475 98.4459C168.385 98.3271 169.306 98.3165 170.218 98.4142C171.132 98.5782 172.023 98.8565 172.867 99.2426C173.442 99.499 174.037 99.706 174.647 99.8612C175.206 99.9823 175.768 100.073 176.363 100.168C177.31 100.3 178.248 100.492 179.171 100.743L179.22 100.758C180.651 101.177 182.13 101.611 183.565 102.147C184.11 102.35 184.671 102.519 185.265 102.698C186.181 102.953 187.078 103.27 187.951 103.647C188.964 104.11 189.931 104.659 190.865 105.19C191.253 105.41 191.64 105.63 192.029 105.843C192.827 106.308 193.581 106.847 194.28 107.45C194.755 107.852 195.251 108.228 195.768 108.576L196.279 108.904C197.373 109.606 198.503 110.331 199.583 111.14C200.056 111.495 200.563 111.816 201.099 112.155C201.901 112.635 202.665 113.175 203.385 113.771C204.069 114.395 204.698 115.076 205.265 115.807C205.676 116.308 206.064 116.781 206.487 117.203C207.594 118.31 208.625 119.485 209.586 120.594C209.947 121.01 210.323 121.407 210.721 121.827C211.406 122.524 212.051 123.26 212.651 124.032C213.277 124.866 213.809 125.747 214.324 126.598C214.589 127.037 214.855 127.477 215.134 127.91C215.484 128.428 215.865 128.924 216.274 129.397C216.884 130.09 217.426 130.839 217.892 131.636C218.495 132.739 219.015 133.89 219.518 135.003L219.885 135.812C220.039 136.148 220.196 136.483 220.353 136.819C220.839 137.857 221.342 138.931 221.757 140.044C222.073 140.947 222.33 141.87 222.527 142.807C222.665 143.402 222.795 143.964 222.957 144.516C223.146 145.111 223.37 145.694 223.627 146.263C224.018 147.105 224.327 147.984 224.549 148.886C224.719 149.793 224.806 150.713 224.808 151.636C224.816 152.266 224.858 152.894 224.935 153.519C225.015 154.084 225.131 154.649 225.254 155.248C225.467 156.183 225.617 157.131 225.704 158.086C225.742 159.002 225.694 159.918 225.561 160.824C225.475 161.451 225.425 162.083 225.411 162.715C225.411 164.019 225.317 165.299 225.226 166.536L225.122 167.995C225.036 169.267 224.946 170.583 224.76 171.886C224.678 172.464 224.632 173.046 224.583 173.662C224.529 174.607 224.411 175.547 224.23 176.476C224.136 176.914 224.048 177.354 223.96 177.793C223.749 178.845 223.532 179.931 223.221 180.993C223.094 181.426 222.974 181.863 222.854 182.299C222.569 183.333 222.274 184.402 221.888 185.436C221.54 186.296 221.112 187.123 220.611 187.904C220.28 188.432 219.978 188.977 219.706 189.539C219.465 190.067 219.256 190.613 219.035 191.191C218.715 192.085 218.335 192.956 217.896 193.799C217.161 195.144 216.339 196.436 215.491 197.753C214.97 198.519 214.383 199.239 213.738 199.905C213.3 200.382 212.887 200.833 212.529 201.31C212.164 201.824 211.832 202.36 211.535 202.916C211.109 203.732 210.602 204.502 210.02 205.215C209.395 205.891 208.696 206.495 207.938 207.017C207.421 207.381 206.931 207.781 206.471 208.214C206.038 208.674 205.638 209.165 205.276 209.683C204.756 210.443 204.152 211.142 203.476 211.767C202.454 212.653 201.304 213.572 199.856 214.657C199.044 215.245 198.201 215.789 197.33 216.287C196.849 216.574 196.394 216.845 195.945 217.133C194.649 217.968 193.313 218.763 191.977 219.494C190.406 220.354 189.097 221.018 187.858 221.585C187.331 221.826 186.813 222.107 186.266 222.404C185.44 222.877 184.582 223.291 183.698 223.643C182.77 223.97 181.824 224.242 180.865 224.46C180.297 224.6 179.76 224.732 179.229 224.888C178.323 225.132 177.401 225.309 176.469 225.419C175.845 225.507 175.256 225.59 174.678 225.715C173.086 226.06 171.492 226.303 170.144 226.495C169.603 226.572 169.066 226.673 168.499 226.78C167.537 226.979 166.564 227.123 165.586 227.209C164.01 227.32 162.458 227.376 160.974 227.376ZM154.972 224.853C155.481 224.853 156.001 224.86 156.524 224.897C158.036 225.004 159.533 225.058 160.974 225.058C162.404 225.058 163.901 225.003 165.423 224.896C166.312 224.815 167.196 224.684 168.07 224.501C168.638 224.394 169.225 224.284 169.817 224.199C171.125 224.013 172.667 223.778 174.188 223.449C174.848 223.306 175.507 223.213 176.144 223.122C176.965 223.027 177.778 222.874 178.577 222.663C179.156 222.493 179.743 222.349 180.31 222.209C181.182 222.012 182.043 221.765 182.888 221.47C183.67 221.155 184.429 220.786 185.16 220.366C185.718 220.063 186.295 219.75 186.894 219.476C188.081 218.933 189.342 218.293 190.864 217.46C192.152 216.755 193.44 215.989 194.69 215.184C195.172 214.873 195.667 214.579 196.144 214.295C196.944 213.839 197.718 213.34 198.465 212.802C199.868 211.751 200.977 210.865 201.957 210.015C202.502 209.499 202.989 208.925 203.412 208.305C203.841 207.694 204.316 207.115 204.832 206.575C205.371 206.06 205.948 205.585 206.557 205.155C207.177 204.731 207.751 204.242 208.268 203.696C208.746 203.099 209.164 202.456 209.515 201.777C209.861 201.133 210.248 200.513 210.674 199.919C211.101 199.351 211.573 198.836 212.029 198.338C212.584 197.768 213.09 197.152 213.542 196.498C214.366 195.218 215.163 193.964 215.863 192.686C216.25 191.935 216.586 191.159 216.869 190.363C217.094 189.776 217.326 189.17 217.598 188.574C217.905 187.934 218.247 187.312 218.623 186.71C219.049 186.05 219.415 185.352 219.716 184.625C220.066 183.687 220.334 182.714 220.618 181.683C220.742 181.234 220.866 180.786 220.996 180.341C221.279 179.377 221.477 178.387 221.686 177.339C221.777 176.887 221.867 176.436 221.964 175.986C222.122 175.158 222.225 174.321 222.272 173.479C222.321 172.855 222.372 172.209 222.465 171.56C222.639 170.341 222.722 169.125 222.809 167.838L222.914 166.366C223.006 165.115 223.093 163.934 223.093 162.716C223.106 161.993 223.161 161.273 223.258 160.557C223.372 159.794 223.417 159.021 223.391 158.25C223.31 157.397 223.174 156.55 222.982 155.714C222.858 155.108 222.729 154.482 222.639 153.847C222.55 153.138 222.501 152.425 222.491 151.71C222.491 150.928 222.422 150.147 222.283 149.377C222.09 148.62 221.826 147.882 221.494 147.174C221.201 146.521 220.946 145.852 220.732 145.169C220.551 144.552 220.407 143.931 220.268 143.331C220.093 142.492 219.865 141.665 219.585 140.856C219.202 139.83 218.719 138.799 218.253 137.803C218.093 137.46 217.933 137.119 217.777 136.777L217.405 135.958C216.92 134.885 216.418 133.775 215.858 132.75C215.461 132.084 215.002 131.457 214.488 130.877C214.019 130.333 213.584 129.762 213.184 129.166C212.894 128.714 212.617 128.256 212.34 127.799C211.832 126.959 211.352 126.166 210.795 125.423C210.248 124.723 209.661 124.055 209.038 123.422C208.64 123.002 208.229 122.568 207.834 122.114C206.862 120.992 205.901 119.897 204.847 118.843C204.344 118.341 203.901 117.801 203.473 117.279C202.987 116.65 202.449 116.063 201.866 115.523C201.233 115.004 200.563 114.534 199.86 114.115C199.309 113.767 198.739 113.406 198.192 112.996C197.18 112.237 196.134 111.567 195.027 110.856L194.512 110.526C193.924 110.132 193.358 109.706 192.817 109.25C192.225 108.736 191.589 108.277 190.916 107.878C190.516 107.659 190.119 107.433 189.72 107.207C188.829 106.701 187.908 106.177 186.986 105.756C186.209 105.423 185.41 105.144 184.595 104.919C183.992 104.737 183.369 104.549 182.755 104.32C181.398 103.813 180.023 103.41 178.567 102.984L178.518 102.969C177.689 102.746 176.846 102.575 175.995 102.458C175.396 102.362 174.777 102.263 174.156 102.128C173.413 101.946 172.688 101.699 171.989 101.389C171.319 101.08 170.615 100.852 169.891 100.711C169.157 100.643 168.419 100.658 167.688 100.756C166.93 100.846 166.165 100.873 165.402 100.839C164.661 100.769 163.927 100.644 163.205 100.463C162.476 100.269 161.728 100.155 160.973 100.121C160.027 100.121 159.086 100.213 158.09 100.31C157.564 100.361 157.04 100.412 156.518 100.448C155.991 100.486 155.462 100.51 154.933 100.533C153.932 100.578 152.987 100.621 152.062 100.753C150.939 100.913 149.793 101.169 148.684 101.416C148.35 101.491 148.017 101.565 147.684 101.637C146.17 101.965 144.654 102.394 143.371 102.771C142.839 102.926 142.3 103.066 141.762 103.206C140.853 103.424 139.955 103.689 139.074 103.999C138.353 104.299 137.662 104.664 137.01 105.092C136.406 105.475 135.78 105.823 135.135 106.132C134.697 106.332 134.256 106.524 133.815 106.716C132.861 107.131 131.96 107.523 131.097 107.996C130.589 108.274 130.07 108.533 129.569 108.784C128.743 109.178 127.939 109.616 127.16 110.097C126.449 110.579 125.769 111.106 125.125 111.675C124.655 112.071 124.17 112.481 123.658 112.864C122.535 113.707 121.473 114.601 120.223 115.684C119.666 116.149 119.08 116.579 118.47 116.971C117.814 117.379 117.199 117.848 116.632 118.373C115.663 119.342 114.639 120.447 113.59 121.658C113.063 122.299 112.584 122.977 112.154 123.687C111.805 124.233 111.444 124.797 111.04 125.337C110.189 126.471 109.396 127.704 108.629 128.895L108.546 129.024C108.29 129.421 108.027 129.815 107.764 130.208C107.179 131.082 106.627 131.907 106.149 132.78C105.773 133.514 105.45 134.274 105.185 135.055C104.961 135.66 104.73 136.287 104.448 136.902C104.197 137.451 103.922 137.987 103.656 138.504C103.234 139.286 102.858 140.092 102.531 140.918C102.297 141.545 102.018 142.15 101.748 142.735C101.381 143.483 101.067 144.257 100.811 145.05C100.634 145.776 100.536 146.519 100.518 147.267C100.489 148.019 100.404 148.767 100.261 149.506L100.099 150.246C99.8278 151.482 99.5713 152.649 99.3986 153.86C99.299 154.559 99.1326 155.237 98.9715 155.892C98.7575 156.664 98.6088 157.452 98.5269 158.248C98.4482 159.366 98.4553 160.492 98.4629 161.685C98.465 162.029 98.4672 162.372 98.4672 162.716C98.4672 163.12 98.4629 163.524 98.4591 163.927C98.4478 165.059 98.437 166.127 98.5118 167.185C98.5937 167.982 98.7424 168.771 98.9564 169.543C99.1172 170.198 99.2835 170.876 99.383 171.575C99.4722 172.301 99.5148 173.032 99.5108 173.764C99.4954 174.53 99.5543 175.296 99.6866 176.05C99.8865 176.871 100.143 177.677 100.455 178.463C100.674 179.057 100.901 179.672 101.086 180.302C101.336 181.072 101.647 181.821 102.016 182.541C102.3 183.136 102.594 183.752 102.836 184.4C102.995 184.828 103.148 185.257 103.3 185.684C103.655 186.684 103.991 187.628 104.411 188.546C104.999 189.831 105.652 191.128 106.408 192.509C106.93 193.464 107.519 194.359 108.141 195.307C108.35 195.626 108.558 195.945 108.766 196.265C109.04 196.691 109.304 197.121 109.568 197.551C110.096 198.414 110.595 199.228 111.171 199.995C111.601 200.596 111.99 201.225 112.334 201.879C112.678 202.557 113.091 203.199 113.565 203.795C114.09 204.353 114.669 204.859 115.294 205.304C115.884 205.737 116.445 206.209 116.973 206.716C118.009 207.752 119.074 208.742 120.227 209.742C120.942 210.341 121.688 210.903 122.46 211.426C122.908 211.74 123.356 212.055 123.795 212.385C124.136 212.641 124.473 212.9 124.81 213.159C125.674 213.824 126.489 214.451 127.366 215.016L127.638 215.191C128.828 215.958 129.953 216.683 131.15 217.338C131.783 217.702 132.392 218.106 132.972 218.55C133.576 219.025 134.226 219.44 134.911 219.788C135.585 220.05 136.288 220.226 137.006 220.312C137.783 220.417 138.548 220.597 139.291 220.85C139.91 221.081 140.505 221.352 141.08 221.613C141.832 221.978 142.61 222.289 143.406 222.545C144.043 222.732 144.662 222.963 145.261 223.186C146.039 223.499 146.837 223.755 147.651 223.954C149.166 224.282 150.647 224.55 152.053 224.75C152.873 224.844 153.698 224.879 154.523 224.855C154.671 224.854 154.821 224.853 154.972 224.853Z" fill="#D9DDF2"/>
</svg>
