<svg width="320" height="320" viewBox="0 0 320 320" fill="none" xmlns="http://www.w3.org/2000/svg">
<path d="M205.861 83.6653L205.385 72.9329C199.37 73.1977 194.278 68.564 194.012 62.5807C193.746 56.5974 198.404 51.5323 204.419 51.2675L203.942 40.5351C203.766 36.5334 200.357 33.4329 196.339 33.6123L169.717 34.7824L172.868 92.3776L198.898 91.233C202.92 91.0579 206.037 87.667 205.857 83.6696L205.861 83.6653Z" fill="#BCBDD2"/>
<path d="M205.047 83.7037L204.506 72.9713L205.424 73.8041C202.333 73.9664 199.195 72.8774 196.894 70.8018C192.034 66.6079 191.587 58.6943 195.979 53.9708C198.079 51.6091 201.166 50.1186 204.364 49.9478L203.102 51.323C202.982 49.3627 202.681 44.1225 202.565 42.2178L202.475 40.7017C202.458 40.4582 202.428 40.2874 202.411 40.0781C201.96 36.9178 198.869 34.7952 195.743 35.2479C195.125 35.3034 182.95 35.8843 182.009 35.9398L169.799 36.4864L171.439 34.6842C172.341 51.0326 173.474 75.7217 174.209 92.3007L172.813 91.0451L182.185 90.729C186.693 90.6052 191.712 90.4942 196.25 90.3959C197.272 90.349 199.174 90.3959 200.161 90.1696C203.08 89.529 205.223 86.6719 205.055 83.6994L205.047 83.7037ZM206.674 83.6311C206.893 87.6071 203.883 91.3312 199.942 92.0017C199.538 92.0914 199.083 92.1085 198.671 92.1469C193.339 92.463 187.608 92.8943 182.293 93.1933L172.929 93.7015C172.204 93.7399 171.585 93.1933 171.538 92.4715V92.4459C170.525 75.7943 168.829 51.3059 168.005 34.8678C167.949 33.9197 168.692 33.104 169.645 33.0656L181.859 32.5403L194.073 32.0748C194.631 32.0491 195.829 32.015 196.383 32.0022C197.933 31.968 199.5 32.3395 200.852 33.0869C203.312 34.4066 205.038 36.9263 205.356 39.6809C205.48 41.0946 205.502 43.6826 205.562 45.1304L205.742 51.2077V51.2504C205.764 51.9636 205.197 52.5615 204.48 52.5786C199.264 52.6341 194.846 57.3191 195.086 62.5294C195.134 67.8464 200.002 72.3435 205.356 72.0574C205.837 72.0403 206.244 72.4119 206.262 72.8945L206.674 83.6311Z" fill="#626493"/>
<path d="M117.74 199.577L108.678 242.099L188.719 258.98L197.781 216.458L117.74 199.577Z" fill="#BCBDD2"/>
<path d="M188.722 258.992C162.859 254.102 134.121 248.682 108.404 243.408L107.104 243.143L107.374 241.832C109.903 229.284 113.943 210.45 116.587 197.809C136.499 202.058 158.257 206.671 178.023 211.091C184.982 212.646 191.95 214.175 198.905 215.772L198.699 216.66C196.046 228.55 191.534 246.999 188.722 258.992ZM188.722 258.992C190.937 246.901 194.569 228.2 196.874 216.276L197.591 217.373C190.898 216.084 184.214 214.73 177.529 213.402C158.214 209.545 136.821 205.108 117.433 201.042L119.215 199.889C116.677 211.958 112.59 230.467 109.989 242.378L108.958 240.803L118.833 242.964C140.848 247.862 166.676 253.85 188.722 258.987V258.992Z" fill="#626493"/>
<path d="M151.314 236.639C151.314 236.639 151.327 236.6 151.301 236.617L151.237 236.643L151.108 236.69C151.022 236.72 150.937 236.754 150.851 236.78C149.099 237.322 147.176 237.681 145.222 237.604C144.402 237.561 143.775 237.382 143.024 237.331C142.29 237.284 140.702 237.143 140.01 237.126C139.139 237.07 138.147 236.903 137.293 236.792C136.554 236.681 135.468 236.425 134.725 236.289C133.463 236.037 131.84 235.729 130.625 235.422C129.342 235.114 127.981 234.696 126.693 234.388C125.336 234.196 123.988 233.444 122.7 233.098C121.708 232.863 120.536 232.342 119.635 231.949C119.021 231.706 118.373 231.586 117.66 231.279C116.385 230.702 115.178 230.07 113.929 229.502C113.384 229.267 112.508 229.037 111.928 228.682C109.507 227.346 107.086 225.992 104.759 224.501C103.87 224.023 102.848 223.348 102.011 222.78C101.462 222.451 100.77 221.862 100.268 221.469C99.3322 220.764 97.9885 219.628 97.0525 218.902C96.503 218.441 96.0436 218.206 95.4168 217.707L93.7511 216.306L93.6523 216.22C93.193 215.827 92.6434 215.131 92.2699 214.773L90.7673 213.355C89.9988 212.633 88.5005 211.125 87.7835 210.357C87.2211 209.72 86.8133 209.152 86.5042 208.823C86.0748 208.371 85.3579 207.739 84.95 207.171C84.5636 206.662 84.3618 206.308 84.0527 205.894C83.8166 205.608 82.812 204.296 82.5716 203.993C82.3183 203.681 81.7301 203.066 81.4897 202.712C81.0475 202.131 80.7083 201.414 80.3735 200.888C78.4544 198.181 76.677 195.358 75.2259 192.377C74.8653 191.689 74.5175 190.788 74.1827 190.135C73.7405 189.434 73.2553 188.512 72.9162 187.675C72.4826 186.744 72.0876 185.727 71.6883 184.779C70.8984 182.473 69.9539 180.192 69.3571 177.826C68.9879 176.502 68.7002 175.08 68.3267 173.769C68.2108 173.304 67.9404 172.373 67.7901 171.916C67.5583 171.228 67.4595 170.203 67.3951 169.545C67.2534 168.559 66.8799 167.508 66.8198 166.483L66.7425 165.484C66.588 164.421 66.266 162.55 66.3261 161.35L66.1544 159.338L66.12 158.928C66.0428 158.313 65.9183 157.694 65.9655 157.002C66.09 155.58 66.5794 154.111 67.6355 153.116C67.6355 152.894 67.8158 152.714 68.0391 152.714C68.2623 152.714 68.4427 152.894 68.4427 153.116C68.4942 153.107 68.5113 153.133 68.5285 153.154L68.5843 153.223L68.6917 153.359C69.37 154.359 69.9023 155.409 70.1084 156.567C70.19 157.054 70.2286 157.301 70.3145 157.861C70.4605 158.881 70.5721 160.052 70.6708 161.072C70.6794 162.601 70.9069 163.391 71.1517 165.023L71.2547 166.052C71.289 166.351 71.3191 166.535 71.3792 166.787C71.508 167.278 71.6668 167.846 71.7656 168.324C71.9287 169.042 71.9244 169.913 72.1563 170.613C72.3323 171.113 72.65 172.146 72.7874 172.663C73.1995 173.923 73.4356 175.226 73.8135 176.485C74.3973 178.715 75.3204 180.854 76.0888 183.028C76.5826 184.207 77.1364 185.458 77.6773 186.611C77.7932 186.842 78.1925 187.487 78.3728 187.799C78.6562 188.29 78.9266 188.935 79.1284 189.396C79.3087 189.831 79.7338 190.613 79.9441 191.049C81.2278 193.547 82.7648 195.904 84.3962 198.189C84.7182 198.659 85.0874 199.385 85.3965 199.846C85.6412 200.179 86.2509 200.824 86.5042 201.162C86.7832 201.52 87.307 202.208 87.5946 202.575C87.9939 203.062 88.4747 203.818 88.801 204.267C89.196 204.766 89.5566 205.031 90.0546 205.578C90.6686 206.257 91.0421 206.803 91.3855 207.183C92.0553 207.901 93.4377 209.306 94.1461 209.989C94.6784 210.506 96.0007 211.757 96.4043 212.287C96.5417 212.436 96.7606 212.701 96.9195 212.825L98.362 214.076C98.7312 214.371 99.388 214.802 99.8131 215.161C100.599 215.798 101.934 216.912 102.702 217.557C103.136 217.882 103.814 218.471 104.244 218.796C105.115 219.398 106.133 220.119 107.064 220.636C109.305 222.11 111.624 223.472 113.955 224.805C114.174 224.937 114.367 225.022 114.633 225.121C115.153 225.296 116.114 225.727 116.672 226.03C117.505 226.427 118.557 227.004 119.339 227.384C120.171 227.704 121.404 228.076 122.232 228.524C123.181 229.003 123.954 229.118 124.988 229.511C125.692 229.78 126.075 230.032 126.714 230.228C127.599 230.455 128.758 230.758 129.659 231.044C131.858 231.74 134.27 232.236 136.52 232.744C137.374 232.974 138.512 233.154 139.392 233.286C140.659 233.474 142.11 233.53 143.372 233.683C144.02 233.735 144.819 233.914 145.394 234.008L146.347 234.11C146.678 234.153 147.013 234.2 147.343 234.26C148.09 234.405 149.438 234.516 150.344 234.849L150.851 235.02C150.937 235.046 151.018 235.084 151.104 235.114L151.233 235.165L151.297 235.191C151.323 235.191 151.306 235.242 151.31 235.268L151.619 236.468C151.671 236.639 151.435 236.775 151.31 236.643L151.314 236.639Z" fill="#FFBF9E"/>
<path d="M153.984 71.0282C153.984 71.0282 153.971 71.0666 153.997 71.0495L154.061 71.0239L154.19 70.9769C154.276 70.947 154.362 70.9128 154.448 70.8872C156.199 70.3448 158.123 69.9861 160.076 70.063C160.896 70.1057 161.523 70.285 162.274 70.3363C163.008 70.3833 164.597 70.5242 165.288 70.5413C166.159 70.5968 167.151 70.7634 168.006 70.8744C168.744 70.9854 169.83 71.2417 170.573 71.3784C171.835 71.6303 173.458 71.9378 174.673 72.2453C175.957 72.5528 177.317 72.9713 178.605 73.2788C179.962 73.471 181.31 74.2227 182.598 74.5686C183.59 74.8035 184.762 75.3245 185.663 75.7174C186.277 75.9609 186.926 76.0804 187.638 76.3879C188.913 76.9645 190.12 77.5965 191.369 78.1646C191.914 78.3994 192.79 78.6301 193.37 78.9845C195.787 80.3213 198.212 81.6751 200.539 83.1656C201.428 83.6439 202.45 84.3187 203.287 84.8867C203.837 85.2155 204.528 85.8049 205.03 86.1978C205.966 86.9025 207.31 88.0385 208.246 88.7645C208.795 89.2258 209.255 89.4607 209.881 89.9603L211.547 91.3611L211.646 91.4465C212.105 91.8395 212.655 92.5356 213.028 92.8943L214.531 94.3122C215.299 95.034 216.798 96.5415 217.515 97.3103C218.077 97.9466 218.485 98.5146 218.794 98.8435C219.223 99.2962 219.94 99.9282 220.348 100.496C220.735 101.004 220.936 101.359 221.246 101.773C221.482 102.059 222.486 103.37 222.727 103.674C222.98 103.985 223.568 104.6 223.809 104.955C224.251 105.536 224.59 106.253 224.925 106.778C226.844 109.486 228.621 112.309 230.072 115.29C230.433 115.978 230.781 116.879 231.116 117.532C231.558 118.233 232.043 119.155 232.382 119.992C232.816 120.923 233.211 121.94 233.61 122.888C234.4 125.194 235.344 127.474 235.941 129.84C236.31 131.164 236.598 132.587 236.972 133.898C237.087 134.363 237.358 135.294 237.508 135.751C237.74 136.439 237.839 137.464 237.903 138.121C238.045 139.108 238.418 140.159 238.478 141.184L238.556 142.183C238.71 143.246 239.032 145.117 238.972 146.317L239.144 148.328L239.178 148.738C239.255 149.353 239.38 149.973 239.333 150.665C239.208 152.087 238.719 153.556 237.663 154.551C237.663 154.773 237.482 154.952 237.259 154.952C237.036 154.952 236.856 154.773 236.856 154.551C236.804 154.559 236.787 154.534 236.77 154.513L236.714 154.444L236.607 154.308C235.928 153.308 235.396 152.258 235.19 151.1C235.108 150.613 235.07 150.366 234.984 149.806C234.838 148.785 234.726 147.615 234.627 146.595C234.619 145.066 234.391 144.276 234.147 142.644L234.044 141.615C234.009 141.316 233.979 141.132 233.919 140.88C233.79 140.389 233.631 139.821 233.533 139.343C233.37 138.625 233.374 137.754 233.142 137.054C232.966 136.554 232.648 135.521 232.511 135.004C232.099 133.744 231.863 132.441 231.485 131.181C230.901 128.952 229.978 126.813 229.209 124.639C228.716 123.46 228.162 122.209 227.621 121.056C227.505 120.825 227.106 120.18 226.925 119.868C226.642 119.377 226.372 118.732 226.17 118.271C225.99 117.835 225.564 117.054 225.354 116.618C224.07 114.12 222.533 111.762 220.902 109.478C220.58 109.008 220.211 108.282 219.902 107.821C219.657 107.487 219.047 106.843 218.794 106.505C218.515 106.146 217.991 105.459 217.704 105.092C217.304 104.605 216.824 103.849 216.497 103.4C216.102 102.901 215.742 102.636 215.244 102.089C214.63 101.41 214.256 100.864 213.913 100.483C213.243 99.7659 211.861 98.3609 211.152 97.6775C210.62 97.1608 209.298 95.9095 208.894 95.3799C208.757 95.2304 208.538 94.9656 208.379 94.8418L206.936 93.5905C206.567 93.2958 205.91 92.8644 205.485 92.5057C204.7 91.8693 203.364 90.7547 202.596 90.1098C202.162 89.7852 201.484 89.1959 201.055 88.8713C200.183 88.2691 199.166 87.5474 198.234 87.0306C195.993 85.5572 193.675 84.1948 191.343 82.8624C191.124 82.73 190.931 82.6446 190.665 82.5463C190.146 82.3712 189.184 81.9399 188.626 81.6367C187.793 81.2395 186.741 80.6629 185.96 80.2828C185.127 79.9625 183.895 79.591 183.066 79.1426C182.117 78.6642 181.344 78.5489 180.31 78.156C179.606 77.887 179.224 77.635 178.584 77.4385C177.7 77.2122 176.54 76.909 175.639 76.6228C173.441 75.9267 171.028 75.4313 168.778 74.9231C167.924 74.6924 166.786 74.5131 165.906 74.3807C164.64 74.1928 163.189 74.1373 161.926 73.9835C161.278 73.9323 160.48 73.7529 159.904 73.6589L158.951 73.5564C158.621 73.5137 158.286 73.4667 157.955 73.4112C157.208 73.266 155.86 73.155 154.954 72.8219L154.448 72.651C154.362 72.6254 154.28 72.587 154.194 72.5571L154.066 72.5058L154.001 72.4802C153.975 72.4802 153.993 72.429 153.988 72.4033L153.679 71.2033C153.628 71.0324 153.864 70.8958 153.988 71.0282H153.984Z" fill="#FFBF9E"/>
<path d="M69.5937 114.735C69.1858 114.688 68.7909 114.568 68.3873 114.534C67.9837 114.5 67.5673 114.568 67.168 114.551C66.7688 114.534 66.3523 114.619 65.9531 114.619C65.5495 114.619 65.1416 114.47 64.7338 114.487C64.3259 114.504 63.931 114.598 63.5231 114.632C63.1153 114.666 62.7332 114.824 62.3296 114.871C61.9604 114.923 61.5912 114.931 61.2305 114.995C60.8699 115.059 60.4621 114.935 60.1014 115.012C59.7408 115.089 59.3759 115.187 59.0195 115.277C58.6632 115.367 58.3069 115.499 57.9548 115.602C57.6028 115.704 57.2507 115.849 56.903 115.965C56.5552 116.08 56.2118 116.247 55.8683 116.375C55.5249 116.503 55.2201 116.751 54.8809 116.896C54.5417 117.041 54.1425 117.054 53.8076 117.208C53.4727 117.361 53.2151 117.682 52.8888 117.848C52.5626 118.015 52.1289 117.993 51.807 118.173C51.485 118.352 51.236 118.664 50.9226 118.856C50.6092 119.048 50.3344 119.304 50.0296 119.509C49.7248 119.714 49.304 119.761 49.0035 119.975C48.703 120.189 48.3638 120.359 48.0719 120.59C47.7799 120.821 47.6168 121.201 47.3334 121.44C47.0501 121.679 46.814 121.965 46.5435 122.213C46.273 122.461 46.0068 122.713 45.745 122.973C45.4831 123.234 45.1267 123.4 44.8734 123.669C44.6201 123.938 44.384 124.224 44.1436 124.502C43.9032 124.78 43.6928 125.087 43.4653 125.377C43.2377 125.668 42.9415 125.907 42.7225 126.206C42.5036 126.505 42.4435 126.911 42.2374 127.214C42.0313 127.517 41.8467 127.833 41.6535 128.149C41.4603 128.465 41.2457 128.76 41.0654 129.08C40.8851 129.4 40.6618 129.695 40.4944 130.024C40.3269 130.353 40.1209 130.66 39.9663 130.993C39.8118 131.327 39.5928 131.634 39.4468 131.976C39.3009 132.317 39.1892 132.668 39.0604 133.014C38.9316 133.359 38.9918 133.769 38.8758 134.12C38.7599 134.47 38.5109 134.777 38.4079 135.128C38.3048 135.478 38.2404 135.845 38.1503 136.204C38.0601 136.563 38.1074 136.947 38.0301 137.306C37.9528 137.664 37.7296 137.997 37.6694 138.36C37.6093 138.724 37.5449 139.087 37.4977 139.454C37.4505 139.821 37.399 140.184 37.3689 140.551C37.3389 140.919 37.3432 141.29 37.326 141.658C37.3088 142.025 37.326 142.392 37.326 142.764C37.326 143.135 37.429 143.494 37.4419 143.865C37.4548 144.237 37.3174 144.604 37.3389 144.976C37.3603 145.347 37.3947 145.71 37.4376 146.078C37.4805 146.445 37.4763 146.817 37.5278 147.18C37.5793 147.543 37.6952 147.897 37.7639 148.26C37.8326 148.623 38.0043 148.96 38.0859 149.319C38.1675 149.678 38.2834 150.024 38.3778 150.383C38.4723 150.741 38.3778 151.147 38.4852 151.502C38.5925 151.856 38.7986 152.172 38.9231 152.522C39.0476 152.872 39.2579 153.18 39.391 153.526C39.5241 153.872 39.567 154.248 39.7173 154.585C39.8676 154.922 40.0951 155.221 40.254 155.554C40.4128 155.888 40.6146 156.191 40.7906 156.52C40.9666 156.849 40.958 157.267 41.1426 157.587C41.3273 157.908 41.7093 158.104 41.9068 158.42C42.1043 158.736 42.1344 159.146 42.3447 159.454C42.5551 159.761 42.8299 160.013 43.0488 160.312C43.2678 160.611 43.418 160.961 43.6456 161.252C43.8731 161.542 44.2423 161.717 44.4828 161.999C44.706 162.264 44.9808 162.494 45.204 162.759C45.4273 163.024 45.4745 163.438 45.6977 163.707C45.921 163.976 46.2387 164.169 46.4576 164.442C46.6766 164.715 46.7882 165.07 46.9986 165.343C47.2218 165.638 47.5481 165.847 47.7628 166.129C47.9774 166.411 48.1019 166.791 48.3209 167.073C48.5398 167.355 48.8404 167.598 49.0593 167.88C49.2783 168.162 49.523 168.448 49.7376 168.734C49.9523 169.02 50.2872 169.238 50.5061 169.52C50.7251 169.802 50.9311 170.118 51.1458 170.404C51.3605 170.69 51.3691 171.151 51.5837 171.437C51.7984 171.723 52.1075 171.958 52.3178 172.249C52.5282 172.539 52.6957 172.872 52.906 173.163C53.1164 173.453 53.3225 173.761 53.5285 174.055C53.7346 174.35 53.9063 174.675 54.1124 174.969C54.3185 175.264 54.6319 175.495 54.8337 175.793C55.0354 176.092 55.3574 176.315 55.5549 176.622C55.7524 176.93 55.7825 177.331 55.9757 177.643C56.1689 177.954 56.4994 178.168 56.6883 178.48C56.8772 178.792 56.933 179.172 57.1177 179.488C57.3023 179.804 57.5813 180.051 57.7616 180.372C57.9419 180.692 57.9677 181.076 58.1437 181.401C58.3197 181.726 58.5816 181.978 58.7534 182.306C58.9251 182.635 58.9852 182.994 59.1526 183.323C59.3201 183.652 59.4403 183.981 59.6034 184.309C59.7666 184.638 59.9769 184.924 60.1401 185.257C60.3032 185.591 60.5265 185.868 60.6853 186.201C60.8441 186.534 60.9343 186.876 61.0932 187.213C61.252 187.551 61.4667 187.828 61.6212 188.166C61.7758 188.503 62.0248 188.772 62.1793 189.11C62.3339 189.447 62.4756 189.767 62.6258 190.105C62.7761 190.442 62.6773 190.865 62.8276 191.202C62.9779 191.54 63.3213 191.775 63.4716 192.112C63.6218 192.449 63.5489 192.864 63.6948 193.201C63.888 193.649 64.3817 193.837 64.7381 194.068C65.1202 194.32 65.5023 194.452 65.9488 194.457C65.9531 194.457 65.9531 194.7 65.9616 194.7C66.4081 194.7 66.9276 194.529 67.3097 194.277C67.666 194.047 67.9623 193.628 68.1555 193.175C68.3014 192.838 68.4689 192.513 68.6105 192.185C68.7522 191.856 68.6878 191.42 68.8295 191.091C68.9712 190.762 69.3833 190.536 69.5293 190.207C69.6753 189.878 69.5508 189.417 69.6967 189.093C69.8427 188.768 70.0917 188.465 70.2377 188.144C70.3836 187.824 70.6326 187.521 70.7829 187.196C70.9332 186.872 71.0663 186.522 71.2208 186.201C71.3754 185.881 71.4011 185.475 71.5557 185.155C71.7102 184.835 71.9721 184.54 72.131 184.224C72.2898 183.908 72.4658 183.571 72.629 183.254C72.7921 182.938 72.981 182.614 73.1485 182.298C73.3159 181.982 73.6035 181.708 73.771 181.397C73.9384 181.085 74.0414 180.713 74.2175 180.402C74.3935 180.09 74.6124 179.787 74.7928 179.479C74.9731 179.172 75.1663 178.856 75.3509 178.548C75.5355 178.241 75.5698 177.826 75.7587 177.523C75.9476 177.22 76.3211 177.015 76.5143 176.716C76.7075 176.417 76.9394 176.131 77.1411 175.828C77.3429 175.524 77.5962 175.26 77.8023 174.965C78.0084 174.67 78.0813 174.282 78.2917 173.983C78.5021 173.684 78.721 173.402 78.9357 173.107C79.1504 172.813 79.4165 172.565 79.6355 172.27C79.8544 171.975 80.0305 171.668 80.2494 171.373C80.4684 171.079 80.5671 170.716 80.7904 170.421C81.0136 170.126 81.3742 169.96 81.5975 169.669C81.8207 169.379 82.0654 169.123 82.293 168.832C82.5205 168.542 82.7352 168.264 82.9627 167.974C83.1903 167.683 83.4092 167.41 83.6325 167.12C83.8557 166.829 83.9759 166.475 84.1992 166.184C84.4224 165.894 84.5083 165.514 84.7315 165.219C84.9419 164.942 85.1995 164.694 85.4141 164.421C85.6288 164.147 85.8606 163.882 86.0839 163.613C86.3071 163.344 86.5475 163.092 86.7708 162.823C86.994 162.554 87.3547 162.4 87.5779 162.131C87.8183 161.85 87.8527 161.401 88.0802 161.115C88.3078 160.829 88.6383 160.611 88.8573 160.316C89.0762 160.022 89.1836 159.646 89.3896 159.343C89.5957 159.039 90.0207 158.869 90.2182 158.561C90.4157 158.254 90.5703 157.903 90.7506 157.587C90.9309 157.271 91.0253 156.891 91.1971 156.567C91.3688 156.242 91.5062 155.896 91.665 155.567C91.8239 155.238 92.0085 154.914 92.1588 154.576C92.309 154.239 92.4035 153.88 92.5366 153.539C92.6696 153.197 92.7856 152.847 92.9058 152.501C93.026 152.155 93.3222 151.86 93.4295 151.51C93.5369 151.16 93.5755 150.78 93.67 150.425C93.7644 150.071 93.9104 149.721 93.992 149.362C94.0735 149.003 93.9276 148.597 93.992 148.234C94.0564 147.871 94.2882 147.538 94.3397 147.175C94.3912 146.812 94.3483 146.432 94.3869 146.069C94.4256 145.706 94.6402 145.347 94.6617 144.984C94.6832 144.621 94.4556 144.237 94.4642 143.87C94.4728 143.502 94.4427 143.139 94.4384 142.772C94.4341 142.405 94.6617 142.029 94.6445 141.662C94.6273 141.294 94.5501 140.927 94.52 140.56C94.49 140.193 94.3182 139.842 94.271 139.475C94.2238 139.108 94.4213 138.706 94.3612 138.343C94.3011 137.98 94.1937 137.622 94.1207 137.259C94.0478 136.896 93.9962 136.524 93.9104 136.17C93.8245 135.815 93.4896 135.516 93.3866 135.166C93.2836 134.816 93.2449 134.44 93.129 134.09C93.0131 133.74 93.0474 133.334 92.9187 132.988C92.7899 132.642 92.6267 132.305 92.4807 131.967C92.3348 131.63 91.9613 131.391 91.8067 131.058C91.6522 130.724 91.6693 130.306 91.5019 129.977C91.3345 129.648 91.0254 129.396 90.845 129.076C90.6647 128.756 90.596 128.367 90.4028 128.055C90.2096 127.743 89.9735 127.453 89.7674 127.146C89.5614 126.838 89.3295 126.552 89.1106 126.253C88.8916 125.954 88.5525 125.753 88.3206 125.467C88.0888 125.181 87.887 124.878 87.6423 124.596C87.3976 124.314 87.3375 123.878 87.0885 123.609C86.8395 123.34 86.496 123.152 86.2341 122.892C85.9723 122.631 85.8048 122.273 85.5301 122.021C85.2553 121.769 84.8217 121.705 84.5383 121.465C84.255 121.226 83.9459 121.03 83.6539 120.803C83.362 120.577 83.1903 120.197 82.8897 119.979C82.5892 119.761 82.1771 119.71 81.868 119.505C81.5588 119.3 81.3614 118.933 81.0437 118.736C80.726 118.54 80.3739 118.416 80.0519 118.233C79.7299 118.049 79.4122 117.865 79.0817 117.699C78.7511 117.532 78.4377 117.327 78.1028 117.173C77.7679 117.02 77.4417 116.827 77.1025 116.687C76.7633 116.546 76.3469 116.588 75.9991 116.46C75.6514 116.332 75.3509 116.076 74.9988 115.96C74.6468 115.845 74.3033 115.696 73.947 115.593C73.5907 115.491 73.2 115.525 72.8394 115.435C72.4787 115.345 72.1095 115.32 71.7446 115.243C71.3797 115.166 71.0276 115.068 70.6627 115C70.2978 114.931 69.95 114.79 69.5808 114.739L69.5937 114.735ZM65.9488 155.815C65.5795 155.815 65.2275 155.721 64.8669 155.691C64.5062 155.661 64.1327 155.712 63.7764 155.653C63.4201 155.593 63.038 155.614 62.6859 155.525C62.3339 155.435 62.0291 155.179 61.6856 155.059C61.3422 154.939 60.9772 154.875 60.6467 154.73C60.3161 154.585 59.9297 154.529 59.6077 154.359C59.2857 154.188 58.9938 153.953 58.689 153.756C58.3841 153.56 58.2081 153.188 57.9205 152.966C57.6328 152.744 57.3538 152.527 57.0876 152.283C56.8214 152.04 56.5424 151.813 56.2933 151.549C56.0443 151.284 55.7868 151.032 55.5635 150.746C55.3403 150.459 55.0955 150.195 54.8938 149.887C54.692 149.58 54.4001 149.332 54.224 149.012C54.048 148.691 54.018 148.303 53.872 147.97C53.726 147.637 53.4255 147.359 53.3096 147.017C53.1937 146.676 53.301 146.261 53.2108 145.911C53.1207 145.561 52.906 145.236 52.8459 144.878C52.7858 144.519 52.6699 144.164 52.6398 143.797C52.6098 143.43 52.7944 143.067 52.7944 142.7C52.7944 142.332 52.8803 141.982 52.9103 141.623C52.9404 141.265 52.7944 140.88 52.8502 140.521C52.906 140.163 52.9275 139.787 53.0176 139.437C53.1078 139.087 53.2151 138.728 53.3353 138.386C53.4555 138.044 53.7217 137.75 53.8677 137.421C54.0137 137.092 54.1639 136.759 54.3357 136.439C54.5074 136.118 54.6662 135.79 54.868 135.486C55.0698 135.183 55.3488 134.94 55.5764 134.653C55.8039 134.367 55.8984 133.97 56.1431 133.705C56.3878 133.441 56.6411 133.163 56.9116 132.92C57.182 132.676 57.4869 132.458 57.7745 132.236C58.0622 132.014 58.397 131.843 58.7018 131.647C59.0067 131.45 59.3458 131.301 59.6678 131.13C59.9898 130.959 60.3461 130.87 60.681 130.72C61.0159 130.571 61.3379 130.421 61.6856 130.306C62.0334 130.191 62.3253 129.9 62.6816 129.81C63.038 129.721 63.4244 129.789 63.785 129.729C64.1456 129.67 64.502 129.597 64.8669 129.567C65.2318 129.537 65.5924 129.396 65.9616 129.396C66.3309 129.396 66.6915 129.571 67.0521 129.601C67.4127 129.631 67.7777 129.687 68.134 129.742C68.4903 129.798 68.8467 129.887 69.1987 129.977C69.5508 130.067 69.9114 130.139 70.2548 130.255C70.5983 130.37 70.9546 130.477 71.2852 130.622C71.6158 130.767 71.9979 130.84 72.3199 131.011C72.6419 131.181 72.878 131.506 73.1828 131.702C73.4876 131.899 73.7839 132.112 74.0715 132.334C74.3591 132.557 74.6039 132.826 74.87 133.073C75.1362 133.321 75.4324 133.535 75.6814 133.799C75.9305 134.064 76.2439 134.278 76.4671 134.564C76.6904 134.85 76.9308 135.136 77.1326 135.439C77.3343 135.743 77.3429 136.161 77.5146 136.477C77.6864 136.793 77.9311 137.075 78.0771 137.408C78.223 137.741 78.442 138.049 78.5579 138.39C78.6738 138.732 78.6781 139.112 78.7683 139.467C78.8584 139.821 79.013 140.154 79.0731 140.517C79.1332 140.88 79.219 141.235 79.2448 141.598C79.2706 141.961 79.0817 142.328 79.0817 142.691C79.0817 143.054 79.2877 143.43 79.262 143.789C79.2362 144.147 78.9872 144.489 78.9271 144.843C78.867 145.198 78.8713 145.569 78.7811 145.92C78.691 146.27 78.4978 146.59 78.3819 146.932C78.266 147.274 78.296 147.675 78.15 148.008C78.0041 148.341 77.8967 148.704 77.725 149.02C77.5533 149.336 77.1712 149.537 76.9694 149.84C76.7676 150.143 76.6646 150.515 76.4413 150.801C76.2181 151.087 75.8832 151.279 75.6385 151.549C75.3938 151.818 75.2264 152.164 74.9602 152.407C74.694 152.65 74.3291 152.787 74.0414 153.009C73.7538 153.231 73.5134 153.517 73.2086 153.718C72.9037 153.919 72.5989 154.12 72.2769 154.295C71.955 154.47 71.6802 154.747 71.3453 154.897C71.0104 155.046 70.6541 155.157 70.3064 155.277C69.9586 155.396 69.5379 155.238 69.1815 155.324C68.8252 155.409 68.5032 155.589 68.1383 155.648C67.7734 155.708 67.417 155.687 67.0521 155.717C66.6872 155.747 66.3352 155.815 65.9659 155.815H65.9488Z" fill="#BCBDD2"/>
<path d="M69.3707 116.426C68.7611 116.366 68.5078 116.204 68.014 116.221C67.7393 116.221 67.3486 116.259 67.0781 116.238C66.8549 116.217 66.1551 116.332 65.7988 116.294C65.378 116.255 65.1591 116.217 64.807 116.157C64.6525 116.161 63.5792 116.294 63.3946 116.341C63.2014 116.396 62.8622 116.464 62.6175 116.503C62.2955 116.55 61.7846 116.58 61.5871 116.61C61.2565 116.665 60.6984 116.674 60.4366 116.635C59.389 116.81 57.6503 117.395 56.4224 117.891C56.3666 117.904 56.1605 118.049 55.7655 118.254C55.4092 118.446 54.7996 118.596 54.4776 118.66C54.5162 118.643 54.5291 118.625 54.4647 118.672C54.3359 118.749 54.0783 119.057 53.4215 119.351C52.9921 119.518 52.8247 119.522 52.4984 119.595C52.653 119.522 52.5843 119.531 52.3653 119.732C52.2108 119.877 51.8373 120.15 51.5968 120.3C51.3478 120.475 51.0688 120.722 50.8069 120.872C50.3948 121.107 50.2101 121.145 49.8753 121.273C49.8624 121.278 49.8753 121.273 49.901 121.256C49.7336 121.376 49.1583 121.726 49.0553 121.79C49.0724 121.773 49.0639 121.777 49.0553 121.79C48.9823 121.846 48.8363 122.162 48.3469 122.606C48.2224 122.708 48.0764 122.862 47.8446 123.097C47.3509 123.558 47.0031 123.925 46.4622 124.37C46.1359 124.604 45.9685 124.72 45.9899 124.711C45.3159 125.403 44.6247 126.415 43.9292 127.086C43.9635 127.005 43.8948 127.15 43.7403 127.534C43.6802 127.688 43.5686 127.884 43.4655 128.042L43.4097 128.128L43.1993 128.461C42.7915 129.119 42.1733 130.024 41.7998 130.643C41.6624 130.891 41.4477 131.267 41.306 131.51C41.1644 131.805 40.8381 132.352 40.7522 132.522L40.4732 133.24L40.4002 133.424L40.3658 133.518C40.3787 133.462 40.3572 133.53 40.3487 133.658C40.3358 133.774 40.3272 133.953 40.2843 134.192C40.2971 134.53 39.7734 135.409 39.7219 135.529C39.6575 135.76 39.5244 136.34 39.46 136.563C39.417 136.947 39.4042 137.545 39.2453 137.951C39.0908 138.365 38.9791 138.578 38.9791 138.604C38.7087 139.988 38.5756 141.406 38.597 142.815C38.6056 143.229 38.7344 143.511 38.6872 144.164C38.64 144.596 38.5756 144.839 38.5842 144.899C38.5842 144.908 38.5842 144.908 38.5842 144.912L38.5927 145.006L38.6099 145.202C38.67 145.796 38.6872 146.586 38.7559 147.133C38.7731 147.346 38.919 147.773 38.962 148.098C39.0435 148.41 39.1809 148.73 39.2582 149.093C39.3226 149.375 39.4428 149.772 39.5072 150.054L39.5458 150.208C39.5587 150.276 39.5716 150.34 39.5802 150.404C39.6274 150.887 39.5931 151.151 39.6059 151.19C39.6059 151.203 39.5974 151.16 39.6059 151.211C39.7648 151.596 39.9365 151.98 40.1082 152.407C40.2027 152.612 40.3744 152.902 40.5118 153.308C40.7393 154.034 40.6234 154.026 40.9969 154.623C41.1257 154.816 41.3018 155.204 41.4305 155.426C41.5636 155.674 41.744 155.982 41.8513 156.238C42.023 156.708 42.0402 156.989 42.0788 157.058C42.2076 157.241 42.5124 157.438 42.7271 157.754C42.9976 158.155 43.0706 158.476 43.2079 158.869C43.2938 159.039 43.4784 159.202 43.6974 159.484C44.0022 159.812 44.2125 160.316 44.4573 160.658C44.6118 160.859 44.908 160.957 45.2558 161.384C45.3717 161.525 45.5606 161.704 45.7924 161.952C46.1016 162.242 46.3506 162.81 46.4579 163.122C46.7155 163.383 47.1276 163.699 47.3466 164.066C47.5612 164.416 47.66 164.668 47.7373 164.771C48.0077 165.087 48.656 165.633 48.8406 166.146C49.0724 166.693 49.3086 166.778 49.7379 167.303C49.8839 167.5 50.3389 168.072 50.4806 168.26C50.6781 168.491 51.0344 168.76 51.2319 169.05L51.3521 169.221L51.833 169.9C52.0992 170.276 52.1507 170.588 52.2752 170.963C52.4254 171.138 52.6487 171.378 52.8548 171.604C53.1381 171.941 53.3785 172.411 53.576 172.706C53.9452 173.227 54.3874 173.91 54.718 174.453L54.7738 174.542L54.8082 174.589C54.8296 174.619 54.8597 174.658 54.8983 174.696L55.1774 174.991C55.2847 175.11 55.4178 175.26 55.5037 175.401C55.5766 175.542 56.0188 175.913 56.1863 176.195C56.4052 176.502 56.4911 176.947 56.607 177.237C56.7916 177.553 57.0793 177.677 57.3626 178.185C57.5601 178.557 57.6159 178.851 57.6932 179.031C57.8435 179.377 58.1268 179.607 58.3329 179.962C58.5432 180.261 58.6635 180.923 58.7794 181.132C58.8695 181.294 59.0456 181.504 59.2345 181.79C59.4835 182.144 59.5865 182.644 59.7411 183.011C60.0502 183.771 60.428 184.463 60.8229 185.189L61.029 185.535C61.3338 185.988 61.4841 186.641 61.703 187.085C61.8619 187.359 62.1023 187.799 62.2783 188.14L62.4973 188.486C62.5746 188.61 62.669 188.781 62.7291 188.926L62.8966 189.306L63.064 189.686L63.1456 189.878C63.3044 190.177 63.2786 190.835 63.3259 190.959C63.3345 191.04 63.4804 191.211 63.6908 191.463C63.7895 191.591 63.9055 191.749 63.987 191.958C64.0643 192.168 64.0858 192.347 64.1029 192.496C64.1416 192.804 64.1716 192.983 64.236 193.056C64.3605 193.21 64.8113 193.466 65.0732 193.603C65.3394 193.765 65.627 193.863 65.9318 193.854C65.7429 193.53 67.0524 194.726 66.5715 194.469V194.534L66.5801 194.636C66.5801 194.683 66.5801 194.64 66.5801 194.636C65.3437 193.551 66.2581 194.333 65.9877 194.089C66.6273 194.03 67.2026 193.684 67.4516 193.06L67.5976 192.718C67.6148 192.667 67.9411 191.933 67.9454 191.903C68.0183 191.488 67.9625 191.121 68.2072 190.669C68.3876 190.37 68.6366 190.13 68.7997 189.938C68.834 189.878 68.7997 189.938 68.8126 189.896C68.8298 189.601 68.7868 189.174 68.9457 188.806C69.0272 188.58 69.229 188.273 69.3492 188.063C69.5338 187.709 69.7356 187.307 69.9331 186.991C70.0576 186.744 70.3281 186.048 70.4354 185.783C70.5127 185.539 70.5513 185.228 70.6415 184.984C70.7875 184.549 71.1009 184.19 71.2855 183.81C71.586 183.182 71.8951 182.554 72.2171 181.935C72.3716 181.593 72.6593 181.256 72.8353 180.987C73.0156 180.662 73.0414 180.397 73.299 179.915C73.621 179.385 74.0546 178.625 74.3594 178.091L74.4109 178.002C74.4195 177.98 74.4109 177.997 74.4152 177.984L74.441 177.912C74.5011 177.767 74.5311 177.412 74.8359 176.9C75.1665 176.421 75.4628 176.238 75.5357 176.131C75.9221 175.559 76.3386 174.927 76.7593 174.384C76.8795 174.213 76.8666 174.132 77.1028 173.62C77.18 173.487 77.3045 173.257 77.4162 173.124C77.6265 172.847 77.8455 172.497 78.0601 172.223C78.2018 172.044 78.4465 171.771 78.5882 171.591C78.7471 171.361 79.1291 170.793 79.2751 170.553C79.464 170.113 79.859 169.417 80.2625 169.153C80.4858 168.96 80.533 168.952 80.6446 168.794C81.1298 168.226 81.9584 167.086 82.4177 166.492C82.6667 166.206 82.7612 165.838 83.1089 165.36C83.2635 165.014 83.4395 164.638 83.6799 164.331C84.354 163.554 85.0366 162.67 85.7149 161.897C85.9253 161.64 86.3718 161.316 86.4963 161.222C86.4319 161.299 86.4319 161.329 86.4576 161.252C86.5306 160.94 86.8054 160.389 87.0673 160.103C87.4365 159.667 87.6211 159.62 87.7241 159.42C87.8873 159.078 88.1105 158.561 88.4239 158.237C88.6343 158.019 88.879 157.835 89.0464 157.698C89.0336 157.711 88.9992 157.75 88.9863 157.771C88.9735 157.792 88.9949 157.754 88.9992 157.745L89.3684 157.049L89.4629 156.874C89.5831 156.618 89.6604 156.357 89.8063 156.033C89.9523 155.747 90.1927 155.183 90.3301 154.888C90.4933 154.53 90.8281 153.932 90.9312 153.547L91.4893 151.933C91.7469 151.28 91.9787 151.104 91.983 150.981C92.0689 150.417 92.3179 149.511 92.4724 149.016C92.4509 149.106 92.4595 149.127 92.4552 149.05C92.3823 148.73 92.3994 148.102 92.5025 147.726C92.5969 147.389 92.7472 147.039 92.7815 146.936C92.8159 146.693 92.7558 146.377 92.8116 145.894C92.8545 145.544 92.9575 145.189 93.0692 144.865C93.0863 144.814 93.0692 144.797 93.0692 144.929C93.0692 145.031 93.0821 145.019 93.052 144.929C92.9962 144.72 92.8502 144.254 92.8631 143.912C92.8545 143.37 92.7687 142.597 92.906 142.076C92.9661 141.824 93.0134 141.692 93.0262 141.615C93.0262 141.623 93.0177 141.692 93.0219 141.73C93.0177 141.653 93.0048 141.555 92.9876 141.44L92.9275 141.03L92.8974 140.782C92.8846 140.65 92.8889 140.722 92.8889 140.697C92.8889 140.65 92.7901 140.406 92.6828 139.941C92.657 139.813 92.6356 139.719 92.6184 139.492C92.6184 139.168 92.6527 138.711 92.7085 138.514C92.7257 138.429 92.7085 138.437 92.7171 138.578C92.5797 138.074 92.4037 137.212 92.2792 136.592C92.3007 136.665 92.3136 136.695 92.3179 136.708C92.1805 136.516 91.8413 135.999 91.7512 135.606L91.7125 135.461L91.6524 135.2C91.6138 135.038 91.5494 134.675 91.485 134.513C91.3304 133.928 91.3433 133.611 91.3175 133.56C91.3175 133.547 91.3175 133.556 91.3218 133.582C91.3347 133.611 91.309 133.556 91.3004 133.535L91.2617 133.445L91.1072 133.086L90.9526 132.727L90.914 132.638C90.914 132.651 90.944 132.702 90.9526 132.715C90.9784 132.762 90.9913 132.774 90.987 132.77C90.7036 132.45 90.5405 132.317 90.2657 131.792C90.0768 131.339 90.0081 131.002 89.948 130.69C89.948 130.677 89.948 130.682 89.9566 130.716C89.9566 130.724 89.9738 130.759 89.9824 130.767L89.9909 130.784C89.8364 130.588 89.7419 130.498 89.5402 130.216C89.3126 129.969 88.9606 129.02 88.9391 128.952C88.5699 128.444 88.0719 127.722 87.7284 127.287C87.6941 127.235 87.4365 127.064 87.0544 126.642C86.8913 126.437 86.6852 126.18 86.5263 125.975L86.1915 125.548C85.951 125.164 85.8137 124.891 85.7278 124.677C85.7364 124.694 85.7578 124.724 85.8094 124.784C85.8351 124.814 85.818 124.788 85.8051 124.784C85.7578 124.72 85.0752 124.259 84.8649 123.972C84.676 123.742 84.5515 123.588 84.3969 123.362C84.354 123.298 84.3196 123.276 84.3797 123.328C84.4914 123.421 84.5128 123.413 84.4441 123.383C84.3754 123.349 84.2209 123.289 83.9933 123.174C83.8774 123.114 83.7443 123.037 83.5941 122.93C83.388 122.755 82.9115 122.422 82.7054 122.256C82.6753 122.243 82.2975 121.931 82.1644 121.76C82.0056 121.577 81.9111 121.448 81.8596 121.38C81.8081 121.312 81.7995 121.32 81.8768 121.38C81.9627 121.44 81.9884 121.44 81.9197 121.414C81.4861 121.265 81.177 121.141 80.7348 120.812C80.3828 120.526 80.3012 120.394 80.0865 120.167C80.0908 120.171 80.1252 120.197 80.1638 120.223C79.4898 119.919 78.7814 119.492 78.2662 119.215C77.7682 118.916 76.7765 118.446 76.5146 118.305L76.1454 118.254C75.9608 118.228 75.6559 118.173 75.3468 118.049C74.8188 117.827 74.5698 117.63 74.4839 117.6C74.4624 117.588 74.4624 117.588 74.471 117.592L74.4238 117.575L74.3293 117.541L73.9601 117.408L73.5909 117.276L73.4965 117.242C73.4664 117.233 73.4965 117.242 73.4922 117.242C73.4922 117.242 73.475 117.242 73.4492 117.233C72.4318 117.178 70.4182 116.699 69.375 116.426H69.3707ZM69.8172 113.039C70.6587 113.193 70.8819 113.313 71.5431 113.432C72.3072 113.603 72.5863 113.633 73.4192 113.778C73.6682 113.812 74.1662 113.829 74.4624 113.94L74.5655 113.975L74.9819 114.116C75.1451 114.171 75.4928 114.295 75.6517 114.346C75.9007 114.41 76.6777 114.876 76.6219 114.833C76.4845 114.799 76.6305 114.829 77.0856 114.889C77.2702 114.927 77.5278 114.974 77.7296 115.064C78.4422 115.388 79.142 115.743 79.8289 116.114C80.9151 116.785 82.0571 117.062 82.817 117.985C82.8986 118.079 82.9415 118.109 82.8986 118.075C82.8342 118.023 82.7784 118.002 82.8385 118.028C83.2506 118.207 83.5297 118.245 83.989 118.591C84.4227 118.924 84.53 119.129 84.8005 119.45C84.8477 119.488 84.6845 119.356 84.882 119.505L85.5861 120.035L85.6763 120.103C85.6763 120.103 85.702 120.124 85.6849 120.103L85.6505 120.078C85.6119 120.052 85.6033 120.043 85.6076 120.048C86.0026 120.244 86.2215 120.278 86.6895 120.667C87.1145 121.021 87.2175 121.282 87.5009 121.636C87.5696 121.705 87.7756 121.846 88.1449 122.162C88.5098 122.426 88.9048 123.114 89.025 123.451C89.0679 123.554 89.0894 123.58 89.0379 123.498L89.0121 123.464C88.9649 123.404 89.0722 123.545 89.0765 123.55L89.2096 123.725L89.7033 124.365C89.7033 124.365 89.8793 124.515 90.2357 124.861C90.3645 124.985 90.5362 125.215 90.6564 125.377C91.0728 125.946 91.4979 126.548 91.8971 127.128C92.1461 127.581 92.3393 128.111 92.3608 128.183C92.481 128.397 92.7343 128.615 92.9361 128.961C93.1937 129.298 93.3396 129.964 93.3997 130.306C93.4169 130.396 93.4298 130.4 93.3912 130.319C93.3311 130.195 93.3053 130.191 93.3611 130.25C93.5629 130.455 93.9579 130.934 94.091 131.297C94.2112 131.591 94.3958 132.014 94.516 132.309C94.6491 132.475 94.8079 133.697 94.7736 133.539C94.8938 133.876 94.9539 134.32 95.044 134.666C95.0526 134.692 95.0312 134.624 95.0269 134.615C94.9925 134.534 95.0011 134.568 95.0612 134.662C95.2072 134.867 95.4734 135.328 95.5635 135.696C95.7009 136.353 95.8039 137.011 95.9542 137.664L95.9971 137.878L96.0186 137.985C96.1345 138.536 96.0186 138.963 95.9499 139.368C95.9499 139.377 95.9499 139.351 95.9499 139.304C95.9413 139.219 95.9456 139.257 95.9499 139.266C95.9499 139.343 96.0615 139.616 96.156 140.116C96.2075 140.838 96.4436 141.747 96.2032 142.452L96.0959 142.815C96.0916 142.836 96.0916 142.832 96.0959 142.802C96.0959 142.789 96.0959 142.764 96.0959 142.738V142.841C96.0959 142.947 96.1088 143.866 96.113 143.87C96.113 143.814 96.1045 143.789 96.1045 143.793C96.1045 143.793 96.1302 143.9 96.1775 144.066C96.3234 144.434 96.3363 145.39 96.1646 145.757C96.0916 146.005 96.0229 146.167 96.0014 146.24C96.0014 146.505 95.9886 147.38 95.8512 147.773C95.7395 148.132 95.6666 148.26 95.5678 148.516C95.5678 148.516 95.5678 148.512 95.5678 148.504C95.5678 148.491 95.5721 148.461 95.5721 148.457C95.5721 148.435 95.5721 148.431 95.5721 148.457C95.5721 148.504 95.585 148.632 95.5979 148.832C95.6923 149.4 95.3274 150.378 95.1685 150.878C95.117 151.168 95.0569 151.412 94.9839 151.728C94.9539 151.877 94.8165 152.266 94.6963 152.458C94.4559 152.864 94.3271 153.048 94.3657 152.988C94.1811 153.513 93.7475 154.7 93.5328 155.196L93.4341 155.388L93.0391 156.165C92.876 156.558 92.5153 157.19 92.3866 157.549C92.2878 157.818 92.0903 158.241 91.9186 158.518C91.8327 158.664 91.4721 159.338 91.3691 159.458C91.2059 159.74 90.7165 160.069 90.5576 160.193L90.5877 160.154C90.4589 160.406 90.1369 161.094 89.8063 161.41C89.4715 161.751 89.274 161.901 89.2182 161.965C89.231 161.948 89.2439 161.926 89.2482 161.922C89.1452 162.17 88.9949 162.652 88.6601 163.037C88.4497 163.28 88.2479 163.425 88.1148 163.524C87.8572 163.707 87.8873 163.673 87.7413 163.835C87.3206 164.275 86.7753 164.963 86.3761 165.42C86.243 165.595 85.9467 165.868 85.8308 166.031C85.8222 166.039 85.8051 166.069 85.7879 166.108L85.6033 166.488C85.5217 166.641 85.4058 166.851 85.277 167C85.2169 167.073 85.1096 167.299 84.8863 167.658C84.8348 167.739 84.7447 167.863 84.6931 167.927C84.4141 168.277 83.5511 169.336 83.2592 169.699C82.89 170.122 82.3576 170.818 81.9026 171.104C81.8253 171.164 81.8081 171.185 81.821 171.164C81.7222 171.279 81.6364 171.527 81.5076 171.741C81.2972 172.108 80.8851 172.629 80.6446 172.988C80.4729 173.227 80.1896 173.5 80.0007 173.726L79.9105 173.842L79.6615 174.171L79.4125 174.5L79.2923 174.658C79.1978 174.824 79.1377 175.033 78.8501 175.524C78.7685 175.653 78.7342 175.691 78.6741 175.768C78.5367 175.943 78.3006 176.216 78.1632 176.391C77.9957 176.631 77.7424 176.951 77.575 177.186C77.399 177.502 76.7808 178.048 76.7121 178.091C76.7121 178.048 76.6434 178.249 76.5146 178.621C76.4674 178.766 76.3686 178.954 76.2828 179.095C76.0552 179.475 75.789 179.864 75.5701 180.214L75.1236 180.893C75.0506 181.008 74.9604 181.243 74.8188 181.555C74.6642 181.948 74.2607 182.413 74.0245 182.733C73.4793 183.639 73.0027 184.647 72.3888 185.497C72.3416 185.578 72.333 185.603 72.303 185.697L72.187 186.099C72.0153 186.633 71.7491 187.081 71.5388 187.564C71.2769 188.029 70.9935 188.439 70.7445 188.883L70.5256 189.216L70.4483 189.349L70.4225 189.396C70.4225 189.387 70.4225 189.383 70.4225 189.383C70.4139 189.387 70.4011 189.477 70.3968 189.609C70.4097 189.938 70.2851 190.583 70.0061 190.848C69.8644 191.019 69.7442 191.121 69.6541 191.207C69.5682 191.288 69.5167 191.348 69.5038 191.36C69.5038 191.356 69.478 191.395 69.4609 191.488L69.405 191.894C69.3836 192.086 69.3149 192.308 69.2333 192.479L68.8684 193.222L68.6666 193.632C68.1987 194.623 67.1082 195.289 65.9962 195.294C65.7 195.046 66.5629 195.853 65.3136 194.734C65.305 194.653 65.3136 194.662 65.3093 194.632V194.525V194.487C64.8328 194.188 66.125 195.358 65.8932 195.046C65.3651 195.033 64.8371 194.841 64.4078 194.546C64.0085 194.269 63.6092 194.128 63.2701 193.611C63.064 193.304 63.0296 192.889 63.0082 192.578C62.9738 192.304 62.9652 192.296 62.8107 192.103C62.6776 191.924 62.3943 191.706 62.2354 191.254C62.0723 190.651 62.2011 190.489 61.9864 190.113C61.8962 189.93 61.7288 189.55 61.6386 189.366C61.5871 189.255 61.5442 189.187 61.4755 189.076L61.2437 188.73C61.0204 188.332 60.8702 188.063 60.5997 187.619C60.3035 187.085 60.2391 186.62 59.9214 186.15C59.4019 185.33 58.9039 184.446 58.5046 183.553C58.3114 183.182 58.2685 182.815 58.0495 182.49C57.9336 182.315 57.7447 182.11 57.5472 181.794C57.3283 181.435 57.2596 181.081 57.1866 180.884C56.9891 180.406 56.504 180.069 56.3108 179.556C56.0317 178.839 56.1262 178.915 55.5809 178.382C55.2547 178.087 55.0357 177.463 54.9069 177.083C54.7395 176.806 54.3788 176.571 54.0869 176.139C53.8508 175.887 53.5417 175.614 53.3571 175.315C53.005 174.794 52.5757 174.128 52.1893 173.62C51.906 173.244 51.7815 172.941 51.5367 172.655C51.2963 172.394 50.9271 172.095 50.7382 171.749C50.6223 171.574 50.4033 170.831 50.4033 170.899L49.9096 170.237C49.7679 170.037 49.6649 169.926 49.4545 169.746C49.0724 169.434 48.6088 168.785 48.2739 168.397C48.0936 168.175 47.5527 167.726 47.3723 167.372C47.162 167.03 47.1105 166.791 46.8357 166.543C46.6811 166.394 46.3935 166.184 46.1273 165.809C45.8139 165.326 45.8139 165.185 45.5692 164.937C45.3159 164.707 45.0969 164.57 44.8479 164.245C44.5903 163.938 44.5431 163.618 44.4057 163.383C44.2168 163.161 43.9807 162.981 43.6802 162.64C43.6458 162.58 43.1092 162.217 42.9203 161.999C42.7357 161.807 42.5511 161.512 42.4309 161.311C42.1303 160.756 41.7654 160.517 41.3704 159.923C41.1987 159.672 41.1171 159.338 41.0141 159.069C40.9798 158.98 40.9626 158.958 40.9669 158.971C40.8767 158.847 40.6105 158.685 40.4388 158.471C40.2843 158.313 40.0911 158.01 40.0181 157.792C39.8592 157.344 39.8249 157.066 39.7905 157.024C39.6703 156.81 39.3312 156.225 39.2153 156.011C39.0049 155.619 38.7731 155.358 38.5627 154.799C38.4296 154.418 38.3781 154.137 38.3223 153.987C38.0604 153.428 37.6268 152.586 37.3692 151.929C37.2318 151.63 37.206 150.699 37.206 150.682C37.1459 150.498 36.8798 149.511 36.8025 149.324C36.5964 148.743 36.4676 148.239 36.3173 147.56C36.1843 146.893 36.2143 146.407 36.1284 145.8C36.0984 145.608 36.0769 145.236 36.0555 145.044C36.0426 144.656 36.1284 144.015 36.1413 143.942C36.1156 143.614 35.9739 142.896 36.0082 142.362C35.9696 141.064 36.0683 139.766 36.2744 138.48L36.3045 138.267L36.3216 138.16C36.3732 137.758 36.6651 137.122 36.6737 137.075C36.6823 137.049 36.6823 137.041 36.6823 137.037L36.6909 136.96C36.6909 136.516 36.7553 135.995 36.8798 135.529C36.9484 135.239 37.0043 134.935 37.0987 134.624C37.3048 134.081 37.4593 133.881 37.528 133.688C37.5581 133.462 37.5624 132.881 37.7212 132.522C37.8328 132.194 38.026 131.694 38.1377 131.382C38.3566 130.917 38.4897 130.707 38.6357 130.417C39.1852 129.264 40.0438 127.953 40.7007 126.859L40.9282 126.488L40.9841 126.398C40.9798 126.398 40.9755 126.411 40.9755 126.407C41.0656 126.176 41.1171 125.911 41.5121 125.309C41.7912 124.938 42.0316 124.72 42.1647 124.566C42.7486 123.814 43.8004 122.384 44.5775 121.944C44.6504 121.884 44.5903 121.935 44.7406 121.794L45.054 121.491C45.5134 121.068 45.771 120.748 46.299 120.27C46.2303 120.351 46.3591 120.171 46.6425 119.808C46.7412 119.668 46.9559 119.48 47.1019 119.36C47.3852 119.134 47.6943 118.963 47.9734 118.779C48.2653 118.519 48.9351 118.28 49.1411 118.207C49.4288 117.993 49.7594 117.707 50.0728 117.519C50.3304 117.34 50.6609 116.956 51.0301 116.789C51.3221 116.584 51.8373 116.511 52.0648 116.447C52.1807 116.426 52.2237 116.405 52.1764 116.422C52.0348 116.499 52.1764 116.409 52.4898 116.153C52.6444 116.033 52.8891 115.858 53.1853 115.734C53.5975 115.529 53.9538 115.538 54.2715 115.401C54.3703 115.358 54.615 115.17 55.0658 114.957C56.4396 114.402 57.8649 113.851 59.3074 113.518C59.6681 113.402 60.3078 113.313 60.5739 113.351L60.9431 113.368C60.9646 113.368 60.9775 113.368 60.956 113.368C60.956 113.368 60.9088 113.372 60.9346 113.368L61.0805 113.343C61.5528 113.283 61.7932 113.266 62.1195 113.223C62.4715 113.15 62.7334 113.056 63.1327 112.997C63.6264 112.945 64.0385 112.851 64.6439 112.813C65.0517 112.766 65.5841 112.907 65.9275 112.933C66.3139 112.898 66.5415 112.869 67.1382 112.856C67.2155 112.856 67.3658 112.86 67.443 112.856L67.8638 112.83C68.4305 112.762 69.3149 112.962 69.8 113.035L69.8172 113.039Z" fill="#626493"/>
<path d="M65.9488 157.523C65.3477 157.515 65.0987 157.412 64.6222 157.37C64.4805 157.361 64.2401 157.374 63.888 157.352C63.3814 157.306 63.463 157.288 63.2226 157.271C63.0165 157.25 62.7074 157.237 62.2995 157.139C61.6555 156.955 61.4495 156.78 61.1318 156.609C60.8355 156.524 60.3332 156.37 59.9683 156.212C59.6549 156.088 59.4145 156.063 58.9165 155.815C58.3111 155.482 57.9892 155.213 57.504 154.837C57.1133 154.465 56.9803 154.235 56.9287 154.171C55.7052 153.163 54.6147 152.074 53.7174 150.754C53.6573 150.639 53.5028 150.451 53.4212 150.348C53.2709 150.161 53.0219 149.853 52.8545 149.435C52.7085 149.059 52.6656 148.794 52.6269 148.653C52.5454 148.311 52.3608 148.243 52.1161 147.696C51.9014 147.256 51.8799 146.65 51.9143 146.219C51.9143 146.223 51.9229 146.244 51.9186 146.223C51.91 146.163 51.837 145.992 51.734 145.715C51.6395 145.518 51.5751 145.142 51.5365 144.89C51.4764 144.562 51.3433 143.989 51.3819 143.584C51.3948 143.229 51.5021 142.994 51.5665 142.691C51.5794 142.196 51.6782 141.888 51.7297 141.487C51.734 141.346 51.6266 140.641 51.7168 140.329C51.7984 139.945 51.8112 139.637 51.9314 139.206L52.1547 138.531C52.2363 138.301 52.3307 137.976 52.4423 137.767C52.6742 137.348 52.7815 137.259 52.9446 136.964C53.2752 136.311 53.6702 135.597 54.0609 134.982C54.3099 134.632 54.6104 134.363 54.8551 134.098C55.0311 133.846 55.1728 133.475 55.4862 133.133C55.9756 132.651 56.4136 132.219 56.9931 131.822C57.7359 131.25 58.5773 130.831 59.4145 130.443C59.8825 130.233 60.256 130.161 60.6896 129.977C60.7969 129.934 61.3808 129.717 61.4752 129.682C61.8573 129.537 62.0935 129.285 62.6129 129.191C63.4286 129.127 63.7206 129.187 64.6307 129.042C65.1073 129.016 65.4507 128.875 65.9874 128.879C66.567 128.892 66.7902 129.029 67.3226 129.038C68.6878 129.114 70.0874 129.379 71.4011 129.776C71.9292 129.943 72.1739 129.943 72.7363 130.186C73.2 130.413 73.3803 130.643 73.6851 130.844C74.0071 131.045 74.4879 131.335 74.8056 131.553C75.0332 131.711 75.4024 132.053 75.617 132.228C75.9047 132.45 76.3125 132.745 76.5701 133.005C76.7719 133.154 77.081 133.419 77.3343 133.671C77.5833 133.945 77.9354 134.402 78.1715 134.683C78.4377 134.999 78.5665 135.525 78.6867 135.858C78.7038 135.888 78.6781 135.828 78.7253 135.909C78.9185 136.157 79.2706 136.708 79.4466 137.071C79.6956 137.447 80.039 138.22 80.0777 138.732C80.1764 139.334 80.3782 139.625 80.5113 140.257C80.58 140.56 80.6701 141.162 80.7345 141.47C80.7861 141.786 80.7088 142.221 80.6573 142.465C80.5929 142.721 80.6014 142.811 80.6143 142.687C80.6057 142.597 80.6401 142.742 80.7259 143.041C80.7646 143.195 80.8118 143.409 80.8204 143.686C80.8977 144.135 80.5456 144.95 80.4812 145.147C80.4812 145.16 80.4812 145.155 80.4812 145.147C80.4898 145.108 80.4812 145.147 80.4812 145.177C80.4469 145.561 80.4555 145.804 80.3439 146.313C80.2151 146.829 80.0691 147.081 79.9403 147.427C79.9145 147.568 79.9231 147.679 79.833 148.158C79.7943 148.333 79.7256 148.555 79.6441 148.738C79.4809 149.174 79.3435 149.648 79.0258 150.114C78.8541 150.395 78.4935 150.682 78.3389 150.857C78.3432 150.857 78.3561 150.844 78.3776 150.81C78.3346 150.934 78.0084 151.621 77.7636 151.903C77.5318 152.24 77.0166 152.586 76.8707 152.783C76.6174 153.154 76.3512 153.547 75.9562 153.855C75.5312 154.184 75.3208 154.256 75.1019 154.406C74.8958 154.598 74.5996 154.884 74.2303 155.149C74.0801 155.256 73.8096 155.414 73.6508 155.516L73.0926 155.853C72.9166 155.973 72.2555 156.464 71.9077 156.554C71.6759 156.644 71.0963 156.844 70.8645 156.93C70.5511 157.054 69.9586 157.092 69.7096 157.062C69.4134 157.028 69.3361 157.062 69.5894 157.019C69.452 157.066 68.9068 157.263 68.6148 157.327C68.1898 157.438 67.6532 157.425 67.3269 157.442C66.8374 157.464 66.5112 157.549 65.953 157.545L65.9488 157.523ZM65.9488 154.107C66.0904 154.124 66.5455 154.034 66.7559 154.021C67.0865 153.979 67.6102 153.991 67.8463 153.949C68.0911 153.88 68.2714 153.774 68.735 153.65C69.4134 153.5 69.7783 153.594 69.9157 153.586C69.9801 153.59 69.9844 153.586 69.9028 153.59C69.8727 153.59 69.7525 153.62 69.7354 153.628C69.9543 153.543 70.4008 153.385 70.6198 153.304C70.8172 153.124 71.8905 152.458 72.2469 152.245C72.38 152.155 72.732 151.788 72.9767 151.617C73.1828 151.455 73.7109 151.16 73.7753 151.117C73.728 151.16 73.7452 151.156 73.8611 150.993C74.0329 150.733 74.2432 150.477 74.4793 150.242C74.7584 149.977 74.9559 149.845 75.0332 149.772C75.0718 149.738 75.0804 149.729 75.0675 149.746C75.0503 149.772 75.0546 149.768 75.0761 149.734C75.119 149.64 75.3809 149.106 75.5612 148.854C75.763 148.563 76.0893 148.269 76.2997 148.102L76.2696 148.145C76.261 148.158 76.2052 148.256 76.231 148.209C76.3125 148.106 76.4757 147.619 76.5658 147.44L76.6045 147.35L76.5916 147.385C76.5916 147.385 76.5873 147.41 76.5916 147.406C76.6088 147.385 76.6259 147.167 76.7032 146.804C76.7376 146.62 76.832 146.351 76.8835 146.231C77.0681 145.732 77.2399 145.646 77.2656 145.125C77.3 144.903 77.3086 144.69 77.3687 144.446C77.4417 144.152 77.5876 143.801 77.6864 143.592C77.6907 143.588 77.6778 143.648 77.6821 143.733C77.6949 143.793 77.6864 143.797 77.6821 143.733C77.6692 143.609 77.5576 143.34 77.5275 142.815C77.5275 142.17 77.6563 141.905 77.7207 141.645V141.709L77.7035 141.598C77.6606 141.32 77.6177 140.867 77.5619 140.594C77.4803 140.304 77.3129 139.778 77.2785 139.484C77.2613 139.356 77.2227 139.04 77.2055 138.911C77.1497 138.625 76.8664 138.198 76.729 137.839C76.5873 137.596 76.2653 137.126 76.1451 136.742C76.0635 136.477 76.0378 136.349 75.9863 136.131C75.9863 136.123 75.9863 136.118 75.9905 136.131C75.9905 136.131 75.9991 136.144 76.0077 136.153C76.012 136.157 75.9863 136.118 75.9734 136.106C75.866 135.943 75.5741 135.538 75.4711 135.38C75.3294 135.153 75.1963 135.081 74.9258 134.799C74.7842 134.662 74.6811 134.504 74.5266 134.363C73.8869 133.765 73.3502 133.103 72.6032 132.565C72.1009 132.236 71.9678 131.784 71.3839 131.63C69.9114 130.959 68.4388 130.43 66.8289 130.178C66.2793 130.058 65.9788 129.815 65.4336 130.028C64.9313 130.144 64.2873 130.242 63.7764 130.34C63.4845 130.379 63.0594 130.37 62.8448 130.421C62.6859 130.477 62.3725 130.695 62.1493 130.823C61.9131 130.938 61.4495 131.134 61.2091 131.25C60.6381 131.502 60.007 131.745 59.4961 132.061C59.0753 132.313 58.6245 132.599 58.2553 132.877C58.1051 133.001 57.7101 133.342 57.5555 133.471C57.2808 133.718 57.0361 134.039 56.7742 134.308C56.6969 134.47 56.4994 134.906 56.3277 135.157C56.1259 135.435 55.8511 135.725 55.7009 135.935C55.3703 136.511 55.0784 137.178 54.8165 137.788C54.7263 138.066 54.3829 138.54 54.3313 138.732C54.3056 138.813 54.2498 139.065 54.224 139.151C54.1296 139.497 54.0308 139.847 54.0179 140.24C54.0008 140.312 53.9879 140.62 53.9707 140.688C53.9664 140.744 53.9707 140.671 53.9793 140.718C53.9836 140.773 54.0995 141.337 54.0823 141.589C54.078 141.798 54.0523 142.021 54.0308 142.213C54.0051 142.431 53.9965 142.589 54.0051 142.695C54.0094 143.182 53.872 143.554 53.8806 143.703C53.902 143.942 54.0609 144.365 54.1081 144.668L54.1553 144.771C54.224 144.92 54.4859 145.454 54.5288 145.792C54.5804 146.069 54.5675 146.428 54.5932 146.641C54.6018 146.65 54.5761 146.552 54.5804 146.56C54.8508 146.893 55.2029 147.436 55.3102 147.88C55.4905 148.397 55.3317 148.179 55.615 148.508C55.9456 148.837 56.1173 149.161 56.4565 149.524C57.0962 150.276 57.8346 150.955 58.6245 151.549C58.7662 151.66 58.9723 151.813 59.1011 151.937C59.217 152.057 59.6721 152.556 59.6077 152.488C59.6034 152.484 59.5733 152.454 59.5519 152.445L59.7193 152.552C59.8696 152.642 60.2688 152.928 60.3676 152.958L60.7282 153.06C60.8999 153.107 61.1919 153.214 61.398 153.291C61.8659 153.402 62.5099 153.594 62.9049 153.833C63.1152 153.949 63.1796 153.962 63.0895 153.927C63.1066 153.927 63.2354 153.944 63.463 153.953C63.6562 153.953 64.1671 154.026 64.0984 154.013L64.6737 154.004C65.0085 154.004 65.6611 154.102 65.9488 154.115V154.107Z" fill="#626493"/>
<path d="M66.0517 194.158L69.3059 194.662H69.3317C69.6451 194.713 69.864 195.008 69.8125 195.324C69.7653 195.635 69.4691 195.853 69.1514 195.802C69.1299 195.802 69.1127 195.793 69.0912 195.789L65.8456 194.935C65.6309 194.88 65.5021 194.657 65.5579 194.444C65.6095 194.243 65.8069 194.119 66.0087 194.149H66.0431L66.0517 194.158Z" fill="#BCBDD2"/>
<path d="M75.9982 195.336C77.1144 195.409 78.2349 195.452 79.3512 195.486C80.4674 195.52 81.5836 195.524 82.6956 195.503C83.2837 195.49 83.7689 195.956 83.7817 196.541C83.7946 197.126 83.3267 197.608 82.7385 197.617C82.7213 197.617 82.6956 197.617 82.6784 197.617C81.5278 197.574 80.3858 197.502 79.2438 197.408C78.1018 197.309 76.9641 197.173 75.8307 197.019C75.3671 196.955 75.0408 196.528 75.1009 196.067C75.161 195.623 75.5603 195.307 76.0025 195.336H75.9982Z" fill="#BCBDD2"/>
<path d="M89.326 195.025C91.5113 194.739 93.6622 194.282 95.7358 193.654C96.4484 193.44 97.204 193.842 97.4187 194.551C97.6334 195.26 97.2298 196.011 96.5171 196.225C96.5128 196.225 96.5 196.229 96.4957 196.233C94.2246 196.874 91.9062 197.233 89.6008 197.45C88.9267 197.515 88.3257 197.023 88.2656 196.353C88.2012 195.695 88.6777 195.114 89.3303 195.029L89.326 195.025Z" fill="#BCBDD2"/>
<path d="M101.586 191.061C102.479 190.502 103.329 189.883 104.115 189.204C104.505 188.866 104.887 188.456 105.274 188.089L106.433 186.957L106.532 186.859C107.111 186.291 108.047 186.3 108.618 186.876C109.189 187.453 109.181 188.384 108.601 188.952H108.592L107.322 190.186C106.888 190.592 106.493 191.006 106.029 191.403C105.106 192.197 104.11 192.894 103.071 193.504C102.389 193.906 101.509 193.679 101.109 193C100.714 192.334 100.925 191.48 101.582 191.07H101.586V191.061Z" fill="#BCBDD2"/>
<path d="M109.589 181.896C109.821 181.017 109.843 180.141 109.641 179.257C109.443 178.373 109.027 177.476 108.499 176.584C108.087 175.879 108.318 174.982 109.023 174.568C109.722 174.158 110.624 174.388 111.04 175.085C111.663 176.127 112.238 177.284 112.543 178.599C112.856 179.906 112.835 181.345 112.496 182.644V182.652C112.285 183.451 111.465 183.929 110.663 183.72C109.86 183.511 109.379 182.695 109.589 181.896Z" fill="#BCBDD2"/>
<path d="M104.694 171.104C103.398 169.17 102.23 167.013 101.573 164.651C101.371 163.921 101.801 163.165 102.535 162.964C103.256 162.768 104.007 163.182 104.222 163.891C104.815 165.868 105.849 167.709 107.099 169.486C107.558 170.139 107.395 171.04 106.738 171.493C106.081 171.95 105.175 171.788 104.72 171.134C104.716 171.126 104.712 171.121 104.707 171.113L104.699 171.1L104.694 171.104Z" fill="#BCBDD2"/>
<path d="M101.251 157.331C101.53 156.106 102.002 154.923 102.629 153.851C103.256 152.774 104.025 151.809 104.875 150.946C105.325 150.49 106.064 150.481 106.523 150.925C106.974 151.365 106.991 152.082 106.566 152.539C105.149 154.077 104.132 155.896 103.771 157.852C103.642 158.548 102.973 159.01 102.273 158.881C101.573 158.753 101.109 158.087 101.238 157.391C101.238 157.374 101.243 157.361 101.247 157.348V157.331H101.251Z" fill="#BCBDD2"/>
<path d="M110.663 146.855C112.736 145.783 114.913 144.976 117.107 144.301C117.532 144.169 117.982 144.408 118.116 144.831C118.24 145.236 118.021 145.668 117.626 145.817C115.544 146.599 113.522 147.521 111.624 148.61C111.143 148.888 110.529 148.721 110.25 148.243C109.971 147.765 110.139 147.154 110.62 146.876C110.633 146.868 110.645 146.863 110.658 146.855H110.663Z" fill="#BCBDD2"/>
<path d="M123.795 142.738C124.349 142.648 124.898 142.567 125.452 142.49C126.01 142.418 126.56 142.349 127.126 142.298C127.35 142.277 127.543 142.439 127.564 142.661C127.581 142.87 127.44 143.054 127.238 143.093H127.229C126.701 143.191 126.156 143.306 125.624 143.43C125.087 143.554 124.555 143.682 124.022 143.819C123.726 143.895 123.421 143.716 123.344 143.421C123.267 143.127 123.447 142.823 123.743 142.747C123.761 142.747 123.778 142.738 123.795 142.738Z" fill="#BCBDD2"/>
<path d="M118.613 142.375L118.691 141.491L118.867 140.62L119.111 139.766L119.399 138.928L119.781 138.126L120.301 137.404L120.837 136.695L121.451 136.046L122.172 135.52L122.911 135.021L123.692 134.589L124.546 134.312L125.401 134.06L126.29 133.945L127.178 133.872L128.071 133.94L128.956 134.068L129.801 134.346L130.643 134.641L131.441 135.034L132.171 135.542L132.892 136.063L133.515 136.703L134.107 137.37L134.541 138.147L134.94 138.937L135.31 139.748L135.52 140.611L135.649 141.491L135.687 142.375L135.619 143.259L135.511 144.139L135.258 144.989L134.983 145.834L134.58 146.624L134.069 147.355L133.541 148.076L132.88 148.674L132.206 149.255L131.437 149.716L130.651 150.135L129.823 150.464L128.951 150.66L128.071 150.818L127.178 150.865L126.285 150.844L125.409 150.669L124.538 150.468L123.718 150.109L122.924 149.712L122.177 149.23L121.494 148.662L120.837 148.055L120.288 147.359L119.772 146.633L119.39 145.826L119.06 145.001L118.845 144.139L118.716 143.259L118.613 142.375Z" fill="white"/>
<path d="M117.227 142.401C117.231 142.29 117.3 141.303 117.325 141.218C117.476 140.312 117.793 139.189 118.132 138.335C118.214 138.164 118.527 137.455 118.639 137.314C119.167 136.554 119.755 135.738 120.421 135.081C120.532 134.931 121.206 134.491 121.352 134.367L122.112 133.851C122.142 133.829 122.177 133.808 122.207 133.791L122.22 133.782L123.001 133.347C123.714 133.052 124.469 132.83 125.216 132.642C125.779 132.565 126.719 132.437 127.286 132.441C127.887 132.471 128.574 132.544 129.166 132.638C130.222 132.92 131.33 133.295 132.283 133.838C132.845 134.231 133.429 134.602 133.953 135.046L134.597 135.708L135.211 136.4C135.554 136.861 135.777 137.361 136.057 137.882C136.31 138.399 136.567 138.877 136.743 139.407C136.902 140.005 137.061 140.799 137.117 141.418C137.121 141.555 137.168 142.366 137.156 142.482C137.13 142.939 137.04 143.857 136.971 144.31C136.795 145.044 136.563 145.775 136.297 146.483C136.228 146.612 135.876 147.333 135.799 147.436C135.387 148.004 135.013 148.615 134.545 149.14C134.026 149.601 133.528 150.092 132.965 150.498C132.575 150.746 131.763 151.203 131.347 151.408C131.252 151.472 130.471 151.754 130.355 151.809C129.814 151.984 128.883 152.134 128.324 152.232C128.209 152.275 127.38 152.27 127.247 152.292C127.217 152.292 127.178 152.292 127.148 152.292L126.255 152.266C125.487 152.155 124.71 151.988 123.967 151.762C123.529 151.578 122.692 151.181 122.275 150.955C122.237 150.934 122.198 150.912 122.159 150.887L121.417 150.4C120.966 150.071 120.283 149.43 119.88 149.05C119.493 148.632 118.965 147.854 118.643 147.393C118.351 146.906 118.012 146.018 117.806 145.493C117.746 145.39 117.583 144.579 117.544 144.455C117.536 144.412 117.523 144.369 117.519 144.327L117.394 143.426C117.385 143.255 117.325 143.084 117.394 142.905C117.458 142.729 117.609 142.546 117.944 142.379L117.235 142.392L117.227 142.401ZM119.961 142.751C120.039 142.862 120.021 142.973 120.047 143.088L120.185 143.947L120.159 143.819L120.382 144.681L120.326 144.506C120.485 144.925 120.811 145.655 121.017 146.048L120.897 145.843L121.4 146.535L121.936 147.205L121.782 147.039C122.091 147.333 122.743 147.889 123.078 148.153L122.937 148.051L123.688 148.525C123.203 148.264 124.34 148.841 124.323 148.828L125.109 149.165L124.851 149.08C125.418 149.212 125.989 149.332 126.564 149.439L126.315 149.413L127.208 149.43H127.097L127.99 149.383C127.367 149.473 128.664 149.251 128.651 149.247L129.488 149.05L129.273 149.119C129.252 149.127 130.488 148.623 129.956 148.854C130.334 148.657 131.081 148.239 131.441 148.008L131.24 148.153C131.686 147.777 132.12 147.393 132.549 147L132.352 147.222C132.699 146.753 133.038 146.278 133.369 145.796L133.266 145.971L133.67 145.177L133.584 145.386C133.768 144.835 133.94 144.28 134.103 143.72L134.052 143.959C134.112 143.537 134.202 142.691 134.223 142.264V142.443C134.236 142.478 134.15 141.166 134.198 141.7L134.069 140.82C134.172 141.303 133.88 140.043 133.888 140.082L133.979 140.346C133.627 139.548 133.262 138.83 132.828 138.074L133.008 138.331L132.442 137.69L131.845 137.075L132.034 137.237C131.566 136.891 131.089 136.554 130.613 136.225L130.802 136.336L130.003 135.943L130.158 136.007C129.612 135.807 129.059 135.614 128.505 135.435L128.75 135.495L127.865 135.362L127.968 135.375L127.079 135.307H127.298L126.444 135.371L125.594 135.478L125.813 135.431C125.251 135.589 124.697 135.755 124.143 135.939L124.392 135.832L123.606 136.259L123.714 136.191C123.353 136.426 122.636 136.917 122.293 137.178L122.486 137.007L121.868 137.652L121.966 137.532C121.61 137.993 121.262 138.459 120.923 138.933L121.052 138.719L120.665 139.522L120.726 139.377C120.575 139.774 120.313 140.586 120.206 140.996L120.232 140.889L120.051 141.76L120.073 141.602C120.047 141.858 119.987 142.499 119.961 142.747V142.751Z" fill="#626493"/>
<path d="M67.3557 154.547C67.3557 154.547 67.3943 154.559 67.3771 154.534L67.3514 154.47L67.3042 154.342C67.2741 154.256 67.2398 154.171 67.214 154.085C66.6688 152.343 66.3081 150.43 66.3854 148.486C66.4283 147.671 66.6087 147.047 66.6602 146.3C66.7074 145.57 66.8491 143.989 66.8662 143.302C66.9221 142.435 67.0895 141.448 67.2011 140.598C67.3127 139.864 67.5703 138.783 67.7077 138.044C67.961 136.789 68.2701 135.175 68.5792 133.966C68.8883 132.689 69.3091 131.335 69.6182 130.054C69.8114 128.704 70.567 127.363 70.9147 126.082C71.1509 125.096 71.6746 123.93 72.0696 123.033C72.3143 122.422 72.4345 121.777 72.7436 121.068C73.3232 119.8 73.9586 118.6 74.5296 117.357C74.7657 116.815 74.9976 115.943 75.3539 115.367C76.6977 112.962 78.0586 110.549 79.5569 108.235C80.0378 107.351 80.7161 106.334 81.2871 105.501C81.6177 104.955 82.2101 104.267 82.6051 103.768C83.3135 102.837 84.4555 101.5 85.1853 100.569C85.649 100.022 85.8851 99.5652 86.3874 98.9416L87.7956 97.2846L87.8815 97.1864C88.2764 96.7294 88.9762 96.1827 89.3369 95.8112L90.7622 94.3164C91.4878 93.552 93.0033 92.0615 93.776 91.3483C94.4157 90.7888 94.9867 90.3831 95.3173 90.0756C95.7724 89.6485 96.4078 88.9353 96.9788 88.5296C97.4896 88.1452 97.846 87.9445 98.2624 87.637C98.5544 87.4021 99.8681 86.4028 100.173 86.1636C100.486 85.9116 101.105 85.3265 101.461 85.0874C102.045 84.6475 102.766 84.3101 103.294 83.977C106.016 82.068 108.854 80.2999 111.85 78.8564C112.542 78.4976 113.447 78.1517 114.104 77.8186C114.808 77.3787 115.736 76.8961 116.577 76.5587C117.513 76.1274 118.535 75.7345 119.488 75.3373C121.806 74.5515 124.099 73.6119 126.477 73.0183C127.808 72.651 129.238 72.3648 130.556 71.9933C131.024 71.878 131.96 71.6089 132.419 71.4594C133.11 71.2288 134.141 71.1306 134.802 71.0665C135.794 70.9256 136.85 70.554 137.88 70.4943L138.885 70.4174C139.954 70.2636 141.834 69.9433 143.041 70.0031L145.063 69.8323L145.475 69.7981C146.093 69.7213 146.715 69.5974 147.411 69.6444C148.841 69.7682 150.317 70.2551 151.318 71.3057C151.541 71.3057 151.721 71.4851 151.721 71.7071C151.721 71.9292 151.541 72.1086 151.318 72.1086C151.326 72.1598 151.301 72.1769 151.279 72.194L151.21 72.2495L151.073 72.3563C150.068 73.0311 149.012 73.5606 147.849 73.7656C147.359 73.8468 147.11 73.8852 146.548 73.9706C145.522 74.1158 144.346 74.2269 143.32 74.3251C141.783 74.3337 140.988 74.56 139.348 74.8034L138.314 74.9059C138.013 74.9401 137.829 74.97 137.575 75.0298C137.082 75.1579 136.511 75.3159 136.03 75.4141C135.308 75.5764 134.433 75.5722 133.729 75.8028C133.226 75.9779 132.187 76.2939 131.668 76.4306C130.401 76.8406 129.092 77.0755 127.825 77.4513C125.584 78.0321 123.433 78.9503 121.248 79.7148C120.063 80.2059 118.805 80.7568 117.646 81.2949C117.414 81.4103 116.766 81.8074 116.453 81.9868C115.959 82.2687 115.311 82.5377 114.847 82.7385C114.409 82.9178 113.624 83.3406 113.186 83.5499C110.674 84.8268 108.304 86.3558 106.007 87.9787C105.535 88.299 104.805 88.6662 104.342 88.9737C104.007 89.2172 103.358 89.8236 103.019 90.0756C102.659 90.3532 101.967 90.8742 101.598 91.1604C101.109 91.5575 100.349 92.0359 99.8981 92.3604C99.3958 92.7533 99.1296 93.1121 98.5801 93.6075C97.8975 94.2182 97.348 94.5898 96.9659 94.9314C96.2446 95.5976 94.8322 96.9728 94.1452 97.6775C93.6258 98.2071 92.3679 99.5225 91.8355 99.9239C91.6852 100.061 91.4191 100.278 91.2946 100.436L90.0367 101.871C89.7404 102.239 89.3068 102.892 88.9462 103.315C88.3065 104.096 87.186 105.425 86.5377 106.189C86.2114 106.62 85.6189 107.291 85.2927 107.722C84.6873 108.589 83.9618 109.601 83.4423 110.528C81.9611 112.757 80.5916 115.064 79.2521 117.383C79.119 117.6 79.0332 117.793 78.9344 118.057C78.7584 118.574 78.3248 119.531 78.02 120.086C77.6207 120.915 77.0411 121.961 76.659 122.738C76.337 123.567 75.9635 124.792 75.5128 125.617C75.0319 126.56 74.916 127.329 74.521 128.358C74.2506 129.059 73.9973 129.439 73.7998 130.075C73.5722 130.955 73.2674 132.108 72.9798 133.005C72.28 135.192 71.782 137.592 71.2711 139.83C71.0392 140.68 70.8589 141.811 70.7258 142.687C70.5369 143.947 70.4811 145.39 70.3266 146.646C70.275 147.291 70.0947 148.085 70.0003 148.657L69.8972 149.605C69.8543 149.934 69.8071 150.267 69.7513 150.596C69.6053 151.339 69.4937 152.68 69.1588 153.581L68.9871 154.085C68.9613 154.171 68.9227 154.252 68.8926 154.337L68.8411 154.465L68.8154 154.53C68.8154 154.555 68.7638 154.538 68.7381 154.542L67.5317 154.85C67.36 154.901 67.2226 154.666 67.3557 154.542V154.547Z" fill="#FFBF9E"/>
<path d="M159.064 35.9525L112.775 45.9887C108.842 46.8429 106.348 50.7036 107.206 54.6199L109.507 65.1174C115.389 63.8404 121.198 67.5517 122.477 73.4026C123.761 79.2535 120.03 85.0318 114.148 86.3045L116.45 96.802C117.308 100.714 121.189 103.195 125.126 102.341L171.991 92.1768L159.064 35.9482V35.9525Z" fill="white"/>
<path d="M158.57 36.7213C149.069 39.0659 134.473 42.5551 125.07 44.7674C122.804 45.2927 115.836 46.907 113.676 47.3981C110.392 47.9149 108.147 50.9258 108.855 54.2014C109.151 55.4613 110.899 63.2896 111.238 64.7416L109.126 63.392C112.367 62.6575 115.9 63.2682 118.704 65.0534C128.265 71.1691 125.646 85.7195 114.556 88.1837L116.033 85.8946C116.111 86.3558 118.141 95.4226 118.137 95.4909L118.253 96.0247C118.292 96.1956 118.33 96.4048 118.369 96.5116C118.85 98.6043 120.73 100.287 122.881 100.53C123.744 100.671 124.637 100.483 125.478 100.291C139.77 97.2633 157.248 93.5904 171.643 90.618L170.42 92.5356C166.384 74.2995 162.335 55.1068 158.566 36.717L158.57 36.7213ZM159.553 35.1838C164.289 53.8299 169.119 73.1208 173.558 91.8266C173.764 92.685 173.223 93.5434 172.36 93.7399C172.36 93.757 155.222 97.5964 155.213 97.6092C146.313 99.6207 135.202 102.089 126.307 104.062C120.936 105.583 115.505 102.337 114.475 96.849C114.273 95.9692 112.5 87.8036 112.255 86.7145C112.028 85.6768 112.689 84.656 113.732 84.4297C118.485 83.4901 121.739 78.5105 120.644 73.7998C119.708 69.0294 114.629 65.7538 109.855 66.8471C108.902 67.0478 107.966 66.4414 107.765 65.4933L105.97 57.0201C105.674 55.6108 105.184 53.6847 105.395 52.2326C105.747 48.453 108.748 45.1603 112.487 44.4428C115.063 43.909 122.34 42.4355 125.023 41.8889C134.687 39.8859 149.765 37.0971 159.549 35.1838H159.553Z" fill="#626493"/>
<path d="M284.602 95.2773L282.305 110.725C281.974 112.954 281.476 115.158 280.824 117.306L262.251 178.258C261.324 181.307 258.662 183.242 255.945 182.845L196.119 174.034C194.698 173.825 193.745 172.309 193.989 170.652L195.848 158.147C196.462 154.008 199.841 151.075 203.396 151.6L249.621 158.407C251.6 158.698 253.515 157.165 254.013 154.888L258.014 136.584C258.946 132.322 260.418 128.213 262.38 124.399L269.142 111.271L268.695 101.948C268.528 98.4035 269.387 94.8417 271.147 91.8266C271.877 90.5753 273.143 89.8962 274.401 90.0798L282.047 91.2073C283.756 91.4593 284.902 93.2786 284.606 95.2731L284.602 95.2773Z" fill="white"/>
<path d="M285.327 95.3841C284.744 100.338 284.031 105.715 283.378 110.682C283.026 114.141 281.79 118.186 280.785 121.538C275.449 139.744 269.777 158.237 264.218 176.374C263.788 177.677 263.338 179.663 262.513 180.812C261.251 182.849 258.761 184.42 256.228 184.207C255.803 184.198 253.845 183.869 253.386 183.818L244.624 182.546C228.644 180.35 212.347 178.283 196.394 175.781L195.827 175.695C195.509 175.64 195.196 175.554 194.9 175.426C192.736 174.504 191.907 171.971 192.41 169.861C192.521 169.242 192.788 167.256 192.899 166.594C193.225 164.408 193.887 160.056 194.213 157.878C194.805 153.428 198.858 149.268 203.636 149.985L205.826 150.31C218.684 152.168 237.398 155.123 250.304 156.866C251.338 156.75 252.137 155.781 252.412 154.799C252.476 154.568 252.931 152.501 252.991 152.211L254.884 143.605C256.159 137.861 257.241 131.762 259.753 126.39C261.93 121.76 265.501 115.217 267.833 110.614L267.674 111.344L267.262 102.153C267.077 98.4633 267.923 94.688 269.743 91.4465C269.966 91.0365 270.245 90.5923 270.572 90.2421C271.478 89.2043 273.023 88.4954 274.487 88.7004L274.594 88.7132L274.667 88.726L274.955 88.7687L276.097 88.9396C277.849 89.2086 280.347 89.5759 282.099 89.8407C283.627 90.003 285.005 91.1518 285.546 92.4757C285.98 93.4366 286.083 94.4872 285.941 95.4781L285.323 95.3884L285.327 95.3841ZM283.258 95.0766C283.43 94.0346 282.915 92.732 281.841 92.5611L281.7 92.5398L281.412 92.4971L280.27 92.3305C279.124 92.1597 276.84 91.8394 275.694 91.6686C275.393 91.6344 274.47 91.4849 274.191 91.4508C273.616 91.3782 273.1 91.6259 272.667 92.0956C270.735 94.9741 269.971 98.5615 270.134 102.012L270.597 111.199L270.619 111.583L270.439 111.933L266.42 119.783C265.257 122.089 263.531 125.301 262.518 127.59C261.371 130.199 260.461 132.911 259.792 135.679C258.71 140.517 257.121 147.936 256.048 152.86C255.941 153.265 255.554 155.238 255.425 155.648C254.773 158.07 252.489 160.15 249.848 159.996C249.677 159.996 249.316 159.941 249.149 159.919L231.624 157.365C224.682 156.349 209.96 154.214 203.147 153.214C200.219 152.804 197.849 155.631 197.493 158.356C197.179 160.513 196.523 164.907 196.209 167.064C196.158 167.56 195.793 169.797 195.728 170.331L195.647 170.878C195.638 170.985 195.625 171.074 195.63 171.173C195.638 171.681 195.831 172.125 196.218 172.317C196.261 172.334 196.304 172.347 196.351 172.356L196.879 172.432C216.507 175.119 236.355 178.646 255.958 181.491C258.345 181.952 260.444 179.932 261.024 177.698C267.154 157.421 273.401 136.832 279.802 116.635C281.107 112.646 281.627 107.97 282.365 103.84C282.867 100.945 283.348 98.049 283.872 95.1578L283.254 95.0681L283.258 95.0766Z" fill="#626493"/>
<path d="M265.059 144.536C261.684 145.898 258.039 145.117 254.592 144.617C244.357 143.067 234.148 141.32 224.102 138.779L224.514 136.003C227.978 136.131 231.421 136.409 234.86 136.725C242.579 137.425 250.29 138.425 257.953 139.586C260.615 139.941 263.213 140.594 265.389 142.298L265.054 144.536H265.059Z" fill="#BCBDD2"/>
<path d="M237.946 155.14C237.946 155.14 237.907 155.127 237.924 155.153L237.95 155.217L237.997 155.345C238.027 155.431 238.062 155.516 238.087 155.601C238.633 157.344 238.993 159.257 238.916 161.2C238.873 162.016 238.693 162.64 238.641 163.387C238.594 164.117 238.452 165.698 238.435 166.385C238.379 167.252 238.212 168.239 238.1 169.088C237.989 169.823 237.731 170.904 237.594 171.642C237.34 172.898 237.031 174.512 236.722 175.721C236.413 176.998 235.992 178.352 235.683 179.633C235.49 180.982 234.734 182.324 234.387 183.605C234.151 184.591 233.627 185.757 233.232 186.654C232.987 187.265 232.867 187.91 232.558 188.619C231.978 189.887 231.343 191.087 230.772 192.33C230.536 192.872 230.304 193.743 229.948 194.32C228.604 196.729 227.243 199.137 225.744 201.452C225.264 202.336 224.585 203.353 224.014 204.185C223.684 204.732 223.091 205.42 222.696 205.919C221.988 206.85 220.846 208.187 220.116 209.118C219.652 209.665 219.416 210.122 218.914 210.745L217.506 212.402L217.42 212.501C217.025 212.957 216.325 213.504 215.965 213.876L214.539 215.37C213.814 216.135 212.298 217.625 211.525 218.339C210.886 218.898 210.315 219.304 209.984 219.611C209.529 220.038 208.894 220.747 208.323 221.157C207.812 221.542 207.455 221.742 207.039 222.05C206.747 222.285 205.433 223.284 205.129 223.523C204.815 223.775 204.197 224.36 203.841 224.6C203.257 225.039 202.535 225.377 202.007 225.71C199.285 227.619 196.448 229.387 193.451 230.831C192.76 231.189 191.854 231.535 191.197 231.868C190.493 232.308 189.566 232.791 188.724 233.128C187.788 233.56 186.767 233.952 185.813 234.35C183.495 235.135 181.203 236.075 178.824 236.669C177.493 237.04 176.064 237.322 174.746 237.694C174.278 237.809 173.342 238.078 172.882 238.227C172.191 238.458 171.161 238.556 170.5 238.62C169.508 238.761 168.452 239.133 167.421 239.193L166.417 239.269C165.348 239.423 163.467 239.744 162.261 239.684L160.239 239.855L159.827 239.889C159.208 239.966 158.586 240.089 157.89 240.042C156.461 239.919 154.984 239.432 153.984 238.381C153.76 238.381 153.58 238.202 153.58 237.98C153.58 237.758 153.76 237.578 153.984 237.578C153.975 237.527 154.001 237.51 154.022 237.493L154.091 237.437L154.228 237.331C155.233 236.656 156.289 236.126 157.453 235.921C157.942 235.84 158.191 235.802 158.753 235.716C159.779 235.571 160.956 235.46 161.982 235.362C163.519 235.353 164.313 235.127 165.953 234.883L166.988 234.781C167.288 234.747 167.473 234.717 167.726 234.657C168.22 234.529 168.791 234.371 169.272 234.273C169.993 234.11 170.869 234.115 171.573 233.884C172.075 233.709 173.114 233.393 173.634 233.256C174.9 232.846 176.21 232.611 177.476 232.236C179.717 231.655 181.868 230.737 184.053 229.972C185.238 229.481 186.496 228.93 187.655 228.392C187.887 228.277 188.535 227.879 188.849 227.7C189.342 227.418 189.991 227.149 190.454 226.948C190.892 226.769 191.678 226.346 192.116 226.137C194.627 224.86 196.997 223.331 199.294 221.708C199.766 221.388 200.496 221.021 200.964 220.713C201.299 220.47 201.947 219.863 202.286 219.611C202.647 219.334 203.338 218.813 203.707 218.527C204.197 218.129 204.957 217.651 205.408 217.326C205.91 216.934 206.176 216.575 206.726 216.079C207.408 215.469 207.958 215.097 208.34 214.755C209.061 214.089 210.474 212.714 211.16 212.009C211.68 211.48 212.938 210.164 213.47 209.763C213.62 209.626 213.887 209.409 214.011 209.25L215.269 207.816C215.565 207.448 215.999 206.795 216.36 206.372C216.999 205.59 218.12 204.262 218.768 203.498C219.094 203.066 219.687 202.392 220.013 201.965C220.618 201.098 221.344 200.085 221.863 199.159C223.345 196.929 224.714 194.623 226.054 192.304C226.187 192.086 226.273 191.894 226.371 191.629C226.547 191.113 226.981 190.156 227.286 189.601C227.685 188.772 228.265 187.726 228.647 186.949C228.969 186.12 229.342 184.894 229.793 184.07C230.274 183.126 230.39 182.358 230.785 181.328C231.055 180.628 231.308 180.248 231.506 179.612C231.733 178.732 232.038 177.579 232.326 176.682C233.026 174.495 233.524 172.095 234.035 169.857C234.266 169.007 234.447 167.876 234.58 167C234.769 165.74 234.825 164.297 234.979 163.041C235.031 162.396 235.211 161.602 235.305 161.03L235.408 160.081C235.451 159.753 235.499 159.42 235.554 159.091C235.7 158.348 235.812 157.007 236.147 156.105L236.319 155.601C236.344 155.516 236.383 155.435 236.413 155.35L236.465 155.221L236.49 155.157C236.49 155.132 236.542 155.149 236.568 155.145L237.774 154.837C237.946 154.786 238.083 155.021 237.95 155.145L237.946 155.14Z" fill="#FFBF9E"/>
<path d="M200.317 261.687L151.619 248.217C145.523 246.53 139.564 244.377 133.798 241.776L121.154 236.075L132.862 194.196L149.477 201.427C154.01 203.4 158.673 205.052 163.438 206.368L212.02 219.808L200.312 261.687H200.317Z" fill="white"/>
<path d="M200.352 262.169C195.6 261.341 190.512 260.414 185.708 259.099C177.143 256.886 168.441 254.627 159.889 252.329C151.315 250.075 142.763 247.807 134.636 244.232C130.493 242.477 122.941 238.992 118.781 237.177C119.292 235.281 131.038 192.757 131.45 191.232L133.73 192.223C139.286 194.61 147.31 198.177 152.796 200.474C159.043 203.071 165.899 204.8 172.433 206.611C184.914 210.006 201.979 214.871 214.571 218.381C212.352 226.244 210.072 234.123 207.732 241.952L204.499 252.68C203.46 256.045 202.507 259.445 200.352 262.165V262.169ZM200.15 261.196C200.309 257.271 200.992 253.397 201.992 249.741C204.478 239.855 207.354 229.028 210.042 219.257L211.476 221.781L191.371 216.297C183.055 214.038 174.576 211.672 166.255 209.374C161.172 208.016 156.051 206.47 151.169 204.463C148.361 203.314 144.364 201.529 141.552 200.316L132.004 196.152L134.941 194.764L123.083 236.6L121.984 234.26C127.625 236.724 135.271 240.517 140.913 242.69C146.369 244.967 154.638 247.141 160.395 248.802C173.747 252.735 187.077 256.169 200.155 261.196H200.15Z" fill="#626493"/>
<path d="M193.224 211.822C193.58 210.54 194.164 209.374 194.864 208.324C195.564 207.273 196.474 206.282 197.483 205.484C198.492 204.685 199.629 204.019 200.849 203.566C202.068 203.114 203.339 202.844 204.652 202.789C205.966 202.733 207.224 202.879 208.512 203.233C209.8 203.588 210.968 204.168 212.028 204.865C213.089 205.561 214.089 206.462 214.887 207.465C215.686 208.469 216.351 209.605 216.807 210.818C217.257 212.018 217.519 213.295 217.575 214.602C217.631 215.909 217.472 217.147 217.116 218.428C216.759 219.71 216.214 220.888 215.514 221.939C214.814 222.99 213.909 223.993 212.9 224.788C211.891 225.582 210.745 226.244 209.525 226.697C208.306 227.149 207.035 227.414 205.721 227.47C204.408 227.525 203.154 227.376 201.866 227.017C200.578 226.658 199.402 226.094 198.346 225.398C197.29 224.702 196.294 223.792 195.495 222.789C194.697 221.785 194.031 220.649 193.576 219.436C193.121 218.223 192.881 216.959 192.82 215.652C192.76 214.346 192.868 213.094 193.228 211.813L193.224 211.822Z" fill="#BCBDD2"/>
<path d="M192.511 211.625C195.07 202.516 205.996 198.625 213.664 204.339C223.62 211.745 219.146 227.452 206.864 228.772C201.497 229.379 195.942 226.487 193.482 221.717C191.876 218.603 191.657 214.978 192.511 211.625ZM193.937 212.018C191.803 219.5 198.857 227.243 206.52 226.013C216.034 224.561 219.37 212.629 211.96 206.517C205.76 201.256 196.216 204.339 193.937 212.018Z" fill="#626493"/>
<path d="M158.423 245.116C158.856 243.562 159.565 242.148 160.415 240.871C161.265 239.594 162.368 238.39 163.596 237.425C164.824 236.459 166.202 235.644 167.679 235.097C169.156 234.55 170.701 234.221 172.294 234.153C173.887 234.085 175.415 234.26 176.978 234.691C178.541 235.123 179.962 235.823 181.245 236.673C182.529 237.523 183.744 238.612 184.714 239.829C185.685 241.046 186.492 242.426 187.046 243.899C187.599 245.372 187.909 246.906 187.977 248.49C188.046 250.074 187.853 251.582 187.419 253.137C186.985 254.691 186.329 256.122 185.479 257.394C184.629 258.667 183.529 259.889 182.306 260.854C181.082 261.819 179.687 262.622 178.21 263.169C176.733 263.715 175.188 264.04 173.591 264.108C171.994 264.176 170.474 263.993 168.911 263.561C167.348 263.13 165.923 262.443 164.639 261.597C163.356 260.751 162.149 259.649 161.179 258.432C160.209 257.215 159.402 255.836 158.848 254.367C158.294 252.897 158.002 251.364 157.933 249.776C157.865 248.187 157.994 246.675 158.427 245.116H158.423Z" fill="#BCBDD2"/>
<path d="M157.754 244.932C158.772 238.522 164.482 233.367 170.904 232.564C182.668 230.937 192.297 242.302 188.996 253.572C185.883 265.026 171.913 269.912 162.503 262.413C158.115 259.047 155.878 253.333 156.801 247.939C156.951 246.897 157.213 245.863 157.595 244.885L157.754 244.928V244.932ZM159.248 245.347C157.771 254.341 165.216 263.164 174.536 262.165C186.399 260.841 190.567 245.983 181.114 238.736C175.309 234.166 166.929 235.293 162.09 240.687C160.871 242.024 159.832 243.591 159.089 245.3L159.248 245.342V245.347Z" fill="#626493"/>
</svg>
