<svg width="320" height="320" viewBox="0 0 320 320" fill="none" xmlns="http://www.w3.org/2000/svg">
<path d="M205.863 93.6653L205.387 82.9329C199.372 83.1977 194.28 78.564 194.014 72.5807C193.748 66.5974 198.406 61.5323 204.421 61.2675L203.944 50.5351C203.768 46.5334 200.359 43.4329 196.341 43.6123L169.719 44.7824L172.87 102.378L198.9 101.233C202.922 101.058 206.039 97.667 205.859 93.6696L205.863 93.6653Z" fill="#B3B4BD"/>
<path d="M205.048 93.7037L204.508 82.9713L205.426 83.8041C202.335 83.9664 199.197 82.8774 196.896 80.8018C192.036 76.6079 191.589 68.6943 195.981 63.9708C198.081 61.6091 201.167 60.1186 204.366 59.9478L203.104 61.323C202.983 59.3627 202.683 54.1225 202.567 52.2178L202.477 50.7017C202.46 50.4582 202.43 50.2874 202.412 50.0781C201.962 46.9178 198.871 44.7952 195.745 45.2479C195.127 45.3034 182.951 45.8843 182.011 45.9398L169.801 46.4864L171.441 44.6842C172.343 61.0326 173.476 85.7217 174.211 102.301L172.815 101.045L182.187 100.729C186.695 100.605 191.714 100.494 196.252 100.396C197.273 100.349 199.175 100.396 200.163 100.17C203.082 99.529 205.224 96.6719 205.057 93.6994L205.048 93.7037ZM206.676 93.6311C206.895 97.6071 203.885 101.331 199.944 102.002C199.54 102.091 199.085 102.109 198.673 102.147C193.341 102.463 187.61 102.894 182.295 103.193L172.931 103.701C172.206 103.74 171.587 103.193 171.54 102.472V102.446C170.527 85.7943 168.831 61.3059 168.007 44.8678C167.951 43.9197 168.694 43.104 169.647 43.0656L181.861 42.5403L194.075 42.0748C194.633 42.0491 195.831 42.015 196.385 42.0022C197.935 41.968 199.502 42.3395 200.854 43.0869C203.314 44.4066 205.04 46.9263 205.358 49.6809C205.482 51.0946 205.504 53.6826 205.564 55.1304L205.744 61.2077V61.2504C205.765 61.9636 205.199 62.5615 204.482 62.5786C199.266 62.6341 194.848 67.3191 195.088 72.5294C195.135 77.8464 200.004 82.3435 205.358 82.0574C205.838 82.0403 206.246 82.4119 206.263 82.8945L206.676 93.6311Z" fill="#5E5F6C"/>
<path d="M117.738 209.577L108.676 252.099L188.716 268.98L197.779 226.458L117.738 209.577Z" fill="#B3B4BD"/>
<path d="M188.719 268.992C162.857 264.102 134.119 258.682 108.402 253.408L107.102 253.143L107.372 251.832C109.901 239.284 113.941 220.45 116.585 207.809C136.497 212.058 158.255 216.671 178.021 221.091C184.98 222.646 191.948 224.175 198.903 225.772L198.697 226.66C196.043 238.55 191.531 256.999 188.719 268.992ZM188.719 268.992C190.935 256.901 194.567 238.2 196.872 226.276L197.589 227.373C190.896 226.084 184.211 224.73 177.527 223.402C158.212 219.545 136.819 215.108 117.431 211.042L119.213 209.889C116.675 221.958 112.588 240.467 109.987 252.378L108.956 250.803L118.831 252.964C140.846 257.862 166.674 263.85 188.719 268.987V268.992Z" fill="#5E5F6C"/>
<path d="M151.314 246.639C151.314 246.639 151.327 246.6 151.301 246.617L151.237 246.643L151.108 246.69C151.022 246.72 150.936 246.754 150.85 246.78C149.099 247.322 147.175 247.681 145.222 247.604C144.402 247.561 143.775 247.382 143.024 247.331C142.29 247.284 140.701 247.143 140.01 247.126C139.139 247.07 138.147 246.904 137.292 246.792C136.554 246.681 135.468 246.425 134.725 246.289C133.463 246.037 131.84 245.729 130.625 245.422C129.341 245.114 127.981 244.696 126.693 244.388C125.336 244.196 123.988 243.444 122.7 243.098C121.708 242.863 120.536 242.342 119.635 241.949C119.021 241.706 118.372 241.586 117.66 241.279C116.385 240.702 115.178 240.07 113.929 239.502C113.384 239.267 112.508 239.037 111.928 238.682C109.507 237.346 107.086 235.992 104.759 234.501C103.87 234.023 102.848 233.348 102.011 232.78C101.462 232.451 100.77 231.862 100.268 231.469C99.3321 230.764 97.9883 229.628 97.0524 228.902C96.5029 228.441 96.0435 228.206 95.4167 227.707L93.751 226.306L93.6522 226.22C93.1928 225.827 92.6433 225.131 92.2698 224.773L90.7672 223.355C89.9987 222.633 88.5004 221.125 87.7834 220.357C87.221 219.72 86.8132 219.152 86.5041 218.823C86.0748 218.371 85.3578 217.739 84.9499 217.171C84.5635 216.662 84.3618 216.308 84.0527 215.894C83.8165 215.608 82.8119 214.296 82.5715 213.993C82.3182 213.681 81.73 213.066 81.4896 212.712C81.0474 212.131 80.7083 211.414 80.3734 210.888C78.4544 208.181 76.677 205.358 75.2259 202.377C74.8652 201.689 74.5175 200.788 74.1826 200.135C73.7404 199.434 73.2553 198.512 72.9161 197.675C72.4825 196.744 72.0876 195.727 71.6883 194.779C70.8983 192.473 69.9538 190.192 69.3571 187.826C68.9879 186.502 68.7002 185.08 68.3267 183.769C68.2108 183.304 67.9403 182.373 67.7901 181.916C67.5583 181.228 67.4595 180.203 67.3951 179.545C67.2534 178.559 66.8799 177.508 66.8198 176.483L66.7425 175.484C66.588 174.421 66.266 172.55 66.3261 171.35L66.1544 169.338L66.12 168.928C66.0428 168.313 65.9183 167.694 65.9655 167.002C66.09 165.58 66.5794 164.111 67.6355 163.116C67.6355 162.894 67.8158 162.714 68.0391 162.714C68.2623 162.714 68.4426 162.894 68.4426 163.116C68.4942 163.107 68.5113 163.133 68.5285 163.154L68.5843 163.223L68.6916 163.359C69.37 164.359 69.9023 165.409 70.1084 166.567C70.19 167.054 70.2286 167.301 70.3145 167.861C70.4604 168.881 70.5721 170.052 70.6708 171.072C70.6794 172.601 70.9069 173.391 71.1516 175.023L71.2547 176.052C71.289 176.351 71.3191 176.535 71.3792 176.787C71.508 177.278 71.6668 177.846 71.7656 178.324C71.9287 179.042 71.9244 179.913 72.1562 180.613C72.3323 181.113 72.65 182.146 72.7873 182.663C73.1995 183.923 73.4356 185.226 73.8134 186.485C74.3973 188.715 75.3203 190.854 76.0888 193.028C76.5825 194.207 77.1363 195.458 77.6773 196.611C77.7932 196.842 78.1925 197.487 78.3728 197.799C78.6561 198.29 78.9266 198.935 79.1284 199.396C79.3087 199.831 79.7337 200.613 79.9441 201.049C81.2277 203.547 82.7647 205.904 84.3961 208.189C84.7181 208.659 85.0873 209.385 85.3964 209.846C85.6411 210.179 86.2508 210.824 86.5041 211.162C86.7831 211.52 87.3069 212.208 87.5945 212.575C87.9938 213.062 88.4746 213.818 88.8009 214.267C89.1959 214.766 89.5565 215.031 90.0545 215.578C90.6685 216.257 91.042 216.803 91.3854 217.183C92.0552 217.901 93.4376 219.306 94.1459 219.989C94.6783 220.506 96.0006 221.757 96.4042 222.287C96.5415 222.436 96.7605 222.701 96.9193 222.825L98.3618 224.076C98.7311 224.371 99.3879 224.802 99.8129 225.161C100.599 225.798 101.934 226.912 102.702 227.557C103.136 227.882 103.814 228.471 104.244 228.796C105.115 229.398 106.133 230.119 107.064 230.636C109.305 232.11 111.623 233.472 113.955 234.805C114.174 234.937 114.367 235.022 114.633 235.121C115.152 235.296 116.114 235.727 116.672 236.03C117.505 236.427 118.557 237.004 119.338 237.384C120.171 237.704 121.403 238.076 122.232 238.524C123.181 239.003 123.954 239.118 124.988 239.511C125.692 239.78 126.074 240.032 126.714 240.228C127.598 240.455 128.758 240.758 129.659 241.044C131.857 241.74 134.27 242.236 136.52 242.744C137.374 242.974 138.512 243.154 139.392 243.286C140.658 243.474 142.109 243.53 143.372 243.683C144.02 243.735 144.818 243.914 145.394 244.008L146.347 244.11C146.677 244.153 147.012 244.2 147.343 244.26C148.09 244.405 149.438 244.516 150.344 244.849L150.85 245.02C150.936 245.046 151.018 245.084 151.104 245.114L151.232 245.165L151.297 245.191C151.323 245.191 151.305 245.242 151.31 245.268L151.619 246.468C151.67 246.639 151.434 246.775 151.31 246.643L151.314 246.639Z" fill="#FFBF9E"/>
<path d="M153.984 81.0282C153.984 81.0282 153.971 81.0666 153.997 81.0495L154.061 81.0239L154.19 80.9769C154.276 80.947 154.362 80.9128 154.448 80.8872C156.199 80.3448 158.123 79.9861 160.076 80.063C160.896 80.1057 161.523 80.285 162.274 80.3363C163.008 80.3833 164.597 80.5242 165.288 80.5413C166.159 80.5968 167.151 80.7634 168.005 80.8744C168.744 80.9854 169.83 81.2417 170.573 81.3784C171.835 81.6303 173.458 81.9378 174.673 82.2453C175.956 82.5528 177.317 82.9713 178.605 83.2788C179.962 83.471 181.31 84.2227 182.598 84.5686C183.59 84.8035 184.762 85.3245 185.663 85.7174C186.277 85.9609 186.926 86.0804 187.638 86.3879C188.913 86.9645 190.12 87.5965 191.369 88.1646C191.914 88.3994 192.79 88.6301 193.37 88.9845C195.787 90.3213 198.212 91.6751 200.539 93.1656C201.428 93.6439 202.45 94.3187 203.287 94.8867C203.836 95.2155 204.528 95.8049 205.03 96.1978C205.966 96.9025 207.31 98.0385 208.245 98.7645C208.795 99.2258 209.254 99.4607 209.881 99.9603L211.547 101.361L211.646 101.447C212.105 101.839 212.655 102.536 213.028 102.894L214.531 104.312C215.299 105.034 216.798 106.542 217.514 107.31C218.077 107.947 218.485 108.515 218.794 108.843C219.223 109.296 219.94 109.928 220.348 110.496C220.734 111.004 220.936 111.359 221.245 111.773C221.481 112.059 222.486 113.37 222.726 113.674C222.98 113.985 223.568 114.6 223.808 114.955C224.25 115.536 224.59 116.253 224.924 116.778C226.844 119.486 228.621 122.309 230.072 125.29C230.433 125.978 230.78 126.879 231.115 127.532C231.557 128.233 232.043 129.155 232.382 129.992C232.815 130.923 233.21 131.94 233.61 132.888C234.4 135.194 235.344 137.474 235.941 139.84C236.31 141.164 236.598 142.587 236.971 143.898C237.087 144.363 237.358 145.294 237.508 145.751C237.74 146.439 237.838 147.464 237.903 148.121C238.044 149.108 238.418 150.159 238.478 151.184L238.555 152.183C238.71 153.246 239.032 155.117 238.972 156.317L239.144 158.328L239.178 158.738C239.255 159.353 239.38 159.973 239.332 160.665C239.208 162.087 238.719 163.556 237.662 164.551C237.662 164.773 237.482 164.952 237.259 164.952C237.036 164.952 236.855 164.773 236.855 164.551C236.804 164.559 236.787 164.534 236.769 164.513L236.714 164.444L236.606 164.308C235.928 163.308 235.396 162.258 235.19 161.1C235.108 160.613 235.069 160.366 234.983 159.806C234.837 158.785 234.726 157.615 234.627 156.595C234.619 155.066 234.391 154.276 234.146 152.644L234.043 151.615C234.009 151.316 233.979 151.132 233.919 150.88C233.79 150.389 233.631 149.821 233.532 149.343C233.369 148.625 233.373 147.754 233.142 147.054C232.966 146.554 232.648 145.521 232.511 145.004C232.098 143.744 231.862 142.441 231.484 141.181C230.901 138.952 229.978 136.813 229.209 134.639C228.715 133.46 228.162 132.209 227.621 131.056C227.505 130.825 227.105 130.18 226.925 129.868C226.642 129.377 226.371 128.732 226.17 128.271C225.989 127.835 225.564 127.054 225.354 126.618C224.07 124.12 222.533 121.762 220.902 119.478C220.58 119.008 220.211 118.282 219.901 117.821C219.657 117.487 219.047 116.843 218.794 116.505C218.515 116.146 217.991 115.459 217.703 115.092C217.304 114.605 216.823 113.849 216.497 113.4C216.102 112.901 215.741 112.636 215.243 112.089C214.629 111.41 214.256 110.864 213.912 110.483C213.243 109.766 211.86 108.361 211.152 107.678C210.62 107.161 209.297 105.909 208.894 105.38C208.756 105.23 208.537 104.966 208.379 104.842L206.936 103.59C206.567 103.296 205.91 102.864 205.485 102.506C204.699 101.869 203.364 100.755 202.596 100.11C202.162 99.7852 201.484 99.1959 201.054 98.8713C200.183 98.2691 199.165 97.5474 198.234 97.0306C195.993 95.5572 193.674 94.1948 191.343 92.8624C191.124 92.73 190.931 92.6446 190.665 92.5463C190.145 92.3712 189.184 91.9399 188.626 91.6367C187.793 91.2395 186.741 90.6629 185.96 90.2828C185.127 89.9625 183.895 89.591 183.066 89.1426C182.117 88.6642 181.344 88.5489 180.31 88.156C179.606 87.887 179.224 87.635 178.584 87.4385C177.699 87.2122 176.54 86.909 175.639 86.6228C173.441 85.9267 171.028 85.4313 168.778 84.9231C167.924 84.6924 166.786 84.5131 165.906 84.3807C164.64 84.1928 163.189 84.1373 161.926 83.9835C161.278 83.9323 160.48 83.7529 159.904 83.6589L158.951 83.5564C158.621 83.5137 158.286 83.4667 157.955 83.4112C157.208 83.266 155.86 83.155 154.954 82.8219L154.448 82.651C154.362 82.6254 154.28 82.587 154.194 82.5571L154.066 82.5058L154.001 82.4802C153.975 82.4802 153.993 82.429 153.988 82.4033L153.679 81.2033C153.628 81.0324 153.864 80.8958 153.988 81.0282H153.984Z" fill="#FFBF9E"/>
<path d="M69.5936 124.735C69.1857 124.688 68.7907 124.568 68.3872 124.534C67.9836 124.5 67.5672 124.568 67.1679 124.551C66.7686 124.534 66.3522 124.619 65.9529 124.619C65.5494 124.619 65.1415 124.47 64.7337 124.487C64.3258 124.504 63.9309 124.598 63.523 124.632C63.1151 124.666 62.7331 124.824 62.3295 124.871C61.9603 124.923 61.5911 124.931 61.2304 124.995C60.8698 125.059 60.462 124.935 60.1013 125.012C59.7407 125.089 59.3758 125.187 59.0194 125.277C58.6631 125.367 58.3068 125.499 57.9547 125.602C57.6027 125.704 57.2507 125.849 56.9029 125.965C56.5552 126.08 56.2117 126.247 55.8683 126.375C55.5248 126.503 55.22 126.751 54.8808 126.896C54.5417 127.041 54.1424 127.054 53.8075 127.208C53.4727 127.361 53.2151 127.682 52.8888 127.848C52.5625 128.015 52.1289 127.993 51.8069 128.173C51.4849 128.352 51.2359 128.664 50.9225 128.856C50.6091 129.048 50.3343 129.304 50.0295 129.509C49.7247 129.714 49.304 129.761 49.0035 129.975C48.7029 130.189 48.3638 130.359 48.0718 130.59C47.7799 130.821 47.6168 131.201 47.3334 131.44C47.0501 131.679 46.8139 131.965 46.5435 132.213C46.273 132.461 46.0068 132.713 45.7449 132.973C45.483 133.234 45.1267 133.4 44.8734 133.669C44.6201 133.938 44.384 134.224 44.1436 134.502C43.9031 134.78 43.6928 135.087 43.4652 135.377C43.2377 135.668 42.9415 135.907 42.7225 136.206C42.5036 136.505 42.4435 136.911 42.2374 137.214C42.0313 137.517 41.8467 137.833 41.6535 138.149C41.4603 138.465 41.2457 138.76 41.0654 139.08C40.885 139.4 40.6618 139.695 40.4944 140.024C40.3269 140.353 40.1209 140.66 39.9663 140.993C39.8117 141.327 39.5928 141.634 39.4468 141.976C39.3009 142.317 39.1892 142.668 39.0604 143.014C38.9316 143.359 38.9917 143.769 38.8758 144.12C38.7599 144.47 38.5109 144.777 38.4079 145.128C38.3048 145.478 38.2404 145.845 38.1503 146.204C38.0601 146.563 38.1074 146.947 38.0301 147.306C37.9528 147.664 37.7296 147.997 37.6694 148.36C37.6093 148.724 37.5449 149.087 37.4977 149.454C37.4505 149.821 37.399 150.184 37.3689 150.551C37.3389 150.919 37.3432 151.29 37.326 151.658C37.3088 152.025 37.326 152.392 37.326 152.764C37.326 153.135 37.429 153.494 37.4419 153.865C37.4548 154.237 37.3174 154.604 37.3389 154.976C37.3603 155.347 37.3947 155.71 37.4376 156.078C37.4805 156.445 37.4763 156.817 37.5278 157.18C37.5793 157.543 37.6952 157.897 37.7639 158.26C37.8326 158.623 38.0043 158.96 38.0859 159.319C38.1675 159.678 38.2834 160.024 38.3778 160.383C38.4723 160.741 38.3778 161.147 38.4851 161.502C38.5925 161.856 38.7986 162.172 38.9231 162.522C39.0476 162.872 39.2579 163.18 39.391 163.526C39.5241 163.872 39.567 164.248 39.7173 164.585C39.8676 164.922 40.0951 165.221 40.2539 165.554C40.4128 165.888 40.6146 166.191 40.7906 166.52C40.9666 166.849 40.958 167.267 41.1426 167.587C41.3272 167.908 41.7093 168.104 41.9068 168.42C42.1043 168.736 42.1344 169.146 42.3447 169.454C42.5551 169.761 42.8299 170.013 43.0488 170.312C43.2678 170.611 43.418 170.961 43.6456 171.252C43.8731 171.542 44.2423 171.717 44.4827 171.999C44.706 172.264 44.9807 172.494 45.204 172.759C45.4272 173.024 45.4745 173.438 45.6977 173.707C45.9209 173.976 46.2386 174.169 46.4576 174.442C46.6765 174.715 46.7882 175.07 46.9985 175.343C47.2218 175.638 47.5481 175.847 47.7627 176.129C47.9774 176.411 48.1019 176.791 48.3208 177.073C48.5398 177.355 48.8403 177.598 49.0593 177.88C49.2782 178.162 49.5229 178.448 49.7376 178.734C49.9522 179.02 50.2871 179.238 50.5061 179.52C50.725 179.802 50.9311 180.118 51.1458 180.404C51.3604 180.69 51.369 181.151 51.5837 181.437C51.7983 181.723 52.1074 181.958 52.3178 182.249C52.5282 182.539 52.6956 182.872 52.906 183.163C53.1163 183.453 53.3224 183.761 53.5285 184.055C53.7345 184.35 53.9063 184.675 54.1123 184.969C54.3184 185.264 54.6318 185.495 54.8336 185.793C55.0354 186.092 55.3574 186.315 55.5549 186.622C55.7523 186.93 55.7824 187.331 55.9756 187.643C56.1688 187.954 56.4994 188.168 56.6883 188.48C56.8772 188.792 56.933 189.172 57.1176 189.488C57.3022 189.804 57.5812 190.051 57.7615 190.372C57.9419 190.692 57.9676 191.076 58.1436 191.401C58.3197 191.726 58.5815 191.978 58.7533 192.306C58.925 192.635 58.9851 192.994 59.1525 193.323C59.32 193.652 59.4402 193.98 59.6033 194.309C59.7665 194.638 59.9768 194.924 60.14 195.257C60.3031 195.591 60.5264 195.868 60.6852 196.201C60.8441 196.534 60.9342 196.876 61.0931 197.213C61.2519 197.551 61.4666 197.828 61.6211 198.166C61.7757 198.503 62.0247 198.772 62.1792 199.11C62.3338 199.447 62.4755 199.767 62.6257 200.105C62.776 200.442 62.6772 200.865 62.8275 201.202C62.9778 201.54 63.3212 201.775 63.4715 202.112C63.6217 202.449 63.5488 202.864 63.6947 203.201C63.8879 203.649 64.3816 203.837 64.738 204.068C65.1201 204.32 65.5022 204.452 65.9486 204.457C65.9529 204.457 65.9529 204.7 65.9615 204.7C66.408 204.7 66.9275 204.529 67.3096 204.277C67.6659 204.047 67.9622 203.628 68.1553 203.175C68.3013 202.838 68.4687 202.513 68.6104 202.185C68.7521 201.856 68.6877 201.42 68.8294 201.091C68.9711 200.762 69.3832 200.536 69.5292 200.207C69.6751 199.878 69.5506 199.417 69.6966 199.093C69.8426 198.768 70.0916 198.465 70.2375 198.144C70.3835 197.824 70.6325 197.521 70.7828 197.196C70.933 196.872 71.0661 196.522 71.2207 196.201C71.3752 195.881 71.401 195.475 71.5555 195.155C71.7101 194.835 71.972 194.54 72.1308 194.224C72.2897 193.908 72.4657 193.571 72.6288 193.254C72.792 192.938 72.9809 192.614 73.1483 192.298C73.3158 191.982 73.6034 191.708 73.7708 191.397C73.9383 191.085 74.0413 190.713 74.2173 190.402C74.3933 190.09 74.6123 189.787 74.7926 189.479C74.9729 189.172 75.1661 188.856 75.3507 188.548C75.5353 188.241 75.5697 187.826 75.7586 187.523C75.9475 187.22 76.321 187.015 76.5142 186.716C76.7074 186.417 76.9392 186.131 77.141 185.828C77.3428 185.524 77.5961 185.26 77.8021 184.965C78.0082 184.67 78.0812 184.282 78.2916 183.983C78.5019 183.684 78.7209 183.402 78.9355 183.107C79.1502 182.813 79.4164 182.565 79.6353 182.27C79.8543 181.975 80.0303 181.668 80.2492 181.373C80.4682 181.079 80.5669 180.716 80.7902 180.421C81.0134 180.126 81.3741 179.96 81.5973 179.669C81.8205 179.379 82.0653 179.123 82.2928 178.832C82.5203 178.542 82.735 178.264 82.9625 177.974C83.1901 177.683 83.409 177.41 83.6323 177.12C83.8555 176.829 83.9757 176.475 84.199 176.184C84.4222 175.894 84.5081 175.514 84.7313 175.219C84.9417 174.942 85.1993 174.694 85.4139 174.421C85.6286 174.147 85.8604 173.882 86.0837 173.613C86.3069 173.344 86.5473 173.092 86.7706 172.823C86.9938 172.554 87.3545 172.4 87.5777 172.131C87.8181 171.85 87.8525 171.401 88.08 171.115C88.3076 170.829 88.6381 170.611 88.8571 170.316C89.076 170.022 89.1834 169.646 89.3894 169.343C89.5955 169.039 90.0205 168.869 90.218 168.561C90.4155 168.254 90.5701 167.903 90.7504 167.587C90.9307 167.271 91.0251 166.891 91.1969 166.567C91.3686 166.242 91.506 165.896 91.6648 165.567C91.8237 165.238 92.0083 164.914 92.1585 164.576C92.3088 164.239 92.4033 163.88 92.5363 163.539C92.6694 163.197 92.7853 162.847 92.9056 162.501C93.0258 162.155 93.322 161.86 93.4293 161.51C93.5366 161.16 93.5753 160.78 93.6697 160.425C93.7642 160.071 93.9102 159.721 93.9917 159.362C94.0733 159.003 93.9273 158.597 93.9917 158.234C94.0561 157.871 94.288 157.538 94.3395 157.175C94.391 156.812 94.3481 156.432 94.3867 156.069C94.4253 155.706 94.64 155.347 94.6615 154.984C94.6829 154.621 94.4554 154.237 94.464 153.87C94.4726 153.502 94.4425 153.139 94.4382 152.772C94.4339 152.405 94.6615 152.029 94.6443 151.662C94.6271 151.294 94.5498 150.927 94.5198 150.56C94.4897 150.193 94.318 149.842 94.2708 149.475C94.2236 149.108 94.421 148.706 94.3609 148.343C94.3008 147.98 94.1935 147.622 94.1205 147.259C94.0475 146.896 93.996 146.524 93.9102 146.17C93.8243 145.815 93.4894 145.516 93.3864 145.166C93.2834 144.816 93.2447 144.44 93.1288 144.09C93.0129 143.74 93.0472 143.334 92.9184 142.988C92.7896 142.642 92.6265 142.305 92.4805 141.967C92.3346 141.63 91.961 141.391 91.8065 141.058C91.6519 140.724 91.6691 140.306 91.5017 139.977C91.3342 139.648 91.0251 139.396 90.8448 139.076C90.6645 138.756 90.5958 138.367 90.4026 138.055C90.2094 137.743 89.9733 137.453 89.7672 137.146C89.5612 136.838 89.3293 136.552 89.1104 136.253C88.8914 135.954 88.5523 135.753 88.3204 135.467C88.0886 135.181 87.8868 134.878 87.6421 134.596C87.3974 134.314 87.3373 133.878 87.0883 133.609C86.8393 133.34 86.4958 133.152 86.2339 132.892C85.9721 132.631 85.8046 132.273 85.5299 132.021C85.2551 131.769 84.8215 131.705 84.5381 131.465C84.2548 131.226 83.9457 131.03 83.6537 130.803C83.3618 130.577 83.1901 130.197 82.8896 129.979C82.589 129.761 82.1769 129.71 81.8678 129.505C81.5587 129.3 81.3612 128.933 81.0435 128.736C80.7258 128.54 80.3737 128.416 80.0518 128.233C79.7298 128.049 79.4121 127.865 79.0815 127.699C78.7509 127.532 78.4375 127.327 78.1026 127.173C77.7678 127.02 77.4415 126.827 77.1023 126.687C76.7632 126.546 76.3467 126.588 75.999 126.46C75.6512 126.332 75.3507 126.076 74.9987 125.96C74.6466 125.845 74.3032 125.696 73.9469 125.593C73.5905 125.491 73.1998 125.525 72.8392 125.435C72.4786 125.345 72.1094 125.32 71.7444 125.243C71.3795 125.166 71.0275 125.068 70.6626 125C70.2976 124.931 69.9499 124.79 69.5807 124.739L69.5936 124.735ZM65.9486 165.815C65.5794 165.815 65.2274 165.721 64.8668 165.691C64.5061 165.661 64.1326 165.712 63.7763 165.653C63.42 165.593 63.0379 165.614 62.6858 165.525C62.3338 165.435 62.029 165.179 61.6855 165.059C61.3421 164.939 60.9771 164.875 60.6466 164.73C60.316 164.585 59.9296 164.529 59.6076 164.359C59.2856 164.188 58.9937 163.953 58.6889 163.756C58.3841 163.56 58.208 163.188 57.9204 162.966C57.6328 162.744 57.3537 162.527 57.0875 162.283C56.8213 162.04 56.5423 161.813 56.2933 161.549C56.0443 161.284 55.7867 161.032 55.5634 160.746C55.3402 160.459 55.0955 160.195 54.8937 159.887C54.6919 159.58 54.4 159.332 54.224 159.012C54.0479 158.691 54.0179 158.303 53.8719 157.97C53.726 157.637 53.4254 157.359 53.3095 157.017C53.1936 156.676 53.3009 156.261 53.2108 155.911C53.1206 155.561 52.906 155.236 52.8459 154.878C52.7857 154.519 52.6698 154.164 52.6398 153.797C52.6097 153.43 52.7943 153.067 52.7943 152.7C52.7943 152.332 52.8802 151.982 52.9103 151.623C52.9403 151.265 52.7943 150.88 52.8501 150.521C52.906 150.163 52.9274 149.787 53.0176 149.437C53.1077 149.087 53.2151 148.728 53.3353 148.386C53.4555 148.044 53.7217 147.75 53.8676 147.421C54.0136 147.092 54.1639 146.759 54.3356 146.439C54.5073 146.118 54.6662 145.79 54.8679 145.486C55.0697 145.183 55.3488 144.94 55.5763 144.653C55.8039 144.367 55.8983 143.97 56.143 143.705C56.3877 143.441 56.641 143.163 56.9115 142.92C57.182 142.676 57.4868 142.458 57.7744 142.236C58.0621 142.014 58.3969 141.843 58.7018 141.647C59.0066 141.45 59.3457 141.301 59.6677 141.13C59.9897 140.959 60.346 140.87 60.6809 140.72C61.0158 140.571 61.3378 140.421 61.6855 140.306C62.0333 140.191 62.3252 139.9 62.6815 139.81C63.0379 139.721 63.4243 139.789 63.7849 139.729C64.1455 139.67 64.5018 139.597 64.8668 139.567C65.2317 139.537 65.5923 139.396 65.9615 139.396C66.3307 139.396 66.6914 139.571 67.052 139.601C67.4126 139.631 67.7775 139.687 68.1339 139.742C68.4902 139.798 68.8465 139.887 69.1986 139.977C69.5506 140.067 69.9113 140.139 70.2547 140.255C70.5982 140.37 70.9545 140.477 71.2851 140.622C71.6157 140.767 71.9977 140.84 72.3197 141.011C72.6417 141.181 72.8778 141.506 73.1827 141.702C73.4875 141.899 73.7837 142.112 74.0714 142.334C74.359 142.557 74.6037 142.826 74.8699 143.073C75.1361 143.321 75.4323 143.535 75.6813 143.799C75.9303 144.064 76.2437 144.278 76.4669 144.564C76.6902 144.85 76.9306 145.136 77.1324 145.439C77.3342 145.743 77.3428 146.161 77.5145 146.477C77.6862 146.793 77.9309 147.075 78.0769 147.408C78.2229 147.741 78.4418 148.049 78.5577 148.39C78.6736 148.732 78.6779 149.112 78.7681 149.467C78.8583 149.821 79.0128 150.154 79.0729 150.517C79.133 150.88 79.2189 151.235 79.2446 151.598C79.2704 151.961 79.0815 152.328 79.0815 152.691C79.0815 153.054 79.2876 153.43 79.2618 153.789C79.236 154.147 78.987 154.489 78.9269 154.843C78.8668 155.198 78.8711 155.569 78.781 155.92C78.6908 156.27 78.4976 156.59 78.3817 156.932C78.2658 157.274 78.2958 157.675 78.1499 158.008C78.0039 158.341 77.8966 158.704 77.7249 159.02C77.5531 159.336 77.171 159.537 76.9692 159.84C76.7675 160.143 76.6644 160.515 76.4412 160.801C76.2179 161.087 75.8831 161.279 75.6384 161.549C75.3937 161.818 75.2262 162.164 74.96 162.407C74.6939 162.65 74.3289 162.787 74.0413 163.009C73.7537 163.231 73.5132 163.517 73.2084 163.718C72.9036 163.919 72.5988 164.12 72.2768 164.295C71.9548 164.47 71.68 164.747 71.3452 164.897C71.0103 165.046 70.654 165.157 70.3062 165.277C69.9585 165.396 69.5378 165.238 69.1814 165.324C68.8251 165.409 68.5031 165.589 68.1382 165.648C67.7733 165.708 67.4169 165.687 67.052 165.717C66.6871 165.747 66.335 165.815 65.9658 165.815H65.9486Z" fill="#B3B4BD"/>
<path d="M69.3706 126.426C68.7609 126.366 68.5076 126.204 68.0139 126.221C67.7392 126.221 67.3485 126.259 67.078 126.238C66.8548 126.217 66.155 126.332 65.7986 126.294C65.3779 126.255 65.159 126.217 64.8069 126.157C64.6524 126.161 63.5791 126.294 63.3945 126.341C63.2013 126.396 62.8621 126.464 62.6174 126.503C62.2954 126.55 61.7845 126.58 61.587 126.61C61.2565 126.665 60.6983 126.674 60.4365 126.635C59.3889 126.81 57.6502 127.395 56.4223 127.891C56.3665 127.904 56.1604 128.049 55.7655 128.254C55.4091 128.446 54.7995 128.596 54.4775 128.66C54.5162 128.643 54.529 128.625 54.4646 128.672C54.3358 128.749 54.0782 129.057 53.4214 129.351C52.9921 129.518 52.8246 129.522 52.4984 129.595C52.6529 129.522 52.5842 129.531 52.3653 129.732C52.2107 129.877 51.8372 130.15 51.5968 130.3C51.3478 130.475 51.0687 130.722 50.8068 130.872C50.3947 131.107 50.2101 131.145 49.8752 131.273C49.8623 131.278 49.8752 131.273 49.901 131.256C49.7335 131.376 49.1583 131.726 49.0552 131.79C49.0638 131.777 49.0724 131.773 49.0552 131.79C48.9822 131.846 48.8363 132.162 48.3468 132.606C48.2223 132.708 48.0764 132.862 47.8445 133.097C47.3508 133.558 47.0031 133.925 46.4621 134.37C46.1359 134.604 45.9684 134.72 45.9899 134.711C45.3159 135.403 44.6247 136.415 43.9292 137.086C43.9635 137.005 43.8948 137.15 43.7403 137.534C43.6802 137.688 43.5685 137.884 43.4655 138.042L43.4097 138.128L43.1993 138.461C42.7915 139.119 42.1732 140.024 41.7997 140.643C41.6624 140.891 41.4477 141.267 41.306 141.51C41.1643 141.805 40.8381 142.352 40.7522 142.522L40.4731 143.24L40.4002 143.424L40.3658 143.518C40.3787 143.462 40.3572 143.53 40.3486 143.658C40.3358 143.774 40.3272 143.953 40.2842 144.192C40.2971 144.53 39.7734 145.409 39.7218 145.529C39.6574 145.76 39.5244 146.34 39.46 146.563C39.417 146.947 39.4041 147.545 39.2453 147.951C39.0907 148.365 38.9791 148.578 38.9791 148.604C38.7086 149.988 38.5756 151.406 38.597 152.815C38.6056 153.229 38.7344 153.511 38.6872 154.164C38.64 154.596 38.5756 154.839 38.5841 154.899C38.5841 154.908 38.5841 154.908 38.5841 154.912L38.5927 155.006L38.6099 155.202C38.67 155.796 38.6872 156.586 38.7559 157.133C38.773 157.346 38.919 157.773 38.9619 158.098C39.0435 158.41 39.1809 158.73 39.2582 159.093C39.3226 159.375 39.4428 159.772 39.5072 160.054L39.5458 160.208C39.5587 160.276 39.5716 160.34 39.5802 160.404C39.6274 160.887 39.593 161.151 39.6059 161.19C39.6059 161.203 39.5973 161.16 39.6059 161.211C39.7648 161.596 39.9365 161.98 40.1082 162.407C40.2027 162.612 40.3744 162.902 40.5118 163.308C40.7393 164.034 40.6234 164.026 40.9969 164.623C41.1257 164.816 41.3017 165.204 41.4305 165.426C41.5636 165.674 41.7439 165.982 41.8513 166.238C42.023 166.708 42.0402 166.989 42.0788 167.058C42.2076 167.241 42.5124 167.438 42.7271 167.754C42.9975 168.155 43.0705 168.476 43.2079 168.869C43.2938 169.039 43.4784 169.202 43.6973 169.484C44.0021 169.812 44.2125 170.316 44.4572 170.658C44.6118 170.859 44.908 170.957 45.2558 171.384C45.3717 171.525 45.5606 171.704 45.7924 171.952C46.1015 172.242 46.3505 172.81 46.4578 173.122C46.7154 173.383 47.1276 173.699 47.3465 174.066C47.5612 174.416 47.6599 174.668 47.7372 174.771C48.0077 175.087 48.656 175.633 48.8406 176.146C49.0724 176.693 49.3085 176.778 49.7378 177.303C49.8838 177.5 50.3389 178.072 50.4806 178.26C50.678 178.491 51.0344 178.76 51.2319 179.05L51.3521 179.221L51.8329 179.9C52.0991 180.276 52.1506 180.588 52.2751 180.963C52.4254 181.138 52.6486 181.378 52.8547 181.604C53.138 181.941 53.3785 182.411 53.5759 182.706C53.9452 183.227 54.3874 183.91 54.7179 184.453L54.7737 184.542L54.8081 184.589C54.8296 184.619 54.8596 184.658 54.8982 184.696L55.1773 184.991C55.2846 185.11 55.4177 185.26 55.5036 185.401C55.5766 185.542 56.0188 185.913 56.1862 186.195C56.4052 186.502 56.491 186.947 56.6069 187.237C56.7915 187.553 57.0792 187.677 57.3625 188.185C57.56 188.557 57.6158 188.851 57.6931 189.031C57.8434 189.377 58.1267 189.607 58.3328 189.962C58.5432 190.261 58.6634 190.923 58.7793 191.132C58.8694 191.294 59.0455 191.504 59.2344 191.79C59.4834 192.144 59.5864 192.644 59.741 193.011C60.0501 193.771 60.4279 194.463 60.8228 195.189L61.0289 195.535C61.3337 195.988 61.484 196.641 61.7029 197.085C61.8618 197.359 62.1022 197.799 62.2782 198.14L62.4972 198.486C62.5745 198.61 62.6689 198.781 62.729 198.926L62.8964 199.306L63.0639 199.686L63.1455 199.878C63.3043 200.177 63.2785 200.835 63.3258 200.959C63.3344 201.04 63.4803 201.211 63.6907 201.463C63.7894 201.591 63.9053 201.749 63.9869 201.958C64.0642 202.168 64.0857 202.347 64.1028 202.496C64.1415 202.804 64.1715 202.983 64.2359 203.056C64.3604 203.21 64.8112 203.466 65.0731 203.603C65.3393 203.765 65.6269 203.863 65.9317 203.854C65.7428 203.53 67.0522 204.726 66.5714 204.469V204.534L66.58 204.636C66.58 204.64 66.58 204.683 66.58 204.636C65.3436 203.551 66.258 204.333 65.9875 204.089C66.6272 204.03 67.2025 203.684 67.4515 203.06L67.5975 202.718C67.6147 202.667 67.9409 201.933 67.9452 201.903C68.0182 201.488 67.9624 201.121 68.2071 200.669C68.3874 200.37 68.6364 200.13 68.7996 199.938C68.8339 199.878 68.7996 199.938 68.8125 199.896C68.8296 199.601 68.7867 199.174 68.9455 198.806C69.0271 198.58 69.2289 198.273 69.3491 198.063C69.5337 197.709 69.7355 197.307 69.933 196.991C70.0575 196.744 70.3279 196.048 70.4353 195.783C70.5126 195.539 70.5512 195.228 70.6414 194.984C70.7873 194.549 71.1007 194.19 71.2853 193.81C71.5859 193.182 71.895 192.554 72.217 191.935C72.3715 191.593 72.6592 191.256 72.8352 190.987C73.0155 190.662 73.0412 190.397 73.2988 189.915C73.6208 189.385 74.0544 188.625 74.3592 188.091L74.4108 188.002C74.4194 187.98 74.4108 187.997 74.4151 187.984L74.4408 187.912C74.5009 187.767 74.531 187.412 74.8358 186.9C75.1664 186.421 75.4626 186.238 75.5356 186.131C75.922 185.559 76.3384 184.927 76.7591 184.384C76.8794 184.213 76.8665 184.132 77.1026 183.62C77.1799 183.487 77.3044 183.257 77.416 183.124C77.6264 182.847 77.8453 182.497 78.06 182.223C78.2017 182.044 78.4464 181.771 78.588 181.591C78.7469 181.361 79.129 180.793 79.2749 180.553C79.4638 180.113 79.8588 179.417 80.2624 179.153C80.4856 178.96 80.5328 178.952 80.6445 178.794C81.1296 178.226 81.9582 177.086 82.4176 176.492C82.6666 176.206 82.761 175.838 83.1088 175.36C83.2633 175.014 83.4393 174.638 83.6798 174.331C84.3538 173.554 85.0364 172.67 85.7147 171.897C85.9251 171.64 86.3716 171.316 86.4961 171.222C86.4317 171.299 86.4317 171.329 86.4574 171.252C86.5304 170.94 86.8052 170.389 87.0671 170.103C87.4363 169.667 87.6209 169.62 87.7239 169.42C87.8871 169.078 88.1103 168.561 88.4237 168.237C88.6341 168.019 88.8788 167.835 89.0462 167.698C89.0334 167.711 88.999 167.75 88.9861 167.771C88.9733 167.792 88.9947 167.754 88.999 167.745L89.3682 167.049L89.4627 166.874C89.5829 166.618 89.6602 166.357 89.8061 166.033C89.9521 165.747 90.1925 165.183 90.3299 164.888C90.493 164.53 90.8279 163.932 90.9309 163.547L91.4891 161.933C91.7467 161.28 91.9785 161.104 91.9828 160.981C92.0686 160.417 92.3176 159.511 92.4722 159.016C92.4507 159.106 92.4593 159.127 92.455 159.05C92.382 158.73 92.3992 158.102 92.5023 157.726C92.5967 157.389 92.747 157.039 92.7813 156.936C92.8157 156.693 92.7556 156.377 92.8114 155.894C92.8543 155.544 92.9573 155.189 93.0689 154.865C93.0861 154.814 93.0689 154.797 93.0689 154.929C93.0689 155.031 93.0818 155.019 93.0518 154.929C92.996 154.72 92.85 154.254 92.8629 153.912C92.8543 153.37 92.7684 152.597 92.9058 152.076C92.9659 151.824 93.0131 151.692 93.026 151.615C93.026 151.623 93.0174 151.692 93.0217 151.73C93.0174 151.653 93.0046 151.555 92.9874 151.44L92.9273 151.03L92.8972 150.782C92.8843 150.65 92.8886 150.722 92.8886 150.697C92.8886 150.65 92.7899 150.406 92.6826 149.941C92.6568 149.813 92.6353 149.719 92.6182 149.492C92.6182 149.168 92.6525 148.711 92.7083 148.514C92.7255 148.429 92.7083 148.437 92.7169 148.578C92.5795 148.074 92.4035 147.212 92.279 146.592C92.3005 146.665 92.3133 146.695 92.3176 146.708C92.1803 146.516 91.8411 145.999 91.7509 145.606L91.7123 145.461L91.6522 145.2C91.6136 145.038 91.5492 144.675 91.4848 144.513C91.3302 143.928 91.3431 143.611 91.3173 143.56C91.3173 143.547 91.3173 143.556 91.3216 143.582C91.3345 143.611 91.3087 143.556 91.3002 143.535L91.2615 143.445L91.107 143.086L90.9524 142.727L90.9138 142.638C90.9138 142.651 90.9438 142.702 90.9524 142.715C90.9782 142.762 90.9911 142.774 90.9868 142.77C90.7034 142.45 90.5403 142.317 90.2655 141.792C90.0766 141.339 90.0079 141.002 89.9478 140.69C89.9478 140.677 89.9478 140.682 89.9564 140.716C89.9564 140.724 89.9736 140.759 89.9821 140.767L89.9907 140.784C89.8362 140.588 89.7417 140.498 89.5399 140.216C89.3124 139.969 88.9604 139.02 88.9389 138.952C88.5697 138.444 88.0717 137.722 87.7282 137.287C87.6939 137.235 87.4363 137.064 87.0542 136.642C86.8911 136.437 86.685 136.18 86.5261 135.975L86.1913 135.548C85.9509 135.164 85.8135 134.891 85.7276 134.677C85.7362 134.694 85.7577 134.724 85.8092 134.784C85.8349 134.814 85.8178 134.788 85.8049 134.784C85.7577 134.72 85.075 134.259 84.8647 133.972C84.6758 133.742 84.5513 133.588 84.3967 133.362C84.3538 133.298 84.3194 133.276 84.3795 133.328C84.4912 133.421 84.5126 133.413 84.4439 133.383C84.3752 133.349 84.2207 133.289 83.9932 133.174C83.8772 133.114 83.7442 133.037 83.5939 132.93C83.3878 132.755 82.9113 132.422 82.7052 132.256C82.6751 132.243 82.2973 131.931 82.1643 131.76C82.0054 131.577 81.911 131.448 81.8594 131.38C81.8079 131.312 81.7993 131.32 81.8766 131.38C81.9625 131.44 81.9882 131.44 81.9195 131.414C81.4859 131.265 81.1768 131.141 80.7346 130.812C80.3826 130.526 80.301 130.394 80.0864 130.167C80.0907 130.171 80.125 130.197 80.1636 130.223C79.4896 129.919 78.7812 129.492 78.266 129.215C77.768 128.916 76.7763 128.446 76.5144 128.305L76.1452 128.254C75.9606 128.228 75.6558 128.173 75.3467 128.049C74.8186 127.827 74.5696 127.63 74.4838 127.6C74.4623 127.588 74.4623 127.588 74.4709 127.592L74.4236 127.575L74.3292 127.541L73.96 127.408L73.5908 127.276L73.4963 127.242C73.4663 127.233 73.4963 127.242 73.492 127.242C73.492 127.242 73.4749 127.242 73.4491 127.233C72.4316 127.178 70.4181 126.699 69.3749 126.426H69.3706ZM69.8171 123.039C70.6585 123.193 70.8818 123.313 71.5429 123.432C72.3071 123.603 72.5862 123.633 73.419 123.778C73.668 123.812 74.1661 123.829 74.4623 123.94L74.5653 123.975L74.9818 124.116C75.1449 124.171 75.4927 124.295 75.6515 124.346C75.9005 124.41 76.6776 124.876 76.6218 124.833C76.4844 124.799 76.6303 124.829 77.0854 124.889C77.27 124.927 77.5276 124.974 77.7294 125.064C78.4421 125.388 79.1419 125.743 79.8288 126.114C80.9149 126.785 82.0569 127.062 82.8168 127.985C82.8984 128.079 82.9413 128.109 82.8984 128.075C82.834 128.023 82.7782 128.002 82.8383 128.028C83.2504 128.207 83.5295 128.245 83.9889 128.591C84.4225 128.924 84.5298 129.129 84.8003 129.45C84.8475 129.488 84.6844 129.356 84.8818 129.505L85.5859 130.035L85.6761 130.103C85.6761 130.103 85.7018 130.124 85.6847 130.103L85.6503 130.078C85.6117 130.052 85.6031 130.043 85.6074 130.048C86.0024 130.244 86.2213 130.278 86.6893 130.667C87.1143 131.021 87.2173 131.282 87.5007 131.636C87.5694 131.705 87.7754 131.846 88.1447 132.162C88.5096 132.426 88.9046 133.114 89.0248 133.451C89.0677 133.554 89.0892 133.58 89.0376 133.498L89.0119 133.464C88.9647 133.404 89.072 133.545 89.0763 133.55L89.2094 133.725L89.7031 134.365C89.7031 134.365 89.8791 134.515 90.2354 134.861C90.3642 134.985 90.536 135.215 90.6562 135.377C91.0726 135.946 91.4976 136.548 91.8969 137.128C92.1459 137.581 92.3391 138.111 92.3606 138.183C92.4808 138.397 92.7341 138.615 92.9359 138.961C93.1935 139.298 93.3394 139.964 93.3995 140.306C93.4167 140.396 93.4296 140.4 93.3909 140.319C93.3308 140.195 93.3051 140.191 93.3609 140.25C93.5627 140.455 93.9576 140.934 94.0907 141.297C94.2109 141.591 94.3955 142.014 94.5158 142.309C94.6488 142.475 94.8077 143.697 94.7733 143.539C94.8936 143.876 94.9537 144.32 95.0438 144.666C95.0524 144.692 95.0309 144.624 95.0266 144.615C94.9923 144.534 95.0009 144.568 95.061 144.662C95.207 144.867 95.4731 145.328 95.5633 145.696C95.7007 146.353 95.8037 147.011 95.954 147.664L95.9969 147.878L96.0184 147.985C96.1343 148.536 96.0184 148.963 95.9497 149.368C95.9497 149.377 95.9497 149.351 95.9497 149.304C95.9411 149.219 95.9454 149.257 95.9497 149.266C95.9497 149.343 96.0613 149.616 96.1558 150.116C96.2073 150.838 96.4434 151.747 96.203 152.452L96.0956 152.815C96.0914 152.836 96.0914 152.832 96.0956 152.802C96.0956 152.789 96.0956 152.764 96.0956 152.738V152.841C96.0956 152.947 96.1085 153.866 96.1128 153.87C96.1128 153.814 96.1042 153.789 96.1042 153.793C96.1042 153.793 96.13 153.9 96.1772 154.066C96.3232 154.434 96.3361 155.39 96.1643 155.757C96.0914 156.005 96.0227 156.167 96.0012 156.24C96.0012 156.505 95.9883 157.38 95.8509 157.773C95.7393 158.132 95.6663 158.26 95.5676 158.516C95.5676 158.516 95.5676 158.512 95.5676 158.504C95.5676 158.491 95.5719 158.461 95.5719 158.457C95.5719 158.431 95.5719 158.435 95.5719 158.457C95.5719 158.504 95.5848 158.632 95.5976 158.832C95.6921 159.4 95.3272 160.378 95.1683 160.878C95.1168 161.168 95.0567 161.412 94.9837 161.728C94.9537 161.877 94.8163 162.266 94.6961 162.458C94.4557 162.864 94.3269 163.048 94.3655 162.988C94.1809 163.513 93.7473 164.7 93.5326 165.196L93.4339 165.388L93.0389 166.165C92.8758 166.558 92.5151 167.19 92.3863 167.549C92.2876 167.818 92.0901 168.241 91.9184 168.518C91.8325 168.664 91.4719 169.338 91.3689 169.458C91.2057 169.74 90.7163 170.069 90.5574 170.193L90.5875 170.154C90.4587 170.406 90.1367 171.094 89.8061 171.41C89.4713 171.751 89.2738 171.901 89.218 171.965C89.2308 171.948 89.2437 171.926 89.248 171.922C89.145 172.17 88.9947 172.652 88.6599 173.037C88.4495 173.28 88.2477 173.425 88.1146 173.524C87.857 173.707 87.8871 173.673 87.7411 173.835C87.3204 174.275 86.7751 174.963 86.3759 175.42C86.2428 175.595 85.9466 175.868 85.8306 176.031C85.822 176.039 85.8049 176.069 85.7877 176.108L85.6031 176.488C85.5215 176.641 85.4056 176.851 85.2768 177C85.2167 177.073 85.1094 177.299 84.8861 177.658C84.8346 177.739 84.7445 177.863 84.6929 177.927C84.4139 178.277 83.551 179.336 83.259 179.699C82.8898 180.122 82.3575 180.818 81.9024 181.104C81.8251 181.164 81.8079 181.185 81.8208 181.164C81.7221 181.279 81.6362 181.527 81.5074 181.741C81.297 182.108 80.8849 182.629 80.6445 182.988C80.4727 183.227 80.1894 183.5 80.0005 183.726L79.9103 183.842L79.6613 184.171L79.4123 184.5L79.2921 184.658C79.1977 184.824 79.1376 185.033 78.8499 185.524C78.7683 185.653 78.734 185.691 78.6739 185.768C78.5365 185.943 78.3004 186.216 78.163 186.391C77.9956 186.631 77.7423 186.951 77.5748 187.186C77.3988 187.502 76.7806 188.048 76.7119 188.091C76.7119 188.048 76.6432 188.249 76.5144 188.621C76.4672 188.766 76.3685 188.954 76.2826 189.095C76.0551 189.475 75.7889 189.864 75.5699 190.214L75.1234 190.893C75.0504 191.008 74.9603 191.243 74.8186 191.555C74.6641 191.948 74.2605 192.413 74.0244 192.733C73.4791 193.639 73.0026 194.647 72.3887 195.497C72.3415 195.578 72.3329 195.603 72.3028 195.697L72.1869 196.099C72.0152 196.633 71.749 197.081 71.5386 197.564C71.2767 198.029 70.9934 198.439 70.7444 198.883L70.5254 199.216L70.4482 199.349L70.4224 199.396C70.4224 199.387 70.4224 199.383 70.4224 199.383C70.4138 199.387 70.4009 199.477 70.3966 199.609C70.4095 199.938 70.285 200.583 70.006 200.848C69.8643 201.019 69.7441 201.121 69.6539 201.207C69.5681 201.288 69.5165 201.348 69.5037 201.36C69.5037 201.356 69.4779 201.395 69.4607 201.488L69.4049 201.894C69.3834 202.086 69.3148 202.308 69.2332 202.479L68.8683 203.222L68.6665 203.632C68.1985 204.623 67.1081 205.289 65.9961 205.294C65.6999 205.046 66.5628 205.853 65.3135 204.734C65.3049 204.653 65.3135 204.662 65.3092 204.632V204.525V204.487C64.8327 204.188 66.1249 205.358 65.8931 205.046C65.365 205.033 64.837 204.841 64.4076 204.546C64.0084 204.269 63.6091 204.128 63.27 203.611C63.0639 203.304 63.0295 202.889 63.0081 202.578C62.9737 202.304 62.9651 202.296 62.8106 202.103C62.6775 201.924 62.3941 201.706 62.2353 201.254C62.0722 200.651 62.201 200.489 61.9863 200.113C61.8961 199.93 61.7287 199.55 61.6385 199.366C61.587 199.255 61.5441 199.187 61.4754 199.076L61.2436 198.73C61.0203 198.332 60.8701 198.063 60.5996 197.619C60.3034 197.085 60.239 196.62 59.9213 196.15C59.4018 195.33 58.9038 194.446 58.5045 193.553C58.3113 193.182 58.2684 192.815 58.0494 192.49C57.9335 192.315 57.7446 192.11 57.5471 191.794C57.3282 191.435 57.2595 191.081 57.1865 190.884C56.989 190.406 56.5039 190.069 56.3107 189.556C56.0316 188.839 56.1261 188.915 55.5809 188.382C55.2546 188.087 55.0356 187.463 54.9068 187.083C54.7394 186.806 54.3788 186.571 54.0868 186.139C53.8507 185.887 53.5416 185.614 53.357 185.315C53.005 184.794 52.5756 184.128 52.1892 183.62C51.9059 183.244 51.7814 182.941 51.5367 182.655C51.2963 182.394 50.9271 182.095 50.7382 181.749C50.6222 181.574 50.4033 180.831 50.4033 180.899L49.9096 180.237C49.7679 180.037 49.6649 179.926 49.4545 179.746C49.0724 179.434 48.6087 178.785 48.2739 178.397C48.0935 178.175 47.5526 177.726 47.3723 177.372C47.1619 177.03 47.1104 176.791 46.8356 176.543C46.6811 176.394 46.3934 176.184 46.1273 175.809C45.8139 175.326 45.8139 175.185 45.5692 174.937C45.3159 174.707 45.0969 174.57 44.8479 174.245C44.5903 173.938 44.5431 173.618 44.4057 173.383C44.2168 173.161 43.9807 172.981 43.6802 172.64C43.6458 172.58 43.1092 172.217 42.9203 171.999C42.7357 171.807 42.551 171.512 42.4308 171.311C42.1303 170.756 41.7654 170.517 41.3704 169.923C41.1987 169.672 41.1171 169.338 41.0141 169.069C40.9797 168.98 40.9626 168.958 40.9669 168.971C40.8767 168.847 40.6105 168.685 40.4388 168.471C40.2842 168.313 40.0911 168.01 40.0181 167.792C39.8592 167.344 39.8249 167.066 39.7905 167.024C39.6703 166.81 39.3312 166.225 39.2152 166.011C39.0049 165.619 38.773 165.358 38.5627 164.799C38.4296 164.418 38.3781 164.137 38.3223 163.987C38.0604 163.428 37.6268 162.586 37.3692 161.929C37.2318 161.63 37.206 160.699 37.206 160.682C37.1459 160.498 36.8798 159.511 36.8025 159.324C36.5964 158.743 36.4676 158.239 36.3173 157.56C36.1843 156.893 36.2143 156.407 36.1284 155.8C36.0984 155.608 36.0769 155.236 36.0555 155.044C36.0426 154.656 36.1284 154.015 36.1413 153.942C36.1156 153.614 35.9739 152.896 36.0082 152.362C35.9696 151.064 36.0683 149.766 36.2744 148.48L36.3045 148.267L36.3216 148.16C36.3732 147.758 36.6651 147.122 36.6737 147.075C36.6823 147.049 36.6823 147.041 36.6823 147.037L36.6909 146.96C36.6909 146.516 36.7552 145.995 36.8798 145.529C36.9484 145.239 37.0043 144.935 37.0987 144.624C37.3048 144.081 37.4593 143.881 37.528 143.688C37.5581 143.462 37.5624 142.881 37.7212 142.522C37.8328 142.194 38.026 141.694 38.1377 141.382C38.3566 140.917 38.4897 140.707 38.6357 140.417C39.1852 139.264 40.0438 137.953 40.7007 136.859L40.9282 136.488L40.984 136.398C40.9797 136.398 40.9754 136.411 40.9754 136.407C41.0656 136.176 41.1171 135.911 41.5121 135.309C41.7912 134.938 42.0316 134.72 42.1647 134.566C42.7485 133.814 43.8004 132.384 44.5774 131.944C44.6504 131.884 44.5903 131.935 44.7406 131.794L45.054 131.491C45.5133 131.068 45.7709 130.748 46.299 130.27C46.2303 130.351 46.3591 130.171 46.6425 129.808C46.7412 129.668 46.9559 129.48 47.1018 129.36C47.3852 129.134 47.6943 128.963 47.9733 128.779C48.2653 128.519 48.935 128.28 49.1411 128.207C49.4287 127.993 49.7593 127.707 50.0727 127.519C50.3303 127.34 50.6609 126.956 51.0301 126.789C51.322 126.584 51.8372 126.511 52.0647 126.447C52.1807 126.426 52.2236 126.405 52.1764 126.422C52.0347 126.499 52.1764 126.409 52.4898 126.153C52.6443 126.033 52.889 125.858 53.1853 125.734C53.5974 125.529 53.9537 125.538 54.2714 125.401C54.3702 125.358 54.6149 125.17 55.0657 124.957C56.4395 124.402 57.8648 123.851 59.3073 123.518C59.668 123.402 60.3077 123.313 60.5738 123.351L60.943 123.368C60.9645 123.368 60.9774 123.368 60.9559 123.368C60.9559 123.368 60.9087 123.372 60.9345 123.368L61.0804 123.343C61.5527 123.283 61.7931 123.266 62.1194 123.223C62.4714 123.15 62.7333 123.056 63.1326 122.997C63.6263 122.945 64.0384 122.851 64.6438 122.813C65.0516 122.766 65.584 122.907 65.9274 122.933C66.3138 122.898 66.5414 122.869 67.1381 122.856C67.2154 122.856 67.3657 122.86 67.4429 122.856L67.8637 122.83C68.4304 122.762 69.3148 122.962 69.7999 123.035L69.8171 123.039Z" fill="#5E5F6C"/>
<path d="M65.9487 167.523C65.3476 167.515 65.0986 167.412 64.6221 167.37C64.4804 167.361 64.24 167.374 63.888 167.352C63.3814 167.306 63.4629 167.288 63.2225 167.271C63.0165 167.25 62.7073 167.237 62.2995 167.139C61.6555 166.955 61.4494 166.78 61.1317 166.609C60.8355 166.524 60.3332 166.37 59.9683 166.212C59.6549 166.088 59.4145 166.063 58.9165 165.815C58.3111 165.482 57.9891 165.213 57.504 164.837C57.1133 164.465 56.9802 164.235 56.9287 164.171C55.7052 163.163 54.6147 162.074 53.7174 160.754C53.6573 160.639 53.5028 160.451 53.4212 160.348C53.2709 160.161 53.0219 159.853 52.8545 159.435C52.7085 159.059 52.6656 158.794 52.6269 158.653C52.5454 158.311 52.3608 158.243 52.1161 157.696C51.9014 157.256 51.8799 156.65 51.9143 156.219C51.9143 156.223 51.9229 156.244 51.9186 156.223C51.91 156.163 51.837 155.992 51.734 155.715C51.6395 155.518 51.5751 155.142 51.5365 154.89C51.4764 154.562 51.3433 153.989 51.3819 153.584C51.3948 153.229 51.5021 152.994 51.5665 152.691C51.5794 152.196 51.6782 151.888 51.7297 151.487C51.734 151.346 51.6266 150.641 51.7168 150.329C51.7984 149.945 51.8112 149.637 51.9314 149.206L52.1547 148.531C52.2363 148.301 52.3307 147.976 52.4423 147.767C52.6742 147.348 52.7815 147.259 52.9446 146.964C53.2752 146.311 53.6702 145.597 54.0609 144.982C54.3099 144.632 54.6104 144.363 54.8551 144.098C55.0311 143.846 55.1728 143.475 55.4862 143.133C55.9756 142.651 56.4135 142.219 56.9931 141.822C57.7358 141.25 58.5773 140.831 59.4145 140.443C59.8824 140.233 60.2559 140.161 60.6895 139.977C60.7969 139.934 61.3807 139.717 61.4752 139.682C61.8573 139.537 62.0934 139.285 62.6129 139.191C63.4286 139.127 63.7205 139.187 64.6307 139.042C65.1072 139.016 65.4507 138.875 65.9873 138.879C66.5669 138.892 66.7902 139.029 67.3225 139.038C68.6877 139.114 70.0873 139.379 71.401 139.776C71.9291 139.943 72.1738 139.943 72.7362 140.186C73.1999 140.413 73.3802 140.643 73.685 140.844C74.007 141.045 74.4878 141.335 74.8055 141.553C75.0331 141.711 75.4023 142.053 75.6169 142.228C75.9046 142.45 76.3124 142.745 76.57 143.005C76.7718 143.154 77.0809 143.419 77.3342 143.671C77.5832 143.945 77.9353 144.402 78.1714 144.683C78.4376 144.999 78.5664 145.525 78.6866 145.858C78.7037 145.888 78.678 145.828 78.7252 145.909C78.9184 146.157 79.2704 146.708 79.4465 147.071C79.6955 147.447 80.0389 148.22 80.0776 148.732C80.1763 149.334 80.3781 149.625 80.5112 150.257C80.5799 150.56 80.67 151.162 80.7344 151.47C80.7859 151.786 80.7087 152.221 80.6571 152.465C80.5927 152.721 80.6013 152.811 80.6142 152.687C80.6056 152.597 80.64 152.742 80.7258 153.041C80.7645 153.195 80.8117 153.409 80.8203 153.686C80.8976 154.135 80.5455 154.95 80.4811 155.147C80.4811 155.155 80.4811 155.16 80.4811 155.147C80.4897 155.108 80.4811 155.147 80.4811 155.177C80.4468 155.561 80.4554 155.804 80.3437 156.313C80.2149 156.829 80.069 157.081 79.9402 157.427C79.9144 157.568 79.923 157.679 79.8328 158.158C79.7942 158.333 79.7255 158.555 79.644 158.738C79.4808 159.174 79.3434 159.648 79.0257 160.114C78.854 160.395 78.4934 160.682 78.3388 160.857C78.3431 160.857 78.356 160.844 78.3775 160.81C78.3345 160.934 78.0082 161.621 77.7635 161.903C77.5317 162.24 77.0165 162.586 76.8706 162.783C76.6173 163.154 76.3511 163.547 75.9561 163.855C75.5311 164.184 75.3207 164.256 75.1018 164.406C74.8957 164.598 74.5995 164.884 74.2302 165.149C74.08 165.256 73.8095 165.414 73.6507 165.516L73.0926 165.853C72.9165 165.973 72.2554 166.464 71.9076 166.554C71.6758 166.644 71.0962 166.844 70.8644 166.93C70.551 167.054 69.9585 167.092 69.7095 167.062C69.4133 167.028 69.336 167.062 69.5893 167.019C69.4519 167.066 68.9067 167.263 68.6148 167.327C68.1897 167.438 67.6531 167.425 67.3268 167.442C66.8374 167.464 66.5111 167.549 65.953 167.545L65.9487 167.523ZM65.9487 164.107C66.0904 164.124 66.5454 164.034 66.7558 164.021C67.0864 163.979 67.6102 163.991 67.8463 163.949C68.091 163.88 68.2713 163.774 68.735 163.65C69.4133 163.5 69.7782 163.594 69.9156 163.586C69.98 163.59 69.9843 163.586 69.9027 163.59C69.8727 163.59 69.7525 163.62 69.7353 163.628C69.9542 163.543 70.4007 163.385 70.6197 163.304C70.8172 163.124 71.8905 162.458 72.2468 162.245C72.3799 162.155 72.7319 161.788 72.9766 161.617C73.1827 161.455 73.7108 161.16 73.7752 161.117C73.7279 161.16 73.7451 161.156 73.861 160.993C74.0328 160.733 74.2431 160.477 74.4792 160.242C74.7583 159.977 74.9558 159.845 75.0331 159.772C75.0717 159.738 75.0803 159.729 75.0674 159.746C75.0502 159.772 75.0545 159.768 75.076 159.734C75.1189 159.64 75.3808 159.106 75.5611 158.854C75.7629 158.563 76.0892 158.269 76.2996 158.102L76.2695 158.145C76.2609 158.158 76.2051 158.256 76.2309 158.209C76.3124 158.106 76.4756 157.619 76.5657 157.44L76.6044 157.35L76.5915 157.385C76.5915 157.385 76.5872 157.41 76.5915 157.406C76.6087 157.385 76.6258 157.167 76.7031 156.804C76.7375 156.62 76.8319 156.351 76.8834 156.231C77.068 155.732 77.2398 155.646 77.2655 155.125C77.2999 154.903 77.3085 154.69 77.3686 154.446C77.4415 154.152 77.5875 153.801 77.6863 153.592C77.6905 153.588 77.6777 153.648 77.682 153.733C77.6863 153.797 77.6948 153.793 77.682 153.733C77.6691 153.609 77.5575 153.34 77.5274 152.815C77.5274 152.17 77.6562 151.905 77.7206 151.645V151.709L77.7034 151.598C77.6605 151.32 77.6176 150.867 77.5618 150.594C77.4802 150.304 77.3127 149.778 77.2784 149.484C77.2612 149.356 77.2226 149.04 77.2054 148.911C77.1496 148.625 76.8663 148.198 76.7289 147.839C76.5872 147.596 76.2652 147.126 76.145 146.742C76.0634 146.477 76.0377 146.349 75.9862 146.131C75.9862 146.123 75.9862 146.118 75.9904 146.131C75.9904 146.131 75.999 146.144 76.0076 146.153C76.0119 146.157 75.9862 146.118 75.9733 146.106C75.8659 145.943 75.574 145.538 75.471 145.38C75.3293 145.153 75.1962 145.081 74.9257 144.799C74.7841 144.662 74.681 144.504 74.5265 144.363C73.8868 143.765 73.3501 143.103 72.6031 142.565C72.1008 142.236 71.9677 141.784 71.3839 141.63C69.9113 140.959 68.4387 140.43 66.8288 140.178C66.2793 140.058 65.9787 139.815 65.4335 140.028C64.9312 140.144 64.2872 140.242 63.7763 140.34C63.4844 140.379 63.0594 140.37 62.8447 140.421C62.6859 140.477 62.3725 140.695 62.1492 140.823C61.9131 140.938 61.4494 141.134 61.209 141.25C60.638 141.502 60.0069 141.745 59.496 142.061C59.0753 142.313 58.6245 142.599 58.2553 142.877C58.105 143.001 57.7101 143.342 57.5555 143.471C57.2808 143.718 57.036 144.039 56.7742 144.308C56.6969 144.47 56.4994 144.906 56.3277 145.157C56.1259 145.435 55.8511 145.725 55.7009 145.935C55.3703 146.511 55.0784 147.178 54.8165 147.788C54.7263 148.066 54.3829 148.54 54.3313 148.732C54.3056 148.813 54.2498 149.065 54.224 149.151C54.1296 149.497 54.0308 149.847 54.0179 150.24C54.0008 150.312 53.9879 150.62 53.9707 150.688C53.9664 150.744 53.9707 150.671 53.9793 150.718C53.9836 150.773 54.0995 151.337 54.0823 151.589C54.078 151.798 54.0523 152.021 54.0308 152.213C54.0051 152.431 53.9965 152.589 54.0051 152.695C54.0093 153.182 53.872 153.554 53.8806 153.703C53.902 153.942 54.0609 154.365 54.1081 154.668L54.1553 154.771C54.224 154.92 54.4859 155.454 54.5288 155.792C54.5803 156.069 54.5675 156.428 54.5932 156.641C54.6018 156.65 54.576 156.552 54.5803 156.56C54.8508 156.893 55.2029 157.436 55.3102 157.88C55.4905 158.397 55.3317 158.179 55.615 158.508C55.9456 158.837 56.1173 159.161 56.4565 159.524C57.0961 160.276 57.8346 160.955 58.6245 161.549C58.7662 161.66 58.9723 161.813 59.1011 161.937C59.217 162.057 59.6721 162.556 59.6077 162.488C59.6034 162.484 59.5733 162.454 59.5519 162.445L59.7193 162.552C59.8695 162.642 60.2688 162.928 60.3676 162.958L60.7282 163.06C60.8999 163.107 61.1918 163.214 61.3979 163.291C61.8659 163.402 62.5099 163.594 62.9048 163.833C63.1152 163.949 63.1796 163.962 63.0894 163.927C63.1066 163.927 63.2354 163.944 63.4629 163.953C63.6561 163.953 64.167 164.026 64.0983 164.013L64.6736 164.004C65.0085 164.004 65.661 164.102 65.9487 164.115V164.107Z" fill="#5E5F6C"/>
<path d="M66.0536 204.158L69.3078 204.662H69.3336C69.647 204.713 69.866 205.008 69.8144 205.324C69.7672 205.635 69.471 205.853 69.1533 205.802C69.1318 205.802 69.1147 205.793 69.0932 205.789L65.8475 204.935C65.6329 204.88 65.5041 204.657 65.5599 204.444C65.6114 204.243 65.8089 204.119 66.0107 204.149H66.045L66.0536 204.158Z" fill="#B3B4BD"/>
<path d="M76.0001 205.336C77.1163 205.409 78.2369 205.452 79.3531 205.486C80.4693 205.52 81.5855 205.524 82.6975 205.503C83.2856 205.49 83.7708 205.956 83.7837 206.541C83.7965 207.126 83.3286 207.608 82.7404 207.617C82.7232 207.617 82.6975 207.617 82.6803 207.617C81.5297 207.574 80.3877 207.502 79.2458 207.408C78.1038 207.309 76.9661 207.173 75.8327 207.019C75.369 206.955 75.0427 206.528 75.1028 206.067C75.1629 205.623 75.5622 205.307 76.0044 205.336H76.0001Z" fill="#B3B4BD"/>
<path d="M89.328 205.025C91.5132 204.739 93.6641 204.282 95.7377 203.654C96.4504 203.44 97.206 203.842 97.4206 204.551C97.6353 205.26 97.2317 206.011 96.519 206.225C96.5148 206.225 96.5019 206.229 96.4976 206.233C94.2265 206.874 91.9082 207.233 89.6027 207.45C88.9287 207.515 88.3277 207.023 88.2675 206.353C88.2032 205.695 88.6797 205.114 89.3323 205.029L89.328 205.025Z" fill="#B3B4BD"/>
<path d="M101.59 201.061C102.483 200.502 103.333 199.883 104.118 199.204C104.509 198.866 104.891 198.456 105.278 198.089L106.437 196.957L106.536 196.859C107.115 196.291 108.051 196.3 108.622 196.876C109.193 197.453 109.184 198.384 108.605 198.952H108.596L107.325 200.186C106.892 200.592 106.497 201.006 106.033 201.403C105.11 202.197 104.114 202.894 103.075 203.504C102.393 203.906 101.513 203.679 101.113 203C100.718 202.334 100.929 201.48 101.585 201.07H101.59V201.061Z" fill="#B3B4BD"/>
<path d="M109.591 191.896C109.823 191.017 109.844 190.141 109.643 189.257C109.445 188.373 109.029 187.476 108.501 186.584C108.089 185.879 108.32 184.982 109.024 184.568C109.724 184.158 110.626 184.388 111.042 185.085C111.665 186.127 112.24 187.284 112.545 188.599C112.858 189.906 112.837 191.345 112.498 192.644V192.652C112.287 193.451 111.467 193.929 110.664 193.72C109.862 193.511 109.381 192.695 109.591 191.896Z" fill="#B3B4BD"/>
<path d="M104.696 181.104C103.4 179.17 102.232 177.013 101.575 174.651C101.373 173.921 101.803 173.165 102.537 172.964C103.258 172.768 104.009 173.182 104.224 173.891C104.817 175.868 105.851 177.709 107.101 179.486C107.56 180.139 107.397 181.04 106.74 181.493C106.083 181.95 105.177 181.788 104.722 181.134C104.718 181.126 104.714 181.121 104.709 181.113L104.701 181.1L104.696 181.104Z" fill="#B3B4BD"/>
<path d="M101.253 167.331C101.532 166.106 102.004 164.923 102.631 163.851C103.258 162.774 104.027 161.809 104.877 160.946C105.327 160.49 106.066 160.481 106.525 160.925C106.976 161.365 106.993 162.082 106.568 162.539C105.151 164.077 104.134 165.896 103.773 167.852C103.644 168.548 102.975 169.01 102.275 168.881C101.575 168.753 101.111 168.087 101.24 167.391C101.24 167.374 101.245 167.361 101.249 167.348V167.331H101.253Z" fill="#B3B4BD"/>
<path d="M110.665 156.855C112.738 155.783 114.915 154.976 117.109 154.301C117.534 154.169 117.984 154.408 118.117 154.831C118.242 155.236 118.023 155.668 117.628 155.817C115.546 156.599 113.524 157.521 111.626 158.61C111.145 158.888 110.531 158.721 110.252 158.243C109.973 157.765 110.141 157.154 110.622 156.876C110.634 156.868 110.647 156.863 110.66 156.855H110.665Z" fill="#B3B4BD"/>
<path d="M123.797 152.738C124.351 152.648 124.9 152.567 125.454 152.49C126.012 152.418 126.562 152.349 127.128 152.298C127.352 152.277 127.545 152.439 127.566 152.661C127.583 152.87 127.442 153.054 127.24 153.093H127.231C126.703 153.191 126.158 153.306 125.626 153.43C125.089 153.554 124.557 153.682 124.024 153.819C123.728 153.895 123.423 153.716 123.346 153.421C123.269 153.127 123.449 152.823 123.745 152.747C123.762 152.747 123.78 152.738 123.797 152.738Z" fill="#B3B4BD"/>
<path d="M118.613 152.375L118.691 151.491L118.867 150.62L119.111 149.766L119.399 148.928L119.781 148.126L120.3 147.404L120.837 146.695L121.451 146.046L122.172 145.52L122.911 145.021L123.692 144.589L124.546 144.312L125.401 144.06L126.289 143.945L127.178 143.872L128.071 143.94L128.956 144.068L129.801 144.346L130.643 144.641L131.441 145.034L132.171 145.542L132.892 146.063L133.515 146.703L134.107 147.37L134.541 148.147L134.94 148.937L135.309 149.748L135.52 150.611L135.649 151.491L135.687 152.375L135.619 153.259L135.511 154.139L135.258 154.989L134.983 155.834L134.58 156.624L134.069 157.355L133.541 158.076L132.88 158.674L132.206 159.255L131.437 159.716L130.651 160.135L129.823 160.464L128.951 160.66L128.071 160.818L127.178 160.865L126.285 160.844L125.409 160.669L124.538 160.468L123.718 160.109L122.924 159.712L122.177 159.23L121.494 158.662L120.837 158.055L120.288 157.359L119.772 156.633L119.39 155.826L119.06 155.001L118.845 154.139L118.716 153.259L118.613 152.375Z" fill="#F2F2F5"/>
<path d="M117.227 152.401C117.231 152.29 117.3 151.303 117.325 151.218C117.476 150.312 117.793 149.189 118.132 148.335C118.214 148.164 118.527 147.455 118.639 147.314C119.167 146.554 119.755 145.738 120.421 145.081C120.532 144.931 121.206 144.491 121.352 144.367L122.112 143.851C122.142 143.829 122.177 143.808 122.207 143.791L122.22 143.782L123.001 143.347C123.714 143.052 124.469 142.83 125.216 142.642C125.779 142.565 126.719 142.437 127.286 142.441C127.887 142.471 128.573 142.544 129.166 142.638C130.222 142.92 131.33 143.295 132.283 143.838C132.845 144.231 133.429 144.602 133.953 145.046L134.597 145.708L135.211 146.4C135.554 146.861 135.777 147.361 136.056 147.882C136.31 148.399 136.567 148.877 136.743 149.407C136.902 150.005 137.061 150.799 137.117 151.418C137.121 151.555 137.168 152.366 137.156 152.482C137.13 152.939 137.04 153.857 136.971 154.31C136.795 155.044 136.563 155.775 136.297 156.483C136.228 156.612 135.876 157.333 135.799 157.436C135.387 158.004 135.013 158.615 134.545 159.14C134.026 159.601 133.528 160.092 132.965 160.498C132.575 160.746 131.763 161.203 131.347 161.408C131.252 161.472 130.471 161.754 130.355 161.809C129.814 161.984 128.883 162.134 128.324 162.232C128.209 162.275 127.38 162.27 127.247 162.292C127.217 162.292 127.178 162.292 127.148 162.292L126.255 162.266C125.487 162.155 124.71 161.988 123.967 161.762C123.529 161.578 122.692 161.181 122.275 160.955C122.237 160.934 122.198 160.912 122.159 160.887L121.417 160.4C120.966 160.071 120.283 159.43 119.88 159.05C119.493 158.632 118.965 157.854 118.643 157.393C118.351 156.906 118.012 156.018 117.806 155.493C117.746 155.39 117.583 154.579 117.544 154.455C117.536 154.412 117.523 154.369 117.519 154.327L117.394 153.426C117.385 153.255 117.325 153.084 117.394 152.905C117.458 152.729 117.609 152.546 117.944 152.379L117.235 152.392L117.227 152.401ZM119.961 152.751C120.039 152.862 120.021 152.973 120.047 153.088L120.185 153.947L120.159 153.819L120.382 154.681L120.326 154.506C120.485 154.925 120.811 155.655 121.017 156.048L120.897 155.843L121.4 156.535L121.936 157.205L121.782 157.039C122.091 157.333 122.743 157.889 123.078 158.153L122.937 158.051L123.688 158.525C123.203 158.264 124.34 158.841 124.323 158.828L125.109 159.165L124.851 159.08C125.418 159.212 125.989 159.332 126.564 159.439L126.315 159.413L127.208 159.43H127.097L127.99 159.383C127.367 159.473 128.664 159.251 128.651 159.247L129.488 159.05L129.273 159.118C129.252 159.127 130.488 158.623 129.956 158.854C130.334 158.657 131.081 158.239 131.441 158.008L131.24 158.153C131.686 157.777 132.12 157.393 132.549 157L132.351 157.222C132.699 156.753 133.038 156.278 133.369 155.796L133.266 155.971L133.669 155.177L133.584 155.386C133.768 154.835 133.94 154.28 134.103 153.72L134.052 153.959C134.112 153.537 134.202 152.691 134.223 152.264V152.443C134.236 152.478 134.15 151.166 134.198 151.7L134.069 150.82C134.172 151.303 133.88 150.043 133.888 150.082L133.979 150.346C133.627 149.548 133.262 148.83 132.828 148.074L133.008 148.331L132.442 147.69L131.845 147.075L132.034 147.237C131.566 146.891 131.089 146.554 130.613 146.225L130.802 146.336L130.003 145.943L130.158 146.007C129.612 145.807 129.059 145.614 128.505 145.435L128.749 145.495L127.865 145.362L127.968 145.375L127.079 145.307H127.298L126.444 145.371L125.594 145.478L125.813 145.431C125.251 145.589 124.697 145.755 124.143 145.939L124.392 145.832L123.606 146.259L123.714 146.191C123.353 146.426 122.636 146.917 122.293 147.178L122.486 147.007L121.868 147.652L121.966 147.532C121.61 147.993 121.262 148.459 120.923 148.933L121.052 148.719L120.665 149.522L120.726 149.377C120.575 149.774 120.313 150.586 120.206 150.996L120.232 150.889L120.051 151.76L120.073 151.602C120.047 151.858 119.987 152.499 119.961 152.747V152.751Z" fill="#5E5F6C"/>
<path d="M67.3557 164.547C67.3557 164.547 67.3943 164.559 67.3771 164.534L67.3514 164.47L67.3042 164.342C67.2741 164.256 67.2397 164.171 67.214 164.085C66.6688 162.343 66.3081 160.43 66.3854 158.486C66.4283 157.671 66.6087 157.047 66.6602 156.3C66.7074 155.57 66.8491 153.989 66.8662 153.302C66.9221 152.435 67.0895 151.448 67.2011 150.598C67.3127 149.864 67.5703 148.783 67.7077 148.044C67.961 146.789 68.2701 145.175 68.5792 143.966C68.8883 142.689 69.3091 141.335 69.6182 140.054C69.8114 138.704 70.567 137.363 70.9147 136.082C71.1508 135.096 71.6746 133.93 72.0696 133.033C72.3143 132.422 72.4345 131.777 72.7436 131.068C73.3232 129.8 73.9586 128.6 74.5296 127.357C74.7657 126.815 74.9975 125.943 75.3539 125.367C76.6976 122.962 78.0586 120.549 79.5569 118.235C80.0377 117.351 80.7161 116.334 81.287 115.501C81.6176 114.955 82.2101 114.267 82.6051 113.768C83.3134 112.837 84.4554 111.5 85.1853 110.569C85.6489 110.022 85.885 109.565 86.3874 108.942L87.7955 107.285L87.8814 107.186C88.2764 106.729 88.9761 106.183 89.3368 105.811L90.7621 104.316C91.4877 103.552 93.0032 102.061 93.7759 101.348C94.4156 100.789 94.9866 100.383 95.3172 100.076C95.7723 99.6485 96.4076 98.9353 96.9786 98.5296C97.4895 98.1452 97.8459 97.9445 98.2623 97.637C98.5542 97.4021 99.868 96.4028 100.173 96.1636C100.486 95.9116 101.104 95.3265 101.461 95.0874C102.045 94.6475 102.766 94.3101 103.294 93.977C106.016 92.068 108.854 90.2999 111.85 88.8564C112.541 88.4976 113.447 88.1517 114.104 87.8186C114.808 87.3787 115.736 86.8961 116.577 86.5587C117.513 86.1274 118.535 85.7345 119.488 85.3373C121.806 84.5515 124.099 83.6119 126.477 83.0183C127.808 82.651 129.238 82.3648 130.556 81.9933C131.024 81.878 131.96 81.6089 132.419 81.4594C133.11 81.2288 134.14 81.1306 134.802 81.0665C135.793 80.9256 136.849 80.554 137.88 80.4943L138.884 80.4174C139.953 80.2636 141.834 79.9433 143.04 80.0031L145.062 79.8323L145.474 79.7981C146.093 79.7213 146.715 79.5974 147.411 79.6444C148.84 79.7682 150.317 80.2551 151.317 81.3057C151.541 81.3057 151.721 81.4851 151.721 81.7071C151.721 81.9292 151.541 82.1086 151.317 82.1086C151.326 82.1598 151.3 82.1769 151.279 82.194L151.21 82.2495L151.073 82.3563C150.068 83.0311 149.012 83.5606 147.849 83.7656C147.359 83.8468 147.11 83.8852 146.548 83.9706C145.522 84.1158 144.345 84.2269 143.319 84.3251C141.782 84.3337 140.988 84.56 139.348 84.8034L138.313 84.9059C138.013 84.9401 137.828 84.97 137.575 85.0298C137.081 85.1579 136.51 85.3159 136.029 85.4141C135.308 85.5764 134.432 85.5722 133.728 85.8028C133.226 85.9779 132.187 86.2939 131.668 86.4306C130.401 86.8406 129.092 87.0755 127.825 87.4513C125.584 88.0321 123.433 88.9503 121.248 89.7148C120.063 90.2059 118.805 90.7568 117.646 91.2949C117.414 91.4103 116.766 91.8074 116.453 91.9868C115.959 92.2687 115.311 92.5377 114.847 92.7385C114.409 92.9178 113.623 93.3406 113.185 93.5499C110.674 94.8268 108.304 96.3558 106.007 97.9787C105.535 98.299 104.805 98.6662 104.341 98.9737C104.007 99.2172 103.358 99.8236 103.019 100.076C102.659 100.353 101.967 100.874 101.598 101.16C101.109 101.558 100.349 102.036 99.898 102.36C99.3957 102.753 99.1295 103.112 98.58 103.607C97.8974 104.218 97.3479 104.59 96.9658 104.931C96.2445 105.598 94.832 106.973 94.1451 107.677C93.6257 108.207 92.3678 109.522 91.8354 109.924C91.6851 110.061 91.419 110.278 91.2945 110.436L90.0366 111.871C89.7403 112.239 89.3067 112.892 88.9461 113.315C88.3064 114.096 87.1859 115.425 86.5376 116.189C86.2113 116.62 85.6189 117.291 85.2926 117.722C84.6873 118.589 83.9617 119.601 83.4422 120.528C81.9611 122.757 80.5916 125.064 79.2521 127.383C79.119 127.6 79.0331 127.793 78.9344 128.057C78.7584 128.574 78.3247 129.531 78.0199 130.086C77.6207 130.915 77.0411 131.961 76.659 132.738C76.337 133.567 75.9635 134.792 75.5127 135.617C75.0319 136.56 74.916 137.329 74.521 138.358C74.2505 139.059 73.9972 139.439 73.7997 140.075C73.5722 140.955 73.2674 142.108 72.9797 143.005C72.28 145.192 71.7819 147.592 71.2711 149.83C71.0392 150.68 70.8589 151.811 70.7258 152.687C70.5369 153.947 70.4811 155.39 70.3265 156.646C70.275 157.291 70.0947 158.085 70.0003 158.657L69.8972 159.605C69.8543 159.934 69.8071 160.267 69.7513 160.596C69.6053 161.339 69.4937 162.68 69.1588 163.581L68.9871 164.085C68.9613 164.171 68.9227 164.252 68.8926 164.337L68.8411 164.465L68.8154 164.53C68.8154 164.555 68.7638 164.538 68.7381 164.542L67.5317 164.85C67.36 164.901 67.2226 164.666 67.3557 164.542V164.547Z" fill="#FFBF9E"/>
<path d="M159.064 45.9525L112.775 55.9887C108.842 56.8429 106.348 60.7036 107.206 64.6199L109.507 75.1174C115.389 73.8404 121.198 77.5517 122.477 83.4026C123.761 89.2535 120.03 95.0318 114.148 96.3045L116.449 106.802C117.308 110.714 121.189 113.195 125.126 112.341L171.99 102.177L159.064 45.9482V45.9525Z" fill="#F2F2F5"/>
<path d="M158.57 46.7213C149.069 49.0659 134.472 52.5551 125.07 54.7674C122.804 55.2927 115.836 56.907 113.676 57.3981C110.392 57.9149 108.147 60.9258 108.855 64.2014C109.151 65.4613 110.899 73.2896 111.238 74.7416L109.126 73.392C112.367 72.6575 115.9 73.2682 118.704 75.0534C128.265 81.1691 125.646 95.7195 114.556 98.1837L116.033 95.8946C116.111 96.3558 118.141 105.423 118.137 105.491L118.253 106.025C118.291 106.196 118.33 106.405 118.369 106.512C118.85 108.604 120.73 110.287 122.881 110.53C123.744 110.671 124.637 110.483 125.478 110.291C139.77 107.263 157.248 103.59 171.643 100.618L170.419 102.536C166.384 84.2995 162.335 65.1068 158.566 46.717L158.57 46.7213ZM159.553 45.1838C164.289 63.8299 169.118 83.1208 173.558 101.827C173.764 102.685 173.223 103.543 172.36 103.74C172.36 103.757 155.221 107.596 155.213 107.609C146.313 109.621 135.202 112.089 126.307 114.062C120.936 115.583 115.505 112.337 114.475 106.849C114.273 105.969 112.5 97.8036 112.255 96.7145C112.028 95.6768 112.689 94.656 113.732 94.4297C118.485 93.4901 121.739 88.5105 120.644 83.7998C119.708 79.0294 114.629 75.7538 109.855 76.8471C108.902 77.0478 107.966 76.4414 107.765 75.4932L105.97 67.0201C105.674 65.6108 105.184 63.6847 105.395 62.2326C105.747 58.453 108.748 55.1603 112.487 54.4428C115.063 53.909 122.34 52.4355 125.023 51.8889C134.687 49.8859 149.765 47.0971 159.549 45.1838H159.553Z" fill="#5E5F6C"/>
<path d="M284.601 105.277L282.305 120.725C281.974 122.954 281.476 125.158 280.823 127.306L262.251 188.258C261.324 191.307 258.662 193.242 255.944 192.845L196.119 184.034C194.698 183.825 193.745 182.309 193.989 180.652L195.848 168.147C196.462 164.008 199.841 161.075 203.396 161.6L249.621 168.407C251.6 168.698 253.514 167.165 254.012 164.888L258.014 146.584C258.945 142.322 260.418 138.213 262.38 134.399L269.142 121.271L268.695 111.948C268.528 108.404 269.386 104.842 271.147 101.827C271.876 100.575 273.143 99.8962 274.401 100.08L282.047 101.207C283.756 101.459 284.902 103.279 284.606 105.273L284.601 105.277Z" fill="#F2F2F5"/>
<path d="M285.327 105.384C284.743 110.338 284.031 115.715 283.378 120.682C283.026 124.141 281.79 128.186 280.785 131.538C275.449 149.744 269.777 168.237 264.218 186.374C263.788 187.677 263.337 189.663 262.513 190.812C261.251 192.849 258.761 194.42 256.228 194.207C255.803 194.198 253.845 193.869 253.386 193.818L244.623 192.546C228.644 190.35 212.347 188.283 196.394 185.781L195.827 185.695C195.509 185.64 195.196 185.554 194.9 185.426C192.736 184.504 191.907 181.971 192.41 179.861C192.521 179.242 192.788 177.256 192.899 176.594C193.225 174.408 193.887 170.056 194.213 167.878C194.805 163.428 198.858 159.268 203.636 159.985L205.826 160.31C218.684 162.168 237.398 165.123 250.303 166.866C251.338 166.75 252.137 165.781 252.411 164.799C252.476 164.568 252.931 162.501 252.991 162.211L254.884 153.605C256.159 147.861 257.241 141.762 259.753 136.39C261.929 131.76 265.501 125.217 267.832 120.614L267.674 121.344L267.261 112.153C267.077 108.463 267.923 104.688 269.743 101.446C269.966 101.036 270.245 100.592 270.571 100.242C271.477 99.2043 273.023 98.4954 274.487 98.7004L274.594 98.7132L274.667 98.726L274.955 98.7687L276.097 98.9396C277.848 99.2086 280.347 99.5759 282.099 99.8407C283.627 100.003 285.005 101.152 285.546 102.476C285.98 103.437 286.083 104.487 285.941 105.478L285.323 105.388L285.327 105.384ZM283.258 105.077C283.43 104.035 282.914 102.732 281.841 102.561L281.699 102.54L281.412 102.497L280.27 102.331C279.123 102.16 276.839 101.839 275.693 101.669C275.393 101.634 274.47 101.485 274.191 101.451C273.615 101.378 273.1 101.626 272.667 102.096C270.735 104.974 269.97 108.562 270.134 112.012L270.597 121.199L270.619 121.583L270.438 121.933L266.42 129.783C265.256 132.089 263.531 135.301 262.517 137.59C261.371 140.199 260.461 142.911 259.791 145.679C258.709 150.517 257.121 157.936 256.048 162.86C255.94 163.265 255.554 165.238 255.425 165.648C254.773 168.07 252.489 170.15 249.848 169.996C249.677 169.996 249.316 169.941 249.148 169.919L231.624 167.365C224.682 166.349 209.96 164.214 203.147 163.214C200.219 162.804 197.849 165.631 197.493 168.356C197.179 170.513 196.523 174.907 196.209 177.064C196.158 177.56 195.793 179.797 195.728 180.331L195.647 180.878C195.638 180.985 195.625 181.074 195.63 181.173C195.638 181.681 195.831 182.125 196.218 182.317C196.261 182.334 196.304 182.347 196.351 182.356L196.879 182.432C216.507 185.119 236.355 188.646 255.957 191.491C258.344 191.952 260.444 189.932 261.023 187.698C267.154 167.421 273.401 146.832 279.802 126.635C281.107 122.646 281.626 117.97 282.365 113.84C282.867 110.945 283.348 108.049 283.872 105.158L283.254 105.068L283.258 105.077Z" fill="#5E5F6C"/>
<path d="M265.059 154.536C261.684 155.898 258.039 155.117 254.592 154.617C244.357 153.067 234.148 151.32 224.102 148.779L224.514 146.003C227.978 146.131 231.421 146.409 234.86 146.725C242.579 147.425 250.29 148.425 257.953 149.586C260.615 149.941 263.212 150.594 265.389 152.298L265.054 154.536H265.059Z" fill="#B3B4BD"/>
<path d="M237.947 165.14C237.947 165.14 237.909 165.127 237.926 165.153L237.952 165.217L237.999 165.345C238.029 165.431 238.063 165.516 238.089 165.601C238.634 167.344 238.995 169.257 238.918 171.2C238.875 172.016 238.694 172.64 238.643 173.387C238.596 174.117 238.454 175.698 238.437 176.385C238.381 177.252 238.214 178.239 238.102 179.088C237.99 179.823 237.733 180.904 237.595 181.642C237.342 182.898 237.033 184.512 236.724 185.721C236.415 186.998 235.994 188.352 235.685 189.633C235.492 190.982 234.736 192.324 234.388 193.605C234.152 194.591 233.628 195.757 233.233 196.654C232.989 197.265 232.869 197.91 232.559 198.619C231.98 199.887 231.344 201.087 230.773 202.33C230.537 202.872 230.306 203.743 229.949 204.32C228.605 206.729 227.244 209.137 225.746 211.452C225.265 212.336 224.587 213.353 224.016 214.185C223.685 214.732 223.093 215.42 222.698 215.919C221.99 216.85 220.848 218.187 220.118 219.118C219.654 219.665 219.418 220.122 218.916 220.745L217.508 222.402L217.422 222.501C217.027 222.957 216.327 223.504 215.966 223.876L214.541 225.37C213.815 226.135 212.3 227.625 211.527 228.339C210.887 228.898 210.316 229.304 209.986 229.611C209.531 230.038 208.895 230.747 208.324 231.157C207.814 231.542 207.457 231.742 207.041 232.05C206.749 232.285 205.435 233.284 205.13 233.523C204.817 233.775 204.199 234.36 203.842 234.6C203.258 235.039 202.537 235.377 202.009 235.71C199.287 237.619 196.449 239.387 193.453 240.831C192.762 241.189 191.856 241.535 191.199 241.868C190.495 242.308 189.567 242.791 188.726 243.128C187.79 243.56 186.768 243.952 185.815 244.35C183.497 245.135 181.204 246.075 178.826 246.669C177.495 247.04 176.065 247.322 174.747 247.694C174.279 247.809 173.344 248.078 172.884 248.227C172.193 248.458 171.163 248.556 170.501 248.62C169.51 248.761 168.454 249.133 167.423 249.193L166.419 249.269C165.35 249.423 163.469 249.744 162.263 249.684L160.241 249.855L159.829 249.889C159.21 249.966 158.588 250.089 157.892 250.042C156.463 249.919 154.986 249.432 153.986 248.381C153.762 248.381 153.582 248.202 153.582 247.98C153.582 247.758 153.762 247.578 153.986 247.578C153.977 247.527 154.003 247.51 154.024 247.493L154.093 247.437L154.23 247.331C155.235 246.656 156.291 246.126 157.454 245.921C157.944 245.84 158.193 245.802 158.755 245.716C159.781 245.571 160.958 245.46 161.984 245.362C163.521 245.353 164.315 245.127 165.955 244.883L166.99 244.781C167.29 244.747 167.475 244.717 167.728 244.657C168.222 244.529 168.793 244.371 169.274 244.273C169.995 244.11 170.871 244.115 171.575 243.884C172.077 243.709 173.116 243.393 173.635 243.256C174.902 242.846 176.211 242.611 177.478 242.236C179.719 241.655 181.87 240.737 184.055 239.972C185.24 239.481 186.498 238.93 187.657 238.392C187.889 238.277 188.537 237.879 188.851 237.7C189.344 237.418 189.993 237.149 190.456 236.948C190.894 236.769 191.68 236.346 192.118 236.137C194.629 234.86 196.999 233.331 199.296 231.708C199.768 231.388 200.498 231.021 200.966 230.713C201.301 230.47 201.949 229.863 202.288 229.611C202.649 229.334 203.34 228.813 203.709 228.527C204.199 228.129 204.959 227.651 205.409 227.326C205.912 226.934 206.178 226.575 206.727 226.079C207.41 225.469 207.959 225.097 208.342 224.755C209.063 224.089 210.475 222.714 211.162 222.009C211.682 221.48 212.94 220.164 213.472 219.763C213.622 219.626 213.888 219.409 214.013 219.25L215.271 217.816C215.567 217.448 216.001 216.795 216.361 216.372C217.001 215.59 218.121 214.262 218.77 213.498C219.096 213.066 219.688 212.392 220.015 211.965C220.62 211.098 221.346 210.085 221.865 209.159C223.346 206.929 224.716 204.623 226.055 202.304C226.188 202.086 226.274 201.894 226.373 201.629C226.549 201.113 226.983 200.156 227.287 199.601C227.687 198.772 228.266 197.726 228.648 196.949C228.97 196.12 229.344 194.894 229.795 194.07C230.275 193.126 230.391 192.358 230.786 191.328C231.057 190.628 231.31 190.248 231.508 189.612C231.735 188.732 232.04 187.579 232.328 186.682C233.027 184.495 233.525 182.095 234.036 179.857C234.268 179.007 234.448 177.876 234.582 177C234.77 175.74 234.826 174.297 234.981 173.041C235.032 172.396 235.213 171.602 235.307 171.03L235.41 170.081C235.453 169.753 235.5 169.42 235.556 169.091C235.702 168.348 235.814 167.007 236.149 166.105L236.32 165.601C236.346 165.516 236.385 165.435 236.415 165.35L236.466 165.221L236.492 165.157C236.492 165.132 236.544 165.149 236.569 165.145L237.776 164.837C237.947 164.786 238.085 165.021 237.952 165.145L237.947 165.14Z" fill="#FFBF9E"/>
<path d="M200.318 271.687L151.621 258.217C145.524 256.53 139.565 254.377 133.8 251.776L121.156 246.075L132.864 204.196L149.478 211.427C154.012 213.4 158.674 215.052 163.44 216.368L212.021 229.808L200.314 271.687H200.318Z" fill="#F2F2F5"/>
<path d="M200.352 272.169C195.599 271.341 190.512 270.414 185.708 269.099C177.143 266.886 168.441 264.627 159.888 262.329C151.315 260.075 142.763 257.807 134.636 254.232C130.493 252.477 122.941 248.992 118.781 247.177C119.292 245.281 131.038 202.757 131.45 201.232L133.73 202.223C139.285 204.61 147.309 208.177 152.796 210.474C159.043 213.071 165.899 214.8 172.433 216.611C184.913 220.006 201.979 224.871 214.571 228.381C212.351 236.244 210.072 244.123 207.732 251.952L204.499 262.68C203.46 266.045 202.507 269.445 200.352 272.165V272.169ZM200.15 271.196C200.309 267.271 200.991 263.397 201.992 259.741C204.477 249.855 207.354 239.028 210.041 229.257L211.475 231.781L191.37 226.297C183.055 224.038 174.575 221.672 166.255 219.374C161.172 218.016 156.05 216.47 151.169 214.463C148.361 213.314 144.364 211.529 141.552 210.316L132.004 206.152L134.941 204.764L123.083 246.6L121.984 244.26C127.625 246.724 135.271 250.517 140.913 252.69C146.369 254.967 154.638 257.141 160.395 258.802C173.747 262.735 187.077 266.169 200.154 271.196H200.15Z" fill="#5E5F6C"/>
<path d="M193.226 221.822C193.582 220.54 194.166 219.374 194.866 218.324C195.566 217.273 196.476 216.282 197.485 215.484C198.494 214.685 199.631 214.019 200.851 213.566C202.07 213.114 203.341 212.844 204.654 212.789C205.968 212.733 207.226 212.879 208.514 213.233C209.802 213.588 210.97 214.168 212.03 214.865C213.09 215.561 214.091 216.462 214.889 217.465C215.688 218.469 216.353 219.605 216.808 220.818C217.259 222.018 217.521 223.295 217.577 224.602C217.633 225.909 217.474 227.147 217.117 228.428C216.761 229.71 216.216 230.888 215.516 231.939C214.816 232.99 213.91 233.993 212.902 234.788C211.893 235.582 210.746 236.244 209.527 236.697C208.308 237.149 207.037 237.414 205.723 237.47C204.41 237.525 203.156 237.376 201.868 237.017C200.58 236.658 199.404 236.094 198.348 235.398C197.292 234.702 196.296 233.792 195.497 232.789C194.698 231.785 194.033 230.649 193.578 229.436C193.123 228.223 192.882 226.959 192.822 225.652C192.762 224.346 192.87 223.094 193.23 221.813L193.226 221.822Z" fill="#B3B4BD"/>
<path d="M192.513 221.625C195.072 212.516 205.998 208.625 213.666 214.339C223.622 221.745 219.148 237.452 206.865 238.772C201.499 239.379 195.944 236.487 193.484 231.717C191.878 228.603 191.659 224.978 192.513 221.625ZM193.939 222.018C191.805 229.5 198.859 237.243 206.522 236.013C216.036 234.561 219.371 222.629 211.961 216.517C205.762 211.256 196.218 214.339 193.939 222.018Z" fill="#5E5F6C"/>
<path d="M158.425 255.116C158.858 253.562 159.567 252.148 160.417 250.871C161.267 249.594 162.37 248.39 163.598 247.425C164.826 246.459 166.204 245.644 167.681 245.097C169.158 244.55 170.703 244.221 172.296 244.153C173.889 244.085 175.417 244.26 176.98 244.691C178.543 245.123 179.964 245.823 181.247 246.673C182.531 247.523 183.746 248.612 184.716 249.829C185.687 251.046 186.494 252.426 187.047 253.899C187.601 255.372 187.91 256.906 187.979 258.49C188.048 260.074 187.855 261.582 187.421 263.137C186.987 264.691 186.33 266.122 185.48 267.394C184.63 268.667 183.531 269.889 182.308 270.854C181.084 271.819 179.689 272.622 178.212 273.169C176.735 273.715 175.19 274.04 173.593 274.108C171.996 274.176 170.476 273.993 168.913 273.561C167.35 273.13 165.925 272.443 164.641 271.597C163.358 270.751 162.151 269.649 161.181 268.432C160.211 267.215 159.404 265.836 158.85 264.367C158.296 262.897 158.004 261.364 157.935 259.776C157.867 258.187 157.995 256.675 158.429 255.116H158.425Z" fill="#B3B4BD"/>
<path d="M157.756 254.932C158.774 248.522 164.484 243.367 170.906 242.564C182.67 240.937 192.299 252.302 188.998 263.572C185.885 275.026 171.915 279.912 162.504 272.413C158.117 269.047 155.88 263.333 156.803 257.939C156.953 256.897 157.215 255.863 157.597 254.885L157.756 254.928V254.932ZM159.25 255.347C157.773 264.341 165.218 273.164 174.538 272.165C186.4 270.841 190.569 255.983 181.115 248.736C175.311 244.166 166.931 245.293 162.092 250.687C160.873 252.024 159.834 253.591 159.091 255.3L159.25 255.342V255.347Z" fill="#5E5F6C"/>
</svg>
