<svg width="320" height="320" viewBox="0 0 320 320" fill="none" xmlns="http://www.w3.org/2000/svg">
<path fill-rule="evenodd" clip-rule="evenodd" d="M84.971 88.6404C86.4131 88.9817 92.8003 96.9434 92.8003 96.9434C92.8003 96.9434 87.3987 95.9279 85.7987 99.2644C84.1987 102.601 84.267 104.841 85.7987 109.632C87.3304 114.424 98.0014 125.713 98.0014 125.713L95.7827 124.489C93.564 123.264 89.8094 124.361 89.0456 125.713C88.2819 127.066 89.0883 133.274 91.9427 138.266C94.7971 143.262 99.4478 148.455 102.52 151.104C104.411 152.736 108.743 158.844 112.689 164.407C115.151 167.88 117.464 171.14 118.938 172.967C122.774 177.72 145.468 204.352 150.81 208.282C152.477 209.508 154.249 210.948 156.045 212.406C160.004 215.62 164.077 218.928 167.39 220.254C172.207 222.183 178.232 227 178.232 227C178.232 227 192.93 244.348 196.536 248.926C200.145 253.5 201.361 257.357 201.361 257.357L197.504 254.708L190.341 246.895L175.608 233.024C175.608 233.024 169.105 232.32 163.909 231.429C160.051 230.767 154.29 227.169 149.046 223.894C147.225 222.757 145.467 221.659 143.872 220.736C137.686 217.157 121.959 201.588 121.959 201.588C121.959 201.588 102.183 182.644 97.9331 179.038C93.6835 175.433 76.7918 159.062 73.1395 153.178C69.6044 147.487 72.477 145.418 74.4524 143.995C74.5179 143.948 74.5824 143.901 74.6456 143.855C76.6168 142.426 82.6115 145.511 82.6115 145.511L75.9726 140.152C75.9726 140.152 66.428 134.481 64.5592 127.006C62.6862 119.535 65.643 118.251 69.0776 117.551C71.1543 117.128 72.4527 117.735 73.1547 118.28C71.7906 116.869 68.6129 113.596 66.4024 111.441C63.5182 108.63 62.6776 102.426 63.8424 98.9743C64.9482 95.6976 68.4069 95.7852 70.244 95.8317C70.3422 95.8342 70.4357 95.8365 70.524 95.8383C72.2691 95.8724 78.0718 98.9273 78.0718 98.9273C78.0718 98.9273 75.1064 92.0794 77.035 90.7695C78.9635 89.4596 83.5288 88.2991 84.971 88.6404ZM161.767 93.5089C163.26 93.2444 172.561 101.334 172.561 101.334C172.561 101.334 172.211 105.818 173.069 109.978C173.922 114.134 179.682 121.481 184.188 126.614C188.694 131.747 193.993 138.689 193.993 138.689L181.611 128.709L160.005 110.196C160.005 110.196 156.826 102.614 156.89 98.9319C156.954 95.2497 160.273 93.7735 161.767 93.5089Z" fill="#BCBDD2"/>
<path d="M259.43 222.191C259.43 222.191 250.069 215.044 242.632 206.016C235.195 196.988 232.332 195.2 231.564 189.675C230.8 184.149 229.508 161.468 228.663 156.744C227.818 152.021 224.789 144.687 221.725 138.274C218.662 131.861 213.798 122.287 212.215 120.627C210.632 118.972 194.133 107.661 194.133 107.661C194.133 107.661 186.943 100.847 184.75 98.0352C182.553 95.2234 182.498 92.1514 180.155 93.0432C177.813 93.9349 172.676 96.6229 172.56 101.329C172.441 106.035 173.819 114.278 175.94 116.936C178.06 119.595 186.427 129.182 186.427 129.182L193.988 138.679C193.988 138.679 164.71 114.317 156.65 107.281C148.586 100.245 131.814 85.137 126.566 81.4165C121.318 77.696 115.865 75.3279 112.473 75.5114C109.081 75.6949 108.842 76.5056 108.501 79.6074C108.159 82.7093 110.617 88.5802 110.617 88.5802C110.617 88.5802 101.593 78.9674 97.8639 77.6191C94.1349 76.2709 91.9034 76.1386 88.6863 77.7258C85.4693 79.313 84.1594 84.0831 86.8645 88.5845C89.5695 93.0815 95.7818 99.8997 95.7818 99.8997C95.7818 99.8997 92.7781 93.8965 87.5557 96.9685C82.3375 100.036 84.4239 108.42 87.0479 112.2C89.6677 115.981 98.0005 125.726 98.0005 125.726C98.0005 125.726 91.1738 121.058 89.0447 125.726C86.9157 130.394 90.8751 137.455 95.5215 143.56C100.168 149.666 116.232 168.883 123.741 178.914C131.251 188.945 141.939 199.932 150.809 208.294C159.679 216.653 166.826 219.661 171.216 222.195C175.611 224.73 178.231 227.012 178.231 227.012L204.01 257.37C204.01 257.37 206.66 257.852 218.709 252.791C230.758 247.731 246.677 240.742 252.087 234.722C257.501 228.698 259.43 222.191 259.43 222.191Z" fill="white"/>
<path fill-rule="evenodd" clip-rule="evenodd" d="M199.86 144.397C199.52 144.143 199.203 143.859 198.887 143.576C198.365 143.11 197.843 142.644 197.219 142.307C196.741 141.96 196.241 141.649 195.743 141.338C194.92 140.825 194.099 140.313 193.379 139.648C192.852 139.116 192.249 138.738 191.638 138.356C191.314 138.153 190.988 137.949 190.67 137.72C190.322 137.497 190.009 137.174 189.701 136.856C189.461 136.608 189.224 136.363 188.976 136.171C188.699 135.962 188.332 135.68 188.033 135.382C187.561 134.883 187.007 134.454 186.459 134.028C186.12 133.764 185.783 133.503 185.469 133.227C185.104 132.912 184.716 132.616 184.327 132.319C183.482 131.675 182.63 131.024 181.987 130.159C181.581 129.734 181.062 129.337 180.547 128.943C180.159 128.647 179.773 128.352 179.44 128.047C179.192 127.856 178.934 127.674 178.675 127.491C177.952 126.98 177.221 126.464 176.696 125.735C176.183 124.989 175.61 124.638 174.938 124.227C174.711 124.088 174.473 123.942 174.222 123.772C173.896 123.52 173.645 123.29 173.374 123.041L173.292 122.966C172.216 121.933 171.086 120.892 169.989 119.932C169.788 119.779 169.544 119.622 169.29 119.459C168.864 119.186 168.413 118.897 168.103 118.584C167.735 118.229 167.373 117.884 167.012 117.54L167.01 117.539C166.533 117.085 166.058 116.633 165.573 116.16C165.112 115.653 164.596 115.154 164.05 114.808C163.444 114.514 162.591 113.874 162.079 113.366C161.628 112.928 161.094 112.46 160.57 112.001L160.57 112L160.57 112C160.215 111.689 159.865 111.383 159.549 111.092C158.956 110.622 158.324 109.995 157.838 109.466C157.451 109.017 156.926 108.721 156.394 108.422C155.94 108.166 155.482 107.908 155.103 107.55C154.828 107.307 154.582 107.061 154.341 106.819L154.341 106.819C154.058 106.536 153.78 106.258 153.464 105.993C153.155 105.727 152.901 105.459 152.656 105.201C152.2 104.721 151.776 104.273 151.088 103.932C151.05 103.911 151.011 103.89 150.972 103.868C150.669 103.7 150.32 103.507 149.961 103.224C149.536 102.885 149.225 102.476 148.929 102.087C148.747 101.849 148.572 101.618 148.379 101.415C148.257 101.285 148.046 101.116 147.858 100.966C147.769 100.894 147.685 100.827 147.619 100.771C147.111 100.378 146.318 99.7253 145.81 99.2858C145.674 99.1695 145.527 99.0468 145.375 98.9198L145.374 98.9186L145.374 98.9183L145.373 98.9178L145.373 98.9177L145.373 98.9177L145.373 98.9176L145.372 98.9174L145.372 98.9171C144.917 98.5371 144.416 98.119 144.039 97.72C143.604 97.2421 142.939 96.5594 142.461 96.137C141.56 95.2325 140.993 94.665 139.995 94.0293C139.534 93.7142 139.074 93.2762 138.646 92.8689L138.646 92.8688L138.646 92.8687C138.483 92.7135 138.325 92.5628 138.173 92.425L137.755 92.0325C137.407 91.7248 137.085 91.3401 136.778 90.9727C136.455 90.5861 136.147 90.2187 135.843 89.9802L134.094 88.5552L132.396 87.0618L132.325 86.9994L132.324 86.9991C132.276 86.9565 132.228 86.9139 132.191 86.8826C131.891 86.6652 131.564 86.4639 131.233 86.2598C130.661 85.9073 130.076 85.5469 129.592 85.0821L128.735 84.344C128.301 83.9384 127.812 83.6667 127.315 83.3909C126.824 83.1183 126.326 82.8418 125.868 82.4282C125.599 82.1875 125.393 81.9493 125.195 81.7202C124.943 81.4294 124.705 81.1532 124.366 80.905C124.27 80.8459 124.172 80.7866 124.072 80.7271C126.527 83.3863 127.872 86.0444 124.549 89.5992C123.273 90.8622 122.032 92.0099 120.146 92.3768C118.882 92.5047 117.584 92.2503 116.42 91.7638C116.669 92.0166 116.924 92.2772 117.18 92.5389L117.181 92.539C117.926 93.3002 118.68 94.0698 119.301 94.6778C120.231 95.497 121.315 96.5808 122.109 97.6133C122.475 97.97 122.816 98.375 123.157 98.7802L123.157 98.7802L123.157 98.7803C123.413 99.085 123.669 99.3898 123.937 99.6742C124.014 99.7331 124.091 99.7952 124.169 99.8611C124.594 100.234 124.89 100.614 125.182 100.987L125.182 100.987C125.37 101.228 125.556 101.467 125.774 101.7C126.119 102.042 126.496 102.435 126.855 102.808L126.855 102.808C127.046 103.007 127.231 103.2 127.404 103.377C127.722 103.699 128.103 103.964 128.485 104.231C128.989 104.581 129.495 104.933 129.865 105.421C130.069 105.659 130.24 105.883 130.402 106.096C130.62 106.382 130.823 106.648 131.073 106.905C131.2 107.03 131.437 107.297 131.636 107.523L131.636 107.523C131.737 107.637 131.829 107.741 131.892 107.81C132.359 108.416 132.882 108.864 133.414 109.32C133.845 109.69 134.281 110.064 134.7 110.532C136.355 112.264 137.921 114.103 139.337 116.036C139.529 116.325 139.673 116.586 139.808 116.83C140.021 117.216 140.211 117.561 140.532 117.913C140.726 118.122 140.929 118.32 141.135 118.519L141.135 118.519C141.5 118.873 141.87 119.232 142.2 119.671C142.252 119.74 142.303 119.807 142.353 119.874C142.929 120.643 143.405 121.278 144.163 121.898L144.769 122.432L145.076 122.722C145.404 123.048 145.772 123.376 146.145 123.708C146.669 124.175 147.204 124.651 147.657 125.15C148.251 125.73 149.33 126.865 149.821 127.501C150.208 127.954 150.64 128.333 151.077 128.717L151.078 128.718C151.406 129.006 151.738 129.298 152.056 129.625C153.033 130.696 154.331 131.972 155.397 132.958C155.685 133.254 155.946 133.55 156.203 133.842L156.203 133.843C156.624 134.321 157.034 134.787 157.535 135.219C159.049 136.584 160.615 138.184 162.015 139.669C162.203 139.853 162.207 140.151 162.028 140.343C161.853 140.531 161.558 140.535 161.371 140.365C160.274 139.328 159.032 138.176 157.893 137.173C157.64 136.946 157.371 136.722 157.1 136.495L157.1 136.495C156.549 136.035 155.987 135.564 155.512 135.044C154.928 134.357 153.959 133.482 153.277 132.894C152.777 132.479 152.122 131.823 151.558 131.257C151.361 131.06 151.175 130.874 151.011 130.713C150.719 130.425 150.396 130.152 150.071 129.877L150.071 129.877L150.071 129.877L150.07 129.877L150.07 129.877L150.07 129.876L150.07 129.876L150.07 129.876L150.07 129.876L150.07 129.876L150.07 129.876L150.069 129.876C149.793 129.641 149.513 129.405 149.249 129.156C148.911 128.848 148.586 128.474 148.272 128.113L148.272 128.112L148.272 128.112L148.272 128.112L148.271 128.111L148.271 128.111L148.271 128.111L148.271 128.11C148.051 127.857 147.837 127.611 147.628 127.398C147.42 127.193 147.087 126.869 146.76 126.55L146.758 126.548C146.445 126.244 146.138 125.945 145.951 125.76C145.637 125.44 145.297 125.159 144.953 124.875L144.953 124.875C144.599 124.582 144.24 124.286 143.899 123.938C143.682 123.736 143.452 123.536 143.22 123.335C142.732 122.913 142.235 122.484 141.842 122.001C141.577 121.692 141.331 121.37 141.103 121.07C141.015 120.956 140.93 120.844 140.848 120.738C140.58 120.388 140.243 120.065 139.901 119.738C139.454 119.31 138.999 118.874 138.68 118.361C138.533 118.124 138.408 117.909 138.292 117.708C138.033 117.259 137.812 116.878 137.456 116.463C136.193 114.811 134.832 113.224 133.398 111.722C133.055 111.344 132.632 110.975 132.202 110.599C131.611 110.083 131.006 109.555 130.578 108.975C130.339 108.697 129.917 108.232 129.669 107.972C129.431 107.713 129.215 107.424 129.011 107.153C128.849 106.938 128.696 106.734 128.547 106.564C128.216 106.145 127.799 105.863 127.375 105.576L127.375 105.576C127.078 105.375 126.777 105.172 126.499 104.917C126.127 104.563 125.778 104.194 125.433 103.828L125.433 103.828C125.134 103.511 124.837 103.196 124.528 102.895C124.303 102.659 124.087 102.381 123.874 102.108L123.874 102.108C123.599 101.754 123.329 101.408 123.052 101.167L123.048 101.164C122.934 101.122 122.821 101.053 122.715 100.95C122.684 100.919 122.655 100.888 122.625 100.858C122.557 100.81 122.488 100.762 122.417 100.714C121.734 100.241 120.942 99.6942 120.53 99.0205C120.105 98.3253 119.477 97.773 118.886 97.2533C118.741 97.1256 118.598 96.9998 118.461 96.8744C118.019 96.47 117.538 96.0641 117.051 95.6532C116.32 95.0366 115.576 94.4083 114.928 93.7555C114.744 93.5875 114.492 93.346 114.204 93.0696L114.204 93.0696C113.335 92.2366 112.136 91.0871 111.476 90.6835C110.634 90.0256 109.856 89.2453 109.092 88.479L109.092 88.4789L109.092 88.4787L109.092 88.4787C108.706 88.092 108.324 87.7089 107.939 87.3469C107.419 86.7887 106.934 86.4365 106.389 86.0405C106.134 85.8555 105.866 85.6609 105.575 85.4312C105.369 85.2584 105.177 85.0801 104.992 84.8993C106.011 87.0046 106.421 89.4892 105.422 91.678C104.547 93.4871 102.892 94.7671 101.219 95.8039C99.0728 97.0327 96.3038 96.9047 94.1406 95.8508C93.7407 95.6573 93.344 95.4446 92.9529 95.2159C93.0385 95.3247 93.1222 95.4328 93.2053 95.5402L93.2053 95.5402L93.2054 95.5402L93.2054 95.5403L93.2054 95.5403L93.2054 95.5403L93.2055 95.5404L93.2055 95.5404L93.2055 95.5404C93.436 95.838 93.6625 96.1306 93.9145 96.4221C94.2259 96.789 94.5422 97.0562 94.8877 97.3481L94.8877 97.3481L94.8879 97.3483C95.1009 97.5282 95.3249 97.7175 95.5657 97.9453C96.0231 98.3792 96.3946 98.8325 96.7613 99.2802C97.0583 99.6427 97.3522 100.001 97.6863 100.343C97.8677 100.534 98.1411 100.827 98.4202 101.126L98.4231 101.13L98.424 101.13C98.7541 101.484 99.0918 101.846 99.2948 102.058C99.6016 102.375 99.9071 102.633 100.227 102.903L100.227 102.903C100.482 103.118 100.746 103.341 101.027 103.607C101.412 103.998 101.873 104.481 102.294 104.921L102.295 104.921L102.307 104.934C102.442 105.075 102.573 105.212 102.695 105.339C103.049 105.693 103.379 106.092 103.701 106.481L103.701 106.481L103.701 106.481L103.701 106.481L103.701 106.481L103.701 106.481L103.701 106.481C103.891 106.711 104.078 106.938 104.265 107.149C104.583 107.457 104.857 107.878 105.126 108.293L105.126 108.293L105.126 108.293C105.337 108.62 105.546 108.942 105.772 109.201C105.999 109.436 106.234 109.604 106.488 109.784L106.488 109.784C106.768 109.983 107.07 110.198 107.406 110.536C107.814 110.976 108.063 111.384 108.3 111.771C108.572 112.215 108.828 112.633 109.287 113.045C109.93 113.737 110.455 114.239 111.007 114.768L111.007 114.768C111.354 115.1 111.712 115.442 112.116 115.848C112.368 116.122 112.664 116.451 112.952 116.772L112.953 116.773C113.169 117.013 113.381 117.248 113.567 117.453C113.915 117.83 114.137 118.242 114.345 118.628C114.502 118.917 114.65 119.192 114.838 119.428C115.077 119.73 115.347 119.939 115.624 120.154C115.778 120.273 115.934 120.393 116.088 120.533C116.536 121.007 117.321 121.851 117.744 122.329L117.989 122.598L117.99 122.598L117.99 122.598L117.99 122.598L117.99 122.598C119.018 123.721 120.581 125.427 121.396 126.502C121.76 126.93 122.141 127.35 122.522 127.77L122.523 127.77L122.523 127.77L122.523 127.77L122.523 127.77L122.523 127.77L122.523 127.77L122.523 127.771L122.523 127.771L122.523 127.771L122.523 127.771L122.523 127.771L122.523 127.771L122.523 127.771L122.524 127.771L122.524 127.771L122.524 127.771L122.524 127.771L122.524 127.772L122.524 127.772L122.524 127.772L122.524 127.772C123.02 128.318 123.517 128.865 123.977 129.433C124.09 129.557 124.293 129.804 124.519 130.076L124.519 130.076C124.876 130.509 125.288 131.008 125.479 131.191C125.799 131.507 126.29 132.01 126.601 132.36C126.83 132.627 127.213 133.067 127.564 133.471L127.565 133.471L127.568 133.476L127.569 133.476C127.8 133.742 128.017 133.991 128.167 134.165C128.485 134.531 128.81 135.062 129.071 135.49L129.071 135.49L129.119 135.569C129.46 136.122 129.863 136.562 130.278 137.016C130.532 137.294 130.79 137.577 131.043 137.894L132.016 139.127C132.395 139.61 132.828 140.112 133.265 140.618C133.89 141.343 134.524 142.078 135.024 142.784C135.377 143.254 135.774 143.592 136.183 143.939L136.183 143.939C136.534 144.237 136.894 144.543 137.243 144.947C137.591 145.355 137.892 145.757 138.19 146.155L138.19 146.155L138.19 146.155L138.19 146.156C138.512 146.585 138.831 147.011 139.205 147.439L140.229 148.646L140.485 148.949L140.613 149.098C140.927 149.479 141.196 149.968 141.449 150.428C141.627 150.751 141.798 151.06 141.97 151.309C142.22 151.663 142.549 151.996 142.884 152.334C143.21 152.665 143.541 153 143.809 153.365C144.487 154.363 145.072 155.157 145.951 156.019C146.292 156.377 146.275 156.953 145.908 157.282C145.545 157.61 144.991 157.585 144.662 157.222C143.958 156.544 143.126 155.558 142.576 154.718C142.303 154.304 142.017 154.005 141.646 153.647C140.882 152.981 140.076 151.812 139.645 150.942C139.406 150.502 139.111 150.157 138.791 149.794C138.045 148.975 137.293 148.027 136.578 147.124L136.577 147.123C136.32 146.799 136.068 146.48 135.822 146.176C135.558 145.884 135.222 145.596 134.876 145.3L134.876 145.3C134.387 144.882 133.88 144.448 133.535 143.966C132.976 143.206 132.161 142.255 131.542 141.568C131.069 141.05 130.442 140.267 129.918 139.612L129.916 139.609C129.78 139.439 129.65 139.277 129.533 139.131C129.301 138.848 129.041 138.565 128.777 138.278L128.777 138.278L128.777 138.278L128.777 138.278L128.777 138.278L128.777 138.278L128.777 138.278L128.777 138.278L128.777 138.278L128.777 138.278L128.777 138.278L128.777 138.278L128.776 138.278L128.776 138.278L128.776 138.277L128.776 138.277C128.5 137.977 128.22 137.673 127.963 137.357C127.72 137.064 127.507 136.723 127.299 136.39C127.078 136.037 126.864 135.693 126.627 135.428C126.456 135.229 126.18 134.916 125.901 134.599L125.9 134.598C125.588 134.245 125.271 133.886 125.091 133.674C124.884 133.44 124.641 133.195 124.394 132.946C124.065 132.616 123.73 132.279 123.47 131.955C122.675 130.967 121.809 130.002 120.953 129.046L120.953 129.046C120.577 128.627 120.204 128.211 119.839 127.795C118.886 126.576 117.574 125.152 116.385 123.861C115.955 123.394 115.542 122.945 115.167 122.53C114.796 122.095 114.582 121.915 114.134 121.595C113.72 121.254 113.439 120.96 113.123 120.571C112.923 120.301 112.754 119.994 112.593 119.701C112.403 119.356 112.223 119.031 112.018 118.809C111.901 118.682 111.738 118.503 111.574 118.322L111.574 118.322L111.574 118.322L111.573 118.322C111.398 118.128 111.22 117.933 111.092 117.794C111.016 117.712 110.931 117.617 110.841 117.517L110.841 117.517C110.597 117.246 110.317 116.935 110.089 116.736C109.175 115.954 108.193 114.907 107.298 113.954L107.298 113.954L107.214 113.864C106.967 113.591 106.744 113.223 106.532 112.873L106.532 112.873C106.32 112.522 106.12 112.19 105.917 111.991C105.771 111.837 105.521 111.656 105.25 111.459L105.25 111.459L105.249 111.459L105.249 111.459C104.956 111.247 104.639 111.016 104.402 110.784C104.007 110.409 103.691 109.921 103.396 109.465C103.302 109.319 103.21 109.177 103.118 109.043C102.894 108.752 102.609 108.425 102.328 108.103L102.328 108.103C102.09 107.829 101.855 107.56 101.663 107.319C101.338 106.961 100.963 106.568 100.586 106.177C100.927 107.464 100.983 108.794 100.498 109.855C99.5293 111.771 97.5837 113.413 95.3394 113.315C91.636 113.256 88.2226 109.305 86.085 106.612L85.9353 106.415L85.7958 106.23C86.191 108.564 87.0776 110.807 88.4148 112.802C88.5705 112.962 88.7421 113.128 88.9188 113.3C89.2892 113.659 89.6814 114.039 89.9935 114.423C90.2719 114.741 90.5161 115.123 90.7509 115.49L90.7509 115.49L90.7509 115.49C90.9227 115.759 91.0894 116.019 91.2607 116.241C91.4368 116.455 91.6188 116.679 91.805 116.908L91.805 116.908L91.805 116.908C92.5161 117.784 93.2874 118.734 94.0212 119.488C95.2031 120.742 96.8073 122.453 97.9209 123.729C98.7523 124.536 99.5719 125.36 100.411 126.204L100.412 126.204L100.413 126.205L100.413 126.205L100.413 126.205L100.413 126.206L100.413 126.206L100.413 126.206L100.413 126.206L100.414 126.206L100.414 126.206L100.414 126.206L100.414 126.206L100.414 126.207L100.414 126.207L100.415 126.207C100.587 126.38 100.759 126.554 100.933 126.728C101.43 127.18 101.873 127.826 102.277 128.415C102.446 128.661 102.608 128.897 102.764 129.105C103.023 129.432 103.372 129.754 103.725 130.08C104.045 130.375 104.369 130.674 104.632 130.982C105.639 132.207 106.757 133.487 107.828 134.647C108.111 134.963 108.374 135.338 108.633 135.705C108.873 136.046 109.109 136.381 109.351 136.657C109.527 136.856 109.755 137.128 109.996 137.416L109.996 137.417L109.996 137.417C110.415 137.917 110.874 138.465 111.169 138.76C111.316 138.903 111.501 139.059 111.698 139.225L111.698 139.225L111.698 139.226L111.698 139.226C111.984 139.468 112.294 139.73 112.547 139.998C112.897 140.363 113.215 140.798 113.522 141.219L113.522 141.219L113.522 141.219L113.522 141.219C113.732 141.507 113.937 141.787 114.143 142.033C114.437 142.366 114.808 142.848 115.077 143.198C115.53 143.845 116.034 144.347 116.555 144.865C116.854 145.162 117.159 145.465 117.462 145.805C117.801 146.218 118.463 147.029 118.81 147.455L118.829 147.478L118.832 147.481C118.975 147.646 119.179 147.887 119.414 148.164C120.136 149.014 121.156 150.216 121.648 150.699C122.083 151.154 122.566 151.743 123.014 152.289L123.014 152.289C123.204 152.52 123.388 152.744 123.559 152.947C124.072 153.507 124.485 154.13 124.886 154.736L124.886 154.736C125.146 155.128 125.401 155.513 125.676 155.87C125.941 156.201 126.249 156.59 126.539 156.957L126.54 156.958L126.541 156.96L126.549 156.97C126.723 157.189 126.889 157.4 127.037 157.585C127.241 157.849 127.694 158.408 127.916 158.664C128.727 159.622 129.398 160.679 130.069 161.736L130.069 161.737L130.069 161.737L130.069 161.737L130.07 161.737L130.07 161.737L130.07 161.737L130.07 161.737L130.07 161.737L130.07 161.737L130.07 161.737L130.07 161.737L130.07 161.738L130.07 161.738L130.07 161.738L130.07 161.738L130.07 161.738L130.07 161.738L130.07 161.738C130.945 163.116 131.821 164.495 133.006 165.653C133.326 166.02 133.287 166.579 132.92 166.899C132.541 167.228 131.965 167.172 131.653 166.784C130.497 165.69 129.641 164.418 128.763 163.113L128.762 163.113C128.542 162.785 128.319 162.455 128.091 162.125C127.476 161.113 126.776 160.235 125.983 159.356C125.705 159.014 124.895 158.029 124.596 157.67C124.522 157.579 124.442 157.482 124.359 157.382L124.359 157.382L124.359 157.382C124.114 157.086 123.849 156.766 123.657 156.488C123.571 156.362 123.466 156.205 123.354 156.034L123.353 156.033L123.353 156.033C123.062 155.592 122.714 155.067 122.471 154.79C122.305 154.59 121.932 154.148 121.599 153.755C121.386 153.502 121.19 153.27 121.076 153.135C120.721 152.691 120.356 152.311 119.983 151.923L119.983 151.923C119.706 151.634 119.424 151.341 119.139 151.014C118.473 150.259 116.937 148.493 116.332 147.746C115.932 147.222 115.492 146.797 115.033 146.353L115.032 146.353C114.815 146.144 114.593 145.929 114.369 145.698C113.977 145.284 113.64 144.852 113.306 144.423L113.306 144.423C113.186 144.268 113.066 144.114 112.944 143.961C112.537 143.503 112.17 143.017 111.812 142.542C111.6 142.26 111.39 141.982 111.177 141.717C110.885 141.405 110.545 141.101 110.198 140.79C109.644 140.293 109.072 139.781 108.647 139.196L107.709 138.099C107.39 137.74 107.142 137.387 106.899 137.041C106.674 136.719 106.452 136.404 106.181 136.094C105.936 135.819 105.686 135.548 105.437 135.277C104.954 134.752 104.471 134.227 104.018 133.679C103.949 133.601 103.768 133.386 103.569 133.149L103.568 133.148C103.422 132.974 103.266 132.788 103.136 132.636C103.213 132.909 103.271 133.19 103.305 133.479C103.595 135.45 102.179 136.939 100.656 137.873C99.2392 138.893 97.2637 139.597 95.5741 138.803C94.2728 138.206 93.3298 137.272 92.4978 136.359C92.2776 136.134 92.0681 135.893 91.8687 135.641C92.0223 136.065 92.1216 136.47 92.2094 136.828C92.2971 137.185 92.3734 137.496 92.4808 137.732C92.7253 138.239 93.0365 138.634 93.3785 139.068C93.4603 139.172 93.5438 139.278 93.6286 139.388C93.8559 139.699 94.1097 140.041 94.3737 140.397L94.3741 140.397L94.3743 140.397C95.0515 141.31 95.7953 142.312 96.3294 143.113C96.6837 143.666 97.1322 144.17 97.5825 144.675C97.875 145.003 98.1683 145.333 98.4371 145.677C98.6584 145.937 98.9184 146.148 99.1886 146.368C99.486 146.61 99.7958 146.863 100.08 147.2C100.429 147.606 100.661 148.044 100.888 148.471C101.104 148.879 101.316 149.278 101.62 149.632C102.277 150.456 103.442 151.928 104.086 152.747L104.436 153.191C104.771 153.586 105.048 154.083 105.309 154.551C105.453 154.809 105.592 155.058 105.733 155.277C105.849 155.357 105.987 155.445 106.137 155.54C106.717 155.911 107.475 156.395 107.794 156.941L109.134 158.797C109.413 159.181 109.628 159.55 109.823 159.883C110.007 160.196 110.172 160.479 110.354 160.713C110.671 161.129 110.911 161.56 111.122 161.941C111.277 162.22 111.417 162.472 111.561 162.671C111.768 162.964 112.044 163.26 112.351 163.589C112.557 163.81 112.778 164.046 112.999 164.305C113.362 164.775 113.718 165.154 114.109 165.571L114.109 165.571C114.233 165.703 114.36 165.839 114.493 165.982C115.098 166.737 115.717 167.399 116.4 168.107L116.731 168.475C117.128 168.915 117.604 169.442 117.932 169.809C118.224 170.16 118.477 170.529 118.728 170.893C119.026 171.327 119.32 171.756 119.672 172.143C120.142 172.827 120.638 173.462 121.131 174.093L121.131 174.093C121.443 174.493 121.754 174.891 122.057 175.3C122.369 175.706 122.552 175.847 123.06 176.205C123.92 176.752 124.555 177.645 125.17 178.51C125.418 178.86 125.663 179.205 125.919 179.52C126.085 179.755 126.228 180.008 126.369 180.256C126.57 180.613 126.766 180.958 127.015 181.223C127.199 181.398 127.425 181.574 127.663 181.758C128.071 182.074 128.509 182.414 128.812 182.818C129.028 183.082 129.259 183.441 129.487 183.797C129.695 184.12 129.9 184.441 130.092 184.683C130.804 185.504 131.535 186.309 132.265 187.111L132.266 187.111C132.616 187.496 132.966 187.881 133.313 188.267C133.374 188.353 133.776 188.867 134.164 189.362C134.507 189.8 134.839 190.223 134.913 190.323C135.239 190.748 135.491 191.189 135.698 191.55C135.859 191.831 135.992 192.065 136.112 192.205C136.369 192.532 136.686 192.774 137.01 193.021C137.32 193.257 137.637 193.499 137.917 193.826C138.109 194.081 138.268 194.367 138.427 194.652C138.648 195.048 138.867 195.443 139.175 195.751C139.419 195.992 139.677 196.181 139.949 196.379L139.949 196.379C140.162 196.534 140.383 196.696 140.613 196.894C141.134 197.331 141.522 197.791 141.867 198.199C142.014 198.373 142.152 198.537 142.29 198.686C142.683 199.136 143.106 199.475 143.535 199.819L143.535 199.819L143.535 199.819L143.535 199.819L143.535 199.819L143.535 199.819L143.535 199.819L143.535 199.819L143.535 199.819L143.535 199.819L143.535 199.819L143.535 199.819L143.535 199.819L143.536 199.819L143.536 199.819L143.536 199.819L143.536 199.819C143.969 200.167 144.409 200.519 144.829 200.994C145.06 201.259 145.228 201.496 145.385 201.719C145.615 202.042 145.823 202.337 146.177 202.646L147.022 203.396L147.849 204.13C148.057 204.277 148.331 204.417 148.625 204.569C149.266 204.899 150.004 205.279 150.375 205.875C150.567 206.117 150.711 206.383 150.849 206.638C151.032 206.979 151.206 207.301 151.472 207.522C151.697 207.716 151.991 207.941 152.289 208.169L152.29 208.17L152.291 208.17C152.638 208.436 152.992 208.707 153.251 208.939C153.492 209.13 153.796 209.282 154.113 209.44C154.463 209.615 154.828 209.797 155.141 210.048C155.647 210.406 156.004 210.982 156.322 211.494L156.322 211.494L156.322 211.495C156.452 211.704 156.575 211.902 156.698 212.071L156.717 212.091C156.771 212.152 156.779 212.161 156.933 212.288C157.196 212.508 157.489 212.729 157.794 212.96L157.795 212.961L157.795 212.961L157.796 212.962L157.796 212.962C158.095 213.188 158.406 213.424 158.712 213.675C158.992 213.897 159.31 214.076 159.644 214.264C159.951 214.438 160.272 214.619 160.59 214.848C161.146 215.265 161.506 215.709 161.802 216.074C162.004 216.323 162.176 216.535 162.36 216.679C162.843 217.034 163.387 217.297 163.939 217.563C164.096 217.639 164.252 217.714 164.408 217.792C164.684 217.924 164.987 218.032 165.297 218.142L165.297 218.142L165.298 218.142L165.298 218.142L165.298 218.143L165.298 218.143L165.298 218.143L165.298 218.143L165.298 218.143L165.299 218.143L165.299 218.143C165.703 218.287 166.12 218.436 166.503 218.646C167.672 219.123 168.991 219.733 170.13 220.267C170.732 220.564 171.231 220.858 171.716 221.144L171.716 221.144C172.053 221.343 172.384 221.537 172.737 221.726C172.99 221.881 173.272 222.108 173.529 222.315L173.529 222.315L173.529 222.315L173.529 222.315C173.74 222.485 173.933 222.641 174.081 222.733C174.103 222.752 174.229 222.813 174.352 222.874C174.398 222.896 174.443 222.918 174.482 222.938L174.968 223.168C175.284 223.313 175.642 223.467 175.916 223.569L176.167 223.663C176.667 224.094 177.097 224.563 177.524 225.029L177.524 225.029C177.896 225.434 178.265 225.837 178.676 226.21C179.295 226.735 180.08 227.46 180.425 228.237C180.471 228.328 180.513 228.413 180.552 228.493L180.553 228.494C180.813 229.022 180.973 229.346 181.428 229.735L182.277 230.486C182.457 230.649 182.641 230.847 182.822 231.042C182.914 231.142 183.006 231.242 183.096 231.335L183.881 232.115C184.154 232.388 184.453 232.708 184.709 233.011L185.434 233.895L185.772 234.296L186.126 234.692C186.326 234.921 186.567 235.187 186.821 235.467C187.375 236.078 187.994 236.76 188.4 237.287C189.057 238.092 189.759 238.862 190.462 239.634L190.463 239.634L190.463 239.634L190.463 239.634L190.463 239.635L190.463 239.635L190.463 239.635L190.464 239.635L190.464 239.636L190.464 239.636L190.464 239.636L190.464 239.636L190.465 239.636L190.466 239.638C191.136 240.373 191.808 241.11 192.445 241.882L192.799 242.266C192.893 242.369 192.992 242.472 193.092 242.577C193.411 242.911 193.746 243.262 194.032 243.678C194.269 244.016 194.431 244.434 194.576 244.807L194.576 244.807L194.577 244.808L194.577 244.809C194.653 245.005 194.725 245.189 194.8 245.342C194.928 245.602 194.97 245.653 195.184 245.833C195.204 245.847 195.225 245.861 195.246 245.876L195.29 245.906L195.332 245.934L195.414 245.989L195.52 246.06C196.099 246.444 196.874 246.957 197.155 247.569C197.368 247.932 197.48 248.26 197.588 248.575C197.681 248.846 197.771 249.108 197.919 249.374C198.152 249.713 198.422 249.962 198.71 250.227C198.843 250.35 198.979 250.476 199.118 250.616C199.28 250.795 199.412 250.961 199.54 251.128C199.894 251.593 199.809 252.254 199.344 252.612C198.883 252.967 198.226 252.881 197.868 252.425L197.847 252.4L197.847 252.399C197.748 252.276 197.652 252.158 197.565 252.062L197.485 251.989L197.38 251.894C197.013 251.562 196.611 251.197 196.323 250.808C195.995 250.456 195.793 249.918 195.607 249.423C195.5 249.139 195.399 248.869 195.282 248.657C195.067 248.337 194.797 248.178 194.49 247.997C194.285 247.876 194.064 247.746 193.831 247.552C193.18 247.123 192.846 246.358 192.542 245.66C192.425 245.393 192.313 245.136 192.189 244.911C190.972 243.562 189.727 242.194 188.49 240.835L188.482 240.826L188.478 240.822L188.464 240.806L188.461 240.804L188.459 240.8L188.165 240.478C187.627 239.951 187.088 239.307 186.573 238.692C186.354 238.429 186.138 238.172 185.929 237.931C185.509 237.476 184.986 236.906 184.514 236.39L184.018 235.849C183.858 235.669 183.516 235.261 183.239 234.93C183.109 234.775 182.993 234.637 182.917 234.547C182.647 234.218 182.134 233.719 181.724 233.321C181.604 233.204 181.492 233.096 181.398 233.003C181.018 232.572 180.28 231.889 179.815 231.505C179.482 231.207 179.107 230.818 178.864 230.421C178.686 230.146 178.565 229.9 178.453 229.67C178.318 229.393 178.194 229.139 177.993 228.885C177.767 228.634 177.475 228.378 177.178 228.117L177.178 228.117L177.178 228.116C176.814 227.797 176.442 227.47 176.172 227.136C175.755 226.67 175.301 226.194 174.867 225.782C174.5 225.643 174.151 225.482 173.805 225.322L173.805 225.322C173.678 225.263 173.551 225.205 173.424 225.148C172.927 224.961 172.49 224.619 172.075 224.294C171.799 224.077 171.533 223.869 171.265 223.719C170.894 223.529 170.541 223.322 170.204 223.124C169.805 222.89 169.428 222.669 169.072 222.507C167.83 221.935 166.678 221.415 165.428 220.907C165.304 220.843 165.1 220.749 164.976 220.698C163.709 220.254 162.33 219.674 161.157 218.919C160.651 218.628 160.269 218.174 159.903 217.742C159.637 217.426 159.38 217.122 159.092 216.9C158.929 216.777 158.704 216.653 158.443 216.508C158.056 216.295 157.588 216.037 157.117 215.667C156.848 215.438 156.554 215.224 156.254 215.005C155.728 214.623 155.183 214.226 154.719 213.705C154.51 213.467 154.345 213.188 154.186 212.92L154.186 212.919L154.185 212.919L154.185 212.919L154.185 212.919C153.996 212.599 153.816 212.295 153.584 212.096C153.358 211.94 153.089 211.803 152.808 211.662C152.386 211.448 151.938 211.221 151.574 210.893C151.548 210.871 151.515 210.843 151.478 210.812L151.46 210.797L151.46 210.797L151.459 210.796L151.457 210.795C151.361 210.713 151.247 210.617 151.177 210.564C151.001 210.424 150.819 210.287 150.635 210.15L150.635 210.15C150.129 209.773 149.615 209.39 149.215 208.892C148.969 208.582 148.824 208.309 148.689 208.056C148.538 207.772 148.401 207.515 148.152 207.262C147.919 207.092 147.654 206.966 147.374 206.834C146.974 206.645 146.544 206.441 146.134 206.072L145.26 205.299C145.157 205.207 145.038 205.104 144.913 204.995L144.913 204.995C144.566 204.694 144.168 204.348 143.911 204.053C143.698 203.803 143.523 203.566 143.356 203.34C143.02 202.885 142.716 202.473 142.192 202.082L142.157 202.055C141.574 201.59 140.855 201.017 140.357 200.435C140.19 200.249 140.034 200.067 139.886 199.895L139.886 199.895C139.542 199.492 139.242 199.143 138.941 198.904C137.964 198.204 136.807 197.282 136.261 196.156C136.248 196.135 136.231 196.105 136.21 196.068C136.181 196.015 136.145 195.95 136.107 195.881L136.107 195.881C136.015 195.712 135.913 195.526 135.873 195.473C135.779 195.398 135.675 195.317 135.565 195.232L135.565 195.232C135.079 194.856 134.478 194.39 134.085 193.882C133.778 193.501 133.572 193.141 133.374 192.795C133.206 192.502 133.044 192.218 132.831 191.94C132.787 191.897 132.35 191.331 131.952 190.815C131.609 190.37 131.294 189.963 131.286 189.961C131.162 189.816 130.906 189.534 130.774 189.397C130.341 188.959 129.894 188.454 129.454 187.955L129.454 187.955C129.113 187.569 128.777 187.188 128.453 186.846C128.048 186.438 127.694 185.897 127.35 185.374L127.35 185.374C127.148 185.064 126.949 184.761 126.746 184.495C126.526 184.232 126.238 184.014 125.938 183.788C125.664 183.581 125.38 183.367 125.129 183.104C124.693 182.671 124.386 182.135 124.096 181.63C123.975 181.419 123.857 181.213 123.734 181.022C123.71 180.989 123.684 180.954 123.657 180.918L123.534 180.756L123.534 180.756C123.262 180.395 122.929 179.954 122.74 179.644C122.371 178.971 121.922 178.596 121.419 178.176C121.131 177.935 120.824 177.68 120.504 177.344C120.193 176.983 119.908 176.561 119.632 176.153L119.632 176.153C119.461 175.901 119.294 175.653 119.126 175.428C118.807 175.042 118.519 174.591 118.24 174.154C118.056 173.866 117.875 173.583 117.693 173.329C117.399 172.977 117.125 172.538 116.86 172.115L116.86 172.115L116.86 172.115L116.86 172.115L116.86 172.115L116.86 172.115L116.86 172.114C116.705 171.867 116.554 171.625 116.404 171.409C116.122 171.059 115.755 170.633 115.404 170.226L115.403 170.225C115.186 169.973 114.975 169.729 114.796 169.515C114.715 169.427 114.634 169.338 114.552 169.249C114.008 168.653 113.436 168.028 112.935 167.39C112.607 167.04 111.728 166.097 111.416 165.666C111.265 165.485 111.093 165.301 110.912 165.105C110.581 164.751 110.216 164.359 109.872 163.874C109.618 163.502 109.428 163.155 109.256 162.841L109.255 162.841L109.255 162.841L109.255 162.84L109.255 162.84L109.255 162.84C109.071 162.505 108.907 162.208 108.711 161.959C108.425 161.568 108.201 161.181 108.001 160.835C107.825 160.531 107.667 160.258 107.5 160.039L106.173 158.217C105.932 157.852 105.658 157.685 105.183 157.396C105.019 157.296 104.83 157.182 104.611 157.039C104.092 156.677 103.789 156.118 103.49 155.566C103.286 155.188 103.083 154.814 102.815 154.509C102.047 153.54 101.078 152.324 100.336 151.394L99.9816 150.951C99.6374 150.569 99.3805 150.093 99.132 149.633C98.9278 149.255 98.7293 148.888 98.4926 148.591C98.2888 148.369 98.0343 148.157 97.7692 147.937C97.3683 147.603 96.9431 147.249 96.6323 146.808L96.4659 146.607L96.1075 146.197L96.0652 146.15C95.83 145.887 95.5805 145.607 95.331 145.297C94.9428 144.803 94.6023 144.299 94.2636 143.798L94.2635 143.798L94.2633 143.797L94.2632 143.797L94.2631 143.797C93.9616 143.351 93.6614 142.907 93.3299 142.473L92.0115 140.651L91.9217 140.534C91.6002 140.117 91.234 139.642 90.9534 139.175C90.5606 138.591 90.3497 137.713 90.1843 137.024L90.1843 137.024C90.1161 136.74 90.0556 136.489 89.9934 136.303C89.8926 136.012 89.738 135.693 89.5686 135.343C89.4079 135.011 89.234 134.652 89.0803 134.264C88.7603 133.496 88.6451 132.595 88.5598 131.806C88.5124 131.43 88.4526 131.058 88.393 130.687C88.2006 129.488 88.0104 128.304 88.2483 127.053C88.4019 125.423 90.0446 124.267 91.4184 123.627C92.1422 123.39 92.8445 123.485 93.5424 123.579C93.8773 123.625 94.2111 123.67 94.5459 123.678C94.7495 123.69 94.9625 123.707 95.1787 123.734C94.9576 123.448 94.7347 123.164 94.5076 122.884C93.8288 122.025 93.1034 121.177 92.3766 120.326L92.3766 120.326C91.5181 119.321 90.6576 118.314 89.8697 117.286C89.6707 117.013 89.5 116.746 89.3345 116.487C89.0067 115.975 88.6991 115.494 88.2313 115.055C88.0674 114.875 87.8911 114.714 87.7144 114.553C87.4174 114.282 87.1196 114.011 86.8788 113.647C84.7284 110.396 83.4953 106.359 83.9348 102.425C84.0633 101.791 84.2423 101.274 84.4262 100.742C84.5538 100.373 84.6838 99.9976 84.8009 99.5711C84.9631 99.0889 85.1508 98.5428 85.5604 98.0265C86.2089 97.2415 87.0025 96.8191 87.8729 96.4095C88.5044 96.0724 89.3065 95.97 89.9295 96.0127C90.2524 96.0302 90.5788 96.0482 90.9031 96.0805L90.872 96.0448C90.8537 96.0239 90.8354 96.0032 90.8169 95.9827C90.6063 95.7515 90.3742 95.512 90.1357 95.266C89.6304 94.7447 89.0968 94.1941 88.6793 93.6317C87.9881 92.8168 87.1945 91.8141 86.7721 90.8115L86.4479 90.0947C85.8164 88.8872 85.1977 87.5987 84.9161 86.2333C84.5365 84.7594 84.7965 83.2499 85.0475 81.7923L85.0475 81.7919C85.0843 81.5787 85.1208 81.3667 85.1551 81.156C85.2703 79.9827 85.9359 78.4851 87.0153 77.7896L87.6639 77.3032C87.7239 77.2537 87.8118 77.186 87.9041 77.1148L87.9042 77.1148L87.9045 77.1145L87.9045 77.1145L87.9045 77.1145C88.0351 77.0138 88.1745 76.9063 88.2569 76.8339C89.6351 75.5965 91.5167 75.0931 93.33 75.2083C94.4777 75.1955 95.8132 75.4301 96.85 76.0104C97.7673 76.4712 98.8852 77.0728 99.7087 77.6488C99.9471 77.8198 100.21 77.9845 100.478 78.1531L100.478 78.1531C100.907 78.422 101.352 78.7008 101.74 79.0312C102.078 79.3112 102.421 79.6676 102.746 80.0061L102.746 80.0062C102.991 80.2608 103.226 80.5053 103.442 80.6995C103.662 80.9009 103.941 81.0921 104.234 81.2924L104.234 81.2924L104.234 81.2924L104.234 81.2924C104.623 81.5587 105.036 81.8409 105.362 82.1843C105.557 82.39 105.745 82.6043 105.931 82.8168L105.931 82.8168C106.255 83.1858 106.574 83.5493 106.915 83.8525C107.089 83.977 107.261 84.107 107.431 84.2416C106.885 82.5367 106.821 80.711 107.448 78.985C107.727 78.2738 108.227 77.7262 108.706 77.2012C108.865 77.0271 109.022 76.8554 109.168 76.681C109.313 76.5157 109.449 76.3457 109.585 76.1758L109.585 76.1757L109.585 76.1757L109.585 76.1756C109.978 75.6832 110.37 75.1919 110.998 74.8208C111.783 74.377 112.718 74.1765 113.592 74.0869C114.855 73.9504 116.229 74.1253 117.428 74.5221C118.275 74.8856 119.024 75.3123 119.792 75.7503C120.061 75.9034 120.332 76.058 120.611 76.2117C121.136 76.5402 122.006 77.0736 122.552 77.3893C123.041 77.7235 123.545 78.0112 124.051 78.3003C124.65 78.6423 125.253 78.9863 125.838 79.4117C126.155 79.6744 126.409 79.9588 126.657 80.2359C127.05 80.6747 127.426 81.0953 128.009 81.3829C128.675 81.7328 129.486 82.1978 130.075 82.7312C130.202 82.8377 130.392 82.9999 130.591 83.1708L130.592 83.1711C130.88 83.4177 131.189 83.6823 131.363 83.8234C131.681 84.0823 132.049 84.2989 132.421 84.5183C132.877 84.787 133.339 85.0597 133.727 85.4192C134.584 86.1914 136.338 87.6634 137.243 88.376C137.721 88.7752 138.062 89.1834 138.385 89.5711L138.385 89.5712L138.385 89.5712C138.653 89.8921 138.909 90.1989 139.222 90.4752C139.424 90.6544 139.643 90.863 139.868 91.0782C140.319 91.5086 140.798 91.9657 141.228 92.2672C142.219 92.872 143.13 93.757 144.001 94.6046L144.002 94.605L144.002 94.6058C144.274 94.8699 144.542 95.1303 144.807 95.3776L144.882 95.4581C145.329 95.9382 145.864 96.514 146.373 96.9178C146.587 97.0964 146.801 97.2773 147.016 97.4587L147.018 97.4603L147.019 97.4615L147.019 97.4618L147.019 97.4618C147.66 98.0034 148.306 98.549 148.963 99.0469L149.432 99.4224C149.927 99.7978 150.439 100.434 150.751 100.86C151.151 101.461 151.64 101.727 152.169 102.015C152.531 102.212 152.911 102.419 153.294 102.75C153.633 103.046 153.937 103.367 154.235 103.681L154.235 103.682L154.235 103.682C154.462 103.921 154.685 104.156 154.915 104.372C155.259 104.671 155.598 105.034 155.926 105.384L155.926 105.384L155.926 105.384L155.926 105.384L155.927 105.384L155.927 105.385C156.131 105.603 156.33 105.816 156.524 106.006C156.799 106.276 157.116 106.483 157.442 106.684C156.297 104.425 155.449 101.974 155.914 99.4048C156.315 96.6486 159.101 91.456 162.493 92.992C164.237 94.0858 165.785 95.3972 167.327 96.7033C168.071 97.3332 168.813 97.9618 169.575 98.5643C170.07 98.944 169.546 99.695 169.021 99.3579C167.89 98.6083 166.772 97.7978 165.658 96.99C164.838 96.3955 164.02 95.8025 163.201 95.2363C163.076 95.1549 162.95 95.0682 162.822 94.981C162.408 94.6981 161.985 94.409 161.597 94.272C160.27 94.2464 159.416 95.4837 158.708 96.6443C158.188 97.583 157.821 98.6624 157.629 99.712C157.26 102.226 158.257 104.656 159.227 107.019C159.504 107.693 159.778 108.361 160.018 109.024C160.107 109.119 160.258 109.266 160.338 109.338C160.636 109.62 160.952 109.912 161.272 110.209L161.273 110.21L161.277 110.214L161.277 110.214C161.953 110.84 162.65 111.486 163.256 112.099C163.841 112.653 164.191 112.931 164.946 113.34C165.684 113.81 166.273 114.39 166.828 115C167.102 115.265 167.382 115.535 167.665 115.806C168.188 116.308 168.717 116.817 169.221 117.312C169.552 117.632 169.877 117.831 170.215 118.039C170.479 118.2 170.752 118.368 171.043 118.601C171.533 118.999 171.993 119.426 172.452 119.851C172.845 120.215 173.236 120.577 173.641 120.918C173.807 121.072 173.965 121.225 174.12 121.374C174.497 121.739 174.858 122.087 175.263 122.398C175.432 122.515 175.644 122.641 175.87 122.775L175.87 122.775C176.346 123.058 176.883 123.377 177.204 123.721C177.472 123.978 177.716 124.258 177.96 124.537C178.433 125.081 178.904 125.622 179.547 125.982C179.998 126.24 180.474 126.64 180.913 127.009C181.084 127.152 181.25 127.292 181.407 127.416C182.017 127.881 182.683 128.389 183.246 128.99L183.292 129.045L183.292 129.045C183.766 129.605 184.161 130.072 184.752 130.522C185.597 131.134 186.437 131.84 187.263 132.536L187.263 132.536C187.613 132.831 187.961 133.123 188.306 133.406C188.567 133.631 188.783 133.852 188.997 134.069L188.997 134.069C189.289 134.367 189.575 134.658 189.957 134.942C190.243 135.163 190.481 135.426 190.719 135.689C190.984 135.981 191.249 136.273 191.579 136.508C191.778 136.667 191.993 136.813 192.213 136.957C192.093 136.733 191.968 136.506 191.834 136.274C191.715 135.996 191.446 135.454 191.267 135.203C190.737 134.408 190.005 133.696 189.312 133.021C189.123 132.837 188.937 132.656 188.758 132.476C188.266 132.054 187.788 131.561 187.312 131.07C187.005 130.753 186.698 130.437 186.39 130.142C186.053 129.797 185.656 129.353 185.447 128.871C185.2 128.269 185.068 128.005 184.611 127.638C184.5 127.557 184.462 127.54 184.225 127.434L184.223 127.433C183.736 127.228 183.263 126.84 182.896 126.465C182.62 126.181 182.388 125.851 182.166 125.536C181.997 125.296 181.834 125.064 181.663 124.869C181.319 124.515 180.982 124.116 180.652 123.726L180.652 123.726L180.652 123.725C180.422 123.453 180.196 123.186 179.973 122.94C179.724 122.674 179.424 122.453 179.114 122.224L179.114 122.224C178.718 121.931 178.304 121.626 177.959 121.199C177.656 120.824 177.461 120.48 177.271 120.144L177.271 120.144L177.271 120.144L177.271 120.144L177.271 120.144L177.271 120.144L177.271 120.144L177.271 120.144L177.271 120.143L177.271 120.143C177.145 119.922 177.022 119.705 176.871 119.484C176.626 119.153 176.329 118.871 176.025 118.582C175.71 118.283 175.389 117.978 175.113 117.607C174.994 117.443 174.868 117.279 174.741 117.114C174.455 116.742 174.161 116.36 173.91 115.934C173.426 115.086 173.168 114.327 172.906 113.553L172.906 113.553C172.843 113.365 172.779 113.177 172.711 112.986C172.581 112.579 172.513 112.132 172.446 111.697L172.446 111.697L172.446 111.697C172.393 111.348 172.341 111.008 172.259 110.703C171.849 109.231 171.5 107.606 171.333 106.066C171.305 105.756 171.251 105.446 171.197 105.134C171.092 104.531 170.984 103.916 171.06 103.258C171.08 102.801 171.315 102.253 171.508 101.803C171.602 101.585 171.685 101.39 171.73 101.24C171.737 101.22 171.74 101.206 171.743 101.193C171.746 101.183 171.748 101.174 171.751 101.163L171.777 101.039L171.82 100.754C172.012 98.5904 173.432 96.6661 174.896 95.1386C174.951 95.0824 175.01 95.0218 175.071 94.9588C175.339 94.6828 175.652 94.3599 175.937 94.1445C176.288 93.87 176.612 93.6743 176.932 93.481C177.164 93.3409 177.394 93.202 177.631 93.0352C179.052 92.0197 180.127 91.8149 181.731 92.7365C182.222 93.0266 182.627 93.368 183.002 93.8117C183.335 94.2479 183.498 94.5906 183.657 94.925C183.766 95.1532 183.873 95.3775 184.031 95.625C184.292 96.0133 184.633 96.3775 184.978 96.7457C185.281 97.0694 185.587 97.3963 185.844 97.7456C186.03 97.9459 186.25 98.154 186.48 98.3708C187.007 98.8698 187.584 99.4146 187.905 100.015C188.357 100.796 188.733 101.385 189.338 102.004C189.501 102.178 189.67 102.369 189.842 102.565L189.843 102.566L189.843 102.566C190.23 103.005 190.635 103.465 191.028 103.796C191.62 104.24 192.164 104.886 192.687 105.506C193.027 105.91 193.358 106.302 193.686 106.62C194.65 107.333 195.76 108.011 196.805 108.638L197.186 108.872L197.187 108.873L197.188 108.874L197.19 108.875C197.999 109.372 198.923 109.939 199.668 110.435C199.953 110.651 200.186 110.878 200.408 111.094C200.754 111.43 201.074 111.741 201.524 111.949C201.755 112.075 201.989 112.191 202.224 112.307C202.58 112.484 202.938 112.662 203.29 112.875C203.564 113.03 203.888 113.169 204.224 113.313L204.224 113.313L204.225 113.313L204.225 113.314C204.757 113.542 205.316 113.782 205.748 114.117C206.117 114.396 206.362 114.654 206.591 114.894C206.775 115.087 206.948 115.268 207.165 115.439C207.442 115.627 207.707 115.716 208.032 115.825C208.218 115.887 208.423 115.956 208.662 116.054C209.512 116.336 210.413 117.189 211.039 117.782L211.039 117.782L211.12 117.859C211.225 117.945 211.344 118.04 211.471 118.142C212.044 118.598 212.782 119.187 213.198 119.77C213.382 120.009 213.581 120.242 213.781 120.477C214.099 120.851 214.419 121.227 214.687 121.63C215.033 122.106 215.192 122.59 215.344 123.056C215.48 123.467 215.61 123.864 215.86 124.225C215.965 124.363 216.111 124.526 216.271 124.705L216.271 124.705C216.597 125.069 216.979 125.496 217.191 125.914C217.415 126.3 217.577 126.788 217.723 127.225C217.803 127.464 217.878 127.688 217.955 127.873C218.064 128.174 218.284 128.504 218.548 128.9L218.548 128.9L218.548 128.9L218.548 128.9L218.548 128.901L218.549 128.902C218.759 129.217 218.996 129.573 219.226 129.989C219.391 130.334 219.574 130.64 219.771 130.969C220.01 131.367 220.27 131.799 220.541 132.378C220.744 132.879 220.818 133.305 220.878 133.651L220.878 133.652L220.879 133.654C220.885 133.693 220.892 133.731 220.899 133.768L220.909 133.825C220.914 133.852 220.919 133.879 220.925 133.906C220.993 134.273 221.07 134.52 221.245 134.819C221.344 135.015 221.522 135.365 221.697 135.711L221.706 135.729L221.713 135.743C221.88 136.07 222.042 136.39 222.132 136.568C222.614 137.652 223.51 139.67 223.971 140.758C224.138 141.143 224.361 141.535 224.582 141.922L224.582 141.922C224.738 142.196 224.892 142.468 225.025 142.733C225.58 143.937 226.254 145.468 226.749 146.701C226.987 147.329 227.307 147.859 227.637 148.406L227.637 148.406L227.638 148.406L227.638 148.406L227.638 148.406L227.638 148.407L227.639 148.408C227.84 148.742 228.045 149.082 228.238 149.453C229.078 150.977 229.381 152.376 229.774 154.198C229.841 154.843 229.77 155.247 229.702 155.639C229.662 155.868 229.623 156.092 229.612 156.357C229.62 156.635 229.699 157.133 229.765 157.556L229.766 157.558C229.799 157.769 229.829 157.961 229.846 158.098L229.944 158.75L229.983 159.028C229.996 159.1 230.008 159.177 230.03 159.258C230.234 159.966 230.52 161.012 230.606 161.844C230.789 162.676 231.024 163.794 230.951 164.702C230.835 165.651 230.979 166.322 231.141 167.078L231.141 167.078C231.229 167.488 231.322 167.922 231.382 168.44C231.416 168.946 231.383 169.379 231.352 169.801C231.319 170.225 231.288 170.638 231.327 171.102C231.337 171.485 231.315 171.83 231.294 172.162C231.264 172.636 231.235 173.084 231.305 173.581C231.333 173.806 231.374 174.043 231.417 174.3C231.446 174.472 231.477 174.653 231.506 174.844C231.618 175.587 231.609 176.23 231.601 176.848C231.594 177.283 231.588 177.706 231.625 178.142C231.661 178.459 231.729 178.75 231.798 179.051L231.798 179.051L231.799 179.051L231.799 179.052L231.799 179.052L231.799 179.052C231.885 179.427 231.976 179.817 232.014 180.293C232.048 181.176 231.985 182.063 231.716 182.909C231.874 184.295 232.142 186.112 232.402 187.657C232.472 188.105 232.625 188.574 232.799 189.107C232.89 189.386 232.987 189.683 233.08 190.004C233.162 190.291 233.222 190.553 233.28 190.805C233.376 191.224 233.464 191.614 233.635 192.035L233.75 192.291L234.271 193.447C234.403 193.733 234.518 193.955 234.668 194.219C234.851 194.557 235.105 194.817 235.395 195.114C235.721 195.448 236.092 195.828 236.46 196.417L237.121 197.526C237.243 197.732 237.355 197.884 237.472 198.041L237.472 198.042C237.592 198.204 237.716 198.372 237.859 198.61C237.983 198.834 238.091 199.04 238.189 199.228C238.492 199.806 238.7 200.204 239.002 200.397C239.108 200.482 239.248 200.58 239.402 200.688L239.402 200.688C239.729 200.916 240.122 201.191 240.398 201.49C240.71 201.85 241.01 202.229 241.31 202.609L241.31 202.609C241.756 203.173 242.203 203.738 242.697 204.25C243.55 205.218 244.431 206.163 245.313 207.107L245.313 207.107L245.314 207.108L245.314 207.108L245.315 207.109L245.315 207.109L245.316 207.11L245.316 207.11L245.316 207.111L245.317 207.111L245.317 207.112L245.318 207.112L245.318 207.113L245.319 207.113L245.319 207.114L245.32 207.114L245.32 207.115L245.321 207.115L245.321 207.116L245.321 207.116L245.322 207.117C245.836 207.667 246.349 208.218 246.857 208.773C247.119 209.08 247.318 209.453 247.507 209.806L247.507 209.806C247.672 210.114 247.829 210.408 248.014 210.633L248.44 211.115L249.289 212.075L249.503 212.314L249.554 212.374C249.827 212.64 250.08 212.783 250.37 212.946C250.616 213.084 250.887 213.237 251.218 213.492C251.728 213.969 252.07 214.386 252.383 214.767L252.384 214.768C252.6 215.031 252.802 215.277 253.036 215.514C253.445 215.932 253.441 216.602 253.023 217.012C252.605 217.421 251.935 217.417 251.525 216.999C251.26 216.727 251.005 216.428 250.749 216.127L250.749 216.127L250.749 216.127L250.749 216.127L250.749 216.127L250.748 216.127L250.748 216.127L250.748 216.127L250.748 216.127L250.748 216.127L250.748 216.126L250.748 216.126L250.748 216.126L250.748 216.126L250.748 216.126L250.747 216.126L250.747 216.126L250.747 216.126L250.747 216.126L250.747 216.126L250.747 216.126C250.477 215.808 250.206 215.49 249.921 215.203C249.767 215.088 249.55 214.961 249.312 214.821L249.311 214.821C248.84 214.544 248.284 214.218 247.967 213.842L247.911 213.782L247.694 213.543L246.832 212.587L246.401 212.109C246.081 211.772 245.864 211.372 245.655 210.99C245.477 210.662 245.305 210.347 245.082 210.095C244.593 209.573 244.096 209.054 243.599 208.533C242.113 206.981 240.619 205.419 239.293 203.738C239.226 203.66 239.16 203.577 239.094 203.492C238.938 203.295 238.778 203.092 238.601 202.949C238.448 202.815 238.252 202.681 238.043 202.539C237.659 202.278 237.23 201.986 236.937 201.605C236.633 201.255 236.356 200.732 236.123 200.293C236.027 200.111 235.938 199.943 235.858 199.809C235.792 199.699 235.754 199.649 235.665 199.533L235.665 199.533L235.665 199.533L235.665 199.533C235.633 199.491 235.595 199.442 235.546 199.378C235.346 199.13 234.99 198.541 234.72 198.092L234.717 198.087L234.607 197.904C234.555 197.82 234.509 197.745 234.471 197.684C234.249 197.336 233.955 197.032 233.653 196.721C233.277 196.333 232.888 195.932 232.607 195.414C232.23 194.762 231.917 194.061 231.615 193.385C231.551 193.242 231.488 193.1 231.425 192.961C231.212 192.466 231.067 191.864 230.934 191.314L230.934 191.314C230.878 191.081 230.824 190.858 230.768 190.657C230.703 190.427 230.621 190.182 230.533 189.92L230.533 189.92C230.349 189.37 230.141 188.751 230.025 188.062C229.987 187.827 229.944 187.588 229.901 187.343L229.901 187.343C229.792 186.736 229.678 186.099 229.62 185.421C229.598 185.143 229.541 184.807 229.478 184.441L229.478 184.441L229.478 184.44C229.383 183.88 229.275 183.247 229.262 182.635C229.522 181.901 229.646 181.121 229.577 180.34C229.549 180.136 229.489 179.874 229.426 179.593L229.426 179.593L229.425 179.592L229.425 179.592L229.425 179.591L229.425 179.591L229.425 179.59L229.425 179.59C229.337 179.202 229.241 178.778 229.206 178.42C229.153 177.922 229.157 177.383 229.161 176.862V176.862V176.862V176.862V176.861V176.861V176.861V176.861V176.861V176.86V176.86V176.86V176.86V176.86V176.859V176.859V176.859V176.859V176.859V176.859V176.858V176.858C229.166 176.256 229.171 175.677 229.087 175.211C228.784 173.94 228.792 172.451 228.869 171.171C228.827 170.73 228.858 170.222 228.889 169.732C228.914 169.334 228.938 168.949 228.92 168.623C228.884 168.286 228.799 167.937 228.712 167.575C228.593 167.085 228.468 166.571 228.451 166.034C228.433 165.638 228.447 165.295 228.461 164.965C228.473 164.668 228.484 164.382 228.472 164.075C228.421 163.534 228.307 162.971 228.192 162.401C228.106 161.973 228.018 161.54 227.956 161.11C227.92 160.963 227.867 160.784 227.809 160.589L227.808 160.588L227.808 160.588C227.699 160.222 227.572 159.799 227.517 159.429C227.472 159.153 227.413 158.755 227.354 158.35C227.289 157.907 227.222 157.456 227.171 157.146C227.06 156.741 227.111 155.917 227.188 155.482C227.385 154.563 227.206 153.997 226.98 153.286L226.98 153.286C226.878 152.964 226.766 152.612 226.676 152.184C226.498 151.522 226.129 150.863 225.783 150.244L225.725 150.14C225.014 149.117 224.514 147.936 224.02 146.77L224.02 146.769C223.814 146.283 223.609 145.8 223.391 145.332C223.343 145.239 223.229 144.978 223.108 144.7L223.106 144.697L223.106 144.696L223.106 144.696L223.104 144.693C222.953 144.347 222.792 143.98 222.738 143.885C222.607 143.638 222.461 143.381 222.315 143.125L222.315 143.125L222.315 143.124L222.314 143.124L222.314 143.124L222.314 143.124L222.314 143.124L222.314 143.123L222.314 143.123L222.314 143.123L222.314 143.123L222.314 143.123L222.314 143.123C222.193 142.911 222.073 142.7 221.961 142.494C221.798 142.206 221.552 141.636 221.35 141.169L221.349 141.167L221.348 141.165C221.261 140.963 221.181 140.78 221.121 140.647C221.01 140.405 220.861 140.064 220.694 139.685L220.693 139.684L220.688 139.672L220.688 139.671C220.289 138.764 219.794 137.639 219.504 137.097C219.452 136.987 219.287 136.667 219.124 136.354C218.966 136.047 218.81 135.746 218.766 135.651C218.565 135.275 218.454 134.718 218.356 134.224C218.291 133.899 218.232 133.601 218.156 133.398C217.605 132.361 216.675 130.778 215.911 129.613C215.64 129.187 215.463 128.671 215.294 128.18C215.171 127.82 215.052 127.474 214.904 127.186C214.743 126.918 214.505 126.652 214.256 126.373C213.896 125.972 213.513 125.544 213.304 125.048C213.169 124.775 213.044 124.409 212.929 124.069L212.929 124.069C212.822 123.754 212.723 123.462 212.63 123.29C212.431 122.946 212.143 122.613 211.867 122.293L211.866 122.293L211.866 122.293C211.77 122.181 211.674 122.071 211.585 121.963C211.495 121.857 211.406 121.749 211.318 121.641L211.317 121.641C211.038 121.3 210.757 120.956 210.407 120.675C210.052 120.435 209.613 120.043 209.176 119.653L209.176 119.653C208.773 119.294 208.373 118.936 208.039 118.699C207.772 118.552 207.452 118.439 207.117 118.321C206.606 118.141 206.06 117.948 205.612 117.603C205.31 117.394 205.038 117.114 204.781 116.849L204.781 116.849L204.781 116.849C204.518 116.578 204.27 116.322 204.02 116.173L203.997 116.163C202.98 115.688 201.926 115.196 200.884 114.599C200.496 114.403 200.009 114.142 199.596 113.865C199.197 113.581 198.934 113.311 198.684 113.055C198.458 112.823 198.243 112.602 197.949 112.393C197.666 112.195 197.425 112.033 197.193 111.877L197.192 111.877C196.99 111.741 196.794 111.61 196.583 111.463C196.225 111.22 195.868 110.984 195.514 110.749C194.677 110.195 193.85 109.647 193.039 109.04C193.098 109.166 193.092 109.321 192.978 109.444C192.193 110.327 191.237 110.993 190.247 111.641C189.202 112.286 188.157 112.896 186.898 113.113C184.338 113.497 181.829 111.71 180.408 109.794C178.01 106.829 175.805 103.483 175.13 99.6648C175.104 99.4915 175.063 99.3002 175.02 99.1017C174.977 98.9016 174.932 98.6941 174.899 98.4902C174.693 98.8213 174.499 99.1652 174.307 99.5248C174.149 99.788 174.097 100.028 174.035 100.318C174.026 100.357 174.017 100.397 174.008 100.438C173.977 100.588 173.953 100.772 173.928 100.961C173.899 101.183 173.869 101.413 173.825 101.603C173.745 102.007 173.601 102.324 173.468 102.618L173.468 102.618C173.332 102.919 173.207 103.196 173.172 103.518C173.146 103.922 173.213 104.296 173.29 104.724C173.315 104.862 173.34 105.005 173.364 105.157C173.548 106.791 173.872 108.574 174.337 110.179C174.442 110.577 174.496 110.948 174.548 111.312L174.548 111.312L174.548 111.312L174.548 111.312L174.548 111.312L174.548 111.312L174.548 111.312L174.548 111.312L174.548 111.313L174.548 111.313L174.548 111.313L174.548 111.313L174.548 111.313L174.548 111.313C174.599 111.669 174.649 112.017 174.746 112.376L174.827 112.619C175.246 113.878 175.571 114.854 176.398 115.841C176.705 116.327 177.113 116.734 177.527 117.146C177.894 117.512 178.265 117.882 178.574 118.315C178.743 118.572 178.881 118.813 179.011 119.042C179.358 119.649 179.652 120.165 180.34 120.623C181.072 121.105 181.728 121.919 182.318 122.653C182.45 122.817 182.578 122.977 182.704 123.128C183.069 123.477 183.349 123.886 183.624 124.289L183.624 124.289C183.933 124.741 184.236 125.185 184.649 125.526C184.803 125.655 184.972 125.738 185.149 125.824C185.346 125.92 185.552 126.021 185.759 126.196C186.224 126.593 186.548 126.959 186.834 127.501C186.927 127.691 186.981 127.836 187.028 127.964C187.099 128.159 187.157 128.314 187.316 128.525C187.934 129.273 188.642 130.012 189.343 130.742L189.343 130.742L189.343 130.743L189.343 130.743L189.343 130.743L189.343 130.743L189.343 130.743L189.343 130.743L189.343 130.743L189.343 130.743L189.343 130.743L189.343 130.743L189.343 130.743L189.343 130.743L189.343 130.743L189.343 130.743L189.343 130.743L189.343 130.743L189.344 130.743L189.344 130.743L189.344 130.744L189.344 130.744C189.843 131.264 190.338 131.78 190.793 132.293C191.608 133.108 192.376 134.029 192.85 135.096C193.106 135.706 193.332 136.227 193.661 136.845C193.795 137.128 193.918 137.408 194.038 137.681C194.229 138.116 194.412 138.534 194.625 138.92C194.786 139.071 194.951 139.218 195.128 139.354L195.142 139.363C196.375 140.231 197.62 141.107 198.793 142.059C199.107 142.298 199.372 142.591 199.638 142.884L199.638 142.884C199.885 143.157 200.133 143.431 200.419 143.659C200.62 143.83 200.645 144.128 200.479 144.329C200.338 144.504 200.061 144.534 199.86 144.397ZM90.3842 131.458C90.657 131.857 91.0065 132.331 91.2648 132.677C91.9474 133.658 92.6258 134.55 93.5218 135.347C95.1261 136.858 96.8072 138.223 98.9576 136.875C99.2259 136.728 99.575 136.483 99.8989 136.255L99.899 136.255L99.899 136.255C100.075 136.132 100.243 136.014 100.387 135.919C102.802 134.362 101.284 131.778 100.025 129.637C99.7253 129.127 99.44 128.641 99.2264 128.201L99.188 128.136C99.0874 128.036 98.9852 127.936 98.8824 127.835L98.8823 127.835L98.882 127.835L98.8817 127.835C98.5233 127.484 98.1582 127.126 97.8313 126.75C97.6518 126.563 97.4668 126.386 97.2804 126.208C97.1155 126.05 96.9494 125.891 96.7852 125.723C96.1446 125.283 95.4329 125.055 94.4691 125.116L93.8846 125.107C93.6635 125.109 93.4374 125.085 93.2129 125.061C92.6317 125.001 92.061 124.941 91.6147 125.316C91.0771 125.636 90.5054 126.123 90.1768 126.579C89.8526 127.373 89.8824 128.405 90.0147 129.301C90.1496 129.853 90.2332 130.428 90.317 131.003L90.3172 131.004L90.3172 131.005C90.3392 131.156 90.3612 131.307 90.3842 131.458ZM97.234 102.95C97.6432 103.428 98.1716 103.907 98.6821 104.352C99.0259 105.469 99.3105 106.606 99.4397 107.747C99.5976 108.805 99.205 109.59 98.5565 110.329C97.6093 111.391 96.0093 111.664 94.6525 111.506C93.6968 111.323 92.7922 110.802 91.9816 110.205C90.7144 109.292 89.4557 108.054 88.3762 106.902C87.5528 105.998 86.4989 104.714 85.8077 103.715L85.5603 103.317L85.5604 103.3C85.5684 102.694 85.7216 102.189 85.9088 101.571L85.9487 101.44C86.0382 101.17 86.1111 100.883 86.1841 100.595L86.1842 100.595L86.1842 100.595L86.1842 100.595L86.1842 100.595L86.1842 100.595L86.1842 100.595L86.1842 100.595L86.1842 100.595L86.1842 100.595L86.1843 100.595L86.1843 100.595L86.1843 100.595L86.1843 100.595L86.1843 100.595C86.334 100.005 86.4839 99.4153 86.7764 98.9737C87.2543 98.3551 88.0735 97.8687 88.7817 97.4932C89.0889 97.3439 89.4857 97.2799 89.9295 97.2671C90.0206 97.2645 90.1117 97.2614 90.2027 97.2583C90.7688 97.2392 91.3334 97.2202 91.8869 97.317C92.1896 97.6946 92.5249 98.0839 92.9289 98.4616C93.1521 98.6673 93.3696 98.8505 93.5735 99.0222L93.5736 99.0222C93.7673 99.1854 93.9487 99.3381 94.1108 99.4899C94.4772 99.8362 94.8214 100.255 95.1704 100.68L95.1704 100.68C95.4878 101.066 95.809 101.457 96.1545 101.802L97.234 102.95ZM88.8024 90.0683C88.9229 90.1705 89.0445 90.2707 89.1673 90.372C89.3266 90.5034 89.488 90.6365 89.652 90.7778C89.8593 90.9563 90.0559 91.1338 90.247 91.3064C90.5949 91.6205 90.9249 91.9184 91.2691 92.1772L93.0142 93.3634C94.1448 94.0759 95.3608 94.7202 96.692 94.8994C98.6888 95.2748 100.558 94.4471 102.004 93.0988C103.054 92.2626 103.788 91.2386 104.329 90.0524C104.829 88.862 104.577 87.4498 104.086 86.2679C103.426 84.74 102.444 83.3135 101.478 81.9114L101.478 81.9114L101.357 81.7354C101.305 81.6831 101.254 81.6315 101.204 81.5805L101.204 81.5805C101.076 81.4506 100.954 81.3256 100.831 81.2072C100.006 80.432 99.0249 79.8332 98.0382 79.2308C97.7595 79.0606 97.4804 78.8902 97.2041 78.7155L95.8516 77.9987C95.6383 77.8877 95.4377 77.7939 95.2415 77.7213C94.6185 77.4909 94.0127 77.4397 93.3001 77.4269C91.6959 77.3757 90.7444 77.6061 89.618 78.5661C89.5668 78.6063 89.4985 78.6608 89.424 78.7202L89.424 78.7203C89.269 78.844 89.0875 78.9889 88.978 79.0696L88.3636 79.5261C87.4894 80.0804 87.3535 81.0816 87.2193 82.0703V82.0703C87.1728 82.4134 87.1264 82.7551 87.0495 83.076C86.5289 85.2477 87.3908 87.2787 88.4105 89.1987C88.5323 89.4834 88.6615 89.7797 88.8024 90.0683ZM116.319 76.3269C116.546 76.3744 116.776 76.4614 117.004 76.5691C117.157 76.6918 117.312 76.812 117.471 76.9272C117.802 77.1767 118.142 77.43 118.484 77.6852L118.484 77.6853L118.484 77.6855L118.485 77.6858C119.231 78.2423 119.99 78.8079 120.701 79.3635C122.006 80.443 123.218 81.7315 124.225 83.084C125.121 84.1294 125.099 85.5203 124.477 86.6936C123.563 88.4216 121.085 91.0456 118.968 90.6702C116.654 90.5048 114.692 88.8601 112.925 87.3781L112.925 87.3779C112.731 87.2154 112.54 87.0548 112.351 86.8984L112.121 86.6879L112.121 86.6879L112.121 86.6878L112.121 86.6876C111.339 85.9716 110.324 85.0426 109.555 84.222C109.312 83.606 109.145 82.9521 109.044 82.3216C108.984 81.3957 109.023 80.4058 109.407 79.5653C109.554 79.2829 109.848 78.9613 110.187 78.5906C110.361 78.4011 110.546 78.1988 110.729 77.9824C110.884 77.8037 111.023 77.6295 111.154 77.4667L111.154 77.4667L111.154 77.4667L111.154 77.4667L111.154 77.4666L111.154 77.4666L111.154 77.4666L111.154 77.4665L111.154 77.4665L111.154 77.4665L111.154 77.4665L111.154 77.4664L111.154 77.4664L111.154 77.4664L111.154 77.4663L111.154 77.4663L111.154 77.4663L111.154 77.4662L111.154 77.4662L111.154 77.4662C111.501 77.0344 111.783 76.6827 112.099 76.5402C113.417 75.9557 114.932 75.9984 116.319 76.3269ZM192.734 108.809C192.546 108.664 192.358 108.515 192.172 108.361C191.733 107.958 191.411 107.521 191.099 107.096L191.098 107.096C190.889 106.811 190.683 106.531 190.448 106.27C190.232 106.04 189.977 105.8 189.715 105.554L189.715 105.553C189.312 105.175 188.894 104.782 188.579 104.385L187.721 103.378L187.29 102.874C186.943 102.506 186.594 101.915 186.317 101.446C186.25 101.333 186.187 101.227 186.13 101.133C185.826 100.613 185.486 100.301 185.094 99.9411C184.913 99.7753 184.722 99.5994 184.517 99.3882C183.933 98.697 183.391 98.0826 182.751 97.3744C182.308 96.876 182.01 96.2586 181.78 95.7831L181.78 95.783L181.78 95.783L181.78 95.7829C181.638 95.4892 181.523 95.2497 181.415 95.1258C181.048 94.6821 180.489 94.3365 179.913 94.2085L179.891 94.2029C179.886 94.2016 179.884 94.2013 179.884 94.2015L179.885 94.2021C179.886 94.2029 179.889 94.2042 179.884 94.2042C179.879 94.2 179.82 94.2042 179.709 94.2426C179.373 94.3708 178.991 94.6323 178.659 94.8592C178.615 94.8891 178.573 94.9184 178.531 94.9466C178.393 95.0349 178.252 95.1204 178.113 95.2054C177.725 95.4407 177.346 95.6711 177.055 95.9408C176.995 95.9962 176.952 96.0389 176.863 96.1285L176.406 96.5936C176.366 96.6327 176.326 96.6719 176.287 96.7112C176.33 96.8095 176.35 96.9189 176.342 97.0323L176.333 97.1515V97.1516V97.1517V97.1518L176.333 97.152C176.314 97.3999 176.295 97.6489 176.295 97.8472C176.298 98.1138 176.405 98.528 176.499 98.8907L176.499 98.8908L176.499 98.8909L176.499 98.891L176.499 98.8912L176.499 98.8913C176.544 99.0624 176.585 99.222 176.611 99.3491C177.264 102.31 178.877 104.981 180.711 107.358C181.343 108.211 182.089 109.15 182.832 109.888C183.852 110.933 185.153 112.124 186.663 111.765C187.88 111.464 189.005 110.818 190.121 110.176C190.668 109.862 191.213 109.549 191.766 109.278C191.871 109.221 191.976 109.159 192.083 109.097L192.083 109.097C192.224 109.014 192.367 108.931 192.513 108.855C192.588 108.813 192.664 108.8 192.734 108.809ZM84.852 89.0079C84.6206 88.9924 84.389 88.9744 84.1574 88.9563C82.6643 88.8398 81.1753 88.7235 79.779 89.3109C78.9299 89.7119 78.2686 90.5396 77.7353 91.2778C76.6814 92.9375 76.4937 95.1092 77.3641 96.8543C77.6457 97.4431 78.0467 97.9807 78.5118 98.433C78.7891 98.689 78.7977 99.1242 78.5331 99.3973C78.4898 99.4408 78.4452 99.4766 78.3996 99.5051C79.1752 100.161 79.9362 100.83 80.6927 101.495C81.1371 101.886 81.58 102.276 82.0233 102.66C82.3134 102.878 82.0148 103.326 81.7033 103.134C80.634 102.462 79.6047 101.739 78.5844 101.022L78.5844 101.022L78.5844 101.022L78.5843 101.022C77.5772 100.315 76.5788 99.6138 75.5593 98.9737C73.7331 97.7278 71.4334 96.5076 69.2318 96.6441C67.2478 96.8745 65.123 98.3636 64.2356 100.232C63.7364 101.18 63.6894 102.276 63.7449 103.33C63.8131 104.414 63.9241 105.613 64.3166 106.611C64.5648 107.268 65.0382 107.918 65.5514 108.623C65.7618 108.911 65.9788 109.21 66.1897 109.521C66.5396 110.024 66.8638 110.468 67.2521 110.89C68.8179 112.648 70.738 114.346 72.5129 115.891C73.851 116.919 75.1557 118.099 76.443 119.263L76.443 119.263L76.4433 119.263C76.9947 119.762 77.543 120.258 78.0894 120.738C79.5102 121.766 81.0804 123.144 82.3774 124.365C83.0195 125.028 83.6817 125.556 84.3736 126.107C84.6381 126.318 84.9069 126.532 85.1806 126.758C85.3001 126.861 85.3129 127.044 85.2105 127.164C85.1124 127.279 84.9417 127.292 84.8222 127.206C83.4178 126.405 82.1055 125.403 80.8102 124.414L80.8101 124.414L80.81 124.414L80.8099 124.414L80.8098 124.414L80.8097 124.413L80.8095 124.413C80.6293 124.276 80.4494 124.138 80.2697 124.002L78.7849 122.901C77.2796 121.976 75.9153 120.872 74.5456 119.763L74.5455 119.763C73.5082 118.923 72.4678 118.08 71.3609 117.312L71.2046 117.185C71.1364 117.248 71.0413 117.284 70.9255 117.269C69.7223 117.056 68.5533 117.333 67.4482 117.7C66.5352 118.233 65.6306 118.997 65.2253 119.978C65.0628 120.423 64.9884 120.998 64.9103 121.601C64.8798 121.837 64.8486 122.078 64.8114 122.316C64.6834 123.144 64.645 123.754 64.8072 124.586C65.3106 127.778 66.7143 130.764 68.8775 133.162C68.9954 133.261 69.2544 133.45 69.4879 133.619L69.488 133.619L69.4883 133.62C69.6267 133.72 69.7561 133.814 69.8418 133.879C70.4599 134.303 70.9705 134.821 71.4818 135.339C71.8704 135.734 72.2595 136.128 72.6962 136.482C73.7588 137.428 74.8707 138.315 75.9827 139.202L75.9828 139.203L75.983 139.203L75.9831 139.203L75.9832 139.203C76.8624 139.905 77.7418 140.606 78.597 141.337C79.5658 142.195 80.6101 142.944 81.6602 143.697C82.3397 144.184 83.0217 144.673 83.6872 145.194C83.9967 145.451 84.268 145.725 84.5347 145.994L84.5348 145.994C84.8527 146.315 85.1642 146.63 85.5261 146.901C86.6316 147.626 87.6798 148.493 88.7205 149.355L88.7206 149.355C89.3346 149.864 89.946 150.37 90.565 150.843C91.0616 151.208 91.5512 151.674 92.0117 152.113C92.1764 152.27 92.3373 152.423 92.4936 152.567L94.4221 154.18C94.7871 154.498 95.1584 154.732 95.5374 154.971C95.854 155.17 96.176 155.372 96.5042 155.631C97.0852 156.131 97.6363 156.627 98.1777 157.115L98.1778 157.115L98.1788 157.116C98.8975 157.763 99.5992 158.396 100.331 159.001C101.539 159.812 103.663 161.663 105.188 162.993L105.189 162.993C105.582 163.336 105.936 163.644 106.224 163.891C106.949 164.448 107.772 165.174 108.524 165.838L108.524 165.838L108.525 165.839C108.745 166.033 108.96 166.222 109.163 166.4C109.406 166.625 109.616 166.854 109.824 167.079C110.04 167.314 110.253 167.545 110.495 167.765C111.023 168.245 111.582 168.726 112.143 169.208L112.144 169.209L112.144 169.209L112.144 169.209L112.144 169.209L112.144 169.209L112.144 169.209L112.144 169.209L112.144 169.209L112.145 169.209L112.145 169.209L112.145 169.209L112.145 169.21L112.145 169.21C112.73 169.713 113.317 170.217 113.87 170.722C114.04 170.892 114.04 171.17 113.87 171.34C113.703 171.507 113.434 171.511 113.264 171.353C112.838 170.985 112.32 170.571 111.797 170.151L111.796 170.151C111.282 169.738 110.762 169.321 110.315 168.938C109.873 168.605 109.46 168.189 109.061 167.788L109.061 167.788L109.061 167.787C108.853 167.577 108.649 167.372 108.447 167.185C108.214 166.992 107.975 166.79 107.732 166.586L107.73 166.584C107.003 165.971 106.24 165.328 105.511 164.791L101.569 161.544C101.176 161.203 100.772 160.927 100.361 160.646L100.361 160.646L100.361 160.646L100.361 160.646L100.36 160.646L100.36 160.646L100.36 160.646L100.36 160.646L100.36 160.646L100.36 160.646L100.36 160.646L100.36 160.646L100.36 160.646C100.082 160.457 99.8023 160.265 99.5208 160.051C99.1151 159.741 98.7469 159.417 98.3906 159.104C98.1098 158.857 97.8364 158.617 97.5581 158.395C97.2083 158.119 96.8855 157.825 96.575 157.541L96.5746 157.541L96.5745 157.54C96.2564 157.25 95.951 156.971 95.6424 156.736C95.3802 156.54 95.074 156.35 94.7616 156.157C94.3266 155.887 93.8794 155.611 93.5218 155.298C92.3784 154.406 91.1794 153.374 90.117 152.401C89.7981 152.149 89.4728 151.901 89.147 151.653L89.1462 151.653L89.1456 151.652L89.1454 151.652C88.6263 151.257 88.106 150.861 87.6082 150.447C86.6482 149.615 85.6199 148.876 84.5661 148.172C84.1189 147.832 83.7309 147.463 83.3473 147.099L83.3472 147.099C82.8267 146.604 82.3143 146.117 81.6733 145.719C81.4826 145.576 81.2875 145.433 81.0896 145.29C81.0734 145.376 81.035 145.458 80.9737 145.528C80.803 145.762 80.4915 145.784 80.2825 145.609C79.6894 145.114 79.0963 144.666 78.4563 144.44C77.8419 144.209 77.1507 144.265 76.3657 144.354C76.0479 144.398 75.7236 144.414 75.4149 144.43C74.9319 144.455 74.4868 144.478 74.1641 144.598C74.0318 144.645 73.9294 144.704 73.8441 144.781L73.4131 145.161C73.1358 145.413 72.8755 145.673 72.6622 145.942C71.9935 146.634 72.1741 147.718 72.3223 148.607L72.3224 148.608C72.332 148.666 72.3416 148.723 72.3507 148.779C72.4901 149.31 72.6817 149.888 72.8745 150.47C73.0594 151.028 73.2455 151.589 73.3875 152.116C73.6129 152.99 74.0827 153.677 74.5772 154.4L74.5772 154.4C74.7194 154.608 74.8636 154.819 75.0046 155.038C75.268 155.432 75.4434 155.864 75.6165 156.291C75.8051 156.755 75.9909 157.213 76.2846 157.607C76.387 157.743 76.5022 157.876 76.6217 158.008L79.9326 161.357C80.098 161.532 80.2572 161.706 80.413 161.876L80.4136 161.876L80.4138 161.877L80.4139 161.877C80.7924 162.289 81.1507 162.68 81.5283 163.021C81.7368 163.206 81.971 163.405 82.2107 163.61L82.2116 163.61C82.5801 163.924 82.9615 164.249 83.2819 164.549C83.4555 164.699 83.6835 164.837 83.9402 164.993C84.3459 165.239 84.8233 165.528 85.2702 165.978C85.5967 166.319 85.8514 166.659 86.08 166.965C86.3174 167.282 86.5267 167.561 86.7593 167.766L90.2025 170.996C90.5636 171.303 90.9382 171.782 91.2746 172.212C91.4748 172.468 91.6615 172.706 91.8238 172.881C92.0062 172.967 92.1969 173.043 92.3906 173.121L92.3909 173.121L92.3912 173.122L92.3913 173.122C92.9042 173.328 93.438 173.542 93.8931 173.948C94.307 174.324 95.1006 175.045 95.5315 175.437C95.9082 175.762 96.2169 176.099 96.496 176.403L96.4961 176.403L96.4963 176.403C96.7451 176.675 96.9706 176.921 97.1998 177.11C97.5848 177.443 97.8888 177.787 98.1586 178.093C98.403 178.369 98.6194 178.614 98.8425 178.791C99.085 178.992 99.4515 179.248 99.7914 179.485C99.9479 179.594 100.099 179.699 100.229 179.793C100.366 179.896 100.609 180.084 100.737 180.19C100.99 180.397 101.29 180.605 101.596 180.816L101.596 180.817L101.596 180.817C101.959 181.069 102.329 181.325 102.636 181.59C102.888 181.797 103.226 182.043 103.55 182.278L103.55 182.278C103.719 182.401 103.884 182.521 104.031 182.631C104.342 182.877 104.734 183.199 105.114 183.511L105.115 183.512C105.401 183.746 105.68 183.976 105.912 184.162C106.083 184.295 106.33 184.517 106.446 184.657C107.196 185.533 108.046 186.454 108.825 187.3L108.826 187.301L108.827 187.302C109.084 187.581 109.333 187.851 109.569 188.109C109.871 188.414 110.137 188.712 110.388 188.995L110.389 188.995L110.389 188.995L110.389 188.995C110.658 189.298 110.911 189.581 111.173 189.833C111.42 190.057 111.719 190.244 112.03 190.439L112.03 190.439C112.377 190.656 112.74 190.882 113.063 191.181C113.471 191.566 113.791 191.94 114.084 192.282L114.084 192.283C114.298 192.532 114.497 192.765 114.706 192.973C115.053 193.282 115.406 193.755 115.731 194.19L115.731 194.19L115.732 194.191C115.909 194.429 116.078 194.655 116.233 194.838C116.546 195.189 116.874 195.393 117.232 195.615C117.462 195.758 117.703 195.908 117.961 196.109C118.46 196.479 118.885 197.006 119.282 197.498C119.425 197.676 119.564 197.848 119.702 198.008C120.133 198.479 120.647 198.94 121.154 199.395L121.154 199.395C121.51 199.715 121.863 200.031 122.181 200.346C123.306 201.268 124.304 202.317 125.314 203.38L125.55 203.628L125.65 203.734C125.842 203.96 126.015 204.185 126.183 204.403C126.669 205.037 127.115 205.617 127.886 206.029L127.957 206.072C128.19 206.212 128.539 206.422 128.735 206.58C129.033 206.814 129.283 207.158 129.501 207.458C129.616 207.617 129.722 207.764 129.823 207.877C130.254 208.452 130.82 208.794 131.41 209.15C131.761 209.362 132.12 209.578 132.464 209.852C132.816 210.132 133.126 210.422 133.431 210.708L133.431 210.708L133.431 210.708L133.432 210.708L133.432 210.709L133.432 210.709L133.432 210.709L133.432 210.709C133.698 210.959 133.96 211.204 134.243 211.435C134.571 211.702 134.934 211.941 135.303 212.183L135.304 212.183C135.582 212.366 135.864 212.552 136.137 212.753C136.575 213.048 136.975 213.48 137.348 213.884L137.349 213.884L137.349 213.884L137.349 213.884L137.349 213.885C137.543 214.094 137.73 214.297 137.912 214.469C138.19 214.71 138.66 215.044 139.093 215.351L139.094 215.352L139.094 215.352C139.333 215.522 139.561 215.683 139.738 215.817C140.123 216.155 140.585 216.34 141.059 216.53L141.06 216.53C141.49 216.703 141.931 216.879 142.333 217.178C142.759 217.484 143.104 217.964 143.395 218.37L143.395 218.37L143.395 218.37C143.485 218.496 143.57 218.614 143.651 218.718C144.012 219.155 144.545 219.476 145.081 219.798C145.42 220.002 145.76 220.207 146.057 220.442C146.359 220.641 146.695 220.779 147.039 220.921C147.521 221.12 148.022 221.327 148.472 221.718C148.809 222 149.05 222.32 149.277 222.623C149.499 222.918 149.709 223.196 149.983 223.407C151.284 224.299 152.393 224.994 153.993 225.775C154.555 226.119 154.919 226.496 155.251 226.839C155.561 227.161 155.843 227.453 156.233 227.661C156.691 227.917 156.92 228.025 157.178 228.146L157.179 228.146L157.179 228.146L157.18 228.147L157.18 228.147L157.18 228.147C157.343 228.223 157.518 228.305 157.769 228.433C158.542 228.86 159.007 229.073 159.809 229.325C160.466 229.575 161.137 229.714 161.8 229.851L161.8 229.851L161.8 229.851L162.019 229.897C162.642 230.067 163.136 230.158 163.67 230.257C163.874 230.295 164.085 230.334 164.31 230.379C164.871 230.495 165.365 230.618 165.849 230.739L165.849 230.739L165.849 230.739L165.85 230.739L165.85 230.739C166.312 230.855 166.765 230.968 167.258 231.07C167.488 231.137 167.727 231.226 167.963 231.313L167.963 231.313L167.964 231.313C168.286 231.433 168.6 231.549 168.871 231.604C169.247 231.665 169.649 231.658 170.065 231.651H170.066C170.425 231.645 170.795 231.638 171.167 231.676L173.496 232.022C174.358 232.111 175.241 232.137 176.082 232.09C176.108 232.117 176.133 232.143 176.159 232.17L176.204 232.215L176.243 232.254C176.472 232.486 176.704 232.721 176.884 233.046C176.914 233.103 176.941 233.158 176.967 233.211L176.993 233.263L177.013 233.306L177.018 233.316L177.019 233.317C177.165 233.619 177.28 233.856 177.567 234.129C177.88 234.438 178.23 234.712 178.584 234.989L178.584 234.989C178.988 235.304 179.396 235.623 179.76 236.002C180.681 236.775 181.641 237.688 182.439 238.584C182.903 239.023 183.542 239.68 184.208 240.365C185.058 241.237 185.95 242.154 186.574 242.718L188.771 244.66L189.855 245.615C190.084 245.817 190.334 246.009 190.588 246.204C190.93 246.466 191.28 246.734 191.596 247.04C191.862 247.287 192.085 247.633 192.298 247.962C192.504 248.281 192.7 248.583 192.914 248.764C193.132 248.943 193.161 249.259 192.982 249.477C192.803 249.694 192.487 249.724 192.27 249.545C191.906 249.243 191.694 248.928 191.502 248.641C191.419 248.517 191.34 248.4 191.254 248.29C190.898 247.779 190.402 247.427 189.895 247.066C189.635 246.882 189.373 246.696 189.125 246.486C188.829 246.238 188.528 245.988 188.225 245.736C187.382 245.036 186.525 244.324 185.725 243.627C185.255 243.251 184.814 242.798 184.382 242.354L184.381 242.354C184.122 242.088 183.866 241.825 183.608 241.583L183.503 241.481C182.645 240.654 181.163 239.226 180.455 238.473C180.122 238.142 179.716 237.801 179.31 237.46L179.31 237.459C178.951 237.157 178.592 236.856 178.284 236.561C178.127 236.437 177.962 236.313 177.795 236.186C176.934 235.534 175.996 234.823 175.6 233.784C175.568 233.73 175.528 233.674 175.48 233.616C174.147 233.68 172.395 233.435 171.112 233.255L170.988 233.238C170.741 233.21 170.457 233.222 170.142 233.236C169.679 233.256 169.148 233.279 168.564 233.182C168.143 233.103 167.806 232.98 167.474 232.859L167.474 232.859C167.255 232.779 167.038 232.701 166.802 232.636C166.32 232.543 165.82 232.426 165.333 232.313L165.333 232.313C164.863 232.203 164.405 232.097 163.99 232.017C163.286 231.911 162.292 231.71 161.648 231.557C160.893 231.412 159.988 231.237 159.28 230.972C158.567 230.784 157.59 230.349 156.98 230.008C156.819 229.929 156.645 229.849 156.468 229.766L156.468 229.766C155.979 229.539 155.456 229.296 155.056 229.039C154.656 228.794 154.333 228.47 154.019 228.155L154.019 228.155C153.709 227.844 153.408 227.542 153.05 227.333C151.796 226.765 150.213 225.839 148.903 224.947C148.464 224.657 148.147 224.253 147.85 223.874L147.85 223.874C147.644 223.612 147.448 223.362 147.226 223.168C146.931 222.937 146.573 222.799 146.194 222.654L146.194 222.654L146.194 222.654C145.889 222.537 145.57 222.415 145.26 222.234C144.654 221.838 144.084 221.481 143.467 221.094L143.203 220.928C142.798 220.677 142.362 220.31 142.094 219.951C141.958 219.784 141.846 219.63 141.743 219.487C141.548 219.217 141.382 218.987 141.134 218.786C140.857 218.605 140.524 218.48 140.179 218.35C139.793 218.205 139.392 218.054 139.039 217.814C138.842 217.68 138.415 217.373 138.049 217.111L138.048 217.11C137.843 216.962 137.656 216.828 137.541 216.747C136.926 216.389 136.354 215.808 135.814 215.26C135.575 215.016 135.341 214.779 135.113 214.571C134.836 214.372 134.543 214.176 134.246 213.976C133.453 213.444 132.629 212.891 131.977 212.22C131.418 211.633 130.847 211.284 130.232 210.908L130.232 210.908C129.891 210.699 129.536 210.481 129.161 210.21C128.571 209.771 127.994 209.017 127.573 208.467C127.532 208.413 127.493 208.361 127.455 208.312C127.443 208.265 127.157 208.091 126.833 207.895L126.746 207.842C125.688 207.289 124.85 206.202 124.135 205.274L124.033 205.142L123.896 204.998C122.919 203.966 121.819 202.805 120.739 201.929C120.587 201.789 120.417 201.63 120.24 201.463C119.824 201.073 119.365 200.643 118.994 200.32C118.484 199.893 118.044 199.358 117.618 198.84L117.618 198.84L117.618 198.84L117.618 198.84L117.618 198.84L117.618 198.84L117.617 198.839L117.617 198.839C117.401 198.577 117.188 198.318 116.972 198.08C116.684 197.795 116.318 197.556 115.945 197.314C115.461 196.999 114.966 196.676 114.616 196.233C114.365 195.945 114.176 195.684 113.994 195.433L113.994 195.433C113.75 195.095 113.518 194.775 113.166 194.432C112.891 194.142 112.642 193.848 112.41 193.574C112.132 193.247 111.88 192.949 111.638 192.721C111.389 192.497 111.102 192.315 110.804 192.125C110.437 191.892 110.054 191.648 109.705 191.305C108.562 190.097 107.474 188.886 106.522 187.772C105.972 187.247 105.366 186.535 104.91 185.976C104.854 185.912 104.824 185.878 104.799 185.861L104.573 185.673L104.266 185.418L104.264 185.416C103.91 185.121 103.509 184.788 103.216 184.546C102.89 184.268 102.554 184.019 102.216 183.77L102.216 183.769L102.216 183.769L102.216 183.769L102.216 183.769L102.216 183.769L102.216 183.769L102.216 183.769L102.216 183.769L102.216 183.769L102.215 183.769L102.215 183.768C101.855 183.502 101.494 183.235 101.142 182.929C100.9 182.737 100.649 182.561 100.396 182.383C100.088 182.167 99.7764 181.947 99.4697 181.692C99.2062 181.46 98.911 181.252 98.5936 181.028C98.2736 180.802 97.9309 180.56 97.5753 180.263C97.1724 179.915 96.8626 179.557 96.5884 179.241L96.5884 179.241C96.3544 178.971 96.1464 178.731 95.9283 178.552C95.5551 178.223 95.2532 177.889 94.9799 177.586C94.7314 177.311 94.5065 177.061 94.2729 176.866L93.4025 176.06L92.9673 175.659L92.7497 175.458C92.4467 175.149 92.0341 174.986 91.6002 174.814C91.4598 174.758 91.3171 174.702 91.1753 174.639C90.6038 174.444 90.1151 173.777 89.7671 173.302C89.7124 173.227 89.6612 173.157 89.6137 173.095C89.148 172.494 87.8444 171.252 86.7927 170.251L86.7923 170.251L86.7921 170.25L86.7919 170.25L86.7918 170.25L86.7917 170.25L86.7916 170.25L86.7912 170.25L86.791 170.249C86.2533 169.738 85.7817 169.288 85.5219 169.02C85.1274 168.633 84.8345 168.228 84.5754 167.869C84.3778 167.596 84.1998 167.35 84.0115 167.16C83.8223 166.938 83.4933 166.727 83.1268 166.492C82.7249 166.234 82.2779 165.947 81.9209 165.585L81.7203 165.398L81.2979 165.022C80.3934 164.297 79.459 163.273 78.7379 162.449L75.4526 159.019C75.3118 158.857 75.171 158.69 75.0387 158.511C74.6838 158.052 74.4682 157.508 74.2559 156.971C74.0931 156.559 73.9322 156.153 73.7118 155.793C73.6551 155.706 73.5974 155.619 73.539 155.53C72.9306 154.604 72.2586 153.581 72.0094 152.491L71.7022 151.352C71.6738 151.262 71.6451 151.172 71.6163 151.081L71.6157 151.079C71.1386 149.581 70.635 147.999 70.9769 146.394C71.1987 145.498 71.9283 144.79 72.5811 144.214L73.0462 143.821C73.6051 143.339 74.4585 143.258 75.0899 143.241C75.4331 143.238 75.7788 143.213 76.1252 143.187C76.8623 143.132 77.6023 143.076 78.326 143.247C77.3078 142.375 76.2565 141.537 75.2051 140.699L75.2048 140.699C73.9977 139.737 72.7906 138.775 71.6338 137.762C71.1957 137.417 70.7936 137.012 70.391 136.606C69.8958 136.107 69.3997 135.607 68.8349 135.219L68.3314 134.852L68.2605 134.801C68.0509 134.651 67.7709 134.451 67.5762 134.238L67.461 134.11L67.2391 133.854C65.6989 131.989 64.3933 129.783 63.7319 127.449C63.2029 125.734 62.7848 123.848 63.1688 122.052C63.2144 121.834 63.2555 121.597 63.2982 121.35C63.4113 120.696 63.5354 119.978 63.7832 119.402C64.1672 118.498 64.9522 117.772 65.7288 117.231C66.4797 116.638 67.4866 116.305 68.404 116.3C68.5047 116.296 68.6085 116.291 68.7145 116.286H68.7145H68.7145H68.7146C69.1727 116.262 69.6701 116.236 70.1287 116.31C67.8462 114.437 65.5851 112.434 63.9582 109.986L63.395 109.218C62.563 108.126 61.987 106.718 61.8121 105.378C61.1934 101.666 61.8633 98.3422 65.2041 96.1961C68.3998 93.9902 71.7577 94.6686 74.8212 96.7294C75.2502 97.0251 75.6715 97.3309 76.0866 97.6443L76.0329 97.5583C74.7742 95.3268 74.9662 92.5236 76.2974 90.386C76.9502 89.1914 78.0296 88.5642 79.2584 88.0906C81.1059 87.3354 83.3715 87.2671 85.0867 88.321C85.4195 88.513 85.2318 89.0591 84.852 89.0079ZM131.807 116.46C131.455 117.363 130.729 117.978 130.008 118.588L130.008 118.588C129.809 118.756 129.611 118.923 129.422 119.096C129.247 119.259 129.076 119.421 128.944 119.634C128.753 119.956 128.496 120.168 128.238 120.381C128.144 120.459 128.05 120.536 127.958 120.62C127.417 121.08 126.881 121.547 126.345 122.014C125.486 122.763 124.626 123.513 123.743 124.238C123.448 124.485 123.005 124.443 122.761 124.148C122.535 123.875 122.552 123.478 122.787 123.227C124.071 121.844 125.403 120.539 126.828 119.293C126.92 119.215 127.011 119.133 127.102 119.05C127.363 118.812 127.628 118.57 127.954 118.444C128.161 118.354 128.333 118.219 128.503 118.085L128.53 118.064C128.766 117.867 128.995 117.659 129.224 117.45L129.224 117.45C129.852 116.88 130.481 116.307 131.269 115.948C131.581 115.79 131.943 116.14 131.807 116.46ZM126.025 116.595C126.542 116.198 127.024 115.708 126.883 115.016C126.832 114.722 126.525 114.534 126.23 114.637C125.811 114.777 125.658 114.985 125.515 115.178C125.429 115.295 125.346 115.407 125.211 115.494C125.142 115.537 125.057 115.58 124.937 115.571C124.756 115.55 124.634 115.635 124.511 115.721L124.511 115.721C124.464 115.754 124.417 115.787 124.366 115.814C123.867 116.156 123.308 116.497 122.77 116.779C122.471 116.924 122.232 117.103 122.19 117.47C122.139 117.841 122.45 118.238 122.808 118.28C122.936 118.308 123.09 118.284 123.221 118.263L123.221 118.263L123.248 118.259C123.386 118.239 123.501 118.185 123.591 118.111C124.196 117.926 124.797 117.623 125.309 117.291C125.355 117.256 125.405 117.228 125.455 117.2L125.455 117.2C125.585 117.127 125.716 117.053 125.787 116.868C125.842 116.744 125.927 116.672 126.025 116.595ZM123.09 116.83C123.128 116.836 123.165 116.846 123.2 116.858L123.148 116.849C123.104 116.842 123.06 116.834 123.039 116.83C123.039 116.83 123.032 116.828 123.03 116.827C123.029 116.826 123.03 116.826 123.035 116.826C123.04 116.823 123.06 116.826 123.074 116.828L123.074 116.828L123.075 116.828L123.084 116.829L123.087 116.83L123.09 116.83ZM155.67 112.605C155.66 113.455 155.169 114.134 154.694 114.793L154.694 114.793C154.592 114.935 154.49 115.075 154.394 115.216C154.283 115.379 154.177 115.545 154.108 115.745C153.977 116.161 153.661 116.437 153.293 116.758L153.285 116.765C153.144 116.87 152.986 116.99 152.82 117.115C152.372 117.454 151.866 117.836 151.48 118.101C151.147 118.355 150.834 118.61 150.515 118.871L150.514 118.871C150.265 119.074 150.013 119.281 149.744 119.492C149.441 119.731 149.001 119.675 148.762 119.372C148.375 118.829 148.816 118.4 149.224 118.004C149.351 117.88 149.474 117.76 149.569 117.64C150.317 116.876 151.158 116.212 151.995 115.551L152.176 115.408C152.254 115.351 152.328 115.272 152.406 115.187C152.537 115.046 152.682 114.889 152.892 114.785C153.059 114.692 153.174 114.555 153.285 114.414C153.345 114.339 153.441 114.193 153.562 114.01C154.153 113.115 155.33 111.331 155.67 112.605ZM150.677 113.193C150.877 113.032 151.052 112.89 151.007 112.47C150.977 112.205 150.772 111.975 150.495 111.919C150.077 111.835 149.921 111.994 149.743 112.177C149.688 112.234 149.632 112.292 149.564 112.346C149.513 112.384 149.458 112.419 149.36 112.41C149.212 112.389 149.148 112.456 149.085 112.524C149.06 112.55 149.035 112.576 149.006 112.598C148.634 112.952 148.276 113.332 147.977 113.775C147.819 113.993 147.79 114.287 147.926 114.539C148.453 115.334 149.271 114.65 149.866 114.152L149.866 114.152C149.98 114.057 150.085 113.969 150.179 113.899C150.204 113.87 150.234 113.847 150.263 113.825C150.34 113.766 150.414 113.708 150.405 113.558C150.405 113.46 150.448 113.404 150.49 113.357C150.551 113.295 150.615 113.243 150.677 113.193ZM121.136 134.111C121.513 134.84 121.056 135.51 120.66 136.09C120.595 136.185 120.532 136.278 120.475 136.368C120.389 136.5 120.308 136.636 120.265 136.803C120.208 137.084 120.021 137.266 119.837 137.444C119.79 137.491 119.743 137.536 119.698 137.584C119.091 138.163 118.415 138.637 117.675 139C117.556 139.231 117.298 139.409 116.903 139.406L116.901 139.406C116.77 139.414 116.642 139.422 116.502 139.384C115.96 139.265 115.751 138.548 116.114 138.155C116.196 138.053 116.322 137.973 116.435 137.901L116.464 137.882C117.185 137.447 117.88 136.914 118.469 136.329C118.529 136.277 118.58 136.218 118.632 136.159L118.632 136.159C118.744 136.032 118.856 135.906 119.045 135.839C119.315 135.71 119.511 135.362 119.683 135.054L119.683 135.054C119.78 134.88 119.87 134.72 119.963 134.618C119.997 134.586 120.035 134.518 120.084 134.433C120.158 134.305 120.255 134.136 120.393 133.987C120.603 133.756 121.008 133.825 121.136 134.111ZM116.818 137.946C116.844 137.949 116.871 137.954 116.9 137.962C116.871 137.958 116.816 137.95 116.809 137.946H116.818ZM118.507 158.596C118.838 158.097 119.163 157.605 119.126 156.928C119.118 156.612 118.755 156.399 118.478 156.557C117.948 156.837 117.682 157.292 117.407 157.762C117.309 157.928 117.211 158.096 117.1 158.259C117.014 158.379 116.929 158.494 116.792 158.575C116.54 158.732 116.346 159.034 116.157 159.327C116.033 159.521 115.911 159.71 115.777 159.851C115.623 160.026 115.423 160.239 115.265 160.397C115.078 160.629 114.761 160.704 114.449 160.778C113.997 160.885 113.556 160.989 113.541 161.562C113.599 162.409 114.487 162.283 115.147 162.189L115.209 162.18C115.764 162.103 116.314 161.698 116.707 161.335C117.074 161.02 117.411 160.593 117.671 160.222C117.712 160.158 117.757 160.096 117.802 160.035L117.802 160.035C117.937 159.849 118.071 159.665 118.094 159.411C118.111 159.249 118.183 159.117 118.256 158.989C118.336 158.855 118.422 158.725 118.507 158.596ZM210.267 121.472C210.126 122.074 209.757 122.444 209.387 122.815C209.114 123.088 208.841 123.361 208.658 123.729C208.576 124.002 208.305 124.293 208.053 124.565L208.053 124.565L208.053 124.565C207.887 124.744 207.73 124.914 207.638 125.064L207.502 125.284C207.068 125.981 206.607 126.72 206.136 127.372C205.65 128.042 204.6 127.445 204.929 126.69C205.202 126.056 205.513 125.439 205.821 124.827L205.923 124.625C206.141 124.155 206.512 123.648 206.811 123.315C206.867 123.255 206.919 123.192 206.971 123.13C207.124 122.947 207.274 122.767 207.519 122.675C207.676 122.611 207.791 122.5 207.902 122.394L207.902 122.394L207.903 122.393C208.027 122.268 208.144 122.137 208.261 122.006C208.666 121.552 209.066 121.103 209.742 120.934C210.053 120.853 210.356 121.164 210.267 121.472Z" fill="#626493"/>
<path fill-rule="evenodd" clip-rule="evenodd" d="M118.807 60.0999C118.998 60.8552 119.187 61.6041 119.437 62.3611C119.437 62.3611 120.235 62.28 120.231 62.2715C120.666 60.4496 120.64 58.4869 120.61 56.6779C120.619 55.752 120.61 54.7749 120.482 53.8021C120.464 53.6666 120.446 53.536 120.429 53.4088C120.358 52.8995 120.295 52.4455 120.282 51.9504C120.359 50.9563 120.384 49.8555 120.077 48.8613C119.65 47.7776 119.565 46.8901 119.484 45.7467C119.241 44.3429 118.993 42.9435 118.558 41.5696L118.556 41.5619C118.407 41.1125 118.267 40.6881 118.106 40.2427L117.308 40.328C117.23 40.8799 117.201 41.598 117.174 42.2586C117.161 42.5684 117.149 42.8655 117.133 43.1269C117.067 43.9035 117.051 44.7956 117.035 45.6098C117.034 45.6947 117.032 45.7788 117.031 45.8619C116.962 46.5701 116.907 47.3381 116.979 48.0677C116.995 48.4273 117.084 48.7904 117.172 49.1477C117.251 49.4688 117.328 49.7852 117.351 50.0901C117.39 50.482 117.362 50.8907 117.334 51.3024C117.298 51.8185 117.262 52.3394 117.359 52.8379C117.46 53.4137 117.552 53.9809 117.644 54.5448C117.85 55.8025 118.052 57.0433 118.332 58.3248C118.511 58.9248 118.66 59.5143 118.807 60.0999ZM136.482 70.655C136.488 70.397 136.473 70.1643 136.459 69.9391C136.43 69.4791 136.403 69.0503 136.555 68.5003C136.694 67.8599 136.967 67.2627 137.234 66.6765L137.234 66.6765C137.27 66.5987 137.305 66.5212 137.34 66.4438C137.617 65.8123 137.758 65.4582 137.988 64.7328C138.26 63.9673 138.562 63.3731 138.871 62.7638L138.871 62.7638C139.032 62.4461 139.196 62.1242 139.358 61.7718C139.493 61.4901 139.622 61.2187 139.75 60.9508L139.75 60.9506C140.064 60.2894 140.368 59.6498 140.732 58.9302C141.009 58.4737 141.266 57.9746 141.524 57.4759L141.524 57.4758C141.755 57.0283 141.985 56.5811 142.23 56.1654C142.58 55.591 142.82 54.9896 143.066 54.3742C143.185 54.0752 143.306 53.7729 143.441 53.4688C143.608 53.0139 143.914 52.5769 144.22 52.1401C144.511 51.7247 144.802 51.3094 144.973 50.879C145.051 50.7067 145.115 50.4222 145.166 50.1968L145.166 50.1967C145.179 50.1374 145.192 50.0822 145.203 50.0342C145.438 49.1502 145.896 48.4183 146.356 47.6832L146.356 47.6832C146.666 47.1872 146.977 46.6897 147.222 46.143C147.358 45.8816 147.507 45.5958 147.662 45.2955L147.663 45.295C148.303 44.0608 149.069 42.5823 149.7 41.5563C149.875 41.2747 150.038 40.9888 150.204 40.6902L151.599 41.3344C151.458 41.7116 151.295 42.0917 151.134 42.4687C151.021 42.7314 150.909 42.9926 150.806 43.2502C150.62 43.7089 150.412 44.225 150.196 44.761L150.196 44.7623C149.743 45.8861 149.256 47.0971 148.86 48.0502C148.727 48.3748 148.557 48.6777 148.387 48.9792C148.221 49.2761 148.055 49.5715 147.926 49.8848C147.733 50.3019 147.682 50.6406 147.622 51.0399L147.614 51.0923C147.435 52.0907 146.893 53.0379 146.326 53.84C146.049 54.3597 145.841 54.9389 145.631 55.5232L145.631 55.5233L145.631 55.5233C145.378 56.2295 145.121 56.9434 144.738 57.5691C144.511 57.9646 144.362 58.2883 144.202 58.6352C144.095 58.8685 143.982 59.1122 143.838 59.3952C143.38 60.2184 142.96 61.118 142.54 62.0172L142.54 62.0172L142.54 62.0172C142.224 62.6933 141.908 63.369 141.577 64.0118C141.215 64.6426 140.991 65.2553 140.769 65.8631C140.534 66.5093 140.3 67.1498 139.904 67.8006C139.705 68.1285 139.47 68.443 139.237 68.7547L139.237 68.7547C139.076 68.9702 138.916 69.1843 138.769 69.4006C138.619 69.5897 138.484 69.8441 138.343 70.1085C138.131 70.5061 137.907 70.9261 137.604 71.1798C137.609 71.1755 136.482 70.655 136.482 70.655ZM152.734 80.9127C155.964 78.1052 159.672 75.9591 163.631 74.3634C164.032 74.1714 164.297 74.0263 164.783 73.7447C165.319 73.4513 165.9 73.1986 166.465 72.9535L166.465 72.9535C166.795 72.8101 167.119 72.6693 167.424 72.5244C169.212 71.8034 171.042 71.2871 172.898 70.7964L173.257 71.5132C172.02 72.5551 170.654 73.4055 169.289 74.2551L169.288 74.2551L169.288 74.2552C168.646 74.6546 168.005 75.0538 167.377 75.4727C166.921 75.7293 166.515 75.9957 166.117 76.2571L166.117 76.2572C165.535 76.6391 164.97 77.0103 164.288 77.3244L163.657 77.604L163.657 77.6041C161.525 78.5489 159.389 79.4952 157.218 80.3495C155.917 80.8828 154.488 81.3394 153.097 81.638L152.734 80.9127Z" fill="#FFBF9E"/>
<path fill-rule="evenodd" clip-rule="evenodd" d="M56.3382 121.613C55.6854 121.588 55.0511 121.516 54.4177 121.444C53.6559 121.358 52.8954 121.272 52.1057 121.268C51.2882 121.194 50.5477 120.979 49.7983 120.762C49.5973 120.704 49.3956 120.645 49.1915 120.589C48.6855 120.496 47.9674 120.244 47.325 120.019L47.3249 120.019C47.0248 119.914 46.7413 119.815 46.5035 119.74C46.0993 119.606 45.7199 119.55 45.3269 119.492L45.3269 119.492C45.0687 119.454 44.8046 119.414 44.5238 119.352C43.7686 119.168 42.9793 118.87 42.3094 118.541C42.076 118.432 41.7766 118.32 41.463 118.204C41.0772 118.06 40.6701 117.908 40.3382 117.743C39.6751 117.389 38.972 117.145 38.267 116.902C37.4114 116.606 36.553 116.309 35.7601 115.81C35.3462 115.542 34.9921 115.32 34.5697 115.077L34.7958 114.309C35.0475 114.321 35.295 114.351 35.5467 114.39C36.3698 114.609 37.2134 114.688 38.0564 114.768C38.887 114.846 39.717 114.925 40.5259 115.136C40.8554 115.227 41.1558 115.309 41.4397 115.386C42.5012 115.673 43.3312 115.898 44.5835 116.322C44.9839 116.438 45.4021 116.498 45.8218 116.559C46.3458 116.634 46.8722 116.709 47.3697 116.894C47.8134 117.018 48.4235 117.278 48.8075 117.462C49.0223 117.55 49.2711 117.645 49.5347 117.745C50.1508 117.979 50.8471 118.244 51.3761 118.528C51.91 118.79 52.4455 118.96 52.988 119.132L52.988 119.132C53.3126 119.234 53.6396 119.338 53.9702 119.463C54.9131 119.868 55.7323 120.342 56.5644 120.841C56.5644 120.845 56.3382 121.613 56.3382 121.613ZM52.097 139.491C51.7087 139.571 51.3062 139.646 50.8989 139.722C50.0084 139.888 49.0957 140.057 48.2613 140.297C47.5368 140.478 46.7079 140.503 45.9663 140.525H45.9663L45.9652 140.525C45.8861 140.527 45.808 140.53 45.7311 140.532C45.2327 140.586 44.6758 140.669 44.1172 140.752L44.1172 140.752C43.6191 140.826 43.1197 140.9 42.6591 140.954C42.2093 141.018 41.7445 141.072 41.2807 141.126C40.9614 141.163 40.6426 141.2 40.3295 141.24C40.0933 141.274 39.8561 141.325 39.6164 141.378C39.3365 141.439 39.0532 141.5 38.7637 141.535C38.1284 141.613 37.4531 141.648 36.7739 141.684L36.7738 141.684C36.0846 141.72 35.3914 141.756 34.7317 141.838C34.4999 141.856 34.2616 141.875 34.019 141.895L34.0189 141.895C32.9355 141.984 31.7684 142.079 30.7295 142.072C30.1148 142.026 29.5282 142.009 28.9421 141.993C28.2346 141.973 27.5281 141.953 26.7743 141.88L26.625 140.246C27.8666 139.794 29.2362 139.448 30.5887 139.337C32.3594 139.043 34.2922 138.868 36.097 138.749C36.4109 138.727 36.7343 138.72 37.0581 138.713C37.5178 138.702 37.9783 138.692 38.4138 138.642C38.6742 138.614 38.943 138.571 39.2151 138.527L39.2151 138.527C39.6162 138.461 40.0243 138.395 40.4234 138.377C41.0486 138.34 41.6591 138.295 42.2663 138.249L42.2664 138.249C43.3871 138.166 44.4966 138.084 45.6671 138.053L45.8837 138.067C46.8673 138.13 47.6511 138.18 48.6538 137.989C49.4771 137.893 50.2956 137.883 51.1219 137.874H51.122C51.3962 137.871 51.6713 137.867 51.9477 137.861L52.097 139.491ZM57.7914 156.361C58.0999 155.993 58.4151 155.617 58.6038 155.17C58.6038 155.17 57.8529 154.355 57.8572 154.351C57.7305 154.393 57.6136 154.431 57.5011 154.467C57.2009 154.564 56.9326 154.65 56.5942 154.778C55.6969 155.118 55.0026 155.788 54.3259 156.441C54.1532 156.608 53.9816 156.774 53.8081 156.932C53.1405 157.486 52.4103 158.173 51.7522 158.793C51.6237 158.914 51.498 159.033 51.3761 159.147C50.8619 159.601 50.3462 160.062 49.8283 160.524C48.3094 161.88 46.7731 163.252 45.2108 164.531C44.9466 164.785 44.659 165.032 44.3675 165.283C43.5763 165.963 42.7573 166.668 42.3052 167.591C42.1378 167.949 42.0439 168.223 41.9309 168.553C41.8998 168.644 41.8674 168.739 41.8316 168.841L42.7574 169.852C43.2353 169.737 43.7601 169.4 44.1313 169.135C44.5921 168.849 45.1382 168.491 45.6033 168.171C46.921 167.314 47.9962 166.146 49.0682 164.982C49.7145 164.28 50.3597 163.579 51.0561 162.948C51.7112 162.344 52.4181 161.778 53.1265 161.21C54.0191 160.495 54.9141 159.777 55.711 158.98C56.1272 158.589 56.4636 158.119 56.7965 157.654C56.9858 157.39 57.174 157.127 57.375 156.881C57.5032 156.705 57.6466 156.534 57.7914 156.361Z" fill="#FFBF9E"/>
</svg>
