<svg width="320" height="320" viewBox="0 0 320 320" fill="none" xmlns="http://www.w3.org/2000/svg">
<path fill-rule="evenodd" clip-rule="evenodd" d="M84.971 88.6399C86.4131 88.9813 92.8003 96.9429 92.8003 96.9429C92.8003 96.9429 87.3987 95.9274 85.7987 99.2639C84.1987 102.6 84.267 104.84 85.7987 109.632C87.3304 114.423 98.0014 125.713 98.0014 125.713L95.7827 124.488C93.564 123.264 89.8094 124.36 89.0456 125.713C88.2819 127.066 89.0883 133.274 91.9427 138.266C94.7971 143.262 99.4478 148.454 102.52 151.104C104.411 152.735 108.743 158.843 112.689 164.407C115.151 167.879 117.464 171.14 118.938 172.966C122.774 177.719 145.468 204.352 150.81 208.282C152.477 209.508 154.249 210.947 156.045 212.406C160.004 215.62 164.077 218.927 167.39 220.254C172.207 222.182 178.232 226.999 178.232 226.999C178.232 226.999 192.93 244.348 196.536 248.926C200.145 253.5 201.361 257.357 201.361 257.357L197.504 254.707L190.341 246.895L175.608 233.024C175.608 233.024 169.105 232.32 163.909 231.428C160.051 230.766 154.29 227.168 149.046 223.894C147.225 222.757 145.467 221.659 143.872 220.736C137.686 217.156 121.959 201.587 121.959 201.587C121.959 201.587 102.183 182.643 97.9331 179.038C93.6835 175.432 76.7918 159.061 73.1395 153.178C69.6044 147.487 72.477 145.417 74.4524 143.994C74.5179 143.947 74.5824 143.901 74.6456 143.855C76.6168 142.426 82.6115 145.51 82.6115 145.51L75.9726 140.151C75.9726 140.151 66.428 134.481 64.5592 127.006C62.6862 119.535 65.643 118.251 69.0776 117.551C71.1543 117.128 72.4527 117.734 73.1547 118.28C71.7906 116.868 68.6129 113.596 66.4024 111.441C63.5182 108.629 62.6776 102.426 63.8424 98.9738C64.9482 95.6971 68.4069 95.7847 70.244 95.8312C70.3422 95.8337 70.4357 95.8361 70.524 95.8378C72.2691 95.8719 78.0718 98.9269 78.0718 98.9269C78.0718 98.9269 75.1064 92.0789 77.035 90.769C78.9635 89.4591 83.5288 88.2986 84.971 88.6399ZM161.767 93.5084C163.26 93.2439 172.561 101.334 172.561 101.334C172.561 101.334 172.211 105.818 173.069 109.978C173.922 114.134 179.682 121.481 184.188 126.614C188.694 131.746 193.993 138.688 193.993 138.688L181.611 128.708L160.005 110.195C160.005 110.195 156.826 102.614 156.89 98.9314C156.954 95.2492 160.273 93.773 161.767 93.5084Z" fill="#B3B4BD"/>
<path d="M259.43 222.191C259.43 222.191 250.069 215.044 242.632 206.016C235.195 196.987 232.332 195.2 231.564 189.674C230.8 184.149 229.508 161.467 228.663 156.744C227.818 152.021 224.789 144.687 221.725 138.274C218.662 131.861 213.798 122.287 212.215 120.627C210.632 118.971 194.133 107.661 194.133 107.661C194.133 107.661 186.943 100.847 184.75 98.0349C182.553 95.2232 182.498 92.1512 180.155 93.0429C177.813 93.9346 172.676 96.6226 172.56 101.329C172.441 106.035 173.819 114.278 175.94 116.936C178.06 119.594 186.427 129.182 186.427 129.182L193.988 138.679C193.988 138.679 164.71 114.317 156.65 107.281C148.586 100.245 131.814 85.1368 126.566 81.4162C121.318 77.6957 115.865 75.3277 112.473 75.5112C109.081 75.6946 108.842 76.5053 108.501 79.6072C108.159 82.709 110.617 88.58 110.617 88.58C110.617 88.58 101.593 78.9672 97.8639 77.6189C94.1349 76.2706 91.9034 76.1384 88.6863 77.7256C85.4693 79.3128 84.1594 84.0829 86.8645 88.5842C89.5695 93.0813 95.7818 99.8994 95.7818 99.8994C95.7818 99.8994 92.7781 93.8962 87.5557 96.9682C82.3375 100.036 84.4239 108.42 87.0479 112.2C89.6677 115.981 98.0005 125.726 98.0005 125.726C98.0005 125.726 91.1738 121.058 89.0447 125.726C86.9157 130.393 90.8751 137.455 95.5215 143.56C100.168 149.666 116.232 168.883 123.741 178.914C131.251 188.945 141.939 199.931 150.809 208.294C159.679 216.653 166.826 219.661 171.216 222.195C175.611 224.729 178.231 227.012 178.231 227.012L204.01 257.369C204.01 257.369 206.66 257.851 218.709 252.791C230.758 247.731 246.677 240.742 252.087 234.722C257.501 228.697 259.43 222.191 259.43 222.191Z" fill="#F2F2F5"/>
<path fill-rule="evenodd" clip-rule="evenodd" d="M199.86 144.397C199.52 144.142 199.203 143.859 198.887 143.576C198.365 143.109 197.843 142.643 197.219 142.306C196.741 141.96 196.241 141.648 195.743 141.337C194.92 140.824 194.099 140.312 193.379 139.648C192.852 139.115 192.249 138.738 191.638 138.355C191.314 138.152 190.988 137.948 190.67 137.719C190.322 137.496 190.009 137.173 189.701 136.855C189.461 136.607 189.224 136.363 188.976 136.17C188.699 135.961 188.332 135.68 188.033 135.381C187.561 134.883 187.007 134.453 186.459 134.027C186.12 133.764 185.783 133.502 185.469 133.226C185.104 132.912 184.716 132.616 184.327 132.319C183.482 131.674 182.63 131.023 181.987 130.159C181.581 129.733 181.062 129.336 180.547 128.942C180.159 128.646 179.773 128.351 179.44 128.047C179.192 127.856 178.934 127.673 178.675 127.49C177.952 126.979 177.221 126.463 176.696 125.734C176.183 124.988 175.61 124.637 174.938 124.226C174.711 124.087 174.473 123.942 174.222 123.771C173.896 123.52 173.645 123.289 173.374 123.041L173.292 122.965C172.216 121.933 171.086 120.891 169.989 119.931C169.788 119.778 169.544 119.621 169.29 119.458C168.864 119.185 168.413 118.896 168.103 118.583C167.735 118.228 167.373 117.884 167.012 117.54L167.01 117.538C166.533 117.084 166.058 116.632 165.573 116.16C165.112 115.652 164.596 115.153 164.05 114.807C163.444 114.513 162.591 113.873 162.079 113.365C161.628 112.927 161.094 112.459 160.57 112L160.57 111.999L160.57 111.999C160.215 111.689 159.865 111.382 159.549 111.091C158.956 110.622 158.324 109.994 157.838 109.465C157.451 109.017 156.926 108.721 156.394 108.421C155.94 108.166 155.482 107.907 155.103 107.55C154.828 107.306 154.582 107.06 154.341 106.819L154.341 106.819C154.058 106.535 153.78 106.257 153.464 105.992C153.155 105.726 152.901 105.458 152.656 105.2C152.2 104.72 151.776 104.273 151.088 103.931C151.05 103.91 151.012 103.889 150.972 103.867L150.972 103.867C150.669 103.699 150.32 103.506 149.961 103.223C149.536 102.885 149.225 102.476 148.929 102.087C148.747 101.848 148.572 101.617 148.379 101.414C148.257 101.284 148.046 101.115 147.858 100.965C147.769 100.893 147.685 100.826 147.619 100.77C147.111 100.377 146.318 99.7246 145.81 99.2851C145.674 99.1683 145.526 99.0451 145.374 98.9176L145.373 98.9171L145.373 98.917L145.373 98.917L145.373 98.9169L145.372 98.9167L145.372 98.9164C144.917 98.5363 144.416 98.1182 144.039 97.7192C143.604 97.2414 142.939 96.5587 142.461 96.1363C141.56 95.2318 140.993 94.6643 139.995 94.0286C139.534 93.7135 139.074 93.2754 138.646 92.8682L138.646 92.8681L138.646 92.868C138.483 92.7128 138.325 92.562 138.173 92.4243L137.755 92.0318C137.407 91.7241 137.085 91.3394 136.778 90.972C136.455 90.5854 136.147 90.218 135.843 89.9795L134.094 88.5544L132.396 87.0611L132.325 86.9986L132.324 86.9984C132.276 86.9557 132.228 86.9131 132.191 86.8819C131.891 86.6645 131.564 86.4631 131.233 86.2591C130.661 85.9066 130.076 85.5462 129.592 85.0814L128.735 84.3432C128.301 83.9377 127.812 83.6659 127.315 83.3902C126.824 83.1176 126.326 82.8411 125.868 82.4275C125.599 82.1868 125.393 81.9486 125.195 81.7194C124.943 81.4287 124.705 81.1525 124.366 80.9043C124.269 80.8449 124.171 80.7854 124.071 80.7256C126.527 83.3852 127.873 86.0436 124.549 89.5991C123.273 90.8621 122.032 92.0098 120.146 92.3767C118.883 92.5046 117.585 92.2503 116.421 91.7641C116.67 92.0166 116.925 92.2769 117.18 92.5381L117.181 92.5382C117.926 93.2995 118.68 94.0691 119.301 94.6771C120.231 95.4963 121.315 96.58 122.109 97.6126C122.475 97.9692 122.816 98.3743 123.157 98.7794L123.157 98.7795C123.414 99.085 123.671 99.3907 123.939 99.6757C124.015 99.7341 124.092 99.7957 124.169 99.861C124.594 100.234 124.89 100.614 125.182 100.987L125.182 100.987C125.37 101.228 125.556 101.467 125.774 101.7C126.119 102.042 126.496 102.435 126.855 102.808L126.855 102.808C127.046 103.007 127.231 103.2 127.404 103.377C127.722 103.699 128.103 103.964 128.485 104.23C128.989 104.581 129.495 104.933 129.865 105.42C130.069 105.659 130.24 105.883 130.402 106.095C130.62 106.382 130.823 106.648 131.073 106.905C131.2 107.03 131.437 107.297 131.636 107.523L131.636 107.523C131.737 107.637 131.829 107.741 131.892 107.81C132.359 108.416 132.882 108.864 133.414 109.32C133.845 109.689 134.281 110.064 134.7 110.532C136.355 112.264 137.921 114.103 139.337 116.036C139.529 116.325 139.673 116.586 139.808 116.83C140.021 117.216 140.211 117.561 140.532 117.913C140.726 118.122 140.929 118.32 141.135 118.519L141.135 118.519C141.5 118.872 141.87 119.232 142.2 119.671C142.252 119.74 142.303 119.807 142.353 119.874C142.929 120.643 143.405 121.278 144.163 121.898L144.769 122.432L145.076 122.722C145.404 123.048 145.772 123.376 146.145 123.708C146.669 124.175 147.204 124.651 147.657 125.149C148.251 125.73 149.33 126.865 149.821 127.5C150.208 127.954 150.64 128.333 151.077 128.717L151.078 128.717C151.406 129.006 151.738 129.298 152.056 129.625C153.033 130.696 154.331 131.972 155.397 132.957C155.685 133.254 155.946 133.55 156.203 133.842L156.203 133.842C156.624 134.321 157.034 134.787 157.535 135.219C159.049 136.584 160.615 138.184 162.015 139.669C162.203 139.852 162.207 140.151 162.028 140.343C161.853 140.531 161.558 140.535 161.371 140.364C160.274 139.328 159.032 138.176 157.893 137.173C157.64 136.946 157.371 136.722 157.1 136.495L157.1 136.495C156.549 136.035 155.987 135.564 155.512 135.044C154.928 134.357 153.959 133.482 153.277 132.893C152.777 132.479 152.122 131.823 151.558 131.257C151.361 131.06 151.175 130.874 151.011 130.713C150.719 130.425 150.396 130.152 150.071 129.877L150.071 129.877L150.071 129.877L150.07 129.876L150.07 129.876L150.07 129.876L150.07 129.876L150.07 129.876L150.07 129.876L150.07 129.876L150.07 129.876L150.069 129.876C149.793 129.641 149.513 129.405 149.249 129.156C148.911 128.848 148.586 128.473 148.272 128.112L148.272 128.112L148.272 128.112L148.272 128.112L148.271 128.111L148.271 128.111L148.271 128.111L148.271 128.11C148.051 127.857 147.837 127.611 147.628 127.398C147.42 127.193 147.087 126.869 146.76 126.55L146.758 126.548C146.445 126.244 146.138 125.945 145.951 125.76C145.637 125.44 145.297 125.159 144.953 124.874L144.953 124.874C144.599 124.582 144.24 124.286 143.899 123.938C143.682 123.735 143.452 123.536 143.22 123.335C142.732 122.913 142.235 122.483 141.842 122.001C141.577 121.692 141.331 121.37 141.103 121.07C141.015 120.955 140.93 120.844 140.848 120.738C140.58 120.388 140.243 120.065 139.901 119.738C139.454 119.309 138.999 118.874 138.68 118.361C138.533 118.124 138.408 117.909 138.292 117.708C138.033 117.259 137.812 116.878 137.456 116.463C136.193 114.811 134.832 113.224 133.398 111.722C133.055 111.343 132.632 110.974 132.202 110.599C131.611 110.083 131.006 109.555 130.578 108.975C130.339 108.697 129.917 108.232 129.669 107.972C129.431 107.713 129.215 107.424 129.011 107.153C128.849 106.938 128.696 106.734 128.547 106.564C128.216 106.145 127.799 105.863 127.375 105.576L127.375 105.576C127.078 105.375 126.777 105.172 126.499 104.917C126.127 104.563 125.778 104.194 125.433 103.828L125.433 103.828C125.134 103.511 124.837 103.196 124.528 102.895C124.303 102.659 124.087 102.381 123.874 102.108L123.874 102.108C123.599 101.754 123.329 101.407 123.052 101.167L123.046 101.163C122.933 101.121 122.82 101.051 122.715 100.949C122.685 100.919 122.656 100.889 122.627 100.859L122.529 100.791L122.417 100.713C121.734 100.241 120.942 99.6941 120.53 99.0204C120.105 98.3252 119.477 97.7729 118.886 97.2532C118.741 97.1255 118.598 96.9997 118.461 96.8743C118.019 96.4698 117.538 96.064 117.051 95.653C116.32 95.0365 115.576 94.4082 114.928 93.7554C114.744 93.5874 114.492 93.3459 114.204 93.0695L114.204 93.0695C113.335 92.2365 112.136 91.087 111.476 90.6833C110.634 90.0255 109.856 89.2452 109.092 88.4789L109.092 88.4788L109.092 88.4786L109.092 88.4786C108.706 88.0919 108.324 87.7088 107.939 87.3468C107.419 86.7885 106.934 86.4364 106.389 86.0404C106.134 85.8554 105.866 85.6608 105.575 85.4311C105.369 85.2584 105.177 85.0803 104.993 84.8998C106.011 87.0048 106.421 89.4889 105.422 91.6773C104.547 93.4864 102.892 94.7664 101.219 95.8032C99.0728 97.032 96.3038 96.904 94.1406 95.8501C93.7404 95.6564 93.3434 95.4436 92.952 95.2146C93.0379 95.3239 93.1219 95.4323 93.2053 95.5401L93.2053 95.5401L93.2054 95.5401L93.2054 95.5402L93.2054 95.5402L93.2054 95.5402L93.2055 95.5402L93.2055 95.5403L93.2055 95.5403C93.436 95.8379 93.6625 96.1305 93.9145 96.422C94.2259 96.7888 94.5422 97.0561 94.8877 97.348L94.8877 97.348L94.8879 97.3481C95.1009 97.5281 95.3249 97.7174 95.5657 97.9452C96.0231 98.379 96.3946 98.8324 96.7613 99.2801C97.0583 99.6426 97.3522 100.001 97.6863 100.343C97.8677 100.534 98.1411 100.827 98.4202 101.126L98.4231 101.129L98.424 101.13C98.7541 101.484 99.0918 101.846 99.2948 102.058C99.6016 102.375 99.9071 102.633 100.227 102.903L100.227 102.903C100.482 103.118 100.746 103.341 101.027 103.607C101.412 103.998 101.873 104.481 102.294 104.921L102.295 104.921C102.434 105.067 102.569 105.208 102.695 105.339C103.049 105.693 103.379 106.092 103.701 106.481L103.701 106.481L103.701 106.481L103.701 106.481L103.701 106.481L103.701 106.481L103.701 106.481C103.891 106.711 104.078 106.938 104.265 107.148C104.583 107.457 104.857 107.878 105.126 108.293L105.126 108.293L105.126 108.293C105.337 108.62 105.546 108.942 105.772 109.201C105.999 109.436 106.234 109.604 106.488 109.784L106.488 109.784C106.768 109.983 107.07 110.198 107.406 110.536C107.814 110.976 108.063 111.383 108.3 111.771C108.572 112.215 108.828 112.633 109.287 113.045C109.93 113.737 110.455 114.239 111.007 114.768L111.007 114.768C111.354 115.1 111.712 115.442 112.116 115.848C112.368 116.121 112.664 116.451 112.952 116.772L112.953 116.773C113.169 117.013 113.381 117.248 113.567 117.452C113.915 117.83 114.137 118.242 114.345 118.627C114.502 118.917 114.65 119.192 114.838 119.428C115.077 119.73 115.347 119.939 115.624 120.154C115.778 120.273 115.934 120.393 116.088 120.533C116.536 121.007 117.321 121.851 117.744 122.329L117.989 122.597L117.99 122.598L117.99 122.598L117.99 122.598L117.99 122.598C119.018 123.72 120.581 125.427 121.396 126.502C121.76 126.93 122.141 127.35 122.522 127.77L122.523 127.77L122.523 127.77L122.523 127.77L122.523 127.77L122.523 127.77L122.523 127.77L122.523 127.77L122.523 127.771L122.523 127.771L122.523 127.771L122.523 127.771L122.523 127.771L122.523 127.771L122.524 127.771L122.524 127.771L122.524 127.771L122.524 127.771L122.524 127.771L122.524 127.771L122.524 127.771L122.524 127.772C123.02 128.318 123.517 128.864 123.977 129.433C124.09 129.557 124.293 129.803 124.519 130.076L124.519 130.076C124.876 130.509 125.288 131.008 125.479 131.191C125.799 131.507 126.29 132.01 126.601 132.36C126.83 132.627 127.213 133.067 127.564 133.471L127.565 133.471L127.568 133.475L127.569 133.476C127.8 133.742 128.017 133.991 128.167 134.165C128.485 134.53 128.81 135.062 129.071 135.49L129.071 135.49L129.119 135.569C129.46 136.122 129.863 136.562 130.278 137.016C130.532 137.294 130.79 137.577 131.043 137.894L132.016 139.127C132.395 139.61 132.828 140.112 133.265 140.618C133.89 141.343 134.524 142.078 135.024 142.784C135.377 143.254 135.774 143.592 136.183 143.939L136.183 143.939C136.534 144.237 136.894 144.543 137.243 144.947C137.591 145.355 137.892 145.756 138.19 146.155L138.19 146.155L138.19 146.155L138.19 146.155C138.512 146.585 138.831 147.011 139.205 147.439L140.229 148.646L140.485 148.949L140.613 149.098C140.927 149.479 141.196 149.968 141.449 150.428C141.627 150.751 141.798 151.06 141.97 151.308C142.22 151.662 142.549 151.996 142.884 152.334C143.21 152.665 143.541 153 143.809 153.365C144.487 154.363 145.072 155.157 145.951 156.019C146.292 156.377 146.275 156.953 145.908 157.282C145.545 157.61 144.991 157.585 144.662 157.222C143.958 156.544 143.126 155.558 142.576 154.717C142.303 154.304 142.017 154.005 141.646 153.647C140.882 152.981 140.076 151.812 139.645 150.941C139.406 150.502 139.111 150.156 138.791 149.794C138.045 148.975 137.293 148.027 136.578 147.124L136.577 147.123L136.576 147.122C136.32 146.798 136.067 146.48 135.822 146.176C135.558 145.884 135.222 145.596 134.876 145.3L134.876 145.3C134.387 144.882 133.88 144.448 133.535 143.965C132.976 143.206 132.161 142.255 131.542 141.568C131.069 141.05 130.442 140.267 129.918 139.612L129.916 139.609L129.816 139.484C129.716 139.36 129.621 139.241 129.533 139.131C129.301 138.848 129.041 138.565 128.777 138.278L128.777 138.278L128.777 138.278L128.777 138.278L128.777 138.278L128.777 138.278L128.777 138.278L128.777 138.278L128.777 138.278L128.777 138.278L128.777 138.278L128.777 138.278L128.776 138.277L128.776 138.277L128.776 138.277L128.776 138.277C128.5 137.977 128.22 137.672 127.963 137.356C127.72 137.064 127.507 136.723 127.299 136.389C127.078 136.037 126.864 135.693 126.627 135.428C126.456 135.228 126.18 134.916 125.901 134.599L125.9 134.598C125.588 134.244 125.271 133.886 125.091 133.674C124.884 133.44 124.641 133.195 124.394 132.946C124.065 132.615 123.73 132.279 123.47 131.955C122.675 130.967 121.809 130.001 120.953 129.046L120.953 129.046C120.577 128.627 120.204 128.211 119.839 127.795C118.886 126.576 117.574 125.151 116.385 123.861C115.955 123.394 115.542 122.945 115.167 122.53C114.796 122.095 114.582 121.915 114.134 121.595C113.72 121.254 113.439 120.96 113.123 120.571C112.923 120.301 112.754 119.994 112.593 119.701C112.403 119.356 112.223 119.031 112.018 118.809C111.9 118.681 111.738 118.502 111.573 118.321C111.398 118.128 111.22 117.933 111.092 117.794C111.016 117.712 110.931 117.617 110.841 117.517L110.841 117.517L110.841 117.517L110.841 117.517C110.597 117.246 110.317 116.935 110.089 116.736C109.175 115.954 108.193 114.907 107.298 113.954L107.298 113.954L107.214 113.864C106.967 113.591 106.744 113.223 106.532 112.873L106.532 112.873C106.32 112.522 106.12 112.19 105.917 111.991C105.771 111.837 105.521 111.656 105.25 111.459L105.25 111.459L105.249 111.459L105.249 111.459C104.956 111.246 104.639 111.016 104.402 110.784C104.007 110.408 103.691 109.921 103.396 109.465C103.302 109.319 103.21 109.177 103.118 109.043C102.894 108.752 102.609 108.425 102.328 108.103L102.328 108.102C102.09 107.829 101.855 107.56 101.663 107.319C101.338 106.961 100.964 106.569 100.586 106.178C100.927 107.463 100.983 108.793 100.498 109.854C99.5293 111.769 97.5837 113.412 95.3394 113.314C91.636 113.254 88.2226 109.303 86.085 106.611L85.9353 106.413L85.7955 106.229C86.1906 108.563 87.0773 110.806 88.4148 112.802C88.5705 112.962 88.7421 113.128 88.9188 113.299C89.2892 113.659 89.6814 114.039 89.9935 114.423C90.2719 114.741 90.5161 115.123 90.7509 115.49L90.7509 115.49L90.7509 115.49C90.9227 115.759 91.0894 116.019 91.2607 116.241C91.4368 116.455 91.6188 116.679 91.805 116.908C92.5161 117.784 93.2874 118.734 94.0212 119.488C95.2031 120.742 96.8073 122.453 97.9209 123.729C98.7523 124.535 99.5719 125.36 100.411 126.204L100.412 126.204L100.413 126.205L100.413 126.205L100.413 126.205L100.413 126.205L100.413 126.206L100.413 126.206L100.413 126.206L100.414 126.206L100.414 126.206L100.414 126.206L100.414 126.206L100.414 126.206L100.414 126.207L100.415 126.207C100.587 126.38 100.759 126.554 100.933 126.728C101.43 127.18 101.873 127.826 102.277 128.415C102.446 128.661 102.608 128.897 102.764 129.105C103.023 129.432 103.372 129.754 103.725 130.08C104.045 130.375 104.369 130.674 104.632 130.982C105.639 132.207 106.757 133.487 107.828 134.647C108.111 134.963 108.374 135.338 108.633 135.705C108.873 136.046 109.109 136.381 109.351 136.657C109.527 136.856 109.755 137.129 109.996 137.416L109.996 137.417C110.415 137.917 110.874 138.465 111.169 138.76C111.317 138.903 111.502 139.059 111.698 139.226C111.984 139.467 112.294 139.73 112.547 139.998C112.897 140.363 113.215 140.799 113.522 141.219C113.732 141.507 113.937 141.787 114.143 142.033C114.437 142.366 114.808 142.848 115.077 143.198C115.53 143.845 116.034 144.347 116.555 144.864L116.555 144.865C116.854 145.162 117.159 145.465 117.462 145.805C117.808 146.227 118.491 147.063 118.832 147.481C118.975 147.646 119.179 147.886 119.414 148.164C120.136 149.014 121.156 150.216 121.648 150.698C122.083 151.154 122.566 151.742 123.014 152.289L123.014 152.289C123.204 152.52 123.388 152.744 123.559 152.947C124.073 153.507 124.485 154.13 124.886 154.736C125.146 155.128 125.401 155.513 125.676 155.87C125.94 156.201 126.248 156.589 126.538 156.955L126.541 156.959L126.541 156.959C126.717 157.182 126.887 157.396 127.037 157.585C127.241 157.849 127.694 158.408 127.916 158.664C128.727 159.622 129.399 160.68 130.07 161.738C130.945 163.116 131.821 164.494 133.006 165.653C133.326 166.02 133.287 166.579 132.92 166.899C132.541 167.227 131.965 167.172 131.653 166.784C130.497 165.689 129.641 164.418 128.763 163.113L128.762 163.112L128.761 163.11L128.761 163.11L128.761 163.11L128.761 163.11L128.76 163.11L128.76 163.109L128.76 163.109L128.76 163.109L128.76 163.109L128.76 163.109L128.76 163.108L128.76 163.108L128.759 163.108L128.759 163.108L128.759 163.108C128.539 162.781 128.318 162.453 128.091 162.125C127.476 161.113 126.776 160.234 125.983 159.355C125.705 159.014 124.895 158.029 124.596 157.67C124.522 157.579 124.441 157.482 124.359 157.382C124.114 157.086 123.849 156.766 123.657 156.488C123.571 156.362 123.466 156.204 123.353 156.033C123.062 155.592 122.714 155.067 122.471 154.79C122.305 154.59 121.932 154.148 121.6 153.755C121.386 153.503 121.19 153.27 121.076 153.135C120.721 152.691 120.356 152.311 119.983 151.923C119.706 151.634 119.424 151.341 119.139 151.014C118.473 150.259 116.937 148.493 116.332 147.746C115.932 147.221 115.492 146.797 115.032 146.353L115.032 146.353C114.815 146.143 114.593 145.929 114.369 145.698C113.977 145.284 113.64 144.851 113.306 144.423C113.186 144.268 113.066 144.114 112.944 143.961C112.537 143.504 112.17 143.017 111.813 142.543L111.812 142.542L111.812 142.542L111.812 142.542L111.812 142.542L111.812 142.542L111.812 142.542C111.599 142.26 111.39 141.982 111.177 141.717C110.885 141.405 110.545 141.101 110.199 140.79C109.644 140.293 109.072 139.781 108.647 139.195L107.709 138.099C107.39 137.74 107.142 137.387 106.899 137.041L106.899 137.041C106.674 136.719 106.452 136.404 106.181 136.094C105.936 135.819 105.686 135.548 105.437 135.277C104.954 134.752 104.471 134.227 104.018 133.679C103.949 133.601 103.768 133.386 103.569 133.149L103.568 133.148C103.422 132.974 103.266 132.789 103.136 132.636C103.213 132.909 103.271 133.19 103.305 133.478C103.595 135.449 102.179 136.938 100.656 137.873C99.2392 138.892 97.2637 139.596 95.5741 138.803C94.2728 138.205 93.3298 137.271 92.4978 136.358C92.2776 136.133 92.0681 135.893 91.8687 135.641C92.0223 136.064 92.1216 136.469 92.2094 136.827C92.2971 137.185 92.3734 137.496 92.4808 137.732C92.7253 138.238 93.0365 138.633 93.3785 139.067C93.4603 139.171 93.5438 139.277 93.6286 139.387C93.8554 139.698 94.1087 140.039 94.3721 140.394L94.3738 140.396L94.3742 140.396C95.0514 141.309 95.7953 142.311 96.3294 143.112C96.6837 143.666 97.1322 144.169 97.5825 144.674C97.875 145.003 98.1683 145.332 98.4371 145.676C98.6584 145.936 98.9184 146.148 99.1886 146.368C99.486 146.61 99.7958 146.862 100.08 147.199C100.429 147.606 100.661 148.043 100.888 148.471C101.104 148.878 101.316 149.277 101.62 149.631C102.277 150.455 103.442 151.927 104.086 152.746L104.436 153.19C104.771 153.586 105.048 154.082 105.309 154.55L105.309 154.55C105.453 154.808 105.592 155.058 105.733 155.276C105.849 155.356 105.987 155.444 106.137 155.54C106.717 155.91 107.475 156.394 107.794 156.94L109.134 158.796C109.413 159.181 109.628 159.549 109.823 159.882C110.007 160.196 110.172 160.478 110.354 160.712C110.671 161.128 110.911 161.559 111.122 161.94C111.277 162.22 111.417 162.472 111.561 162.67C111.768 162.963 112.044 163.259 112.35 163.587L112.351 163.588L112.351 163.588L112.351 163.588C112.557 163.809 112.778 164.045 112.999 164.305C113.362 164.774 113.718 165.153 114.109 165.57L114.109 165.57C114.233 165.702 114.36 165.838 114.493 165.981C115.098 166.736 115.717 167.398 116.4 168.106L116.731 168.473L116.735 168.477L116.737 168.48L116.737 168.481L116.74 168.484C117.135 168.922 117.606 169.444 117.932 169.809C118.224 170.159 118.477 170.528 118.728 170.893C119.026 171.327 119.32 171.755 119.672 172.142C120.142 172.826 120.638 173.461 121.131 174.092L121.131 174.092C121.443 174.492 121.754 174.891 122.057 175.3C122.369 175.705 122.552 175.846 123.06 176.204C123.92 176.751 124.555 177.644 125.17 178.509C125.418 178.859 125.663 179.204 125.919 179.519C126.085 179.754 126.228 180.007 126.369 180.255L126.369 180.255C126.571 180.612 126.766 180.958 127.015 181.222C127.199 181.397 127.425 181.573 127.663 181.757C128.071 182.073 128.509 182.413 128.812 182.818C129.028 183.081 129.259 183.441 129.487 183.796C129.695 184.12 129.9 184.44 130.092 184.682C130.803 185.503 131.534 186.307 132.264 187.109L132.264 187.109L132.264 187.109L132.264 187.109L132.264 187.109L132.264 187.109L132.264 187.109L132.264 187.109L132.264 187.109L132.265 187.11L132.265 187.11L132.266 187.111C132.616 187.496 132.966 187.88 133.313 188.266C133.374 188.352 133.776 188.865 134.163 189.36L134.164 189.361L134.165 189.362L134.172 189.371C134.512 189.805 134.839 190.223 134.913 190.323C135.239 190.747 135.491 191.188 135.698 191.549C135.859 191.831 135.992 192.064 136.112 192.204C136.369 192.531 136.686 192.773 137.01 193.02C137.32 193.256 137.637 193.498 137.917 193.826C138.109 194.081 138.268 194.366 138.427 194.651C138.648 195.047 138.867 195.442 139.175 195.75C139.419 195.992 139.677 196.18 139.949 196.378L139.949 196.378L139.949 196.378C140.162 196.533 140.383 196.695 140.613 196.893C141.134 197.33 141.522 197.79 141.867 198.198L141.867 198.199C142.014 198.372 142.152 198.536 142.29 198.685C142.683 199.135 143.106 199.475 143.536 199.819C143.969 200.166 144.409 200.518 144.829 200.994C145.06 201.258 145.228 201.495 145.385 201.718C145.614 202.042 145.823 202.336 146.177 202.645L147.022 203.396L147.849 204.13C148.057 204.276 148.331 204.417 148.625 204.568C149.266 204.898 150.004 205.278 150.375 205.875C150.567 206.116 150.711 206.382 150.849 206.638C151.032 206.978 151.206 207.3 151.472 207.522C151.697 207.715 151.991 207.94 152.29 208.169C152.638 208.435 152.992 208.706 153.251 208.938C153.492 209.129 153.796 209.281 154.113 209.439C154.463 209.614 154.828 209.797 155.141 210.047C155.647 210.405 156.004 210.981 156.322 211.493C156.451 211.703 156.575 211.901 156.698 212.07L156.717 212.091C156.771 212.151 156.779 212.16 156.933 212.287C157.196 212.507 157.488 212.728 157.793 212.959L157.795 212.96L157.795 212.961L157.796 212.961C158.095 213.188 158.406 213.423 158.712 213.674C158.992 213.896 159.31 214.075 159.644 214.264C159.951 214.437 160.272 214.618 160.59 214.847C161.146 215.264 161.506 215.708 161.802 216.074C162.004 216.322 162.176 216.535 162.36 216.678C162.843 217.034 163.387 217.296 163.94 217.563L163.94 217.563L163.941 217.563L163.942 217.564L163.942 217.564C164.098 217.639 164.253 217.714 164.408 217.791C164.684 217.923 164.987 218.031 165.297 218.142L165.297 218.142L165.298 218.142L165.298 218.142L165.298 218.142L165.298 218.142L165.298 218.142L165.298 218.142L165.298 218.142L165.299 218.142L165.299 218.142C165.703 218.286 166.12 218.435 166.503 218.645C167.672 219.123 168.991 219.733 170.13 220.266C170.732 220.563 171.231 220.857 171.716 221.143L171.716 221.143C172.053 221.342 172.384 221.536 172.737 221.725C172.99 221.88 173.272 222.108 173.529 222.315L173.53 222.315C173.74 222.484 173.933 222.64 174.081 222.732C174.094 222.743 174.142 222.769 174.204 222.8C174.249 222.822 174.3 222.848 174.352 222.873L174.415 222.904L174.482 222.937L174.968 223.167C175.284 223.313 175.642 223.466 175.916 223.569L176.167 223.662C176.667 224.094 177.097 224.563 177.524 225.028C177.896 225.434 178.265 225.836 178.676 226.21C179.295 226.734 180.08 227.46 180.425 228.236L180.455 228.296L180.486 228.358L180.553 228.493C180.813 229.021 180.973 229.345 181.428 229.734L182.277 230.485C182.457 230.648 182.641 230.847 182.821 231.041L182.822 231.042C182.915 231.142 183.007 231.241 183.096 231.334L183.881 232.115C184.154 232.388 184.453 232.708 184.709 233.011L185.434 233.894L185.772 234.295L186.126 234.692C186.326 234.92 186.567 235.186 186.821 235.467L186.821 235.467C187.375 236.078 187.994 236.76 188.4 237.286C189.057 238.092 189.759 238.861 190.463 239.633L190.463 239.634L190.463 239.634L190.463 239.634L190.463 239.634L190.464 239.634L190.464 239.635L190.464 239.635L190.464 239.635L190.464 239.635L190.464 239.636L190.465 239.636L190.466 239.637C191.136 240.373 191.808 241.11 192.445 241.881L192.799 242.265C192.893 242.368 192.992 242.471 193.092 242.576C193.411 242.91 193.746 243.262 194.032 243.677C194.269 244.015 194.431 244.433 194.576 244.806C194.653 245.003 194.725 245.188 194.8 245.341C194.928 245.602 194.97 245.653 195.184 245.832C195.21 245.85 195.236 245.869 195.264 245.888C195.343 245.941 195.429 245.999 195.52 246.059L195.52 246.059C196.099 246.443 196.874 246.956 197.155 247.569C197.368 247.931 197.48 248.259 197.588 248.574L197.588 248.574C197.681 248.845 197.771 249.107 197.919 249.373C198.152 249.712 198.422 249.961 198.71 250.227C198.843 250.349 198.979 250.475 199.118 250.615C199.28 250.794 199.412 250.961 199.54 251.127C199.894 251.592 199.809 252.253 199.344 252.612C198.883 252.966 198.226 252.88 197.868 252.424L197.847 252.398C197.748 252.275 197.652 252.157 197.565 252.061C197.505 252.006 197.443 251.95 197.38 251.893C197.013 251.561 196.611 251.197 196.323 250.807C195.995 250.455 195.793 249.917 195.607 249.423L195.607 249.423C195.5 249.138 195.399 248.868 195.282 248.656C195.067 248.336 194.797 248.177 194.49 247.996C194.285 247.876 194.064 247.746 193.831 247.551C193.18 247.123 192.846 246.357 192.542 245.659C192.425 245.392 192.313 245.135 192.189 244.91C190.962 243.549 189.706 242.17 188.459 240.8L188.455 240.796L188.165 240.477C187.627 239.951 187.088 239.307 186.573 238.691L186.573 238.691L186.573 238.69C186.353 238.428 186.138 238.171 185.929 237.93C185.51 237.476 184.988 236.907 184.516 236.392C184.341 236.2 184.172 236.016 184.018 235.848C183.858 235.668 183.518 235.262 183.241 234.931L183.239 234.93L183.237 234.928L183.051 234.706C182.999 234.644 182.954 234.59 182.917 234.547C182.647 234.217 182.136 233.72 181.726 233.322L181.725 233.321L181.724 233.321C181.604 233.204 181.492 233.095 181.398 233.002C181.018 232.571 180.28 231.889 179.815 231.505C179.482 231.206 179.107 230.818 178.864 230.421C178.686 230.146 178.565 229.9 178.453 229.67C178.318 229.393 178.194 229.139 177.993 228.885C177.767 228.633 177.475 228.377 177.178 228.116L177.178 228.116C176.814 227.796 176.442 227.469 176.172 227.135C175.755 226.669 175.301 226.193 174.867 225.782C174.5 225.642 174.151 225.481 173.805 225.321C173.678 225.263 173.551 225.204 173.424 225.147C172.927 224.96 172.49 224.618 172.075 224.293C171.799 224.077 171.533 223.868 171.265 223.718C170.894 223.528 170.541 223.321 170.204 223.123C169.805 222.889 169.428 222.668 169.072 222.506C167.83 221.934 166.678 221.414 165.428 220.906C165.304 220.842 165.1 220.748 164.976 220.697C163.709 220.253 162.33 219.673 161.157 218.918C160.652 218.627 160.269 218.173 159.903 217.741C159.637 217.425 159.38 217.121 159.092 216.9C158.929 216.776 158.704 216.652 158.443 216.508C158.056 216.294 157.588 216.036 157.117 215.667C156.848 215.437 156.554 215.223 156.253 215.004C155.728 214.622 155.183 214.225 154.719 213.704C154.51 213.466 154.344 213.187 154.185 212.918C153.996 212.599 153.816 212.295 153.584 212.095C153.358 211.939 153.089 211.803 152.808 211.661C152.386 211.447 151.938 211.221 151.574 210.892C151.544 210.868 151.505 210.835 151.463 210.798L151.46 210.796L151.46 210.796L151.459 210.796C151.363 210.714 151.248 210.617 151.177 210.564C151.001 210.423 150.819 210.287 150.635 210.15L150.635 210.149C150.129 209.772 149.615 209.389 149.215 208.891C148.969 208.582 148.824 208.308 148.689 208.055C148.538 207.772 148.401 207.514 148.152 207.261C147.919 207.091 147.654 206.966 147.374 206.833C146.974 206.644 146.544 206.44 146.134 206.071L145.26 205.299C145.157 205.206 145.038 205.103 144.913 204.994L144.913 204.994L144.912 204.994L144.912 204.994C144.565 204.692 144.168 204.347 143.911 204.053C143.698 203.802 143.523 203.565 143.356 203.339L143.356 203.339C143.02 202.884 142.716 202.472 142.192 202.082L142.157 202.054L142.157 202.054C141.574 201.589 140.855 201.016 140.357 200.435C140.19 200.248 140.034 200.066 139.886 199.894L139.886 199.894C139.542 199.492 139.242 199.142 138.941 198.903C137.964 198.203 136.807 197.282 136.261 196.155C136.23 196.105 136.171 195.997 136.107 195.88L136.107 195.88C136.015 195.712 135.913 195.526 135.873 195.473C135.779 195.397 135.675 195.317 135.565 195.232L135.565 195.231C135.079 194.855 134.478 194.389 134.085 193.881C133.778 193.5 133.572 193.14 133.374 192.794C133.206 192.501 133.044 192.218 132.831 191.94C132.787 191.896 132.35 191.33 131.952 190.815L131.952 190.815C131.609 190.37 131.294 189.962 131.286 189.96C131.162 189.815 130.906 189.533 130.774 189.397C130.341 188.959 129.894 188.453 129.454 187.954C129.113 187.569 128.777 187.187 128.453 186.845C128.048 186.438 127.694 185.897 127.35 185.373C127.148 185.064 126.949 184.76 126.746 184.494C126.526 184.231 126.238 184.014 125.938 183.787C125.664 183.58 125.38 183.366 125.129 183.103C124.693 182.67 124.386 182.134 124.096 181.629C123.975 181.418 123.857 181.212 123.734 181.021C123.676 180.943 123.61 180.856 123.541 180.764L123.538 180.76L123.535 180.756L123.534 180.756C123.262 180.395 122.929 179.954 122.74 179.643C122.371 178.97 121.922 178.596 121.419 178.175C121.131 177.935 120.824 177.679 120.504 177.343C120.193 176.982 119.908 176.561 119.632 176.152L119.632 176.152L119.632 176.152L119.632 176.152L119.632 176.152L119.631 176.152L119.631 176.151L119.631 176.151L119.631 176.15C119.46 175.899 119.294 175.652 119.126 175.428C118.807 175.042 118.519 174.591 118.24 174.153L118.24 174.153L118.239 174.153L118.239 174.152L118.239 174.152L118.239 174.152C118.055 173.864 117.875 173.582 117.693 173.328C117.399 172.976 117.125 172.537 116.86 172.115L116.86 172.115L116.86 172.115L116.86 172.114C116.705 171.867 116.554 171.624 116.404 171.408C116.123 171.059 115.755 170.632 115.405 170.226L115.404 170.226C115.186 169.973 114.975 169.728 114.796 169.514L114.682 169.39L114.552 169.248L114.552 169.247C114.007 168.652 113.436 168.027 112.935 167.389C112.607 167.039 111.728 166.097 111.416 165.666C111.265 165.484 111.094 165.301 110.913 165.106L110.912 165.105L110.912 165.105L110.912 165.105L110.912 165.105C110.581 164.75 110.216 164.358 109.872 163.874C109.618 163.5 109.427 163.153 109.255 162.839C109.071 162.504 108.907 162.207 108.711 161.958C108.425 161.567 108.201 161.181 108.001 160.834L108.001 160.834C107.825 160.53 107.667 160.257 107.5 160.038L106.173 158.216C105.932 157.851 105.658 157.685 105.183 157.396C105.019 157.296 104.83 157.181 104.611 157.038C104.092 156.676 103.789 156.117 103.49 155.565C103.286 155.187 103.083 154.813 102.815 154.508C102.047 153.54 101.078 152.324 100.336 151.394L99.9816 150.95C99.6374 150.568 99.3805 150.093 99.132 149.632C98.9278 149.254 98.7293 148.887 98.4926 148.59C98.2888 148.368 98.0343 148.156 97.7692 147.936C97.3683 147.602 96.9431 147.249 96.6323 146.807L96.4659 146.606L96.1075 146.197L96.0652 146.149C95.83 145.886 95.5805 145.606 95.331 145.297C94.9428 144.802 94.6023 144.298 94.2636 143.797C93.9619 143.351 93.6615 142.906 93.3299 142.472L92.0115 140.65L91.9217 140.533C91.6002 140.117 91.234 139.642 90.9534 139.174C90.5606 138.591 90.3497 137.712 90.1843 137.024L90.1843 137.024C90.1161 136.74 90.0556 136.488 89.9934 136.302C89.8926 136.011 89.738 135.692 89.5686 135.342C89.4079 135.01 89.234 134.651 89.0803 134.263C88.7603 133.495 88.6451 132.595 88.5598 131.805C88.5124 131.429 88.4526 131.057 88.393 130.686C88.2006 129.487 88.0104 128.303 88.2483 127.052C88.4019 125.422 90.0446 124.266 91.4184 123.626C92.1422 123.39 92.8445 123.484 93.5424 123.579C93.8773 123.624 94.2111 123.669 94.5459 123.677C94.7493 123.689 94.9622 123.706 95.1782 123.733C94.9572 123.447 94.7345 123.164 94.5076 122.884C93.8288 122.025 93.1034 121.176 92.3766 120.326L92.3766 120.326C91.5181 119.321 90.6576 118.314 89.8697 117.286C89.6707 117.013 89.5 116.746 89.3345 116.487C89.0067 115.975 88.6991 115.494 88.2313 115.055C88.0674 114.875 87.8911 114.714 87.7144 114.553C87.4174 114.282 87.1196 114.011 86.8788 113.647C84.7284 110.395 83.4953 106.359 83.9348 102.425C84.0633 101.791 84.2423 101.273 84.4262 100.742C84.5538 100.373 84.6838 99.9975 84.8009 99.5709C84.9631 99.0888 85.1508 98.5427 85.5604 98.0264C86.2089 97.2414 87.0025 96.819 87.8729 96.4094C88.5044 96.0723 89.3065 95.9699 89.9295 96.0126C90.2524 96.0301 90.5788 96.0481 90.9031 96.0804C90.8745 96.0473 90.8458 96.0147 90.8169 95.9826C90.6063 95.7514 90.3742 95.5119 90.1357 95.2659C89.6304 94.7445 89.0968 94.194 88.6793 93.6316C87.9881 92.8167 87.1945 91.814 86.7721 90.8113L86.4479 90.0945C85.8164 88.8871 85.1977 87.5985 84.9161 86.2332C84.5365 84.7593 84.7965 83.2497 85.0475 81.7922L85.0475 81.7918C85.0843 81.5786 85.1208 81.3666 85.1551 81.1559C85.2703 79.9826 85.9359 78.485 87.0153 77.7895L87.6639 77.3031C87.7239 77.2536 87.8118 77.1859 87.9041 77.1147L87.9042 77.1146L87.9045 77.1144L87.9045 77.1144L87.9045 77.1144C88.0351 77.0137 88.1745 76.9062 88.2569 76.8337C89.6351 75.5964 91.5167 75.093 93.33 75.2082C94.4777 75.1954 95.8132 75.43 96.85 76.0103C97.7673 76.4711 98.8852 77.0727 99.7087 77.6487C99.9471 77.8197 100.21 77.9844 100.478 78.153L100.478 78.153C100.907 78.4219 101.352 78.7007 101.74 79.0311C102.078 79.3111 102.421 79.6675 102.746 80.006L102.746 80.0061C102.991 80.2607 103.226 80.5052 103.442 80.6993C103.662 80.9008 103.941 81.092 104.234 81.2923L104.234 81.2923L104.234 81.2923L104.234 81.2923C104.623 81.5586 105.036 81.8408 105.362 82.1841C105.557 82.3899 105.745 82.6042 105.931 82.8167L105.931 82.8167C106.255 83.1857 106.574 83.5491 106.915 83.8524C107.089 83.977 107.261 84.107 107.431 84.2417C106.885 82.5366 106.821 80.7105 107.448 78.9843C107.727 78.2731 108.227 77.7255 108.706 77.2005C108.865 77.0263 109.022 76.8546 109.168 76.6803C109.313 76.515 109.449 76.345 109.585 76.175L109.585 76.175L109.585 76.175L109.585 76.1749C109.978 75.6825 110.37 75.1911 110.998 74.82C111.783 74.3763 112.718 74.1758 113.592 74.0862C114.855 73.9496 116.229 74.1246 117.428 74.5214C118.275 74.8849 119.024 75.3116 119.792 75.7495C120.061 75.9027 120.332 76.0573 120.611 76.211C121.136 76.5395 122.006 77.0728 122.552 77.3886C123.041 77.7228 123.545 78.0105 124.051 78.2996C124.65 78.6415 125.253 78.9855 125.838 79.411C126.155 79.6736 126.409 79.958 126.657 80.2352C127.05 80.6739 127.426 81.0945 128.009 81.3822C128.675 81.732 129.486 82.1971 130.075 82.7304C130.202 82.8369 130.392 82.9992 130.591 83.1701L130.592 83.1704C130.88 83.417 131.189 83.6816 131.363 83.8227C131.681 84.0816 132.049 84.2982 132.421 84.5176C132.877 84.7863 133.339 85.059 133.727 85.4184C134.584 86.1907 136.338 87.6627 137.243 88.3752C137.721 88.7745 138.062 89.1826 138.385 89.5704L138.385 89.5704L138.385 89.5705C138.653 89.8913 138.909 90.1982 139.222 90.4744C139.424 90.6536 139.643 90.8622 139.868 91.0775C140.319 91.5079 140.798 91.9649 141.228 92.2664C142.219 92.8713 143.13 93.7562 144.001 94.6039L144.002 94.6043L144.002 94.6051C144.274 94.8691 144.542 95.1296 144.807 95.3768L144.882 95.4573C145.329 95.9375 145.864 96.5133 146.373 96.9171C146.587 97.0956 146.801 97.2766 147.016 97.458L147.018 97.4596L147.019 97.4607L147.019 97.4611L147.019 97.4611C147.66 98.0027 148.306 98.5483 148.963 99.0462L149.432 99.4216C149.927 99.7971 150.439 100.433 150.751 100.859C151.151 101.46 151.64 101.726 152.169 102.015C152.531 102.212 152.911 102.419 153.294 102.75C153.633 103.045 153.937 103.366 154.235 103.68L154.235 103.681L154.235 103.681C154.462 103.92 154.685 104.155 154.915 104.371C155.259 104.67 155.598 105.033 155.926 105.383L155.926 105.383L155.926 105.383L155.926 105.383L155.927 105.384L155.927 105.384C156.131 105.602 156.33 105.815 156.524 106.005C156.799 106.275 157.115 106.482 157.442 106.683C156.297 104.424 155.449 101.973 155.914 99.4047C156.315 96.6484 159.101 91.4559 162.493 92.9919C164.237 94.0857 165.785 95.3971 167.327 96.7032C168.071 97.3331 168.813 97.9617 169.575 98.5642C170.07 98.9439 169.546 99.6948 169.021 99.3578C167.89 98.6081 166.772 97.7976 165.658 96.9899C164.838 96.3954 164.02 95.8024 163.201 95.2362C163.076 95.1548 162.95 95.0681 162.822 94.9809C162.408 94.698 161.985 94.4089 161.597 94.2719C160.27 94.2463 159.416 95.4836 158.708 96.6442C158.188 97.5828 157.821 98.6623 157.629 99.7119C157.26 102.225 158.257 104.656 159.227 107.019C159.503 107.693 159.778 108.36 160.017 109.023C160.106 109.118 160.258 109.265 160.338 109.337C160.636 109.619 160.952 109.912 161.272 110.208L161.273 110.209L161.277 110.213L161.277 110.214C161.953 110.84 162.65 111.485 163.256 112.098C163.841 112.653 164.191 112.93 164.946 113.34C165.684 113.809 166.273 114.389 166.828 114.999C167.102 115.264 167.382 115.534 167.665 115.805C168.188 116.308 168.717 116.816 169.221 117.312C169.552 117.631 169.877 117.83 170.215 118.038C170.479 118.2 170.752 118.367 171.043 118.6C171.533 118.998 171.993 119.425 172.452 119.85C172.845 120.214 173.236 120.576 173.641 120.917C173.807 121.071 173.965 121.224 174.12 121.374C174.497 121.738 174.858 122.086 175.263 122.398C175.432 122.514 175.644 122.64 175.87 122.775L175.87 122.775C176.346 123.057 176.883 123.376 177.204 123.72C177.472 123.977 177.716 124.257 177.96 124.537C178.433 125.08 178.904 125.621 179.547 125.982C179.998 126.24 180.474 126.639 180.913 127.008C181.084 127.152 181.25 127.291 181.407 127.415C182.017 127.88 182.683 128.388 183.246 128.99L183.292 129.044L183.292 129.044C183.766 129.604 184.161 130.071 184.752 130.521C185.597 131.133 186.437 131.839 187.263 132.536L187.263 132.536L187.264 132.536C187.614 132.831 187.961 133.123 188.306 133.406C188.567 133.63 188.783 133.851 188.997 134.069L188.997 134.069C189.289 134.367 189.575 134.658 189.957 134.942C190.243 135.162 190.481 135.425 190.719 135.688C190.984 135.98 191.249 136.272 191.579 136.507C191.778 136.666 191.993 136.812 192.213 136.956C192.093 136.733 191.968 136.506 191.834 136.273C191.715 135.996 191.446 135.454 191.267 135.202C190.737 134.408 190.005 133.695 189.312 133.02C189.123 132.836 188.937 132.655 188.758 132.476C188.266 132.053 187.788 131.56 187.312 131.069C187.005 130.752 186.698 130.437 186.39 130.142C186.053 129.796 185.656 129.352 185.447 128.87C185.2 128.269 185.068 128.004 184.611 127.637C184.5 127.556 184.462 127.539 184.225 127.433L184.223 127.432C183.736 127.228 183.263 126.839 182.896 126.464C182.62 126.181 182.388 125.851 182.166 125.536C181.997 125.295 181.834 125.064 181.663 124.868C181.319 124.514 180.982 124.115 180.652 123.725L180.652 123.725L180.652 123.725C180.422 123.453 180.196 123.185 179.973 122.94C179.724 122.674 179.424 122.452 179.114 122.223L179.114 122.223C178.718 121.93 178.304 121.625 177.959 121.199C177.656 120.824 177.461 120.479 177.271 120.144L177.271 120.144L177.271 120.143L177.271 120.143L177.271 120.143L177.271 120.143L177.271 120.143L177.271 120.143L177.271 120.143L177.271 120.143C177.145 119.921 177.022 119.704 176.871 119.484C176.626 119.153 176.329 118.87 176.025 118.582C175.71 118.283 175.389 117.978 175.113 117.606C174.994 117.442 174.868 117.278 174.741 117.113C174.455 116.741 174.161 116.359 173.91 115.934C173.426 115.086 173.168 114.326 172.906 113.552L172.906 113.552C172.843 113.365 172.779 113.176 172.711 112.985C172.581 112.578 172.513 112.131 172.446 111.697L172.446 111.696L172.446 111.696C172.393 111.347 172.341 111.007 172.259 110.703C171.849 109.231 171.5 107.605 171.333 106.065C171.305 105.755 171.251 105.446 171.197 105.133C171.092 104.53 170.984 103.915 171.06 103.257C171.08 102.8 171.315 102.252 171.508 101.802C171.602 101.584 171.685 101.39 171.73 101.239C171.737 101.22 171.74 101.206 171.743 101.192C171.746 101.183 171.748 101.173 171.751 101.162L171.777 101.039L171.82 100.753C172.012 98.5896 173.432 96.6654 174.896 95.1379C174.951 95.0817 175.01 95.0212 175.071 94.9583L175.071 94.9581C175.339 94.682 175.652 94.3592 175.937 94.1438C176.288 93.8693 176.612 93.6736 176.932 93.4803C177.164 93.3402 177.394 93.2012 177.631 93.0344C179.052 92.019 180.127 91.8142 181.731 92.7358C182.222 93.0259 182.627 93.3672 183.002 93.811C183.335 94.2471 183.498 94.5899 183.657 94.9243C183.766 95.1525 183.873 95.3768 184.031 95.6243C184.292 96.0126 184.633 96.3767 184.978 96.745C185.281 97.0687 185.587 97.3956 185.844 97.7448C186.03 97.9451 186.25 98.1533 186.48 98.37C187.007 98.869 187.584 99.4139 187.905 100.015C188.357 100.796 188.733 101.384 189.338 102.003C189.501 102.177 189.67 102.369 189.842 102.564L189.843 102.565L189.843 102.565C190.23 103.005 190.635 103.464 191.028 103.795C191.62 104.239 192.164 104.885 192.687 105.505C193.027 105.909 193.358 106.301 193.686 106.62C194.65 107.332 195.76 108.01 196.805 108.638L197.186 108.872L197.187 108.872L197.188 108.873L197.19 108.874C197.999 109.371 198.923 109.939 199.668 110.434C199.953 110.651 200.186 110.877 200.408 111.093C200.754 111.43 201.074 111.741 201.524 111.949C201.755 112.074 201.989 112.19 202.224 112.307C202.58 112.483 202.938 112.661 203.29 112.874C203.564 113.029 203.888 113.169 204.224 113.312L204.224 113.313L204.225 113.313L204.225 113.313C204.757 113.541 205.316 113.781 205.748 114.116C206.117 114.395 206.362 114.653 206.591 114.893C206.775 115.086 206.948 115.267 207.165 115.439C207.442 115.626 207.707 115.715 208.032 115.824C208.218 115.886 208.423 115.955 208.662 116.053C209.512 116.335 210.413 117.188 211.038 117.781L211.039 117.781L211.039 117.781L211.12 117.858C211.225 117.945 211.344 118.039 211.47 118.14L211.471 118.141C212.044 118.597 212.782 119.186 213.198 119.769C213.382 120.008 213.581 120.242 213.781 120.476C214.099 120.85 214.419 121.226 214.687 121.63C215.033 122.105 215.192 122.59 215.344 123.055C215.48 123.467 215.61 123.863 215.86 124.224C215.965 124.363 216.111 124.526 216.271 124.704L216.271 124.704C216.597 125.068 216.979 125.495 217.191 125.913C217.415 126.299 217.577 126.787 217.723 127.224C217.803 127.463 217.878 127.688 217.955 127.872C218.064 128.173 218.284 128.504 218.548 128.899L218.548 128.899L218.548 128.9L218.548 128.9L218.548 128.9L218.549 128.901C218.759 129.216 218.996 129.572 219.226 129.988C219.391 130.334 219.574 130.639 219.771 130.968C220.01 131.366 220.27 131.798 220.541 132.377C220.744 132.878 220.818 133.304 220.878 133.651L220.878 133.651L220.879 133.653C220.886 133.695 220.893 133.737 220.9 133.776C220.908 133.821 220.916 133.864 220.925 133.905C220.993 134.272 221.07 134.519 221.245 134.818C221.344 135.014 221.522 135.364 221.697 135.71L221.706 135.728L221.713 135.742L221.716 135.746C221.881 136.073 222.043 136.39 222.132 136.567C222.614 137.651 223.51 139.669 223.971 140.757C224.138 141.142 224.361 141.534 224.582 141.921L224.582 141.922C224.738 142.196 224.892 142.467 225.025 142.733C225.58 143.936 226.254 145.468 226.749 146.701C226.987 147.328 227.307 147.858 227.637 148.405L227.637 148.405L227.638 148.405L227.638 148.406L227.638 148.406L227.638 148.406L227.639 148.407C227.84 148.741 228.045 149.081 228.238 149.453C229.078 150.976 229.381 152.375 229.774 154.197C229.841 154.842 229.77 155.246 229.702 155.639C229.662 155.867 229.623 156.091 229.612 156.356C229.62 156.634 229.699 157.132 229.765 157.555L229.766 157.557C229.799 157.768 229.829 157.96 229.846 158.097L229.944 158.75L229.983 159.027C229.996 159.1 230.008 159.176 230.03 159.257C230.234 159.966 230.52 161.011 230.606 161.843C230.789 162.675 231.024 163.793 230.951 164.702C230.835 165.65 230.979 166.321 231.141 167.077L231.141 167.077C231.229 167.487 231.322 167.922 231.382 168.439C231.416 168.945 231.383 169.379 231.352 169.8C231.319 170.225 231.288 170.637 231.327 171.102C231.337 171.485 231.315 171.829 231.294 172.161C231.264 172.636 231.235 173.084 231.305 173.581C231.333 173.805 231.374 174.043 231.417 174.299C231.446 174.472 231.477 174.653 231.506 174.844C231.618 175.586 231.609 176.23 231.601 176.847C231.594 177.283 231.588 177.706 231.625 178.142C231.661 178.459 231.729 178.749 231.798 179.05L231.798 179.05L231.799 179.051L231.799 179.051L231.799 179.051L231.799 179.051C231.885 179.426 231.976 179.817 232.014 180.292C232.048 181.175 231.985 182.062 231.716 182.908C231.874 184.294 232.142 186.111 232.402 187.656C232.472 188.105 232.625 188.573 232.799 189.106C232.89 189.385 232.987 189.682 233.08 190.003C233.162 190.29 233.222 190.553 233.28 190.805C233.376 191.224 233.464 191.613 233.635 192.034L233.75 192.29L234.271 193.446C234.403 193.732 234.518 193.954 234.668 194.218C234.851 194.556 235.105 194.816 235.395 195.114C235.721 195.447 236.092 195.827 236.46 196.416L237.121 197.525C237.243 197.731 237.355 197.883 237.472 198.041L237.472 198.041C237.592 198.203 237.716 198.371 237.859 198.609C237.983 198.833 238.091 199.04 238.189 199.227C238.492 199.805 238.7 200.203 239.002 200.397C239.108 200.481 239.248 200.579 239.402 200.687L239.402 200.687C239.729 200.916 240.122 201.19 240.398 201.489C240.71 201.849 241.01 202.228 241.31 202.607L241.31 202.608L241.31 202.608C241.756 203.172 242.203 203.737 242.697 204.249C243.553 205.221 244.438 206.169 245.322 207.116C245.836 207.667 246.349 208.217 246.857 208.772C247.119 209.08 247.318 209.452 247.507 209.805L247.507 209.805C247.672 210.114 247.829 210.408 248.014 210.632L248.44 211.114L249.289 212.074L249.503 212.313L249.554 212.373C249.827 212.639 250.08 212.782 250.37 212.945C250.616 213.084 250.887 213.237 251.218 213.491C251.728 213.968 252.07 214.385 252.383 214.767L252.384 214.767L252.384 214.767C252.6 215.03 252.802 215.276 253.036 215.513C253.445 215.932 253.441 216.601 253.023 217.011C252.605 217.421 251.935 217.416 251.525 216.998C251.26 216.727 251.005 216.427 250.749 216.127L250.749 216.127L250.749 216.127L250.749 216.126L250.749 216.126L250.748 216.126L250.748 216.126L250.748 216.126L250.748 216.126L250.748 216.126L250.748 216.126L250.748 216.126L250.748 216.126L250.748 216.126L250.748 216.125L250.748 216.125C250.477 215.808 250.206 215.489 249.921 215.202C249.768 215.087 249.551 214.961 249.313 214.821L249.313 214.821L249.313 214.821L249.312 214.82L249.311 214.82C248.84 214.543 248.284 214.218 247.967 213.841L247.911 213.781L247.694 213.542L246.832 212.586L246.401 212.109C246.081 211.771 245.864 211.371 245.655 210.989L245.655 210.989C245.476 210.661 245.305 210.347 245.082 210.095C244.593 209.572 244.096 209.053 243.598 208.533C242.113 206.98 240.619 205.418 239.293 203.737C239.226 203.66 239.16 203.576 239.094 203.492C238.938 203.294 238.778 203.092 238.601 202.948C238.448 202.814 238.252 202.681 238.043 202.538C237.659 202.277 237.23 201.985 236.937 201.604C236.633 201.254 236.356 200.731 236.123 200.292C236.027 200.11 235.938 199.943 235.858 199.808C235.792 199.698 235.754 199.648 235.665 199.533L235.665 199.532L235.665 199.532L235.665 199.532L235.605 199.454L235.546 199.377C235.346 199.129 234.99 198.54 234.72 198.091C234.622 197.929 234.536 197.786 234.471 197.683C234.249 197.335 233.955 197.032 233.653 196.72C233.277 196.332 232.888 195.931 232.607 195.413C232.23 194.761 231.917 194.06 231.615 193.384C231.551 193.241 231.488 193.1 231.425 192.96C231.212 192.465 231.067 191.863 230.934 191.314L230.934 191.313C230.878 191.081 230.824 190.857 230.768 190.656C230.703 190.426 230.621 190.181 230.533 189.92L230.533 189.919C230.349 189.369 230.141 188.75 230.025 188.062C229.987 187.826 229.944 187.587 229.901 187.342L229.901 187.342C229.792 186.736 229.678 186.099 229.62 185.421C229.598 185.142 229.541 184.807 229.478 184.44L229.478 184.44L229.478 184.44V184.44C229.383 183.879 229.275 183.246 229.262 182.634C229.522 181.901 229.646 181.12 229.577 180.339C229.549 180.135 229.489 179.873 229.426 179.592L229.426 179.592L229.425 179.591L229.425 179.591L229.425 179.59L229.425 179.59L229.425 179.59L229.425 179.589C229.337 179.201 229.241 178.777 229.206 178.419C229.153 177.921 229.157 177.382 229.161 176.861V176.861V176.861V176.861V176.861V176.86V176.86V176.86V176.86V176.86V176.859V176.859V176.859V176.859V176.859V176.859V176.858V176.858V176.858V176.858V176.858V176.857C229.166 176.255 229.171 175.677 229.087 175.21C228.784 173.939 228.792 172.45 228.869 171.17C228.827 170.73 228.858 170.221 228.889 169.731C228.914 169.333 228.938 168.948 228.92 168.623C228.884 168.286 228.799 167.937 228.712 167.575C228.593 167.084 228.468 166.571 228.451 166.033C228.433 165.637 228.447 165.294 228.461 164.964C228.473 164.668 228.484 164.381 228.472 164.074C228.421 163.534 228.307 162.971 228.192 162.401C228.106 161.972 228.018 161.539 227.956 161.109C227.92 160.962 227.867 160.783 227.809 160.588L227.808 160.588L227.808 160.588C227.699 160.221 227.572 159.798 227.517 159.428C227.472 159.154 227.414 158.758 227.354 158.354L227.354 158.352L227.354 158.35L227.354 158.349C227.289 157.906 227.222 157.455 227.171 157.145C227.06 156.74 227.111 155.917 227.188 155.481C227.385 154.562 227.206 153.997 226.98 153.285L226.98 153.285C226.878 152.963 226.766 152.611 226.676 152.183C226.498 151.521 226.129 150.862 225.783 150.244L225.725 150.14C225.014 149.116 224.514 147.935 224.02 146.769L224.02 146.768C223.814 146.282 223.609 145.799 223.391 145.331C223.343 145.238 223.228 144.974 223.106 144.696L223.106 144.695L223.104 144.692C222.953 144.347 222.792 143.979 222.738 143.885C222.607 143.636 222.46 143.379 222.314 143.122L222.314 143.122L222.314 143.122C222.193 142.911 222.073 142.7 221.961 142.494C221.798 142.205 221.552 141.636 221.35 141.168L221.349 141.166C221.261 140.963 221.182 140.779 221.121 140.646C221.011 140.405 220.862 140.067 220.696 139.689L220.694 139.685L220.693 139.683L220.688 139.671L220.688 139.67C220.289 138.763 219.794 137.638 219.504 137.096C219.452 136.986 219.287 136.667 219.124 136.353C218.966 136.046 218.81 135.745 218.766 135.65C218.565 135.274 218.454 134.718 218.356 134.223C218.291 133.898 218.232 133.6 218.156 133.397C217.605 132.36 216.675 130.777 215.911 129.613C215.64 129.186 215.463 128.67 215.294 128.179C215.171 127.819 215.052 127.473 214.904 127.185C214.743 126.917 214.505 126.651 214.256 126.373C213.896 125.971 213.513 125.543 213.304 125.047C213.169 124.775 213.044 124.408 212.929 124.068L212.929 124.068C212.822 123.753 212.723 123.462 212.63 123.289C212.431 122.945 212.143 122.612 211.867 122.293L211.866 122.293L211.866 122.292C211.77 122.181 211.674 122.071 211.585 121.962C211.495 121.857 211.406 121.749 211.318 121.641L211.317 121.64C211.038 121.299 210.757 120.956 210.407 120.674C210.052 120.434 209.613 120.042 209.176 119.652L209.176 119.652C208.773 119.293 208.373 118.936 208.039 118.698C207.772 118.551 207.452 118.438 207.117 118.32C206.606 118.14 206.06 117.947 205.612 117.602C205.31 117.393 205.038 117.113 204.781 116.848L204.781 116.848L204.781 116.848C204.518 116.577 204.27 116.321 204.02 116.173L203.997 116.162C202.98 115.687 201.926 115.195 200.884 114.598C200.496 114.402 200.009 114.142 199.596 113.864C199.197 113.58 198.934 113.31 198.684 113.054C198.458 112.822 198.243 112.601 197.949 112.392C197.666 112.194 197.425 112.032 197.193 111.877L197.192 111.876C196.99 111.74 196.794 111.609 196.583 111.462C196.225 111.22 195.868 110.984 195.514 110.749C194.676 110.194 193.849 109.647 193.038 109.039C193.098 109.166 193.093 109.32 192.978 109.444C192.193 110.327 191.237 110.993 190.247 111.641C189.202 112.286 188.157 112.896 186.898 113.113C184.338 113.497 181.829 111.71 180.408 109.794C178.01 106.828 175.805 103.483 175.13 99.6647C175.104 99.4914 175.063 99.3001 175.02 99.1016C174.977 98.9013 174.932 98.6937 174.899 98.4896C174.693 98.8206 174.499 99.1645 174.307 99.524C174.149 99.7873 174.097 100.027 174.035 100.317C174.026 100.356 174.017 100.396 174.008 100.437C173.977 100.588 173.953 100.771 173.928 100.96C173.899 101.183 173.869 101.412 173.825 101.602C173.745 102.006 173.601 102.323 173.468 102.617L173.468 102.617C173.332 102.919 173.207 103.196 173.172 103.518C173.146 103.921 173.213 104.295 173.29 104.724C173.315 104.861 173.34 105.004 173.364 105.156C173.548 106.79 173.872 108.574 174.337 110.178C174.442 110.576 174.496 110.948 174.548 111.311L174.548 111.311L174.548 111.311L174.548 111.311L174.548 111.311L174.548 111.311L174.548 111.312L174.548 111.312L174.548 111.312L174.548 111.312L174.548 111.312L174.548 111.312L174.548 111.312L174.548 111.312C174.599 111.668 174.649 112.017 174.746 112.375L174.827 112.618C175.246 113.877 175.571 114.853 176.398 115.84C176.705 116.326 177.113 116.733 177.527 117.145C177.894 117.511 178.265 117.881 178.574 118.314C178.743 118.571 178.881 118.813 179.011 119.041C179.358 119.649 179.652 120.164 180.34 120.623C181.072 121.104 181.728 121.919 182.318 122.652C182.45 122.816 182.578 122.976 182.704 123.127C183.069 123.477 183.349 123.886 183.624 124.288L183.624 124.288C183.933 124.74 184.236 125.184 184.649 125.525C184.803 125.655 184.972 125.737 185.149 125.823C185.346 125.919 185.552 126.02 185.759 126.195C186.224 126.592 186.548 126.959 186.834 127.501C186.927 127.69 186.981 127.836 187.028 127.964C187.099 128.158 187.157 128.314 187.316 128.525C187.934 129.272 188.642 130.011 189.343 130.742L189.343 130.742L189.343 130.742L189.343 130.742L189.343 130.742L189.343 130.742L189.343 130.742L189.343 130.742L189.343 130.742L189.343 130.742L189.343 130.742L189.343 130.742L189.343 130.742L189.343 130.742L189.343 130.742L189.343 130.742L189.343 130.742L189.343 130.742L189.344 130.743L189.344 130.743L189.344 130.743L189.344 130.743C189.843 131.263 190.338 131.78 190.793 132.292C191.608 133.107 192.376 134.029 192.85 135.095C193.106 135.705 193.332 136.226 193.661 136.845C193.795 137.127 193.918 137.407 194.038 137.68C194.229 138.115 194.412 138.533 194.625 138.919C194.786 139.071 194.951 139.217 195.128 139.353L195.142 139.363C196.375 140.23 197.62 141.106 198.793 142.058C199.107 142.297 199.372 142.59 199.638 142.883L199.638 142.883C199.885 143.156 200.133 143.43 200.419 143.658C200.62 143.829 200.645 144.128 200.479 144.328C200.338 144.503 200.061 144.533 199.86 144.397ZM90.3842 131.457C90.657 131.856 91.0065 132.33 91.2648 132.676C91.9474 133.657 92.6258 134.549 93.5218 135.347C95.1261 136.857 96.8072 138.222 98.9576 136.874C99.2259 136.728 99.575 136.482 99.8989 136.255L99.899 136.255L99.899 136.255C100.075 136.131 100.243 136.013 100.387 135.918C102.802 134.361 101.284 131.778 100.025 129.637C99.7253 129.126 99.44 128.64 99.2264 128.2L99.1889 128.137C99.088 128.036 98.9855 127.936 98.8824 127.835L98.8823 127.835L98.882 127.835L98.8817 127.835C98.5233 127.484 98.1582 127.126 97.8313 126.75C97.6518 126.562 97.4668 126.386 97.2804 126.207L97.2803 126.207L97.2802 126.207L97.2801 126.207L97.28 126.207L97.2799 126.207L97.2798 126.207L97.2797 126.207L97.2796 126.207L97.2795 126.206L97.2794 126.206L97.2793 126.206L97.2787 126.206L97.2782 126.205C97.1134 126.048 96.9475 125.889 96.7833 125.721C96.1432 125.282 95.432 125.055 94.4691 125.115L93.8846 125.107C93.6635 125.108 93.4374 125.084 93.2129 125.061C92.6317 125 92.061 124.94 91.6147 125.316C91.0771 125.636 90.5054 126.122 90.1768 126.579C89.8526 127.372 89.8824 128.405 90.0147 129.301C90.1496 129.852 90.2332 130.427 90.317 131.003L90.3172 131.004L90.3172 131.004C90.3392 131.155 90.3612 131.306 90.3842 131.457ZM97.234 102.95C97.6434 103.428 98.172 103.907 98.6826 104.352C99.0262 105.469 99.3105 106.605 99.4397 107.746C99.5976 108.804 99.205 109.589 98.5565 110.327C97.6093 111.39 96.0093 111.663 94.6525 111.505C93.6968 111.321 92.7922 110.801 91.9816 110.204C90.7144 109.29 89.4557 108.053 88.3762 106.901C87.5528 105.997 86.4989 104.712 85.8077 103.714L85.5603 103.315L85.5604 103.3C85.5684 102.694 85.7216 102.189 85.9088 101.571L85.9487 101.44C86.0382 101.17 86.1111 100.883 86.1841 100.595L86.1842 100.595L86.1842 100.595L86.1842 100.595L86.1842 100.595L86.1842 100.595L86.1842 100.595L86.1842 100.595L86.1842 100.595L86.1842 100.595L86.1843 100.595L86.1843 100.595L86.1843 100.595L86.1843 100.595L86.1843 100.595C86.334 100.005 86.4839 99.4152 86.7764 98.9736C87.2543 98.355 88.0735 97.8686 88.7817 97.4931C89.0889 97.3438 89.4857 97.2798 89.9295 97.267C90.0206 97.2644 90.1117 97.2613 90.2027 97.2582H90.2028C90.7689 97.2391 91.3334 97.2201 91.8869 97.3169C92.1896 97.6945 92.5249 98.0838 92.9289 98.4615C93.1521 98.6671 93.3696 98.8504 93.5735 99.0221L93.5736 99.0221C93.7673 99.1852 93.9487 99.338 94.1108 99.4897C94.4772 99.8361 94.8214 100.255 95.1704 100.68L95.1704 100.68C95.4878 101.066 95.809 101.457 96.1545 101.802L97.234 102.95ZM88.8018 90.0671C88.9226 90.1695 89.0443 90.2698 89.1673 90.3712C89.3266 90.5026 89.488 90.6357 89.652 90.777C89.8593 90.9556 90.0559 91.133 90.247 91.3056C90.5949 91.6197 90.9249 91.9177 91.2691 92.1765L93.0142 93.3627C94.1448 94.0752 95.3608 94.7194 96.692 94.8986C98.6888 95.2741 100.558 94.4464 102.004 93.0981C103.054 92.2618 103.788 91.2379 104.329 90.0517C104.829 88.8613 104.577 87.4491 104.086 86.2672C103.426 84.7393 102.444 83.3127 101.478 81.9107L101.478 81.9106L101.358 81.7367C101.306 81.6839 101.254 81.6318 101.204 81.5804L101.204 81.5804C101.076 81.4505 100.954 81.3254 100.831 81.2071C100.006 80.4319 99.0249 79.8331 98.0382 79.2306C97.7595 79.0605 97.4804 78.8901 97.2041 78.7154L95.8516 77.9985C95.6383 77.8876 95.4377 77.7938 95.2415 77.7212C94.6185 77.4908 94.0127 77.4396 93.3001 77.4268C91.6959 77.3756 90.7444 77.606 89.618 78.566C89.5668 78.6062 89.4985 78.6607 89.424 78.7201L89.424 78.7202C89.269 78.8439 89.0875 78.9888 88.978 79.0695L88.3636 79.526C87.4894 80.0803 87.3535 81.0814 87.2193 82.0702V82.0702C87.1728 82.4133 87.1264 82.7549 87.0495 83.0759C86.5289 85.2476 87.3908 87.2785 88.4105 89.1985C88.5322 89.4829 88.6611 89.7788 88.8018 90.0671ZM116.319 76.3262C116.546 76.3735 116.774 76.4602 117.002 76.5675C117.156 76.6907 117.312 76.8114 117.471 76.9271C117.802 77.1766 118.142 77.4299 118.484 77.6851L118.484 77.6852L118.484 77.6854L118.485 77.6857C119.231 78.2421 119.99 78.8078 120.701 79.3634C122.006 80.4429 123.218 81.7314 124.225 83.0839C125.121 84.1293 125.099 85.5202 124.477 86.6935C123.563 88.4215 121.085 91.0455 118.968 90.6701C116.654 90.5047 114.692 88.86 112.925 87.378L112.925 87.3777C112.731 87.2153 112.54 87.0547 112.351 86.8983L112.121 86.6878L112.121 86.6876C111.339 85.9717 110.325 85.0429 109.555 84.2224C109.312 83.6061 109.145 82.9517 109.044 82.3208C108.984 81.395 109.023 80.4051 109.407 79.5646C109.554 79.2822 109.848 78.9606 110.187 78.5899C110.361 78.4004 110.546 78.1981 110.729 77.9816C110.884 77.803 111.023 77.6288 111.154 77.466L111.154 77.466L111.154 77.4659L111.154 77.4659L111.154 77.4659L111.154 77.4659L111.154 77.4658L111.154 77.4658L111.154 77.4658L111.154 77.4658L111.154 77.4657L111.154 77.4657L111.154 77.4657L111.154 77.4656L111.154 77.4656L111.154 77.4656L111.154 77.4655L111.154 77.4655L111.154 77.4655L111.154 77.4655C111.501 77.0336 111.783 76.682 112.099 76.5395C113.417 75.955 114.932 75.9976 116.319 76.3262ZM192.735 108.809C192.546 108.664 192.359 108.514 192.172 108.36C191.733 107.957 191.411 107.52 191.099 107.095L191.098 107.095C190.889 106.81 190.683 106.53 190.448 106.27C190.232 106.039 189.977 105.799 189.715 105.553L189.715 105.553C189.312 105.175 188.894 104.782 188.579 104.384L187.721 103.377L187.29 102.873C186.943 102.506 186.594 101.914 186.317 101.446C186.25 101.332 186.187 101.226 186.13 101.133C185.826 100.612 185.486 100.3 185.094 99.9403C184.913 99.7746 184.722 99.5986 184.517 99.3875C183.933 98.6963 183.391 98.0819 182.751 97.3736C182.308 96.8752 182.01 96.2578 181.78 95.7824L181.78 95.7823L181.78 95.7822L181.78 95.7822C181.638 95.4884 181.523 95.2489 181.415 95.1251C181.048 94.6814 180.489 94.3358 179.913 94.2078L179.913 94.2077C179.889 94.2017 179.884 94.2005 179.884 94.2008L179.885 94.2013C179.886 94.2021 179.889 94.2035 179.884 94.2035C179.879 94.1992 179.82 94.2035 179.709 94.2419C179.373 94.3701 178.991 94.6316 178.659 94.8585C178.615 94.8884 178.573 94.9176 178.531 94.9459C178.393 95.0342 178.252 95.1197 178.113 95.2046C177.725 95.4399 177.346 95.6704 177.055 95.94C176.995 95.9955 176.952 96.0382 176.863 96.1278L176.406 96.5928C176.366 96.632 176.326 96.6713 176.287 96.7107C176.33 96.8091 176.35 96.9186 176.342 97.0322L176.333 97.1514V97.1515V97.1516V97.1517L176.333 97.1519C176.314 97.3998 176.295 97.6487 176.295 97.8471C176.298 98.1137 176.405 98.5279 176.499 98.8906L176.499 98.8907L176.499 98.8908L176.499 98.8909L176.499 98.891L176.499 98.8912C176.544 99.0623 176.585 99.2219 176.611 99.349C177.264 102.31 178.877 104.981 180.711 107.358C181.343 108.211 182.089 109.15 182.832 109.888C183.852 110.933 185.153 112.123 186.663 111.765C187.88 111.464 189.005 110.818 190.121 110.176C190.668 109.862 191.213 109.548 191.766 109.278C191.871 109.221 191.976 109.159 192.083 109.097L192.083 109.096C192.224 109.014 192.367 108.93 192.513 108.855C192.588 108.813 192.665 108.8 192.735 108.809ZM84.852 89.0066C84.6206 88.9911 84.389 88.973 84.1574 88.9549C82.6643 88.8384 81.1753 88.7222 79.779 89.3095C78.9299 89.7106 78.2686 90.5383 77.7353 91.2764C76.6814 92.9362 76.4937 95.1079 77.3641 96.853C77.6457 97.4418 78.0467 97.9794 78.5118 98.4316C78.7891 98.6876 78.7977 99.1228 78.5331 99.3959C78.4895 99.4398 78.4446 99.4757 78.3987 99.5043C79.1746 100.161 79.9359 100.83 80.6927 101.495C81.1371 101.886 81.58 102.275 82.0233 102.66C82.3134 102.878 82.0148 103.326 81.7033 103.134C80.634 102.462 79.6047 101.739 78.5844 101.022L78.5844 101.022L78.5844 101.022L78.5843 101.022C77.5772 100.315 76.5788 99.6137 75.5593 98.9736C73.7331 97.7277 71.4334 96.5074 69.2318 96.644C67.2478 96.8744 65.123 98.3635 64.2356 100.232C63.7364 101.179 63.6894 102.276 63.7449 103.33C63.8131 104.414 63.9241 105.613 64.3166 106.611C64.5648 107.268 65.0382 107.918 65.5514 108.622C65.7618 108.911 65.9788 109.209 66.1897 109.521C66.5396 110.024 66.8638 110.468 67.2521 110.89C68.8179 112.648 70.738 114.346 72.5129 115.891C73.851 116.918 75.1557 118.099 76.443 119.263L76.443 119.263L76.4433 119.263C76.9947 119.762 77.543 120.258 78.0894 120.738C79.5102 121.766 81.0804 123.144 82.3774 124.365C83.0195 125.028 83.6817 125.556 84.3736 126.107C84.6381 126.317 84.9069 126.532 85.1806 126.758C85.3001 126.861 85.3129 127.044 85.2105 127.163C85.1124 127.279 84.9417 127.291 84.8222 127.206C83.4178 126.405 82.1055 125.403 80.8102 124.414L80.8101 124.414L80.81 124.414L80.8099 124.414L80.8098 124.413L80.8097 124.413L80.8095 124.413L80.8094 124.413L80.8093 124.413L80.8092 124.413L80.8091 124.413L80.8089 124.413C80.6289 124.275 80.4492 124.138 80.2697 124.002L78.7849 122.901C77.2796 121.976 75.9153 120.871 74.5456 119.763L74.5455 119.762C73.5082 118.923 72.4678 118.08 71.3609 117.312L71.2046 117.185C71.1364 117.248 71.0413 117.284 70.9255 117.269C69.7223 117.056 68.5533 117.333 67.4482 117.7C66.5352 118.233 65.6306 118.997 65.2253 119.978C65.0628 120.423 64.9884 120.998 64.9103 121.601C64.8798 121.837 64.8486 122.078 64.8114 122.316C64.6834 123.144 64.645 123.754 64.8072 124.586C65.3106 127.778 66.7143 130.764 68.8775 133.162C68.9954 133.261 69.2544 133.449 69.4879 133.619L69.488 133.619L69.4883 133.619C69.6267 133.72 69.7561 133.814 69.8418 133.879C70.4599 134.303 70.9705 134.821 71.4818 135.339C71.8704 135.733 72.2595 136.128 72.6962 136.482C73.7588 137.428 74.8707 138.315 75.9827 139.202L75.9828 139.202L75.983 139.203L75.9831 139.203L75.9832 139.203C76.8624 139.904 77.7418 140.606 78.597 141.337C79.5658 142.195 80.6101 142.943 81.6602 143.697C82.3397 144.184 83.0217 144.673 83.6872 145.194C83.9967 145.451 84.268 145.725 84.5347 145.994L84.5348 145.994C84.8527 146.315 85.1642 146.629 85.5261 146.901C86.6316 147.625 87.6798 148.493 88.7205 149.355L88.7206 149.355C89.3346 149.864 89.946 150.37 90.565 150.843C91.0616 151.208 91.5512 151.674 92.0117 152.113C92.1764 152.27 92.3373 152.423 92.4936 152.567L94.4221 154.18C94.7871 154.498 95.1584 154.732 95.5374 154.97C95.854 155.17 96.176 155.372 96.5042 155.631C97.0852 156.131 97.6363 156.627 98.1777 157.115L98.1778 157.115L98.1788 157.116C98.8975 157.763 99.5992 158.395 100.331 159.001C101.539 159.812 103.662 161.663 105.188 162.992L105.188 162.993L105.188 162.993L105.189 162.993C105.582 163.336 105.936 163.644 106.224 163.891C106.949 164.448 107.772 165.174 108.524 165.837L108.524 165.838C108.745 166.032 108.959 166.221 109.163 166.4C109.406 166.625 109.616 166.854 109.824 167.079C110.04 167.314 110.253 167.545 110.495 167.765C111.023 168.245 111.582 168.726 112.143 169.208L112.144 169.208L112.144 169.209L112.144 169.209L112.144 169.209L112.144 169.209L112.144 169.209L112.144 169.209L112.144 169.209L112.145 169.209L112.145 169.209L112.145 169.209L112.145 169.209L112.145 169.21C112.73 169.712 113.317 170.217 113.87 170.722C114.04 170.892 114.04 171.17 113.87 171.34C113.703 171.507 113.434 171.511 113.264 171.353C112.838 170.985 112.32 170.571 111.797 170.151L111.796 170.151C111.282 169.738 110.762 169.321 110.315 168.938C109.873 168.605 109.46 168.189 109.061 167.788L109.061 167.787L109.061 167.787C108.853 167.577 108.649 167.372 108.447 167.185C108.214 166.992 107.975 166.79 107.732 166.585L107.73 166.584C107.003 165.971 106.24 165.328 105.511 164.791L101.569 161.544C101.176 161.203 100.772 160.927 100.361 160.646L100.361 160.646L100.361 160.646L100.361 160.646L100.36 160.646L100.36 160.646L100.36 160.646L100.36 160.646L100.36 160.646L100.36 160.646L100.36 160.646L100.36 160.646L100.36 160.645C100.082 160.456 99.8023 160.265 99.5208 160.051C99.1151 159.741 98.7469 159.417 98.3906 159.104C98.1098 158.857 97.8364 158.617 97.5581 158.395C97.2083 158.119 96.8855 157.824 96.575 157.541L96.5746 157.54L96.5745 157.54C96.2564 157.25 95.951 156.971 95.6424 156.736C95.3802 156.539 95.074 156.35 94.7616 156.157C94.3266 155.887 93.8794 155.611 93.5218 155.298C92.3784 154.406 91.1794 153.373 90.117 152.401C89.7981 152.149 89.4728 151.901 89.147 151.653L89.1462 151.653L89.1456 151.652L89.1454 151.652C88.6263 151.257 88.106 150.86 87.6082 150.447C86.6482 149.615 85.6199 148.876 84.5661 148.172C84.1189 147.832 83.7309 147.463 83.3473 147.099L83.3472 147.099C82.8267 146.604 82.3143 146.117 81.6733 145.719C81.4826 145.576 81.2874 145.433 81.0895 145.29C81.0732 145.375 81.0348 145.457 80.9737 145.527C80.803 145.762 80.4915 145.783 80.2825 145.608C79.6894 145.113 79.0963 144.665 78.4563 144.439C77.8419 144.209 77.1507 144.264 76.3657 144.354C76.0479 144.397 75.7236 144.414 75.4149 144.429C74.9319 144.454 74.4868 144.477 74.1641 144.597C74.0318 144.644 73.9294 144.704 73.8441 144.78L73.4131 145.16C73.1358 145.412 72.8755 145.672 72.6622 145.941C71.9935 146.634 72.1741 147.717 72.3223 148.606L72.3224 148.607C72.332 148.665 72.3416 148.722 72.3507 148.778C72.4901 149.31 72.6817 149.888 72.8745 150.469C73.0594 151.027 73.2455 151.588 73.3875 152.115C73.6129 152.99 74.0827 153.677 74.5772 154.4L74.5772 154.4C74.7194 154.607 74.8636 154.818 75.0046 155.037C75.268 155.432 75.4434 155.864 75.6165 156.29C75.8051 156.755 75.9909 157.212 76.2846 157.606C76.387 157.743 76.5022 157.875 76.6217 158.007L79.9326 161.356C80.098 161.532 80.2572 161.705 80.413 161.875L80.4136 161.876L80.4138 161.876L80.4139 161.876C80.7924 162.288 81.1507 162.679 81.5283 163.02C81.7368 163.205 81.971 163.405 82.2107 163.609L82.2116 163.61C82.5801 163.923 82.9615 164.248 83.2819 164.548C83.4555 164.698 83.6835 164.837 83.9402 164.992C84.3459 165.238 84.8233 165.528 85.2702 165.977C85.5967 166.318 85.8514 166.659 86.08 166.964C86.3174 167.281 86.5267 167.561 86.7593 167.765L90.2025 170.995C90.5636 171.302 90.9382 171.781 91.2746 172.211C91.4748 172.467 91.6615 172.706 91.8238 172.881C92.0062 172.966 92.1969 173.043 92.3906 173.121L92.3909 173.121L92.3912 173.121L92.3913 173.121C92.9042 173.327 93.438 173.542 93.8931 173.947C94.307 174.323 95.1006 175.044 95.5315 175.436C95.9082 175.761 96.2169 176.098 96.496 176.402L96.4961 176.402L96.4963 176.403C96.7451 176.674 96.9706 176.92 97.1998 177.109C97.5848 177.442 97.8888 177.787 98.1586 178.092C98.403 178.369 98.6194 178.614 98.8425 178.79C99.085 178.992 99.4515 179.247 99.7914 179.484C99.9479 179.593 100.099 179.699 100.229 179.793C100.366 179.895 100.609 180.083 100.737 180.189C100.99 180.396 101.29 180.604 101.596 180.816L101.596 180.816L101.596 180.816C101.959 181.068 102.329 181.325 102.636 181.589C102.888 181.796 103.226 182.042 103.55 182.277L103.55 182.277C103.719 182.4 103.884 182.52 104.031 182.63C104.342 182.876 104.734 183.198 105.114 183.51L105.115 183.511C105.401 183.746 105.68 183.975 105.912 184.162C106.083 184.294 106.33 184.516 106.446 184.657C107.196 185.532 108.046 186.454 108.825 187.3L108.826 187.3L108.827 187.301C109.084 187.58 109.333 187.85 109.569 188.108C109.871 188.413 110.137 188.712 110.388 188.994L110.389 188.994L110.389 188.994L110.389 188.995C110.658 189.297 110.911 189.581 111.173 189.832C111.42 190.056 111.719 190.243 112.03 190.438L112.03 190.438C112.377 190.655 112.74 190.882 113.063 191.18C113.471 191.566 113.791 191.939 114.084 192.282L114.084 192.282C114.298 192.531 114.497 192.764 114.706 192.972C115.053 193.281 115.406 193.754 115.731 194.189L115.731 194.189L115.732 194.19C115.909 194.428 116.078 194.655 116.233 194.837C116.546 195.188 116.874 195.392 117.232 195.614C117.462 195.757 117.703 195.907 117.961 196.108C118.46 196.478 118.885 197.005 119.282 197.498L119.282 197.498C119.425 197.675 119.564 197.848 119.702 198.007C120.133 198.478 120.647 198.939 121.154 199.394L121.154 199.395C121.51 199.714 121.863 200.03 122.181 200.345C123.307 201.267 124.304 202.317 125.314 203.379C125.425 203.497 125.538 203.615 125.65 203.733C125.842 203.959 126.015 204.184 126.183 204.402L126.183 204.403C126.669 205.036 127.115 205.616 127.886 206.028L127.958 206.072L127.958 206.072L127.959 206.073L127.96 206.073C128.192 206.213 128.539 206.422 128.735 206.579C129.033 206.813 129.283 207.157 129.501 207.458C129.616 207.617 129.722 207.764 129.823 207.876C130.254 208.451 130.82 208.793 131.41 209.149C131.761 209.361 132.12 209.578 132.464 209.851C132.816 210.131 133.126 210.422 133.431 210.707L133.431 210.707L133.431 210.708L133.432 210.708L133.432 210.708L133.432 210.708L133.432 210.708L133.432 210.708C133.698 210.958 133.96 211.204 134.243 211.434C134.571 211.702 134.934 211.94 135.303 212.183L135.304 212.183C135.582 212.366 135.864 212.551 136.137 212.753C136.576 213.048 136.975 213.479 137.349 213.884L137.349 213.884C137.543 214.094 137.73 214.296 137.912 214.468C138.19 214.71 138.661 215.044 139.094 215.351C139.333 215.521 139.561 215.683 139.738 215.816C140.123 216.154 140.585 216.339 141.059 216.529L141.06 216.529C141.49 216.702 141.931 216.879 142.333 217.177C142.759 217.483 143.104 217.964 143.395 218.369C143.485 218.495 143.57 218.614 143.651 218.717C144.012 219.154 144.545 219.475 145.081 219.797C145.42 220.002 145.76 220.206 146.057 220.441C146.359 220.64 146.694 220.778 147.039 220.92L147.039 220.92C147.521 221.12 148.022 221.326 148.472 221.717C148.809 222 149.05 222.32 149.277 222.622C149.499 222.917 149.709 223.196 149.983 223.407C151.284 224.298 152.393 224.994 153.993 225.775C154.555 226.118 154.919 226.495 155.251 226.838L155.251 226.838C155.561 227.16 155.843 227.452 156.233 227.66C156.692 227.917 156.921 228.024 157.18 228.146L157.18 228.146C157.343 228.222 157.518 228.304 157.769 228.433C158.542 228.859 159.007 229.073 159.809 229.324C160.466 229.574 161.137 229.713 161.8 229.851L161.8 229.851L161.813 229.853L161.827 229.856L162.019 229.896C162.642 230.066 163.136 230.157 163.67 230.256L163.67 230.256L163.671 230.257C163.875 230.294 164.085 230.333 164.31 230.378C164.871 230.494 165.365 230.617 165.849 230.738L165.849 230.738L165.849 230.738L165.849 230.738L165.85 230.739L165.85 230.739L165.85 230.739L165.85 230.739L165.85 230.739L165.851 230.739C166.312 230.854 166.765 230.967 167.258 231.069C167.488 231.136 167.727 231.225 167.963 231.312L167.963 231.313L167.964 231.313C168.286 231.432 168.6 231.549 168.871 231.603C169.247 231.665 169.649 231.658 170.065 231.65H170.066C170.425 231.644 170.795 231.638 171.167 231.675L173.496 232.021C174.358 232.111 175.241 232.136 176.082 232.089C176.135 232.145 176.189 232.199 176.243 232.253C176.472 232.485 176.704 232.72 176.884 233.045C176.934 233.142 176.978 233.231 177.018 233.315L177.019 233.316L177.019 233.316C177.165 233.618 177.28 233.855 177.567 234.129C177.88 234.438 178.23 234.711 178.584 234.988L178.585 234.988C178.988 235.303 179.396 235.622 179.76 236.002C180.681 236.774 181.641 237.687 182.439 238.583C182.903 239.022 183.542 239.679 184.208 240.364C185.058 241.236 185.95 242.153 186.574 242.717L188.771 244.659L189.855 245.615C190.084 245.816 190.334 246.008 190.588 246.203L190.588 246.203C190.93 246.465 191.28 246.734 191.596 247.04C191.862 247.286 192.085 247.632 192.298 247.961C192.504 248.28 192.7 248.583 192.914 248.763C193.132 248.943 193.161 249.258 192.982 249.476C192.803 249.693 192.487 249.723 192.27 249.544C191.906 249.243 191.694 248.927 191.502 248.64C191.419 248.517 191.34 248.399 191.254 248.29C190.898 247.778 190.402 247.426 189.895 247.066C189.635 246.882 189.373 246.695 189.125 246.485C188.829 246.238 188.528 245.987 188.225 245.736C187.382 245.036 186.525 244.323 185.725 243.626C185.255 243.25 184.814 242.797 184.382 242.353C184.122 242.087 183.866 241.824 183.608 241.583L183.504 241.482L183.503 241.481C182.645 240.654 181.163 239.225 180.455 238.472C180.122 238.142 179.716 237.8 179.31 237.459C178.951 237.157 178.592 236.855 178.284 236.561C178.127 236.437 177.963 236.313 177.797 236.186L177.796 236.186L177.795 236.185C176.934 235.533 175.996 234.823 175.6 233.783C175.568 233.73 175.528 233.674 175.48 233.616C174.147 233.679 172.395 233.434 171.111 233.254L170.988 233.237C170.741 233.209 170.457 233.222 170.142 233.235C169.679 233.255 169.148 233.278 168.564 233.181C168.143 233.102 167.806 232.979 167.474 232.859C167.255 232.779 167.038 232.7 166.802 232.635C166.32 232.542 165.819 232.425 165.333 232.312C164.862 232.203 164.405 232.096 163.99 232.017C163.286 231.91 162.292 231.709 161.648 231.556C160.893 231.411 159.988 231.236 159.28 230.971C158.567 230.784 157.59 230.348 156.98 230.007C156.819 229.929 156.645 229.848 156.468 229.765L156.467 229.765C155.978 229.538 155.456 229.295 155.056 229.039C154.656 228.794 154.333 228.47 154.019 228.154C153.71 227.844 153.408 227.542 153.05 227.332C151.796 226.764 150.213 225.839 148.903 224.947C148.464 224.656 148.147 224.253 147.85 223.873L147.85 223.873C147.644 223.611 147.448 223.361 147.226 223.168C146.931 222.936 146.573 222.799 146.194 222.653L146.194 222.653L146.194 222.653C145.889 222.536 145.57 222.414 145.26 222.233C144.653 221.837 144.083 221.479 143.466 221.092L143.203 220.928C142.798 220.676 142.362 220.309 142.094 219.951C141.958 219.784 141.846 219.63 141.743 219.487C141.548 219.217 141.382 218.987 141.134 218.786C140.857 218.604 140.524 218.479 140.179 218.349L140.179 218.349L140.179 218.349C139.793 218.204 139.392 218.054 139.039 217.813C138.842 217.679 138.415 217.372 138.048 217.109L137.834 216.956L137.689 216.851C137.632 216.811 137.582 216.775 137.541 216.746C136.926 216.389 136.354 215.808 135.814 215.259C135.575 215.016 135.341 214.779 135.113 214.57C134.836 214.372 134.543 214.175 134.246 213.976C133.453 213.443 132.629 212.89 131.977 212.219C131.418 211.632 130.847 211.283 130.232 210.907C129.891 210.698 129.536 210.481 129.161 210.21C128.571 209.771 127.994 209.016 127.573 208.466L127.573 208.466L127.57 208.462L127.52 208.396L127.455 208.311C127.443 208.264 127.157 208.091 126.832 207.894L126.746 207.842C125.688 207.288 124.85 206.202 124.135 205.273L124.033 205.141L123.896 204.997C122.919 203.965 121.819 202.804 120.739 201.928C120.587 201.788 120.417 201.629 120.24 201.462C119.824 201.073 119.365 200.643 118.994 200.32C118.484 199.892 118.044 199.358 117.618 198.84L117.618 198.84L117.618 198.839L117.618 198.839L117.618 198.839L117.618 198.839L117.617 198.839L117.617 198.838C117.401 198.576 117.188 198.318 116.972 198.08C116.684 197.794 116.318 197.556 115.945 197.313C115.461 196.998 114.966 196.676 114.616 196.232C114.365 195.944 114.176 195.683 113.994 195.432C113.75 195.094 113.518 194.774 113.166 194.432C112.891 194.142 112.642 193.847 112.41 193.573C112.132 193.246 111.88 192.948 111.638 192.721C111.389 192.497 111.102 192.314 110.804 192.124C110.437 191.891 110.054 191.648 109.705 191.304C108.562 190.097 107.474 188.885 106.522 187.771C105.972 187.247 105.366 186.534 104.91 185.975C104.854 185.911 104.824 185.877 104.799 185.86L104.573 185.672L104.266 185.417L104.264 185.415C103.91 185.121 103.509 184.787 103.216 184.546C102.89 184.267 102.554 184.018 102.216 183.769L102.216 183.769L102.216 183.769L102.216 183.769L102.216 183.769L102.216 183.768L102.216 183.768L102.216 183.768L102.216 183.768L102.216 183.768L102.215 183.768L102.215 183.768C101.855 183.502 101.494 183.234 101.142 182.929C100.9 182.736 100.649 182.56 100.396 182.382C100.088 182.166 99.7764 181.947 99.4697 181.691C99.2062 181.46 98.911 181.251 98.5936 181.027C98.2736 180.802 97.9309 180.56 97.5753 180.262C97.1723 179.914 96.8626 179.557 96.5884 179.24C96.3544 178.97 96.1464 178.73 95.9283 178.551C95.5551 178.222 95.2532 177.888 94.9799 177.585C94.7314 177.31 94.5065 177.061 94.2729 176.866L93.4025 176.059L92.9673 175.658L92.7497 175.458C92.4467 175.148 92.0341 174.985 91.6002 174.813C91.4598 174.758 91.3171 174.701 91.1753 174.639C90.6038 174.443 90.1151 173.776 89.7671 173.301C89.7236 173.242 89.6822 173.185 89.6432 173.133L89.6137 173.094C89.148 172.493 87.8444 171.252 86.7927 170.25L86.7923 170.25L86.7921 170.25L86.7919 170.25L86.7918 170.25L86.7917 170.249L86.7916 170.249L86.7912 170.249L86.791 170.249C86.2533 169.737 85.7817 169.288 85.5219 169.019C85.1274 168.632 84.8345 168.227 84.5754 167.869C84.3778 167.595 84.1998 167.349 84.0115 167.159C83.8223 166.937 83.4933 166.726 83.1268 166.491C82.7249 166.233 82.2779 165.946 81.9209 165.585L81.7203 165.397L81.2979 165.021C80.3934 164.296 79.459 163.272 78.7379 162.449L75.4526 159.018C75.3118 158.856 75.171 158.69 75.0387 158.511C74.6838 158.052 74.4682 157.507 74.2559 156.97C74.0931 156.559 73.9322 156.152 73.7118 155.793C73.6551 155.706 73.5974 155.618 73.539 155.529C72.9306 154.603 72.2586 153.58 72.0094 152.49L71.7022 151.351L71.6314 151.128L71.6163 151.08L71.6157 151.079C71.1386 149.58 70.635 147.998 70.9769 146.393C71.1987 145.497 71.9283 144.789 72.5811 144.213L73.0462 143.82C73.6051 143.338 74.4585 143.257 75.0899 143.24C75.4331 143.238 75.7788 143.212 76.1252 143.186C76.862 143.131 77.6016 143.076 78.325 143.246C77.3073 142.374 76.2564 141.537 75.2055 140.699L75.2054 140.699L75.2053 140.699L75.2051 140.699L75.2048 140.699C73.9977 139.737 72.7906 138.775 71.6338 137.762C71.1957 137.417 70.7936 137.012 70.391 136.606C69.8958 136.107 69.3997 135.607 68.8349 135.219L68.3314 134.852L68.2605 134.801C68.0509 134.651 67.7709 134.451 67.5762 134.237L67.461 134.109L67.2391 133.853C65.6989 131.989 64.3933 129.783 63.7319 127.449C63.2029 125.734 62.7848 123.848 63.1688 122.052C63.2144 121.834 63.2555 121.596 63.2982 121.349C63.4113 120.696 63.5354 119.978 63.7832 119.402C64.1672 118.498 64.9522 117.772 65.7288 117.231C66.4797 116.637 67.4866 116.305 68.404 116.3C68.5047 116.296 68.6085 116.291 68.7145 116.285H68.7145H68.7145H68.7146C69.1727 116.262 69.6701 116.236 70.1287 116.31C67.8462 114.437 65.5851 112.433 63.9582 109.986L63.395 109.218C62.563 108.126 61.987 106.718 61.8121 105.378C61.1934 101.666 61.8633 98.3421 65.2041 96.196C68.3998 93.9901 71.7577 94.6685 74.8212 96.7293C75.2507 97.0254 75.6725 97.3315 76.0881 97.6454L76.0329 97.557C74.7742 95.3255 74.9662 92.5223 76.2974 90.3847C76.9502 89.19 78.0296 88.5628 79.2584 88.0892C81.1059 87.334 83.3715 87.2658 85.0867 88.3196C85.4195 88.5116 85.2318 89.0578 84.852 89.0066ZM131.807 116.458C131.455 117.362 130.729 117.977 130.008 118.587L130.008 118.587C129.809 118.755 129.611 118.922 129.422 119.095C129.247 119.257 129.076 119.419 128.944 119.633C128.753 119.955 128.496 120.167 128.238 120.38C128.144 120.457 128.05 120.535 127.958 120.618C127.417 121.079 126.881 121.546 126.345 122.013C125.486 122.762 124.626 123.511 123.743 124.236C123.448 124.484 123.005 124.441 122.761 124.147C122.535 123.874 122.552 123.477 122.787 123.225C124.071 121.843 125.403 120.537 126.828 119.291C126.92 119.214 127.011 119.131 127.102 119.048C127.363 118.81 127.628 118.569 127.954 118.442C128.161 118.353 128.333 118.218 128.503 118.084L128.53 118.063C128.766 117.865 128.995 117.657 129.224 117.449L129.224 117.449C129.852 116.878 130.481 116.306 131.269 115.946C131.581 115.788 131.943 116.138 131.807 116.458ZM126.025 116.595C126.542 116.198 127.024 115.708 126.883 115.016C126.832 114.722 126.525 114.534 126.23 114.637C125.811 114.777 125.658 114.985 125.515 115.178C125.429 115.295 125.346 115.407 125.211 115.494C125.142 115.537 125.057 115.58 124.937 115.571C124.756 115.549 124.634 115.635 124.511 115.721L124.511 115.721C124.464 115.754 124.417 115.787 124.366 115.814C123.867 116.156 123.308 116.497 122.77 116.778C122.471 116.924 122.232 117.103 122.19 117.47C122.139 117.841 122.45 118.238 122.808 118.28C122.936 118.308 123.09 118.284 123.221 118.263L123.221 118.263L123.248 118.259C123.386 118.238 123.501 118.185 123.591 118.111C124.196 117.926 124.797 117.623 125.309 117.29C125.355 117.256 125.405 117.228 125.455 117.2L125.455 117.2C125.585 117.126 125.716 117.053 125.787 116.868C125.842 116.744 125.927 116.672 126.025 116.595ZM123.09 116.83C123.128 116.836 123.165 116.846 123.2 116.858L123.148 116.849L123.124 116.845L123.064 116.834L123.039 116.83C123.039 116.83 123.022 116.825 123.035 116.825C123.04 116.823 123.06 116.825 123.074 116.828L123.074 116.828L123.075 116.828C123.082 116.829 123.087 116.83 123.09 116.83ZM155.67 112.605C155.66 113.455 155.169 114.134 154.694 114.793L154.694 114.793C154.592 114.934 154.49 115.075 154.394 115.216C154.283 115.378 154.177 115.545 154.108 115.745C153.977 116.16 153.661 116.437 153.293 116.758L153.285 116.765C153.144 116.87 152.986 116.99 152.82 117.115C152.372 117.453 151.866 117.836 151.48 118.101C151.147 118.355 150.834 118.61 150.515 118.871L150.514 118.871C150.265 119.074 150.013 119.28 149.744 119.491C149.441 119.73 149.001 119.675 148.762 119.372C148.375 118.829 148.816 118.4 149.224 118.003C149.351 117.88 149.474 117.759 149.569 117.64C150.317 116.876 151.158 116.212 151.995 115.551L152.176 115.408C152.254 115.35 152.328 115.271 152.406 115.187C152.537 115.046 152.682 114.889 152.892 114.785C153.059 114.691 153.174 114.555 153.285 114.414C153.345 114.339 153.441 114.193 153.562 114.01C154.153 113.114 155.33 111.33 155.67 112.605ZM150.677 113.192C150.877 113.031 151.052 112.889 151.007 112.469C150.977 112.205 150.772 111.974 150.495 111.919C150.077 111.834 149.921 111.994 149.743 112.177C149.688 112.233 149.632 112.291 149.564 112.345C149.513 112.384 149.458 112.418 149.36 112.409C149.212 112.388 149.148 112.455 149.085 112.523C149.06 112.549 149.035 112.576 149.006 112.597C148.634 112.951 148.276 113.331 147.977 113.775C147.819 113.992 147.79 114.287 147.926 114.538C148.453 115.334 149.271 114.649 149.866 114.152L149.866 114.152C149.98 114.056 150.085 113.968 150.179 113.898C150.204 113.87 150.234 113.847 150.263 113.824C150.34 113.765 150.414 113.708 150.405 113.557C150.405 113.459 150.448 113.403 150.49 113.357C150.551 113.294 150.615 113.242 150.677 113.192ZM121.136 134.109C121.513 134.839 121.056 135.509 120.66 136.089C120.595 136.184 120.532 136.276 120.475 136.366C120.389 136.499 120.308 136.635 120.265 136.802C120.208 137.083 120.021 137.265 119.837 137.443C119.79 137.489 119.743 137.535 119.698 137.582C119.091 138.162 118.415 138.636 117.675 138.999C117.556 139.23 117.298 139.407 116.903 139.404L116.901 139.404C116.77 139.413 116.642 139.421 116.502 139.383C115.96 139.263 115.751 138.547 116.114 138.154C116.196 138.052 116.322 137.972 116.435 137.9L116.464 137.881C117.185 137.446 117.88 136.912 118.469 136.328C118.529 136.275 118.58 136.217 118.632 136.158C118.744 136.031 118.856 135.904 119.045 135.837C119.315 135.709 119.511 135.361 119.683 135.052L119.683 135.052C119.78 134.879 119.87 134.718 119.963 134.617C119.997 134.585 120.035 134.517 120.084 134.432C120.158 134.303 120.255 134.134 120.393 133.986C120.603 133.755 121.008 133.823 121.136 134.109ZM116.818 137.945C116.844 137.947 116.871 137.953 116.9 137.961C116.871 137.957 116.816 137.948 116.809 137.945H116.818ZM118.507 158.595C118.838 158.097 119.163 157.605 119.126 156.927C119.118 156.612 118.755 156.398 118.478 156.556C117.948 156.837 117.682 157.292 117.407 157.761C117.309 157.928 117.211 158.096 117.1 158.258C117.014 158.378 116.929 158.493 116.792 158.574C116.54 158.731 116.346 159.033 116.157 159.326C116.033 159.52 115.911 159.709 115.777 159.85C115.623 160.025 115.423 160.238 115.265 160.396C115.078 160.628 114.761 160.703 114.449 160.777C113.997 160.884 113.556 160.988 113.541 161.561C113.599 162.409 114.487 162.282 115.147 162.188L115.209 162.18C115.764 162.103 116.314 161.697 116.707 161.335C117.074 161.019 117.411 160.592 117.671 160.221C117.712 160.157 117.757 160.095 117.802 160.034C117.937 159.848 118.071 159.664 118.094 159.41C118.111 159.248 118.183 159.116 118.256 158.988C118.336 158.854 118.422 158.725 118.507 158.595ZM210.267 121.472C210.126 122.074 209.757 122.444 209.387 122.815C209.114 123.088 208.841 123.361 208.658 123.729C208.576 124.002 208.305 124.293 208.053 124.565L208.053 124.565L208.053 124.565C207.887 124.744 207.73 124.914 207.638 125.064L207.502 125.283C207.068 125.981 206.607 126.72 206.136 127.372C205.65 128.042 204.6 127.445 204.929 126.69C205.202 126.056 205.513 125.439 205.821 124.827L205.923 124.625C206.141 124.155 206.512 123.648 206.811 123.315C206.867 123.255 206.919 123.192 206.971 123.13C207.124 122.947 207.274 122.767 207.519 122.675C207.676 122.611 207.791 122.5 207.902 122.394L207.902 122.394L207.903 122.393C208.027 122.268 208.144 122.137 208.261 122.006C208.666 121.552 209.066 121.103 209.742 120.934C210.053 120.853 210.356 121.164 210.267 121.472Z" fill="#5E5F6C"/>
<path fill-rule="evenodd" clip-rule="evenodd" d="M118.807 60.1004C118.998 60.8557 119.187 61.6046 119.437 62.3616C119.437 62.3616 120.235 62.2805 120.231 62.272C120.666 60.4501 120.64 58.4874 120.61 56.6784C120.619 55.7525 120.61 54.7754 120.482 53.8026C120.464 53.6671 120.446 53.5365 120.429 53.4093C120.358 52.9 120.295 52.446 120.282 51.9509C120.359 50.9568 120.384 49.856 120.077 48.8618C119.65 47.7781 119.565 46.8906 119.484 45.7472C119.241 44.3434 118.993 42.944 118.558 41.5701L118.556 41.5624C118.407 41.113 118.267 40.6886 118.106 40.2432L117.308 40.3285C117.23 40.8804 117.201 41.5985 117.174 42.2591C117.161 42.5688 117.149 42.866 117.133 43.1274C117.067 43.904 117.051 44.7961 117.035 45.6103C117.034 45.6952 117.032 45.7793 117.031 45.8624C116.962 46.5706 116.907 47.3386 116.979 48.0682C116.995 48.4278 117.084 48.7909 117.172 49.1482C117.251 49.4693 117.328 49.7857 117.351 50.0906C117.39 50.4825 117.362 50.8912 117.334 51.3028C117.298 51.819 117.262 52.3399 117.359 52.8384C117.46 53.4142 117.552 53.9814 117.644 54.5453C117.85 55.803 118.052 57.0438 118.332 58.3253C118.511 58.9253 118.66 59.5148 118.807 60.1004ZM136.482 70.6561C136.488 70.3981 136.473 70.1654 136.459 69.9403C136.43 69.4802 136.403 69.0514 136.555 68.5014C136.694 67.861 136.967 67.2638 137.234 66.6776L137.234 66.6776C137.27 66.5998 137.305 66.5223 137.34 66.4449C137.617 65.8134 137.758 65.4593 137.988 64.734C138.261 63.9684 138.562 63.3742 138.871 62.765L138.871 62.7649C139.032 62.4472 139.196 62.1253 139.358 61.7729C139.493 61.4912 139.622 61.2198 139.75 60.9519L139.75 60.9517C140.064 60.2905 140.368 59.6509 140.732 58.9313C141.009 58.4748 141.266 57.9757 141.524 57.477L141.524 57.4769C141.755 57.0294 141.985 56.5822 142.23 56.1665C142.58 55.5921 142.82 54.9907 143.066 54.3753C143.185 54.0763 143.306 53.774 143.441 53.47C143.608 53.015 143.914 52.578 144.22 52.1412C144.511 51.7258 144.803 51.3106 144.973 50.8801C145.051 50.7078 145.115 50.4233 145.166 50.1979L145.166 50.1979C145.179 50.1385 145.192 50.0833 145.203 50.0353C145.438 49.1513 145.896 48.4194 146.356 47.6843L146.356 47.6843C146.666 47.1883 146.977 46.6908 147.222 46.1441C147.359 45.8826 147.507 45.5966 147.663 45.2961L147.663 45.2961C148.303 44.0618 149.069 42.5834 149.7 41.5574C149.875 41.2758 150.038 40.99 150.204 40.6913L151.599 41.3356C151.458 41.7127 151.295 42.0928 151.134 42.4698C151.021 42.7325 150.909 42.9937 150.806 43.2513C150.619 43.7104 150.411 44.227 150.196 44.7634C149.743 45.8872 149.256 47.0983 148.86 48.0513C148.727 48.3759 148.557 48.6788 148.387 48.9803C148.221 49.2772 148.055 49.5726 147.926 49.886C147.733 50.303 147.682 50.6417 147.622 51.041L147.614 51.0934C147.435 52.0918 146.893 53.039 146.326 53.8412C146.049 54.3608 145.841 54.94 145.631 55.5243L145.631 55.5244L145.631 55.5244C145.378 56.2306 145.121 56.9445 144.738 57.5702C144.511 57.9657 144.362 58.2894 144.202 58.6364C144.095 58.8696 143.982 59.1133 143.838 59.3964C143.38 60.2195 142.96 61.1192 142.54 62.0183L142.54 62.0183L142.54 62.0184C142.224 62.6944 141.908 63.3702 141.577 64.0129C141.215 64.6437 140.991 65.2564 140.769 65.8642C140.534 66.5104 140.3 67.1509 139.904 67.8017C139.705 68.1296 139.47 68.4441 139.237 68.7558L139.237 68.7558C139.076 68.9713 138.916 69.1854 138.769 69.4017C138.619 69.5908 138.484 69.8452 138.343 70.1096C138.131 70.5072 137.907 70.9272 137.604 71.1809C137.609 71.1766 136.482 70.6561 136.482 70.6561ZM152.734 80.9132C155.964 78.1057 159.672 75.9596 163.631 74.3638C164.032 74.1718 164.297 74.0268 164.783 73.7452C165.319 73.4518 165.9 73.1991 166.465 72.954L166.465 72.954C166.795 72.8106 167.119 72.6698 167.424 72.5249C169.212 71.8038 171.042 71.2876 172.898 70.7969L173.257 71.5137C172.02 72.5556 170.654 73.406 169.289 74.2556L169.288 74.2556L169.288 74.2557C168.646 74.6551 168.005 75.0543 167.377 75.4732C166.921 75.7298 166.515 75.9962 166.117 76.2576L166.117 76.2577C165.535 76.6396 164.97 77.0108 164.288 77.3249L163.657 77.6045L163.657 77.6045C161.525 78.5494 159.389 79.4956 157.218 80.35C155.917 80.8833 154.488 81.3398 153.097 81.6385L152.734 80.9132Z" fill="#FFBF9E"/>
<path fill-rule="evenodd" clip-rule="evenodd" d="M56.3382 121.612C55.6854 121.587 55.0511 121.515 54.4177 121.443C53.6559 121.357 52.8954 121.271 52.1057 121.267C51.2882 121.193 50.5477 120.978 49.7983 120.761C49.5973 120.703 49.3956 120.644 49.1915 120.588C48.6855 120.495 47.9674 120.243 47.325 120.018L47.3249 120.018C47.0248 119.913 46.7413 119.814 46.5035 119.739C46.0993 119.605 45.7199 119.549 45.3269 119.491L45.3269 119.491C45.0687 119.453 44.8046 119.413 44.5238 119.351C43.7686 119.167 42.9793 118.869 42.3094 118.54C42.076 118.431 41.7766 118.319 41.463 118.203C41.0772 118.059 40.6701 117.907 40.3382 117.742C39.6751 117.388 38.972 117.144 38.267 116.901C37.4114 116.605 36.553 116.308 35.7601 115.809C35.3462 115.541 34.9921 115.319 34.5697 115.076L34.7958 114.308C35.0475 114.32 35.295 114.35 35.5467 114.389C36.3698 114.608 37.2134 114.687 38.0564 114.767C38.887 114.845 39.717 114.924 40.5259 115.135C40.8554 115.226 41.1558 115.308 41.4397 115.385C42.5012 115.672 43.3312 115.897 44.5835 116.321C44.9839 116.437 45.4021 116.497 45.8218 116.558C46.3458 116.633 46.8722 116.708 47.3697 116.893C47.8134 117.017 48.4235 117.277 48.8075 117.461C49.0223 117.549 49.2711 117.644 49.5347 117.744C50.1508 117.978 50.8471 118.243 51.3761 118.527C51.91 118.789 52.4455 118.959 52.988 119.131L52.988 119.131C53.3126 119.234 53.6396 119.337 53.9702 119.462C54.9131 119.867 55.7323 120.341 56.5644 120.84C56.5644 120.844 56.3382 121.612 56.3382 121.612ZM52.097 139.489C51.7087 139.57 51.3062 139.645 50.8989 139.72C50.0084 139.886 49.0957 140.056 48.2613 140.296C47.5368 140.477 46.7079 140.501 45.9663 140.523H45.9663C45.8868 140.526 45.8084 140.528 45.7311 140.53C45.2327 140.585 44.6758 140.667 44.1172 140.75L44.1172 140.75C43.6191 140.824 43.1197 140.899 42.6591 140.953C42.2093 141.016 41.7445 141.07 41.2807 141.124C40.9614 141.162 40.6426 141.199 40.3295 141.239C40.0933 141.272 39.8561 141.324 39.6164 141.376C39.3365 141.437 39.0532 141.499 38.7637 141.533C38.1284 141.611 37.4531 141.647 36.7739 141.682L36.7738 141.682C36.0846 141.718 35.3914 141.754 34.7317 141.836C34.4999 141.854 34.2616 141.873 34.019 141.893L34.0189 141.893C32.9355 141.982 31.7684 142.078 30.7295 142.071C30.1148 142.024 29.5282 142.008 28.9421 141.991C28.2346 141.971 27.5281 141.951 26.7743 141.879L26.625 140.245C27.8666 139.792 29.2362 139.447 30.5887 139.336C32.3594 139.041 34.2922 138.866 36.097 138.747C36.4109 138.726 36.7343 138.718 37.0581 138.711C37.5178 138.701 37.9783 138.69 38.4138 138.64C38.6742 138.613 38.943 138.569 39.2151 138.525L39.2151 138.525C39.6162 138.46 40.0243 138.394 40.4234 138.376C41.0486 138.338 41.6591 138.293 42.2663 138.248L42.2664 138.248C43.3871 138.164 44.4966 138.082 45.6671 138.051L45.8837 138.065C46.8673 138.128 47.6511 138.178 48.6538 137.988C49.4771 137.891 50.2956 137.882 51.1219 137.872H51.122C51.3962 137.869 51.6713 137.866 51.9477 137.859L52.097 139.489ZM57.7914 156.36C58.0999 155.992 58.4151 155.616 58.6038 155.169C58.6038 155.169 57.8529 154.354 57.8572 154.35C57.7305 154.392 57.6136 154.43 57.5011 154.466C57.2009 154.563 56.9326 154.65 56.5942 154.777C55.6969 155.117 55.0026 155.787 54.3259 156.44C54.1532 156.607 53.9816 156.773 53.8081 156.931C53.1405 157.485 52.4103 158.173 51.7522 158.792C51.6237 158.913 51.498 159.032 51.3761 159.146C50.8619 159.6 50.3462 160.061 49.8283 160.523C48.3094 161.88 46.7731 163.251 45.2108 164.53C44.9466 164.784 44.659 165.032 44.3675 165.282C43.5763 165.962 42.7573 166.667 42.3052 167.59C42.1378 167.948 42.0439 168.222 41.9309 168.552C41.8998 168.643 41.8674 168.738 41.8316 168.84L42.7574 169.851C43.2353 169.736 43.7601 169.399 44.1313 169.134C44.5921 168.848 45.1382 168.49 45.6033 168.17C46.921 167.313 47.9962 166.145 49.0682 164.981C49.7145 164.279 50.3597 163.578 51.0561 162.947C51.7112 162.343 52.4181 161.777 53.1265 161.209C54.0191 160.494 54.9141 159.776 55.711 158.979C56.1272 158.588 56.4636 158.118 56.7965 157.653C56.9858 157.389 57.174 157.126 57.375 156.88C57.5032 156.704 57.6466 156.533 57.7914 156.36Z" fill="#FFBF9E"/>
</svg>
