<?xml version="1.0" encoding="utf-8"?>
<!-- Generator: Adobe Illustrator 22.0.1, SVG Export Plug-In . SVG Version: 6.00 Build 0)  -->
<svg version="1.1" id="Layer_1" xmlns="http://www.w3.org/2000/svg" xmlns:xlink="http://www.w3.org/1999/xlink" x="0px" y="0px"
	 viewBox="0 0 16 16" enable-background="new 0 0 16 16" xml:space="preserve">
<title>Icon/UI/Fav/Unstarred</title>
<desc>Created with Sketch.</desc>
<g id="Icon_x2F_UI_x2F_Fav_x2F_Unstarred">
	<g id="Icon-Fill">
		<path id="path-1_1_" fill="#181C56" d="M8.40746,11.18481l2.21527,1.22013l-0.42258-2.58511
			c-0.049-0.29701,0.0455-0.60044,0.2511-0.81128l1.79269-1.83158L9.76708,6.80021C9.48098,6.75712,9.23513,6.5692,9.10827,6.29877
			L7.99976,3.9465L6.89125,6.29877C6.76351,6.5692,6.51766,6.75712,6.23244,6.80021L3.75557,7.17697l1.79269,1.83158
			c0.2056,0.20993,0.30009,0.51427,0.2511,0.81128l-0.42258,2.58511l2.21527-1.22013
			C7.84752,11.04363,8.15199,11.04363,8.40746,11.18481 M11.37691,14.89196l-3.37715-1.85999L4.6226,14.89196
			c-0.63606,0.35476-1.39286-0.21543-1.2695-0.96621l0.64481-3.94092L1.2647,7.19439C0.745,6.6627,1.0346,5.73958,1.75027,5.63049
			l3.77611-0.57477l1.68945-3.58615c0.29397-0.62611,1.27474-0.62611,1.56871,0L10.474,5.0548l3.77611,0.57477
			c0.71568,0.10909,1.0044,1.03221,0.48557,1.5639l-2.73322,2.79137l0.64481,3.94092
			C12.77064,14.6802,12.0121,15.24214,11.37691,14.89196"/>
	</g>
</g>
</svg>
