<?xml version="1.0" encoding="UTF-8"?>
<svg width="169px" height="51px" viewBox="0 0 169 51" version="1.1" xmlns="http://www.w3.org/2000/svg" xmlns:xlink="http://www.w3.org/1999/xlink">
    <!-- Generator: Sketch 59.1 (86144) - https://sketch.com -->
    <title>Logo/Entur/Positive</title>
    <desc>Created with Sketch.</desc>
    <g id="Visuell-identitet" stroke="none" stroke-width="1" fill="none" fill-rule="evenodd">
        <g id="Visuell-Identitet-/-Spacing" transform="translate(-845.000000, -466.000000)">
            <g id="Group-2" transform="translate(749.000000, 389.000000)">
                <g id="Logo/Entur/Negative" transform="translate(94.000000, 74.848262)">
                    <g id="Entur" transform="translate(2.718750, 2.700000)">
                        <polygon id="Fill-1" fill="#FFFFFF" points="4.35207426e-14 7.55194746e-05 4.35207426e-14 35.1170088 25.5333469 35.1170088 25.5333469 29.1683398 6.63213015 29.1683398 6.63213015 20.67693 23.401684 20.67693 23.401684 14.728261 6.63213015 14.728261 6.63213015 5.94874453 25.5333469 5.94874453 25.5333469 7.55194746e-05"></polygon>
                        <polygon id="Fill-2" fill="#FF5959" points="-4.61852778e-14 48.6 62.4841591 48.6 62.4841591 43.2 -4.61852778e-14 43.2"></polygon>
                        <polygon id="Fill-3" fill="#FFFFFF" points="55.8518425 7.55194746e-05 55.8518425 21.2523884 33.0657569 7.55194746e-05 32.3554512 7.55194746e-05 32.3554512 35.1170088 38.9872084 35.1170088 38.9872084 14.2483348 61.7747856 35.1170088 62.4843456 35.1170088 62.4843456 7.55194746e-05"></polygon>
                        <polygon id="Fill-4" fill="#FFFFFF" points="96.4256242 20.6750043 86.5249691 20.6750043 86.5249691 49.8432685 79.8932118 49.8432685 79.8932118 20.6750043 69.9444573 20.6750043 69.9444573 14.7263353 96.4256242 14.7263353"></polygon>
                        <path d="M116.558448,50.466644 C114.315671,50.466644 112.278716,50.1143457 110.447581,49.4112594 C108.615701,48.7081731 107.052283,47.7166024 105.757699,46.4369249 C104.462743,45.1580026 103.460112,43.606455 102.749806,41.7834149 C102.039127,39.9603747 101.683415,37.9300337 101.683415,35.6905036 L101.683415,14.7262975 L108.315918,14.7262975 L108.315918,35.6905036 C108.315918,37.4501074 108.600041,38.9049901 109.168658,40.0562845 C109.736903,41.2075789 110.439378,42.1194765 111.276458,42.7908446 C112.113164,43.4625904 113.013258,43.9266575 113.977111,44.1819134 C114.939845,44.4386796 115.800788,44.5659299 116.558448,44.5659299 C117.31648,44.5659299 118.17705,44.4386796 119.140903,44.1819134 C120.103638,43.9266575 121.003731,43.4625904 121.84081,42.7908446 C122.677144,42.1194765 123.380365,41.2075789 123.94861,40.0562845 C124.5176,38.9049901 124.80135,37.4501074 124.80135,35.6905036 L124.80135,14.7262975 L131.433853,14.7262975 L131.433853,35.6905036 C131.433853,37.9300337 131.085971,39.9603747 130.391698,41.7834149 C129.696307,43.606455 128.701133,45.1580026 127.406923,46.4369249 C126.111594,47.7166024 124.548175,48.7081731 122.717413,49.4112594 C120.88516,50.1143457 118.832917,50.466644 116.558448,50.466644" id="Fill-5" fill="#FFFFFF"></path>
                        <path d="M145.64474,32.8124942 L153.200081,32.8124942 C154.584152,32.8124942 155.725115,32.6369115 156.622226,32.2846131 C157.519709,31.93307 158.228151,31.4690028 158.74755,30.8931668 C159.267322,30.3177084 159.62117,29.6701289 159.809839,28.9504283 C159.998509,28.2311053 160.093216,27.5038528 160.093216,26.7679155 C160.093216,25.9043503 159.959358,25.1049767 159.692387,24.3690394 C159.423925,23.6338573 159.014894,22.994585 158.463801,22.4500895 C157.913081,21.9067269 157.205012,21.4751331 156.339222,21.154553 C155.472687,20.8354832 154.427176,20.6750043 153.200081,20.6750043 L145.64474,20.6750043 L145.64474,32.8124942 Z M145.64474,38.6652535 L145.64474,49.8432685 L139.01261,49.8432685 L139.01261,14.7263353 L154.766855,14.7263353 C156.539077,14.7263353 158.159917,15.0223716 159.631238,15.6140667 C161.102186,16.2061394 162.359856,17.0372312 163.403502,18.108475 C164.447148,19.1804739 165.261855,20.4593962 165.847625,21.9463746 C166.432275,23.4337307 166.725346,25.0570218 166.725346,26.8158704 C166.725346,28.127266 166.551219,29.3986364 166.20371,30.6296038 C165.855828,31.8609489 165.372969,32.9725955 164.755506,33.9637886 C164.138416,34.9553593 163.379266,35.8106174 162.478054,36.530318 C161.576841,37.2500186 160.587634,37.7537335 159.511921,38.0414626 L168.14633,49.8432685 L160.23565,49.8432685 L152.20789,38.6652535 L145.64474,38.6652535 Z" id="Fill-7" fill="#FFFFFF"></path>
                    </g>
                </g>
            </g>
        </g>
    </g>
</svg>