<?xml version="1.0" encoding="utf-8"?>
<!-- Generator: Adobe Illustrator 22.0.1, SVG Export Plug-In . SVG Version: 6.00 Build 0)  -->
<svg version="1.1" id="Layer_1" xmlns="http://www.w3.org/2000/svg" xmlns:xlink="http://www.w3.org/1999/xlink" x="0px" y="0px"
	 width="16px" height="16px" viewBox="0 0 16 16" enable-background="new 0 0 16 16" xml:space="preserve">
<title>Icon/Arrows/Merge Profiles</title>
<desc>Created with Sketch.</desc>
<g id="Icon_x2F_Arrows_x2F_Merge-Profiles">
	<g id="Icon-Fill">
		<path id="path-1_1_" fill="#181C56" d="M8,9.7499857c-0.9651251,0-1.75-0.7848749-1.75-1.7500005s0.7848749-1.75,1.75-1.75
			s1.75,0.7848749,1.75,1.75S8.9651251,9.7499857,8,9.7499857z M2.4936249,1.2563603l1.7500002,1.7500002L6.25,0.9999853v5.25H1
			l2.0063751-2.0063748l-1.7500001-1.75L2.4936249,1.2563603z M12.9936247,4.2436104L15,6.2499852H9.75v-5.25l2.0063753,2.0063753
			l1.75-1.7500002l1.2372494,1.2372501L12.9936247,4.2436104z M9.75,9.7499857H15l-2.0063753,2.0063753l1.75,1.75
			l-1.2372494,1.2372494l-1.75-1.75L9.75,14.9999857V9.7499857z M3.0063751,11.756361L1,9.7499857h5.25v5.25l-2.0063748-2.0063753
			l-1.7500002,1.75l-1.23725-1.2372494L3.0063751,11.756361z"/>
	</g>
</g>
</svg>
