<?xml version="1.0" encoding="utf-8"?>
<!-- Generator: Adobe Illustrator 22.0.1, SVG Export Plug-In . SVG Version: 6.00 Build 0)  -->
<svg version="1.1" id="Layer_1" xmlns="http://www.w3.org/2000/svg" xmlns:xlink="http://www.w3.org/1999/xlink" x="0px" y="0px"
	 width="16px" height="16px" viewBox="0 0 16 16" enable-background="new 0 0 16 16" xml:space="preserve">
<title>Icon/Arrows/Refresh</title>
<desc>Created with Sketch.</desc>
<g id="Icon_x2F_Arrows_x2F_Refresh">
	<g id="Icon-Fill">
		<path id="path-1_1_" fill="#181C56" d="M8.4358292,0.9999853l0.6737967,6.0540543l2.02139-1.9864869
			c1.8288774,1.7972975,1.8288774,4.8243246,0,6.6216221c-0.8663101,0.9459457-2.1176472,1.4189196-3.3689837,1.4189196
			s-2.5026736-0.4729738-3.3689837-1.4189196c-1.8288772-1.7972975-1.8288772-4.8243246,0-6.6216221
			c0.5775399-0.5675673,1.3475933-1.0405402,2.2139034-1.2297292L6.0294118,2.0405259
			c-1.1550803,0.2837839-2.2139037,0.8513515-3.080214,1.7027028c-2.5989304,2.554054-2.5989304,6.7162161,0,9.3648653
			c1.2513371,1.2297297,2.9839573,1.8918915,4.7165775,1.8918915c1.8288774,0,3.4652405-0.6621618,4.7165775-1.8918915
			c2.5989304-2.5540543,2.5989304-6.716217,0-9.3648653L14.5,1.6621475L8.4358292,0.9999853z"/>
	</g>
</g>
</svg>
