<?xml version="1.0" encoding="utf-8"?>
<!-- Generator: Adobe Illustrator 22.0.1, SVG Export Plug-In . SVG Version: 6.00 Build 0)  -->
<svg version="1.1" id="Layer_1" xmlns="http://www.w3.org/2000/svg" xmlns:xlink="http://www.w3.org/1999/xlink" x="0px" y="0px"
	 width="16px" height="16px" viewBox="0 0 16 16" enable-background="new 0 0 16 16" xml:space="preserve">
<title>Icon/Arrows/Reset</title>
<desc>Created with Sketch.</desc>
<g id="Icon_x2F_Arrows_x2F_Reset">
	<g id="Icon-Fill">
		<path id="path-1_1_" fill="#181C56" d="M4.5,9.3076782c1.381,0,2.5,1.1620378,2.5,2.5961533s-1.119,2.5961542-2.5,2.5961542
			S2,13.3379469,2,11.9038315S3.119,9.3076782,4.5,9.3076782z M8.3783779,1.0957301C12.0287838,1.0957301,15,4.1021128,15,7.7978578
			s-2.9712162,6.7021279-6.6216221,6.7021279v-1.9148932c2.6079731,0,4.7297306-2.1475534,4.7297306-4.7872348
			S10.986351,3.0106237,8.3783779,3.0106237c-1.2656751,0-2.4660807,0.5189362-3.3439183,1.4026592l2.0195947,2.0441489L1,7.127645
			l0.6621622-6.1276598L3.6978378,3.060411C4.9256759,1.8214747,6.6066217,1.0957301,8.3783779,1.0957301z"/>
	</g>
</g>
</svg>
