<?xml version="1.0" encoding="UTF-8"?>
<svg width="16px" height="16px" viewBox="0 0 16 16" version="1.1" xmlns="http://www.w3.org/2000/svg" xmlns:xlink="http://www.w3.org/1999/xlink">
    <!-- Generator: Sketch 62 (91390) - https://sketch.com -->
    <title>Icon/Arrows/Turnable</title>
    <desc>Created with Sketch.</desc>
    <g id="Icon/Arrows/Turnable" stroke="none" stroke-width="1" fill="none" fill-rule="evenodd">
        <path d="M15,8.14084507 L14.2820513,14 L12.3076923,11.9859155 C11.1410256,13.1760563 9.52564103,13.8169014 7.91025641,13.8169014 C6.29487179,13.8169014 4.76923077,13.2676056 3.51282051,11.9859155 C2.61538462,11.0704225 1.98717949,9.88028169 1.80769231,8.50704225 L1.80769231,8.50704225 L3.6025641,8.23239437 C3.78205128,9.14788732 4.23076923,10.0633803 4.85897436,10.7042254 C6.56410256,12.443662 9.43589744,12.443662 11.1410256,10.7042254 L11.1410256,10.7042254 L9.25641026,8.78169014 L15,8.14084507 Z M1.62820513,1 L3.6025641,3.01408451 C6.11538462,0.542253521 10.0641026,0.542253521 12.4871795,3.01408451 C13.3846154,3.92957746 14.0128205,5.11971831 14.1923077,6.49295775 L14.1923077,6.49295775 L12.3974359,6.76760563 C12.2179487,5.85211268 11.7692308,4.93661972 11.1410256,4.29577465 C9.43589744,2.55633803 6.56410256,2.55633803 4.85897436,4.29577465 L4.85897436,4.29577465 L6.74358974,6.21830986 L1,6.85915493 L1.62820513,1 Z" id="Icon-Fill" fill="#181C56"></path>
    </g>
</svg>