<?xml version="1.0" encoding="utf-8"?>
<!-- Generator: Adobe Illustrator 26.5.0, SVG Export Plug-In . SVG Version: 6.00 Build 0)  -->
<svg version="1.1" id="Layer_1" xmlns="http://www.w3.org/2000/svg" xmlns:xlink="http://www.w3.org/1999/xlink" x="0px" y="0px"
	 width="16px" height="16px" viewBox="0 0 16 16" enable-background="new 0 0 16 16" xml:space="preserve">
<path display="none" fill-rule="evenodd" clip-rule="evenodd" fill="#181C56" d="M8.6,12.9v-1.2V9.5V8.2V6.5V4.3V3l3.7,3.7l0.9-0.9
	L8.5,1L8.4,0.9C8.1,0.7,7.8,0.8,7.5,1L2.8,5.8l0.9,0.9L7.4,3v1.2v2.4v1.5v3.5l0,0v1.2L3.7,9.3l-0.9,0.9L7.5,15
	c0.2,0.2,0.6,0.3,0.9,0.1L8.5,15l4.8-4.8l-0.9-0.9L8.6,12.9z"/>
<path fill-rule="evenodd" clip-rule="evenodd" fill="#181C56" d="M8.6,11.7V8.2V4.3l2.1,2.1l0.9-0.9L8.4,2.3L8.4,2.2
	C8.1,2,7.8,2.1,7.6,2.3L4.4,5.5l0.9,0.9l2.1-2.1v3.9v3.5L5.3,9.6l-0.9,0.9l3.2,3.2l0.1,0.1c0.2,0.2,0.6,0.2,0.8-0.1l3.2-3.2
	l-0.9-0.9L8.6,11.7z"/>
</svg>
