<svg width="320" height="320" viewBox="0 0 320 320" fill="none" xmlns="http://www.w3.org/2000/svg">
<path d="M173.492 90.7469H173.898C173.898 91.1628 173.682 91.6306 173.88 91.9685C174.079 92.3151 174.606 92.3497 174.951 92.5576C175.288 92.7569 175.573 93.3201 175.997 93.3201C176.714 93.3201 176.714 93.1122 177.43 93.1122C178.147 93.1122 178.147 93.1122 178.856 93.1122C179.573 93.1122 179.573 93.3027 180.29 93.3027C181.007 93.3027 181.006 92.8522 181.723 92.8522C182.44 92.8522 182.44 92.7742 183.157 92.7742C183.468 92.7742 184.341 93.9266 184.574 94.1345C185.032 94.5417 185.032 94.5417 185.489 94.9489C185.947 95.3561 185.792 95.5294 186.241 95.954C186.526 96.2919 186.846 96.6904 186.915 97.1323C187.01 97.7994 186.82 97.834 186.915 98.5011C187.01 99.1683 187.226 99.1423 187.321 99.8094C187.416 100.477 187.459 100.477 187.554 101.144C187.649 101.811 187.174 101.88 187.269 102.547C187.364 103.214 187.338 103.223 187.433 103.89C187.528 104.557 187.934 104.505 188.029 105.172C188.124 105.84 187.83 105.883 187.934 106.559C188.029 107.226 188.331 107.182 188.426 107.858C188.521 108.525 188.59 108.517 188.685 109.184C188.78 109.851 188.444 109.903 188.539 110.57C188.634 111.237 188.953 111.194 189.048 111.87C189.143 112.537 189.135 112.545 189.23 113.213C189.325 113.88 189.005 113.932 189.1 114.599C189.195 115.266 189.135 115.275 189.23 115.942C189.325 116.609 189.774 116.548 189.869 117.215C189.964 117.882 189.739 117.917 189.834 118.584C189.929 119.251 189.886 119.26 189.981 119.936C190.076 120.603 189.817 120.646 189.912 121.313C190.007 121.981 190.171 121.963 190.266 122.63C190.361 123.297 190.56 123.272 190.655 123.939C190.75 124.606 190.758 124.606 190.853 125.282C190.948 125.949 191.087 125.931 191.182 126.607C191.277 127.274 190.862 127.335 190.957 128.011C191.052 128.678 190.992 128.687 191.087 129.362C191.182 130.029 191.596 129.977 191.691 130.645C191.786 131.32 191.812 131.312 191.907 131.987C192.002 132.655 192.089 132.646 192.184 133.322C192.279 133.997 191.976 134.041 192.071 134.708C192.166 135.384 192.4 135.349 192.495 136.016C192.59 136.692 192.434 136.709 192.529 137.385C192.624 138.052 192.676 138.052 192.771 138.719C192.866 139.387 192.702 139.413 192.797 140.08C192.892 140.755 193.22 140.703 193.315 141.379C193.41 142.046 193.35 142.055 193.445 142.731C193.54 143.407 193.341 143.433 193.436 144.1C193.531 144.775 193.531 144.776 193.626 145.443C193.721 146.118 193.833 146.101 193.928 146.768C194.023 147.444 193.928 147.453 194.023 148.128C194.118 148.804 194.404 148.761 194.499 149.437C194.594 150.113 194.17 150.173 194.265 150.849C194.343 151.369 194.507 152.001 194.196 152.417C193.79 152.98 193.548 152.798 193.142 153.362C192.745 153.925 192.633 153.847 192.235 154.41C191.838 154.973 191.821 154.964 191.424 155.527C191.026 156.091 191.432 156.385 191.035 156.94C190.637 157.503 190.422 157.347 190.024 157.91C189.627 158.473 189.558 158.43 189.16 158.984C188.763 159.548 188.616 159.444 188.219 160.007C187.822 160.57 188.003 160.7 187.597 161.263C187.2 161.826 187.45 162.008 187.053 162.571C186.656 163.134 186.552 163.065 186.155 163.628C185.757 164.192 185.844 164.261 185.446 164.824C185.049 165.387 185.032 165.37 184.626 165.933C184.228 166.496 183.926 166.28 183.529 166.851C183.131 167.414 183.373 167.588 182.976 168.151C182.579 168.714 182.432 168.61 182.034 169.173C181.637 169.736 181.844 169.884 181.438 170.447C181.041 171.01 180.799 170.837 180.402 171.4C180.005 171.963 180.074 172.015 179.676 172.578C179.279 173.141 179.46 173.271 179.063 173.835C178.666 174.398 178.441 174.242 178.044 174.805C177.646 175.368 177.405 175.203 177.007 175.767C176.61 176.33 176.964 176.59 176.567 177.153C176.169 177.716 176.057 177.647 175.66 178.21C175.254 178.773 175.133 178.686 174.727 179.249C174.321 179.813 174.347 179.83 173.941 180.393C173.656 180.757 173.509 181.251 173.163 181.528C172.809 181.814 172.455 182.187 172.049 182.386C171.643 182.585 171.064 182.334 170.615 182.438C170.175 182.542 169.769 182.992 169.302 182.992C168.62 182.992 168.62 182.975 167.946 182.975C167.273 182.975 167.264 182.923 166.59 182.923C165.908 182.923 165.908 183.044 165.234 183.044C164.552 183.044 164.552 183.07 163.869 183.07C163.187 183.07 163.187 183.018 162.505 183.018C161.822 183.018 161.822 182.862 161.14 182.854C160.457 182.854 160.457 182.603 159.784 182.594C159.101 182.594 159.101 182.784 158.419 182.784C157.737 182.784 157.737 182.845 157.054 182.845C156.372 182.845 156.372 182.654 155.689 182.654C155.007 182.654 155.007 182.741 154.325 182.741C153.642 182.741 153.642 182.784 152.96 182.784C152.278 182.784 152.277 182.767 151.595 182.758C150.913 182.758 150.913 182.94 150.23 182.94C149.548 182.94 149.548 182.975 148.866 182.975C148.183 182.975 148.183 182.758 147.501 182.758C146.818 182.758 146.818 182.862 146.136 182.854C145.454 182.854 145.454 182.845 144.771 182.845C144.089 182.845 144.089 182.654 143.407 182.654C142.724 182.654 142.724 182.473 142.042 182.473C141.359 182.473 141.36 182.654 140.677 182.654C139.995 182.654 139.995 182.568 139.312 182.568C138.63 182.568 138.63 182.897 137.948 182.897C137.265 182.897 137.265 182.732 136.583 182.724C135.9 182.724 135.9 182.646 135.218 182.646C134.536 182.646 134.536 182.758 133.845 182.758C133.154 182.758 133.162 182.464 132.471 182.464C132.281 182.464 132.316 182.845 132.316 183.044H131.858C131.858 183.711 131.582 184.041 130.917 184.041C130.26 184.058 130.269 184.396 129.604 184.413C128.947 184.431 128.93 184.015 128.273 184.032C127.617 184.049 127.626 184.301 126.96 184.318C126.304 184.335 126.295 184.197 125.639 184.214C124.974 184.231 124.974 184.223 124.317 184.249C123.652 184.266 123.661 184.5 123.004 184.517C122.572 184.535 122.4 184.89 122.123 185.176C121.847 185.462 121.527 185.644 121.527 186.077H121.674C121.674 186.527 121.821 187.177 122.27 187.168C122.987 187.16 122.987 186.692 123.704 186.692C124.421 186.683 124.43 186.952 125.146 186.952C125.863 186.943 125.863 186.978 126.589 186.978C127.315 186.969 127.315 187.038 128.032 187.03C128.757 187.021 128.748 186.571 129.474 186.562C130.2 186.553 130.148 186.701 130.778 187.064C131.331 187.385 131.469 187.264 131.728 187.844C131.901 188.225 132.031 188.468 132.376 188.685C132.713 188.901 132.99 189.196 133.413 189.196C134.087 189.187 134.087 188.962 134.76 188.962C135.434 188.953 135.434 188.988 136.108 188.988C136.782 188.979 136.781 189.23 137.455 189.222C138.129 189.213 138.129 189.213 138.803 189.204C139.476 189.196 139.476 188.867 140.15 188.858C140.824 188.849 140.833 189.352 141.506 189.343C142.18 189.334 142.18 189.256 142.854 189.248C143.527 189.239 143.528 189.343 144.201 189.334C144.875 189.326 144.875 189.248 145.549 189.239C146.222 189.23 146.223 189.239 146.896 189.239C147.57 189.23 147.57 189.126 148.244 189.118C148.917 189.109 148.917 189.031 149.591 189.022C150.265 189.014 150.265 188.849 150.939 188.849C151.612 188.841 151.612 188.849 152.286 188.841C152.96 188.832 152.96 189.17 153.642 189.161C154.316 189.152 154.316 189.161 154.99 189.152C155.663 189.144 155.663 188.745 156.337 188.737C157.011 188.728 157.011 188.884 157.693 188.875C158.367 188.867 158.367 188.771 159.041 188.771C159.715 188.771 159.715 188.971 160.388 188.971C161.062 188.962 161.062 188.771 161.736 188.763C162.409 188.754 162.41 188.711 163.083 188.702C163.757 188.693 163.757 188.919 164.439 188.91C165.113 188.901 165.113 188.867 165.796 188.858C166.469 188.849 166.469 189.022 167.152 189.022C167.825 189.014 167.825 188.823 168.508 188.815C169.19 188.806 169.19 188.823 169.864 188.815C170.538 188.806 170.546 188.858 171.22 188.858C171.686 188.867 172.101 188.589 172.55 188.52C173.008 188.451 173.561 188.823 173.993 188.676C174.433 188.537 174.77 188.104 175.176 187.896C175.582 187.688 175.919 187.385 176.29 187.108C176.653 186.83 177.085 186.631 177.396 186.293C177.707 185.964 177.802 185.462 178.061 185.08C178.441 184.517 178.683 184.69 179.072 184.127C179.452 183.564 179.175 183.374 179.555 182.81C179.935 182.247 180.298 182.499 180.687 181.935C181.067 181.372 180.937 181.286 181.326 180.722C181.706 180.159 181.784 180.211 182.164 179.648C182.544 179.085 182.674 179.172 183.062 178.617C183.442 178.054 183.356 177.993 183.736 177.43C184.116 176.867 184.064 176.832 184.444 176.269C184.824 175.706 184.729 175.645 185.118 175.082C185.498 174.519 185.619 174.597 185.999 174.042C186.379 173.479 186.517 173.575 186.897 173.02C187.277 172.457 186.966 172.24 187.347 171.677C187.735 171.114 187.701 171.097 188.089 170.534C188.469 169.97 188.547 170.022 188.927 169.459C189.316 168.896 189.454 169 189.843 168.437C190.232 167.874 190.137 167.813 190.517 167.25C190.905 166.687 190.698 166.548 191.078 165.985C191.467 165.422 191.553 165.482 191.933 164.919C192.322 164.356 192.356 164.382 192.745 163.819C193.134 163.256 192.918 163.013 193.419 162.545C193.842 162.147 194.084 162.381 194.645 162.216C194.844 162.389 195.259 162.701 195.604 163.074C195.95 163.446 196.235 163.88 196.321 164.14C196.459 164.833 196.235 164.867 196.356 165.56C196.477 166.254 196.891 166.184 197.012 166.877C197.133 167.57 196.632 167.657 196.753 168.35C196.874 169.043 197.099 169.009 197.219 169.702C197.34 170.395 197.453 170.378 197.574 171.079C197.695 171.772 197.651 171.781 197.772 172.483C197.85 172.942 197.487 173.211 197.047 173.349L197.168 173.722C196.537 173.921 195.794 174.363 195.863 175.03C195.924 175.619 196.053 175.602 196.114 176.182C196.174 176.772 196.243 176.763 196.304 177.343C196.364 177.933 196.598 177.907 196.658 178.487C196.693 178.808 196.442 179.258 196.606 179.535C196.943 180.099 197.185 179.951 197.522 180.514C197.859 181.078 197.669 181.19 198.006 181.753C198.342 182.317 198.506 182.221 198.843 182.776C199.18 183.339 199.059 183.408 199.405 183.971C199.742 184.535 199.638 184.595 199.983 185.158C200.173 185.479 200.787 185.366 201.106 185.522C201.426 185.678 201.668 185.799 202.039 185.756C202.212 185.73 202.272 186.172 202.445 186.146C202.825 186.094 203.119 185.635 203.387 185.384C203.655 185.132 203.827 184.803 203.896 184.422C204.026 183.711 204.311 183.763 204.441 183.044C204.57 182.325 204.043 182.23 204.173 181.519C204.302 180.8 204.57 180.852 204.7 180.133C204.829 179.414 204.803 179.414 204.933 178.695C205.002 178.314 205.08 177.924 205.054 177.543C205.011 176.772 205.062 176.772 205.011 176.009C204.967 175.238 204.942 175.247 204.898 174.476C204.872 174.025 204.752 173.497 204.458 173.202C204.164 172.907 203.637 172.829 203.188 172.795C202.808 172.769 202.506 173.167 202.29 172.855C201.892 172.284 202.255 172.076 202.134 171.391C202.013 170.707 201.936 170.716 201.815 170.031C201.694 169.347 201.936 169.303 201.815 168.61C201.694 167.926 201.573 167.943 201.452 167.259C201.331 166.574 201.046 166.617 200.934 165.933C200.813 165.24 201.348 165.153 201.227 164.46C201.106 163.767 200.735 163.836 200.605 163.152C200.502 162.719 200.977 162.493 201.417 162.433L201.357 161.974C201.867 161.904 202.195 161.688 202.143 161.168C202.065 160.466 202.393 160.431 202.324 159.738C202.247 159.036 202.238 159.036 202.16 158.343C202.082 157.65 201.607 157.693 201.53 156.992C201.486 156.61 201.607 156.134 201.331 155.917C201.046 155.701 200.562 155.441 200.173 155.493L200.148 155.9C199.595 155.675 199.439 154.999 199.344 154.401C199.241 153.734 198.766 153.812 198.662 153.136C198.558 152.469 198.921 152.408 198.817 151.741C198.714 151.074 198.904 151.04 198.8 150.372C198.696 149.705 198.411 149.749 198.308 149.081C198.204 148.414 198.031 148.44 197.928 147.773C197.824 147.106 197.841 147.106 197.738 146.43C197.634 145.755 198.083 145.694 197.98 145.027C197.876 144.36 197.651 144.394 197.548 143.727C197.444 143.06 197.28 143.086 197.176 142.41C197.073 141.743 197.004 141.752 196.9 141.085C196.796 140.418 196.839 140.409 196.736 139.742C196.632 139.075 196.779 139.049 196.675 138.381C196.572 137.714 196.546 137.714 196.442 137.047C196.338 136.38 196.131 136.415 196.027 135.739C195.924 135.072 196.287 135.011 196.183 134.344C196.079 133.677 195.812 133.72 195.708 133.053C195.604 132.386 195.483 132.403 195.38 131.736C195.276 131.069 195.285 131.069 195.181 130.402C195.077 129.735 195.449 129.674 195.345 129.007C195.241 128.34 194.974 128.383 194.87 127.707C194.766 127.04 195.146 126.98 195.043 126.313C194.939 125.645 194.412 125.723 194.309 125.056C194.205 124.389 194.309 124.372 194.205 123.705C194.101 123.038 194.326 123.003 194.222 122.336C194.119 121.669 193.946 121.695 193.842 121.027C193.738 120.36 193.998 120.317 193.894 119.65C193.79 118.983 193.436 119.035 193.332 118.368C193.229 117.701 193.756 117.614 193.652 116.947C193.548 116.28 193.073 116.349 192.97 115.682C192.866 115.015 193.229 114.954 193.125 114.287C193.022 113.62 192.736 113.663 192.633 112.987C192.529 112.32 192.564 112.312 192.46 111.644C192.356 110.977 192.339 110.977 192.227 110.31C192.123 109.643 192.451 109.591 192.348 108.924C192.244 108.257 191.994 108.291 191.89 107.624C191.786 106.957 191.709 106.966 191.605 106.299C191.501 105.632 191.847 105.58 191.743 104.904C191.64 104.237 191.415 104.271 191.311 103.596C191.208 102.928 191.398 102.894 191.294 102.227C191.19 101.56 191.182 101.56 191.078 100.884C190.974 100.208 190.75 100.243 190.646 99.5755C190.543 98.8997 190.707 98.8737 190.603 98.2066C190.499 97.5308 190.43 97.5481 190.327 96.8723C190.283 96.6211 190.387 96.0839 190.318 95.5728C190.24 95.0529 189.895 94.5677 189.99 94.3338C190.378 93.6233 190.396 93.632 190.793 92.9302C191.19 92.2284 191.208 92.2371 191.588 91.5266C191.795 91.0414 191.959 90.4956 192.253 90.0711C192.555 89.6206 193.03 89.4213 193.574 89.2914L193.756 89.2047C193.877 88.2516 193.531 88.2343 193.522 87.264C193.263 86.6661 192.935 86.3629 192.296 86.4149C191.933 86.4496 191.95 86.4582 191.588 86.5275C191.043 86.7008 190.577 86.9521 190.283 87.4373C189.869 88.1044 190.024 88.1997 189.61 88.8668C189.195 89.5339 189.031 89.43 188.616 90.1058C188.323 90.5823 187.83 90.539 187.321 90.305C186.707 90.0191 186.681 90.0798 186.06 89.8025C185.446 89.5166 185.36 89.6985 184.747 89.4126C184.125 89.1267 184.09 89.2133 183.477 88.9274C182.855 88.6415 182.993 88.3469 182.38 88.061C182.216 87.9917 181.948 88.0177 181.767 88.0264C181.05 88.0524 181.058 88.4249 180.341 88.4509C179.616 88.4769 179.607 88.1564 178.89 88.1823C178.165 88.2083 178.165 88.1044 177.439 88.139C176.714 88.1737 176.731 88.5029 176.005 88.5289C175.599 88.5463 175.28 88.6155 174.951 88.8148C174.615 89.0227 174.355 89.248 174.165 89.5946C173.889 89.9931 173.492 90.3397 173.492 90.7469Z" fill="white"/>
<mask id="path-2-inside-1_2245_5794" fill="white">
<path d="M121.873 177.196C121.64 177.196 121.398 177.127 121.165 177.144C120.931 177.161 120.698 177.222 120.465 177.257C120.232 177.291 120.007 177.352 119.774 177.412C119.549 177.473 119.351 177.629 119.135 177.707C118.91 177.785 118.677 177.82 118.47 177.915C118.254 178.01 118.021 178.062 117.813 178.175C117.606 178.288 117.373 178.357 117.174 178.487C116.975 178.617 116.837 178.833 116.656 178.981C116.474 179.128 116.207 179.18 116.034 179.336C115.861 179.492 115.688 179.665 115.524 179.838C115.369 180.012 115.326 180.298 115.187 180.48C115.041 180.662 114.876 180.826 114.747 181.025C114.617 181.225 114.531 181.441 114.419 181.649C114.306 181.857 114.065 182.004 113.97 182.221C113.875 182.438 113.797 182.663 113.719 182.888C113.641 183.113 113.71 183.382 113.659 183.607C113.598 183.833 113.529 184.058 113.494 184.292C113.46 184.526 113.339 184.751 113.313 184.985C113.296 185.219 113.287 185.461 113.287 185.695C113.287 185.929 113.304 186.172 113.322 186.406C113.339 186.64 113.529 186.856 113.572 187.082C113.607 187.315 113.607 187.549 113.667 187.775C113.728 188 113.805 188.217 113.883 188.442C113.961 188.667 113.97 188.91 114.065 189.126C114.16 189.343 114.28 189.542 114.393 189.75C114.505 189.958 114.643 190.149 114.773 190.339C114.902 190.538 114.937 190.798 115.084 190.989C115.231 191.171 115.473 191.284 115.628 191.457C115.783 191.63 116.008 191.734 116.181 191.899C116.353 192.055 116.509 192.228 116.69 192.375C116.872 192.522 116.984 192.774 117.183 192.904C117.381 193.034 117.571 193.19 117.779 193.302C117.986 193.415 118.254 193.415 118.47 193.51C118.686 193.605 118.91 193.657 119.135 193.735C119.359 193.813 119.549 193.978 119.783 194.039C120.007 194.099 120.249 194.108 120.482 194.151C120.716 194.186 120.949 194.195 121.182 194.221C121.415 194.238 121.648 194.203 121.882 194.203C122.115 194.203 122.348 194.221 122.581 194.203C122.814 194.186 123.065 194.238 123.29 194.203C123.523 194.169 123.73 194.004 123.955 193.952C124.179 193.891 124.421 193.883 124.646 193.805C124.87 193.727 125.052 193.554 125.268 193.458C125.484 193.363 125.743 193.363 125.95 193.25C126.157 193.138 126.365 193.025 126.563 192.895C126.762 192.765 126.935 192.6 127.116 192.453C127.297 192.306 127.453 192.124 127.626 191.968C127.798 191.812 127.945 191.63 128.101 191.457C128.256 191.284 128.524 191.197 128.671 191.015C128.818 190.833 128.861 190.573 128.99 190.374C129.12 190.175 129.293 190.001 129.405 189.793C129.517 189.585 129.552 189.343 129.647 189.126C129.742 188.91 129.802 188.684 129.88 188.459C129.958 188.234 130.139 188.043 130.191 187.818C130.252 187.593 130.312 187.359 130.355 187.125C130.39 186.891 130.269 186.64 130.286 186.406C130.303 186.172 130.433 185.947 130.433 185.704C130.433 185.47 130.295 185.236 130.269 185.002C130.252 184.768 130.269 184.534 130.234 184.3C130.2 184.066 130.131 183.841 130.07 183.616C130.01 183.391 130.01 183.148 129.932 182.923C129.854 182.697 129.716 182.507 129.621 182.29C129.526 182.074 129.405 181.874 129.293 181.667C129.18 181.459 129.077 181.251 128.956 181.051C128.826 180.852 128.697 180.662 128.559 180.48C128.412 180.298 128.308 180.072 128.153 179.899C127.997 179.726 127.755 179.639 127.583 179.483C127.41 179.327 127.332 179.059 127.142 178.911C126.961 178.764 126.771 178.617 126.572 178.487C126.373 178.357 126.105 178.357 125.898 178.244C125.691 178.132 125.535 177.932 125.319 177.837C125.104 177.742 124.896 177.62 124.672 177.542C124.447 177.464 124.197 177.499 123.963 177.438C123.739 177.378 123.531 177.205 123.298 177.161C123.065 177.127 122.814 177.291 122.573 177.265C122.339 177.257 122.106 177.196 121.873 177.196ZM115.455 182.827C115.498 182.594 115.619 182.342 115.706 182.134C115.792 181.909 115.861 181.693 115.982 181.502C116.103 181.294 116.233 181.103 116.371 180.93C116.526 180.748 116.621 180.506 116.785 180.358C116.967 180.194 117.191 180.081 117.364 179.951C117.571 179.804 117.805 179.726 117.977 179.622C118.34 179.414 118.746 178.998 118.53 179.267C118.288 179.561 118.314 179.578 118.021 179.821C117.856 179.96 117.606 180.012 117.442 180.159C117.286 180.306 117.122 180.471 116.975 180.627C116.829 180.783 116.794 181.051 116.656 181.216C116.518 181.381 116.345 181.528 116.215 181.701C116.086 181.874 115.991 182.074 115.87 182.256C115.74 182.438 115.567 182.637 115.455 182.827ZM121.873 190.4C121.623 190.4 121.389 190.305 121.156 190.261C120.914 190.227 120.672 190.192 120.448 190.123C120.215 190.045 119.99 189.967 119.774 189.854C119.558 189.741 119.29 189.689 119.1 189.551C118.902 189.403 118.746 189.204 118.573 189.031C118.401 188.858 118.288 188.632 118.141 188.433C118.003 188.234 117.926 188 117.813 187.783C117.701 187.567 117.52 187.385 117.451 187.151C117.373 186.926 117.45 186.657 117.407 186.414C117.373 186.18 117.356 185.947 117.356 185.704C117.356 185.453 117.217 185.201 117.26 184.968C117.295 184.725 117.399 184.491 117.476 184.266C117.554 184.032 117.615 183.789 117.727 183.573C117.839 183.356 118.09 183.226 118.236 183.035C118.383 182.836 118.522 182.654 118.694 182.49C118.867 182.316 118.953 182.056 119.152 181.909C119.351 181.77 119.567 181.658 119.791 181.545C120.007 181.433 120.266 181.433 120.5 181.355C120.724 181.277 120.949 181.216 121.199 181.181C121.432 181.147 121.666 181.121 121.916 181.121C122.167 181.121 122.426 180.973 122.659 181.017C122.901 181.051 123.143 181.164 123.367 181.242C123.601 181.32 123.842 181.398 124.058 181.511C124.274 181.623 124.447 181.822 124.637 181.961C124.836 182.108 125.034 182.247 125.199 182.42C125.363 182.594 125.553 182.767 125.691 182.957C125.829 183.157 125.855 183.425 125.967 183.642C126.08 183.858 126.278 184.032 126.356 184.266C126.434 184.491 126.563 184.725 126.606 184.968C126.641 185.201 126.632 185.461 126.632 185.713C126.632 185.964 126.468 186.198 126.434 186.432C126.399 186.674 126.304 186.891 126.235 187.125C126.157 187.359 126.175 187.627 126.071 187.835C125.959 188.052 125.855 188.286 125.717 188.476C125.57 188.676 125.337 188.788 125.164 188.962C124.991 189.135 124.836 189.317 124.637 189.464C124.438 189.603 124.248 189.75 124.032 189.863C123.817 189.975 123.609 190.114 123.376 190.183C123.151 190.261 122.901 190.287 122.659 190.331C122.365 190.357 122.124 190.4 121.873 190.4Z"/>
</mask>
<path d="M121.873 177.196C121.64 177.196 121.398 177.127 121.165 177.144C120.931 177.161 120.698 177.222 120.465 177.257C120.232 177.291 120.007 177.352 119.774 177.412C119.549 177.473 119.351 177.629 119.135 177.707C118.91 177.785 118.677 177.82 118.47 177.915C118.254 178.01 118.021 178.062 117.813 178.175C117.606 178.288 117.373 178.357 117.174 178.487C116.975 178.617 116.837 178.833 116.656 178.981C116.474 179.128 116.207 179.18 116.034 179.336C115.861 179.492 115.688 179.665 115.524 179.838C115.369 180.012 115.326 180.298 115.187 180.48C115.041 180.662 114.876 180.826 114.747 181.025C114.617 181.225 114.531 181.441 114.419 181.649C114.306 181.857 114.065 182.004 113.97 182.221C113.875 182.438 113.797 182.663 113.719 182.888C113.641 183.113 113.71 183.382 113.659 183.607C113.598 183.833 113.529 184.058 113.494 184.292C113.46 184.526 113.339 184.751 113.313 184.985C113.296 185.219 113.287 185.461 113.287 185.695C113.287 185.929 113.304 186.172 113.322 186.406C113.339 186.64 113.529 186.856 113.572 187.082C113.607 187.315 113.607 187.549 113.667 187.775C113.728 188 113.805 188.217 113.883 188.442C113.961 188.667 113.97 188.91 114.065 189.126C114.16 189.343 114.28 189.542 114.393 189.75C114.505 189.958 114.643 190.149 114.773 190.339C114.902 190.538 114.937 190.798 115.084 190.989C115.231 191.171 115.473 191.284 115.628 191.457C115.783 191.63 116.008 191.734 116.181 191.899C116.353 192.055 116.509 192.228 116.69 192.375C116.872 192.522 116.984 192.774 117.183 192.904C117.381 193.034 117.571 193.19 117.779 193.302C117.986 193.415 118.254 193.415 118.47 193.51C118.686 193.605 118.91 193.657 119.135 193.735C119.359 193.813 119.549 193.978 119.783 194.039C120.007 194.099 120.249 194.108 120.482 194.151C120.716 194.186 120.949 194.195 121.182 194.221C121.415 194.238 121.648 194.203 121.882 194.203C122.115 194.203 122.348 194.221 122.581 194.203C122.814 194.186 123.065 194.238 123.29 194.203C123.523 194.169 123.73 194.004 123.955 193.952C124.179 193.891 124.421 193.883 124.646 193.805C124.87 193.727 125.052 193.554 125.268 193.458C125.484 193.363 125.743 193.363 125.95 193.25C126.157 193.138 126.365 193.025 126.563 192.895C126.762 192.765 126.935 192.6 127.116 192.453C127.297 192.306 127.453 192.124 127.626 191.968C127.798 191.812 127.945 191.63 128.101 191.457C128.256 191.284 128.524 191.197 128.671 191.015C128.818 190.833 128.861 190.573 128.99 190.374C129.12 190.175 129.293 190.001 129.405 189.793C129.517 189.585 129.552 189.343 129.647 189.126C129.742 188.91 129.802 188.684 129.88 188.459C129.958 188.234 130.139 188.043 130.191 187.818C130.252 187.593 130.312 187.359 130.355 187.125C130.39 186.891 130.269 186.64 130.286 186.406C130.303 186.172 130.433 185.947 130.433 185.704C130.433 185.47 130.295 185.236 130.269 185.002C130.252 184.768 130.269 184.534 130.234 184.3C130.2 184.066 130.131 183.841 130.07 183.616C130.01 183.391 130.01 183.148 129.932 182.923C129.854 182.697 129.716 182.507 129.621 182.29C129.526 182.074 129.405 181.874 129.293 181.667C129.18 181.459 129.077 181.251 128.956 181.051C128.826 180.852 128.697 180.662 128.559 180.48C128.412 180.298 128.308 180.072 128.153 179.899C127.997 179.726 127.755 179.639 127.583 179.483C127.41 179.327 127.332 179.059 127.142 178.911C126.961 178.764 126.771 178.617 126.572 178.487C126.373 178.357 126.105 178.357 125.898 178.244C125.691 178.132 125.535 177.932 125.319 177.837C125.104 177.742 124.896 177.62 124.672 177.542C124.447 177.464 124.197 177.499 123.963 177.438C123.739 177.378 123.531 177.205 123.298 177.161C123.065 177.127 122.814 177.291 122.573 177.265C122.339 177.257 122.106 177.196 121.873 177.196ZM115.455 182.827C115.498 182.594 115.619 182.342 115.706 182.134C115.792 181.909 115.861 181.693 115.982 181.502C116.103 181.294 116.233 181.103 116.371 180.93C116.526 180.748 116.621 180.506 116.785 180.358C116.967 180.194 117.191 180.081 117.364 179.951C117.571 179.804 117.805 179.726 117.977 179.622C118.34 179.414 118.746 178.998 118.53 179.267C118.288 179.561 118.314 179.578 118.021 179.821C117.856 179.96 117.606 180.012 117.442 180.159C117.286 180.306 117.122 180.471 116.975 180.627C116.829 180.783 116.794 181.051 116.656 181.216C116.518 181.381 116.345 181.528 116.215 181.701C116.086 181.874 115.991 182.074 115.87 182.256C115.74 182.438 115.567 182.637 115.455 182.827ZM121.873 190.4C121.623 190.4 121.389 190.305 121.156 190.261C120.914 190.227 120.672 190.192 120.448 190.123C120.215 190.045 119.99 189.967 119.774 189.854C119.558 189.741 119.29 189.689 119.1 189.551C118.902 189.403 118.746 189.204 118.573 189.031C118.401 188.858 118.288 188.632 118.141 188.433C118.003 188.234 117.926 188 117.813 187.783C117.701 187.567 117.52 187.385 117.451 187.151C117.373 186.926 117.45 186.657 117.407 186.414C117.373 186.18 117.356 185.947 117.356 185.704C117.356 185.453 117.217 185.201 117.26 184.968C117.295 184.725 117.399 184.491 117.476 184.266C117.554 184.032 117.615 183.789 117.727 183.573C117.839 183.356 118.09 183.226 118.236 183.035C118.383 182.836 118.522 182.654 118.694 182.49C118.867 182.316 118.953 182.056 119.152 181.909C119.351 181.77 119.567 181.658 119.791 181.545C120.007 181.433 120.266 181.433 120.5 181.355C120.724 181.277 120.949 181.216 121.199 181.181C121.432 181.147 121.666 181.121 121.916 181.121C122.167 181.121 122.426 180.973 122.659 181.017C122.901 181.051 123.143 181.164 123.367 181.242C123.601 181.32 123.842 181.398 124.058 181.511C124.274 181.623 124.447 181.822 124.637 181.961C124.836 182.108 125.034 182.247 125.199 182.42C125.363 182.594 125.553 182.767 125.691 182.957C125.829 183.157 125.855 183.425 125.967 183.642C126.08 183.858 126.278 184.032 126.356 184.266C126.434 184.491 126.563 184.725 126.606 184.968C126.641 185.201 126.632 185.461 126.632 185.713C126.632 185.964 126.468 186.198 126.434 186.432C126.399 186.674 126.304 186.891 126.235 187.125C126.157 187.359 126.175 187.627 126.071 187.835C125.959 188.052 125.855 188.286 125.717 188.476C125.57 188.676 125.337 188.788 125.164 188.962C124.991 189.135 124.836 189.317 124.637 189.464C124.438 189.603 124.248 189.75 124.032 189.863C123.817 189.975 123.609 190.114 123.376 190.183C123.151 190.261 122.901 190.287 122.659 190.331C122.365 190.357 122.124 190.4 121.873 190.4Z" fill="#626493" stroke="#626493" stroke-width="1.72995" mask="url(#path-2-inside-1_2245_5794)"/>
<mask id="path-3-inside-2_2245_5794" fill="white">
<path d="M211.566 185.999C211.549 185.791 211.653 185.583 211.627 185.375C211.601 185.176 211.489 184.985 211.445 184.786C211.402 184.587 211.437 184.361 211.385 184.171C211.324 183.971 211.255 183.781 211.186 183.59C211.117 183.4 210.936 183.252 210.849 183.07C210.763 182.888 210.703 182.689 210.607 182.516C210.512 182.334 210.426 182.152 210.314 181.979C210.202 181.805 210.072 181.65 209.951 181.494C209.83 181.329 209.709 181.164 209.58 181.017C209.45 180.861 209.338 180.688 209.191 180.549C209.044 180.402 208.845 180.324 208.69 180.194C208.534 180.064 208.422 179.873 208.267 179.752C208.103 179.631 207.947 179.492 207.783 179.38C207.61 179.267 207.394 179.232 207.221 179.137C207.04 179.042 206.893 178.886 206.703 178.808C206.522 178.721 206.306 178.721 206.107 178.652C205.917 178.582 205.753 178.435 205.563 178.374C205.373 178.314 205.166 178.271 204.967 178.227C204.768 178.184 204.552 178.245 204.354 178.219C204.155 178.193 203.965 178.08 203.758 178.071C203.559 178.054 203.352 178.002 203.145 178.002C202.946 178.002 202.739 178.037 202.531 178.045C202.324 178.054 202.125 178.08 201.927 178.106C201.728 178.132 201.529 178.21 201.331 178.253C201.132 178.297 200.933 178.331 200.735 178.383C200.536 178.444 200.372 178.565 200.182 178.643C199.992 178.712 199.776 178.73 199.594 178.816C199.413 178.903 199.249 179.042 199.076 179.137C198.895 179.232 198.748 179.371 198.575 179.475C198.402 179.587 198.178 179.613 198.014 179.735C197.85 179.856 197.694 179.986 197.539 180.116C197.383 180.246 197.262 180.419 197.124 180.567C196.977 180.714 196.874 180.887 196.744 181.043C196.614 181.199 196.476 181.346 196.355 181.502C196.234 181.667 196.122 181.831 196.01 182.005C195.897 182.178 195.716 182.299 195.612 182.481C195.517 182.663 195.5 182.88 195.414 183.07C195.327 183.252 195.258 183.443 195.189 183.634C195.12 183.824 195.051 184.015 194.99 184.205C194.93 184.396 194.87 184.587 194.826 184.786C194.783 184.985 194.723 185.176 194.697 185.384C194.671 185.583 194.662 185.791 194.654 185.99C194.636 186.189 194.559 186.397 194.559 186.597C194.559 186.796 194.671 186.995 194.688 187.203C194.705 187.411 194.74 187.602 194.766 187.81C194.792 188.009 194.723 188.234 194.766 188.433C194.809 188.633 194.904 188.823 194.956 189.014C195.016 189.213 195.094 189.395 195.163 189.586C195.232 189.776 195.327 189.958 195.414 190.14C195.5 190.322 195.5 190.556 195.604 190.729C195.699 190.911 195.837 191.067 195.949 191.241C196.062 191.414 196.252 191.526 196.373 191.691C196.494 191.856 196.571 192.055 196.701 192.202C196.83 192.358 197.003 192.471 197.15 192.618C197.297 192.765 197.461 192.878 197.608 193.008C197.763 193.138 197.85 193.355 198.005 193.476C198.169 193.597 198.342 193.71 198.506 193.822C198.679 193.935 198.869 194.013 199.042 194.108C199.223 194.204 199.378 194.351 199.56 194.438C199.741 194.524 199.931 194.602 200.121 194.671C200.311 194.741 200.536 194.706 200.735 194.758C200.925 194.819 201.132 194.836 201.331 194.879C201.529 194.923 201.702 195.087 201.909 195.113C202.108 195.139 202.315 195.148 202.523 195.165C202.721 195.183 202.929 195.2 203.136 195.2C203.335 195.2 203.542 195.139 203.74 195.122C203.939 195.105 204.155 195.131 204.354 195.105C204.552 195.079 204.734 194.931 204.932 194.888C205.131 194.845 205.356 194.897 205.546 194.845C205.744 194.784 205.943 194.741 206.133 194.671C206.323 194.602 206.487 194.455 206.669 194.368C206.85 194.282 207.066 194.256 207.247 194.152C207.429 194.056 207.584 193.918 207.757 193.805C207.93 193.692 208.042 193.51 208.206 193.389C208.37 193.268 208.595 193.225 208.742 193.086C208.897 192.956 209.035 192.809 209.182 192.661C209.329 192.514 209.459 192.358 209.588 192.202C209.718 192.046 209.77 191.83 209.89 191.665C210.011 191.5 210.219 191.396 210.331 191.232C210.443 191.059 210.547 190.885 210.642 190.703C210.737 190.521 210.823 190.339 210.91 190.158C210.996 189.976 211.048 189.776 211.117 189.586C211.186 189.395 211.298 189.213 211.35 189.023C211.411 188.832 211.402 188.615 211.445 188.416C211.489 188.217 211.583 188.026 211.618 187.827C211.644 187.628 211.653 187.42 211.67 187.212C211.687 187.013 211.627 186.805 211.627 186.597C211.627 186.406 211.575 186.207 211.566 185.999ZM203.473 191.31C203.265 191.327 203.067 191.197 202.86 191.189C202.652 191.18 202.445 191.223 202.246 191.189C202.047 191.154 201.875 191.007 201.685 190.946C201.495 190.885 201.313 190.816 201.132 190.721C200.951 190.634 200.717 190.625 200.553 190.513C200.38 190.4 200.242 190.253 200.087 190.114C199.931 189.984 199.802 189.82 199.672 189.672C199.534 189.525 199.396 189.378 199.283 189.204C199.171 189.04 199.076 188.858 198.981 188.676C198.895 188.494 198.843 188.295 198.782 188.104C198.713 187.914 198.584 187.74 198.549 187.532C198.506 187.333 198.558 187.125 198.541 186.917C198.523 186.709 198.549 186.51 198.558 186.311C198.566 186.103 198.515 185.895 198.558 185.696C198.592 185.496 198.713 185.314 198.774 185.124C198.834 184.933 198.843 184.708 198.929 184.526C199.016 184.344 199.197 184.214 199.309 184.041C199.422 183.867 199.534 183.712 199.672 183.556C199.802 183.4 199.879 183.183 200.026 183.053C200.173 182.914 200.389 182.862 200.562 182.741C200.726 182.629 200.925 182.568 201.106 182.481C201.287 182.395 201.46 182.291 201.65 182.23C201.84 182.161 202.03 182.117 202.229 182.074C202.428 182.031 202.618 181.97 202.825 181.953C203.032 181.935 203.231 181.953 203.43 181.97C203.637 181.979 203.844 181.944 204.043 181.979C204.242 182.013 204.423 182.135 204.613 182.204C204.803 182.265 205.01 182.299 205.192 182.386C205.373 182.473 205.572 182.551 205.744 182.663C205.917 182.776 206.012 182.984 206.159 183.122C206.315 183.252 206.453 183.391 206.591 183.547C206.729 183.694 206.885 183.833 206.997 183.997C207.109 184.162 207.256 184.318 207.342 184.5C207.429 184.682 207.498 184.881 207.567 185.072C207.636 185.262 207.688 185.462 207.731 185.661C207.774 185.86 207.705 186.068 207.714 186.276C207.731 186.484 207.818 186.683 207.8 186.883C207.792 187.09 207.774 187.298 207.731 187.489C207.697 187.688 207.636 187.888 207.567 188.078C207.507 188.269 207.411 188.459 207.316 188.641C207.23 188.823 207.109 188.988 206.997 189.161C206.885 189.334 206.781 189.508 206.643 189.655C206.513 189.811 206.315 189.898 206.168 190.036C206.021 190.175 205.926 190.374 205.753 190.487C205.589 190.599 205.416 190.721 205.235 190.807C205.053 190.894 204.829 190.877 204.639 190.946C204.449 191.015 204.267 191.111 204.069 191.145C203.87 191.18 203.671 191.293 203.473 191.31ZM208.966 186.926C208.906 186.579 209.096 186.562 209.087 186.215C209.087 186.016 209.01 185.817 209.001 185.618C208.992 185.418 209.061 185.21 209.044 185.011C209.018 184.812 208.984 184.613 208.958 184.413C208.932 184.214 208.776 184.041 208.733 183.841C208.69 183.642 208.673 183.443 208.612 183.252C208.56 183.062 208.517 182.871 208.448 182.681C208.586 182.854 208.716 183.01 208.819 183.192C208.923 183.382 209.001 183.582 209.07 183.781C209.139 183.989 209.156 184.197 209.191 184.405C209.225 184.621 209.329 184.829 209.338 185.028C209.346 185.254 209.269 185.47 209.251 185.67C209.234 185.904 209.182 186.111 209.148 186.293C209.079 186.666 209.027 187.229 208.966 186.926Z"/>
</mask>
<path d="M211.566 185.999C211.549 185.791 211.653 185.583 211.627 185.375C211.601 185.176 211.489 184.985 211.445 184.786C211.402 184.587 211.437 184.361 211.385 184.171C211.324 183.971 211.255 183.781 211.186 183.59C211.117 183.4 210.936 183.252 210.849 183.07C210.763 182.888 210.703 182.689 210.607 182.516C210.512 182.334 210.426 182.152 210.314 181.979C210.202 181.805 210.072 181.65 209.951 181.494C209.83 181.329 209.709 181.164 209.58 181.017C209.45 180.861 209.338 180.688 209.191 180.549C209.044 180.402 208.845 180.324 208.69 180.194C208.534 180.064 208.422 179.873 208.267 179.752C208.103 179.631 207.947 179.492 207.783 179.38C207.61 179.267 207.394 179.232 207.221 179.137C207.04 179.042 206.893 178.886 206.703 178.808C206.522 178.721 206.306 178.721 206.107 178.652C205.917 178.582 205.753 178.435 205.563 178.374C205.373 178.314 205.166 178.271 204.967 178.227C204.768 178.184 204.552 178.245 204.354 178.219C204.155 178.193 203.965 178.08 203.758 178.071C203.559 178.054 203.352 178.002 203.145 178.002C202.946 178.002 202.739 178.037 202.531 178.045C202.324 178.054 202.125 178.08 201.927 178.106C201.728 178.132 201.529 178.21 201.331 178.253C201.132 178.297 200.933 178.331 200.735 178.383C200.536 178.444 200.372 178.565 200.182 178.643C199.992 178.712 199.776 178.73 199.594 178.816C199.413 178.903 199.249 179.042 199.076 179.137C198.895 179.232 198.748 179.371 198.575 179.475C198.402 179.587 198.178 179.613 198.014 179.735C197.85 179.856 197.694 179.986 197.539 180.116C197.383 180.246 197.262 180.419 197.124 180.567C196.977 180.714 196.874 180.887 196.744 181.043C196.614 181.199 196.476 181.346 196.355 181.502C196.234 181.667 196.122 181.831 196.01 182.005C195.897 182.178 195.716 182.299 195.612 182.481C195.517 182.663 195.5 182.88 195.414 183.07C195.327 183.252 195.258 183.443 195.189 183.634C195.12 183.824 195.051 184.015 194.99 184.205C194.93 184.396 194.87 184.587 194.826 184.786C194.783 184.985 194.723 185.176 194.697 185.384C194.671 185.583 194.662 185.791 194.654 185.99C194.636 186.189 194.559 186.397 194.559 186.597C194.559 186.796 194.671 186.995 194.688 187.203C194.705 187.411 194.74 187.602 194.766 187.81C194.792 188.009 194.723 188.234 194.766 188.433C194.809 188.633 194.904 188.823 194.956 189.014C195.016 189.213 195.094 189.395 195.163 189.586C195.232 189.776 195.327 189.958 195.414 190.14C195.5 190.322 195.5 190.556 195.604 190.729C195.699 190.911 195.837 191.067 195.949 191.241C196.062 191.414 196.252 191.526 196.373 191.691C196.494 191.856 196.571 192.055 196.701 192.202C196.83 192.358 197.003 192.471 197.15 192.618C197.297 192.765 197.461 192.878 197.608 193.008C197.763 193.138 197.85 193.355 198.005 193.476C198.169 193.597 198.342 193.71 198.506 193.822C198.679 193.935 198.869 194.013 199.042 194.108C199.223 194.204 199.378 194.351 199.56 194.438C199.741 194.524 199.931 194.602 200.121 194.671C200.311 194.741 200.536 194.706 200.735 194.758C200.925 194.819 201.132 194.836 201.331 194.879C201.529 194.923 201.702 195.087 201.909 195.113C202.108 195.139 202.315 195.148 202.523 195.165C202.721 195.183 202.929 195.2 203.136 195.2C203.335 195.2 203.542 195.139 203.74 195.122C203.939 195.105 204.155 195.131 204.354 195.105C204.552 195.079 204.734 194.931 204.932 194.888C205.131 194.845 205.356 194.897 205.546 194.845C205.744 194.784 205.943 194.741 206.133 194.671C206.323 194.602 206.487 194.455 206.669 194.368C206.85 194.282 207.066 194.256 207.247 194.152C207.429 194.056 207.584 193.918 207.757 193.805C207.93 193.692 208.042 193.51 208.206 193.389C208.37 193.268 208.595 193.225 208.742 193.086C208.897 192.956 209.035 192.809 209.182 192.661C209.329 192.514 209.459 192.358 209.588 192.202C209.718 192.046 209.77 191.83 209.89 191.665C210.011 191.5 210.219 191.396 210.331 191.232C210.443 191.059 210.547 190.885 210.642 190.703C210.737 190.521 210.823 190.339 210.91 190.158C210.996 189.976 211.048 189.776 211.117 189.586C211.186 189.395 211.298 189.213 211.35 189.023C211.411 188.832 211.402 188.615 211.445 188.416C211.489 188.217 211.583 188.026 211.618 187.827C211.644 187.628 211.653 187.42 211.67 187.212C211.687 187.013 211.627 186.805 211.627 186.597C211.627 186.406 211.575 186.207 211.566 185.999ZM203.473 191.31C203.265 191.327 203.067 191.197 202.86 191.189C202.652 191.18 202.445 191.223 202.246 191.189C202.047 191.154 201.875 191.007 201.685 190.946C201.495 190.885 201.313 190.816 201.132 190.721C200.951 190.634 200.717 190.625 200.553 190.513C200.38 190.4 200.242 190.253 200.087 190.114C199.931 189.984 199.802 189.82 199.672 189.672C199.534 189.525 199.396 189.378 199.283 189.204C199.171 189.04 199.076 188.858 198.981 188.676C198.895 188.494 198.843 188.295 198.782 188.104C198.713 187.914 198.584 187.74 198.549 187.532C198.506 187.333 198.558 187.125 198.541 186.917C198.523 186.709 198.549 186.51 198.558 186.311C198.566 186.103 198.515 185.895 198.558 185.696C198.592 185.496 198.713 185.314 198.774 185.124C198.834 184.933 198.843 184.708 198.929 184.526C199.016 184.344 199.197 184.214 199.309 184.041C199.422 183.867 199.534 183.712 199.672 183.556C199.802 183.4 199.879 183.183 200.026 183.053C200.173 182.914 200.389 182.862 200.562 182.741C200.726 182.629 200.925 182.568 201.106 182.481C201.287 182.395 201.46 182.291 201.65 182.23C201.84 182.161 202.03 182.117 202.229 182.074C202.428 182.031 202.618 181.97 202.825 181.953C203.032 181.935 203.231 181.953 203.43 181.97C203.637 181.979 203.844 181.944 204.043 181.979C204.242 182.013 204.423 182.135 204.613 182.204C204.803 182.265 205.01 182.299 205.192 182.386C205.373 182.473 205.572 182.551 205.744 182.663C205.917 182.776 206.012 182.984 206.159 183.122C206.315 183.252 206.453 183.391 206.591 183.547C206.729 183.694 206.885 183.833 206.997 183.997C207.109 184.162 207.256 184.318 207.342 184.5C207.429 184.682 207.498 184.881 207.567 185.072C207.636 185.262 207.688 185.462 207.731 185.661C207.774 185.86 207.705 186.068 207.714 186.276C207.731 186.484 207.818 186.683 207.8 186.883C207.792 187.09 207.774 187.298 207.731 187.489C207.697 187.688 207.636 187.888 207.567 188.078C207.507 188.269 207.411 188.459 207.316 188.641C207.23 188.823 207.109 188.988 206.997 189.161C206.885 189.334 206.781 189.508 206.643 189.655C206.513 189.811 206.315 189.898 206.168 190.036C206.021 190.175 205.926 190.374 205.753 190.487C205.589 190.599 205.416 190.721 205.235 190.807C205.053 190.894 204.829 190.877 204.639 190.946C204.449 191.015 204.267 191.111 204.069 191.145C203.87 191.18 203.671 191.293 203.473 191.31ZM208.966 186.926C208.906 186.579 209.096 186.562 209.087 186.215C209.087 186.016 209.01 185.817 209.001 185.618C208.992 185.418 209.061 185.21 209.044 185.011C209.018 184.812 208.984 184.613 208.958 184.413C208.932 184.214 208.776 184.041 208.733 183.841C208.69 183.642 208.673 183.443 208.612 183.252C208.56 183.062 208.517 182.871 208.448 182.681C208.586 182.854 208.716 183.01 208.819 183.192C208.923 183.382 209.001 183.582 209.07 183.781C209.139 183.989 209.156 184.197 209.191 184.405C209.225 184.621 209.329 184.829 209.338 185.028C209.346 185.254 209.269 185.47 209.251 185.67C209.234 185.904 209.182 186.111 209.148 186.293C209.079 186.666 209.027 187.229 208.966 186.926Z" fill="#626493" stroke="#626493" stroke-width="1.72995" mask="url(#path-3-inside-2_2245_5794)"/>
<path d="M199.672 154.817C199.448 153.292 199.387 153.301 199.163 151.785C198.929 150.26 198.99 150.251 198.757 148.735C198.524 147.21 198.489 147.219 198.264 145.694C198.031 144.169 198.014 144.178 197.781 142.653C197.556 141.137 197.547 141.137 197.323 139.612C197.09 138.087 197.116 138.087 196.882 136.562C196.658 135.046 196.597 135.054 196.364 133.53C196.131 132.005 196.191 131.996 195.967 130.48C195.742 128.955 195.777 128.955 195.543 127.43C195.31 125.905 195.258 125.914 195.034 124.389C194.809 122.864 194.818 122.864 194.593 121.339C194.36 119.814 194.343 119.823 194.118 118.298C193.885 116.773 193.928 116.765 193.704 115.249C193.47 113.724 193.496 113.724 193.263 112.199C193.038 110.674 193.064 110.674 192.84 109.149C192.607 107.624 192.555 107.633 192.33 106.108C192.097 104.583 192.045 104.592 191.812 103.067C191.579 101.542 191.587 101.542 191.363 100.017C191.13 98.4924 191.199 98.4837 190.966 96.9589C190.732 95.434 190.162 95.4167 190.464 93.9005C190.81 92.185 191.354 92.3843 192.201 90.8594C192.546 90.2443 192.261 89.9757 192.848 89.5771C194.144 89.4818 194.36 89.1959 194.447 87.9743C194.352 86.6747 194.127 85.6784 192.831 85.765C192.028 85.7997 192.028 85.8257 191.225 85.8603C190.413 85.921 189.929 87.0732 189.454 87.7317C188.694 89.3345 188.737 89.3519 187.994 90.9721C187.726 91.3446 187.234 91.1107 186.854 90.8508C185.265 89.7764 185.256 89.7937 183.658 88.7107C183.148 88.3642 182.578 88.2082 181.965 88.2429C180.272 88.2516 180.272 88.2342 178.579 88.2169C176.886 88.1996 176.886 88.1562 175.193 88.1649C174.312 88.2256 173.664 88.9533 173.725 89.837C173.776 90.5908 173.811 90.5909 173.871 91.3446C173.932 92.2284 174.64 92.8435 175.521 92.7828C177.128 92.7742 177.128 92.8955 178.735 92.9128C180.341 92.9388 180.419 92.4276 181.965 92.8694C183.192 93.2247 182.976 93.6839 184.012 94.429C185.049 95.1741 185.083 95.1221 186.128 95.8672" stroke="#626493" stroke-width="0.721215" stroke-miterlimit="10" stroke-linecap="round" stroke-linejoin="round"/>
<path d="M205.192 173.808C205.279 174.476 205.296 174.476 205.382 175.143C205.469 175.81 205.495 175.81 205.581 176.477C205.667 177.144 205.728 177.153 205.693 177.829C205.667 178.409 205.59 178.409 205.443 178.972C205.296 179.535 205.244 179.527 205.097 180.09C204.95 180.653 204.968 180.662 204.821 181.225C204.674 181.788 204.648 181.779 204.501 182.351C204.354 182.914 204.32 182.906 204.173 183.477C204.026 184.041 204.061 184.049 203.905 184.621C203.758 185.184 204.061 185.375 203.594 185.73C203.024 186.172 202.895 185.808 202.186 185.903C201.478 185.999 201.409 186.467 200.744 186.198C200.2 185.981 200.416 185.669 200.105 185.158C199.802 184.656 199.828 184.638 199.526 184.127C199.224 183.625 199.276 183.59 198.973 183.079C198.671 182.576 198.628 182.594 198.325 182.091C198.023 181.589 197.989 181.606 197.686 181.095C197.384 180.584 197.418 180.566 197.116 180.055C196.814 179.544 196.667 179.613 196.486 179.05C196.27 178.409 196.434 178.374 196.347 177.707C196.261 177.04 196.226 177.04 196.14 176.373C196.054 175.706 196.019 175.706 195.933 175.039C195.89 174.692 196.054 174.372 196.252 174.112C196.451 173.852 196.719 173.644 197.064 173.601C197.626 173.531 197.617 173.497 198.179 173.419C198.74 173.349 198.74 173.384 199.301 173.315C199.863 173.245 199.863 173.28 200.424 173.202C200.986 173.133 200.986 173.15 201.547 173.081C202.109 173.011 202.091 172.899 202.653 172.821C203.214 172.743 203.223 172.821 203.784 172.743C204.13 172.699 204.449 172.795 204.709 172.985C204.942 173.176 205.149 173.462 205.192 173.808Z" fill="white"/>
<path d="M205.192 173.808C205.279 174.476 205.296 174.476 205.382 175.143C205.469 175.81 205.495 175.81 205.581 176.477C205.667 177.144 205.728 177.153 205.693 177.829C205.667 178.409 205.59 178.409 205.443 178.972C205.296 179.535 205.244 179.527 205.097 180.09C204.95 180.653 204.968 180.662 204.821 181.225C204.674 181.788 204.648 181.779 204.501 182.351C204.354 182.914 204.32 182.906 204.173 183.477C204.026 184.041 204.061 184.049 203.905 184.621C203.758 185.184 204.061 185.375 203.594 185.73C203.024 186.172 202.895 185.808 202.186 185.903C201.478 185.999 201.409 186.467 200.744 186.198C200.2 185.981 200.416 185.669 200.105 185.158C199.802 184.656 199.828 184.638 199.526 184.127C199.224 183.625 199.276 183.59 198.973 183.079C198.671 182.576 198.628 182.594 198.325 182.091C198.023 181.589 197.989 181.606 197.686 181.095C197.384 180.584 197.418 180.566 197.116 180.055C196.814 179.544 196.667 179.613 196.486 179.05C196.27 178.409 196.434 178.374 196.347 177.707C196.261 177.04 196.226 177.04 196.14 176.373C196.054 175.706 196.019 175.706 195.933 175.039C195.89 174.692 196.054 174.372 196.252 174.112C196.451 173.852 196.719 173.644 197.064 173.601C197.626 173.531 197.617 173.497 198.179 173.419C198.74 173.349 198.74 173.384 199.301 173.315C199.863 173.245 199.863 173.28 200.424 173.202C200.986 173.133 200.986 173.15 201.547 173.081C202.109 173.011 202.091 172.899 202.653 172.821C203.214 172.743 203.223 172.821 203.784 172.743C204.13 172.699 204.449 172.795 204.709 172.985C204.942 173.176 205.149 173.462 205.192 173.808Z" stroke="#626493" stroke-width="0.961763" stroke-miterlimit="10" stroke-linecap="round" stroke-linejoin="round"/>
<path d="M196.502 164.997C196.597 165.586 196.614 165.586 196.709 166.175C196.804 166.773 196.856 166.756 196.951 167.354C197.046 167.952 197.003 167.952 197.098 168.549C197.193 169.147 197.141 169.147 197.228 169.745C197.323 170.343 197.314 170.343 197.4 170.941C197.495 171.538 197.582 171.521 197.677 172.119C197.772 172.717 197.314 172.977 197.78 173.358C198.23 173.722 198.376 173.211 198.946 173.15C199.517 173.089 199.517 173.089 200.087 173.029C200.657 172.968 200.665 173.055 201.244 172.994C201.814 172.933 201.996 173.245 202.341 172.786C202.695 172.318 202.255 172.24 202.16 171.668C202.073 171.088 202.091 171.088 202.004 170.507C201.918 169.927 201.883 169.927 201.797 169.346C201.71 168.766 201.762 168.757 201.676 168.177C201.59 167.596 201.572 167.596 201.486 167.016C201.4 166.435 201.434 166.427 201.348 165.846C201.261 165.266 201.166 165.274 201.08 164.694" fill="white"/>
<path d="M196.502 164.997C196.597 165.586 196.614 165.586 196.709 166.175C196.804 166.773 196.856 166.756 196.951 167.354C197.046 167.952 197.003 167.952 197.098 168.549C197.193 169.147 197.141 169.147 197.228 169.745C197.323 170.343 197.314 170.343 197.4 170.941C197.495 171.538 197.582 171.521 197.677 172.119C197.772 172.717 197.314 172.977 197.78 173.358C198.23 173.722 198.376 173.211 198.946 173.15C199.517 173.089 199.517 173.089 200.087 173.029C200.657 172.968 200.665 173.055 201.244 172.994C201.814 172.933 201.996 173.245 202.341 172.786C202.695 172.318 202.255 172.24 202.16 171.668C202.073 171.088 202.091 171.088 202.004 170.507C201.918 169.927 201.883 169.927 201.797 169.346C201.71 168.766 201.762 168.757 201.676 168.177C201.59 167.596 201.572 167.596 201.486 167.016C201.4 166.435 201.434 166.427 201.348 165.846C201.261 165.266 201.166 165.274 201.08 164.694" stroke="#626493" stroke-width="0.961677" stroke-miterlimit="10" stroke-linecap="round" stroke-linejoin="round"/>
<path d="M132.006 189.248C133.414 189.248 133.414 189.074 134.813 189.074C136.221 189.074 136.221 189.369 137.62 189.369C139.028 189.369 139.028 189.352 140.428 189.352C141.836 189.352 141.836 189.386 143.235 189.386C144.643 189.386 144.643 189.36 146.042 189.36C147.45 189.36 147.45 189.083 148.858 189.083C150.266 189.083 150.266 189.23 151.674 189.23C153.082 189.23 153.082 189.222 154.481 189.222C155.889 189.222 155.889 189.178 157.297 189.178C158.705 189.178 158.705 189.196 160.113 189.196C161.521 189.196 161.521 189.412 162.929 189.412C164.337 189.412 164.337 189.378 165.745 189.378C167.153 189.378 167.153 189.135 168.561 189.135C169.519 189.135 170.469 189.161 171.385 188.979C172.318 188.797 173.216 188.477 174.089 188.113C174.961 187.749 175.911 187.463 176.697 186.943C177.483 186.423 178.131 185.687 178.813 185.011C179.479 184.352 179.928 183.503 180.463 182.706C181.275 181.459 181.552 181.641 182.364 180.384C183.175 179.137 183.029 179.041 183.841 177.794C184.653 176.546 184.696 176.581 185.508 175.325C186.32 174.077 186.371 174.103 187.175 172.855C187.987 171.608 187.987 171.608 188.799 170.351C189.611 169.104 189.395 168.956 190.207 167.709C191.019 166.453 191.269 166.617 192.081 165.37C192.893 164.113 192.85 164.087 193.662 162.831" stroke="#626493" stroke-width="0.721215" stroke-miterlimit="10" stroke-linecap="round" stroke-linejoin="round"/>
<path d="M192.47 153.136C191.684 154.306 191.701 154.314 190.923 155.484C190.137 156.654 189.999 156.558 189.222 157.728C188.436 158.898 188.617 159.019 187.831 160.189C187.045 161.358 187.019 161.341 186.242 162.511C185.456 163.68 185.343 163.602 184.566 164.772C183.78 165.942 183.875 166.002 183.089 167.172C182.303 168.341 182.433 168.428 181.647 169.598C180.86 170.767 180.757 170.698 179.971 171.868C179.185 173.037 179.297 173.115 178.511 174.285C177.725 175.455 177.595 175.368 176.809 176.538C176.023 177.707 175.903 177.629 175.116 178.799C174.581 179.587 174.002 180.306 173.259 180.87C172.508 181.441 171.661 181.823 170.772 182.126C169.891 182.42 168.992 182.836 168.034 182.836C166.539 182.836 166.539 182.654 165.045 182.654C163.551 182.654 163.551 182.663 162.056 182.663C160.562 182.663 160.562 182.802 159.068 182.802C157.573 182.802 157.573 182.524 156.079 182.524C154.585 182.524 154.585 182.559 153.082 182.559C151.587 182.559 151.587 182.568 150.084 182.568C148.59 182.568 148.59 182.533 147.096 182.533C145.601 182.533 145.601 182.793 144.098 182.793C142.604 182.793 142.604 182.559 141.101 182.559C139.607 182.559 139.607 182.533 138.104 182.533C136.601 182.533 136.601 182.628 135.107 182.628C133.604 182.628 133.604 182.585 132.109 182.585" stroke="#626493" stroke-width="0.721215" stroke-miterlimit="10" stroke-linecap="round" stroke-linejoin="round"/>
<path d="M131.103 177.858L131.101 177.856C128.679 174.763 125.038 172.986 121.121 172.986C119.029 172.986 116.963 173.506 115.129 174.493C114.582 174.786 113.9 174.583 113.598 174.026C113.301 173.48 113.507 172.796 114.063 172.49C116.22 171.329 118.654 170.715 121.121 170.715C125.739 170.715 130.019 172.802 132.874 176.449L132.875 176.451C133.26 176.936 133.176 177.652 132.679 178.043L132.679 178.043L132.672 178.049C132.471 178.213 132.234 178.288 131.988 178.288C131.649 178.288 131.319 178.138 131.103 177.858Z" fill="#626493" stroke="#626493" stroke-width="0.864973"/>
<path d="M172.975 181.051H132.473V182.195H171.014C171.161 182.195 171.308 182.152 171.429 182.074L172.975 181.051Z" fill="#626493" stroke="#626493" stroke-width="0.693795" stroke-miterlimit="10" stroke-linecap="round"/>
<path d="M194.447 157.442L200.77 156.602" stroke="#626493" stroke-width="1.048" stroke-miterlimit="10" stroke-linecap="round" stroke-linejoin="round"/>
<path d="M194.869 160.05L201.192 159.201" stroke="#626493" stroke-width="1.048" stroke-miterlimit="10" stroke-linecap="round" stroke-linejoin="round"/>
<path d="M195.225 162.796L201.547 161.947" stroke="#626493" stroke-width="1.048" stroke-miterlimit="10" stroke-linecap="round" stroke-linejoin="round"/>
<path d="M133.706 187.289C132.998 187.289 132.998 187.185 132.281 187.185C131.573 187.185 131.573 187.272 130.856 187.272C130.147 187.272 130.148 187.203 129.431 187.203C128.714 187.203 128.714 187.211 128.005 187.211C127.297 187.211 127.297 187.255 126.58 187.255C125.863 187.255 125.863 187.237 125.155 187.237C124.438 187.237 124.438 187.073 123.73 187.073C123.021 187.073 123.013 187.246 122.305 187.246C121.899 187.246 121.475 187.073 121.208 186.804C120.94 186.536 120.914 186.111 120.914 185.704H120.732C120.732 185.297 120.983 184.915 121.251 184.647C121.518 184.378 121.899 184.326 122.305 184.326C123.013 184.326 123.013 184.326 123.721 184.326C124.429 184.326 124.429 184.127 125.138 184.127C125.846 184.127 125.846 184.283 126.554 184.283C127.263 184.283 127.263 184.136 127.971 184.136C128.679 184.136 128.679 184.344 129.387 184.344C130.096 184.344 130.096 184.335 130.804 184.335C131.512 184.335 131.512 184.162 132.221 184.162C132.929 184.162 132.929 184.153 133.637 184.153" fill="white"/>
<path d="M133.706 187.289C132.998 187.289 132.998 187.185 132.281 187.185C131.573 187.185 131.573 187.272 130.856 187.272C130.147 187.272 130.148 187.203 129.431 187.203C128.714 187.203 128.714 187.211 128.005 187.211C127.297 187.211 127.297 187.255 126.58 187.255C125.863 187.255 125.863 187.237 125.155 187.237C124.438 187.237 124.438 187.073 123.73 187.073C123.021 187.073 123.013 187.246 122.305 187.246C121.899 187.246 121.475 187.073 121.208 186.804C120.94 186.536 120.914 186.111 120.914 185.704H120.732C120.732 185.297 120.983 184.915 121.251 184.647C121.518 184.378 121.899 184.326 122.305 184.326C123.013 184.326 123.013 184.326 123.721 184.326C124.429 184.326 124.429 184.127 125.138 184.127C125.846 184.127 125.846 184.283 126.554 184.283C127.263 184.283 127.263 184.136 127.971 184.136C128.679 184.136 128.679 184.344 129.387 184.344C130.096 184.344 130.096 184.335 130.804 184.335C131.512 184.335 131.512 184.162 132.221 184.162C132.929 184.162 132.929 184.153 133.637 184.153" stroke="#626493" stroke-width="1.04653" stroke-miterlimit="10" stroke-linecap="round" stroke-linejoin="round"/>
<path d="M186.602 96.9932C186.861 98.8126 186.913 98.8039 187.172 100.623C187.431 102.443 187.474 102.434 187.733 104.254C187.992 106.064 187.819 106.09 188.079 107.91C188.338 109.729 188.502 109.703 188.77 111.523C189.029 113.342 189.089 113.333 189.357 115.144C189.616 116.964 189.685 116.955 189.953 118.766C190.212 120.585 190.074 120.603 190.333 122.422C190.592 124.241 190.696 124.224 190.955 126.044C191.214 127.863 191.266 127.854 191.534 129.674C191.793 131.493 191.603 131.519 191.862 133.339C192.121 135.158 192.043 135.167 192.302 136.986C192.562 138.806 192.769 138.771 193.028 140.59C193.287 142.41 193.184 142.427 193.451 144.238C193.71 146.057 193.71 146.057 193.97 147.877C194.229 149.696 194.393 149.67 194.652 151.498C194.911 153.318 194.92 153.318 195.187 155.137" stroke="#626493" stroke-width="0.721215" stroke-miterlimit="10" stroke-linecap="round" stroke-linejoin="round"/>
<path d="M176.186 93.0514C177.431 93.0514 178.44 92.039 178.44 90.7901C178.44 89.5412 177.431 88.5288 176.186 88.5288C174.941 88.5288 173.932 89.5412 173.932 90.7901C173.932 92.039 174.941 93.0514 176.186 93.0514Z" fill="white" stroke="#626493" stroke-width="0.584462" stroke-miterlimit="10" stroke-linecap="round" stroke-linejoin="round"/>
<path d="M98.5605 194.888H105.073" stroke="#FF5959" stroke-width="1.08675" stroke-linejoin="round"/>
<path d="M111.896 194.888H210.876" stroke="#FF5959" stroke-width="1.08675" stroke-linejoin="round" stroke-dasharray="13.67 13.67"/>
<path d="M214.287 194.888H220.8" stroke="#FF5959" stroke-width="1.08675" stroke-linejoin="round"/>
</svg>
