<?xml version="1.0" encoding="utf-8"?>
<!-- Generator: Adobe Illustrator 22.0.1, SVG Export Plug-In . SVG Version: 6.00 Build 0)  -->
<svg version="1.1" id="Layer_1" xmlns="http://www.w3.org/2000/svg" xmlns:xlink="http://www.w3.org/1999/xlink" x="0px" y="0px"
	 viewBox="0 0 16 16" enable-background="new 0 0 16 16" xml:space="preserve">
<title>Icon/UI/Dots/Verticale</title>
<desc>Created with Sketch.</desc>
<g id="Icon_x2F_UI_x2F_Dots_x2F_Verticale">
	<g id="Icon-Fill" transform="translate(7.750000, 8.000000) rotate(90.000000) translate(-7.750000, -8.000000) ">
		<path id="path-1_1_" fill="#181C56" d="M6,2.74999c0-0.9665,0.7835-1.75,1.75-1.75s1.75,0.7835,1.75,1.75s-0.7835,1.75-1.75,1.75
			S6,3.71648,6,2.74999z M6,7.99999c0-0.9665,0.7835-1.75,1.75-1.75s1.75,0.7835,1.75,1.75s-0.7835,1.75-1.75,1.75
			S6,8.96648,6,7.99999z M6,13.24999c0-0.9665,0.7835-1.75,1.75-1.75s1.75,0.7835,1.75,1.75s-0.7835,1.75-1.75,1.75
			S6,14.21648,6,13.24999z"/>
	</g>
</g>
</svg>
