<svg width="298" height="60" xmlns="http://www.w3.org/2000/svg">
  <g fill="none" fill-rule="evenodd">
    <text transform="translate(157 7.2)" fill="#FF5853" font-family="Nationale-Medium, Nationale" font-size="45" font-weight="400">
      <tspan x="0" y="52">TAVLA</tspan>
    </text>
    <path fill="#181C56" d="M2.2969.3v29.9145h21.5713V25.147H7.8999v-7.2334h14.1674v-5.0674H7.8999V5.3674h15.9683V.3001z"/>
    <path fill="#FF5959" d="M0 44h52.7883v-4.6H0z"/>
    <path fill="#181C56" d="M49.482.3V18.404L30.2318.3h-.6v29.9144h5.6026v-17.777l19.2516 17.777h.5995V.3zM83.7599 17.912h-8.3643v24.847h-5.6027V17.912h-8.405v-5.0673h22.372zM100.7687 43.2901c-1.8948 0-3.6157-.3001-5.1627-.899-1.5476-.599-2.8684-1.4436-3.9621-2.5337-1.094-1.0895-1.941-2.4112-2.5412-3.9641-.6004-1.553-.9009-3.2825-.9009-5.1903V12.8446h5.6034V30.703c0 1.499.24 2.7383.7204 3.719.48.9808 1.0735 1.7576 1.7807 2.3295.7069.5722 1.4673.9675 2.2816 1.185.8133.2187 1.5407.327 2.1808.327.6404 0 1.3674-.1083 2.1817-.327.8133-.2175 1.5738-.6128 2.281-1.185.7065-.572 1.3006-1.3487 1.7807-2.3295.4807-.9807.7204-2.22.7204-3.719V12.8446h5.6033V30.703c0 1.9078-.2939 3.6373-.8804 5.1903-.5875 1.553-1.4283 2.8746-2.5216 3.964-1.0944 1.0902-2.4152 1.9348-3.9619 2.5338-1.548.5989-3.2817.899-5.2032.899M125.3416 28.2514h6.383c1.1692 0 2.1331-.1496 2.891-.4497.7583-.2995 1.3568-.6948 1.7956-1.1853.4391-.4902.738-1.0418.8974-1.655a7.3553 7.3553 0 00.2394-1.8591c0-.7356-.113-1.4166-.3386-2.0435-.2268-.6263-.5724-1.1708-1.038-1.6346-.4652-.463-1.0634-.8306-1.7948-1.1037-.7321-.2718-1.6154-.4085-2.652-.4085h-6.383v10.3394zm0 4.9857v9.522h-5.603V12.8447h13.3096c1.4972 0 2.8665.2521 4.1095.7562 1.2427.5043 2.3053 1.2123 3.187 2.1248.8817.9132 1.57 2.0027 2.0648 3.2694.494 1.267.7415 2.6498.7415 4.148 0 1.1172-.147 2.2002-.4406 3.2488-.294 1.049-.7019 1.9959-1.2235 2.8402-.5214.8447-1.1627 1.5732-1.924 2.1863-.7615.6131-1.5972 1.0422-2.506 1.2873l7.2946 10.0534h-6.6831l-6.7821-9.522h-5.5447z"/>
  </g>
</svg>