<?xml version="1.0" encoding="utf-8"?>
<!-- Generator: Adobe Illustrator 22.0.1, SVG Export Plug-In . SVG Version: 6.00 Build 0)  -->
<svg version="1.1" id="Layer_1" xmlns="http://www.w3.org/2000/svg" xmlns:xlink="http://www.w3.org/1999/xlink" x="0px" y="0px"
	 viewBox="0 0 16 16" enable-background="new 0 0 16 16" xml:space="preserve">
<title>Icon/Facilities/Animal</title>
<desc>Created with Sketch.</desc>
<g id="Icon_x2F_Facilities_x2F_Animal">
	<g id="Icon-Fill">
		<path id="path-1_1_" fill="#181C56" d="M5.69911,2.00188c0.023-0.00095,0.047-0.00189,0.07-0.00189
			c0.948,0,1.73,0.87046,1.792,1.9822v0.00095c0.064,1.1685-0.71,2.1544-1.707,2.1544c-0.932,0-1.727-0.87141-1.788-1.9822
			C4.00311,3.01616,4.73611,2.05108,5.69911,2.00188z M8.44011,3.97935c0.059-1.03604,0.784-1.97842,1.787-1.97842
			c0.026,0,0.052,0,0.079,0.00189c0.899,0.04636,1.699,0.92629,1.628,2.15535c-0.06,1.0578-0.816,2.02667-1.866,1.97652
			C9.16911,6.08833,8.36911,5.20935,8.44011,3.97935z M11.95911,6.77808c0.253-0.77585,0.924-1.40788,1.669-1.40788
			c0.123,0,0.248,0.01703,0.373,0.05393c0.821,0.23843,1.209,1.20824,0.885,2.20549c-0.326,0.99914-1.223,1.59238-2.042,1.35395
			C12.02311,8.74419,11.63511,7.77533,11.95911,6.77808z M1.99911,5.42413c0.125-0.0369,0.25-0.05393,0.373-0.05393
			c0.746,0,1.417,0.63393,1.669,1.40788c0.324,0.99725-0.064,1.96612-0.885,2.20549c-0.844,0.24316-1.725-0.3813-2.042-1.35395
			C0.79011,6.63237,1.17811,5.66256,1.99911,5.42413z M5.13011,8.12446c0.645-0.984,1.718-1.57251,2.87-1.57251
			s2.225,0.58851,2.869,1.57251l1.169,2.08912c0.561,1.00009,0.403,2.22536-0.394,3.04473
			c-0.702,0.72381-1.711,0.93196-2.629,0.56202c-0.739-0.29709-1.316-0.28669-2.03,0c-0.925,0.37089-1.932,0.15612-2.629-0.56202
			c-0.797-0.81937-0.955-2.04465-0.394-3.04473l1.155-2.06452C5.12111,8.14055,5.12611,8.13203,5.13011,8.12446z"/>
	</g>
</g>
</svg>
