<?xml version="1.0" encoding="utf-8"?>
<!-- Generator: Adobe Illustrator 22.0.1, SVG Export Plug-In . SVG Version: 6.00 Build 0)  -->
<svg version="1.1" id="Layer_1" xmlns="http://www.w3.org/2000/svg" xmlns:xlink="http://www.w3.org/1999/xlink" x="0px" y="0px"
	 viewBox="0 0 16 16" enable-background="new 0 0 16 16" xml:space="preserve">
<title>Icon/Facilities/Bicycle Hotel</title>
<desc>Created with Sketch.</desc>
<g id="Icon_x2F_Facilities_x2F_Bicycle-Hotel">
	<path id="Icon-Fill" fill="#181C56" d="M5.38384,10.21933c0.62752,0.45217,1.03694,1.19522,1.03694,2.03454
		c0,1.37846-1.10135,2.49611-2.45993,2.49611c-1.35951,0-2.46086-1.11765-2.46086-2.49611
		c0-1.37658,1.10135-2.49423,2.46086-2.49423c0.29889,0,0.58534,0.0541,0.85034,0.15315l0.75506-1.47606L5.08059,7.57048H4.63392
		c-0.19223,0-0.34823-0.15913-0.34823-0.35309c0-0.19491,0.15601-0.35309,0.34823-0.35309h1.48487
		c0.19223,0,0.34823,0.15818,0.34823,0.35309c0,0.19396-0.15601,0.35309-0.34823,0.35309H5.8272l0.33152,0.59225l4.20667-0.47455
		L9.785,5.69298l-0.01021-0.0339H7.96397v-0.6591h1.98726c0.1848,0,0.34916,0.12617,0.40117,0.30507l1.30101,4.4851
		c0.12568-0.02008,0.25451-0.03051,0.38575-0.03051c1.35951,0,2.46085,1.11765,2.46085,2.49423
		c0,1.37846-1.10135,2.49611-2.46085,2.49611c-1.35858,0-2.45993-1.11765-2.45993-2.49611c0-1.01223,0.5955-1.88446,1.45088-2.27526
		l-0.41119-1.41383l-1.82452,2.8713c0.08521,0.14235,0.13424,0.30941,0.13424,0.48805c0,0.52069-0.41509,0.94157-0.92862,0.94157
		s-0.92862-0.42088-0.92862-0.94157c0-0.19277,0.0571-0.37207,0.15515-0.52138L5.947,9.11749L5.38384,10.21933z M5.05855,10.85576
		l-0.74779,1.46308c-0.08172,0.16101-0.27673,0.2241-0.43552,0.14124c-0.15879-0.0838-0.22101-0.28341-0.14022-0.44348
		l0.75171-1.4695c-0.16615-0.0528-0.3428-0.08127-0.52587-0.08127c-0.9732,0-1.76439,0.80316-1.76439,1.78805
		c0,0.98677,0.79119,1.78993,1.76439,1.78993c0.97227,0,1.76346-0.80316,1.76346-1.78993
		C5.72431,11.68896,5.46402,11.18383,5.05855,10.85576z M11.22992,10.66566c-0.56634,0.2981-0.95423,0.89861-0.95423,1.58821
		c0,0.98677,0.79119,1.78993,1.76346,1.78993c0.9732,0,1.76439-0.80316,1.76439-1.78993c0-0.98489-0.79119-1.78805-1.76439-1.78805
		c-0.06311,0-0.12545,0.00338-0.18686,0.00998l0.45022,1.55209c0.02414,0.08474,0.01486,0.17419-0.02693,0.2514
		c-0.04179,0.07721-0.11051,0.13276-0.19315,0.15819c-0.17458,0.05367-0.35195-0.0499-0.40209-0.22315L11.22992,10.66566z
		 M8.28109,11.02641l1.67014-2.62734L6.50789,8.787l1.24815,2.22835C7.83376,10.99397,7.91555,10.98256,8,10.98256
		C8.09802,10.98256,8.19245,10.99793,8.28109,11.02641z M8,11.59458c-0.17922,0-0.32502,0.14877-0.32502,0.32955
		c0,0.18172,0.14579,0.33049,0.32502,0.33049c0.17922,0,0.32502-0.14877,0.32502-0.33049
		C8.32502,11.74335,8.17922,11.59458,8,11.59458z M14,5.10029l-6-2.4l-6,2.4v-1.2924l5.5548-2.2224
		c0.2856-0.114,0.6048-0.114,0.8904,0L14,3.80789V5.10029z"/>
</g>
</svg>
