<?xml version="1.0" encoding="utf-8"?>
<!-- Generator: Adobe Illustrator 22.0.1, SVG Export Plug-In . SVG Version: 6.00 Build 0)  -->
<svg version="1.1" id="Layer_1" xmlns="http://www.w3.org/2000/svg" xmlns:xlink="http://www.w3.org/1999/xlink" x="0px" y="0px"
	 viewBox="0 0 16 16" enable-background="new 0 0 16 16" xml:space="preserve">
<title>Icon/Facilities/Bicycle Parking</title>
<desc>Created with Sketch.</desc>
<g id="Icon_x2F_Facilities_x2F_Bicycle-Parking">
	<path id="Icon-Fill" fill="#181C56" d="M8.36576,0.99999c0.78857,0,1.3009,0.3945,1.3009,1.174
		c0,0.7995-0.46988,1.2595-1.30604,1.2595H7.74704v1.5665H7v-4H8.36576z M8.38629,2.70699
		c0.41295,0.0025,0.56413-0.2435,0.56366-0.5125c-0.00047-0.313-0.18618-0.4975-0.56926-0.4975H7.74704v1.01H8.38629z
		 M5.58508,10.81784c0.57925,0.41738,0.95718,1.10328,0.95718,1.87804c0,1.27243-1.01663,2.3041-2.2707,2.3041
		C3.01663,14.99999,2,13.96831,2,12.69588c0-1.27069,1.01663-2.30237,2.27156-2.30237c0.2759,0,0.54031,0.04994,0.78493,0.14137
		l0.69698-1.36251L5.30516,8.37275H4.89285c-0.17744,0-0.32145-0.14688-0.32145-0.32593c0-0.17991,0.14401-0.32593,0.32145-0.32593
		H6.2635c0.17744,0,0.32145,0.14602,0.32145,0.32593c0,0.17904-0.14401,0.32593-0.32145,0.32593H5.99434l0.30602,0.54669
		l3.88308-0.43805L9.64769,6.63968L9.63826,6.60839H7.96674v-0.6084h1.83439c0.17058,0,0.3223,0.11647,0.37031,0.2816
		l1.20093,4.14009c0.11601-0.01854,0.23493-0.02817,0.35608-0.02817c1.25493,0,2.27156,1.03168,2.27156,2.30237
		c0,1.27243-1.01663,2.3041-2.27156,2.3041c-1.25407,0-2.2707-1.03168-2.2707-2.3041c0-0.93437,0.54969-1.7395,1.33927-2.10024
		l-0.37956-1.30507L8.73328,11.941c0.07865,0.1314,0.12391,0.28561,0.12391,0.45051c0,0.48064-0.38317,0.86914-0.85719,0.86914
		c-0.47403,0-0.85719-0.38851-0.85719-0.86914c0-0.17794,0.05271-0.34345,0.14321-0.48127l-1.1811-2.10948L5.58508,10.81784z
		 M5.28482,11.40532l-0.69027,1.35053c-0.07543,0.14862-0.25544,0.20686-0.40202,0.13037
		c-0.14658-0.07735-0.20401-0.26161-0.12944-0.40937l0.69389-1.35646c-0.15337-0.04874-0.31643-0.07502-0.48542-0.07502
		c-0.89834,0-1.62866,0.74138-1.62866,1.65051c0,0.91086,0.73033,1.65224,1.62866,1.65224
		c0.89748,0,1.62781-0.74138,1.62781-1.65224C5.89937,12.17442,5.65909,11.70815,5.28482,11.40532z M10.98146,11.22984
		c-0.52278,0.27517-0.88083,0.82948-0.88083,1.46604c0,0.91086,0.73033,1.65224,1.62781,1.65224
		c0.89834,0,1.62866-0.74138,1.62866-1.65224c0-0.90913-0.73033-1.65051-1.62866-1.65051c-0.05825,0-0.1158,0.00312-0.17249,0.00921
		l0.41559,1.4327c0.02229,0.07822,0.01371,0.16079-0.02486,0.23206c-0.03857,0.07127-0.10201,0.12255-0.1783,0.14602
		c-0.16115,0.04954-0.32488-0.04607-0.37116-0.20599L10.98146,11.22984z M8.25947,11.56284L9.80113,9.1376L6.62266,9.49569
		l1.15214,2.05694C7.84654,11.53289,7.92204,11.52236,8,11.52236C8.09048,11.52236,8.17764,11.53655,8.25947,11.56284z M8,12.08731
		c-0.16544,0-0.30002,0.13732-0.30002,0.3042c0,0.16774,0.13458,0.30507,0.30002,0.30507c0.16544,0,0.30002-0.13733,0.30002-0.30507
		C8.30002,12.22463,8.16544,12.08731,8,12.08731z"/>
</g>
</svg>
