<?xml version="1.0" encoding="utf-8"?>
<!-- Generator: Adobe Illustrator 22.0.1, SVG Export Plug-In . SVG Version: 6.00 Build 0)  -->
<svg version="1.1" id="Layer_1" xmlns="http://www.w3.org/2000/svg" xmlns:xlink="http://www.w3.org/1999/xlink" x="0px" y="0px"
	 viewBox="0 0 16 16" enable-background="new 0 0 16 16" xml:space="preserve">
<title>Icon/Facilities/Bus Shelter</title>
<desc>Created with Sketch.</desc>
<g id="Icon_x2F_Facilities_x2F_Bus-Shelter">
	<path id="Icon-Fill" fill="#181C56" d="M8,11.18741c0.88914,0,1.69714-0.33714,2.30743-0.88457
		C11.31314,10.62513,12,11.36341,12,12.31199v1.688H4v-1.688c0-0.94857,0.688-1.68686,1.69371-2.00914
		C6.304,10.85027,7.112,11.18741,8,11.18741z M5.71429,7.24913c0-1.24,1.02629-2.24914,2.28571-2.24914
		c1.26171,0,2.28686,1.00914,2.28686,2.24914v0.56343c0,1.24114-1.02514,2.25029-2.28686,2.25029
		c-1.25943,0-2.28571-1.00914-2.28571-2.25029V7.24913z M14,5.10029l-6-2.4l-6,2.4v-1.2924l5.5548-2.2224
		c0.2856-0.114,0.6048-0.114,0.8904,0L14,3.80789V5.10029z"/>
</g>
</svg>
