<?xml version="1.0" encoding="utf-8"?>
<!-- Generator: Adobe Illustrator 22.0.1, SVG Export Plug-In . SVG Version: 6.00 Build 0)  -->
<svg version="1.1" id="Layer_1" xmlns="http://www.w3.org/2000/svg" xmlns:xlink="http://www.w3.org/1999/xlink" x="0px" y="0px"
	 viewBox="0 0 16 16" enable-background="new 0 0 16 16" xml:space="preserve">
<title>Icon/Facilities/Park</title>
<desc>Created with Sketch.</desc>
<g id="Icon_x2F_Facilities_x2F_Park">
	<path id="Icon-Fill" fill="#181C56" d="M8.527,4.00009c1.69,0,2.788,0.789,2.788,2.348c0,1.599-1.007,2.519-2.799,2.519H7.201
		v3.133H5.6v-8H8.527z M8.571,7.41409c0.885,0.005,1.209-0.487,1.208-1.025c-0.001-0.626-0.399-0.995-1.22-0.995H7.201v2.02H8.571z
		 M8,14.99999c-3.86599,0-7-3.13401-7-7s3.13401-7,7-7s7,3.13401,7,7S11.86599,14.99999,8,14.99999z M8,13.99999
		c3.31371,0,6-2.68629,6-6s-2.68629-6-6-6s-6,2.68629-6,6S4.68629,13.99999,8,13.99999z"/>
</g>
</svg>
