<?xml version="1.0" encoding="utf-8"?>
<!-- Generator: Adobe Illustrator 23.0.1, SVG Export Plug-In . SVG Version: 6.00 Build 0)  -->
<svg version="1.1" id="Layer_1" xmlns="http://www.w3.org/2000/svg" xmlns:xlink="http://www.w3.org/1999/xlink" x="0px" y="0px"
	 width="16px" height="16px" viewBox="0 0 16 16" enable-background="new 0 0 16 16" xml:space="preserve">
<polygon fill-rule="evenodd" clip-rule="evenodd" fill="#181C56" points="11.4219379,8.6000004 11.4219379,9.5597811 
	12.3999996,9.5597811 12.3999996,10.0899448 11.4265079,10.0899448 11.4265079,11.0497255 10.8780622,11.0497255 
	10.8780622,10.0899448 9.8999996,10.0899448 9.8999996,9.5597811 10.8734922,9.5597811 10.8734922,8.6000004 "/>
<path fill-rule="evenodd" clip-rule="evenodd" fill="#181C56" d="M7.9995117,1c-3.8599854,0-7,3.1409912-7,7s3.1400146,7,7,7
	c3.8609619,0,7-3.1409912,7-7S11.8604736,1,7.9995117,1z M7.9995117,14c-3.3079834,0-6-2.690979-6-6s2.6920166-6,6-6
	c3.30896,0,6,2.690979,6,6S11.3084717,14,7.9995117,14z"/>
<path fill-rule="evenodd" clip-rule="evenodd" fill="#181C56" d="M7.927002,4.0001221H5v8h1.6010132V8.8671265h1.3150024
	c1.7919922,0,2.7990112-0.9200439,2.7990112-2.519043C10.7150269,4.7891235,9.6170044,4.0001221,7.927002,4.0001221z
	 M7.9710083,7.4141235H6.6010132V5.394104h1.3579712c0.8210449,0,1.2189941,0.3690186,1.2200317,0.9949951
	C9.1799927,6.927124,8.8560181,7.4191284,7.9710083,7.4141235z"/>
</svg>
