<?xml version="1.0" encoding="utf-8"?>
<!-- Generator: Adobe Illustrator 22.0.1, SVG Export Plug-In . SVG Version: 6.00 Build 0)  -->
<svg version="1.1" id="Layer_1" xmlns="http://www.w3.org/2000/svg" xmlns:xlink="http://www.w3.org/1999/xlink" x="0px" y="0px"
	 viewBox="0 0 16 16" enable-background="new 0 0 16 16" xml:space="preserve">
<title>Icon/Facilities/Rescue</title>
<desc>Created with Sketch.</desc>
<g id="Icon_x2F_Facilities_x2F_Rescue">
	<g id="Icon-Fill">
		<path id="path-1_1_" fill="#181C56" d="M4.98125,13.33749L6.95,11.36874c0.35,0.0875,0.7,0.175,1.05,0.175
			c0.35,0,0.7-0.04375,1.05-0.175l1.96875,1.96875C10.1,13.86249,9.09375,14.12499,8,14.12499S5.9,13.86249,4.98125,13.33749
			 M2.6625,4.98124l1.96875,1.96875c-0.21875,0.65625-0.21875,1.4,0,2.05625L2.6625,10.97499
			c-0.525-0.875-0.7875-1.88125-0.7875-2.975S2.1375,5.89999,2.6625,4.98124 M11.01875,2.66249L9.05,4.63124
			C8.7,4.54374,8.35,4.49999,8,4.49999c-0.35,0-0.7,0.04375-1.05,0.175l-1.96875-2.0125C5.9,2.13749,6.90625,1.87499,8,1.87499
			S10.1,2.13749,11.01875,2.66249 M9.00625,10.44999L9.00625,10.44999c-0.35,0.0875-0.65625,0.175-1.00625,0.175
			c-0.35,0-0.65625-0.0875-1.00625-0.175c-0.30625-0.13125-0.6125-0.30625-0.875-0.56875
			c-1.00625-1.00625-1.00625-2.66875,0-3.71875c0.2625-0.2625,0.56875-0.4375,0.875-0.56875S7.65,5.41874,8,5.41874
			c0.35,0,0.65625,0.0875,1.00625,0.175c0.30625,0.13125,0.6125,0.30625,0.875,0.56875c1.00625,1.00625,1.00625,2.66875,0,3.71875
			C9.61875,10.09999,9.3125,10.31874,9.00625,10.44999 M13.3375,11.01874l-1.96875-1.96875c0.21875-0.65625,0.21875-1.4,0-2.05625
			l1.96875-1.96875c0.525,0.91875,0.7875,1.925,0.7875,3.01875S13.8625,10.09999,13.3375,11.01874 M12.94375,3.05624
			C11.63125,1.74374,9.88125,0.99999,8,0.99999S4.36875,1.74374,3.05625,3.05624S1,6.11874,1,7.99999
			s0.74375,3.63125,2.05625,4.94375S6.11875,14.99999,8,14.99999s3.63125-0.74375,4.94375-2.05625S15,9.88124,15,7.99999
			S14.25625,4.36874,12.94375,3.05624"/>
	</g>
</g>
</svg>
