<?xml version="1.0" encoding="utf-8"?>
<!-- Generator: Adobe Illustrator 22.0.1, SVG Export Plug-In . SVG Version: 6.00 Build 0)  -->
<svg version="1.1" id="Layer_1" xmlns="http://www.w3.org/2000/svg" xmlns:xlink="http://www.w3.org/1999/xlink" x="0px" y="0px"
	 viewBox="0 0 16 16" enable-background="new 0 0 16 16" xml:space="preserve">
<title>Icon/Facilities/Toilet</title>
<desc>Created with Sketch.</desc>
<g id="Icon_x2F_Facilities_x2F_Toilet">
	<path id="Icon-Fill" fill="#181C56" d="M11.96582,3.35072c-0.64523,0-1.16678-0.52498-1.16678-1.17478
		c0-0.64864,0.52155-1.17595,1.16678-1.17595S13.1326,1.5273,13.1326,2.17594C13.1326,2.82574,12.61105,3.35072,11.96582,3.35072z
		 M14.17184,4.83979l0.81791,3.9175c0.04667,0.22749-0.07001,0.45265-0.27069,0.51565l-0.03734,0.01167
		c-0.20302,0.06183-0.41771-0.0665-0.48655-0.28815l-0.7129-2.15124l-0.06534,3.00754l-0.13768,4.80413
		c-0.00583,0.19133-0.15985,0.34299-0.34887,0.34299h-0.37103c-0.18902,0-0.3442-0.15166-0.35003-0.34299l-0.05017-4.52765h-0.4072
		l-0.04784,4.52765c-0.00583,0.19133-0.15985,0.34299-0.35003,0.34299h-0.3687c-0.19018,0-0.34537-0.15166-0.3512-0.34299
		l-0.14351-5.04329l-0.06067-2.78705l-0.6919,2.16991C9.66925,9.21811,9.45573,9.34644,9.25155,9.28461L9.21421,9.27294
		c-0.20069-0.063-0.31736-0.28815-0.27069-0.51565C9.49074,6.13357,9.7661,4.81763,9.76726,4.81296
		c0,0,0.13768-0.45031,0.51105-0.58448c0.51455-0.18666,3.11179-0.12716,3.38132-0.01983
		C13.96416,4.33115,14.11701,4.60647,14.17184,4.83979z M4.03305,3.35072c-0.64523,0-1.16678-0.52498-1.16678-1.17478
		c0-0.64864,0.52155-1.17595,1.16678-1.17595c0.64406,0,1.16678,0.52731,1.16678,1.17595
		C5.19982,2.82574,4.67711,3.35072,4.03305,3.35072z M5.99743,4.83524L7.0557,8.75741
		C7.10353,8.9849,6.98569,9.21006,6.78617,9.27306l-0.0385,0.0105c-0.20302,0.063-0.41771-0.06533-0.48538-0.28815L5.54822,6.84532
		l0.05601,0.63931l0.65806,3.72268H5.44321L5.23202,14.657c-0.00583,0.19133-0.16102,0.34299-0.3512,0.34299H4.62647
		c-0.19018,0-0.34537-0.15166-0.3512-0.34299l-0.03734-3.44969H3.80622L3.77005,14.657
		c-0.00467,0.19133-0.15985,0.34299-0.35003,0.34299H3.16566c-0.18902,0-0.34537-0.15166-0.3512-0.34299l-0.21235-3.44969H1.80404
		l0.63356-3.72268l0.05834-0.65797L1.80404,8.9954C1.7352,9.21823,1.52168,9.34655,1.31866,9.28356l-0.0385-0.0105
		c-0.19952-0.063-0.31736-0.28815-0.26953-0.51565c0,0,1.04893-3.96184,1.0501-3.96767c0,0,0.14351-0.43515,0.51105-0.58448
		c0.46554-0.18899,2.48757-0.16683,2.91344,0C5.79091,4.32426,5.94259,4.60192,5.99743,4.83524z"/>
</g>
</svg>
