<?xml version="1.0" encoding="utf-8"?>
<!-- Generator: Adobe Illustrator 22.0.1, SVG Export Plug-In . SVG Version: 6.00 Build 0)  -->
<svg version="1.1" id="Layer_1" xmlns="http://www.w3.org/2000/svg" xmlns:xlink="http://www.w3.org/1999/xlink" x="0px" y="0px"
	 viewBox="0 0 16 16" enable-background="new 0 0 16 16" xml:space="preserve">
<title>Icon/Facilities/TVM</title>
<desc>Created with Sketch.</desc>
<g id="Icon_x2F_Facilities_x2F_TVM">
	<path id="Icon-Fill" fill="#181C56" d="M7.5603,10.56931V6.19921H6.69657v4.37011H7.5603z M9.28777,8.82127V6.19921H8.42404
		v2.62206H9.28777z M4.10536,3.96648c0-0.24167,0.19304-0.43701,0.43187-0.43701h6.90988c0.23882,0,0.43187,0.19534,0.43187,0.43701
		v9.61424c0,0.24167-0.19305,0.43701-0.43187,0.43701H9.28777c-0.23882,0-0.43187-0.19534-0.43187-0.43701
		c0-0.48202-0.38738-0.87402-0.86373-0.87402c-0.47635,0-0.86373,0.392-0.86373,0.87402c0,0.24167-0.19304,0.43701-0.43187,0.43701
		H4.53723c-0.23882,0-0.43187-0.19534-0.43187-0.43701V3.96648z M14.9944,3.59119H15v2.47603
		c0,0.3714-0.25055,0.61901-0.62638,0.61901h-1.54811V5.44821h0.92173V4.09502h-0.0056V2.238H7.11815H2.25276v1.85702v1.35319
		h0.92173v1.23801H1.62638C1.25055,6.68623,1,6.43862,1,6.06722v-1.9722V1.61899c0-0.3714,0.25055-0.61901,0.62638-0.61901h5.49177
		h7.24987c0.37583,0,0.62638,0.2476,0.62638,0.61901V3.59119z"/>
</g>
</svg>
