<?xml version="1.0" encoding="utf-8"?>
<!-- Generator: Adobe Illustrator 22.0.1, SVG Export Plug-In . SVG Version: 6.00 Build 0)  -->
<svg version="1.1" id="Layer_1" xmlns="http://www.w3.org/2000/svg" xmlns:xlink="http://www.w3.org/1999/xlink" x="0px" y="0px"
	 viewBox="0 0 16 16" enable-background="new 0 0 16 16" xml:space="preserve">
<title>Icon/Facilities/Waiting Room</title>
<desc>Created with Sketch.</desc>
<g id="Icon_x2F_Facilities_x2F_Waiting-Room">
	<g id="Icon-Fill">
		<path id="path-1_1_" fill="#181C56" d="M3.33351,3.55959c-0.62691-0.45-0.78016-1.322-0.34132-1.962
			c0.43784-0.634,1.30955-0.788,1.94243-0.344c0.62691,0.449,0.78115,1.321,0.34231,1.961
			C4.83113,3.84759,3.96739,4.00259,3.33351,3.55959z M10.75098,12.95459v1.406H5.8332c-1.72053,0-3.18233-1.265-3.44702-2.982
			L1,4.51659h1.39214l1.37224,6.651c0.15325,1.027,1.03192,1.787,2.06185,1.787H10.75098z M7.51193,10.14159h3.97542l2.3952,3.666
			c0.21196,0.327,0.12936,0.77-0.18608,0.989l-0.11344,0.08c-0.32042,0.224-0.75727,0.134-0.96923-0.2l-1.54141-2.426H6.45315
			c-1.00207,0-1.85885-0.716-2.05389-1.715l-0.94136-4.163c-0.20201-0.95,0.42491-1.681,1.28268-1.836h0.01393
			c0.22987-0.042,0.59507-0.008,0.81001,0.08c0.28261,0.114,0.69557,0.308,0.8727,1.126L7.51193,10.14159z M10.95199,0.99959
			c1.65684,0,3.01316,1.369,3.01316,3.042s-1.35632,3.042-3.01316,3.042s-3.01316-1.369-3.01316-3.042
			S9.29515,0.99959,10.95199,0.99959z M10.95199,6.32259c1.24288,0,2.25888-1.026,2.25888-2.281c0-1.254-1.016-2.281-2.25888-2.281
			s-2.25987,1.027-2.25987,2.281C8.69212,5.29659,9.70911,6.32259,10.95199,6.32259L10.95199,6.32259z M11.32814,2.52059v1.141
			h1.12944v0.76h-1.88273v-1.901H11.32814z"/>
	</g>
</g>
</svg>
