<?xml version="1.0" encoding="utf-8"?>
<!-- Generator: Adobe Illustrator 22.0.1, SVG Export Plug-In . SVG Version: 6.00 Build 0)  -->
<svg version="1.1" id="Layer_1" xmlns="http://www.w3.org/2000/svg" xmlns:xlink="http://www.w3.org/1999/xlink" x="0px" y="0px"
	 viewBox="0 0 16 16" enable-background="new 0 0 16 16" xml:space="preserve">
<title>Icon/Facilities/Wifi</title>
<desc>Created with Sketch.</desc>
<g id="Icon_x2F_Facilities_x2F_Wifi">
	<g id="Icon-Fill">
		<path id="path-1_1_" fill="#181C56" d="M8,10.49999c0.7245,0,1.3125,0.56,1.3125,1.25s-0.588,1.25-1.3125,1.25
			s-1.3125-0.56-1.3125-1.25S7.2755,10.49999,8,10.49999z M11.0625,9.66665c-0.7875-0.83333-1.925-1.25-3.0625-1.25
			s-2.275,0.41667-3.0625,1.25l-1.225-1.16667c1.1375-1.16667,2.625-1.75,4.2875-1.75s3.15,0.58333,4.2875,1.75L11.0625,9.66665z
			 M8,2.99999c2.625,0,5.075,0.91667,7,2.66667l-1.225,1.25c-1.575-1.5-3.5875-2.25-5.775-2.25s-4.2,0.75-5.775,2.16667L1,5.66665
			C2.925,3.91665,5.375,2.99999,8,2.99999z"/>
	</g>
</g>
</svg>
