<?xml version="1.0" encoding="utf-8"?>
<!-- Generator: Adobe Illustrator 24.0.1, SVG Export Plug-In . SVG Version: 6.00 Build 0)  -->
<svg version="1.1" id="Layer_1" xmlns="http://www.w3.org/2000/svg" xmlns:xlink="http://www.w3.org/1999/xlink" x="0px" y="0px"
	 width="16px" height="16px" viewBox="0 0 16 16" enable-background="new 0 0 16 16" xml:space="preserve">
<path id="path-1_1_" fill-rule="evenodd" clip-rule="evenodd" fill="#181C56" d="M13,9.5v2h2v1h-2v2h-1v-2h-2v-1h2v-2H13z
	 M15,7.8999996H2.1259999l0.0004368,2.8780718c0,0.3028603,0.230643,0.5571966,0.5252867,0.5974827l0.0818188,0.0055552h5.2445145
	V12.5H2.7335422c-0.9132247,0-1.6654873-0.7077837-1.7291751-1.5992727L1,10.7780714V3.2219286
	C1,2.314822,1.7125571,1.5675991,2.610059,1.5043378L2.7335422,1.5h10.5329151c0.9132252,0,1.6654873,0.7077835,1.7291756,1.5992725
	L15,3.2219286V7.8999996z M13.8730001,4.9000001H2.1259999v2h11.7469997V4.9000001z M13.2664576,2.6188903H2.7335422
	c-0.3049028,0-0.5609543,0.2290981-0.6015122,0.5217676L2.1264367,3.2219286L2.1259999,3.9000001h11.7469997l0.0005627-0.6780715
	c0-0.30286-0.2306423-0.5571964-0.5252867-0.5974824L13.2664576,2.6188903z"/>
</svg>
