<?xml version="1.0" encoding="utf-8"?>
<!-- Generator: Adobe Illustrator 22.0.1, SVG Export Plug-In . SVG Version: 6.00 Build 0)  -->
<svg version="1.1" id="Layer_1" xmlns="http://www.w3.org/2000/svg" xmlns:xlink="http://www.w3.org/1999/xlink" x="0px" y="0px"
	 viewBox="0 0 16 16" enable-background="new 0 0 16 16" xml:space="preserve">
<title>Icon/UI/Bell</title>
<desc>Created with Sketch.</desc>
<g id="Icon_x2F_UI_x2F_Bell">
	<g id="Icon-Fill">
		<path id="path-1_1_" fill="#181C56" d="M10.5375,13.16249c-0.9625,0.0875-1.75,0.0875-2.5375,0.0875s-1.575,0-2.5375-0.0875
			c0.35,1.05,1.3125,1.8375,2.5375,1.8375S10.1875,14.21249,10.5375,13.16249 M13.6,7.82499c-0.7-0.6125-1.225-0.9625-1.225-1.575
			v-0.875c0-2.45-1.925-4.375-4.375-4.375s-4.375,1.925-4.375,4.375v0.875c0,0.6125-0.525,0.9625-1.225,1.575
			c-0.7,0.525-1.4,1.05-1.4,1.925c0,2.45,5.3375,2.625,7,2.625s7-0.175,7-2.625C15,8.87499,14.3,8.34999,13.6,7.82499"/>
	</g>
</g>
</svg>
