<?xml version="1.0" encoding="UTF-8"?>
<svg width="16px" height="16px" viewBox="0 0 16 16" version="1.1" xmlns="http://www.w3.org/2000/svg" xmlns:xlink="http://www.w3.org/1999/xlink">
    <!-- Generator: Sketch 63 (92445) - https://sketch.com -->
    <title>Icon/UI/Bug</title>
    <desc>Created with Sketch.</desc>
    <g id="Icon/UI/Bug" stroke="none" stroke-width="1" fill="none" fill-rule="evenodd">
        <path d="M15,9.69565217 L15,7.95652174 L13.25,7.95652174 C13.1625,7.26086957 12.9875,6.65217391 12.725,6.04347826 L14.475,4.56521739 L13.3375,3.26086957 L11.7625,4.56521739 C11.5,4.30434783 11.2375,4.04347826 10.975,3.7826087 C11.0625,2.47826087 9.575,1 8,1 C6.425,1 4.9375,2.47826087 4.9375,3.7826087 C4.675,4.04347826 4.4125,4.2173913 4.15,4.56521739 L2.6625,3.26086957 L1.525,4.56521739 L3.275,6.04347826 C3.0125,6.65217391 2.8375,7.26086957 2.75,7.95652174 L1,7.95652174 L1,9.69565217 L2.75,9.69565217 C2.8375,10.5652174 3.1875,11.4347826 3.5375,12.2173913 L2.1375,13.4347826 L3.275,14.7391304 L4.5875,13.6086957 C5.4625,14.4782609 6.6875,15 7.9125,15 C9.1375,15 10.3625,14.4782609 11.2375,13.6086957 L12.55,14.7391304 L13.6875,13.4347826 L12.2875,12.2173913 C12.9,11.4347826 13.1625,10.5652174 13.25,9.69565217 L15,9.69565217 Z" id="Icon-Fill" fill="#181C56"></path>
    </g>
</svg>