<?xml version="1.0" encoding="utf-8"?>
<!-- Generator: Adobe Illustrator 24.0.1, SVG Export Plug-In . SVG Version: 6.00 Build 0)  -->
<svg version="1.1" id="Layer_1" xmlns="http://www.w3.org/2000/svg" xmlns:xlink="http://www.w3.org/1999/xlink" x="0px" y="0px"
	 width="16px" height="16px" viewBox="0 0 16 16" enable-background="new 0 0 16 16" xml:space="preserve">
<path id="path-1_1_" fill-rule="evenodd" clip-rule="evenodd" fill="#181C56" d="M15,12.2158089
	C15,13.2014503,14.2241182,14,13.2664576,14l0,0H2.7335422C1.7758814,14,1,13.2014503,1,12.2158089l0,0V3.7841907
	C1,2.7985501,1.7758814,2,2.7335422,2l0,0h10.5329151C14.2241182,2,15,2.7985501,15,3.7841907l0,0V12.2158089z
	 M13.8730001,8.3999996H2.1259999l0.0004368,3.8158092c0,0.3139553,0.2244287,0.5734825,0.5173352,0.6180744l0.0897703,0.0067692
	h10.5329151c0.3355474,0,0.6071053-0.2794924,0.6071053-0.6248436l0,0L13.8730001,8.3999996z M13.8730001,5.4000001H2.1259999v2
	h11.7469997V5.4000001z M13.2664576,3.1593475H2.7335422c-0.335547,0-0.6071055,0.2794926-0.6071055,0.6248431l0,0
	L2.1259999,4.4000001h11.7469997l0.0005627-0.6158094c0-0.3139551-0.2244282-0.573482-0.5173349-0.6180739L13.2664576,3.1593475z"/>
</svg>
