<?xml version="1.0" encoding="utf-8"?>
<!-- Generator: Adobe Illustrator 22.0.1, SVG Export Plug-In . SVG Version: 6.00 Build 0)  -->
<svg version="1.1" id="Layer_1" xmlns="http://www.w3.org/2000/svg" xmlns:xlink="http://www.w3.org/1999/xlink" x="0px" y="0px"
	 viewBox="0 0 16 16" enable-background="new 0 0 16 16" xml:space="preserve">
<title>Icon/UI/Contacts</title>
<desc>Created with Sketch.</desc>
<g id="Icon_x2F_UI_x2F_Contacts">
	<path id="Icon-Fill" fill="#181C56" d="M4.5,9.74999c0,0,0.875-1.75,3.5-1.75s3.5,1.75,3.5,1.75H4.5z M8,2.74999
		c0.96688,0,1.75,0.78312,1.75,1.75s-0.78312,1.75-1.75,1.75s-1.75-0.78312-1.75-1.75S7.03312,2.74999,8,2.74999L8,2.74999z
		 M14.125,0.99999H1.875c-0.483,0-0.875,0.392-0.875,0.875v9.625c0,0.483,0.392,0.875,0.875,0.875h3.13775l2.36862,2.36862
		C7.552,14.91424,7.776,14.99999,8,14.99999s0.448-0.08575,0.61862-0.25638l2.36863-2.36862H14.125c0.483,0,0.875-0.392,0.875-0.875
		v-9.625C15,1.39199,14.608,0.99999,14.125,0.99999L14.125,0.99999z"/>
</g>
</svg>
