<?xml version="1.0" encoding="utf-8"?>
<!-- Generator: Adobe Illustrator 24.0.1, SVG Export Plug-In . SVG Version: 6.00 Build 0)  -->
<svg version="1.1" id="Layer_1" xmlns="http://www.w3.org/2000/svg" xmlns:xlink="http://www.w3.org/1999/xlink" x="0px" y="0px"
	 width="16px" height="16px" viewBox="0 0 16 16" enable-background="new 0 0 16 16" xml:space="preserve">
<path id="delete-a" fill-rule="evenodd" clip-rule="evenodd" fill="#181C56" d="M10.3140497,1
	c0.3221664,0,0.5884161,0.2394032,0.6305542,0.5500128l0.0058088,0.0863508l-0.0004129,1.6776363L15,3.3140495v1.2727273
	L13.099,4.586l0.0001736,9.7776356c0,0.3221664-0.2394028,0.5884171-0.5500126,0.6305552L12.4628096,15h-9.090909
	c-0.322166,0-0.5884166-0.2394037-0.6305544-0.5500126L2.7355373,14.363636L2.7349999,4.586L1,4.5867767V3.3140495
	l4.0489998-0.0000496l0.000587-1.6776363c0-0.3221661,0.2394032-0.5884166,0.5500131-0.6305543L5.6859503,1H10.3140497z
	 M11.8260002,4.586H4.0079999L4.008182,13.727273h7.8181815L11.8260002,4.586z M9.7867765,8v3.4710741h-1.272727V8H9.7867765z
	 M7.4727273,8v3.4710741H6.1999998V8H7.4727273z M9.6772728,2.2727273H6.3218184L6.322,3.3139999h3.355L9.6772728,2.2727273z"/>
</svg>
