<?xml version="1.0" encoding="utf-8"?>
<!-- Generator: Adobe Illustrator 22.0.1, SVG Export Plug-In . SVG Version: 6.00 Build 0)  -->
<svg version="1.1" id="Layer_1" xmlns="http://www.w3.org/2000/svg" xmlns:xlink="http://www.w3.org/1999/xlink" x="0px" y="0px"
	 viewBox="0 0 16 16" enable-background="new 0 0 16 16" xml:space="preserve">
<title>Icon/UI/Loading</title>
<desc>Created with Sketch.</desc>
<g id="Icon_x2F_UI_x2F_Loading">
	<g id="Icon-Fill">
		<path id="path-1_1_" fill="#181C56" d="M8,14.99999c-3.86599,0-7-3.13401-7-7s3.13401-7,7-7s7,3.13401,7,7
			S11.86599,14.99999,8,14.99999z M8,12.99999c2.76142,0,5-2.23858,5-5s-2.23858-5-5-5s-5,2.23858-5,5S5.23858,12.99999,8,12.99999z
			"/>
	</g>
	<g id="Icon-Fill_1_">
		<path id="path-3_1_" fill="#181C56" d="M1.33753,10.13829l1.8939-0.6565c0.32763,1.31425,1.30471,2.48234,2.76598,3.0956
			c1.09477,0.45945,2.27992,0.53136,3.36451,0.27827l0.71846,1.87997c-1.57651,0.43015-3.32174,0.34946-4.92801-0.34605
			C3.18603,13.53815,1.84593,11.94634,1.33753,10.13829z"/>
	</g>
</g>
</svg>
