<?xml version="1.0" encoding="UTF-8"?>
<svg width="16px" height="16px" viewBox="0 0 16 16" version="1.1" xmlns="http://www.w3.org/2000/svg" xmlns:xlink="http://www.w3.org/1999/xlink">
    <!-- Generator: Sketch 63 (92445) - https://sketch.com -->
    <title>Icon/UI/New</title>
    <desc>Created with Sketch.</desc>
    <g id="Icon/UI/New" stroke="none" stroke-width="1" fill="none" fill-rule="evenodd">
        <path d="M4.0728673,10.625 L4.14418109,10.6332142 C4.28158165,10.6654489 4.38388626,10.7887866 4.38388626,10.936019 C4.38388626,11.8049437 5.08150178,12.5118483 5.93898104,12.5118483 C6.11075207,12.5118483 6.25,12.6510963 6.25,12.8228673 C6.25,12.9946383 6.11075207,13.1338863 5.93898104,13.1338863 C5.08150178,13.1338863 4.38388626,13.8315018 4.38388626,14.688981 L4.38388626,14.688981 L4.37567202,14.7602948 C4.3434374,14.8976954 4.22009961,15 4.0728673,15 C3.90109627,15 3.76184834,14.8607521 3.76184834,14.688981 C3.76184834,13.8315018 3.05494372,13.1338863 2.18601896,13.1338863 L2.18601896,13.1338863 L2.11470516,13.125672 C1.9773046,13.0934374 1.875,12.9700996 1.875,12.8228673 C1.875,12.6510963 2.01424793,12.5118483 2.18601896,12.5118483 C3.04020142,12.5118483 3.76184834,11.7902014 3.76184834,10.936019 L3.76184834,10.936019 L3.77006257,10.8647052 C3.8022972,10.7273046 3.92563499,10.625 4.0728673,10.625 L4.0728673,10.625 Z M10.6457346,4.5 C10.9892767,4.5 11.2677725,4.77849586 11.2677725,5.12203791 C11.2677725,6.85988744 12.6630036,8.27369668 14.3779621,8.27369668 C14.7215041,8.27369668 15,8.55219254 15,8.8957346 C15,9.23927665 14.7215041,9.51777251 14.3779621,9.51777251 C12.6630036,9.51777251 11.2677725,10.9130036 11.2677725,12.6279621 L11.2677725,12.6279621 L11.261028,12.7198823 C11.2165993,13.0198381 10.9580456,13.25 10.6457346,13.25 C10.3021925,13.25 10.0236967,12.9715041 10.0236967,12.6279621 C10.0236967,10.9130036 8.60988744,9.51777251 6.87203791,9.51777251 L6.87203791,9.51777251 L6.78011771,9.51102802 C6.48016187,9.46659933 6.25,9.20804556 6.25,8.8957346 C6.25,8.55219254 6.52849586,8.27369668 6.87203791,8.27369668 C8.58040284,8.27369668 10.0236967,6.83040284 10.0236967,5.12203791 L10.0236967,5.12203791 L10.0304412,5.03011771 C10.0748699,4.73016187 10.3334236,4.5 10.6457346,4.5 Z M4.07701422,1 C4.31749366,1 4.51244076,1.1949471 4.51244076,1.43542654 C4.51244076,2.65192121 5.48910249,3.64158768 6.68957346,3.64158768 C6.9300529,3.64158768 7.125,3.83653478 7.125,4.07701422 C7.125,4.31749366 6.9300529,4.51244076 6.68957346,4.51244076 C5.48910249,4.51244076 4.51244076,5.48910249 4.51244076,6.68957346 L4.51244076,6.68957346 L4.50542545,6.76784193 C4.46855705,6.97096772 4.29077372,7.125 4.07701422,7.125 C3.83653478,7.125 3.64158768,6.9300529 3.64158768,6.68957346 C3.64158768,5.48910249 2.65192121,4.51244076 1.43542654,4.51244076 L1.43542654,4.51244076 L1.35715807,4.50542545 C1.15403228,4.46855705 1,4.29077372 1,4.07701422 C1,3.83653478 1.1949471,3.64158768 1.43542654,3.64158768 C2.63128199,3.64158768 3.64158768,2.63128199 3.64158768,1.43542654 L3.64158768,1.43542654 L3.64860298,1.35715807 C3.68547138,1.15403228 3.86325472,1 4.07701422,1 Z" id="Icon-Fill" fill="#181C56"></path>
    </g>
</svg>