<?xml version="1.0" encoding="utf-8"?>
<!-- Generator: Adobe Illustrator 22.0.1, SVG Export Plug-In . SVG Version: 6.00 Build 0)  -->
<svg version="1.1" id="Layer_1" xmlns="http://www.w3.org/2000/svg" xmlns:xlink="http://www.w3.org/1999/xlink" x="0px" y="0px"
	 viewBox="0 0 16 16" enable-background="new 0 0 16 16" xml:space="preserve">
<title>Icon/UI/Organization</title>
<desc>Created with Sketch.</desc>
<g id="Icon_x2F_UI_x2F_Organization">
	<path id="Icon-Fill" fill="#181C56" d="M12.375,13.24999c-0.525,0-0.875-0.35-0.875-0.875s0.35-0.875,0.875-0.875
		s0.875,0.35,0.875,0.875S12.9,13.24999,12.375,13.24999 M8,4.49999c-0.525,0-0.875-0.35-0.875-0.875s0.35-0.875,0.875-0.875
		s0.875,0.35,0.875,0.875S8.525,4.49999,8,4.49999 M3.625,13.24999c-0.525,0-0.875-0.35-0.875-0.875s0.35-0.875,0.875-0.875
		s0.875,0.35,0.875,0.875S4.15,13.24999,3.625,13.24999 M12.375,9.74999c-0.525,0-0.9625,0.175-1.4,0.4375l-2.1-1.75v-2.3625
		c1.05-0.35,1.75-1.3125,1.75-2.45c0-1.4875-1.1375-2.625-2.625-2.625s-2.625,1.1375-2.625,2.625c0,1.1375,0.7,2.1,1.75,2.45v2.3625
		l-2.1,1.6625c-0.4375-0.175-0.875-0.35-1.4-0.35c-1.4875,0-2.625,1.1375-2.625,2.625s1.1375,2.625,2.625,2.625
		s2.625-1.1375,2.625-2.625c0-0.2625-0.0875-0.6125-0.175-0.875L8,10.01249l1.925,1.4875c-0.0875,0.2625-0.175,0.525-0.175,0.875
		c0,1.4875,1.1375,2.625,2.625,2.625S15,13.86249,15,12.37499S13.8625,9.74999,12.375,9.74999"/>
</g>
</svg>
