<?xml version="1.0" encoding="UTF-8"?>
<svg width="16px" height="16px" viewBox="0 0 16 16" version="1.1" xmlns="http://www.w3.org/2000/svg" xmlns:xlink="http://www.w3.org/1999/xlink">
    <!-- Generator: Sketch 63 (92445) - https://sketch.com -->
    <title>Icon/UI/Package</title>
    <desc>Created with Sketch.</desc>
    <g id="Icon/UI/Package" stroke="none" stroke-width="1" fill="none" fill-rule="evenodd">
        <path d="M11.5,11.275 L11.5,6.725 L13.25,4.975 L13.25,9.525 L11.5,11.275 Z M2.75,12.5 L9.75,12.5 L9.75,7.25 L2.75,7.25 L2.75,12.5 Z M5.725,3.75 L12.025,3.75 L10.275,5.5 L3.975,5.5 L5.725,3.75 Z M14.125,2 L5.375,2 C5.1125,2 4.9375,2.0875 4.7625,2.2625 L1.2625,5.7625 C1.0875,5.9375 1,6.1125 1,6.375 L1,13.375 C1,13.9 1.35,14.25 1.875,14.25 L10.625,14.25 C10.8875,14.25 11.0625,14.1625 11.2375,13.9875 L14.7375,10.4875 C14.9125,10.3125 15,10.1375 15,9.875 L15,2.875 C15,2.35 14.65,2 14.125,2 L14.125,2 Z" id="Icon-Fill" fill="#181C56"></path>
    </g>
</svg>