<?xml version="1.0" encoding="UTF-8"?>
<svg width="16px" height="16px" viewBox="0 0 16 16" version="1.1" xmlns="http://www.w3.org/2000/svg" xmlns:xlink="http://www.w3.org/1999/xlink">
    <!-- Generator: Sketch 58 (84663) - https://sketch.com -->
    <title>Icon/UI/Question</title>
    <desc>Created with Sketch.</desc>
    <g id="Icon/UI/Question" stroke="none" stroke-width="1" fill="none" fill-rule="evenodd">
        <path d="M8,1 C4.15,1 1,4.15 1,8 C1,11.85 4.15,15 8,15 C11.85,15 15,11.85 15,8 C15,4.15 11.85,1 8,1" id="Oval-Fill" fill="#181C56"></path>
        <path d="M7.9998,10.1063 C8.4418,10.1063 8.7998,10.4643 8.7998,10.9063 C8.7998,11.3473 8.4418,11.7063 7.9998,11.7063 C7.5578,11.7063 7.1998,11.3473 7.1998,10.9063 C7.1998,10.4643 7.5578,10.1063 7.9998,10.1063 Z M8.0356,4.2939 C9.2496,4.2939 10.1786,5.2219 10.1786,6.4369 C10.1786,7.4369 9.5356,7.8649 9.1076,8.1509 C8.7826,8.3459 8.7516,8.3909 8.7506,8.5419 L8.7496,9.2939 L7.3216,9.2939 L7.3216,8.5799 C7.3216,7.5629 7.7716,7.3759 8.1996,7.0899 C8.6776,6.7939 8.7956,6.6049 8.7866,6.3199 C8.7756,5.9129 8.4756,5.6759 8.0986,5.6809 C7.8136,5.6839 7.6046,5.7549 7.3926,6.0799 L7.0016,6.7019 L5.8216,6.0079 L6.1786,5.3649 C6.5356,4.7219 7.2496,4.2939 8.0356,4.2939 Z" id="Icon-Fill" fill="#FFFFFF"></path>
    </g>
</svg>