<?xml version="1.0" encoding="utf-8"?>
<!-- Generator: Adobe Illustrator 22.0.1, SVG Export Plug-In . SVG Version: 6.00 Build 0)  -->
<svg version="1.1" id="Layer_1" xmlns="http://www.w3.org/2000/svg" xmlns:xlink="http://www.w3.org/1999/xlink" x="0px" y="0px"
	 viewBox="0 0 16 16" enable-background="new 0 0 16 16" xml:space="preserve">
<title>Icon/UI/Question</title>
<desc>Created with Sketch.</desc>
<g id="Icon_x2F_UI_x2F_Question">
	<g id="Oval-Fill">
		<path id="path-1_1_" fill="#181C56" d="M8,0.99999c-3.85,0-7,3.15-7,7s3.15,7,7,7s7-3.15,7-7S11.85,0.99999,8,0.99999"/>
	</g>
	<path id="Icon-Fill" fill="#FFFFFF" d="M9.3125,8.34999c-0.4375,0.2625-0.4375,0.35-0.4375,0.525v0.875h-1.75v-0.875
		c0-1.1375,0.7-1.6625,1.225-2.0125c0.4375-0.2625,0.525-0.35,0.525-0.6125c0-0.525-0.35-0.875-0.875-0.875
		c-0.35,0-0.6125,0.175-0.7875,0.4375L6.775,6.59999l-1.4875-0.875l0.4375-0.7875C6.1625,4.14999,7.0375,3.62499,8,3.62499
		c1.4875,0,2.625,1.1375,2.625,2.625C10.625,7.47499,9.8375,7.99999,9.3125,8.34999z M8,12.37499c-0.525,0-0.875-0.35-0.875-0.875
		s0.35-0.875,0.875-0.875s0.875,0.35,0.875,0.875S8.525,12.37499,8,12.37499z"/>
</g>
</svg>
