<?xml version="1.0" encoding="utf-8"?>
<!-- Generator: Adobe Illustrator 22.0.1, SVG Export Plug-In . SVG Version: 6.00 Build 0)  -->
<svg version="1.1" id="Layer_1" xmlns="http://www.w3.org/2000/svg" xmlns:xlink="http://www.w3.org/1999/xlink" x="0px" y="0px"
	 viewBox="0 0 16 16" enable-background="new 0 0 16 16" xml:space="preserve">
<title>Icon/UI/Search</title>
<desc>Created with Sketch.</desc>
<g id="Icon_x2F_UI_x2F_Search">
	<g id="Icon-Fill">
		<path id="path-1_1_" fill="#181C56" d="M7.2124,11.52149c-2.45,0-4.462-1.913-4.462-4.348c0-2.434,2.012-4.434,4.462-4.434
			s4.462,2,4.462,4.434C11.6744,9.60849,9.6624,11.52149,7.2124,11.52149L7.2124,11.52149z M14.9964,13.78049l-2.884-2.954
			c0.787-1.044,1.225-2.261,1.225-3.653c0-3.391-2.712-6.173-6.125-6.173s-6.212,2.782-6.212,6.173c0,3.392,2.799,6.174,6.212,6.174
			c1.4,0,2.712-0.434,3.675-1.217l2.885,2.869L14.9964,13.78049z"/>
	</g>
</g>
</svg>
