<?xml version="1.0" encoding="utf-8"?>
<!-- Generator: Adobe Illustrator 22.0.1, SVG Export Plug-In . SVG Version: 6.00 Build 0)  -->
<svg version="1.1" id="Layer_1" xmlns="http://www.w3.org/2000/svg" xmlns:xlink="http://www.w3.org/1999/xlink" x="0px" y="0px"
	 viewBox="0 0 16 16" enable-background="new 0 0 16 16" xml:space="preserve">
<title>Icon/UI/Settings</title>
<desc>Created with Sketch.</desc>
<g id="Icon_x2F_UI_x2F_Settings">
	<g id="Icon-Fill">
		<path id="path-1_1_" fill="#181C56" d="M8,10.62499c-1.4875,0-2.625-1.1375-2.625-2.625s1.1375-2.625,2.625-2.625
			s2.625,1.1375,2.625,2.625S9.4875,10.62499,8,10.62499 M12.6375,5.54999L13.6,3.71249l-1.225-1.225l-1.8375,0.9625
			c-0.2625-0.175-0.6125-0.2625-0.9625-0.35l-0.7-2.1h-1.75l-0.7,2.0125c-0.2625,0.0875-0.6125,0.175-0.875,0.35l-1.8375-0.9625
			L2.4,3.71249l0.9625,1.8375c-0.175,0.2625-0.2625,0.6125-0.35,0.875L1,7.12499v1.75l2.0125,0.7
			c0.0875,0.35,0.2625,0.6125,0.35,0.9625L2.4,12.37499l1.225,1.225l1.8375-0.9625c0.2625,0.175,0.6125,0.2625,0.9625,0.35
			l0.7,2.0125h1.75l0.7-2.0125c0.35-0.0875,0.6125-0.2625,0.9625-0.35l1.8375,0.9625l1.225-1.225l-0.9625-1.8375
			c0.175-0.2625,0.2625-0.6125,0.35-0.9625l2.0125-0.7v-1.75l-2.0125-0.7C12.9,6.16249,12.8125,5.81249,12.6375,5.54999"/>
	</g>
</g>
</svg>
