<?xml version="1.0" encoding="utf-8"?>
<!-- Generator: Adobe Illustrator 24.0.1, SVG Export Plug-In . SVG Version: 6.00 Build 0)  -->
<svg version="1.1" id="Layer_1" xmlns="http://www.w3.org/2000/svg" xmlns:xlink="http://www.w3.org/1999/xlink" x="0px" y="0px"
	 width="16px" height="16px" viewBox="0 0 16 16" enable-background="new 0 0 16 16" xml:space="preserve">
<path id="path-1_1_" fill-rule="evenodd" clip-rule="evenodd" fill="#181C56" d="M8.875,1l0.0001659,1.5689926
	c0.8663664,0.1384799,1.6652727,0.4793105,2.3466778,0.9725323L12.3310003,2.431l1.2379999,1.2379999l-1.1098804,1.1099303
	c0.492734,0.6808877,0.8333359,1.4791155,0.9719,2.3448567L15,7.1240001V8.875l-1.5688152-0.0002146
	c-0.1384602,0.8661375-0.4791365,1.6647272-0.972065,2.3458843l1.1098804,1.1103306l-1.2379999,1.2379999l-1.1101637-1.1101961
	c-0.6811857,0.4928284-1.4797316,0.8333921-2.3456707,0.9718037L8.875,15h-1.75l0.0003953-1.5693922
	c-0.8657026-0.1383438-1.6639256-0.4786386-2.3448572-0.9710741l-1.1115382,1.1094666l-1.237-1.2379999l1.1093957-1.1103306
	c-0.4928322-0.6811571-0.8333964-1.4797468-0.971806-2.3458843L1,8.875V7.1240001l1.5697539-0.0002131
	c0.1385145-0.8657413,0.4790044-1.663969,0.9716418-2.3448567L2.4319999,3.6689999l1.237-1.2379999l1.1105306,1.1097956
	c0.6811514-0.4928284,1.4797349-0.8333914,2.3458648-0.9718029L7.125,1H8.875z M8.0003996,4.0398002
	c-2.1879997,0-3.9599996,1.7729998-3.9599996,3.96s1.7719998,3.9599996,3.9599996,3.9599996
	c2.1870003,0,3.96-1.7729998,3.96-3.9599996S10.1873999,4.0398002,8.0003996,4.0398002"/>
</svg>
