<?xml version="1.0" encoding="utf-8"?>
<!-- Generator: Adobe Illustrator 24.0.1, SVG Export Plug-In . SVG Version: 6.00 Build 0)  -->
<svg version="1.1" id="Layer_1" xmlns="http://www.w3.org/2000/svg" xmlns:xlink="http://www.w3.org/1999/xlink" x="0px" y="0px"
	 width="16px" height="16px" viewBox="0 0 16 16" enable-background="new 0 0 16 16" xml:space="preserve">
<path id="path-1_1_" fill-rule="evenodd" clip-rule="evenodd" fill="#181C56" d="M10.3141651,1
	c0.3221664,0,0.5884171,0.2394032,0.6305542,0.5500128l0.0058098,0.0863508l-0.0005293,1.2726363L14.363636,2.909091
	c0.3221664,0,0.5884171,0.2315109,0.6305552,0.5318804L15,3.5244756v6.7692304c0,0.3115454-0.2394037,0.5690184-0.5500126,0.609767
	l-0.0289879,0.0015268l0.0006037,3.4586363c0,0.3221664-0.2394028,0.5884171-0.5500126,0.6305552L13.7852402,15H2.2149918
	c-0.3221662,0-0.5884167-0.2394037-0.6305544-0.5500126L1.5786281,14.363636l-0.0006281-3.4596357l-0.0467234-0.0032606
	c-0.273479-0.0439453-0.4880115-0.2565336-0.5254673-0.5235291L1,10.2937059V3.5244756
	c0-0.3115454,0.2394032-0.5690184,0.5500128-0.609767L1.6363636,2.909091l3.4126363-0.0000911l0.0007029-1.2726363
	c0-0.3221661,0.2394032-0.5884166,0.5500126-0.6305543L5.6860662,1H10.3141651z M8.636364,11.6999998H7.3636365
	l-0.0006366-0.7909994H2.8510001L2.850909,13.727273h10.2972727l-0.0001822-2.8182726H8.6359997L8.636364,11.6999998z
	 M13.727273,4.1398602H2.2727273v5.5384617l5.0902729-0.0003214l0.0006366-0.7780008H8.636364L8.6359997,9.6800003
	l0.5030909-0.0016785h4.5881824V4.1398602z M9.6772728,2.2727273H6.3218184L6.322,2.9089999h3.355L9.6772728,2.2727273z"/>
</svg>
