<?xml version="1.0" encoding="utf-8"?>
<!-- Generator: Adobe Illustrator 24.0.1, SVG Export Plug-In . SVG Version: 6.00 Build 0)  -->
<svg version="1.1" id="Layer_1" xmlns="http://www.w3.org/2000/svg" xmlns:xlink="http://www.w3.org/1999/xlink" x="0px" y="0px"
	 width="16px" height="16px" viewBox="0 0 16 16" enable-background="new 0 0 16 16" xml:space="preserve">
<path id="Icon-Fill" fill-rule="evenodd" clip-rule="evenodd" fill="#181C56" d="M1.6319838,10
	c-0.3758278,0-0.626379-0.2501812-0.626379-0.6254539l0.0003948-0.2465458L1,9.1272697V6.6254539
	c0-0.341157,0.2070675-0.5789328,0.5270805-0.6193447L1.626379,6h0.62638l0.0002413,0.8730001l0.0053625-0.0002699v1.8763618L4,8.75
	V6h1v2.75h1V6h1v2.75h2V6h1v2.75h1V6h1v2.75l1.747241-0.0009079V6h0.62638C14.7494488,6,15,6.2501812,15,6.6254539v2.7490921
	c0,0.341157-0.2070675,0.5789328-0.5270805,0.6193447L14.373621,10H1.6319838z"/>
</svg>
