<?xml version="1.0" encoding="utf-8"?>
<!-- Generator: Adobe Illustrator 22.0.1, SVG Export Plug-In . SVG Version: 6.00 Build 0)  -->
<svg version="1.1" id="Layer_1" xmlns="http://www.w3.org/2000/svg" xmlns:xlink="http://www.w3.org/1999/xlink" x="0px" y="0px"
	 viewBox="0 0 16 16" enable-background="new 0 0 16 16" xml:space="preserve">
<title>Icon/UI/Users</title>
<desc>Created with Sketch.</desc>
<g id="Icon_x2F_UI_x2F_Users">
	<g id="Icon-Fill">
		<path id="path-1_1_" fill="#181C56" d="M9.925,10.98361c0.4375,0.34925,0.7,0.87313,0.7,1.397v1.74625
			c0,0.52388-0.35,0.87313-0.875,0.87313H1.875C1.35,14.99999,1,14.65074,1,14.12686v-1.65894c0-0.52387,0.2625-1.04775,0.7-1.397
			l2.3625-1.83356C3.275,8.62617,2.75,7.75305,2.75,6.7053V5.83217c0-1.74625,1.4875-3.14325,3.2375-3.05594
			C7.65,2.86355,8.875,4.34786,8.875,6.0068v0.6985c0,1.04775-0.525,1.92088-1.3125,2.53206L9.925,10.98361z M14.2125,6.61799
			C14.7375,6.96724,15,7.49111,15,8.1023v0.6985c0,0.52387-0.35,0.87313-0.875,0.87313H11.15c0-0.08731-1.05-0.87313-1.05-0.87313
			c0.35-0.61119,0.525-1.397,0.525-2.18281V5.74486c0-1.397-0.6125-2.61937-1.575-3.4925
			c0.4375-0.78581,1.3125-1.397,2.3625-1.22238S13.25,2.25236,13.25,3.30011v0.78581c0,0.61119-0.2625,1.13506-0.6125,1.48431
			L14.2125,6.61799z"/>
	</g>
</g>
</svg>
