<?xml version="1.0" encoding="utf-8"?>
<!-- Generator: Adobe Illustrator 22.0.1, SVG Export Plug-In . SVG Version: 6.00 Build 0)  -->
<svg version="1.1" id="Layer_1" xmlns="http://www.w3.org/2000/svg" xmlns:xlink="http://www.w3.org/1999/xlink" x="0px" y="0px"
	 viewBox="0 0 16 16" enable-background="new 0 0 16 16" xml:space="preserve">
<title>Icon/UI/View</title>
<desc>Created with Sketch.</desc>
<g id="Icon_x2F_UI_x2F_View">
	<g id="Icon-Fill">
		<path id="path-1_1_" fill="#181C56" d="M8.0001,4.66665c2.48412,0,4.4065,2.3625,5.09074,3.33333
			c-0.686,0.97167-2.60837,3.33333-5.09074,3.33333c-2.48587,0-4.40825-2.365-5.09162-3.33417
			C3.58836,7.02915,5.50286,4.66665,8.0001,4.66665 M8.0001,12.99999c4.11862,0,6.77599-4.40333,6.88712-4.59
			c0.14962-0.25333,0.1505-0.56333,0.00087-0.81667c-0.11025-0.1875-2.74837-4.59333-6.88799-4.59333
			c-4.16062,0-6.78037,4.4075-6.88974,4.595c-0.14787,0.2525-0.147,0.56,0.00175,0.8125
			C1.22236,8.59415,3.86048,12.99999,8.0001,12.99999 M8.0001,6.33332c0.96687,0,1.75,0.74583,1.75,1.66667
			c0,0.92083-0.78312,1.66667-1.75,1.66667s-1.75-0.74583-1.75-1.66667C6.25011,7.07915,7.03323,6.33332,8.0001,6.33332"/>
	</g>
</g>
</svg>
